<svg xmlns="http://www.w3.org/2000/svg" xmlns:xlink="http://www.w3.org/1999/xlink" width="406.202" height="164.966" viewBox="0 0 406.202 164.966">
  <defs>
    <clipPath id="clip-path">
      <path id="Path_7250" data-name="Path 7250" d="M226.162,346.136,185.858,278l40.3-68.132H518.4L558.7,278l-40.3,68.132Z" fill="none"/>
    </clipPath>
  </defs>
  <g id="Group_840" data-name="Group 840" transform="translate(-169.18 -195.521)">
    <path id="Path_1751" data-name="Path 1751" d="M217.978,360.487H526.585l48.8-82.482-48.8-82.484H217.978l-48.8,82.484Z" fill="#fff"/>
    <path id="Path_1752" data-name="Path 1752" d="M226.162,209.873H518.4l40.3,68.132-40.3,68.13H226.162l-40.3-68.13Z" fill="#80192e"/>
    <g id="Group_808" data-name="Group 808">
      <g id="Group_4566" data-name="Group 4566">
        <g id="Group_4565" data-name="Group 4565" clip-path="url(#clip-path)">
          <g id="Group_4564" data-name="Group 4564">
            <rect id="Rectangle_354" data-name="Rectangle 354" width="384" height="46.778" transform="translate(180.281 301.394)" fill="#49a9f6"/>
            <rect id="Rectangle_355" data-name="Rectangle 355" width="384" height="46.778" transform="translate(180.281 207.837)" fill="#49a9f6"/>
            <rect id="Rectangle_356" data-name="Rectangle 356" width="384" height="46.778" transform="translate(180.281 254.616)" fill="#fff"/>
            <g id="Group_4563" data-name="Group 4563">
              <path id="Path_7198" data-name="Path 7198" d="M390.208,277.834a.363.363,0,0,0-.334-.179l-.142-.005c-5.376-.2-8.38-.3-10.066-.336,0-.029,0-.057-.008-.086.356-.109.759-.251,1.176-.4a11.9,11.9,0,0,1,2.609-.733,4.657,4.657,0,0,1,.569.015,5.458,5.458,0,0,0,2-.152,6.082,6.082,0,0,0,1.477-.7,2.021,2.021,0,0,1,1.876-.377c.167.047.38.078.447-.043s-.077-.276-.192-.382a2.213,2.213,0,0,0-2.013-.217c-2.291.991-3.05.895-3.784.8a3.826,3.826,0,0,0-1.44.033,13.226,13.226,0,0,0-1.48.409c-.21.068-.427.139-.679.213a3.307,3.307,0,0,1-.836.173c-.008-.025-.014-.049-.022-.074l9.321-4.24a.326.326,0,0,0,.212-.254.334.334,0,0,0-.116-.315.362.362,0,0,0-.378-.038l-9.568,3.584c-.012-.023-.023-.046-.035-.068.287-.236.6-.521.93-.817a11.734,11.734,0,0,1,2.134-1.679,4.873,4.873,0,0,1,.53-.2,5.46,5.46,0,0,0,1.788-.9,6.209,6.209,0,0,0,.975-1.075,2.363,2.363,0,0,1,1.711-1.2c.25-.031.383-.1.4-.211.016-.139-.178-.226-.325-.279a2.2,2.2,0,0,0-1.942.57c-1.733,1.786-2.492,2-3.225,2.205a3.807,3.807,0,0,0-1.282.565,12.745,12.745,0,0,0-1.388,1.1,3.789,3.789,0,0,1-1.1.757l-.024-.028,4.462-4.78,2.528-2.709a.325.325,0,0,0,.1-.317.337.337,0,0,0-.227-.245.359.359,0,0,0-.36.107s-.009.007-7.473,6.976l-.058-.047c.175-.33.359-.716.549-1.117a11.93,11.93,0,0,1,1.327-2.365,4.626,4.626,0,0,1,.409-.387,5.493,5.493,0,0,0,1.309-1.523,6.118,6.118,0,0,0,.549-1.539,2.025,2.025,0,0,1,1.06-1.594c.22-.124.316-.24.287-.346-.039-.134-.252-.141-.407-.134a2.2,2.2,0,0,0-1.576,1.27c-.921,2.318-1.539,2.8-2.137,3.272a3.8,3.8,0,0,0-.967,1.012,13.231,13.231,0,0,0-.855,1.524,3.9,3.9,0,0,1-.736,1.139l-.032-.016,3.592-9.593a.334.334,0,0,0-.168-.442.344.344,0,0,0-.46.212l-.007.017c-.032.068-.177.387-.726,1.6-.93,2.043-2.534,5.571-3.5,7.685l-.073-.02c.036-.371.058-.8.08-1.238a11.871,11.871,0,0,1,.321-2.694,4.687,4.687,0,0,1,.231-.517,5.483,5.483,0,0,0,.625-1.906,6.49,6.49,0,0,0-.068-1.535,2.262,2.262,0,0,1,.356-1.975c.156-.2.2-.342.132-.429-.087-.109-.286-.034-.428.033a2.2,2.2,0,0,0-.969,1.775c.035,2.5-.344,3.168-.71,3.812a3.772,3.772,0,0,0-.518,1.335,12.785,12.785,0,0,0-.206,1.739,3.915,3.915,0,0,1-.244,1.328l-.037,0-.091-2.641c-.077-2.269-.083-2.456-.261-7.6a.333.333,0,0,0-.327-.34.338.338,0,0,0-.342.369l0,.08h0c-.026.768-.238,6.924-.349,10.129l-.075.007c-.108-.356-.252-.759-.4-1.175a11.844,11.844,0,0,1-.733-2.61,4.636,4.636,0,0,1,.016-.566,5.508,5.508,0,0,0-.151-2,6.12,6.12,0,0,0-.7-1.475,2.024,2.024,0,0,1-.378-1.879c.068-.243.053-.393-.043-.446-.123-.068-.277.078-.382.193a2.2,2.2,0,0,0-.217,2.012c.988,2.289.894,3.07.8,3.826a3.752,3.752,0,0,0,.032,1.4,13.073,13.073,0,0,0,.473,1.683,3.871,3.871,0,0,1,.284,1.322l-.035.01-4.242-9.321a.334.334,0,0,0-.427-.2.346.346,0,0,0-.181.478l.02.052h0c.228.608,2.427,6.483,3.564,9.518l-.067.035c-.237-.288-.524-.606-.822-.935a11.729,11.729,0,0,1-1.675-2.129,4.625,4.625,0,0,1-.2-.53,5.493,5.493,0,0,0-.9-1.789,6.184,6.184,0,0,0-1.074-.973,2.378,2.378,0,0,1-1.206-1.712c-.029-.25-.1-.383-.21-.4-.137-.017-.226.177-.28.324-.339.938.34,1.666,1.126,2.51a10.5,10.5,0,0,1,1.023,1.213,5.424,5.424,0,0,1,.608,1.384,5.346,5.346,0,0,0,.586,1.342,12.743,12.743,0,0,0,1.086,1.379,3.856,3.856,0,0,1,.765,1.111.289.289,0,0,0-.027.024l-1.059-.988-4.872-4.55-1.557-1.454a.331.331,0,0,0-.475-.012.343.343,0,0,0,.021.505l6.974,7.469c-.016.02-.031.04-.047.059-.328-.174-.713-.358-1.113-.548a11.951,11.951,0,0,1-2.37-1.329,4.84,4.84,0,0,1-.39-.412,5.463,5.463,0,0,0-1.519-1.306,6.11,6.11,0,0,0-1.539-.548,2.02,2.02,0,0,1-1.6-1.062c-.124-.219-.239-.315-.346-.285-.135.039-.141.251-.134.408a2.205,2.205,0,0,0,1.271,1.575c2.319.921,2.792,1.528,3.249,2.115a3.788,3.788,0,0,0,1.035.989,13.158,13.158,0,0,0,1.525.855,3.9,3.9,0,0,1,1.138.736l-.017.032-9.593-3.593a.331.331,0,0,0-.441.167.345.345,0,0,0,.212.462l.109.048h0l1.666.759,7.522,3.423c-.006.024-.013.049-.02.073-.372-.036-.8-.058-1.243-.08a11.809,11.809,0,0,1-2.689-.321,4.7,4.7,0,0,1-.52-.231,5.439,5.439,0,0,0-1.9-.624,6.407,6.407,0,0,0-1.538.068,2.258,2.258,0,0,1-1.973-.357c-.2-.155-.343-.2-.429-.131-.109.087-.034.285.031.427.414.887,1.477.93,2.6.977a11.013,11.013,0,0,1,1.551.136,5.409,5.409,0,0,1,1.409.551,5.355,5.355,0,0,0,1.361.534,12.861,12.861,0,0,0,1.747.207,3.838,3.838,0,0,1,1.321.242l0,.038-10.234.352a.333.333,0,0,0-.021.666l10.257.352.006.076c-.356.109-.757.252-1.174.4a11.89,11.89,0,0,1-2.611.734,5.029,5.029,0,0,1-.565-.015,5.45,5.45,0,0,0-2,.151,6.09,6.09,0,0,0-1.478.7,2.024,2.024,0,0,1-1.876.376c-.242-.067-.393-.054-.446.042-.068.122.077.277.193.383a1.392,1.392,0,0,0,.984.364,5.658,5.658,0,0,0,1.8-.458,10.918,10.918,0,0,1,1.48-.466,5.387,5.387,0,0,1,1.512-.031,5.3,5.3,0,0,0,1.463-.028,12.724,12.724,0,0,0,1.693-.477,3.9,3.9,0,0,1,1.313-.281c0,.012.006.023.01.035l-9.321,4.242a.338.338,0,0,0-.194.433.318.318,0,0,0,.307.207.5.5,0,0,0,.168-.032l.051-.02h0l9.519-3.564.035.067c-.287.236-.6.521-.931.818a11.788,11.788,0,0,1-2.134,1.678,4.427,4.427,0,0,1-.53.2,5.446,5.446,0,0,0-1.787.9,6.115,6.115,0,0,0-1.1,1.216,2.015,2.015,0,0,1-1.586,1.063c-.251.03-.384.1-.4.21-.015.139.178.227.325.28a1.42,1.42,0,0,0,.49.09c.713,0,1.327-.571,2.016-1.214a10.976,10.976,0,0,1,1.217-1.026,5.4,5.4,0,0,1,1.384-.606,5.293,5.293,0,0,0,1.342-.585,12.967,12.967,0,0,0,1.376-1.084,3.921,3.921,0,0,1,1.114-.768l.023.027-6.992,7.488a.335.335,0,0,0-.013.473.323.323,0,0,0,.233.1.4.4,0,0,0,.274-.12l.195-.183,7.275-6.791c.02.017.042.034.064.051a11.356,11.356,0,0,0-.6,1.194,6.4,6.4,0,0,1-1.906,2.865,4.507,4.507,0,0,0-1.1,1.329,6.093,6.093,0,0,0-.55,1.545,2.013,2.013,0,0,1-1.059,1.589c-.22.123-.317.239-.286.345s.188.136.33.136l.077,0a2.2,2.2,0,0,0,1.576-1.27c.924-2.324,1.528-2.793,2.113-3.248a3.781,3.781,0,0,0,.99-1.036,12.462,12.462,0,0,0,.879-1.574,3.568,3.568,0,0,1,.709-1.091l.035.018-3.592,9.593a.333.333,0,0,0,.168.438.338.338,0,0,0,.138.031.33.33,0,0,0,.116-.021.327.327,0,0,0,.186-.175l.021-.044c.015-.033,2.816-6.188,4.23-9.3.027.008.053.014.08.023a11.276,11.276,0,0,0-.091,1.328,6.378,6.378,0,0,1-.666,3.374,4.528,4.528,0,0,0-.507,1.649,6.437,6.437,0,0,0,.069,1.536,2.264,2.264,0,0,1-.357,1.976c-.156.2-.2.342-.131.429a.163.163,0,0,0,.132.055.768.768,0,0,0,.295-.087,2.2,2.2,0,0,0,.97-1.776c-.036-2.5.342-3.165.709-3.81a3.79,3.79,0,0,0,.518-1.338,12.929,12.929,0,0,0,.207-1.737,3.892,3.892,0,0,1,.244-1.33l.036,0,.353,10.236a.333.333,0,0,0,.325.344h.011a.342.342,0,0,0,.332-.373v-.023c0-.093.018-.525.082-2.359.075-2.216.195-5.682.269-7.828l.083-.008a11.008,11.008,0,0,0,.423,1.261,6.442,6.442,0,0,1,.677,3.38,4.521,4.521,0,0,0,.162,1.71,6.154,6.154,0,0,0,.7,1.477,2.028,2.028,0,0,1,.377,1.878c-.068.243-.054.393.043.446a.125.125,0,0,0,.067.018c.108,0,.228-.116.315-.21a2.206,2.206,0,0,0,.217-2.013c-.989-2.29-.895-3.056-.8-3.8a3.787,3.787,0,0,0-.034-1.428,12.686,12.686,0,0,0-.473-1.682,3.915,3.915,0,0,1-.284-1.324l.035-.01,1.225,2.689c.8,1.766,1,2.211,3.018,6.631a.326.326,0,0,0,.311.215.334.334,0,0,0,.118-.021.34.34,0,0,0,.178-.474l-.006-.014c-1.777-4.745-2.929-7.819-3.578-9.557l.074-.038a11.7,11.7,0,0,0,.873,1,6.389,6.389,0,0,1,1.916,2.856,4.515,4.515,0,0,0,.807,1.525,6.1,6.1,0,0,0,1.215,1.1,2.021,2.021,0,0,1,1.065,1.588c.03.251.1.385.21.4h.016c.13,0,.212-.184.264-.325a2.207,2.207,0,0,0-.571-1.943c-1.8-1.747-2-2.48-2.19-3.19a3.79,3.79,0,0,0-.581-1.316,12.742,12.742,0,0,0-1.118-1.417,3.567,3.567,0,0,1-.737-1.07l.031-.027,7.489,6.993a.324.324,0,0,0,.239.1.346.346,0,0,0,.235-.092.341.341,0,0,0-.022-.505l-1.853-1.984c-1.534-1.645-3.731-4-5.12-5.485l.046-.059c.33.176.718.36,1.12.551a11.821,11.821,0,0,1,2.363,1.326,4.673,4.673,0,0,1,.389.411,5.477,5.477,0,0,0,1.521,1.306,6.114,6.114,0,0,0,1.539.55,2.023,2.023,0,0,1,1.594,1.061c.109.192.212.29.308.29a.126.126,0,0,0,.038-.006c.135-.038.141-.25.134-.406-.044-1-.952-1.411-2-1.89a10.655,10.655,0,0,1-1.4-.728,5.379,5.379,0,0,1-1.091-1.046,5.3,5.3,0,0,0-1.055-1.015,12.7,12.7,0,0,0-1.529-.857,3.944,3.944,0,0,1-1.134-.734l.017-.033,2.12.794,7.039,2.637.433.162a.343.343,0,0,0,.14.03.338.338,0,0,0,.3-.2.343.343,0,0,0-.213-.46l-.015-.006-9.283-4.224c.008-.024.014-.049.022-.073.37.036.794.058,1.234.079a11.89,11.89,0,0,1,2.7.321,4.761,4.761,0,0,1,.515.23,5.488,5.488,0,0,0,1.906.627,6.454,6.454,0,0,0,1.539-.069,2.25,2.25,0,0,1,1.972.356.615.615,0,0,0,.335.162.147.147,0,0,0,.1-.031c.11-.087.034-.284-.032-.426-.422-.9-1.417-.938-2.57-.979a10.73,10.73,0,0,1-1.583-.135,5.372,5.372,0,0,1-1.409-.55,5.276,5.276,0,0,0-1.362-.534,12.677,12.677,0,0,0-1.753-.207,3.823,3.823,0,0,1-1.314-.242l0-.037,10.236-.352a.33.33,0,0,0,.292-.153A.339.339,0,0,0,390.208,277.834Z" fill="#853409"/>
              <g id="Group_4562" data-name="Group 4562">
                <path id="Path_7199" data-name="Path 7199" d="M372.281,270.917a7.088,7.088,0,1,0,7.088,7.088A7.095,7.095,0,0,0,372.281,270.917Z" fill="#ffc703"/>
                <path id="Path_7200" data-name="Path 7200" d="M368.579,277.1l-.037-.024-.013-.007.01-.013.027-.033h0a1.635,1.635,0,0,1,2.523-.056l.028.037-.033.03v0h0a2.235,2.235,0,0,1-2.505.064Z" fill="#853409"/>
                <path id="Path_7201" data-name="Path 7201" d="M376.108,277.078l-.038.024h0a2.228,2.228,0,0,1-2.5-.064v0l-.025-.022-.009-.008.007-.009.022-.028a1.648,1.648,0,0,1,2.523.056h0l.026.033.01.013Z" fill="#853409"/>
                <path id="Path_7202" data-name="Path 7202" d="M372.267,265.993c0,.087.076,2.941.12,4.6q.207,0,.411.018l-.09-2.624c-.078-2.27-.084-2.456-.262-7.6v-.005a.181.181,0,0,0-.179-.185c-.108,0-.169.071-.181.2v.018l-.351,10.2c.136-.01.274-.017.412-.019C372.208,268.223,372.186,269.075,372.267,265.993Z" fill="#ffc703"/>
                <path id="Path_7203" data-name="Path 7203" d="M374.521,266.4c-.784,1.8-.27,1.525-.632,4.365.116.026.233.055.347.086.034-.36.055-.774.077-1.2a11.712,11.712,0,0,1,.329-2.734,4.68,4.68,0,0,1,.238-.536,5.347,5.347,0,0,0,.611-1.853,6.328,6.328,0,0,0-.068-1.5,2.413,2.413,0,0,1,.387-2.09.521.521,0,0,0,.13-.235.538.538,0,0,0-.239.073,2.06,2.06,0,0,0-.881,1.634c.037,2.543-.353,3.228-.73,3.89a3.636,3.636,0,0,0-.5,1.287,12.785,12.785,0,0,0-.205,1.72,4.073,4.073,0,0,1-.24,1.337c.148.017.294.039.439.064C374.122,268.394,373.525,267.869,374.521,266.4Z" fill="#ffc703"/>
                <path id="Path_7204" data-name="Path 7204" d="M365.371,261.83c.034.092,2.382,6.363,3.576,9.551.122-.061.246-.121.372-.175-.76-1.978-.548-1.427-1.647-4.293l1.869,4.2c.127-.051.256-.1.386-.142l-4.238-9.314a.179.179,0,0,0-.232-.109c-.076.028-.139.111-.1.261Z" fill="#ffc703"/>
                <path id="Path_7205" data-name="Path 7205" d="M369.473,266.526a3.642,3.642,0,0,0,.029,1.348,12.972,12.972,0,0,0,.469,1.666,4.083,4.083,0,0,1,.291,1.328q.212-.06.429-.108c-.386-2.338-1.139-2.6-.783-4.334-.035,1.969.334,1.5,1.088,4.275q.176-.031.354-.054c-.106-.346-.246-.738-.39-1.144a11.706,11.706,0,0,1-.743-2.65,4.943,4.943,0,0,1,.016-.587,5.379,5.379,0,0,0-.144-1.944,6,6,0,0,0-.685-1.441,2.169,2.169,0,0,1-.394-2,.555.555,0,0,0,.029-.266.528.528,0,0,0-.192.159,2.061,2.061,0,0,0-.19,1.847C369.662,264.948,369.562,265.787,369.473,266.526Z" fill="#ffc703"/>
                <path id="Path_7206" data-name="Path 7206" d="M359.706,265.706l6.962,7.457c.09-.1.182-.2.278-.3-1.462-1.539-1.054-1.109-3.168-3.338l3.337,3.168c.1-.1.2-.188.3-.278l-1.047-.977-4.873-4.549-1.561-1.459a.178.178,0,0,0-.258-.009.186.186,0,0,0,.015.276Z" fill="#ffc703"/>
                <path id="Path_7207" data-name="Path 7207" d="M364.644,266.982a5.55,5.55,0,0,1,.627,1.424,5.094,5.094,0,0,0,.567,1.3,12.608,12.608,0,0,0,1.075,1.365,4.053,4.053,0,0,1,.774,1.114c.116-.091.234-.179.355-.264-1.253-2.016-2.047-1.964-2.384-3.708.722,1.832.885,1.264,2.642,3.535.1-.063.2-.126.306-.185-.231-.28-.51-.589-.8-.91a11.792,11.792,0,0,1-1.7-2.163,4.944,4.944,0,0,1-.211-.549,5.363,5.363,0,0,0-.876-1.741,6.014,6.014,0,0,0-1.049-.949,2.526,2.526,0,0,1-1.266-1.816.14.14,0,1,0-.192-.037c-.307.848.342,1.545,1.1,2.352A10.856,10.856,0,0,1,364.644,266.982Z" fill="#ffc703"/>
                <path id="Path_7208" data-name="Path 7208" d="M355.933,271.443l.024.011,1.775.808,7.507,3.417c.043-.131.091-.26.141-.387l-4.2-1.871,4.292,1.648c.055-.126.114-.249.175-.372l-9.584-3.59a.178.178,0,0,0-.24.09C355.788,271.272,355.8,271.373,355.933,271.443Z" fill="#ffc703"/>
                <path id="Path_7209" data-name="Path 7209" d="M358.842,269.689c2.358.936,2.844,1.561,3.314,2.164a3.671,3.671,0,0,0,1,.954,12.81,12.81,0,0,0,1.509.845,4.094,4.094,0,0,1,1.147.736q.108-.193.228-.379c-1.9-1.358-2.654-1.049-3.621-2.514a16.751,16.751,0,0,0,3.79,2.261c.07-.1.143-.2.218-.294-.32-.169-.7-.347-1.083-.531a11.833,11.833,0,0,1-2.4-1.353,4.854,4.854,0,0,1-.406-.427,5.332,5.332,0,0,0-1.475-1.27,6.027,6.027,0,0,0-1.5-.536,2.166,2.166,0,0,1-1.693-1.135.542.542,0,0,0-.168-.209.535.535,0,0,0-.024.249A2.063,2.063,0,0,0,358.842,269.689Z" fill="#ffc703"/>
                <path id="Path_7210" data-name="Path 7210" d="M364.867,278.139c-1.688-.044-4.619-.121-4.6-.119l4.6-.12c0-.138.007-.275.017-.411l-10.222.351h-.008a.17.17,0,0,0-.179.174.167.167,0,0,0,.17.184l10.241.352C364.876,278.413,364.869,278.277,364.867,278.139Z" fill="#ffc703"/>
                <path id="Path_7211" data-name="Path 7211" d="M357.515,275.471a11.223,11.223,0,0,1,1.572.14,5.494,5.494,0,0,1,1.452.564,5.121,5.121,0,0,0,1.32.52,12.637,12.637,0,0,0,1.727.2,3.994,3.994,0,0,1,1.33.237c.017-.146.039-.291.065-.435-2.278-.528-2.851.048-4.3-.936,1.745.759,1.664.29,4.365.632.026-.118.055-.234.086-.349-.361-.034-.776-.056-1.207-.077a11.708,11.708,0,0,1-2.73-.329,4.557,4.557,0,0,1-.539-.239,5.312,5.312,0,0,0-1.849-.608,6.236,6.236,0,0,0-1.5.067,2.409,2.409,0,0,1-2.09-.389.536.536,0,0,0-.234-.129.526.526,0,0,0,.072.239C355.421,275.386,356.392,275.425,357.515,275.471Z" fill="#ffc703"/>
                <path id="Path_7212" data-name="Path 7212" d="M365.483,280.967c-1.979.758-1.427.546-4.293,1.648l4.2-1.871c-.051-.127-.1-.255-.141-.385l-9.313,4.238a.179.179,0,0,0-.107.235c.028.076.111.137.261.09l.016-.007,9.553-3.576C365.6,281.216,365.538,281.092,365.483,280.967Z" fill="#ffc703"/>
                <path id="Path_7213" data-name="Path 7213" d="M357.675,281.314a11.07,11.07,0,0,1,1.5-.472,5.543,5.543,0,0,1,1.554-.034,5.118,5.118,0,0,0,1.42-.025,12.68,12.68,0,0,0,1.674-.471,4.01,4.01,0,0,1,1.32-.29c-.04-.141-.076-.283-.108-.428-2.306.385-2.619,1.137-4.334.784,1.9.031,1.7-.379,4.275-1.086q-.031-.177-.054-.357c-.346.107-.737.246-1.141.39a11.757,11.757,0,0,1-2.653.743,4.7,4.7,0,0,1-.586-.015,5.362,5.362,0,0,0-1.945.144,6,6,0,0,0-1.443.687,2.173,2.173,0,0,1-2,.393.545.545,0,0,0-.267-.031.533.533,0,0,0,.159.194C355.7,282.037,356.617,281.7,357.675,281.314Z" fill="#ffc703"/>
                <path id="Path_7214" data-name="Path 7214" d="M367.136,283.34l-3.338,3.168c1.516-1.6,2.54-2.675,3.168-3.338-.1-.1-.188-.2-.278-.3l-6.986,7.481a.178.178,0,0,0-.008.257c.056.061.157.087.276-.014l.013-.013.2-.182,7.262-6.78C367.336,283.528,367.235,283.435,367.136,283.34Z" fill="#ffc703"/>
                <path id="Path_7215" data-name="Path 7215" d="M361.26,285.641a5.534,5.534,0,0,1,1.422-.626,5.142,5.142,0,0,0,1.3-.566,12.667,12.667,0,0,0,1.361-1.073,4.1,4.1,0,0,1,1.118-.776c-.092-.116-.18-.235-.265-.357-1.989,1.239-1.984,2.051-3.707,2.384,1.762-.692,1.382-.969,3.535-2.641-.065-.1-.127-.2-.186-.307-.279.23-.587.508-.9.8a11.744,11.744,0,0,1-2.168,1.7,4.759,4.759,0,0,1-.55.212,5.32,5.32,0,0,0-1.739.877,5.963,5.963,0,0,0-1.073,1.188,2.16,2.16,0,0,1-1.693,1.125.552.552,0,0,0-.258.075.535.535,0,0,0,.221.117c.846.308,1.543-.341,2.348-1.092A10.953,10.953,0,0,1,361.26,285.641Z" fill="#ffc703"/>
                <path id="Path_7216" data-name="Path 7216" d="M369.568,284.906c-.861,1.936-.621,1.4-1.87,4.2l1.648-4.292c-.126-.054-.25-.113-.372-.174l-3.59,9.583a.18.18,0,0,0,.09.237.18.18,0,0,0,.237-.088l.02-.045c0-.005,2.649-5.82,4.224-9.282C369.825,285,369.7,284.956,369.568,284.906Z" fill="#ffc703"/>
                <path id="Path_7217" data-name="Path 7217" d="M366.128,288.132a3.64,3.64,0,0,0,.955-1,12.576,12.576,0,0,0,.87-1.557,3.742,3.742,0,0,1,.708-1.1q-.192-.108-.375-.226c-1.366,1.907-1.045,2.65-2.514,3.621,1.363-1.317.947-1.491,2.256-3.794-.1-.067-.19-.137-.283-.209a11.032,11.032,0,0,0-.574,1.152,6.525,6.525,0,0,1-1.947,2.923,4.425,4.425,0,0,0-1.067,1.288,5.964,5.964,0,0,0-.536,1.509,2.16,2.16,0,0,1-1.134,1.687.553.553,0,0,0-.21.167.522.522,0,0,0,.249.024,2.059,2.059,0,0,0,1.44-1.172C364.9,289.081,365.527,288.6,366.128,288.132Z" fill="#ffc703"/>
                <path id="Path_7218" data-name="Path 7218" d="M372.3,290.016c-.058-2.194-.1-3.684-.12-4.6-.138,0-.275-.009-.412-.018l.352,10.226a.179.179,0,0,0,.177.188c.083,0,.173-.051.184-.209v-.016c0-.013.033-.988.081-2.38.14-4.058.221-6.427.269-7.811-.136.01-.273.016-.411.019C372.361,287.537,372.376,286.947,372.3,290.016Z" fill="#ffc703"/>
                <path id="Path_7219" data-name="Path 7219" d="M370.043,289.61c.37-.853.488-.97.511-3.19,0-.249.062-.749.119-1.175-.115-.026-.228-.054-.341-.085a11.034,11.034,0,0,0-.087,1.282,6.519,6.519,0,0,1-.68,3.444,4.386,4.386,0,0,0-.494,1.6,6.363,6.363,0,0,0,.068,1.5,2.414,2.414,0,0,1-.387,2.092.14.14,0,1,0,.109.162,2.06,2.06,0,0,0,.881-1.634c-.037-2.54.352-3.225.729-3.888a3.62,3.62,0,0,0,.5-1.29,12.742,12.742,0,0,0,.2-1.719,4.1,4.1,0,0,1,.24-1.337c-.147-.017-.292-.039-.437-.065C370.452,287.575,371.023,288.162,370.043,289.61Z" fill="#ffc703"/>
                <path id="Path_7220" data-name="Path 7220" d="M379.192,294.179c-1.774-4.737-2.925-7.809-3.577-9.551-.122.062-.246.12-.372.175.758,1.975.549,1.428,1.648,4.293-.892-2.006-1.5-3.366-1.87-4.2-.126.051-.255.1-.385.142l1.217,2.676c.8,1.765,1.006,2.21,3.019,6.632l0,.006a.179.179,0,0,0,.233.106c.079-.029.142-.115.089-.271Z" fill="#ffc703"/>
                <path id="Path_7221" data-name="Path 7221" d="M375.091,289.512a3.675,3.675,0,0,0-.031-1.377,12.666,12.666,0,0,0-.469-1.665,4.1,4.1,0,0,1-.29-1.33c-.141.04-.285.076-.43.109.383,2.313,1.137,2.608.783,4.333.016-.928.08-1.082-.749-3.142-.093-.231-.229-.716-.339-1.132-.115.02-.23.038-.347.052a10.821,10.821,0,0,0,.41,1.218,6.582,6.582,0,0,1,.69,3.45,4.4,4.4,0,0,0,.156,1.657,5.964,5.964,0,0,0,.684,1.443,2.17,2.17,0,0,1,.394,2,.14.14,0,1,0,.164.107,2.061,2.061,0,0,0,.188-1.847C374.9,291.06,375,290.273,375.091,289.512Z" fill="#ffc703"/>
                <path id="Path_7222" data-name="Path 7222" d="M383.941,289.322l-6.047-6.476c-.09.1-.182.2-.277.3l3.167,3.337-3.337-3.167c-.1.1-.2.188-.3.278l7.482,6.985a.18.18,0,0,0,.258.008c.08-.074.068-.182-.029-.289Z" fill="#ffc703"/>
                <path id="Path_7223" data-name="Path 7223" d="M379.285,287.57a3.64,3.64,0,0,0-.56-1.27,12.587,12.587,0,0,0-1.106-1.4,3.764,3.764,0,0,1-.746-1.075c-.115.09-.232.178-.352.262,1.235,1.98,2.051,1.987,2.383,3.708-.7-1.771-.971-1.382-2.641-3.536-.1.063-.2.124-.3.182a11.4,11.4,0,0,0,.845.971,6.509,6.509,0,0,1,1.955,2.915,4.387,4.387,0,0,0,.781,1.479,5.951,5.951,0,0,0,1.186,1.072,2.167,2.167,0,0,1,1.128,1.693.549.549,0,0,0,.074.259.52.52,0,0,0,.118-.22,2.059,2.059,0,0,0-.533-1.779C379.689,289.054,379.484,288.3,379.285,287.57Z" fill="#ffc703"/>
                <path id="Path_7224" data-name="Path 7224" d="M388.614,284.559l-.009,0-9.282-4.224c-.043.131-.09.26-.14.386l4.2,1.87-4.292-1.646c-.055.125-.113.249-.174.371l2.109.79,7.056,2.642.418.158a.178.178,0,0,0,.24-.091C388.776,284.734,388.761,284.629,388.614,284.559Z" fill="#ffc703"/>
                <path id="Path_7225" data-name="Path 7225" d="M384.98,286a10.729,10.729,0,0,1-1.425-.739,5.484,5.484,0,0,1-1.124-1.075,5.151,5.151,0,0,0-1.022-.986,12.922,12.922,0,0,0-1.512-.848,4.087,4.087,0,0,1-1.144-.732q-.108.192-.227.378c1.9,1.356,2.66,1.054,3.62,2.512-1.312-1.361-1.48-.939-3.793-2.256-.069.1-.14.2-.214.29.321.171.7.35,1.089.535a11.693,11.693,0,0,1,2.4,1.348,4.7,4.7,0,0,1,.4.426,5.35,5.35,0,0,0,1.477,1.272,6.005,6.005,0,0,0,1.5.536A2.175,2.175,0,0,1,386.7,287.8a.531.531,0,0,0,.168.21.516.516,0,0,0,.024-.248C386.854,286.857,385.985,286.461,384.98,286Z" fill="#ffc703"/>
                <path id="Path_7226" data-name="Path 7226" d="M390.072,277.908a.2.2,0,0,0-.175-.1l-.17-.006c-4.488-.171-7.981-.287-10.049-.336.009.133.015.267.017.4l4.6.121-4.6.12c0,.138-.008.275-.017.411l10.224-.351h0a.179.179,0,0,0,.158-.08A.183.183,0,0,0,390.072,277.908Z" fill="#ffc703"/>
                <path id="Path_7227" data-name="Path 7227" d="M387.08,280.535a10.806,10.806,0,0,1-1.6-.137,5.563,5.563,0,0,1-1.452-.564,5.125,5.125,0,0,0-1.32-.521,12.78,12.78,0,0,0-1.734-.2,3.948,3.948,0,0,1-1.322-.236c-.018.147-.04.292-.065.435,2.27.526,2.847-.048,4.3.936-1.747-.758-1.669-.292-4.365-.632-.026.118-.055.234-.087.35.36.033.772.054,1.2.075a11.748,11.748,0,0,1,2.739.329,4.86,4.86,0,0,1,.534.238,5.381,5.381,0,0,0,1.853.612,6.282,6.282,0,0,0,1.5-.069,5.8,5.8,0,0,1,.781-.072,1.992,1.992,0,0,1,1.307.46.513.513,0,0,0,.235.129.527.527,0,0,0-.073-.237C389.134,280.607,388.182,280.574,387.08,280.535Z" fill="#ffc703"/>
                <path id="Path_7228" data-name="Path 7228" d="M379.08,275.042l4.292-1.648-4.2,1.87c.051.127.1.255.142.386l9.313-4.238a.17.17,0,0,0,.117-.136.184.184,0,0,0-.061-.17.222.222,0,0,0-.226-.013l-9.553,3.578C378.966,274.793,379.025,274.917,379.08,275.042Z" fill="#ffc703"/>
                <path id="Path_7229" data-name="Path 7229" d="M387.665,274.38c-2.329,1.008-3.11.91-3.864.815a3.653,3.653,0,0,0-1.389.03,12.876,12.876,0,0,0-1.464.406c-.211.068-.429.14-.684.214a3.69,3.69,0,0,1-.836.177c.04.142.075.285.106.43,1.546-.253,2.69-1.154,4.326-.821-1.745-.029-1.609.366-4.275,1.088.02.117.038.235.053.354.347-.107.738-.246,1.144-.39a11.82,11.82,0,0,1,2.65-.742,4.944,4.944,0,0,1,.589.015,5.345,5.345,0,0,0,1.942-.144,6.036,6.036,0,0,0,1.443-.686,2.168,2.168,0,0,1,2-.394.545.545,0,0,0,.267.031c-.005-.02-.032-.078-.158-.193A2.067,2.067,0,0,0,387.665,274.38Z" fill="#ffc703"/>
                <path id="Path_7230" data-name="Path 7230" d="M377.426,272.669l3.338-3.168-3.168,3.337c.1.1.189.2.279.3l4.452-4.768,2.533-2.714a.172.172,0,0,0,.055-.171.185.185,0,0,0-.121-.133.163.163,0,0,0-.045-.006.254.254,0,0,0-.169.08l-7.458,6.962C377.226,272.481,377.327,272.574,377.426,272.669Z" fill="#ffc703"/>
                <path id="Path_7231" data-name="Path 7231" d="M381.813,271.016a3.667,3.667,0,0,0-1.236.544,12.391,12.391,0,0,0-1.374,1.085,3.945,3.945,0,0,1-1.1.766c.092.116.179.233.264.354,2.021-1.256,1.961-2.047,3.707-2.384-1.813.715-1.314.924-3.535,2.642.065.1.126.2.186.307.279-.23.586-.508.9-.8a11.671,11.671,0,0,1,2.169-1.7,4.869,4.869,0,0,1,.549-.211,5.349,5.349,0,0,0,1.74-.878,5.947,5.947,0,0,0,.95-1.049,2.513,2.513,0,0,1,1.816-1.263.54.54,0,0,0,.257-.075.533.533,0,0,0-.221-.118,2.058,2.058,0,0,0-1.778.533C383.345,270.587,382.53,270.814,381.813,271.016Z" fill="#ffc703"/>
                <path id="Path_7232" data-name="Path 7232" d="M374.995,271.1c.891-2,.568-1.278,1.869-4.2-.014.037-1.049,2.733-1.648,4.291.127.055.251.114.373.175l3.589-9.582a.178.178,0,0,0-.091-.242c-.076-.034-.181-.018-.251.124l-.005.013c-.006.012-.295.649-.733,1.611-1.837,4.039-2.888,6.347-3.49,7.67C374.738,271.005,374.867,271.053,374.995,271.1Z" fill="#ffc703"/>
                <path id="Path_7233" data-name="Path 7233" d="M378.412,267.9a3.626,3.626,0,0,0-.933.975,12.8,12.8,0,0,0-.845,1.507,4.108,4.108,0,0,1-.736,1.148q.193.108.38.229c1.388-1.934,1.027-2.642,2.512-3.622-1.368,1.323-.9,1.426-2.256,3.794.1.069.2.14.29.213.169-.321.348-.7.533-1.086a11.794,11.794,0,0,1,1.35-2.4,4.751,4.751,0,0,1,.422-.4,5.361,5.361,0,0,0,1.277-1.48,6.028,6.028,0,0,0,.534-1.5,2.175,2.175,0,0,1,1.135-1.692.533.533,0,0,0,.21-.167.519.519,0,0,0-.249-.024,2.052,2.052,0,0,0-1.439,1.173C379.662,266.921,379,267.442,378.412,267.9Z" fill="#ffc703"/>
                <path id="Path_7234" data-name="Path 7234" d="M374.327,276.579c-.615.2-.769.484-.078.7.556.17.084-.013.084-.351a.463.463,0,0,1,.085-.269C374.495,276.549,374.7,276.457,374.327,276.579Z" fill="#ffc703"/>
                <path id="Path_7235" data-name="Path 7235" d="M375.351,276.626c-.466-.2-.226-.047-.166.041a.465.465,0,0,1,0,.527c-.08.117-.3.191.145.087C375.929,277.133,376.1,276.939,375.351,276.626Z" fill="#ffc703"/>
                <path id="Path_7236" data-name="Path 7236" d="M370.066,277.341c.987-.071,1.132-.649.014-.819A.467.467,0,0,1,370.066,277.341Z" fill="#ffc703"/>
                <path id="Path_7237" data-name="Path 7237" d="M370.94,276.592l.011.007C370.936,276.588,370.933,276.586,370.94,276.592Z" fill="#853409"/>
                <path id="Path_7238" data-name="Path 7238" d="M369.3,276.626c-.411.17-.712.419-.282.564.986.347.131-.051.447-.523C369.523,276.578,369.757,276.428,369.3,276.626Z" fill="#ffc703"/>
                <path id="Path_7239" data-name="Path 7239" d="M372.995,279.356a.353.353,0,0,0,.607.148c.164-.161.165-.369-.1-.59.915.442-.121,1.452-.533.693a.941.941,0,0,1-1.288,0c-.391.732-1.4-.261-.627-.647l.1-.046c-.593.5.2,1.052.507.442A.79.79,0,0,0,372.995,279.356Z" fill="#853409"/>
                <path id="Path_7240" data-name="Path 7240" d="M369.732,275.2a2.816,2.816,0,0,1,2.076.574l0,0v0a3.532,3.532,0,0,1,.334,1.5c-.021.38-.375,1.877-.631,1.592a.1.1,0,0,1-.015-.117v0a2.128,2.128,0,0,0-.016-2.87,2.964,2.964,0,0,0-3.663.539A2.776,2.776,0,0,1,369.732,275.2Z" fill="#853409"/>
                <path id="Path_7241" data-name="Path 7241" d="M368.208,276.929a.055.055,0,0,1,.015-.036,2.13,2.13,0,0,1,2.123-.763,1.955,1.955,0,0,1,.7.409c.358.27.478.262.478.262a.052.052,0,0,1,.042.059.053.053,0,0,1-.021.033c-.1.078-.56-.267-.6-.3a1.907,1.907,0,0,0-2.644.372A.051.051,0,0,1,368.208,276.929Z" fill="#853409"/>
                <path id="Path_7242" data-name="Path 7242" d="M368.672,277.486a.042.042,0,0,1-.028-.027.048.048,0,0,1,0-.039.046.046,0,0,1,.028-.027.044.044,0,0,1,.039,0,2.272,2.272,0,0,0,2.554-.2.051.051,0,0,1,.073.005.052.052,0,0,1-.005.072A2.148,2.148,0,0,1,368.672,277.486Z" fill="#853409"/>
                <path id="Path_7243" data-name="Path 7243" d="M373.283,283.312a.963.963,0,1,0-1.917,0A.988.988,0,1,1,373.283,283.312Z" fill="#853409"/>
                <path id="Path_7244" data-name="Path 7244" d="M372.439,281.967c-.533-.037-.557.1-1.032-.358a.974.974,0,0,0-.739-.371c.943-.129.858.674,1.656.568h.005a.864.864,0,0,0,.2.01.846.846,0,0,0,.559-.3.842.842,0,0,1,.888-.28C373.309,281.308,373.071,282.027,372.439,281.967Z" fill="#853409"/>
                <path id="Path_7245" data-name="Path 7245" d="M371.007,281.1c1.329-.224.347.051,1.317.051.777,0,.085-.26,1.323-.05a2.326,2.326,0,0,0-.909.091c-.528.269-.663-.016-1.081-.075a6.132,6.132,0,0,0-.65-.017h0C370.979,281.1,370.984,281.1,371.007,281.1Z" fill="#853409"/>
                <path id="Path_7246" data-name="Path 7246" d="M372.518,280.68c-.355.147-.557-.27-1.176.031a4.822,4.822,0,0,0-.784.538l.148-.147c.245-.239.625-.714.964-.714.41,0,.515.276.836.128.718-.33.986.14,1.584.733C373.581,280.854,373.1,280.427,372.518,280.68Z" fill="#853409"/>
                <path id="Path_7247" data-name="Path 7247" d="M376.005,277.459a.042.042,0,0,1-.028.027,2.147,2.147,0,0,1-2.66-.22.046.046,0,0,1-.017-.035.051.051,0,0,1,.047-.055.08.08,0,0,1,.037.013,2.274,2.274,0,0,0,2.555.2.042.042,0,0,1,.038,0,.04.04,0,0,1,.028.027A.048.048,0,0,1,376.005,277.459Z" fill="#853409"/>
                <path id="Path_7248" data-name="Path 7248" d="M376.353,276.964a1.908,1.908,0,0,0-2.655-.365c-.1.072-.5.369-.591.294a.046.046,0,0,1-.021-.033.05.05,0,0,1,.008-.038.052.052,0,0,1,.043-.021,1.489,1.489,0,0,0,.5-.284c.9-.791,1.933-.493,2.789.376A.051.051,0,1,1,376.353,276.964Z" fill="#853409"/>
                <path id="Path_7249" data-name="Path 7249" d="M372.613,277.269a3.712,3.712,0,0,0,.534,1.478v0c.066.133-.12.283-.24.005a4.466,4.466,0,0,1-.4-1.478,3.519,3.519,0,0,1,.333-1.5l.005-.008a2.715,2.715,0,0,1,3.986.647C375.233,274.927,372.577,275.149,372.613,277.269Z" fill="#853409"/>
              </g>
            </g>
          </g>
        </g>
      </g>
    </g>
  </g>
</svg>
