<svg xmlns="http://www.w3.org/2000/svg" xmlns:xlink="http://www.w3.org/1999/xlink" width="406.202" height="164.966" viewBox="0 0 406.202 164.966">
  <defs>
    <clipPath id="clip-path">
      <path id="Path_7368" data-name="Path 7368" d="M226.162,346.136,185.858,278l40.3-68.132H518.4L558.7,278l-40.3,68.132Z" fill="none"/>
    </clipPath>
    <clipPath id="clip-path-2">
      <rect id="Rectangle_378" data-name="Rectangle 378" width="190.122" height="95.061" transform="translate(182.159 209.943)" fill="none"/>
    </clipPath>
    <clipPath id="clip-path-3">
      <path id="Path_7357" data-name="Path 7357" d="M182.159,209.943v47.531H372.281V305h0Zm190.122,0H277.22V305H182.159Z" fill="none"/>
    </clipPath>
  </defs>
  <g id="Group_840" data-name="Group 840" transform="translate(-169.18 -195.521)">
    <path id="Path_1751" data-name="Path 1751" d="M217.978,360.487H526.585l48.8-82.482-48.8-82.484H217.978l-48.8,82.484Z" fill="#fff"/>
    <path id="Path_1752" data-name="Path 1752" d="M226.162,209.873H518.4l40.3,68.132-40.3,68.13H226.162l-40.3-68.13Z" fill="#80192e"/>
    <g id="Group_808" data-name="Group 808">
      <g id="Group_4595" data-name="Group 4595">
        <g id="Group_4594" data-name="Group 4594" clip-path="url(#clip-path)">
          <g id="Group_4593" data-name="Group 4593">
            <g id="Group_4591" data-name="Group 4591">
              <g id="Group_4582" data-name="Group 4582">
                <rect id="Rectangle_377" data-name="Rectangle 377" width="380.245" height="190.122" transform="translate(182.159 209.943)" fill="#00008b"/>
              </g>
              <g id="Group_4585" data-name="Group 4585">
                <g id="Group_4584" data-name="Group 4584" clip-path="url(#clip-path-2)">
                  <g id="Group_4583" data-name="Group 4583">
                    <path id="Path_7353" data-name="Path 7353" d="M182.159,209.943,372.281,305m0-95.061L182.159,305"/>
                    <path id="Path_7354" data-name="Path 7354" d="M368.03,313.507l-90.81-45.4-90.81,45.4-8.5-17,78.056-39.028-78.056-39.028,8.5-17.005,90.81,45.4,90.81-45.4,8.5,17.005-78.056,39.028L376.533,296.5Z" fill="#fff"/>
                  </g>
                </g>
              </g>
              <g id="Group_4588" data-name="Group 4588">
                <g id="Group_4587" data-name="Group 4587" clip-path="url(#clip-path-3)">
                  <g id="Group_4586" data-name="Group 4586">
                    <path id="Path_7355" data-name="Path 7355" d="M182.159,209.943,372.281,305m0-95.061L182.159,305"/>
                    <path id="Path_7356" data-name="Path 7356" d="M369.447,310.673,277.22,264.559l-92.227,46.114-5.669-11.337,83.724-41.862-83.724-41.862,5.669-11.337,92.227,46.114,92.227-46.114,5.669,11.337-83.724,41.862,83.724,41.862Z" fill="red"/>
                  </g>
                </g>
              </g>
              <g id="Group_4589" data-name="Group 4589">
                <path id="Path_7358" data-name="Path 7358" d="M277.22,209.943V305m-95.061-47.53H372.281"/>
                <path id="Path_7359" data-name="Path 7359" d="M293.064,305H261.376V273.318H182.159V241.629h79.217V209.943h31.688v31.686h79.217v31.688H293.064Z" fill="#fff"/>
              </g>
              <g id="Group_4590" data-name="Group 4590">
                <path id="Path_7360" data-name="Path 7360" d="M277.22,209.943V305m-95.061-47.53H372.281"/>
                <path id="Path_7361" data-name="Path 7361" d="M286.726,305H267.714V266.98H182.159V247.967h85.555V209.943h19.012v38.024h85.555V266.98H286.726Z" fill="red"/>
              </g>
            </g>
            <g id="Group_4592" data-name="Group 4592">
              <g id="Comwlth">
                <g id="Star7">
                  <path id="Path_7362" data-name="Path 7362" d="M277.22,324.016l5.5,17.1,16.8-6.361-9.94,14.96,15.447,9.167-17.894,1.556,2.464,17.792L277.22,365.21l-12.373,13.019,2.464-17.792-17.894-1.556,15.446-9.167-9.939-14.96,16.8,6.361Z" fill="#fff"/>
                </g>
              </g>
              <g id="αCrucis">
                <g id="Star7-2" data-name="Star7">
                  <path id="Path_7363" data-name="Path 7363" d="M467.343,354.8l2.618,8.142,8-3.029-4.733,7.124,7.355,4.365-8.521.741,1.174,8.473-5.892-6.2-5.893,6.2,1.174-8.473L454.1,371.4l7.355-4.365-4.733-7.124,8,3.029Z" fill="#fff"/>
                </g>
              </g>
              <g id="βCrucis">
                <g id="Star7-3" data-name="Star7">
                  <path id="Path_7364" data-name="Path 7364" d="M419.812,279.541l2.619,8.143,8-3.03-4.733,7.124,7.356,4.365-8.521.742,1.173,8.472-5.892-6.2-5.892,6.2,1.173-8.472-8.521-.742,7.356-4.365-4.733-7.124,8,3.03Z" fill="#fff"/>
                </g>
              </g>
              <g id="γCrucis">
                <g id="Star7-4" data-name="Star7">
                  <path id="Path_7365" data-name="Path 7365" d="M467.343,228.05l2.618,8.142,8-3.029-4.733,7.124,7.355,4.365-8.521.741,1.174,8.472-5.892-6.2-5.893,6.2,1.174-8.472-8.521-.741,7.355-4.365-4.733-7.124,8,3.029Z" fill="#fff"/>
                </g>
              </g>
              <g id="δCrucis">
                <g id="Star7-5" data-name="Star7">
                  <path id="Path_7366" data-name="Path 7366" d="M509.592,266.867l2.619,8.142,8-3.029-4.733,7.124,7.356,4.365-8.521.741,1.173,8.472-5.892-6.2-5.892,6.2,1.173-8.472-8.521-.741,7.356-4.365-4.733-7.124,8,3.029Z" fill="#fff"/>
                </g>
              </g>
              <g id="εCrucis">
                <g id="Star5">
                  <path id="Path_7367" data-name="Path 7367" d="M486.355,305l2.069,5.074,5.465.4-4.186,3.536,1.308,5.321-4.656-2.888-4.657,2.888,1.308-5.321-4.185-3.536,5.464-.4Z" fill="#fff"/>
                </g>
              </g>
            </g>
          </g>
        </g>
      </g>
    </g>
  </g>
</svg>
