<svg xmlns="http://www.w3.org/2000/svg" xmlns:xlink="http://www.w3.org/1999/xlink" width="180.404" height="73.265" viewBox="0 0 180.404 73.265">
  <defs>
    <clipPath id="clip-path">
      <path id="Path_7337" data-name="Path 7337" d="M2665.948-355.137l-17.9-30.259,17.9-30.259h129.785l17.9,30.259-17.9,30.259Z" transform="translate(-2648.048 415.655)" fill="none"/>
    </clipPath>
  </defs>
  <g id="Group_4584" data-name="Group 4584" transform="translate(-2628.206 432.723)">
    <path id="Path_1751" data-name="Path 1751" d="M2649.878-359.458h137.06l21.672-36.632-21.672-36.633h-137.06l-21.672,36.633Z" transform="translate(0 0)" fill="#fff"/>
    <path id="Path_1752" data-name="Path 1752" d="M2665.938-415.654h129.786l17.9,30.259-17.9,30.258H2665.938l-17.9-30.258Z" transform="translate(-12.426 -10.695)" fill="#80192e"/>
    <g id="Group_808" data-name="Group 808" transform="translate(2635.615 -426.35)">
      <g id="Group_4583" data-name="Group 4583" transform="translate(0 0)">
        <g id="Group_4582" data-name="Group 4582" clip-path="url(#clip-path)">
          <g id="Group_4569" data-name="Group 4569" transform="translate(-7.409 -30.064)">
            <path id="Path_7256" data-name="Path 7256" d="M2789.236-375.9h60.135V-496.165h-60.135V-375.9Z" transform="translate(-2729.104 496.165)" fill="#e60000"/>
            <path id="Path_7257" data-name="Path 7257" d="M2950.273-375.9h60.137V-496.165h-60.137V-375.9Z" transform="translate(-2830.006 496.165)" fill="#ffc400"/>
            <path id="Path_7258" data-name="Path 7258" d="M2628.206-375.9h60.132V-496.165h-60.132V-375.9Z" transform="translate(-2628.206 496.165)" fill="#00a133"/>
            <path id="Path_7259" data-name="Path 7259" d="M2837.768-388.8l4.5,13.85h14.566l-11.784,8.56,4.5,13.85-11.782-8.563-11.785,8.563,4.5-13.85-11.784-8.56h14.564l4.5-13.85Z" transform="translate(-2747.567 428.895)" fill="#ffc400"/>
          </g>
        </g>
      </g>
    </g>
  </g>
</svg>
