<svg xmlns="http://www.w3.org/2000/svg" xmlns:xlink="http://www.w3.org/1999/xlink" width="180.404" height="73.264" viewBox="0 0 180.404 73.264">
  <defs>
    <clipPath id="clip-path">
      <path id="Path_1748" data-name="Path 1748" d="M397.316,1364.648l-17.9-30.259,17.9-30.258H527.1l17.9,30.258-17.9,30.259Z" transform="translate(-379.415 -1304.131)" fill="none"/>
    </clipPath>
  </defs>
  <g id="Group_842" data-name="Group 842" transform="translate(-653.669 -561)">
    <path id="Path_1773" data-name="Path 1773" d="M527.375,1368.126H390.316l-21.672-36.632,21.672-36.633H527.375l21.673,36.633Z" transform="translate(285.026 -733.862)" fill="#fff"/>
    <path id="Path_1774" data-name="Path 1774" d="M527.1,1304.131H397.315l-17.9,30.259,17.9,30.258H527.1l17.9-30.258Z" transform="translate(281.662 -736.757)" fill="#80192e"/>
    <g id="Group_841" data-name="Group 841" transform="translate(661.076 567.374)">
      <g id="Group_800" data-name="Group 800" transform="translate(0 0)" clip-path="url(#clip-path)">
        <g id="Group_799" data-name="Group 799" transform="translate(0 -7.75)">
          <rect id="Rectangle_126" data-name="Rectangle 126" width="57.101" height="76.016" transform="translate(54.246)" fill="#fff"/>
          <rect id="Rectangle_127" data-name="Rectangle 127" width="54.246" height="76.016" fill="#e60000"/>
          <rect id="Rectangle_128" data-name="Rectangle 128" width="54.245" height="76.016" transform="translate(111.347)" fill="#e60000"/>
          <path id="Path_1747" data-name="Path 1747" d="M501.453,1345.9c.827-.62,10.5-8.594,10.5-8.594s-1.18-.533-2.135-1-.774-.775-.609-1.55,1.823-6.663,1.823-6.663-4.706,1.036-5.851,1.252-1.472-.2-1.624-.826-.712-2.592-.712-2.592-3.848,4.3-4.892,5.487-2.1.646-1.8-.939,2.178-11.441,2.178-11.441-1.688.929-2.857,1.474-1.652.433-2.134-.381-3.849-7.158-3.849-7.158-3.367,6.345-3.85,7.158-.964.928-2.134.381-2.859-1.474-2.859-1.474,1.888,9.853,2.181,11.441-.762,2.136-1.805.939-4.891-5.487-4.891-5.487-.561,1.968-.712,2.592-.483,1.042-1.625.826-5.851-1.252-5.851-1.252,1.659,5.888,1.824,6.663.344,1.081-.609,1.55-2.135,1-2.135,1,9.674,7.974,10.5,8.594.99.993.584,2.287-.737,2.566-.737,2.566,9.559-1.34,10.615-1.478.952.978.927,1.56-.281,10.67-.281,10.67h1.72s-.258-10.085-.282-10.67-.129-1.7.926-1.56,10.613,1.478,10.613,1.478-.331-1.27-.737-2.566S500.626,1346.524,501.453,1345.9Z" transform="translate(-406.778 -1299.142)" fill="#e60000"/>
        </g>
      </g>
    </g>
  </g>
</svg>
