<svg xmlns="http://www.w3.org/2000/svg" xmlns:xlink="http://www.w3.org/1999/xlink" width="180.404" height="73.264" viewBox="0 0 180.404 73.264">
  <defs>
    <clipPath id="clip-path">
      <path id="Path_1808" data-name="Path 1808" d="M1466.2,1056.161l-18.284-30.9,18.284-30.9h132.56l18.284,30.9-18.284,30.9Z" transform="translate(-1447.917 -994.352)" fill="none"/>
    </clipPath>
  </defs>
  <path id="Path_1751" data-name="Path 1751" d="M1027.616,1368.127h137.06l21.672-36.632-21.672-36.633h-137.06l-21.672,36.633Z" transform="translate(-1005.944 -1294.862)" fill="#fff"/>
  <path id="Path_1752" data-name="Path 1752" d="M1034.614,1304.131H1164.4l17.9,30.259-17.9,30.258H1034.614l-17.9-30.258Z" transform="translate(-1009.711 -1297.527)" fill="#80192e"/>
  <g id="Group_863" data-name="Group 863" transform="translate(-1441.917 -988.352)">
    <g id="Group_862" data-name="Group 862" transform="translate(1447.917 994.352)" clip-path="url(#clip-path)">
      <g id="Group_861" data-name="Group 861" transform="translate(-1.061)">
        <g id="Group_848" data-name="Group 848">
          <path id="Path_1776" data-name="Path 1776" d="M1617.179,1053.542v-20.6H1445.93v20.6Z" transform="translate(-1445.93 -1012.336)" fill="#fff"/>
          <path id="Path_1777" data-name="Path 1777" d="M1445.93,1092.131h171.249v-20.6H1445.93v20.6Z" transform="translate(-1445.93 -1030.322)" fill="#0437a0"/>
          <path id="Path_1778" data-name="Path 1778" d="M1445.93,1014.954h171.249v-20.6H1445.93v20.6Z" transform="translate(-1445.93 -994.352)" fill="#e60000"/>
        </g>
        <g id="Group_860" data-name="Group 860" transform="translate(73.315 10.593)">
          <path id="Path_1779" data-name="Path 1779" d="M1607.761,1019.309a30.3,30.3,0,0,0-1.668-2.988l-.095-.149-.167.051a25.448,25.448,0,0,0-2.879,1.063,29.155,29.155,0,0,0-2-2.468l-.12-.133-.159.083a26.9,26.9,0,0,0-2.651,1.588,27.972,27.972,0,0,0-2.356-2.055l-.142-.111-.142.111a28,28,0,0,0-2.355,2.055,26.958,26.958,0,0,0-2.651-1.588l-.159-.083-.12.133a29.136,29.136,0,0,0-2,2.468,25.469,25.469,0,0,0-2.879-1.063l-.168-.051-.094.149a30.309,30.309,0,0,0-1.668,2.988l-.047.1,2.438,5.634.22-.111c.6-.3,1.221-.583,1.846-.828s1.259-.46,1.9-.644,1.288-.337,1.938-.46,1.309-.215,1.964-.276,1.32-.092,1.977-.092,1.323.031,1.978.092,1.317.154,1.964.276,1.3.277,1.938.46,1.278.4,1.9.644,1.245.523,1.846.828l.219.111,2.438-5.634Z" transform="translate(-1583.246 -1014.191)" fill="#fff"/>
          <path id="Path_1780" data-name="Path 1780" d="M1621.806,1018.414a25.2,25.2,0,0,0-3.023,1.126q-.7,2.832-1.4,5.663.971.279,1.919.651t1.866.836l2.3-5.311A29.872,29.872,0,0,0,1621.806,1018.414Z" transform="translate(-1599.155 -1016.159)" fill="#60bee1"/>
          <path id="Path_1781" data-name="Path 1781" d="M1594.578,1015.659a28.777,28.777,0,0,0-2.092,2.6q.7,2.832,1.4,5.663.971-.28,1.959-.465c.658-.124,1.321-.217,1.986-.279q-.237-2.918-.473-5.838A26.541,26.541,0,0,0,1594.578,1015.659Z" transform="translate(-1587.553 -1014.875)" fill="#0437a0"/>
          <path id="Path_1782" data-name="Path 1782" d="M1598.251,1025.421c-.676.066-1.409.148-2.094.261-.722.127-1.432.276-2.124.47q-.187-.748-.371-1.5a13.264,13.264,0,0,1,2.16-.561,14.663,14.663,0,0,1,2.311-.13Q1598.193,1024.693,1598.251,1025.421Z" transform="translate(-1588.101 -1018.746)" fill="#160080"/>
          <path id="Path_1783" data-name="Path 1783" d="M1587.284,1035.047l-.052,12.948c.387,5.135,5.689,9.062,10.484,8.848a10.243,10.243,0,0,0,9.821-8.806v-12.99Zm20.013,12.978a9.4,9.4,0,0,1-3.329,6.121,9.727,9.727,0,0,1-6.2,2.457h-.066c-.12.006-.243.009-.366.009a10.377,10.377,0,0,1-6.517-2.5,8.965,8.965,0,0,1-3.35-6.128l.051-12.7H1607.3Z" transform="translate(-1585.104 -1023.911)" fill="#e60000"/>
          <path id="Path_1784" data-name="Path 1784" d="M1607.507,1035.5v12.737a9.4,9.4,0,0,1-3.329,6.121,9.729,9.729,0,0,1-6.2,2.456h-.066c-.12.006-.243.009-.366.009a10.377,10.377,0,0,1-6.517-2.5,8.966,8.966,0,0,1-3.35-6.128l.051-12.7Z" transform="translate(-1585.314 -1024.122)" fill="#fff"/>
          <g id="Group_849" data-name="Group 849" transform="translate(2.61 11.617)">
            <rect id="Rectangle_154" data-name="Rectangle 154" width="3.965" height="4.291" transform="translate(7.689 8.341)" fill="#e60000"/>
            <rect id="Rectangle_155" data-name="Rectangle 155" width="3.965" height="4.291" transform="translate(3.724 4.05)" fill="#e60000"/>
            <rect id="Rectangle_156" data-name="Rectangle 156" width="3.965" height="4.05" transform="translate(7.689)" fill="#e60000"/>
            <path id="Path_1785" data-name="Path 1785" d="M1602.534,1071.339a8.853,8.853,0,0,0,1.937.223c.119,0,.239,0,.366-.008h.066a7.986,7.986,0,0,0,1.6-.166v-3.744h-3.965Z" transform="translate(-1594.846 -1050.722)" fill="#e60000"/>
            <path id="Path_1786" data-name="Path 1786" d="M1617.864,1069.157a10.2,10.2,0,0,0,1.43-1.512h-1.909v1.9C1617.548,1069.418,1617.708,1069.291,1617.864,1069.157Z" transform="translate(-1601.767 -1050.722)" fill="#e60000"/>
            <path id="Path_1787" data-name="Path 1787" d="M1588.213,1035.949l-.016,4.05h3.69v-4.05Z" transform="translate(-1588.164 -1035.949)" fill="#e60000"/>
            <path id="Path_1788" data-name="Path 1788" d="M1621.091,1055.862c.006-.049.014-.1.019-.148v-4.143h-3.724v4.291Z" transform="translate(-1601.767 -1043.23)" fill="#e60000"/>
            <path id="Path_1789" data-name="Path 1789" d="M1592.989,1069.122c.15.126.3.246.461.363v-1.841h-1.9A10.229,10.229,0,0,0,1592.989,1069.122Z" transform="translate(-1589.725 -1050.722)" fill="#e60000"/>
            <path id="Path_1790" data-name="Path 1790" d="M1588.151,1051.571l-.016,4.109c0,.061.013.121.019.182h3.7v-4.291Z" transform="translate(-1588.134 -1043.23)" fill="#e60000"/>
            <rect id="Rectangle_157" data-name="Rectangle 157" width="3.965" height="4.291" transform="translate(3.724 12.632)" fill="#e60000"/>
            <rect id="Rectangle_158" data-name="Rectangle 158" width="3.724" height="4.05" transform="translate(15.618)" fill="#e60000"/>
            <rect id="Rectangle_159" data-name="Rectangle 159" width="3.965" height="4.291" transform="translate(11.653 12.632)" fill="#e60000"/>
            <rect id="Rectangle_160" data-name="Rectangle 160" width="3.965" height="4.291" transform="translate(11.653 4.05)" fill="#e60000"/>
          </g>
          <path id="Path_1791" data-name="Path 1791" d="M1604.09,1014.741a27.756,27.756,0,0,0-2.471,2.168q.236,2.919.472,5.838,1-.093,2-.093t2,.093q.236-2.918.473-5.838A27.72,27.72,0,0,0,1604.09,1014.741Z" transform="translate(-1591.809 -1014.447)" fill="#60bee1"/>
          <path id="Path_1792" data-name="Path 1792" d="M1613.248,1015.659a26.491,26.491,0,0,0-2.784,1.678l-.473,5.838q1,.093,1.986.279t1.959.465l1.4-5.663A28.841,28.841,0,0,0,1613.248,1015.659Z" transform="translate(-1595.711 -1014.875)" fill="#0437a0"/>
          <path id="Path_1793" data-name="Path 1793" d="M1585.379,1018.414a29.95,29.95,0,0,0-1.656,2.964q1.15,2.656,2.3,5.311.918-.465,1.866-.836t1.919-.651l-1.4-5.663A25.255,25.255,0,0,0,1585.379,1018.414Z" transform="translate(-1583.468 -1016.159)" fill="#60bee1"/>
          <path id="Path_1794" data-name="Path 1794" d="M1622.877,1025.988c-.083.191-.165.379-.247.57-.214.5-.429.988-.643,1.484-.077.18-.154.358-.232.537-.7-.265-1.366-.469-2.056-.687-.653-.207-1.294-.4-1.957-.6.047-.19.094-.381.142-.573q.193-.774.383-1.552.076-.3.149-.6a20.919,20.919,0,0,1,2.361.626A22.251,22.251,0,0,1,1622.877,1025.988Z" transform="translate(-1599.324 -1019.026)" fill="#4c73d5"/>
          <path id="Path_1795" data-name="Path 1795" d="M1587.365,1021.563l.463.325.513-.238-.05.563.462.325-.513.238-.05.563-.463-.325-.513.238.05-.563-.463-.325.513-.238Z" transform="translate(-1584.903 -1017.627)" fill="#ffc400"/>
          <path id="Path_1796" data-name="Path 1796" d="M1623.829,1020.576l-.462.325-.513-.238.05.563-.463.325.512.238.05.563.462-.325.513.238-.05-.563.463-.325-.513-.238Z" transform="translate(-1601.514 -1017.167)" fill="#ffc400"/>
          <path id="Path_1797" data-name="Path 1797" d="M1589.912,1025.519a1.457,1.457,0,0,1,.025.266,1.49,1.49,0,0,1-2.8.707,1.489,1.489,0,1,0,2.776-.972Z" transform="translate(-1585.059 -1019.471)" fill="#fff"/>
          <g id="Group_852" data-name="Group 852" transform="translate(10.328 2.683)">
            <path id="Path_1798" data-name="Path 1798" d="M1604.185,1019.713v-.152h.166v-.172h-.371v.126h-.225v-.192h-.166v-.106h-.238v.106h-.166v.192h-.225v-.126h-.371v.172h.166v.152h.165l.033.205h-.364v.206h.183v.152h-.183v.245h.146v.309s.364.492.735.492.735-.492.735-.492v-.309h.146v-.245h-.182v-.152h.182v-.206h-.364l.033-.205Z" transform="translate(-1602.589 -1019.217)" fill="#ffc400"/>
            <g id="Group_850" data-name="Group 850" transform="translate(0.55 0.9)" opacity="0.3" style="mix-blend-mode: multiply;isolation: isolate">
              <rect id="Rectangle_161" data-name="Rectangle 161" width="0.212" height="0.212" fill="#ff931e"/>
              <rect id="Rectangle_162" data-name="Rectangle 162" width="0.212" height="0.212" transform="translate(0.45)" fill="#ff931e"/>
            </g>
            <g id="Group_851" data-name="Group 851" transform="translate(0.563 1.47)" opacity="0.3" style="mix-blend-mode: multiply;isolation: isolate">
              <rect id="Rectangle_163" data-name="Rectangle 163" width="0.212" height="0.106" fill="#ff931e"/>
              <rect id="Rectangle_164" data-name="Rectangle 164" width="0.212" height="0.106" transform="translate(0.424)" fill="#ff931e"/>
              <rect id="Rectangle_165" data-name="Rectangle 165" width="0.212" height="0.106" transform="translate(0.212 0.106)" fill="#ff931e"/>
            </g>
          </g>
          <g id="Group_855" data-name="Group 855" transform="translate(12.473 2.683)">
            <path id="Path_1799" data-name="Path 1799" d="M1608.2,1019.713v-.152h.166v-.172H1608v.126h-.225v-.192h-.165v-.106h-.239v.106h-.165v.192h-.225v-.126h-.37v.172h.166v.152h.165l.033.205h-.364v.206h.182v.152h-.182v.245h.146v.309s.364.492.735.492.735-.492.735-.492v-.309h.146v-.245h-.182v-.152h.182v-.206H1608l.033-.205Z" transform="translate(-1606.607 -1019.217)" fill="#ffc400"/>
            <g id="Group_853" data-name="Group 853" transform="translate(0.549 0.9)" opacity="0.3" style="mix-blend-mode: multiply;isolation: isolate">
              <rect id="Rectangle_166" data-name="Rectangle 166" width="0.212" height="0.212" fill="#ff931e"/>
              <rect id="Rectangle_167" data-name="Rectangle 167" width="0.212" height="0.212" transform="translate(0.45)" fill="#ff931e"/>
            </g>
            <g id="Group_854" data-name="Group 854" transform="translate(0.563 1.47)" opacity="0.3" style="mix-blend-mode: multiply;isolation: isolate">
              <rect id="Rectangle_168" data-name="Rectangle 168" width="0.212" height="0.106" fill="#ff931e"/>
              <rect id="Rectangle_169" data-name="Rectangle 169" width="0.212" height="0.106" transform="translate(0.424)" fill="#ff931e"/>
              <rect id="Rectangle_170" data-name="Rectangle 170" width="0.212" height="0.106" transform="translate(0.212 0.106)" fill="#ff931e"/>
            </g>
          </g>
          <g id="Group_858" data-name="Group 858" transform="translate(11.4 5.246)">
            <path id="Path_1800" data-name="Path 1800" d="M1606.194,1024.513v-.153h.166v-.172h-.371v.125h-.225v-.192h-.166v-.106h-.238v.106h-.166v.192h-.225v-.125h-.371v.172h.165v.153h.165l.033.2h-.364v.206h.182v.152h-.182v.245h.146v.308s.364.492.735.492.735-.492.735-.492v-.308h.146v-.245h-.182v-.152h.182v-.206H1606l.032-.2Z" transform="translate(-1604.598 -1024.016)" fill="#ffc400"/>
            <g id="Group_856" data-name="Group 856" transform="translate(0.549 0.9)" opacity="0.3" style="mix-blend-mode: multiply;isolation: isolate">
              <rect id="Rectangle_171" data-name="Rectangle 171" width="0.212" height="0.212" fill="#ff931e"/>
              <rect id="Rectangle_172" data-name="Rectangle 172" width="0.212" height="0.212" transform="translate(0.45)" fill="#ff931e"/>
            </g>
            <g id="Group_857" data-name="Group 857" transform="translate(0.563 1.47)" opacity="0.3" style="mix-blend-mode: multiply;isolation: isolate">
              <rect id="Rectangle_173" data-name="Rectangle 173" width="0.212" height="0.106" fill="#ff931e"/>
              <rect id="Rectangle_174" data-name="Rectangle 174" width="0.212" height="0.106" transform="translate(0.424)" fill="#ff931e"/>
              <rect id="Rectangle_175" data-name="Rectangle 175" width="0.212" height="0.106" transform="translate(0.212 0.106)" fill="#ff931e"/>
            </g>
          </g>
          <path id="Path_1801" data-name="Path 1801" d="M1597.476,1020.212a17.922,17.922,0,0,0-2.414.223,9.811,9.811,0,0,0-2.254.585c-.107-.429-.213-.859-.319-1.287a8.743,8.743,0,0,1,2.243-.712,18.937,18.937,0,0,1,2.632-.2Q1597.421,1019.516,1597.476,1020.212Z" transform="translate(-1587.554 -1016.348)" fill="#e60000"/>
          <path id="Path_1802" data-name="Path 1802" d="M1598.251,1025.421c-.676.066-1.409.148-2.094.261-.722.127-1.432.276-2.124.47q-.187-.748-.371-1.5a13.264,13.264,0,0,1,2.16-.561,14.663,14.663,0,0,1,2.311-.13Q1598.193,1024.693,1598.251,1025.421Z" transform="translate(-1588.101 -1018.746)" fill="#e60000"/>
          <g id="Group_859" data-name="Group 859" transform="translate(15.057 3.757)">
            <path id="Path_1803" data-name="Path 1803" d="M1614.133,1021.984a2.48,2.48,0,0,0,.566.077,1.041,1.041,0,0,0,.122-.009.9.9,0,0,0,.3-.089.957.957,0,0,0,.155-.08.111.111,0,0,0,.051-.057c0-.02-.012-.033,0-.056a.357.357,0,0,0-.1,0,1.158,1.158,0,0,1-.543.045.671.671,0,0,1-.2-.077c-.029-.013-.2-.062-.155-.1s.152-.006.2-.01a.522.522,0,0,0,.181-.05.448.448,0,0,0,.172-.087.221.221,0,0,0,.065-.075c0-.005.019-.074.011-.074a.812.812,0,0,0-.1-.009c-.307.186-.649-.039-.963-.09a1.617,1.617,0,0,0-.617.04.569.569,0,0,0-.2.088c-.068.049-.119.087-.035.151a1.229,1.229,0,0,0,.365.24c.135.041.281.028.415.076A3.22,3.22,0,0,0,1614.133,1021.984Z" transform="translate(-1612.167 -1021.228)" fill="#e60000"/>
            <path id="Path_1804" data-name="Path 1804" d="M1614.86,1023.106a.77.77,0,0,1,.065-.113l0-.285c0-.023-.036-.091-.077-.1a.168.168,0,0,0-.1.059l-.14.1a.46.46,0,0,1-.235,0h-.195a.305.305,0,0,1-.227,0l-.127.009a.591.591,0,0,1-.1.04l-.118,0a2.393,2.393,0,0,0-.327.045.494.494,0,0,0-.253-.036l-.1-.023a1.126,1.126,0,0,1-.262-.279c-.011-.019-.023-.038-.033-.058.015.028.266-.113.292-.134.042-.035.2-.193.1-.217a.921.921,0,0,0-.2.011.6.6,0,0,1-.156,0c-.149-.039-.26-.205-.391-.281-.089-.052-.076-.077-.169-.027-.045.023-.053.093-.1.112a.166.166,0,0,1-.119-.022c-.061-.027-.2-.157-.26-.116-.047.03-.044.122-.029.169a.441.441,0,0,0,.195.19.844.844,0,0,1-.077.226c-.018.036-.041.077-.059.118a.3.3,0,0,0-.05.113.128.128,0,0,0,.052.144.02.02,0,0,0,.01.006.2.2,0,0,0,.047.018c.038,0,.195-.035.22-.014s.014.109.043.147.082.043.1.071.016.014,0,.045c-.029.047-.078.072-.115.112a.292.292,0,0,0-.048.094.572.572,0,0,0-.071.318c.008.053.047.09.056.145a.528.528,0,0,1,.017.153,1.707,1.707,0,0,0-.04.19.828.828,0,0,1-.086.164l-.086.136a.7.7,0,0,0-.092.2.623.623,0,0,1-.085.123c-.014.017-.082.081-.081.1.005.06,0,.136.078.147a1.76,1.76,0,0,0,.217-.006.168.168,0,0,0,.122-.068c.021-.043-.016-.092,0-.144s.054-.064.073-.1a1.1,1.1,0,0,0,.037-.163.591.591,0,0,1,.067-.107c.027-.042.053-.085.078-.128.011-.019.037-.1.055-.107a.309.309,0,0,1,.154-.046l.072.109a.493.493,0,0,0-.049.195l-.032.353a.294.294,0,0,0-.049.075.272.272,0,0,0-.021.105.168.168,0,0,1-.062.1c-.011.01-.084.059-.084.069,0,.075-.008.126.076.142.054.01.113.008.168.013a.157.157,0,0,0,.127-.068.383.383,0,0,1,.006-.056.2.2,0,0,1,.056-.08c.016-.015.035-.028.051-.045.074-.082.061-.258.076-.361a.416.416,0,0,1,.109-.186.433.433,0,0,0,.118-.236s.35-.024.385-.026.087-.007.131-.013c.024,0,.082-.025.1,0s-.033.093-.051.12l-.135.209a.4.4,0,0,1-.005.119.407.407,0,0,1-.107.124c-.029.029-.057.059-.087.087.02.077.026.107.108.113.058,0,.116.006.174.009a.138.138,0,0,0,.087-.044.208.208,0,0,0,.027-.122.332.332,0,0,1,.053-.124.779.779,0,0,1,.18-.228,1.866,1.866,0,0,0,.263-.27.3.3,0,0,1,.168.123.842.842,0,0,1-.027.33l-.1.176a1.148,1.148,0,0,1-.073.119,1.6,1.6,0,0,1-.133.128.285.285,0,0,0,.006.087c.03.089.194.065.27.072a.181.181,0,0,0,.128-.077c.012-.014,0-.073,0-.092a.139.139,0,0,1,.065-.081c.1-.074.053-.19.112-.281s.2-.161.238-.275a.473.473,0,0,0-.007-.234.923.923,0,0,1,.029-.267c.012-.078-.006-.148,0-.225a.361.361,0,0,1,.109-.2.156.156,0,0,0,.05-.136.781.781,0,0,1-.014-.1A.179.179,0,0,1,1614.86,1023.106Z" transform="translate(-1611.447 -1021.485)" fill="#ffc400"/>
          </g>
          <path id="Path_1805" data-name="Path 1805" d="M1622.877,1025.988c-.083.191-.165.379-.247.57-.214.5-.429.988-.643,1.484-.077.18-.154.358-.232.537-.7-.265-1.366-.469-2.056-.687-.653-.207-1.294-.4-1.957-.6.047-.19.094-.381.142-.573q.193-.774.383-1.552.076-.3.149-.6a20.919,20.919,0,0,1,2.361.626A22.251,22.251,0,0,1,1622.877,1025.988Z" transform="translate(-1599.324 -1019.026)" fill="#fff"/>
          <path id="Path_1806" data-name="Path 1806" d="M1622.755,1027.08l-.644,1.483c-.672-.267-1.358-.514-2.049-.737-.673-.219-1.357-.424-2.054-.589q.193-.774.384-1.552c.214.048,1.259.291,2.262.619C1621.545,1026.594,1622.426,1026.946,1622.755,1027.08Z" transform="translate(-1599.448 -1019.548)" fill="#e60000"/>
          <path id="Path_1807" data-name="Path 1807" d="M1622.7,1027.71a4.766,4.766,0,0,1-.607-.048,3.967,3.967,0,0,1-.549-.128.585.585,0,0,0-.229-.24c-.486-.266-.951.034-1.828-.463a.276.276,0,0,1-.054-.027c-.017-.014-.012-.013-.017-.038s0-.084-.017-.1-.031-.012-.051-.012h-.14a.539.539,0,0,0-.191.009c-.048.02-.077.063-.12.092-.019.014-.155.075-.155.092,0,.053-.016.122.112.149a3.039,3.039,0,0,1,.314.027.138.138,0,0,1,.048.106v.112c0,.033-.273.029-.3.029a.793.793,0,0,1-.168-.023c-.027-.007-.112-.028-.113.021,0,.032.056.047.079.055a.742.742,0,0,0,.149.059.659.659,0,0,0,.1,0c.11,0,.219,0,.329.005.016,0,.053.069.048.1a.814.814,0,0,1-.212.071c-.069.011-.138.016-.208.021-.026,0-.08,0-.088.032s.024.047.044.052l.074.022c.069,0,.229-.053.331-.059a1.676,1.676,0,0,1,.583-.045.7.7,0,0,1,.286.071,2.226,2.226,0,0,0,.352.145,1.151,1.151,0,0,0,.194.036c.037,0,.124-.013.15.022s.014.121-.025.128a.333.333,0,0,1-.074,0c-.069,0-.135-.028-.2-.032-.035,0-.106,0-.1.049s.18.076.227.088l.17.038.165.005a.391.391,0,0,0,.17-.144l.059-.011a.958.958,0,0,0,.405.176c.122.011.122.037.175.127a.341.341,0,0,1,.027.2c0,.027-.04.073-.038.1s.051.05.076.049c.112,0,.086-.138.086-.209a.8.8,0,0,0,0-.19c-.017-.068-.065-.082-.117-.122a.688.688,0,0,1-.136-.135c0-.006-.072-.116-.061-.119.138-.026.442.139.719.128a.481.481,0,0,0,.378-.128C1622.792,1027.79,1622.792,1027.742,1622.7,1027.71Z" transform="translate(-1599.74 -1019.996)"/>
        </g>
      </g>
    </g>
  </g>
</svg>
