<svg xmlns="http://www.w3.org/2000/svg" xmlns:xlink="http://www.w3.org/1999/xlink" width="406.202" height="164.966" viewBox="0 0 406.202 164.966">
  <defs>
    <clipPath id="clip-path">
      <path id="Path_7489" data-name="Path 7489" d="M169.162,297.136,128.858,229l40.3-68.132H461.4L501.7,229l-40.3,68.132Z" fill="none"/>
    </clipPath>
    <clipPath id="clip-path-2">
      <path id="Path_7473" data-name="Path 7473" d="M159.675,301.559,116.75,229l42.925-72.555H470.888L513.813,229l-42.925,72.555Z" fill="none"/>
    </clipPath>
  </defs>
  <g id="Group_840" data-name="Group 840" transform="translate(-112.18 -146.521)">
    <path id="Path_1751" data-name="Path 1751" d="M160.978,311.487H469.585l48.8-82.482-48.8-82.484H160.978l-48.8,82.484Z" fill="#fff"/>
    <path id="Path_1752" data-name="Path 1752" d="M169.162,160.873H461.4l40.3,68.132-40.3,68.13H169.162l-40.3-68.13Z" fill="#80192e"/>
    <g id="Group_808" data-name="Group 808">
      <g id="Group_4627" data-name="Group 4627">
        <g id="Group_4626" data-name="Group 4626" clip-path="url(#clip-path)">
          <g id="Group_4613" data-name="Group 4613">
            <g id="Group_4612" data-name="Group 4612" clip-path="url(#clip-path-2)">
              <g id="Group_4611" data-name="Group 4611">
                <path id="Path_7471" data-name="Path 7471" d="M116.75,314.341H513.813V143.668H116.75V314.341Z" fill="#fff"/>
                <path id="Path_7472" data-name="Path 7472" d="M366.479,229.006a51.2,51.2,0,1,0-51.2,51.2,51.2,51.2,0,0,0,51.2-51.2Z" fill="#e60000"/>
              </g>
            </g>
          </g>
        </g>
      </g>
    </g>
  </g>
</svg>
