<svg xmlns="http://www.w3.org/2000/svg" xmlns:xlink="http://www.w3.org/1999/xlink" width="180.404" height="73.264" viewBox="0 0 180.404 73.264">
  <defs>
    <clipPath id="clip-path">
      <path id="Path_1757" data-name="Path 1757" d="M1034.615,1364.648l-17.9-30.259,17.9-30.259H1164.4l17.9,30.259-17.9,30.259Z" transform="translate(-1016.713 -1304.131)" fill="none"/>
    </clipPath>
  </defs>
  <g id="Group_840" data-name="Group 840" transform="translate(-582.405 -534)">
    <path id="Path_1751" data-name="Path 1751" d="M1027.616,1368.127h137.06l21.672-36.632-21.672-36.633h-137.06l-21.672,36.633Z" transform="translate(-423.539 -760.862)" fill="#fff"/>
    <path id="Path_1752" data-name="Path 1752" d="M1034.614,1304.131H1164.4l17.9,30.259-17.9,30.258H1034.614l-17.9-30.258Z" transform="translate(-426.903 -763.757)" fill="#80192e"/>
    <g id="Group_808" data-name="Group 808" transform="translate(589.81 540.374)">
      <g id="Group_807" data-name="Group 807" transform="translate(0)" clip-path="url(#clip-path)">
        <g id="Group_806" data-name="Group 806" transform="translate(0 -24.935)">
          <path id="Path_1755" data-name="Path 1755" d="M1016.713,1267.869h165.593v110.387H1016.713V1267.869Z" transform="translate(-1016.713 -1267.869)" fill="#f20300"/>
          <path id="Path_1756" data-name="Path 1756" d="M1130.3,1326.682l2.688,7.984h13.237l-3.684,2.579-7.025,4.929,2.679,7.955,1.373,4.085-3.529-2.476-7.085-4.966-7.086,4.966-3.527,2.476,1.375-4.085,2.679-7.955-7.028-4.929-3.681-2.579h13.236l2.692-7.984,1.342-3.99,1.347,3.99Zm3.645,10.826.3.9.325.971,2.665-1.869Zm-2.386,1.8-.6-1.8h-4l-.611,1.8-.592,1.769,1.568,1.1,1.632,1.141,1.631-1.141,1.571-1.1-.6-1.769Zm-1.564-4.639-1.042-3.094-1.041,3.094h2.083Zm4.136,12.276-1.035-3.072-.892.624-.783.55,2.709,1.9Zm-7.643-1.9-.785-.55-.893-.624-1.033,3.072,2.711-1.9Zm-5.819-7.536,2.664,1.869.326-.971.306-.9Z" transform="translate(-1046.377 -1284.993)" fill="#008c1c"/>
        </g>
      </g>
    </g>
  </g>
</svg>
