<svg xmlns="http://www.w3.org/2000/svg" xmlns:xlink="http://www.w3.org/1999/xlink" width="406.203" height="164.965" viewBox="0 0 406.203 164.965">
  <defs>
    <clipPath id="clip-path">
      <path id="Path_8841" data-name="Path 8841" d="M170.162,253.41l-40.3-68.132,40.3-68.132H462.4l40.3,68.132L462.4,253.41Z" fill="none"/>
    </clipPath>
    <clipPath id="clip-path-2">
      <path id="Path_8840" data-name="Path 8840" d="M169.877,253.543,129.49,185.278l40.387-68.265h292.81l40.387,68.265-40.387,68.265Z" fill="none"/>
    </clipPath>
  </defs>
  <g id="Group_840" data-name="Group 840" transform="translate(-113.18 -102.796)">
    <path id="Path_1751" data-name="Path 1751" d="M161.978,267.761H470.585l48.8-82.481-48.8-82.484H161.978l-48.8,82.484Z" fill="#fff"/>
    <path id="Path_1752" data-name="Path 1752" d="M170.162,117.147H462.4l40.3,68.132-40.3,68.13H170.162l-40.3-68.13Z" fill="#80192e"/>
    <g id="Group_808" data-name="Group 808">
      <g id="Group_4954" data-name="Group 4954">
        <g id="Group_4953" data-name="Group 4953" clip-path="url(#clip-path)">
          <g id="Group_4952" data-name="Group 4952">
            <g id="Group_4951" data-name="Group 4951" clip-path="url(#clip-path-2)">
              <g id="effectFlag">
                <rect id="Rectangle_636" data-name="Rectangle 636" width="105.728" height="136.529" transform="translate(129.49 117.014)" fill="#008c1c"/>
                <rect id="Rectangle_637" data-name="Rectangle 637" width="267.856" height="136.529" transform="translate(235.217 117.014)" fill="#e60000"/>
                <g id="Group_4950" data-name="Group 4950">
                  <path id="Path_8652" data-name="Path 8652" d="M263.133,184.659c0-.117,0-.235,0-.353q0-.594-.025-1.181a2.137,2.137,0,0,1,.729.736l-.055-.853a2.128,2.128,0,0,0-.722-.732,27.719,27.719,0,0,0-3.086-10.873,3.09,3.09,0,0,1,.571.409l.12-.63a4.358,4.358,0,0,0-1.211-.728q-.454-.792-.957-1.55a3.854,3.854,0,0,1,.966.616l.121-.63a5.472,5.472,0,0,0-1.754-.947A27.849,27.849,0,0,0,237,156.478v-.6h-.673v.564q-.535-.02-1.075-.02t-1.076.02v-.564h-.673v.6a27.852,27.852,0,0,0-20.958,11.644,1.422,1.422,0,0,0-.7.1,3.12,3.12,0,0,1-.133.593,1,1,0,0,1,.414-.092,27.809,27.809,0,0,0-2.051,3.587,1.079,1.079,0,0,0-.46.094,3.119,3.119,0,0,1-.133.593.852.852,0,0,1,.312-.081,27.747,27.747,0,0,0-2.37,9.627,1.241,1.241,0,0,0-.352.484v.8a1.188,1.188,0,0,1,.312-.443q-.015.461-.015.925c0,.238,0,.476.009.712a1.16,1.16,0,0,0-.306.437v.8a1.22,1.22,0,0,1,.336-.467,27.722,27.722,0,0,0,3.059,11.305.978.978,0,0,0-.206.372l.323.564a.936.936,0,0,1,.193-.355q.434.795.919,1.559a.962.962,0,0,0-.214.383l.323.563a1.035,1.035,0,0,1,.238-.413,27.863,27.863,0,0,0,21.459,12.369v.6h.673v-.564c.357.014.716.02,1.076.02s.718-.006,1.075-.02v.564H237v-.6a27.843,27.843,0,0,0,20.454-10.96,2.568,2.568,0,0,1,.265.558,3.1,3.1,0,0,1,.464-.392,3.146,3.146,0,0,0-.336-.7,27.969,27.969,0,0,0,2.208-3.589c.356.554.341.765.341.765a3.158,3.158,0,0,1,.464-.392s.07-.289-.454-1.08a27.727,27.727,0,0,0,2.7-10.89,2.022,2.022,0,0,1,.661.69l-.054-.854A1.928,1.928,0,0,0,263.133,184.659Z" fill="#ffc400"/>
                  <g id="Group_4926" data-name="Group 4926">
                    <path id="Path_8653" data-name="Path 8653" d="M235.254,212.229c-.36,0-.722-.006-1.077-.02l-.04,0V156.4l.04,0c.711-.027,1.444-.027,2.153,0l.041,0v55.8l-.041,0C235.975,212.223,235.613,212.229,235.254,212.229Zm-1.033-.1c.683.024,1.384.024,2.066,0V156.485c-.682-.025-1.384-.025-2.066,0Z"/>
                    <path id="Path_8654" data-name="Path 8654" d="M210.462,197.169l-.03-.059a27.623,27.623,0,0,1-3.063-11.322v-.019l.013-.013a4.26,4.26,0,0,1,.658-.524,10.255,10.255,0,0,1,1.731-.892c.225-.093.452-.182.676-.264l.057-.021v.061c0,.064,0,.126,0,.19a24.594,24.594,0,0,0,1.944,9.634c.207.49.435.983.676,1.464l.02.04-.041.017c-.222.094-.428.186-.614.275a7.713,7.713,0,0,0-1.487.894,3.025,3.025,0,0,0-.5.487ZM207.454,185.8a27.532,27.532,0,0,0,3.024,11.212,3.185,3.185,0,0,1,.469-.45,7.8,7.8,0,0,1,1.5-.9c.175-.084.369-.171.576-.259-.235-.47-.456-.95-.658-1.428a24.672,24.672,0,0,1-1.951-9.667v-.13c-.2.076-.41.157-.615.242a10.242,10.242,0,0,0-1.717.884A4.21,4.21,0,0,0,207.454,185.8Z"/>
                    <path id="Path_8655" data-name="Path 8655" d="M207.378,182.65l.007-.109a27.692,27.692,0,0,1,2.374-9.643l.009-.021.024,0a3.521,3.521,0,0,1,.749,0,10.344,10.344,0,0,1,1.764.352c.2.057.422.123.655.2l.047.015-.021.044c-.186.382-.368.782-.541,1.189a24.544,24.544,0,0,0-1.7,6.135l0,.025-.024.009c-.249.088-.49.179-.715.27a11.017,11.017,0,0,0-1.838.913,4.376,4.376,0,0,0-.708.55Zm2.448-9.7a27.61,27.61,0,0,0-2.35,9.485,4.616,4.616,0,0,1,.643-.486,11.114,11.114,0,0,1,1.853-.922c.219-.088.452-.176.693-.262a24.687,24.687,0,0,1,1.7-6.13c.166-.393.341-.78.521-1.15-.216-.068-.419-.128-.606-.18a10.207,10.207,0,0,0-1.75-.351A3.723,3.723,0,0,0,209.826,172.954Z"/>
                    <path id="Path_8656" data-name="Path 8656" d="M233.547,209.085l-.045,0a24.729,24.729,0,0,1-15.81-7.213,25.083,25.083,0,0,1-3.067-3.721l-.028-.042.048-.02a33.9,33.9,0,0,1,6.5-1.787l-.279-.486a33.674,33.674,0,0,0-6.543,1.8c-.209.088-.418.181-.62.277a7.728,7.728,0,0,0-1.482.893,3.037,3.037,0,0,0-.484.474l-.037.046-.032-.05c-.322-.506-.632-1.031-.922-1.56l-.013-.024.017-.022a2.939,2.939,0,0,1,.5-.5,7.673,7.673,0,0,1,1.5-.909c.2-.1.408-.189.618-.278a33.584,33.584,0,0,1,6.556-1.81l-.279-.487a33.824,33.824,0,0,0-6.542,1.8l-.036.016-.018-.035c-.242-.483-.471-.978-.678-1.469a24.672,24.672,0,0,1-1.951-9.667c0-.064,0-.128,0-.191v-.029l.028-.01a44.153,44.153,0,0,1,8.02-1.919v-.712a44.341,44.341,0,0,0-7.947,1.895l-.026.01c-.244.09-.473.18-.681.266a10.232,10.232,0,0,0-1.742.9,4.048,4.048,0,0,0-.659.533l-.07.072,0-.1c-.005-.229-.008-.469-.008-.713,0-.309.005-.62.015-.926v-.017l.011-.012a4.2,4.2,0,0,1,.705-.563,10.715,10.715,0,0,1,1.818-.922c.222-.09.459-.182.706-.271a44.968,44.968,0,0,1,7.88-1.866v-.713a45.529,45.529,0,0,0-7.748,1.824l-.066.023.01-.068a24.618,24.618,0,0,1,1.706-6.156c.173-.41.355-.811.542-1.194l.016-.033.034.011a42.634,42.634,0,0,1,5.636,2.368l.114-.508a43.181,43.181,0,0,0-5.5-2.327c-.229-.074-.448-.141-.652-.2a11.135,11.135,0,0,0-1.75-.376,4.238,4.238,0,0,0-.726-.028l-.072,0,.031-.064A27.8,27.8,0,0,1,212.1,168.7l.011-.017.02,0a4.122,4.122,0,0,1,.8.028,11.424,11.424,0,0,1,1.858.409c.232.068.455.138.683.215a44.084,44.084,0,0,1,5.356,2.275l.114-.508a45.821,45.821,0,0,0-5.1-2.193l-.056-.02.037-.046c.41-.514.843-1.015,1.288-1.49v-.025h.038c.5-.119,1.025-.226,1.565-.32l-.108-.473c-.251.047-.5.1-.73.144l-.14.029.1-.1A24.736,24.736,0,0,1,233.5,159.53l.045,0Zm-18.823-10.942a24.952,24.952,0,0,0,3.027,3.665,24.654,24.654,0,0,0,15.712,7.186V159.617a24.646,24.646,0,0,0-15.471,6.949c.2-.042.415-.082.632-.123l.039-.007.146.638-.044.007c-.551.1-1.088.2-1.6.325-.431.459-.852.944-1.249,1.441a46.378,46.378,0,0,1,5.087,2.192l.029.014-.151.678-.049-.023a44.087,44.087,0,0,0-5.392-2.3c-.227-.076-.45-.146-.681-.214a11.477,11.477,0,0,0-1.843-.406,4.157,4.157,0,0,0-.767-.028,27.688,27.688,0,0,0-2.007,3.5,4.476,4.476,0,0,1,.67.033,11.106,11.106,0,0,1,1.763.378c.206.059.427.127.656.2a43.413,43.413,0,0,1,5.541,2.345l.03.015-.152.677-.048-.024a42.746,42.746,0,0,0-5.636-2.375c-.181.371-.357.76-.525,1.156a24.561,24.561,0,0,0-1.689,6.066,45.977,45.977,0,0,1,7.745-1.812l.049-.008v.883l-.035.006a45.119,45.119,0,0,0-7.9,1.868c-.246.089-.482.18-.7.27a10.625,10.625,0,0,0-1.8.914,4.1,4.1,0,0,0-.679.541c-.01.3-.015.6-.015.907,0,.209,0,.415.007.613a4.3,4.3,0,0,1,.6-.474,10.228,10.228,0,0,1,1.757-.906c.2-.084.421-.171.656-.258h0l.028-.011a44.479,44.479,0,0,1,8.037-1.916l.049-.008v.883l-.035,0a44.459,44.459,0,0,0-8.013,1.911c0,.053,0,.107,0,.161a24.594,24.594,0,0,0,1.944,9.634c.2.478.424.959.659,1.429a33.983,33.983,0,0,1,6.552-1.8l.03-.005.367.64-.058.011a33.668,33.668,0,0,0-6.6,1.817c-.21.088-.416.181-.615.276a7.577,7.577,0,0,0-1.481.9,3.034,3.034,0,0,0-.473.466c.276.5.57,1,.875,1.483a3.265,3.265,0,0,1,.46-.441,7.693,7.693,0,0,1,1.5-.9c.2-.1.413-.191.623-.279a33.856,33.856,0,0,1,6.591-1.813l.029-.005.367.641-.058.011A34.192,34.192,0,0,0,214.724,198.143Z"/>
                    <path id="Path_8657" data-name="Path 8657" d="M215.863,168.917l-.028-.01c-.228-.079-.457-.154-.681-.223l-.058-.018.038-.048c.25-.319.513-.639.781-.95v-.016l.03-.01c.39-.114.791-.22,1.192-.315l.136-.032-.1.1c-.447.476-.883.98-1.295,1.5Zm-.625-.3c.2.061.4.127.6.2.378-.472.776-.935,1.185-1.375-.35.085-.7.178-1.038.277C215.726,168.015,215.476,168.318,215.238,168.622Z"/>
                    <path id="Path_8658" data-name="Path 8658" d="M213.348,168.241l-.031-.005a5.869,5.869,0,0,0-.77-.072h-.081l.047-.065a28.208,28.208,0,0,1,9.028-8.123,27.576,27.576,0,0,1,11.962-3.538l.044,0v3.178l-.039,0a24.645,24.645,0,0,0-15.618,7.052l-.009.008-.012,0c-.416.086-.811.175-1.173.264h0l-.032.009c-2.623.648-3.256,1.221-3.306,1.269Zm-.72-.159a5.954,5.954,0,0,1,.681.068c.115-.106.8-.652,3.3-1.275v-.008h.037c.367-.091.768-.181,1.191-.269a24.734,24.734,0,0,1,15.623-7.064v-3.01a27.5,27.5,0,0,0-11.88,3.526A28.1,28.1,0,0,0,212.628,168.082Z"/>
                    <path id="Path_8659" data-name="Path 8659" d="M233.547,212.177l-.044,0a27.907,27.907,0,0,1-21.492-12.388l-.017-.026.02-.024a3.241,3.241,0,0,1,.5-.477,7.94,7.94,0,0,1,1.505-.9c.2-.094.408-.188.627-.278l.031-.013.019.028a24.967,24.967,0,0,0,3.056,3.708A24.652,24.652,0,0,0,233.508,209l.039,0ZM212.1,199.766a27.819,27.819,0,0,0,21.364,12.322v-3.009a24.735,24.735,0,0,1-15.771-7.211,25.009,25.009,0,0,1-3.047-3.692c-.205.085-.4.174-.591.263a7.856,7.856,0,0,0-1.489.887A3.336,3.336,0,0,0,212.1,199.766Z"/>
                    <path id="Path_8660" data-name="Path 8660" d="M257.947,168.032l-.131-.049c-.332-.125-.707-.249-1.114-.368-.832-.244-1.8-.475-2.875-.686-.38-.074-.764-.144-1.141-.207l-.013,0-.01-.008a24.643,24.643,0,0,0-15.663-7.1l-.04,0v-3.178l.045,0a27.585,27.585,0,0,1,11.864,3.483,28.241,28.241,0,0,1,9,8Zm-5.235-1.391c.374.063.755.132,1.131.206,1.078.211,2.048.442,2.883.687.356.105.688.213.99.322a28.13,28.13,0,0,0-8.888-7.861,27.5,27.5,0,0,0-11.783-3.472v3.01a24.731,24.731,0,0,1,15.667,7.108Z"/>
                    <path id="Path_8661" data-name="Path 8661" d="M263.111,182.36l-.073-.05a6.728,6.728,0,0,0-.7-.417,16.359,16.359,0,0,0-1.83-.791c-.225-.083-.465-.169-.713-.253l-.024-.009,0-.025a24.582,24.582,0,0,0-1.7-6.144,24.836,24.836,0,0,0-2.622-4.7l-.063-.087.1.022c.329.068.655.143.971.22a20.231,20.231,0,0,1,2.513.758l.027.011a7.617,7.617,0,0,1,1,.468l.011.006.005.011a27.617,27.617,0,0,1,3.091,10.89Zm-3.268-1.583c.24.082.472.165.69.246a16.382,16.382,0,0,1,1.84.795,7.362,7.362,0,0,1,.641.374,27.532,27.532,0,0,0-3.07-10.759,7.568,7.568,0,0,0-1.007-.467l-.027-.011a20.236,20.236,0,0,0-2.475-.744c-.282-.069-.572-.135-.863-.2a24.89,24.89,0,0,1,2.568,4.626A24.629,24.629,0,0,1,259.843,180.777Z"/>
                    <path id="Path_8662" data-name="Path 8662" d="M236.96,212.177V209l.04,0a24.658,24.658,0,0,0,15.757-7.189,25,25,0,0,0,2.65-3.125l.029-.04.035.036c.181.182.337.344.476.494a14.667,14.667,0,0,1,1.152,1.379c.153.213.285.415.393.6l.014.024-.017.022a27.89,27.89,0,0,1-20.484,10.977Zm.085-3.1v3.009A27.8,27.8,0,0,0,257.4,201.17c-.1-.176-.229-.367-.374-.568a14.361,14.361,0,0,0-1.146-1.372c-.129-.139-.274-.29-.438-.457a25.149,25.149,0,0,1-2.631,3.1,24.735,24.735,0,0,1-15.771,7.211Z"/>
                    <path id="Path_8663" data-name="Path 8663" d="M260.414,196.433l-.042-.063c-.125-.189-.276-.395-.451-.612a17.167,17.167,0,0,0-1.277-1.4c-.168-.167-.342-.336-.519-.5l-.02-.019.01-.028a24.576,24.576,0,0,0,1.892-9.5c0-.09,0-.181,0-.271v-.06l.057.02c.229.081.457.164.676.248a15.029,15.029,0,0,1,1.735.772,6.227,6.227,0,0,1,.665.408l.018.014v.022a27.667,27.667,0,0,1-2.708,10.906Zm-2.209-2.617c.169.161.337.324.5.484a17.51,17.51,0,0,1,1.283,1.406c.157.2.3.382.415.556a27.578,27.578,0,0,0,2.667-10.784,6.3,6.3,0,0,0-.637-.389,15.02,15.02,0,0,0-1.725-.768c-.2-.076-.407-.152-.618-.226,0,.07,0,.14,0,.211A24.685,24.685,0,0,1,258.2,193.816Z"/>
                    <path id="Path_8664" data-name="Path 8664" d="M210.958,196.662l-.023-.046c-.282-.557-.548-1.13-.79-1.7a27.069,27.069,0,0,1-2.125-9.645v-.024l.02-.012a10.255,10.255,0,0,1,1.731-.892c.225-.093.452-.182.676-.264l.057-.021v.061c0,.064,0,.126,0,.19a24.594,24.594,0,0,0,1.944,9.634c.207.49.435.983.676,1.464l.02.04-.041.017c-.222.094-.428.186-.614.275a7.713,7.713,0,0,0-1.487.894Zm-2.852-11.373a26.974,26.974,0,0,0,2.116,9.591c.235.556.492,1.111.765,1.652a7.948,7.948,0,0,1,1.463-.872c.175-.084.369-.171.576-.259-.235-.47-.456-.95-.658-1.428a24.672,24.672,0,0,1-1.951-9.667v-.13c-.2.076-.41.157-.615.242A10.309,10.309,0,0,0,208.106,185.289Z"/>
                    <path id="Path_8665" data-name="Path 8665" d="M208.093,182.07l.007-.085a27.051,27.051,0,0,1,2.045-8.286c.111-.263.229-.532.354-.8l.012-.027.03,0a10.344,10.344,0,0,1,1.764.352c.2.057.422.123.655.2l.047.015-.021.044c-.186.382-.368.782-.541,1.189a24.544,24.544,0,0,0-1.7,6.135l0,.025-.024.009c-.249.088-.49.179-.715.27a11.017,11.017,0,0,0-1.838.913Zm2.469-9.109c-.119.258-.233.517-.34.771a26.986,26.986,0,0,0-2.031,8.175,11.467,11.467,0,0,1,1.781-.876c.219-.088.452-.176.693-.262a24.687,24.687,0,0,1,1.7-6.13c.166-.393.341-.78.521-1.15-.216-.068-.419-.128-.606-.18A10.361,10.361,0,0,0,210.562,172.961Z"/>
                    <path id="Path_8666" data-name="Path 8666" d="M215.863,168.917l-.028-.01c-.228-.079-.457-.154-.681-.223l-.058-.018.038-.048c.25-.319.513-.639.781-.95v-.016l.03-.01c.39-.114.791-.22,1.192-.315l.136-.032-.1.1c-.447.476-.883.98-1.295,1.5Zm-.625-.3c.2.061.4.127.6.2.378-.472.776-.935,1.185-1.375-.35.085-.7.178-1.038.277C215.726,168.015,215.476,168.318,215.238,168.622Z"/>
                    <path id="Path_8667" data-name="Path 8667" d="M213.356,168.222l-.065-.054a27.577,27.577,0,0,1,2.694-3.132,27.161,27.161,0,0,1,17.518-7.925l.044,0v2.5l-.039,0a24.645,24.645,0,0,0-15.618,7.052l-.009.008-.012,0c-.416.086-.811.175-1.173.264h0l-.032.009C213.98,167.612,213.38,168.2,213.356,168.222ZM233.463,157.2a27.07,27.07,0,0,0-17.419,7.9,27.557,27.557,0,0,0-2.514,2.891,11.06,11.06,0,0,1,3.082-1.112v-.008h.037c.367-.091.768-.181,1.191-.269a24.734,24.734,0,0,1,15.623-7.064Z"/>
                    <path id="Path_8668" data-name="Path 8668" d="M233.547,211.5l-.044,0a27.142,27.142,0,0,1-17.518-7.926,27.29,27.29,0,0,1-3.481-4.258l-.021-.032.03-.024a7.94,7.94,0,0,1,1.505-.9c.2-.094.408-.188.627-.278l.031-.013.019.028a24.967,24.967,0,0,0,3.056,3.708A24.652,24.652,0,0,0,233.508,209l.039,0ZM212.6,199.3a27.313,27.313,0,0,0,12.084,10.036,26.963,26.963,0,0,0,8.783,2.076v-2.335a24.735,24.735,0,0,1-15.771-7.211,25.009,25.009,0,0,1-3.047-3.692c-.205.085-.4.174-.591.263A7.98,7.98,0,0,0,212.6,199.3Z"/>
                    <path id="Path_8669" data-name="Path 8669" d="M256.828,167.652l-.126-.037c-.832-.244-1.8-.475-2.875-.686-.38-.074-.764-.144-1.141-.207l-.013,0-.01-.008a24.643,24.643,0,0,0-15.663-7.1l-.04,0v-2.5l.045,0a27.161,27.161,0,0,1,17.517,7.925,27.648,27.648,0,0,1,2.225,2.513Zm-4.116-1.011c.374.063.755.132,1.131.206,1.024.2,1.951.42,2.756.651a27.31,27.31,0,0,0-10.771-8.224,26.932,26.932,0,0,0-8.783-2.076v2.335a24.731,24.731,0,0,1,15.667,7.108Z"/>
                    <path id="Path_8670" data-name="Path 8670" d="M262.4,181.929l-.068-.036a16.359,16.359,0,0,0-1.83-.791c-.225-.083-.465-.169-.713-.253l-.024-.009,0-.025a24.582,24.582,0,0,0-1.7-6.144,24.836,24.836,0,0,0-2.622-4.7l-.063-.087.1.022c.329.068.655.143.971.22a20.231,20.231,0,0,1,2.513.758l.027.01v.018a27.136,27.136,0,0,1,3.4,10.937Zm-2.559-1.152c.24.082.472.165.69.246a16.783,16.783,0,0,1,1.772.76,27.019,27.019,0,0,0-3.383-10.824,20.389,20.389,0,0,0-2.487-.748c-.282-.069-.572-.135-.863-.2a24.89,24.89,0,0,1,2.568,4.626A24.629,24.629,0,0,1,259.843,180.777Z"/>
                    <path id="Path_8671" data-name="Path 8671" d="M236.96,211.5V209l.04,0a24.658,24.658,0,0,0,15.757-7.189,25,25,0,0,0,2.65-3.125l.029-.04.035.036c.181.182.337.344.476.494a14.667,14.667,0,0,1,1.152,1.379l.018.026-.018.025a27.525,27.525,0,0,1-2.577,2.971,27.143,27.143,0,0,1-17.517,7.926Zm.085-2.424v2.335a27.06,27.06,0,0,0,17.418-7.9,27.58,27.58,0,0,0,2.55-2.939,14.725,14.725,0,0,0-1.128-1.346c-.129-.139-.274-.29-.438-.457a25.149,25.149,0,0,1-2.631,3.1,24.735,24.735,0,0,1-15.771,7.211Z"/>
                    <path id="Path_8672" data-name="Path 8672" d="M259.964,195.811l-.043-.053a17.167,17.167,0,0,0-1.277-1.4c-.168-.167-.342-.336-.519-.5l-.02-.019.01-.028a24.576,24.576,0,0,0,1.892-9.5c0-.09,0-.181,0-.271v-.06l.057.02c.229.081.457.164.676.248a15.029,15.029,0,0,1,1.735.772l.022.012v.026a27.072,27.072,0,0,1-2.131,9.86c-.122.287-.246.568-.371.837Zm-1.759-2c.169.161.337.324.5.484a17.833,17.833,0,0,1,1.24,1.353c.115-.249.229-.509.342-.773a27,27,0,0,0,2.123-9.8,15.018,15.018,0,0,0-1.7-.756c-.2-.076-.407-.152-.618-.226,0,.07,0,.14,0,.211A24.685,24.685,0,0,1,258.2,193.816Z"/>
                    <path id="Path_8673" data-name="Path 8673" d="M212.45,195.754l-.019-.037c-.241-.48-.471-.979-.683-1.483a25.319,25.319,0,0,1-2-9.855v-.028l.026-.011c.225-.093.452-.182.676-.264l.057-.021v.061c0,.064,0,.126,0,.19a24.594,24.594,0,0,0,1.944,9.634c.207.49.435.983.676,1.464l.02.04-.041.017c-.222.094-.428.186-.614.275Zm-2.622-11.347a25.262,25.262,0,0,0,2,9.795c.207.489.43.974.663,1.44.165-.078.346-.159.538-.241-.235-.47-.456-.95-.658-1.428a24.672,24.672,0,0,1-1.951-9.667v-.13C210.222,184.248,210.025,184.326,209.828,184.407Z"/>
                    <path id="Path_8674" data-name="Path 8674" d="M209.937,181.137l.009-.071a25.272,25.272,0,0,1,1.8-6.69c.158-.375.329-.754.508-1.126l.016-.032.033.009c.2.057.422.123.655.2l.047.015-.021.044c-.186.382-.368.782-.541,1.189a24.544,24.544,0,0,0-1.7,6.135l0,.025-.024.009c-.249.088-.49.179-.715.27Zm2.38-7.819c-.173.361-.339.728-.492,1.092a25.169,25.169,0,0,0-1.786,6.6c.2-.08.409-.158.626-.236a24.687,24.687,0,0,1,1.7-6.13c.166-.393.341-.78.521-1.15C212.687,173.426,212.494,173.368,212.317,173.318Z"/>
                    <path id="Path_8675" data-name="Path 8675" d="M215.863,168.917l-.028-.01c-.228-.079-.457-.154-.681-.223l-.058-.018.038-.048c.25-.319.513-.639.781-.95v-.016l.03-.01c.39-.114.791-.22,1.192-.315l.136-.032-.1.1c-.447.476-.883.98-1.295,1.5Zm-.625-.3c.2.061.4.127.6.2.378-.472.776-.935,1.185-1.375-.35.085-.7.178-1.038.277C215.726,168.015,215.476,168.318,215.238,168.622Z"/>
                    <path id="Path_8676" data-name="Path 8676" d="M216.528,166.983l.1-.1c.189-.2.388-.409.591-.612a25.427,25.427,0,0,1,16.287-7.413l.045,0v.76l-.039,0a24.645,24.645,0,0,0-15.618,7.052l-.009.008-.012,0c-.428.089-.833.18-1.2.272Zm16.935-8.041a25.33,25.33,0,0,0-16.188,7.385c-.168.168-.334.337-.492.506.329-.079.684-.159,1.057-.236a24.734,24.734,0,0,1,15.623-7.064Z"/>
                    <path id="Path_8677" data-name="Path 8677" d="M233.547,209.76l-.045,0a25.414,25.414,0,0,1-16.287-7.413,25.678,25.678,0,0,1-3.215-3.92l-.026-.04.044-.021c.2-.094.408-.188.627-.278l.031-.013.019.028a24.967,24.967,0,0,0,3.056,3.708A24.652,24.652,0,0,0,233.508,209l.039,0ZM214.1,198.418a25.563,25.563,0,0,0,11.26,9.316,25.167,25.167,0,0,0,8.1,1.935v-.59a24.735,24.735,0,0,1-15.771-7.211,25.009,25.009,0,0,1-3.047-3.692C214.456,198.255,214.272,198.336,214.1,198.418Z"/>
                    <path id="Path_8678" data-name="Path 8678" d="M253.955,166.955l-.128-.026c-.38-.074-.764-.144-1.141-.207l-.013,0-.01-.008a24.643,24.643,0,0,0-15.663-7.1l-.04,0v-.76l.045,0a25.433,25.433,0,0,1,16.287,7.413c.2.2.39.4.573.592Zm-1.243-.314c.332.056.669.117,1,.181-.155-.165-.317-.331-.482-.5a25.33,25.33,0,0,0-16.187-7.385v.591a24.731,24.731,0,0,1,15.667,7.108Z"/>
                    <path id="Path_8679" data-name="Path 8679" d="M260.569,181.127l-.065-.025c-.225-.083-.465-.169-.713-.253l-.024-.009,0-.025a24.582,24.582,0,0,0-1.7-6.144,24.836,24.836,0,0,0-2.622-4.7l-.063-.087.1.022c.329.068.655.143.971.22l.016,0,.009.013a25.6,25.6,0,0,1,2.281,4.23,25.3,25.3,0,0,1,1.8,6.682Zm-.726-.35c.216.074.426.149.625.223a25.327,25.327,0,0,0-4.049-10.793c-.277-.067-.561-.132-.847-.194a24.89,24.89,0,0,1,2.568,4.626A24.629,24.629,0,0,1,259.843,180.777Z"/>
                    <path id="Path_8680" data-name="Path 8680" d="M236.96,209.76V209l.04,0a24.658,24.658,0,0,0,15.757-7.189,25,25,0,0,0,2.65-3.125l.029-.04.035.036c.181.182.337.344.476.494l.024.025-.021.028a25.663,25.663,0,0,1-10.768,8.586,25.31,25.31,0,0,1-8.177,1.945Zm.085-.681v.59a25.335,25.335,0,0,0,16.187-7.384,25.716,25.716,0,0,0,2.63-3.08c-.124-.132-.26-.275-.415-.432a25.149,25.149,0,0,1-2.631,3.1,24.735,24.735,0,0,1-15.771,7.211Z"/>
                    <path id="Path_8681" data-name="Path 8681" d="M258.688,194.4l-.044-.043c-.168-.167-.342-.336-.519-.5l-.02-.019.01-.028a24.576,24.576,0,0,0,1.892-9.5c0-.09,0-.181,0-.271v-.06l.057.02c.229.081.457.164.676.248l.027.01v.053a25.334,25.334,0,0,1-2,9.928c-.016.038-.031.076-.048.112Zm-.483-.587c.153.146.306.294.454.44l.024-.054a25.28,25.28,0,0,0,2-9.891c-.192-.073-.39-.145-.591-.216,0,.07,0,.14,0,.211A24.685,24.685,0,0,1,258.2,193.816Z"/>
                    <path id="Path_8682" data-name="Path 8682" d="M236.96,209.085V159.527l.045,0a24.738,24.738,0,0,1,15.717,7.12l.094.093-.131-.022c-.743-.125-1.273-.2-1.406-.207l-.107.551c.3.019,1.441.2,2.291.362.394.075.755.149,1.1.225l.033.008a25.3,25.3,0,0,1,2.783.752,10.866,10.866,0,0,1,1.133.454l.024.011v.015c.33.5.65,1.015.952,1.541l.064.11-.117-.05c-.293-.129-.63-.257-1.005-.382a26.065,26.065,0,0,0-2.546-.685c-.332-.073-.667-.143-1-.207-1.325-.26-2.344-.4-2.534-.414l-.106.552c.352.022,1.866.26,3.229.551l.034.007v.022a24.721,24.721,0,0,1,4.329,10.866l.01.068-.065-.022a67.438,67.438,0,0,0-7.085-1.885l.049.765a67.951,67.951,0,0,1,7.17,1.911c.248.085.484.17.7.251a16.37,16.37,0,0,1,1.808.785,6.731,6.731,0,0,1,.7.415l.017.011v.022c.016.4.025.793.025,1.182q0,.177,0,.354v.083l-.066-.049a5.524,5.524,0,0,0-.667-.423,14.351,14.351,0,0,0-1.749-.787l-.027-.011c-.205-.078-.426-.159-.655-.24a66.534,66.534,0,0,0-7.368-1.985l.048.767a66.516,66.516,0,0,1,7.371,1.98l.028.01v.03c0,.09,0,.18,0,.271a24.671,24.671,0,0,1-1.9,9.537l-.023.056-.045-.042a66.729,66.729,0,0,0-6.3-5.106l.079.878a67.951,67.951,0,0,1,5.965,4.9c.17.162.337.325.512.5a16.935,16.935,0,0,1,1.267,1.39,7.433,7.433,0,0,1,.447.615l.013.02-.011.022a27.929,27.929,0,0,1-2.211,3.594l-.037.052-.033-.055c-.113-.191-.246-.392-.393-.6a14.965,14.965,0,0,0-1.146-1.393c-.147-.161-.306-.329-.472-.5a42.038,42.038,0,0,0-5.167-4.367l-.345.528a44.423,44.423,0,0,1,5.181,4.342l.025.024-.021.03a25.083,25.083,0,0,1-2.659,3.135,24.728,24.728,0,0,1-15.811,7.213Zm.085-49.468v49.377a24.66,24.66,0,0,0,15.712-7.186,25.142,25.142,0,0,0,2.63-3.1,44.569,44.569,0,0,0-5.179-4.332l-.032-.023.437-.669.036.026a42.384,42.384,0,0,1,5.213,4.4c.167.171.326.339.474.5a15.012,15.012,0,0,1,1.153,1.4c.134.188.257.372.363.548a28.039,28.039,0,0,0,2.156-3.51c-.114-.176-.258-.373-.429-.588a16.955,16.955,0,0,0-1.26-1.382c-.174-.174-.342-.337-.511-.5a67.907,67.907,0,0,0-5.973-4.9l-.014-.011-.1-1.1.075.055a67.717,67.717,0,0,1,6.343,5.126,24.591,24.591,0,0,0,1.868-9.448c0-.081,0-.161,0-.241a67.037,67.037,0,0,0-7.363-1.974l-.032-.006-.06-.941.054.011a66.609,66.609,0,0,1,7.434,2c.241.085.471.17.684.252l.028.011a14.294,14.294,0,0,1,1.732.782,5.788,5.788,0,0,1,.61.379c0-.09,0-.181,0-.271,0-.381-.008-.771-.023-1.158a6.648,6.648,0,0,0-.674-.4,16.17,16.17,0,0,0-1.8-.78c-.219-.081-.454-.165-.7-.25a68.007,68.007,0,0,0-7.191-1.915l-.031-.006-.06-.94.054.01a68.885,68.885,0,0,1,7.084,1.877,24.624,24.624,0,0,0-4.3-10.759c-1.645-.351-3.08-.546-3.23-.554l-.077.057.145-.752.014-.01a24.372,24.372,0,0,1,2.609.408c.329.064.665.134,1,.208a25.976,25.976,0,0,1,2.555.687c.328.11.629.222.895.334-.282-.487-.581-.967-.888-1.428a10.583,10.583,0,0,0-1.113-.445,25.521,25.521,0,0,0-2.806-.758l-.033-.008c-.339-.072-.689-.144-1.07-.216-1.281-.243-2.2-.361-2.31-.368l-.077.059.145-.755.014-.01a12.778,12.778,0,0,1,1.349.18,24.651,24.651,0,0,0-15.523-7Z"/>
                    <g id="Group_4925" data-name="Group 4925">
                      <path id="Path_8683" data-name="Path 8683" d="M234.221,212.773h-.758V155.838h.758Zm-.674-.084h.59V155.922h-.59Z"/>
                      <path id="Path_8684" data-name="Path 8684" d="M237.045,212.773h-.758V155.838h.758Zm-.674-.084h.589V155.922h-.589Z"/>
                    </g>
                    <path id="Path_8685" data-name="Path 8685" d="M207.075,183.866h0a.044.044,0,0,1-.037-.042v-.8l0-.011a1.277,1.277,0,0,1,.362-.5,4.479,4.479,0,0,1,.722-.56,11.114,11.114,0,0,1,1.853-.922c.226-.09.468-.182.717-.271a45.789,45.789,0,0,1,7.812-1.835.041.041,0,0,1,.034.009.041.041,0,0,1,.015.032v.8a.042.042,0,0,1-.035.042,45.119,45.119,0,0,0-7.9,1.868c-.246.089-.482.18-.7.27a10.625,10.625,0,0,0-1.8.914,4.111,4.111,0,0,0-.687.549l0,0a1.178,1.178,0,0,0-.3.423A.042.042,0,0,1,207.075,183.866Zm.043-.833v.613a1.942,1.942,0,0,1,.235-.291l0,0a4.2,4.2,0,0,1,.705-.563,10.715,10.715,0,0,1,1.818-.922c.222-.09.459-.182.706-.271a44.968,44.968,0,0,1,7.88-1.866v-.713a45.529,45.529,0,0,0-7.748,1.824c-.249.088-.49.179-.715.27a11.017,11.017,0,0,0-1.838.913,4.376,4.376,0,0,0-.708.55A1.279,1.279,0,0,0,207.118,183.033Z"/>
                    <path id="Path_8686" data-name="Path 8686" d="M207.075,186.295h0a.042.042,0,0,1-.037-.041v-.8l0-.01a1.176,1.176,0,0,1,.316-.456,4.114,4.114,0,0,1,.672-.544,10.228,10.228,0,0,1,1.757-.906c.207-.086.435-.176.678-.266l.006,0a44.479,44.479,0,0,1,8.037-1.916.041.041,0,0,1,.034.009.041.041,0,0,1,.015.032v.8a.041.041,0,0,1-.035.041,44.2,44.2,0,0,0-8.04,1.921c-.223.081-.449.17-.673.263a10.242,10.242,0,0,0-1.717.884,4.209,4.209,0,0,0-.644.513,1.221,1.221,0,0,0-.325.448A.042.042,0,0,1,207.075,186.295Zm.043-.834v.614a1.871,1.871,0,0,1,.263-.319,4.26,4.26,0,0,1,.658-.524,10.255,10.255,0,0,1,1.731-.892c.225-.093.452-.182.676-.264a44.153,44.153,0,0,1,8.02-1.919v-.712a44.221,44.221,0,0,0-7.967,1.9l-.006,0c-.244.09-.473.18-.681.266a10.232,10.232,0,0,0-1.742.9,4.048,4.048,0,0,0-.659.533A1.2,1.2,0,0,0,207.118,185.461Z"/>
                    <path id="Path_8687" data-name="Path 8687" d="M210.587,198.069a.04.04,0,0,1-.036-.022l-.323-.563a.039.039,0,0,1-.006-.028,1.017,1.017,0,0,1,.214-.391,3.167,3.167,0,0,1,.511-.5,7.8,7.8,0,0,1,1.5-.9c.187-.089.394-.182.617-.276a33.949,33.949,0,0,1,6.589-1.811.041.041,0,0,1,.044.021l.323.563a.041.041,0,0,1,0,.039.044.044,0,0,1-.03.023,33.668,33.668,0,0,0-6.6,1.817c-.21.088-.416.181-.615.276a7.577,7.577,0,0,0-1.481.9,2.969,2.969,0,0,0-.49.488.924.924,0,0,0-.183.336.045.045,0,0,1-.035.034Zm-.279-.613.269.468a1.381,1.381,0,0,1,.169-.277,2.939,2.939,0,0,1,.5-.5,7.673,7.673,0,0,1,1.5-.909c.2-.1.408-.189.618-.278a33.584,33.584,0,0,1,6.556-1.81l-.279-.487a33.824,33.824,0,0,0-6.542,1.8c-.222.094-.428.186-.614.275a7.713,7.713,0,0,0-1.487.894,3.025,3.025,0,0,0-.5.487A1.092,1.092,0,0,0,210.308,197.456Z"/>
                    <path id="Path_8688" data-name="Path 8688" d="M211.808,200.219a.04.04,0,0,1-.037-.02l-.323-.564a.044.044,0,0,1-.005-.028,1.011,1.011,0,0,1,.224-.4,3.075,3.075,0,0,1,.5-.487,7.693,7.693,0,0,1,1.5-.9c.2-.1.413-.191.623-.279a33.856,33.856,0,0,1,6.591-1.813.04.04,0,0,1,.043.021l.324.564a.042.042,0,0,1,0,.038.041.041,0,0,1-.03.024,34.018,34.018,0,0,0-6.538,1.793c-.217.09-.426.183-.623.276a7.856,7.856,0,0,0-1.489.887,3.263,3.263,0,0,0-.486.464,1.018,1.018,0,0,0-.23.4.043.043,0,0,1-.035.034Zm-.279-.611.269.467a1.433,1.433,0,0,1,.216-.338,3.241,3.241,0,0,1,.5-.477,7.94,7.94,0,0,1,1.505-.9c.2-.094.408-.188.627-.278a33.9,33.9,0,0,1,6.5-1.787l-.279-.486a33.674,33.674,0,0,0-6.543,1.8c-.209.088-.418.181-.62.277a7.728,7.728,0,0,0-1.482.893,3.037,3.037,0,0,0-.484.474A1.092,1.092,0,0,0,211.529,199.608Z"/>
                    <path id="Path_8689" data-name="Path 8689" d="M218.625,175.894a.04.04,0,0,1-.019,0,42.533,42.533,0,0,0-5.671-2.386c-.232-.074-.452-.14-.652-.195a10.207,10.207,0,0,0-1.75-.351,3.554,3.554,0,0,0-.731,0,.823.823,0,0,0-.295.076.041.041,0,0,1-.051-.007.042.042,0,0,1-.006-.051,2.868,2.868,0,0,0,.127-.576.038.038,0,0,1,.018-.03,1.1,1.1,0,0,1,.48-.1,4.309,4.309,0,0,1,.741.029,11.106,11.106,0,0,1,1.763.378c.206.059.427.127.656.2a43.413,43.413,0,0,1,5.541,2.345.042.042,0,0,1,.023.047l-.133.593a.041.041,0,0,1-.023.028A.037.037,0,0,1,218.625,175.894Zm-8.5-3.04c.127,0,.264.007.412.021a10.344,10.344,0,0,1,1.764.352c.2.057.422.123.655.2a42.634,42.634,0,0,1,5.636,2.368l.114-.508a43.181,43.181,0,0,0-5.5-2.327c-.229-.074-.448-.141-.652-.2a11.135,11.135,0,0,0-1.75-.376,4.238,4.238,0,0,0-.726-.028,1.2,1.2,0,0,0-.424.08,4.71,4.71,0,0,1-.1.49,1.3,1.3,0,0,1,.233-.048A2.668,2.668,0,0,1,210.129,172.854Z"/>
                    <path id="Path_8690" data-name="Path 8690" d="M220.855,171.712a.058.058,0,0,1-.019,0,44.087,44.087,0,0,0-5.392-2.3c-.227-.076-.45-.146-.681-.214a11.477,11.477,0,0,0-1.843-.406,4.117,4.117,0,0,0-.787-.027,1.035,1.035,0,0,0-.4.086.044.044,0,0,1-.052-.008.042.042,0,0,1-.005-.051,2.923,2.923,0,0,0,.127-.576.043.043,0,0,1,.019-.03,1.46,1.46,0,0,1,.722-.106,5.728,5.728,0,0,1,.782.073h.007a13.109,13.109,0,0,1,1.843.45c.224.069.454.144.683.223a46.127,46.127,0,0,1,5.144,2.212.042.042,0,0,1,.022.047l-.133.593a.042.042,0,0,1-.023.029A.058.058,0,0,1,220.855,171.712Zm-8.491-3.04a4.75,4.75,0,0,1,.565.037,11.424,11.424,0,0,1,1.858.409c.232.068.455.138.683.215a44.084,44.084,0,0,1,5.356,2.275l.114-.508a45.821,45.821,0,0,0-5.1-2.193c-.228-.079-.457-.154-.681-.223a12.913,12.913,0,0,0-1.837-.448h-.007a5.563,5.563,0,0,0-.763-.071,1.623,1.623,0,0,0-.66.086,4.94,4.94,0,0,1-.1.49,1.511,1.511,0,0,1,.336-.059C212.2,168.675,212.28,168.672,212.364,168.672Z"/>
                    <path id="Path_8691" data-name="Path 8691" d="M257.721,201.773h-.006a.042.042,0,0,1-.035-.031,2.453,2.453,0,0,0-.261-.547c-.106-.183-.237-.382-.388-.592a14.361,14.361,0,0,0-1.146-1.372c-.139-.149-.293-.31-.474-.493a44.543,44.543,0,0,0-5.2-4.356.04.04,0,0,1-.01-.056l.391-.6a.039.039,0,0,1,.028-.018.041.041,0,0,1,.032.007,42.384,42.384,0,0,1,5.213,4.4c.167.171.326.339.474.5a15.012,15.012,0,0,1,1.153,1.4c.149.208.282.411.4.6a3.174,3.174,0,0,1,.341.706.043.043,0,0,1-.016.045,2.8,2.8,0,0,0-.453.379A.041.041,0,0,1,257.721,201.773Zm-7.431-7.436a44.423,44.423,0,0,1,5.181,4.342c.181.182.337.344.476.494a14.667,14.667,0,0,1,1.152,1.379c.153.213.285.415.393.6a3.194,3.194,0,0,1,.245.494,4.173,4.173,0,0,1,.4-.323,3.462,3.462,0,0,0-.322-.658c-.113-.191-.246-.392-.393-.6a14.965,14.965,0,0,0-1.146-1.393c-.147-.161-.306-.329-.472-.5a42.038,42.038,0,0,0-5.167-4.367Z"/>
                    <path id="Path_8692" data-name="Path 8692" d="M260.4,197.862l-.012,0a.043.043,0,0,1-.03-.044,1.633,1.633,0,0,0-.335-.739c-.116-.18-.265-.385-.442-.608a16.955,16.955,0,0,0-1.26-1.382c-.174-.174-.342-.337-.511-.5a67.907,67.907,0,0,0-5.973-4.9.043.043,0,0,1-.016-.03l-.09-.989a.045.045,0,0,1,.022-.041.041.041,0,0,1,.045,0,67.175,67.175,0,0,1,6.387,5.168c.177.167.352.337.521.5a17.51,17.51,0,0,1,1.283,1.406c.176.219.329.427.456.618.529.8.463,1.1.46,1.113a.04.04,0,0,1-.016.024,2.837,2.837,0,0,0-.453.38A.042.042,0,0,1,260.4,197.862Zm-8.5-8.233a67.951,67.951,0,0,1,5.965,4.9c.17.162.337.325.512.5a16.935,16.935,0,0,1,1.267,1.39,7.433,7.433,0,0,1,.447.615,2.328,2.328,0,0,1,.335.691,4.115,4.115,0,0,1,.4-.319,1.981,1.981,0,0,0-.451-1.034c-.125-.189-.276-.395-.451-.612a17.167,17.167,0,0,0-1.277-1.4c-.168-.167-.342-.336-.519-.5a66.729,66.729,0,0,0-6.3-5.106Z"/>
                    <path id="Path_8693" data-name="Path 8693" d="M215.167,168.686l-.013,0a12.913,12.913,0,0,0-1.837-.448.041.041,0,0,1-.036-.041.065.065,0,0,1,0-.019.057.057,0,0,1,.01-.013h0c.063-.063.687-.637,3.344-1.294l0,0h0c.372-.092.779-.184,1.208-.273.246-.05.506-.1.772-.151a.042.042,0,0,1,.048.032l.127.555a.042.042,0,0,1-.006.033.047.047,0,0,1-.028.018c-.553.1-1.093.206-1.6.326l-.006,0c-.4.094-.79.2-1.174.31-.269.312-.532.631-.781.951A.044.044,0,0,1,215.167,168.686Zm-1.748-.518a13.157,13.157,0,0,1,1.733.427c.247-.315.506-.63.771-.937a.045.045,0,0,1,.022-.016c.389-.113.788-.219,1.187-.313l0,0h0c.5-.119,1.028-.227,1.57-.321l-.108-.473c-.251.047-.5.1-.73.144-.426.088-.83.179-1.2.27l-.006,0A9.342,9.342,0,0,0,213.419,168.168Z"/>
                    <path id="Path_8694" data-name="Path 8694" d="M214.14,168.379l-.037-.075a13.592,13.592,0,0,1,1.842-.661l.024.081A13.729,13.729,0,0,0,214.14,168.379Z"/>
                    <path id="Path_8695" data-name="Path 8695" d="M217.612,169.556l-.018-.082a14.1,14.1,0,0,1,1.448-.212l.089-.01-.126-.479c-.341.032-.644.072-.927.119l-.084.015a3.15,3.15,0,0,0-1.119.331l-.044-.072a3.222,3.222,0,0,1,1.149-.343l.084-.014c.295-.05.612-.09.969-.123a.043.043,0,0,1,.045.031l.146.562a.035.035,0,0,1-.006.034.038.038,0,0,1-.03.018l-.137.015A14.4,14.4,0,0,0,217.612,169.556Z"/>
                    <path id="Path_8696" data-name="Path 8696" d="M263.839,183.9a.043.043,0,0,1-.038-.023,2.1,2.1,0,0,0-.714-.72,6.647,6.647,0,0,0-.691-.41,16.17,16.17,0,0,0-1.8-.78c-.219-.081-.454-.165-.7-.25a68.007,68.007,0,0,0-7.191-1.915.039.039,0,0,1-.033-.038l-.055-.854a.043.043,0,0,1,.015-.034.044.044,0,0,1,.036-.01,68.355,68.355,0,0,1,7.148,1.9c.249.085.49.17.715.254a16.382,16.382,0,0,1,1.84.795,6.9,6.9,0,0,1,.713.423,2.164,2.164,0,0,1,.736.748.043.043,0,0,1,.005.016l.054.853a.044.044,0,0,1-.032.044Zm-11.084-4.174a67.951,67.951,0,0,1,7.17,1.911c.248.085.484.17.7.251a16.37,16.37,0,0,1,1.808.785,6.731,6.731,0,0,1,.7.415,2.556,2.556,0,0,1,.651.6l-.043-.671a2.106,2.106,0,0,0-.705-.709,6.728,6.728,0,0,0-.7-.417,16.359,16.359,0,0,0-1.83-.791c-.225-.083-.465-.169-.713-.253a67.438,67.438,0,0,0-7.085-1.885Z"/>
                    <path id="Path_8697" data-name="Path 8697" d="M263.773,186.189a.043.043,0,0,1-.038-.024,1.981,1.981,0,0,0-.647-.673,6.16,6.16,0,0,0-.656-.4,15.02,15.02,0,0,0-1.725-.768c-.219-.083-.445-.166-.674-.246a66.825,66.825,0,0,0-7.391-1.984.044.044,0,0,1-.034-.039l-.054-.854a.042.042,0,0,1,.014-.034.043.043,0,0,1,.036-.009,66.609,66.609,0,0,1,7.434,2c.241.085.471.17.684.252l.006,0a14.256,14.256,0,0,1,1.754.79,5.672,5.672,0,0,1,.676.428,1.963,1.963,0,0,1,.6.649.047.047,0,0,1,0,.016l.054.853a.041.041,0,0,1-.031.043Zm-11.083-4.174a66.516,66.516,0,0,1,7.371,1.98c.229.081.457.164.676.248a15.029,15.029,0,0,1,1.735.772,6.227,6.227,0,0,1,.665.408,2.464,2.464,0,0,1,.583.553l-.043-.672a1.884,1.884,0,0,0-.569-.61,5.524,5.524,0,0,0-.667-.423,14.351,14.351,0,0,0-1.749-.787l0,0c-.212-.08-.44-.164-.677-.248a66.475,66.475,0,0,0-7.368-1.985Z"/>
                    <path id="Path_8698" data-name="Path 8698" d="M260.547,171.854a.046.046,0,0,1-.03-.011,3.006,3.006,0,0,0-.562-.4,7.615,7.615,0,0,0-1.018-.473l-.006,0a20.233,20.233,0,0,0-2.5-.752c-.316-.077-.642-.151-.969-.22l-.007,0c-1.68-.359-3.144-.556-3.248-.556h0a.038.038,0,0,1-.029-.006.041.041,0,0,1-.019-.043l.121-.63a.042.042,0,0,1,.017-.026,24.333,24.333,0,0,1,2.609.408c.329.064.665.134,1,.208a25.976,25.976,0,0,1,2.555.687c.376.127.717.255,1.012.384l.006,0a4.337,4.337,0,0,1,1.216.732.044.044,0,0,1,.013.039l-.121.63a.041.041,0,0,1-.029.032Zm-1.574-.964a7.582,7.582,0,0,1,1.024.476,3.325,3.325,0,0,1,.522.364l.1-.533a4.368,4.368,0,0,0-1.182-.7l-.006,0c-.291-.127-.627-.254-1-.379a26.065,26.065,0,0,0-2.546-.685c-.332-.073-.667-.143-1-.207-1.325-.26-2.344-.4-2.534-.414l-.106.552c.352.022,1.866.26,3.229.551l.007,0c.326.069.65.142.964.219a20.231,20.231,0,0,1,2.513.758Z"/>
                    <path id="Path_8699" data-name="Path 8699" d="M259.464,169.562a.043.043,0,0,1-.028-.011,3.784,3.784,0,0,0-.955-.608l-.006,0a10.614,10.614,0,0,0-1.119-.447,25.521,25.521,0,0,0-2.806-.758l-.007,0c-.346-.075-.705-.148-1.1-.222-1.316-.25-2.246-.368-2.317-.368a.04.04,0,0,1-.03-.006.044.044,0,0,1-.019-.044l.122-.63a.048.048,0,0,1,.016-.026c.051-.037,1.466.2,1.48.2l.006,0c.377.063.759.133,1.138.207,1.078.211,2.048.442,2.883.687.408.12.785.245,1.12.369a5.433,5.433,0,0,1,1.769.956.043.043,0,0,1,.012.039l-.121.63a.04.04,0,0,1-.028.032Zm-.941-.693a4.08,4.08,0,0,1,.915.57l.1-.534a5.4,5.4,0,0,0-1.724-.922c-.332-.125-.707-.249-1.114-.368-.832-.244-1.8-.475-2.875-.686-.38-.074-.764-.144-1.141-.207h-.006c-.741-.126-1.268-.2-1.4-.207l-.107.551c.3.019,1.441.2,2.291.362.394.075.755.149,1.1.225l.006,0a25.452,25.452,0,0,1,2.81.758,10.866,10.866,0,0,1,1.133.454Z"/>
                  </g>
                  <g id="Group_4949" data-name="Group 4949">
                    <path id="Path_8700" data-name="Path 8700" d="M218.11,164.84v23.2a17.347,17.347,0,0,0,17.347,17.347h0A17.347,17.347,0,0,0,252.8,188.04v-23.2Z" fill="#fff"/>
                    <path id="Path_8701" data-name="Path 8701" d="M218.808,165.538v22.5a16.649,16.649,0,1,0,33.3,0v-22.5Z" fill="#e60000"/>
                    <path id="Path_8702" data-name="Path 8702" d="M235.457,205.431a17.39,17.39,0,0,1-17.39-17.391V164.8h34.78V188.04a17.39,17.39,0,0,1-17.39,17.391Zm-17.3-40.548V188.04a17.3,17.3,0,0,0,34.607,0V164.883Z"/>
                    <path id="Path_8703" data-name="Path 8703" d="M235.457,204.732a16.692,16.692,0,0,1-16.693-16.692V165.494H252.15V188.04a16.692,16.692,0,0,1-16.693,16.692Zm-16.606-39.151V188.04a16.605,16.605,0,1,0,33.211,0V165.581Z"/>
                    <path id="Path_8704" data-name="Path 8704" d="M225.494,172.224V188.04a9.963,9.963,0,1,0,19.925,0V172.224Z" fill="#fff"/>
                    <path id="Path_8705" data-name="Path 8705" d="M235.457,198.046a10,10,0,0,1-10.006-10.006V172.181h20.012V188.04a10.005,10.005,0,0,1-10.006,10.006Zm-9.919-25.778V188.04a9.919,9.919,0,0,0,19.838,0V172.268Z"/>
                    <g id="Group_4927" data-name="Group 4927">
                      <path id="Path_8706" data-name="Path 8706" d="M233.262,174.693v3.485a2.2,2.2,0,0,0,4.39,0v-3.485Zm1.152,4a.461.461,0,1,1,.46-.461A.462.462,0,0,1,234.414,178.7Zm0-2.087a.461.461,0,1,1,.46-.461A.461.461,0,0,1,234.414,176.608Zm1.043,1.043a.461.461,0,1,1,.461-.46A.461.461,0,0,1,235.457,177.651ZM236.5,178.7a.461.461,0,1,1,.461-.461A.461.461,0,0,1,236.5,178.7Zm0-2.087a.461.461,0,1,1,.461-.461A.46.46,0,0,1,236.5,176.608Z" fill="#0437a0"/>
                      <path id="Path_8707" data-name="Path 8707" d="M233.262,189.855v3.484a2.195,2.195,0,0,0,4.39,0v-3.484Zm1.152,4a.461.461,0,1,1,.46-.461A.461.461,0,0,1,234.414,193.856Zm0-2.087a.461.461,0,1,1,.46-.46A.461.461,0,0,1,234.414,191.769Zm1.043,1.044a.461.461,0,1,1,.461-.461A.462.462,0,0,1,235.457,192.813Zm1.043,1.043a.461.461,0,1,1,.461-.461A.46.46,0,0,1,236.5,193.856Zm0-2.087a.461.461,0,1,1,.461-.46A.46.46,0,0,1,236.5,191.769Z" fill="#0437a0"/>
                      <path id="Path_8708" data-name="Path 8708" d="M233.262,182.274v3.484a2.195,2.195,0,0,0,4.39,0v-3.484Zm1.152,4a.461.461,0,1,1,.46-.462A.462.462,0,0,1,234.414,186.276Zm0-2.087a.461.461,0,1,1,.46-.461A.461.461,0,0,1,234.414,184.189Zm1.043,1.043a.461.461,0,1,1,.461-.461A.461.461,0,0,1,235.457,185.232Zm1.043,1.044a.461.461,0,1,1,.461-.462A.461.461,0,0,1,236.5,186.276Zm0-2.087a.461.461,0,1,1,.461-.461A.46.46,0,0,1,236.5,184.189Z" fill="#0437a0"/>
                      <path id="Path_8709" data-name="Path 8709" d="M227.363,182.274v3.484a2.194,2.194,0,1,0,4.389,0v-3.484Zm1.151,4a.461.461,0,1,1,.462-.462A.461.461,0,0,1,228.514,186.276Zm0-2.087a.461.461,0,1,1,.462-.461A.46.46,0,0,1,228.514,184.189Zm1.044,1.043a.461.461,0,1,1,.461-.461A.46.46,0,0,1,229.558,185.232Zm1.044,1.044a.461.461,0,1,1,.46-.462A.462.462,0,0,1,230.6,186.276Zm0-2.087a.461.461,0,1,1,.46-.461A.461.461,0,0,1,230.6,184.189Z" fill="#0437a0"/>
                      <path id="Path_8710" data-name="Path 8710" d="M239.162,182.274v3.484a2.194,2.194,0,1,0,4.389,0v-3.484Zm1.151,4a.461.461,0,1,1,.461-.462A.461.461,0,0,1,240.313,186.276Zm0-2.087a.461.461,0,1,1,.461-.461A.46.46,0,0,1,240.313,184.189Zm1.043,1.043a.461.461,0,1,1,.461-.461A.461.461,0,0,1,241.356,185.232Zm1.043,1.044a.461.461,0,1,1,.462-.462A.461.461,0,0,1,242.4,186.276Zm0-2.087a.461.461,0,1,1,.462-.461A.46.46,0,0,1,242.4,184.189Z" fill="#0437a0"/>
                    </g>
                    <g id="Group_4930" data-name="Group 4930">
                      <g id="Group_4928" data-name="Group 4928">
                        <rect id="Rectangle_638" data-name="Rectangle 638" width="1.23" height="2.026" transform="translate(221.537 166.782)" fill="#ffc400"/>
                        <rect id="Rectangle_639" data-name="Rectangle 639" width="5.165" height="0.317" transform="translate(219.569 168.808)" fill="#ffc400"/>
                        <rect id="Rectangle_640" data-name="Rectangle 640" width="5.456" height="0.317" transform="translate(219.423 171.367)" fill="#ffc400"/>
                        <rect id="Rectangle_641" data-name="Rectangle 641" width="4.896" height="0.441" transform="translate(219.704 169.125)" fill="#ffc400"/>
                        <path id="Path_8711" data-name="Path 8711" d="M224.6,171.367h-4.9l.291-1.8h4.314Z" fill="#ffc400"/>
                        <path id="Path_8712" data-name="Path 8712" d="M223.444,171.367h-2.585v-.013a1.986,1.986,0,0,1,1.035-1.7l.17-.084h.173l.169.084a1.991,1.991,0,0,1,1.037,1.7Z" fill="#ffc400"/>
                        <path id="Path_8713" data-name="Path 8713" d="M222.862,171.367h-1.421a.809.809,0,1,1,1.421,0Z" fill="#ffc400"/>
                        <path id="Path_8714" data-name="Path 8714" d="M222.732,166.086v.284H222.3v-.284H222v.284h-.432v-.284h-.334v.7h1.829v-.7Z" fill="#ffc400"/>
                        <rect id="Rectangle_642" data-name="Rectangle 642" width="0.268" height="0.653" transform="translate(222.017 167.325)" fill="#ffc400"/>
                        <rect id="Rectangle_643" data-name="Rectangle 643" width="1.229" height="1.065" transform="translate(223.066 167.743)" fill="#ffc400"/>
                        <path id="Path_8715" data-name="Path 8715" d="M224.262,167.046v.283h-.432v-.283h-.3v.283H223.1v-.283h-.334v.7H224.6v-.7Z" fill="#ffc400"/>
                        <rect id="Rectangle_644" data-name="Rectangle 644" width="0.269" height="0.348" transform="translate(223.546 168.102)" fill="#ffc400"/>
                        <rect id="Rectangle_645" data-name="Rectangle 645" width="1.229" height="1.065" transform="translate(220.008 167.743)" fill="#ffc400"/>
                        <path id="Path_8716" data-name="Path 8716" d="M220.041,167.046v.283h.433v-.283h.3v.283h.432v-.283h.334v.7h-1.83v-.7Z" fill="#ffc400"/>
                        <rect id="Rectangle_646" data-name="Rectangle 646" width="0.269" height="0.348" transform="translate(220.488 168.102)" fill="#ffc400"/>
                      </g>
                      <g id="Group_4929" data-name="Group 4929">
                        <path id="Path_8717" data-name="Path 8717" d="M222.81,168.852h-1.317v-2.113h1.317Zm-1.229-.088h1.141v-1.938h-1.141Z"/>
                        <path id="Path_8718" data-name="Path 8718" d="M224.778,169.168h-5.253v-.4h5.253Zm-5.166-.086h5.079v-.23h-5.079Z"/>
                        <path id="Path_8719" data-name="Path 8719" d="M224.923,171.728H219.38v-.4h5.543Zm-5.456-.088h5.369v-.229h-5.369Z"/>
                        <path id="Path_8720" data-name="Path 8720" d="M224.643,169.61H219.66v-.528h4.983Zm-4.9-.087h4.809v-.355h-4.809Z"/>
                        <path id="Path_8721" data-name="Path 8721" d="M224.651,171.411h-5l.305-1.888h4.389Zm-4.9-.087h4.794l-.278-1.714h-4.24Z"/>
                        <path id="Path_8722" data-name="Path 8722" d="M223.49,171.411h-2.677l0-.059a2.036,2.036,0,0,1,1.06-1.742l.179-.087h.193l.178.087a2.037,2.037,0,0,1,1.061,1.742Zm-2.586-.087H223.4a1.944,1.944,0,0,0-1.011-1.636l-.16-.078h-.153l-.161.078A1.943,1.943,0,0,0,220.9,171.324Z"/>
                        <path id="Path_8723" data-name="Path 8723" d="M222.906,171.411H221.4v-.045a1.5,1.5,0,0,1,.735-1.234l.019-.009.02.009a1.5,1.5,0,0,1,.735,1.234Zm-1.419-.087h1.329a.752.752,0,1,0-1.329,0Z"/>
                        <path id="Path_8724" data-name="Path 8724" d="M223.11,166.826h-1.916v-.784h.42v.283h.345v-.283h.385v.283h.345v-.283h.421Zm-1.83-.087h1.743v-.609h-.247v.283h-.519v-.283h-.211v.283h-.519v-.283h-.247Z"/>
                        <rect id="Rectangle_647" data-name="Rectangle 647" width="0.268" height="0.653" transform="translate(222.017 167.325)"/>
                        <path id="Path_8725" data-name="Path 8725" d="M224.339,168.852h-1.316V167.7h1.316Zm-1.229-.088h1.141v-.978H223.11Z"/>
                        <path id="Path_8726" data-name="Path 8726" d="M224.639,167.786h-1.917V167h.421v.283h.345V167h.385v.283h.345V167h.421Zm-1.829-.088h1.742v-.608H224.3v.283h-.519v-.283h-.211v.283h-.519v-.283h-.246Z"/>
                        <rect id="Rectangle_648" data-name="Rectangle 648" width="0.269" height="0.348" transform="translate(223.546 168.102)"/>
                        <path id="Path_8727" data-name="Path 8727" d="M221.28,168.852h-1.315V167.7h1.315Zm-1.229-.088h1.143v-.978h-1.143Z"/>
                        <path id="Path_8728" data-name="Path 8728" d="M221.581,167.786h-1.917V167h.422v.283h.344V167h.385v.283h.345V167h.421Zm-1.829-.088h1.741v-.608h-.246v.283h-.519v-.283h-.211v.283H220v-.283h-.246Z"/>
                        <rect id="Rectangle_649" data-name="Rectangle 649" width="0.269" height="0.348" transform="translate(220.488 168.102)"/>
                      </g>
                    </g>
                    <g id="Group_4933" data-name="Group 4933">
                      <g id="Group_4931" data-name="Group 4931">
                        <rect id="Rectangle_650" data-name="Rectangle 650" width="1.23" height="2.026" transform="translate(221.537 180.279)" fill="#ffc400"/>
                        <rect id="Rectangle_651" data-name="Rectangle 651" width="5.165" height="0.317" transform="translate(219.569 182.304)" fill="#ffc400"/>
                        <rect id="Rectangle_652" data-name="Rectangle 652" width="5.456" height="0.317" transform="translate(219.423 184.864)" fill="#ffc400"/>
                        <rect id="Rectangle_653" data-name="Rectangle 653" width="4.896" height="0.441" transform="translate(219.704 182.621)" fill="#ffc400"/>
                        <path id="Path_8729" data-name="Path 8729" d="M224.6,184.864h-4.9l.291-1.8h4.314Z" fill="#ffc400"/>
                        <path id="Path_8730" data-name="Path 8730" d="M223.444,184.864h-2.585v-.014a1.987,1.987,0,0,1,1.035-1.7l.17-.083h.173l.169.083a1.992,1.992,0,0,1,1.037,1.7Z" fill="#ffc400"/>
                        <path id="Path_8731" data-name="Path 8731" d="M222.862,184.864h-1.421a.809.809,0,1,1,1.421,0Z" fill="#ffc400"/>
                        <path id="Path_8732" data-name="Path 8732" d="M222.732,179.582v.284H222.3v-.284H222v.284h-.432v-.284h-.334v.7h1.829v-.7Z" fill="#ffc400"/>
                        <rect id="Rectangle_654" data-name="Rectangle 654" width="0.268" height="0.653" transform="translate(222.017 180.821)" fill="#ffc400"/>
                        <rect id="Rectangle_655" data-name="Rectangle 655" width="1.229" height="1.065" transform="translate(223.066 181.239)" fill="#ffc400"/>
                        <path id="Path_8733" data-name="Path 8733" d="M224.262,180.543v.283h-.432v-.283h-.3v.283H223.1v-.283h-.334v.7H224.6v-.7Z" fill="#ffc400"/>
                        <rect id="Rectangle_656" data-name="Rectangle 656" width="0.269" height="0.348" transform="translate(223.546 181.598)" fill="#ffc400"/>
                        <rect id="Rectangle_657" data-name="Rectangle 657" width="1.229" height="1.065" transform="translate(220.008 181.239)" fill="#ffc400"/>
                        <path id="Path_8734" data-name="Path 8734" d="M220.041,180.543v.283h.433v-.283h.3v.283h.432v-.283h.334v.7h-1.83v-.7Z" fill="#ffc400"/>
                        <rect id="Rectangle_658" data-name="Rectangle 658" width="0.269" height="0.348" transform="translate(220.488 181.598)" fill="#ffc400"/>
                      </g>
                      <g id="Group_4932" data-name="Group 4932">
                        <path id="Path_8735" data-name="Path 8735" d="M222.81,182.348h-1.317v-2.113h1.317Zm-1.229-.087h1.141v-1.938h-1.141Z"/>
                        <path id="Path_8736" data-name="Path 8736" d="M224.778,182.665h-5.253v-.4h5.253Zm-5.166-.087h5.079v-.23h-5.079Z"/>
                        <path id="Path_8737" data-name="Path 8737" d="M224.923,185.224H219.38v-.4h5.543Zm-5.456-.087h5.369v-.23h-5.369Z"/>
                        <path id="Path_8738" data-name="Path 8738" d="M224.643,183.106H219.66v-.528h4.983Zm-4.9-.087h4.809v-.354h-4.809Z"/>
                        <path id="Path_8739" data-name="Path 8739" d="M224.651,184.907h-5l.305-1.888h4.389Zm-4.9-.087h4.794l-.278-1.714h-4.24Z"/>
                        <path id="Path_8740" data-name="Path 8740" d="M223.49,184.907h-2.677l0-.059a2.033,2.033,0,0,1,1.06-1.741l.179-.088h.193l.178.088a2.037,2.037,0,0,1,1.061,1.742Zm-2.586-.087H223.4a1.942,1.942,0,0,0-1.011-1.635l-.16-.079h-.153l-.161.079A1.941,1.941,0,0,0,220.9,184.82Z"/>
                        <path id="Path_8741" data-name="Path 8741" d="M222.906,184.907H221.4v-.045a1.5,1.5,0,0,1,.735-1.233l.019-.01.02.01a1.5,1.5,0,0,1,.735,1.233Zm-1.419-.087h1.329a.752.752,0,1,0-1.329,0Z"/>
                        <path id="Path_8742" data-name="Path 8742" d="M223.11,180.323h-1.916v-.784h.42v.283h.345v-.283h.385v.283h.345v-.283h.421Zm-1.83-.088h1.743v-.609h-.247v.283h-.519v-.283h-.211v.283h-.519v-.283h-.247Z"/>
                        <rect id="Rectangle_659" data-name="Rectangle 659" width="0.268" height="0.653" transform="translate(222.017 180.821)"/>
                        <path id="Path_8743" data-name="Path 8743" d="M224.339,182.348h-1.316V181.2h1.316Zm-1.229-.087h1.141v-.979H223.11Z"/>
                        <path id="Path_8744" data-name="Path 8744" d="M224.639,181.282h-1.917V180.5h.421v.283h.345V180.5h.385v.283h.345V180.5h.421Zm-1.829-.087h1.742v-.609H224.3v.283h-.519v-.283h-.211v.283h-.519v-.283h-.246Z"/>
                        <rect id="Rectangle_660" data-name="Rectangle 660" width="0.269" height="0.348" transform="translate(223.546 181.598)"/>
                        <path id="Path_8745" data-name="Path 8745" d="M221.28,182.348h-1.315V181.2h1.315Zm-1.229-.087h1.143v-.979h-1.143Z"/>
                        <path id="Path_8746" data-name="Path 8746" d="M221.581,181.282h-1.917V180.5h.422v.283h.344V180.5h.385v.283h.345V180.5h.421Zm-1.829-.087h1.741v-.609h-.246v.283h-.519v-.283h-.211v.283H220v-.283h-.246Z"/>
                        <rect id="Rectangle_661" data-name="Rectangle 661" width="0.269" height="0.348" transform="translate(220.488 181.598)"/>
                      </g>
                    </g>
                    <g id="Group_4936" data-name="Group 4936">
                      <g id="Group_4934" data-name="Group 4934">
                        <rect id="Rectangle_662" data-name="Rectangle 662" width="1.229" height="2.025" transform="translate(223.492 195.384) rotate(-44.514)" fill="#ffc400"/>
                        <rect id="Rectangle_663" data-name="Rectangle 663" width="5.166" height="0.317" transform="translate(223.508 198.208) rotate(-44.508)" fill="#ffc400"/>
                        <rect id="Rectangle_664" data-name="Rectangle 664" width="5.455" height="0.317" transform="translate(225.198 200.134) rotate(-44.488)" fill="#ffc400"/>
                        <rect id="Rectangle_665" data-name="Rectangle 665" width="4.896" height="0.441" transform="translate(223.826 198.337) rotate(-44.448)" fill="#ffc400"/>
                        <path id="Path_8747" data-name="Path 8747" d="M228.891,196.507l-3.492,3.432-1.055-1.488,3.077-3.024Z" fill="#ffc400"/>
                        <path id="Path_8748" data-name="Path 8748" d="M228.066,197.316l-1.843,1.813-.009-.01a1.99,1.99,0,0,1-.456-1.942l.063-.178.123-.121.179-.06a2,2,0,0,1,1.934.489Z" fill="#ffc400"/>
                        <path id="Path_8749" data-name="Path 8749" d="M227.651,197.724l-1.013,1a.809.809,0,1,1,1.013-1Z" fill="#ffc400"/>
                        <path id="Path_8750" data-name="Path 8750" d="M223.857,194.049l.2.2-.308.3-.2-.2-.212.209.2.2-.308.3-.2-.2-.238.234.488.5,1.3-1.282-.488-.5Z" fill="#ffc400"/>
                        <path id="Path_8751" data-name="Path 8751" d="M224.864,195.711l-.192.189-.458-.466.192-.188Z" fill="#ffc400"/>
                        <rect id="Rectangle_666" data-name="Rectangle 666" width="1.229" height="1.065" transform="matrix(0.713, -0.701, 0.701, 0.713, 225.256, 194.997)" fill="#ffc400"/>
                        <path id="Path_8752" data-name="Path 8752" d="M225.62,193.662l.2.2-.308.3-.2-.2-.212.209.2.2-.308.3-.2-.2-.238.234.488.5,1.3-1.282-.488-.5Z" fill="#ffc400"/>
                        <rect id="Rectangle_667" data-name="Rectangle 667" width="0.269" height="0.347" transform="matrix(0.713, -0.701, 0.701, 0.713, 225.85, 194.916)" fill="#ffc400"/>
                        <rect id="Rectangle_668" data-name="Rectangle 668" width="1.229" height="1.066" transform="translate(223.075 197.14) rotate(-44.514)" fill="#ffc400"/>
                        <path id="Path_8753" data-name="Path 8753" d="M222.611,196.62l.2.2.308-.3-.2-.2.212-.208.2.2.308-.3-.2-.2.238-.234.488.5-1.3,1.282-.488-.5Z" fill="#ffc400"/>
                        <rect id="Rectangle_669" data-name="Rectangle 669" width="0.269" height="0.348" transform="translate(223.669 197.059) rotate(-44.502)" fill="#ffc400"/>
                      </g>
                      <g id="Group_4935" data-name="Group 4935">
                        <path id="Path_8754" data-name="Path 8754" d="M225.851,195.967l-.939.923-1.482-1.507.94-.923Zm-.938.8.814-.8-1.359-1.383-.814.8Z"/>
                        <path id="Path_8755" data-name="Path 8755" d="M227.477,194.813,223.73,198.5l-.283-.289,3.746-3.682Zm-3.745,3.559,3.621-3.56-.16-.163-3.622,3.56Z"/>
                        <path id="Path_8756" data-name="Path 8756" d="M229.374,196.537l-3.953,3.885-.284-.287,3.953-3.886Zm-3.952,3.762,3.828-3.763-.16-.164-3.829,3.763Z"/>
                        <path id="Path_8757" data-name="Path 8757" d="M227.69,195.223l-3.554,3.493-.371-.377,3.554-3.493Zm-3.553,3.37,3.429-3.371-.248-.253-3.429,3.371Z"/>
                        <path id="Path_8758" data-name="Path 8758" d="M228.958,196.5l-3.565,3.5-1.106-1.561,3.13-3.076Zm-3.553,3.371,3.418-3.361-1.4-1.028-3.024,2.973Z"/>
                        <path id="Path_8759" data-name="Path 8759" d="M228.13,197.316l-1.909,1.875-.04-.043a2.036,2.036,0,0,1-.464-1.985l.066-.188.138-.136.188-.062a2.037,2.037,0,0,1,1.978.5Zm-1.9,1.75L228,197.317a1.941,1.941,0,0,0-1.867-.457l-.169.056-.11.107-.059.168A1.94,1.94,0,0,0,226.225,199.066Z"/>
                        <path id="Path_8760" data-name="Path 8760" d="M227.714,197.724l-1.077,1.059-.031-.033a1.5,1.5,0,0,1-.341-1.394l.008-.021.02-.007a1.5,1.5,0,0,1,1.389.365Zm-1.073.933.947-.931a.752.752,0,1,0-.947.931Z"/>
                        <path id="Path_8761" data-name="Path 8761" d="M224.645,194.312l-1.367,1.344-.549-.559.3-.295.2.2.246-.242-.2-.2.274-.27.2.2.246-.242-.2-.2.3-.295Zm-1.366,1.22,1.242-1.221-.426-.434-.177.173.2.2-.37.363-.2-.2-.15.147.2.2-.371.365-.2-.2-.176.173Z"/>
                        <path id="Path_8762" data-name="Path 8762" d="M224.864,195.711l-.192.189-.458-.466.192-.188Z"/>
                        <path id="Path_8763" data-name="Path 8763" d="M226.942,194.9l-.94.923-.808-.822.939-.923Zm-.938.8.814-.8-.686-.7-.814.8Z"/>
                        <path id="Path_8764" data-name="Path 8764" d="M226.408,193.925l-1.367,1.343-.549-.558.3-.3.2.2.246-.242-.2-.2.275-.27.2.2.246-.242-.2-.2.3-.295Zm-1.366,1.22,1.243-1.221-.427-.435-.176.173.2.2-.371.363-.2-.2-.15.147.2.2-.37.364-.2-.2-.176.173Z"/>
                        <rect id="Rectangle_670" data-name="Rectangle 670" width="0.269" height="0.347" transform="matrix(0.713, -0.701, 0.701, 0.713, 225.85, 194.916)"/>
                        <path id="Path_8765" data-name="Path 8765" d="M224.76,197.039l-.938.923-.809-.823.939-.922Zm-.937.8.814-.8-.686-.7-.814.8Z"/>
                        <path id="Path_8766" data-name="Path 8766" d="M224.227,196.069l-1.367,1.343-.548-.558.3-.295.2.2.246-.241-.2-.2.274-.269.2.2.247-.242-.2-.2.3-.295Zm-1.365,1.22,1.242-1.222-.427-.433-.176.172.2.2-.37.364-.2-.2-.15.148.2.2-.37.364-.2-.2-.177.172Z"/>
                        <rect id="Rectangle_671" data-name="Rectangle 671" width="0.269" height="0.348" transform="translate(223.669 197.059) rotate(-44.502)"/>
                      </g>
                    </g>
                    <g id="Group_4939" data-name="Group 4939">
                      <g id="Group_4937" data-name="Group 4937">
                        <rect id="Rectangle_672" data-name="Rectangle 672" width="2.026" height="1.229" transform="matrix(0.701, -0.713, 0.713, 0.701, 245.125, 195.967)" fill="#ffc400"/>
                        <path id="Path_8767" data-name="Path 8767" d="M243.5,194.813l3.684,3.621.222-.226-3.684-3.621Z" fill="#ffc400"/>
                        <rect id="Rectangle_673" data-name="Rectangle 673" width="0.317" height="5.455" transform="translate(241.599 196.54) rotate(-45.603)" fill="#ffc400"/>
                        <rect id="Rectangle_674" data-name="Rectangle 674" width="0.441" height="4.896" transform="translate(243.286 195.222) rotate(-45.487)" fill="#ffc400"/>
                        <path id="Path_8768" data-name="Path 8768" d="M242.024,196.507l3.492,3.432,1.055-1.488-3.077-3.024Z" fill="#ffc400"/>
                        <path id="Path_8769" data-name="Path 8769" d="M242.848,197.316l1.843,1.813.009-.01a1.99,1.99,0,0,0,.456-1.942l-.063-.178-.123-.121-.179-.06a2,2,0,0,0-1.934.489Z" fill="#ffc400"/>
                        <path id="Path_8770" data-name="Path 8770" d="M243.262,197.724l1.014,1a.809.809,0,1,0-1.014-1Z" fill="#ffc400"/>
                        <path id="Path_8771" data-name="Path 8771" d="M247.057,194.049l-.2.2.308.3.2-.2.212.209-.2.2.308.3.2-.2.238.234-.488.5-1.3-1.282.488-.5Z" fill="#ffc400"/>
                        <rect id="Rectangle_675" data-name="Rectangle 675" width="0.653" height="0.269" transform="translate(246.049 195.711) rotate(-45.496)" fill="#ffc400"/>
                        <rect id="Rectangle_676" data-name="Rectangle 676" width="1.065" height="1.229" transform="translate(244.035 194.895) rotate(-45.486)" fill="#ffc400"/>
                        <path id="Path_8772" data-name="Path 8772" d="M245.294,193.662l-.2.2.308.3.2-.2.212.209-.2.2.308.3.2-.2.238.234-.488.5-1.3-1.282.488-.5Z" fill="#ffc400"/>
                        <rect id="Rectangle_677" data-name="Rectangle 677" width="0.347" height="0.269" transform="translate(244.629 194.975) rotate(-45.498)" fill="#ffc400"/>
                        <rect id="Rectangle_678" data-name="Rectangle 678" width="1.066" height="1.229" transform="translate(246.215 197.038) rotate(-45.486)" fill="#ffc400"/>
                        <path id="Path_8773" data-name="Path 8773" d="M248.3,196.62l-.2.2-.308-.3.2-.2-.212-.208-.2.2-.308-.3.2-.2-.238-.234-.489.5,1.3,1.282.488-.5Z" fill="#ffc400"/>
                        <rect id="Rectangle_679" data-name="Rectangle 679" width="0.348" height="0.269" transform="translate(246.81 197.119) rotate(-45.498)" fill="#ffc400"/>
                      </g>
                      <g id="Group_4938" data-name="Group 4938">
                        <path id="Path_8774" data-name="Path 8774" d="M246.545,194.46l.938.923L246,196.89l-.939-.923Zm.815.924-.814-.8-1.359,1.383.814.8Z"/>
                        <path id="Path_8775" data-name="Path 8775" d="M243.721,194.525l3.746,3.682-.284.289-3.746-3.683Zm3.623,3.684-3.622-3.56-.161.163,3.622,3.56Z"/>
                        <path id="Path_8776" data-name="Path 8776" d="M241.824,196.249l3.953,3.886-.284.287-3.953-3.885Zm3.83,3.886-3.829-3.763-.161.164,3.829,3.763Z"/>
                        <path id="Path_8777" data-name="Path 8777" d="M243.6,194.846l3.554,3.493-.371.377-3.554-3.493Zm3.43,3.494-3.429-3.371-.248.253,3.429,3.371Z"/>
                        <path id="Path_8778" data-name="Path 8778" d="M243.5,195.369l3.13,3.076-1.106,1.561-3.564-3.5Zm3.016,3.087-3.024-2.973-1.4,1.028,3.418,3.361Z"/>
                        <path id="Path_8779" data-name="Path 8779" d="M242.827,197.276a2.036,2.036,0,0,1,1.977-.5l.189.062.138.136.067.188a2.033,2.033,0,0,1-.466,1.985l-.039.043-1.909-1.875Zm2.289-.085-.06-.168-.109-.107-.17-.056a1.938,1.938,0,0,0-1.866.457l1.779,1.749A1.944,1.944,0,0,0,245.116,197.191Z"/>
                        <path id="Path_8780" data-name="Path 8780" d="M243.232,197.693a1.5,1.5,0,0,1,1.389-.365l.021.007.007.021a1.5,1.5,0,0,1-.341,1.394l-.031.033-1.077-1.059Zm1.341-.289a1.387,1.387,0,0,0-1.246.322l.947.931A1.389,1.389,0,0,0,244.573,197.4Z"/>
                        <path id="Path_8781" data-name="Path 8781" d="M246.819,193.754l.3.295-.2.2.246.242.2-.2.274.27-.2.2.246.242.2-.2.3.295-.549.559-1.366-1.344Zm1.243,1.344-.176-.173-.2.2-.37-.365.2-.2-.15-.147-.2.2-.37-.363.2-.2-.176-.173-.427.434,1.242,1.221Z"/>
                        <rect id="Rectangle_680" data-name="Rectangle 680" width="0.653" height="0.269" transform="translate(246.049 195.711) rotate(-45.496)"/>
                        <path id="Path_8782" data-name="Path 8782" d="M244.781,194.073l.939.923-.808.822-.939-.923Zm.816.924-.815-.8-.686.7.815.8Z"/>
                        <path id="Path_8783" data-name="Path 8783" d="M245.055,193.367l.3.295-.2.2.245.242.2-.2.275.27-.2.2.246.242.2-.2.3.3-.55.558-1.366-1.343Zm1.243,1.344-.175-.173-.2.2-.371-.364.2-.2-.15-.147-.2.2-.371-.363.2-.2-.176-.173-.427.435,1.243,1.221Z"/>
                        <rect id="Rectangle_681" data-name="Rectangle 681" width="0.347" height="0.269" transform="translate(244.629 194.975) rotate(-45.498)"/>
                        <path id="Path_8784" data-name="Path 8784" d="M246.962,196.217l.939.922-.808.823-.94-.923Zm.816.924-.815-.8-.686.7.814.8Z"/>
                        <path id="Path_8785" data-name="Path 8785" d="M247.236,195.51l.3.295-.2.2.245.242.2-.2.275.269-.2.2.246.241.2-.2.3.295-.549.558-1.367-1.343Zm1.243,1.344-.175-.172-.2.2-.37-.364.2-.2-.15-.148-.2.2-.371-.364.2-.2-.176-.172-.427.433,1.243,1.222Z"/>
                        <rect id="Rectangle_682" data-name="Rectangle 682" width="0.348" height="0.269" transform="translate(246.81 197.119) rotate(-45.498)"/>
                      </g>
                    </g>
                    <g id="Group_4942" data-name="Group 4942">
                      <g id="Group_4940" data-name="Group 4940">
                        <rect id="Rectangle_683" data-name="Rectangle 683" width="1.229" height="2.026" transform="translate(248.148 166.782)" fill="#ffc400"/>
                        <rect id="Rectangle_684" data-name="Rectangle 684" width="5.166" height="0.317" transform="translate(246.18 168.808)" fill="#ffc400"/>
                        <rect id="Rectangle_685" data-name="Rectangle 685" width="5.456" height="0.317" transform="translate(246.035 171.367)" fill="#ffc400"/>
                        <rect id="Rectangle_686" data-name="Rectangle 686" width="4.896" height="0.441" transform="translate(246.314 169.125)" fill="#ffc400"/>
                        <path id="Path_8786" data-name="Path 8786" d="M246.314,171.367h4.9l-.291-1.8h-4.314Z" fill="#ffc400"/>
                        <path id="Path_8787" data-name="Path 8787" d="M247.47,171.367h2.585v-.013a1.988,1.988,0,0,0-1.035-1.7l-.17-.084h-.173l-.17.084a1.992,1.992,0,0,0-1.036,1.7Z" fill="#ffc400"/>
                        <path id="Path_8788" data-name="Path 8788" d="M248.052,171.367h1.421a.809.809,0,1,0-1.421,0Z" fill="#ffc400"/>
                        <path id="Path_8789" data-name="Path 8789" d="M248.182,166.086v.284h.432v-.284h.3v.284h.432v-.284h.334v.7h-1.829v-.7Z" fill="#ffc400"/>
                        <rect id="Rectangle_687" data-name="Rectangle 687" width="0.269" height="0.653" transform="translate(248.628 167.325)" fill="#ffc400"/>
                        <rect id="Rectangle_688" data-name="Rectangle 688" width="1.23" height="1.065" transform="translate(246.619 167.743)" fill="#ffc400"/>
                        <path id="Path_8790" data-name="Path 8790" d="M246.653,167.046v.283h.432v-.283h.3v.283h.432v-.283h.334v.7h-1.829v-.7Z" fill="#ffc400"/>
                        <rect id="Rectangle_689" data-name="Rectangle 689" width="0.268" height="0.348" transform="translate(247.099 168.102)" fill="#ffc400"/>
                        <rect id="Rectangle_690" data-name="Rectangle 690" width="1.229" height="1.065" transform="translate(249.677 167.743)" fill="#ffc400"/>
                        <path id="Path_8791" data-name="Path 8791" d="M250.873,167.046v.283h-.433v-.283h-.3v.283h-.432v-.283h-.334v.7h1.829v-.7Z" fill="#ffc400"/>
                        <rect id="Rectangle_691" data-name="Rectangle 691" width="0.269" height="0.348" transform="translate(250.157 168.102)" fill="#ffc400"/>
                      </g>
                      <g id="Group_4941" data-name="Group 4941">
                        <path id="Path_8792" data-name="Path 8792" d="M248.1,166.739h1.316v2.113H248.1Zm1.228.087h-1.142v1.938h1.142Z"/>
                        <path id="Path_8793" data-name="Path 8793" d="M246.136,168.764h5.253v.4h-5.253Zm5.166.088h-5.078v.23H251.3Z"/>
                        <path id="Path_8794" data-name="Path 8794" d="M245.991,171.324h5.543v.4h-5.543Zm5.456.087h-5.368v.229h5.368Z"/>
                        <path id="Path_8795" data-name="Path 8795" d="M246.271,169.082h4.983v.528h-4.983Zm4.9.086h-4.809v.355h4.809Z"/>
                        <path id="Path_8796" data-name="Path 8796" d="M246.568,169.523h4.389l.3,1.888h-5Zm4.315.087h-4.24l-.277,1.714h4.793Z"/>
                        <path id="Path_8797" data-name="Path 8797" d="M247.427,171.352a2.037,2.037,0,0,1,1.061-1.742l.178-.087h.194l.178.087a2.036,2.036,0,0,1,1.06,1.742l0,.059h-2.677ZM249,169.688l-.161-.078h-.153l-.16.078a1.946,1.946,0,0,0-1.011,1.636h2.495A1.945,1.945,0,0,0,249,169.688Z"/>
                        <path id="Path_8798" data-name="Path 8798" d="M248.008,171.366a1.5,1.5,0,0,1,.735-1.234l.02-.009.018.009a1.5,1.5,0,0,1,.735,1.234l0,.045h-1.511Zm.755-1.146a1.386,1.386,0,0,0-.664,1.1h1.327A1.387,1.387,0,0,0,248.763,170.22Z"/>
                        <path id="Path_8799" data-name="Path 8799" d="M247.8,166.042h.421v.283h.345v-.283h.385v.283h.345v-.283h.421v.784H247.8Zm1.83.088h-.247v.283h-.519v-.283h-.211v.283h-.519v-.283h-.246v.609h1.742Z"/>
                        <rect id="Rectangle_692" data-name="Rectangle 692" width="0.269" height="0.653" transform="translate(248.628 167.325)"/>
                        <path id="Path_8800" data-name="Path 8800" d="M246.575,167.7h1.317v1.154h-1.317Zm1.229.088h-1.141v.978H247.8Z"/>
                        <path id="Path_8801" data-name="Path 8801" d="M246.276,167h.42v.283h.345V167h.385v.283h.345V167h.42v.783h-1.915Zm1.829.087h-.247v.283h-.519v-.283h-.211v.283h-.519v-.283h-.247v.608H248.1Z"/>
                        <rect id="Rectangle_693" data-name="Rectangle 693" width="0.268" height="0.348" transform="translate(247.099 168.102)"/>
                        <path id="Path_8802" data-name="Path 8802" d="M249.633,167.7h1.317v1.154h-1.317Zm1.23.088h-1.142v.978h1.142Z"/>
                        <path id="Path_8803" data-name="Path 8803" d="M249.333,167h.421v.283h.345V167h.385v.283h.345V167h.421v.783h-1.917Zm1.83.087h-.247v.283H250.4v-.283h-.21v.283h-.52v-.283h-.247v.608h1.743Z"/>
                        <rect id="Rectangle_694" data-name="Rectangle 694" width="0.269" height="0.348" transform="translate(250.157 168.102)"/>
                      </g>
                    </g>
                    <g id="Group_4945" data-name="Group 4945">
                      <g id="Group_4943" data-name="Group 4943">
                        <rect id="Rectangle_695" data-name="Rectangle 695" width="1.229" height="2.026" transform="translate(248.148 180.279)" fill="#ffc400"/>
                        <rect id="Rectangle_696" data-name="Rectangle 696" width="5.166" height="0.317" transform="translate(246.18 182.304)" fill="#ffc400"/>
                        <rect id="Rectangle_697" data-name="Rectangle 697" width="5.456" height="0.317" transform="translate(246.035 184.864)" fill="#ffc400"/>
                        <rect id="Rectangle_698" data-name="Rectangle 698" width="4.896" height="0.441" transform="translate(246.314 182.621)" fill="#ffc400"/>
                        <path id="Path_8804" data-name="Path 8804" d="M246.314,184.864h4.9l-.291-1.8h-4.314Z" fill="#ffc400"/>
                        <path id="Path_8805" data-name="Path 8805" d="M247.47,184.864h2.585v-.014a1.989,1.989,0,0,0-1.035-1.7l-.17-.083h-.173l-.17.083a1.993,1.993,0,0,0-1.036,1.7Z" fill="#ffc400"/>
                        <path id="Path_8806" data-name="Path 8806" d="M248.052,184.864h1.421a.809.809,0,1,0-1.421,0Z" fill="#ffc400"/>
                        <path id="Path_8807" data-name="Path 8807" d="M248.182,179.582v.284h.432v-.284h.3v.284h.432v-.284h.334v.7h-1.829v-.7Z" fill="#ffc400"/>
                        <rect id="Rectangle_699" data-name="Rectangle 699" width="0.269" height="0.653" transform="translate(248.628 180.821)" fill="#ffc400"/>
                        <rect id="Rectangle_700" data-name="Rectangle 700" width="1.23" height="1.065" transform="translate(246.619 181.239)" fill="#ffc400"/>
                        <path id="Path_8808" data-name="Path 8808" d="M246.653,180.543v.283h.432v-.283h.3v.283h.432v-.283h.334v.7h-1.829v-.7Z" fill="#ffc400"/>
                        <rect id="Rectangle_701" data-name="Rectangle 701" width="0.268" height="0.348" transform="translate(247.099 181.598)" fill="#ffc400"/>
                        <rect id="Rectangle_702" data-name="Rectangle 702" width="1.229" height="1.065" transform="translate(249.677 181.239)" fill="#ffc400"/>
                        <path id="Path_8809" data-name="Path 8809" d="M250.873,180.543v.283h-.433v-.283h-.3v.283h-.432v-.283h-.334v.7h1.829v-.7Z" fill="#ffc400"/>
                        <rect id="Rectangle_703" data-name="Rectangle 703" width="0.269" height="0.348" transform="translate(250.157 181.598)" fill="#ffc400"/>
                      </g>
                      <g id="Group_4944" data-name="Group 4944">
                        <path id="Path_8810" data-name="Path 8810" d="M248.1,180.235h1.316v2.113H248.1Zm1.228.088h-1.142v1.938h1.142Z"/>
                        <path id="Path_8811" data-name="Path 8811" d="M246.136,182.261h5.253v.4h-5.253Zm5.166.087h-5.078v.23H251.3Z"/>
                        <path id="Path_8812" data-name="Path 8812" d="M245.991,184.82h5.543v.4h-5.543Zm5.456.087h-5.368v.23h5.368Z"/>
                        <path id="Path_8813" data-name="Path 8813" d="M246.271,182.578h4.983v.528h-4.983Zm4.9.087h-4.809v.354h4.809Z"/>
                        <path id="Path_8814" data-name="Path 8814" d="M246.568,183.019h4.389l.3,1.888h-5Zm4.315.087h-4.24l-.277,1.714h4.793Z"/>
                        <path id="Path_8815" data-name="Path 8815" d="M247.427,184.849a2.037,2.037,0,0,1,1.061-1.742l.178-.088h.194l.178.088a2.033,2.033,0,0,1,1.06,1.741l0,.059h-2.677ZM249,183.185l-.161-.079h-.153l-.16.079a1.945,1.945,0,0,0-1.011,1.635h2.495A1.943,1.943,0,0,0,249,183.185Z"/>
                        <path id="Path_8816" data-name="Path 8816" d="M248.008,184.862a1.5,1.5,0,0,1,.735-1.233l.02-.01.018.01a1.5,1.5,0,0,1,.735,1.233l0,.045h-1.511Zm.755-1.145a1.386,1.386,0,0,0-.664,1.1h1.327A1.387,1.387,0,0,0,248.763,183.717Z"/>
                        <path id="Path_8817" data-name="Path 8817" d="M247.8,179.539h.421v.283h.345v-.283h.385v.283h.345v-.283h.421v.784H247.8Zm1.83.087h-.247v.283h-.519v-.283h-.211v.283h-.519v-.283h-.246v.609h1.742Z"/>
                        <rect id="Rectangle_704" data-name="Rectangle 704" width="0.269" height="0.653" transform="translate(248.628 180.821)"/>
                        <path id="Path_8818" data-name="Path 8818" d="M246.575,181.2h1.317v1.153h-1.317Zm1.229.087h-1.141v.979H247.8Z"/>
                        <path id="Path_8819" data-name="Path 8819" d="M246.276,180.5h.42v.283h.345V180.5h.385v.283h.345V180.5h.42v.783h-1.915Zm1.829.087h-.247v.283h-.519v-.283h-.211v.283h-.519v-.283h-.247v.609H248.1Z"/>
                        <rect id="Rectangle_705" data-name="Rectangle 705" width="0.268" height="0.348" transform="translate(247.099 181.598)"/>
                        <path id="Path_8820" data-name="Path 8820" d="M249.633,181.2h1.317v1.153h-1.317Zm1.23.087h-1.142v.979h1.142Z"/>
                        <path id="Path_8821" data-name="Path 8821" d="M249.333,180.5h.421v.283h.345V180.5h.385v.283h.345V180.5h.421v.783h-1.917Zm1.83.087h-.247v.283H250.4v-.283h-.21v.283h-.52v-.283h-.247v.609h1.743Z"/>
                        <rect id="Rectangle_706" data-name="Rectangle 706" width="0.269" height="0.348" transform="translate(250.157 181.598)"/>
                      </g>
                    </g>
                    <g id="Group_4948" data-name="Group 4948">
                      <g id="Group_4946" data-name="Group 4946">
                        <rect id="Rectangle_707" data-name="Rectangle 707" width="1.229" height="2.026" transform="translate(234.842 166.782)" fill="#ffc400"/>
                        <rect id="Rectangle_708" data-name="Rectangle 708" width="5.166" height="0.317" transform="translate(232.874 168.808)" fill="#ffc400"/>
                        <rect id="Rectangle_709" data-name="Rectangle 709" width="5.456" height="0.317" transform="translate(232.729 171.367)" fill="#ffc400"/>
                        <rect id="Rectangle_710" data-name="Rectangle 710" width="4.896" height="0.441" transform="translate(233.009 169.125)" fill="#ffc400"/>
                        <path id="Path_8822" data-name="Path 8822" d="M233.009,171.367h4.9l-.291-1.8H233.3Z" fill="#ffc400"/>
                        <path id="Path_8823" data-name="Path 8823" d="M234.164,171.367h2.585v-.013a1.99,1.99,0,0,0-1.036-1.7l-.17-.084h-.173l-.169.084a1.988,1.988,0,0,0-1.036,1.7Z" fill="#ffc400"/>
                        <path id="Path_8824" data-name="Path 8824" d="M234.746,171.367h1.421a.809.809,0,1,0-1.421,0Z" fill="#ffc400"/>
                        <path id="Path_8825" data-name="Path 8825" d="M234.876,166.086v.284h.433v-.284h.3v.284h.432v-.284h.334v.7h-1.83v-.7Z" fill="#ffc400"/>
                        <rect id="Rectangle_711" data-name="Rectangle 711" width="0.269" height="0.653" transform="translate(235.322 167.325)" fill="#ffc400"/>
                        <rect id="Rectangle_712" data-name="Rectangle 712" width="1.229" height="1.065" transform="translate(233.313 167.743)" fill="#ffc400"/>
                        <path id="Path_8826" data-name="Path 8826" d="M233.347,167.046v.283h.432v-.283h.3v.283h.432v-.283h.334v.7h-1.829v-.7Z" fill="#ffc400"/>
                        <rect id="Rectangle_713" data-name="Rectangle 713" width="0.269" height="0.348" transform="translate(233.793 168.102)" fill="#ffc400"/>
                        <rect id="Rectangle_714" data-name="Rectangle 714" width="1.229" height="1.065" transform="translate(236.371 167.743)" fill="#ffc400"/>
                        <path id="Path_8827" data-name="Path 8827" d="M237.567,167.046v.283h-.432v-.283h-.3v.283H236.4v-.283h-.334v.7H237.9v-.7Z" fill="#ffc400"/>
                        <rect id="Rectangle_715" data-name="Rectangle 715" width="0.268" height="0.348" transform="translate(236.852 168.102)" fill="#ffc400"/>
                      </g>
                      <g id="Group_4947" data-name="Group 4947">
                        <path id="Path_8828" data-name="Path 8828" d="M234.8,166.739h1.316v2.113H234.8Zm1.229.087h-1.142v1.938h1.142Z"/>
                        <path id="Path_8829" data-name="Path 8829" d="M232.83,168.764h5.253v.4H232.83Zm5.166.088h-5.079v.23H238Z"/>
                        <path id="Path_8830" data-name="Path 8830" d="M232.686,171.324h5.543v.4h-5.543Zm5.455.087h-5.368v.229h5.368Z"/>
                        <path id="Path_8831" data-name="Path 8831" d="M232.965,169.082h4.983v.528h-4.983Zm4.9.086h-4.808v.355h4.808Z"/>
                        <path id="Path_8832" data-name="Path 8832" d="M233.262,169.523h4.389l.3,1.888h-5Zm4.315.087h-4.241l-.276,1.714h4.794Z"/>
                        <path id="Path_8833" data-name="Path 8833" d="M234.121,171.352a2.038,2.038,0,0,1,1.06-1.742l.179-.087h.193l.179.087a2.034,2.034,0,0,1,1.06,1.742l0,.059h-2.676Zm1.573-1.664-.161-.078h-.153l-.16.078a1.945,1.945,0,0,0-1.01,1.636H236.7A1.94,1.94,0,0,0,235.694,169.688Z"/>
                        <path id="Path_8834" data-name="Path 8834" d="M234.7,171.366a1.5,1.5,0,0,1,.735-1.234l.018-.009.02.009a1.5,1.5,0,0,1,.735,1.234v.045H234.7Zm.753-1.146a1.387,1.387,0,0,0-.663,1.1h1.328A1.39,1.39,0,0,0,235.456,170.22Z"/>
                        <path id="Path_8835" data-name="Path 8835" d="M234.5,166.042h.421v.283h.344v-.283h.385v.283h.345v-.283h.421v.784H234.5Zm1.829.088h-.247v.283h-.519v-.283h-.21v.283h-.52v-.283h-.246v.609h1.742Z"/>
                        <rect id="Rectangle_716" data-name="Rectangle 716" width="0.269" height="0.653" transform="translate(235.322 167.325)"/>
                        <path id="Path_8836" data-name="Path 8836" d="M233.27,167.7h1.316v1.154H233.27Zm1.229.088h-1.142v.978H234.5Z"/>
                        <path id="Path_8837" data-name="Path 8837" d="M232.969,167h.422v.283h.345V167h.384v.283h.345V167h.421v.783h-1.917Zm1.83.087h-.247v.283h-.519v-.283h-.211v.283H233.3v-.283h-.246v.608H234.8Z"/>
                        <rect id="Rectangle_717" data-name="Rectangle 717" width="0.269" height="0.348" transform="translate(233.793 168.102)"/>
                        <path id="Path_8838" data-name="Path 8838" d="M236.328,167.7h1.316v1.154h-1.316Zm1.228.088h-1.141v.978h1.141Z"/>
                        <path id="Path_8839" data-name="Path 8839" d="M236.028,167h.42v.283h.345V167h.385v.283h.345V167h.421v.783h-1.916Zm1.829.087h-.246v.283h-.52v-.283h-.211v.283h-.519v-.283h-.246v.608h1.742Z"/>
                        <rect id="Rectangle_718" data-name="Rectangle 718" width="0.268" height="0.348" transform="translate(236.852 168.102)"/>
                      </g>
                    </g>
                  </g>
                </g>
              </g>
            </g>
          </g>
        </g>
      </g>
    </g>
  </g>
</svg>
