<svg xmlns="http://www.w3.org/2000/svg" xmlns:xlink="http://www.w3.org/1999/xlink" width="180.405" height="73.265" viewBox="0 0 180.405 73.265">
  <defs>
    <clipPath id="clip-path">
      <path id="Path_7177" data-name="Path 7177" d="M2646.115-372.206l-17.9-30.259,17.9-30.259H2775.9l17.9,30.259-17.9,30.259Z" transform="translate(-2628.215 432.725)" fill="none"/>
    </clipPath>
  </defs>
  <g id="Group_4553" data-name="Group 4553" transform="translate(-2608.373 449.792)">
    <path id="Path_1751" data-name="Path 1751" d="M2630.045-376.527h137.061l21.672-36.632-21.672-36.633H2630.045l-21.672,36.633Z" transform="translate(0)" fill="#fff"/>
    <path id="Path_1752" data-name="Path 1752" d="M2646.106-432.723h129.786l17.9,30.259-17.9,30.258H2646.106l-17.9-30.258Z" transform="translate(-12.427 -10.695)" fill="#80192e"/>
    <g id="Group_808" data-name="Group 808" transform="translate(2615.782 -443.419)">
      <g id="Group_4552" data-name="Group 4552" transform="translate(0 0)">
        <g id="Group_4551" data-name="Group 4551" clip-path="url(#clip-path)">
          <g id="Group_4549" data-name="Group 4549" transform="translate(-0.376 -0.214)">
            <g id="Group_4539" data-name="Group 4539">
              <path id="Path_7100" data-name="Path 7100" d="M2627.209-301.668H2800.74v-20.71H2627.209v20.71Z" transform="translate(-2627.209 363.798)" fill="#fff"/>
              <path id="Path_7101" data-name="Path 7101" d="M2627.209-377.835H2800.74v20.709H2627.209v-20.709Z" transform="translate(-2627.209 398.546)" fill="#0437a0"/>
              <path id="Path_7102" data-name="Path 7102" d="M2627.209-412.586H2800.74V-433.3H2627.209v20.71Z" transform="translate(-2627.209 433.296)" fill="#e60000"/>
            </g>
            <g id="Group_4548" data-name="Group 4548" transform="translate(35.844 5.339)">
              <g id="Group_4542" data-name="Group 4542" transform="translate(0.55)">
                <g id="Group_4540" data-name="Group 4540" transform="translate(9.435)">
                  <path id="Path_7103" data-name="Path 7103" d="M2752.886-416.381v.631h-.632A.849.849,0,0,1,2752.886-416.381Z" transform="translate(-2751.389 417.358)" fill="#0437a0"/>
                  <path id="Path_7104" data-name="Path 7104" d="M2755.632-415.75H2755v-.631A.852.852,0,0,1,2755.632-415.75Z" transform="translate(-2753.11 417.358)" fill="#0437a0"/>
                  <path id="Path_7105" data-name="Path 7105" d="M2752.886-413.642v.633a.848.848,0,0,1-.632-.633Z" transform="translate(-2751.389 415.642)" fill="#0437a0"/>
                  <path id="Path_7106" data-name="Path 7106" d="M2755.632-413.642a.851.851,0,0,1-.632.633v-.633Z" transform="translate(-2753.11 415.642)" fill="#0437a0"/>
                  <path id="Path_7107" data-name="Path 7107" d="M2753.325-417.389V-417h-1.5v1.628a.389.389,0,0,0-.2-.053.389.389,0,0,0-.2.053V-417h-1.5v-.391h1.5V-419h.393v1.609Z" transform="translate(-2749.937 418.998)" fill="#ffc400"/>
                </g>
                <path id="Path_7108" data-name="Path 7108" d="M2747.821-399.179a2.807,2.807,0,0,1-.242.967.483.483,0,0,0-.378-.181.486.486,0,0,0-.487.486.484.484,0,0,0,.356.467,2.842,2.842,0,0,1-.539.46l.006-.043h-17.024l.006.044a2.908,2.908,0,0,1-.54-.461.484.484,0,0,0,.356-.467.486.486,0,0,0-.487-.486.483.483,0,0,0-.378.181,2.794,2.794,0,0,1-.242-.966,2.875,2.875,0,0,1,2.867-3.074,2.816,2.816,0,0,1,.412.029,3.555,3.555,0,0,1,.426-.473.571.571,0,0,0,.179.292.632.632,0,0,1,.28-.065.635.635,0,0,1,.4.14.587.587,0,0,0,.3-.515.586.586,0,0,0-.163-.406.509.509,0,0,0-.077-.069,3.563,3.563,0,0,1,1.515-.336,3.557,3.557,0,0,1,2.4.928,1.859,1.859,0,0,0,.415.284.209.209,0,0,0,0,.035.842.842,0,0,0,.841.842.842.842,0,0,0,.841-.842.278.278,0,0,0,0-.035,1.858,1.858,0,0,0,.415-.284,3.556,3.556,0,0,1,2.4-.928,3.567,3.567,0,0,1,1.516.336.514.514,0,0,0-.078.069.585.585,0,0,0-.163.406.589.589,0,0,0,.3.515.637.637,0,0,1,.4-.14.631.631,0,0,1,.279.065.57.57,0,0,0,.179-.292,3.54,3.54,0,0,1,.426.473,2.811,2.811,0,0,1,.411-.029A2.874,2.874,0,0,1,2747.821-399.179Z" transform="translate(-2726.896 409.384)" fill="#eba400"/>
                <path id="Path_7109" data-name="Path 7109" d="M2748.7-385.894l-.006.043-.454,2.979h-16.1l-.454-2.978-.006-.043Z" transform="translate(-2729.062 398.255)" fill="#ffc400"/>
                <path id="Path_7110" data-name="Path 7110" d="M2752.374-395.916s.192.422.242.6c0,0-.466.233-1.7-.633a.483.483,0,0,0,.147-.349.485.485,0,0,0-.486-.486.485.485,0,0,0-.485.486.483.483,0,0,0,.146.349c-1.23.866-1.7.633-1.7.633.051-.173.243-.6.243-.6-.212-.008-.527-.519-.527-.519.061-.173.578-.578.578-.578-.243-.142-.223-.659-.223-.659a2.973,2.973,0,0,1,1.368.576,2.341,2.341,0,0,1-.71-1.785s.578,0,.658,0a.838.838,0,0,0,.648.306.839.839,0,0,0,.649-.306c.08,0,.658,0,.658,0a2.34,2.34,0,0,1-.71,1.785,2.974,2.974,0,0,1,1.368-.576s.021.517-.222.659c0,0,.517.4.577.578C2752.9-396.435,2752.586-395.924,2752.374-395.916Z" transform="translate(-2739.452 406.393)" fill="#ffc400"/>
                <path id="Path_7111" data-name="Path 7111" d="M2737.344-382.231a.471.471,0,0,1-.034.178.485.485,0,0,1-.452.309.476.476,0,0,1-.254-.072.485.485,0,0,1-.233-.415.487.487,0,0,1,.487-.486A.487.487,0,0,1,2737.344-382.231Z" transform="translate(-2732.001 396.265)" fill="#0437a0"/>
                <path id="Path_7112" data-name="Path 7112" d="M2747.931-382.231a.471.471,0,0,1-.034.178.485.485,0,0,1-.452.309.472.472,0,0,1-.253-.072.484.484,0,0,1-.234-.415.487.487,0,0,1,.487-.486A.486.486,0,0,1,2747.931-382.231Z" transform="translate(-2738.636 396.265)" fill="#e60000"/>
                <path id="Path_7113" data-name="Path 7113" d="M2769.971-382.231a.471.471,0,0,0,.034.178.485.485,0,0,0,.451.309.474.474,0,0,0,.254-.072.485.485,0,0,0,.233-.415.487.487,0,0,0-.487-.486A.487.487,0,0,0,2769.971-382.231Z" transform="translate(-2753.054 396.265)" fill="#e60000"/>
                <path id="Path_7114" data-name="Path 7114" d="M2759.383-382.231a.471.471,0,0,0,.035.178.485.485,0,0,0,.451.309.474.474,0,0,0,.253-.072.485.485,0,0,0,.233-.415.487.487,0,0,0-.487-.486A.487.487,0,0,0,2759.383-382.231Z" transform="translate(-2746.42 396.265)" fill="#0437a0"/>
                <path id="Path_7115" data-name="Path 7115" d="M2738.818-395.374s.184.358.238.5c0,0-.454.224-1.421-.361a.49.49,0,0,0,.034-.177.487.487,0,0,0-.486-.486.487.487,0,0,0-.487.486.485.485,0,0,0,.234.415c-.634.58-.951.453-.951.453,0-.154.071-.543.071-.543-.168.011-.526-.432-.526-.432a2.1,2.1,0,0,1,.34-.6c-.229-.119-.33-.64-.33-.64.361-.083,1.111.381,1.237.46a3.234,3.234,0,0,1-.953-1.813s.506-.041.575-.053a.936.936,0,0,0,.076.077.636.636,0,0,0,.5.241.638.638,0,0,0,.6-.425c.148-.011.515-.048.515-.048a2.887,2.887,0,0,1-.342,1.932c.069-.074.659-.7,1.037-.686,0,0,.068.516-.111.674a2.467,2.467,0,0,1,.509.5S2738.979-395.4,2738.818-395.374Z" transform="translate(-2731.469 406.038)" fill="#ffc400"/>
                <path id="Path_7116" data-name="Path 7116" d="M2764-395.374s-.184.358-.238.5c0,0,.454.224,1.421-.361a.485.485,0,0,1-.034-.177.487.487,0,0,1,.486-.486.487.487,0,0,1,.487.486.486.486,0,0,1-.234.415c.634.58.951.453.951.453,0-.154-.07-.543-.07-.543.168.011.526-.432.526-.432a2.1,2.1,0,0,0-.341-.6c.229-.119.331-.64.331-.64-.361-.083-1.111.381-1.237.46a3.233,3.233,0,0,0,.954-1.813s-.506-.041-.575-.053a.9.9,0,0,1-.076.077.634.634,0,0,1-.5.241.639.639,0,0,1-.6-.425c-.147-.011-.515-.048-.515-.048a2.887,2.887,0,0,0,.343,1.932c-.069-.074-.659-.7-1.037-.686,0,0-.069.516.11.674a2.485,2.485,0,0,0-.509.5S2763.835-395.4,2764-395.374Z" transform="translate(-2749.085 406.038)" fill="#ffc400"/>
                <g id="Group_4541" data-name="Group 4541" transform="translate(10.288 3.576)">
                  <path id="Path_7117" data-name="Path 7117" d="M2753.9-401.725a.839.839,0,0,1-.193.535.838.838,0,0,1-.648.306.838.838,0,0,1-.649-.306.842.842,0,0,1-.192-.535.209.209,0,0,1,0-.035.822.822,0,0,1,.156-.456.839.839,0,0,1,.683-.35.841.841,0,0,1,.683.35.829.829,0,0,1,.156.456A.209.209,0,0,1,2753.9-401.725Z" transform="translate(-2752.221 405.127)" fill="#fff"/>
                  <path id="Path_7118" data-name="Path 7118" d="M2753.977-403.549a.692.692,0,0,1-.048.259.84.84,0,0,0-.683-.35.84.84,0,0,0-.683.35.7.7,0,0,1-.049-.259.722.722,0,0,1,.176-.473.723.723,0,0,1,.556-.258.724.724,0,0,1,.556.258A.721.721,0,0,1,2753.977-403.549Z" transform="translate(-2752.405 406.201)" fill="#fff"/>
                  <path id="Path_7119" data-name="Path 7119" d="M2754.052-405.374a.608.608,0,0,1-.065.276.726.726,0,0,0-.556-.257.725.725,0,0,0-.556.257.608.608,0,0,1-.065-.276.617.617,0,0,1,.2-.459.618.618,0,0,1,.419-.162.614.614,0,0,1,.418.162A.613.613,0,0,1,2754.052-405.374Z" transform="translate(-2752.589 407.275)" fill="#fff"/>
                  <path id="Path_7120" data-name="Path 7120" d="M2754.127-407.2a.5.5,0,0,1-.092.292.612.612,0,0,0-.419-.163.612.612,0,0,0-.418.163.5.5,0,0,1-.092-.292.507.507,0,0,1,.254-.441.506.506,0,0,1,.256-.069.5.5,0,0,1,.256.069A.507.507,0,0,1,2754.127-407.2Z" transform="translate(-2752.775 408.348)" fill="#fff"/>
                  <path id="Path_7121" data-name="Path 7121" d="M2754.2-409.022a.4.4,0,0,1-.146.308.5.5,0,0,0-.256-.069.5.5,0,0,0-.256.069.4.4,0,0,1-.146-.308.4.4,0,0,1,.2-.349.393.393,0,0,1,.2-.053.389.389,0,0,1,.2.053A.4.4,0,0,1,2754.2-409.022Z" transform="translate(-2752.959 409.423)" fill="#fff"/>
                </g>
                <path id="Path_7122" data-name="Path 7122" d="M2750.232-409.068a.356.356,0,0,1-.355.354.355.355,0,0,1-.34-.255.316.316,0,0,0,.007-.07.352.352,0,0,0-.014-.1h0a.355.355,0,0,1,.347-.283A.355.355,0,0,1,2750.232-409.068Z" transform="translate(-2740.246 412.998)" fill="#fff"/>
                <path id="Path_7123" data-name="Path 7123" d="M2738.955-399.839a.612.612,0,0,1-.039.215.638.638,0,0,1-.6.425.636.636,0,0,1-.5-.241.634.634,0,0,1-.141-.4.642.642,0,0,1,.361-.577.633.633,0,0,1,.28-.065.634.634,0,0,1,.4.14A.638.638,0,0,1,2738.955-399.839Z" transform="translate(-2732.818 407.396)" fill="#fff"/>
                <path id="Path_7124" data-name="Path 7124" d="M2739.289-402.475a.587.587,0,0,1-.3.515.637.637,0,0,0-.4-.14.635.635,0,0,0-.28.065.572.572,0,0,1-.178-.292.549.549,0,0,1-.019-.148.59.59,0,0,1,.543-.589h0l.045,0a.581.581,0,0,1,.35.116.512.512,0,0,1,.077.069A.585.585,0,0,1,2739.289-402.475Z" transform="translate(-2733.091 409.015)" fill="#fff"/>
                <path id="Path_7125" data-name="Path 7125" d="M2740.311-405.136a.59.59,0,0,1-.545.588.578.578,0,0,0-.427-.185l-.045,0h0a.589.589,0,0,1-.162-.4.591.591,0,0,1,.59-.591h0a.588.588,0,0,1,.566.44A.54.54,0,0,1,2740.311-405.136Z" transform="translate(-2733.731 410.683)" fill="#fff"/>
                <path id="Path_7126" data-name="Path 7126" d="M2741.778-406.905a.541.541,0,0,1-.508.54.588.588,0,0,0-.567-.44.521.521,0,0,1-.009-.1.542.542,0,0,1,.542-.542.538.538,0,0,1,.376.153h0a.537.537,0,0,1,.125.185A.527.527,0,0,1,2741.778-406.905Z" transform="translate(-2734.71 411.76)" fill="#fff"/>
                <path id="Path_7127" data-name="Path 7127" d="M2743.992-408.21h0a.456.456,0,0,1-.456.454.446.446,0,0,1-.3-.116.533.533,0,0,0-.125-.185h0a.436.436,0,0,1-.027-.153.454.454,0,0,1,.454-.454.451.451,0,0,1,.385.214h0A.443.443,0,0,1,2743.992-408.21Z" transform="translate(-2736.207 412.523)" fill="#fff"/>
                <path id="Path_7128" data-name="Path 7128" d="M2746.153-408.757a.412.412,0,0,1-.412.412.412.412,0,0,1-.341-.181h0a.441.441,0,0,0-.071-.24h0a.412.412,0,0,1,.412-.4A.412.412,0,0,1,2746.153-408.757Z" transform="translate(-2737.615 412.839)" fill="#fff"/>
                <path id="Path_7129" data-name="Path 7129" d="M2748.278-409.038a.316.316,0,0,1-.007.07.383.383,0,0,1-.377.314.384.384,0,0,1-.385-.384.384.384,0,0,1,.385-.385.384.384,0,0,1,.37.283h0A.37.37,0,0,1,2748.278-409.038Z" transform="translate(-2738.98 412.998)" fill="#fff"/>
                <path id="Path_7130" data-name="Path 7130" d="M2737.563-406.529a.319.319,0,0,1,.318-.318.318.318,0,0,1,.318.318.318.318,0,0,1-.318.318A.319.319,0,0,1,2737.563-406.529Z" transform="translate(-2732.749 411.384)" fill="#fff"/>
                <path id="Path_7131" data-name="Path 7131" d="M2735.393-406.675a.4.4,0,0,1,.405-.405.4.4,0,0,1,.4.405.4.4,0,0,1-.4.405A.405.405,0,0,1,2735.393-406.675Z" transform="translate(-2731.389 411.53)" fill="#fff"/>
                <path id="Path_7132" data-name="Path 7132" d="M2733.222-406.239a.405.405,0,0,1,.405-.406.406.406,0,0,1,.406.406.405.405,0,0,1-.406.405A.405.405,0,0,1,2733.222-406.239Z" transform="translate(-2730.028 411.258)" fill="#fff"/>
                <path id="Path_7133" data-name="Path 7133" d="M2730.927-405.775a.429.429,0,0,1,.429-.429.429.429,0,0,1,.428.429.429.429,0,0,1-.428.428A.429.429,0,0,1,2730.927-405.775Z" transform="translate(-2728.59 410.982)" fill="#fff"/>
                <path id="Path_7134" data-name="Path 7134" d="M2728.609-404.77a.483.483,0,0,1,.482-.482.483.483,0,0,1,.483.482.483.483,0,0,1-.483.482A.482.482,0,0,1,2728.609-404.77Z" transform="translate(-2727.138 410.385)" fill="#fff"/>
                <path id="Path_7135" data-name="Path 7135" d="M2726.806-402.94a.482.482,0,0,1,.482-.482.483.483,0,0,1,.483.482.483.483,0,0,1-.483.482A.483.483,0,0,1,2726.806-402.94Z" transform="translate(-2726.008 409.238)" fill="#fff"/>
                <path id="Path_7136" data-name="Path 7136" d="M2725.017-400.563a.625.625,0,0,1,.625-.625.625.625,0,0,1,.625.625.625.625,0,0,1-.625.625A.625.625,0,0,1,2725.017-400.563Z" transform="translate(-2724.887 407.839)" fill="#fff"/>
                <path id="Path_7137" data-name="Path 7137" d="M2724.67-397.139a.7.7,0,0,1,.7-.7.7.7,0,0,1,.7.7.7.7,0,0,1-.7.7A.7.7,0,0,1,2724.67-397.139Z" transform="translate(-2724.67 405.741)" fill="#fff"/>
                <path id="Path_7138" data-name="Path 7138" d="M2757.536-409.068a.355.355,0,0,0,.355.354.355.355,0,0,0,.34-.255.3.3,0,0,1-.007-.07.39.39,0,0,1,.013-.1h0a.353.353,0,0,0-.346-.283A.355.355,0,0,0,2757.536-409.068Z" transform="translate(-2745.263 412.998)" fill="#fff"/>
                <path id="Path_7139" data-name="Path 7139" d="M2767.841-399.839a.641.641,0,0,0,.641.64.64.64,0,0,0,.641-.64.641.641,0,0,0-.361-.577.631.631,0,0,0-.279-.065.635.635,0,0,0-.4.14A.638.638,0,0,0,2767.841-399.839Z" transform="translate(-2751.72 407.396)" fill="#fff"/>
                <path id="Path_7140" data-name="Path 7140" d="M2768.858-402.475a.569.569,0,0,1-.02.148.573.573,0,0,1-.179.292.632.632,0,0,0-.28-.065.637.637,0,0,0-.4.14.588.588,0,0,1-.3-.515.584.584,0,0,1,.163-.406.539.539,0,0,1,.078-.069.581.581,0,0,1,.349-.116l.045,0h0A.59.59,0,0,1,2768.858-402.475Z" transform="translate(-2751.618 409.015)" fill="#fff"/>
                <path id="Path_7141" data-name="Path 7141" d="M2766.656-405.136a.59.59,0,0,0,.545.588.58.58,0,0,1,.427-.185l.045,0h0a.586.586,0,0,0,.162-.4.59.59,0,0,0-.59-.591h0a.59.59,0,0,0-.567.44A.54.54,0,0,0,2766.656-405.136Z" transform="translate(-2750.977 410.683)" fill="#fff"/>
                <path id="Path_7142" data-name="Path 7142" d="M2765.35-406.905a.54.54,0,0,0,.508.54.588.588,0,0,1,.567-.44.521.521,0,0,0,.01-.1.542.542,0,0,0-.542-.542.538.538,0,0,0-.376.153h0a.523.523,0,0,0-.125.185A.531.531,0,0,0,2765.35-406.905Z" transform="translate(-2750.159 411.76)" fill="#fff"/>
                <path id="Path_7143" data-name="Path 7143" d="M2763.428-408.21h0a.455.455,0,0,0,.455.454.447.447,0,0,0,.3-.116.527.527,0,0,1,.125-.185h0a.447.447,0,0,0,.026-.153.454.454,0,0,0-.455-.454.451.451,0,0,0-.384.214h0A.439.439,0,0,0,2763.428-408.21Z" transform="translate(-2748.955 412.523)" fill="#fff"/>
                <path id="Path_7144" data-name="Path 7144" d="M2761.412-408.757a.411.411,0,0,0,.411.412.412.412,0,0,0,.341-.181h0a.442.442,0,0,1,.07-.24h0a.412.412,0,0,0-.412-.4A.412.412,0,0,0,2761.412-408.757Z" transform="translate(-2747.692 412.839)" fill="#fff"/>
                <path id="Path_7145" data-name="Path 7145" d="M2759.379-409.038a.277.277,0,0,0,.007.07.383.383,0,0,0,.376.314.384.384,0,0,0,.385-.384.384.384,0,0,0-.385-.385.384.384,0,0,0-.37.283h0A.38.38,0,0,0,2759.379-409.038Z" transform="translate(-2746.418 412.998)" fill="#fff"/>
                <circle id="Ellipse_16" data-name="Ellipse 16" cx="0.318" cy="0.318" r="0.318" transform="translate(16.808 4.538)" fill="#fff"/>
                <path id="Path_7146" data-name="Path 7146" d="M2772.194-406.675a.4.4,0,0,0-.405-.405.4.4,0,0,0-.405.405.405.405,0,0,0,.405.405A.405.405,0,0,0,2772.194-406.675Z" transform="translate(-2753.94 411.53)" fill="#fff"/>
                <path id="Path_7147" data-name="Path 7147" d="M2774.365-406.239a.405.405,0,0,0-.406-.406.405.405,0,0,0-.4.406.4.4,0,0,0,.4.405A.4.4,0,0,0,2774.365-406.239Z" transform="translate(-2755.3 411.258)" fill="#fff"/>
                <path id="Path_7148" data-name="Path 7148" d="M2776.582-405.775a.428.428,0,0,0-.428-.429.428.428,0,0,0-.428.429.428.428,0,0,0,.428.428A.428.428,0,0,0,2776.582-405.775Z" transform="translate(-2756.66 410.982)" fill="#fff"/>
                <path id="Path_7149" data-name="Path 7149" d="M2778.718-404.77a.482.482,0,0,0-.482-.482.483.483,0,0,0-.483.482.482.482,0,0,0,.483.482A.482.482,0,0,0,2778.718-404.77Z" transform="translate(-2757.93 410.385)" fill="#fff"/>
                <path id="Path_7150" data-name="Path 7150" d="M2780.521-402.94a.482.482,0,0,0-.482-.482.483.483,0,0,0-.482.482.483.483,0,0,0,.482.482A.482.482,0,0,0,2780.521-402.94Z" transform="translate(-2759.06 409.238)" fill="#fff"/>
                <path id="Path_7151" data-name="Path 7151" d="M2781.832-400.563a.625.625,0,0,0-.626-.625.625.625,0,0,0-.625.625.625.625,0,0,0,.625.625A.625.625,0,0,0,2781.832-400.563Z" transform="translate(-2759.702 407.839)" fill="#fff"/>
                <circle id="Ellipse_17" data-name="Ellipse 17" cx="0.701" cy="0.701" r="0.701" transform="translate(20.856 7.901)" fill="#fff"/>
                <path id="Path_7152" data-name="Path 7152" d="M2729.573-389.079a.485.485,0,0,1-.356.468.476.476,0,0,1-.131.019.486.486,0,0,1-.486-.486.481.481,0,0,1,.108-.3h0a.482.482,0,0,1,.378-.181A.486.486,0,0,1,2729.573-389.079Z" transform="translate(-2727.133 400.556)" fill="#fff"/>
                <path id="Path_7153" data-name="Path 7153" d="M2734.657-389.46a.275.275,0,0,1,.275-.274.275.275,0,0,1,.274.274.274.274,0,0,1-.274.274A.275.275,0,0,1,2734.657-389.46Z" transform="translate(-2730.927 400.662)" fill="#fff"/>
                <path id="Path_7154" data-name="Path 7154" d="M2745.829-390.668a.274.274,0,0,1,.274-.275.275.275,0,0,1,.275.275.275.275,0,0,1-.275.274A.274.274,0,0,1,2745.829-390.668Z" transform="translate(-2737.928 401.419)" fill="#fff"/>
                <path id="Path_7155" data-name="Path 7155" d="M2778.714-389.079a.485.485,0,0,1-.485.486.471.471,0,0,1-.131-.019.485.485,0,0,1-.356-.468.486.486,0,0,1,.487-.486.483.483,0,0,1,.378.181A.481.481,0,0,1,2778.714-389.079Z" transform="translate(-2757.924 400.556)" fill="#fff"/>
                <path id="Path_7156" data-name="Path 7156" d="M2773.368-389.46a.275.275,0,0,0-.275-.274.274.274,0,0,0-.274.274.274.274,0,0,0,.274.274A.275.275,0,0,0,2773.368-389.46Z" transform="translate(-2754.839 400.662)" fill="#fff"/>
                <path id="Path_7157" data-name="Path 7157" d="M2762.2-390.668a.275.275,0,0,0-.274-.275.275.275,0,0,0-.274.275.274.274,0,0,0,.274.274A.274.274,0,0,0,2762.2-390.668Z" transform="translate(-2747.839 401.419)" fill="#fff"/>
                <path id="Path_7158" data-name="Path 7158" d="M2739.636-391.346a.48.48,0,0,1-.034.177.486.486,0,0,1-.452.309.478.478,0,0,1-.253-.072.485.485,0,0,1-.233-.415.487.487,0,0,1,.487-.486A.487.487,0,0,1,2739.636-391.346Z" transform="translate(-2733.438 401.976)" fill="#fff"/>
                <path id="Path_7159" data-name="Path 7159" d="M2768.651-391.345a.486.486,0,0,0-.486-.487.486.486,0,0,0-.486.487.486.486,0,0,0,.486.486A.486.486,0,0,0,2768.651-391.345Z" transform="translate(-2751.618 401.976)" fill="#fff"/>
                <path id="Path_7160" data-name="Path 7160" d="M2754.144-392.792a.482.482,0,0,1-.147.349.486.486,0,0,1-.339.137.488.488,0,0,1-.339-.137.484.484,0,0,1-.147-.349.485.485,0,0,1,.485-.486A.486.486,0,0,1,2754.144-392.792Z" transform="translate(-2742.529 402.882)" fill="#fff"/>
              </g>
              <path id="Path_7161" data-name="Path 7161" d="M2746.513-377.835v19.367a11.691,11.691,0,0,1-11.659,11.656h0a11.692,11.692,0,0,1-11.658-11.656v-19.367Z" transform="translate(-2723.196 393.206)" fill="#e60000"/>
              <g id="Group_4543" data-name="Group 4543" transform="translate(16.33 35.316)">
                <path id="Path_7162" data-name="Path 7162" d="M2772.363-321.487c.023.057.029.085.02.094-.082.081-.178-.358-.686.149a.232.232,0,0,1-.131.072.339.339,0,0,1-.213-.058,5.466,5.466,0,0,0-1.105-.073c.156.378.914.26,1.3.421.587.245.073,1.457.038,1.03-.041-.49-.184.025-.5-.12-.207-.094.01-.227-.274-.422l-.912-.577c.852,1.46,1.146,1.43.858,1.735a.874.874,0,0,1-.381.856c-.2.161.021-.41-.171-.681-1.117.124.525-2.376-2.291-2.416a.362.362,0,0,1-.334-.38c-.227-.267-.718.1-.64-.069.495-1.04,1.957.15,1.982.15a10.383,10.383,0,0,0-1.377-1.522c-.248-1.278-.352-.993.3-1.128,1.325,1.364,1.326,2.193,1.841,2.531C2770.652-321.255,2771.938-322.527,2772.363-321.487Z" transform="translate(-2766.927 324.425)" fill="#ffc400"/>
              </g>
              <path id="Path_7163" data-name="Path 7163" d="M2767.5-312.114c.658-.915-.068-1.218-.3-1.613a.08.08,0,0,0-.138,0c-.236.4-.962.7-.3,1.613-.4-.479-1.554-.441-.858.806.072-.438.614-.543.842.086-.2,0-.223.409,0,.409,0,0-.063.327-.524.178.023.519.724.3.883.681a.034.034,0,0,0,.064,0c.159-.383.86-.162.883-.681-.46.149-.523-.178-.523-.178.221,0,.195-.409,0-.409.243-.671.776-.49.841-.086C2769.111-312.661,2767.835-312.515,2767.5-312.114Z" transform="translate(-2749.812 353.063)" fill="#ffc400"/>
              <g id="Group_4544" data-name="Group 4544" transform="translate(1.575 35.316)">
                <path id="Path_7164" data-name="Path 7164" d="M2727.436-321.487c-.023.057-.029.085-.02.094.082.081.178-.358.685.149a.234.234,0,0,0,.131.072.339.339,0,0,0,.213-.058,5.46,5.46,0,0,1,1.1-.073c-.156.378-.913.26-1.3.421-.588.245-.073,1.457-.038,1.03.041-.49.184.025.5-.12.207-.094-.01-.227.275-.422l.912-.577c-.852,1.46-1.146,1.43-.858,1.735a.876.876,0,0,0,.381.856c.2.161-.021-.41.171-.681,1.117.124-.525-2.376,2.291-2.416a.362.362,0,0,0,.334-.38c.228-.267.718.1.64-.069-.5-1.04-1.957.15-1.983.15a10.386,10.386,0,0,1,1.376-1.522c.248-1.278.352-.993-.3-1.128-1.325,1.364-1.326,2.193-1.841,2.531C2729.146-321.255,2727.861-322.527,2727.436-321.487Z" transform="translate(-2727.413 324.425)" fill="#ffc400"/>
              </g>
              <path id="Path_7165" data-name="Path 7165" d="M2746.845-366.893c0-6.942-2.765-9.333-4.215-8.526-1.082.6,3.355.72-2.476,6.918a3.023,3.023,0,0,1-1.853-3.9.91.91,0,0,0,.01-.288l.537-.884,1.187-1.131c.016-.145.1-.586.155-.875s-.385-.326-.783-.326a5.412,5.412,0,0,0-1.506.444,6.545,6.545,0,0,1-1.467.481c-.276-.008-.3.069-.3.447s.492.3.492.3a8.316,8.316,0,0,0-1.042,3.475,8.311,8.311,0,0,0-1.043-3.475s.5.077.492-.3-.026-.454-.3-.447a6.552,6.552,0,0,1-1.466-.481,5.411,5.411,0,0,0-1.506-.444c-.4,0-.837.037-.782.326s.138.73.155.875l1.187,1.131.537.884a.906.906,0,0,0,.01.288,3.022,3.022,0,0,1-1.852,3.9c-5.832-6.2-1.395-6.315-2.476-6.918-1.45-.807-4.215,1.585-4.215,8.526,0,5.748,1.61,8,.779,12.556,3.742-1.3,5.127-5.662,5.1-6.363a2.692,2.692,0,0,0,.408.932,5.687,5.687,0,0,1-1.95,3.3,3.208,3.208,0,0,0,3.087,1.829,3.475,3.475,0,0,1,.963-2.245,4.216,4.216,0,0,1,.9,1.807c-.841,1.4-2.371,7.521-2.327,7.547a9.822,9.822,0,0,0,4.3.826,9.817,9.817,0,0,0,4.3-.826c.045-.026-1.485-6.151-2.326-7.547a4.218,4.218,0,0,1,.9-1.807,3.475,3.475,0,0,1,.963,2.245,3.207,3.207,0,0,0,3.086-1.829,5.687,5.687,0,0,1-1.949-3.3,2.705,2.705,0,0,0,.408-.932c-.028.7,1.357,5.067,5.1,6.363C2745.236-358.891,2746.845-361.145,2746.845-366.893Z" transform="translate(-2723.903 391.999)" fill="#fff"/>
              <path id="Path_7166" data-name="Path 7166" d="M2736.569-312.114c-.658-.915.067-1.218.3-1.613a.079.079,0,0,1,.138,0c.237.4.962.7.3,1.613.4-.479,1.555-.441.858.806-.072-.438-.614-.543-.842.086.2,0,.224.409,0,.409,0,0,.064.327.524.178-.022.519-.724.3-.883.681a.034.034,0,0,1-.064,0c-.159-.383-.86-.162-.883-.681.46.149.524-.178.524-.178-.221,0-.195-.409,0-.409-.243-.671-.776-.49-.842-.086C2734.955-312.661,2736.231-312.515,2736.569-312.114Z" transform="translate(-2730.89 353.063)" fill="#ffc400"/>
              <g id="Group_4545" data-name="Group 4545" transform="translate(7.099 23.796)">
                <path id="Path_7167" data-name="Path 7167" d="M2742.208-355.274v7.712c0,6.113,9.165,6.08,9.165,0v-7.712Z" transform="translate(-2742.208 355.274)" fill="#e60000"/>
                <path id="Path_7168" data-name="Path 7168" d="M2751.373-350.736h-3.636v-4.538h-1.891v4.538h-3.638v1.891h3.638v5.766a5.136,5.136,0,0,0,1.891,0v-5.762h3.636Z" transform="translate(-2742.208 355.274)" fill="#fff"/>
                <path id="Path_7169" data-name="Path 7169" d="M2744.25-352.839c-.125.953.982,1.013.971.353-.007-.446-.568-.4-.438.008-.471-.222-.079-.869.673-.61.411.142.244.61.1.913a.605.605,0,0,0,0,.532c.148.3.315.771-.1.912-.752.26-1.145-.387-.673-.61-.129.41.431.455.438.008.011-.659-1.1-.6-.971.354.128.983,2.111.853,2.111-.028v-1.8C2746.361-353.7,2744.376-353.809,2744.25-352.839Z" transform="translate(-2743.481 354.177)" fill="#fff"/>
                <path id="Path_7170" data-name="Path 7170" d="M2761.151-352.839c.125.953-.982,1.013-.972.353.008-.446.568-.4.439.008.471-.222.079-.869-.674-.61-.411.142-.244.61-.1.913a.6.6,0,0,1,0,.532c-.148.3-.315.771.1.912.752.26,1.145-.387.674-.61.129.41-.432.455-.439.008-.01-.659,1.1-.6.972.354-.129.983-2.112.853-2.112-.028v-1.8C2759.039-353.7,2761.023-353.809,2761.151-352.839Z" transform="translate(-2752.754 354.177)" fill="#fff"/>
                <path id="Path_7171" data-name="Path 7171" d="M2744.25-334.117c-.125-.953.982-1.013.971-.354-.007.447-.568.4-.438-.008-.471.222-.079.869.673.609.411-.142.244-.609.1-.912a.606.606,0,0,1,0-.532c.148-.3.315-.77-.1-.912-.752-.259-1.145.388-.673.61-.129-.41.431-.455.438-.008.011.659-1.1.6-.971-.354.128-.983,2.111-.853,2.111.029v1.8C2746.361-333.258,2744.376-333.147,2744.25-334.117Z" transform="translate(-2743.481 343.613)" fill="#fff"/>
                <path id="Path_7172" data-name="Path 7172" d="M2761.151-334.117c.125-.953-.982-1.013-.972-.354.008.447.568.4.439-.008.471.222.079.869-.674.609-.411-.142-.244-.609-.1-.912a.6.6,0,0,0,0-.532c-.148-.3-.315-.77.1-.912.752-.259,1.145.388.674.61.129-.41-.432-.455-.439-.008-.01.659,1.1.6.972-.354-.129-.983-2.112-.853-2.112.029v1.8C2759.039-333.258,2761.023-333.147,2761.151-334.117Z" transform="translate(-2752.754 343.613)" fill="#fff"/>
              </g>
              <g id="Group_4546" data-name="Group 4546" transform="translate(14.289 16.325)">
                <path id="Path_7173" data-name="Path 7173" d="M2764.658-373.108a1.34,1.34,0,0,1-1.588.443,5.638,5.638,0,0,0-.995-.231c.606-.539.293-.256.751-.334.123-.021.288-.4.524-.376.567.066.346.871.713.483.915-.964,1.333-1.809.024-1.966-.328-.491-1,.08-.865.349-.367.442-.658.947-1.056,1.355C2759.7-370.85,2764.485-371.9,2764.658-373.108Z" transform="translate(-2761.462 375.281)" fill="#ffc400"/>
              </g>
              <g id="Group_4547" data-name="Group 4547" transform="translate(5.618 16.325)">
                <path id="Path_7174" data-name="Path 7174" d="M2738.5-373.108a1.34,1.34,0,0,0,1.588.443,5.631,5.631,0,0,1,.994-.231c-.606-.539-.294-.256-.751-.334-.124-.021-.288-.4-.524-.376-.567.066-.345.871-.713.483-.916-.964-1.333-1.809-.024-1.966.328-.491,1,.08.865.349.367.442.658.947,1.056,1.355C2743.459-370.85,2738.675-371.9,2738.5-373.108Z" transform="translate(-2738.24 375.281)" fill="#ffc400"/>
              </g>
            </g>
          </g>
        </g>
      </g>
    </g>
  </g>
</svg>
