<svg xmlns="http://www.w3.org/2000/svg" xmlns:xlink="http://www.w3.org/1999/xlink" width="406.202" height="164.965" viewBox="0 0 406.202 164.965">
  <defs>
    <clipPath id="clip-path">
      <path id="Path_8389" data-name="Path 8389" d="M170.162,253.41l-40.3-68.132,40.3-68.132H462.4l40.3,68.132L462.4,253.41Z" fill="none"/>
    </clipPath>
  </defs>
  <g id="Group_840" data-name="Group 840" transform="translate(-113.18 -102.796)">
    <path id="Path_1751" data-name="Path 1751" d="M161.978,267.761H470.585l48.8-82.481-48.8-82.484H161.978l-48.8,82.484Z" fill="#fff"/>
    <path id="Path_1752" data-name="Path 1752" d="M170.162,117.147H462.4l40.3,68.132-40.3,68.13H170.162l-40.3-68.13Z" fill="#80192e"/>
    <g id="Group_808" data-name="Group 808">
      <g id="Group_4866" data-name="Group 4866">
        <g id="Group_4865" data-name="Group 4865" clip-path="url(#clip-path)">
          <g id="Group_4864" data-name="Group 4864">
            <rect id="Rectangle_547" data-name="Rectangle 547" width="372.743" height="34.504" transform="translate(129.91 218.886)" fill="#e60000"/>
            <rect id="Rectangle_548" data-name="Rectangle 548" width="372.743" height="67.215" transform="translate(129.91 151.671)" fill="#ffc400"/>
            <rect id="Rectangle_549" data-name="Rectangle 549" width="372.743" height="34.504" transform="translate(129.91 117.167)" fill="#e60000"/>
            <g id="Group_4863" data-name="Group 4863">
              <path id="Path_8262" data-name="Path 8262" d="M244.644,205.948a12,12,0,0,1-11.992,0,12,12,0,0,0,6-10.386A11.983,11.983,0,0,0,244.644,205.948Z" fill="#fff"/>
              <path id="Path_8263" data-name="Path 8263" d="M250.64,192.413v3.149a11.954,11.954,0,0,1-3.512,8.479,12.091,12.091,0,0,1-2.484,1.907,11.983,11.983,0,0,1-6-10.386v-3.149Z" fill="#e60000"/>
              <rect id="Rectangle_550" data-name="Rectangle 550" width="11.99" height="12.911" transform="translate(226.657 179.502)" fill="#e60000"/>
              <rect id="Rectangle_551" data-name="Rectangle 551" width="11.992" height="12.911" transform="translate(238.648 179.502)" fill="#fff"/>
              <g id="Group_4846" data-name="Group 4846">
                <path id="Path_8264" data-name="Path 8264" d="M238.438,163.47v.674h-.675A.9.9,0,0,1,238.438,163.47Z" fill="#0437a0"/>
                <path id="Path_8265" data-name="Path 8265" d="M239.533,164.144h-.675v-.674A.907.907,0,0,1,239.533,164.144Z" fill="#0437a0"/>
                <path id="Path_8266" data-name="Path 8266" d="M238.438,164.562v.677a.906.906,0,0,1-.675-.677Z" fill="#0437a0"/>
                <path id="Path_8267" data-name="Path 8267" d="M239.533,164.562a.909.909,0,0,1-.675.677v-.677Z" fill="#0437a0"/>
                <path id="Path_8268" data-name="Path 8268" d="M240.457,164.145v.417h-1.6V166.3a.43.43,0,0,0-.421,0v-1.739h-1.6v-.417h1.6v-1.72h.421v1.72Z" fill="#fec552"/>
              </g>
              <g id="Group_4848" data-name="Group 4848">
                <path id="Path_8269" data-name="Path 8269" d="M224.005,185.217a40.56,40.56,0,0,0-3.826,1.753l.04-4.07h3.764Z" fill="#fff"/>
                <path id="Path_8270" data-name="Path 8270" d="M222.2,194.2c-.74.331-1.469.682-2.1,1.026l.021-2.134.025-2.693c.21-.114.433-.231.662-.345,1.023-.515,2.2-1.022,3.23-1.439l.029,3.011.017,1.772C223.486,193.641,222.837,193.915,222.2,194.2Z" fill="#fff"/>
                <path id="Path_8271" data-name="Path 8271" d="M224.179,203.192h-4.157l.045-4.533a39.816,39.816,0,0,1,4.05-1.86Z" fill="#fff"/>
                <rect id="Rectangle_552" data-name="Rectangle 552" width="4.783" height="0.422" transform="translate(219.709 203.735)" fill="#fec552"/>
                <path id="Rectangle_553" data-name="Rectangle 553" d="M.223,0h4.74a.223.223,0,0,1,.223.223v.1a.223.223,0,0,1-.223.223H.224A.224.224,0,0,1,0,.32v-.1A.223.223,0,0,1,.223,0Z" transform="translate(219.508 203.192)" fill="#dbaa47"/>
                <rect id="Rectangle_554" data-name="Rectangle 554" width="5.595" height="1.124" transform="translate(219.303 204.157)" fill="#dbaa47"/>
                <rect id="Rectangle_555" data-name="Rectangle 555" width="4.237" height="0.536" rx="0.22" transform="translate(219.982 182.364)" fill="#fec552"/>
                <rect id="Rectangle_556" data-name="Rectangle 556" width="4.237" height="0.536" rx="0.22" transform="translate(219.982 180.971)" fill="#fec552"/>
                <rect id="Rectangle_557" data-name="Rectangle 557" width="3.764" height="0.857" transform="translate(220.218 181.507)" fill="#dbaa47"/>
                <rect id="Rectangle_558" data-name="Rectangle 558" width="4.807" height="0.763" transform="translate(219.697 179.941)" fill="#fec552"/>
                <rect id="Rectangle_559" data-name="Rectangle 559" width="5.832" height="0.382" transform="translate(219.185 179.56)" fill="#dbaa47"/>
                <path id="Path_8272" data-name="Path 8272" d="M223.983,180.971h-3.764l-.295-.266h4.354Z" fill="#dbaa47"/>
                <path id="Path_8273" data-name="Path 8273" d="M226.657,184.2v3.413s-1.16.412-2.619,1.005c-1.03.417-2.207.924-3.23,1.439-.229.114-.452.231-.662.345l-.071.039c-.066.036-.13.072-.193.109a8.516,8.516,0,0,0-1.052.688l-.063.05-.01.008c-.032.027-.064.054-.093.081s-.08.072-.115.109c-.016.015-.032.031-.046.047a1.423,1.423,0,0,0-.151.187v-3.413a5.633,5.633,0,0,1,1.827-1.336,40.56,40.56,0,0,1,3.826-1.753C225.48,184.618,226.657,184.2,226.657,184.2Z" fill="#e60000"/>
                <path id="Path_8274" data-name="Path 8274" d="M220.146,190.4l-.025,2.693a6,6,0,0,1-1.769-1.375,1.423,1.423,0,0,1,.151-.187c.014-.016.03-.032.046-.047.035-.037.074-.073.115-.109s.061-.054.093-.081l.01-.008.063-.05a8.516,8.516,0,0,1,1.052-.688c.063-.037.127-.073.193-.109Z" fill="#e60000"/>
                <path id="Path_8275" data-name="Path 8275" d="M225.931,192.573v.026l0,.015c-.015.046-.066.09-.167.129-.259.1-.563.215-.9.346l-.034.014-.4.158c-.111.045-.225.09-.342.139l-.017-1.772c.541.239,1.027.446,1.4.6.224.093.427.212.458.324Z" fill="#e60000"/>
                <path id="Path_8276" data-name="Path 8276" d="M225.932,195.546c0,.233-.1.58-.648.793-.349.134-.744.289-1.167.46a39.816,39.816,0,0,0-4.05,1.86,10.571,10.571,0,0,0-1.006.619h0a2.837,2.837,0,0,0-.708.655v-3.414a5.434,5.434,0,0,1,1.748-1.291c.626-.344,1.355-.695,2.1-1.026.642-.287,1.291-.561,1.889-.8.117-.049.231-.094.342-.139l.4-.158.034-.014c.336-.131.64-.247.9-.346.1-.039.152-.083.167-.129l0-.015Z" fill="#e60000"/>
                <path id="Path_8277" data-name="Path 8277" d="M219.131,201.119c.07-.46-.779-1.186-.779-1.186a2.837,2.837,0,0,1,.708-.655h0A1.254,1.254,0,0,1,219.131,201.119Z" fill="#e60000"/>
                <g id="Group_4847" data-name="Group 4847">
                  <path id="Path_8278" data-name="Path 8278" d="M224.487,177.56a1.182,1.182,0,0,1-.13.54h-4.513a1.193,1.193,0,0,1,1.064-1.734,1,1,0,0,1,.533.135h0c.051.028.1.058.154.085a.992.992,0,0,0,.414.112l.09,0,.09,0a1.014,1.014,0,0,0,.416-.114c.052-.026.1-.055.151-.082h0a1.006,1.006,0,0,1,.534-.136A1.193,1.193,0,0,1,224.487,177.56Z" fill="#e60000"/>
                </g>
                <path id="Path_8279" data-name="Path 8279" d="M224.362,178.1H219.84a.661.661,0,0,0-.655-.432v.3a.387.387,0,0,1,.228.135v.276a.684.684,0,0,1,.427.563v.621h4.521v-.622h0a.684.684,0,0,1,.428-.563V178.1a.387.387,0,0,1,.228-.135v-.3A.663.663,0,0,0,224.362,178.1Z" fill="#fec552"/>
                <path id="Path_8280" data-name="Path 8280" d="M222.011,175.427v.289h-.289A.39.39,0,0,1,222.011,175.427Z" fill="#0437a0"/>
                <path id="Path_8281" data-name="Path 8281" d="M222.48,175.716h-.289v-.289A.393.393,0,0,1,222.48,175.716Z" fill="#0437a0"/>
                <path id="Path_8282" data-name="Path 8282" d="M222.011,175.9v.29a.387.387,0,0,1-.289-.29Z" fill="#0437a0"/>
                <path id="Path_8283" data-name="Path 8283" d="M222.48,175.9a.39.39,0,0,1-.289.29v-.29Z" fill="#0437a0"/>
                <path id="Path_8284" data-name="Path 8284" d="M222.876,175.716v.179h-.685v.8l-.09,0-.09,0v-.8h-.686v-.179h.686v-.736h.18v.736Z" fill="#dbaa47"/>
                <path id="Path_8285" data-name="Path 8285" d="M226.907,206.489a2.246,2.246,0,0,1-1-.208,2.224,2.224,0,0,0-1.776,0,2.515,2.515,0,0,1-2,0,2.224,2.224,0,0,0-1.776,0,2.515,2.515,0,0,1-2,0,1.984,1.984,0,0,0-.888-.185V205.8a2.254,2.254,0,0,1,1,.208,2.215,2.215,0,0,0,1.777,0,2.513,2.513,0,0,1,2,0,2.213,2.213,0,0,0,1.776,0,2.515,2.515,0,0,1,2,0,1.987,1.987,0,0,0,.889.186Z" fill="#0437a0"/>
                <path id="Path_8286" data-name="Path 8286" d="M226.907,207.156a2.262,2.262,0,0,1-1-.207,2.213,2.213,0,0,0-1.776,0,2.526,2.526,0,0,1-2,0,2.213,2.213,0,0,0-1.776,0,2.526,2.526,0,0,1-2,0,1.969,1.969,0,0,0-.888-.186v-.295a2.255,2.255,0,0,1,1,.208,2.215,2.215,0,0,0,1.777,0,2.513,2.513,0,0,1,2,0,2.213,2.213,0,0,0,1.776,0,2.515,2.515,0,0,1,2,0,1.974,1.974,0,0,0,.889.186Z" fill="#0437a0"/>
                <path id="Path_8287" data-name="Path 8287" d="M226.907,207.824a2.259,2.259,0,0,1-1-.208,2.224,2.224,0,0,0-1.776,0,2.515,2.515,0,0,1-2,0,2.224,2.224,0,0,0-1.776,0,2.515,2.515,0,0,1-2,0,1.984,1.984,0,0,0-.888-.185v-.295a2.255,2.255,0,0,1,1,.208,2.226,2.226,0,0,0,1.777,0,2.513,2.513,0,0,1,2,0,2.224,2.224,0,0,0,1.776,0,2.515,2.515,0,0,1,2,0,1.989,1.989,0,0,0,.889.185Z" fill="#0437a0"/>
              </g>
              <g id="Group_4850" data-name="Group 4850">
                <path id="Path_8288" data-name="Path 8288" d="M253.42,185.217a40.333,40.333,0,0,1,3.826,1.753l-.039-4.07h-3.764Z" fill="#fff"/>
                <path id="Path_8289" data-name="Path 8289" d="M255.231,194.2c.739.331,1.469.682,2.095,1.026l-.021-2.134-.025-2.693c-.211-.114-.432-.231-.662-.345-1.023-.515-2.2-1.022-3.23-1.439l-.029,3.011-.017,1.772C253.94,193.641,254.589,193.915,255.231,194.2Z" fill="#fff"/>
                <path id="Path_8290" data-name="Path 8290" d="M253.246,203.192H257.4l-.045-4.533a39.735,39.735,0,0,0-4.051-1.86Z" fill="#fff"/>
                <rect id="Rectangle_560" data-name="Rectangle 560" width="4.783" height="0.422" transform="translate(257.717 204.157) rotate(180)" fill="#fec552"/>
                <path id="Rectangle_561" data-name="Rectangle 561" d="M.223,0h4.74a.224.224,0,0,1,.224.224v.1a.223.223,0,0,1-.223.223H.224A.224.224,0,0,1,0,.32v-.1A.223.223,0,0,1,.223,0Z" transform="translate(257.918 203.735) rotate(180)" fill="#dbaa47"/>
                <rect id="Rectangle_562" data-name="Rectangle 562" width="5.595" height="1.124" transform="translate(258.122 205.281) rotate(180)" fill="#dbaa47"/>
                <rect id="Rectangle_563" data-name="Rectangle 563" width="4.237" height="0.536" rx="0.22" transform="translate(257.444 182.9) rotate(180)" fill="#fec552"/>
                <rect id="Rectangle_564" data-name="Rectangle 564" width="4.237" height="0.536" rx="0.22" transform="translate(257.444 181.507) rotate(180)" fill="#fec552"/>
                <rect id="Rectangle_565" data-name="Rectangle 565" width="3.764" height="0.857" transform="translate(257.207 182.364) rotate(180)" fill="#dbaa47"/>
                <rect id="Rectangle_566" data-name="Rectangle 566" width="4.807" height="0.763" transform="translate(257.729 180.705) rotate(180)" fill="#fec552"/>
                <rect id="Rectangle_567" data-name="Rectangle 567" width="5.832" height="0.382" transform="translate(258.241 179.941) rotate(180)" fill="#dbaa47"/>
                <path id="Path_8291" data-name="Path 8291" d="M253.443,180.971h3.764l.3-.266h-4.354Z" fill="#dbaa47"/>
                <path id="Path_8292" data-name="Path 8292" d="M250.768,184.2v3.413s1.16.412,2.62,1.005c1.029.417,2.207.924,3.23,1.439.23.114.451.231.662.345l.07.039c.066.036.132.072.194.109a8.517,8.517,0,0,1,1.052.688l.063.05.009.008c.033.027.064.054.094.081a1.512,1.512,0,0,1,.115.109l.047.047a1.487,1.487,0,0,1,.149.187v-3.413a5.622,5.622,0,0,0-1.827-1.336,40.333,40.333,0,0,0-3.826-1.753C251.946,184.618,250.768,184.2,250.768,184.2Z" fill="#e60000"/>
                <path id="Path_8293" data-name="Path 8293" d="M257.28,190.4l.025,2.693a5.974,5.974,0,0,0,1.768-1.375,1.487,1.487,0,0,0-.149-.187l-.047-.047a1.512,1.512,0,0,0-.115-.109c-.03-.027-.061-.054-.094-.081l-.009-.008-.063-.05a8.517,8.517,0,0,0-1.052-.688c-.062-.037-.128-.073-.194-.109Z" fill="#e60000"/>
                <path id="Path_8294" data-name="Path 8294" d="M251.495,192.573v.026l0,.015c.014.046.066.09.167.129.258.1.563.215.9.346l.035.014.4.158c.111.045.225.09.342.139l.017-1.772c-.541.239-1.026.446-1.4.6-.224.093-.427.212-.458.324Z" fill="#e60000"/>
                <path id="Path_8295" data-name="Path 8295" d="M251.494,195.546c0,.233.1.58.649.793.347.134.743.289,1.165.46a39.735,39.735,0,0,1,4.051,1.86,10.571,10.571,0,0,1,1.006.619h0a2.831,2.831,0,0,1,.707.655v-3.414a5.427,5.427,0,0,0-1.747-1.291c-.626-.344-1.356-.695-2.095-1.026-.642-.287-1.291-.561-1.889-.8-.117-.049-.231-.094-.342-.139l-.4-.158-.035-.014c-.335-.131-.64-.247-.9-.346-.1-.039-.153-.083-.167-.129l0-.015Z" fill="#e60000"/>
                <path id="Path_8296" data-name="Path 8296" d="M258.3,201.119c-.071-.46.778-1.186.778-1.186a2.831,2.831,0,0,0-.707-.655h0A1.255,1.255,0,0,0,258.3,201.119Z" fill="#e60000"/>
                <g id="Group_4849" data-name="Group 4849">
                  <path id="Path_8297" data-name="Path 8297" d="M252.939,177.56a1.182,1.182,0,0,0,.13.54h4.512a1.193,1.193,0,0,0-1.063-1.734,1,1,0,0,0-.533.135h0c-.051.028-.1.058-.154.085a.992.992,0,0,1-.414.112l-.091,0-.089,0a1.024,1.024,0,0,1-.417-.114c-.05-.026-.1-.055-.15-.082h0a1.008,1.008,0,0,0-.534-.136A1.194,1.194,0,0,0,252.939,177.56Z" fill="#e60000"/>
                </g>
                <path id="Path_8298" data-name="Path 8298" d="M253.064,178.1h4.521a.663.663,0,0,1,.656-.432v.3a.383.383,0,0,0-.227.135v.276a.684.684,0,0,0-.429.563v.621h-4.52v-.622h0a.684.684,0,0,0-.428-.563V178.1a.387.387,0,0,0-.228-.135v-.3A.663.663,0,0,1,253.064,178.1Z" fill="#fec552"/>
                <path id="Path_8299" data-name="Path 8299" d="M255.415,175.427v.289h.289A.389.389,0,0,0,255.415,175.427Z" fill="#0437a0"/>
                <path id="Path_8300" data-name="Path 8300" d="M254.946,175.716h.289v-.289A.392.392,0,0,0,254.946,175.716Z" fill="#0437a0"/>
                <path id="Path_8301" data-name="Path 8301" d="M255.415,175.9v.29a.385.385,0,0,0,.289-.29Z" fill="#0437a0"/>
                <path id="Path_8302" data-name="Path 8302" d="M254.946,175.9a.388.388,0,0,0,.289.29v-.29Z" fill="#0437a0"/>
                <path id="Path_8303" data-name="Path 8303" d="M254.55,175.716v.179h.685v.8l.089,0,.091,0v-.8h.685v-.179h-.685v-.736h-.18v.736Z" fill="#dbaa47"/>
                <path id="Path_8304" data-name="Path 8304" d="M250.519,206.489a2.249,2.249,0,0,0,1-.208,2.224,2.224,0,0,1,1.776,0,2.515,2.515,0,0,0,2,0,2.224,2.224,0,0,1,1.776,0,2.515,2.515,0,0,0,2,0,1.983,1.983,0,0,1,.887-.185V205.8a2.253,2.253,0,0,0-1,.208,2.215,2.215,0,0,1-1.777,0,2.515,2.515,0,0,0-2,0,2.213,2.213,0,0,1-1.776,0,2.515,2.515,0,0,0-2,0,1.982,1.982,0,0,1-.888.186Z" fill="#0437a0"/>
                <path id="Path_8305" data-name="Path 8305" d="M250.519,207.156a2.265,2.265,0,0,0,1-.207,2.213,2.213,0,0,1,1.776,0,2.526,2.526,0,0,0,2,0,2.213,2.213,0,0,1,1.776,0,2.526,2.526,0,0,0,2,0,1.967,1.967,0,0,1,.887-.186v-.295a2.253,2.253,0,0,0-1,.208,2.215,2.215,0,0,1-1.777,0,2.515,2.515,0,0,0-2,0,2.213,2.213,0,0,1-1.776,0,2.515,2.515,0,0,0-2,0,1.969,1.969,0,0,1-.888.186Z" fill="#0437a0"/>
                <path id="Path_8306" data-name="Path 8306" d="M250.519,207.824a2.263,2.263,0,0,0,1-.208,2.224,2.224,0,0,1,1.776,0,2.515,2.515,0,0,0,2,0,2.224,2.224,0,0,1,1.776,0,2.515,2.515,0,0,0,2,0,1.983,1.983,0,0,1,.887-.185v-.295a2.253,2.253,0,0,0-1,.208,2.226,2.226,0,0,1-1.777,0,2.515,2.515,0,0,0-2,0,2.224,2.224,0,0,1-1.776,0,2.515,2.515,0,0,0-2,0,1.984,1.984,0,0,1-.888.185Z" fill="#0437a0"/>
              </g>
              <rect id="Rectangle_568" data-name="Rectangle 568" width="15.865" height="0.642" transform="translate(230.716 178.86)" fill="#9a0133"/>
              <path id="Path_8307" data-name="Path 8307" d="M249.113,173.328a3.02,3.02,0,0,1-.258,1.033.519.519,0,1,0-.544.824,3.006,3.006,0,0,1-.576.492l.007-.045H229.555l.007.046a3.053,3.053,0,0,1-.577-.493.519.519,0,1,0-.543-.825,2.954,2.954,0,0,1-.259-1.032,3.07,3.07,0,0,1,3.063-3.284,3.015,3.015,0,0,1,.439.031,3.769,3.769,0,0,1,.456-.5.6.6,0,0,0,.19.311.688.688,0,0,1,.726.081.628.628,0,0,0,.149-.983.517.517,0,0,0-.083-.073,3.824,3.824,0,0,1,4.186.632,1.971,1.971,0,0,0,.442.3.24.24,0,0,0,0,.038.9.9,0,1,0,1.8,0,.242.242,0,0,0,0-.038,1.961,1.961,0,0,0,.444-.3,3.82,3.82,0,0,1,4.184-.632.511.511,0,0,0-.082.073.628.628,0,0,0,.149.983.685.685,0,0,1,.427-.149.676.676,0,0,1,.3.068.605.605,0,0,0,.192-.311,3.824,3.824,0,0,1,.454.5,3.075,3.075,0,0,1,3.5,3.253Z" fill="#e60000"/>
              <path id="Path_8308" data-name="Path 8308" d="M247.742,175.632l-.007.045-.485,3.183h-17.2l-.485-3.182-.007-.047Z" fill="#fec552"/>
              <path id="Path_8309" data-name="Path 8309" d="M240.563,173.618s.205.451.259.636c0,0-.5.249-1.812-.676a.519.519,0,1,0-.724,0c-1.314.925-1.813.676-1.813.676.055-.185.26-.636.26-.636-.227-.008-.563-.555-.563-.555.065-.185.617-.617.617-.617-.259-.151-.238-.7-.238-.7a3.187,3.187,0,0,1,1.462.615,2.5,2.5,0,0,1-.759-1.906s.617,0,.7,0a.9.9,0,0,0,1.386,0c.085,0,.7,0,.7,0a2.5,2.5,0,0,1-.759,1.906,3.187,3.187,0,0,1,1.461-.615s.022.553-.237.7c0,0,.553.432.617.617C241.126,173.063,240.79,173.61,240.563,173.618Z" fill="#fec552"/>
              <path id="Path_8310" data-name="Path 8310" d="M232.465,177.418a.506.506,0,0,1-.036.19.518.518,0,0,1-.483.33.509.509,0,0,1-.27-.076.519.519,0,1,1,.789-.444Z" fill="#fff"/>
              <path id="Path_8311" data-name="Path 8311" d="M236.689,177.418a.526.526,0,0,1-.036.19.519.519,0,0,1-.483.33.506.506,0,0,1-.27-.076.519.519,0,1,1,.789-.444Z" fill="#fff"/>
              <path id="Path_8312" data-name="Path 8312" d="M244.831,177.418a.506.506,0,0,0,.036.19.516.516,0,0,0,.482.33.509.509,0,0,0,.271-.076.519.519,0,1,0-.789-.444Z" fill="#fff"/>
              <path id="Path_8313" data-name="Path 8313" d="M240.607,177.418a.506.506,0,0,0,.036.19.517.517,0,0,0,.482.33.509.509,0,0,0,.271-.076.519.519,0,1,0-.789-.444Z" fill="#fff"/>
              <path id="Path_8314" data-name="Path 8314" d="M234.609,173.818s.2.382.253.539c0,0-.484.24-1.518-.385a.5.5,0,0,0,.036-.19.52.52,0,1,0-.789.443c-.677.619-1.017.484-1.017.484,0-.164.076-.58.076-.58-.18.011-.562-.461-.562-.461a2.243,2.243,0,0,1,.364-.64c-.246-.127-.353-.684-.353-.684.385-.088,1.186.406,1.321.491A3.447,3.447,0,0,1,231.4,170.9s.54-.044.614-.056c.026.029.053.057.08.082a.684.684,0,0,0,1.179-.2c.157-.012.55-.051.55-.051a3.082,3.082,0,0,1-.366,2.063c.073-.079.7-.746,1.107-.732,0,0,.074.551-.117.72a2.652,2.652,0,0,1,.543.539S234.781,173.793,234.609,173.818Z" fill="#fec552"/>
              <path id="Path_8315" data-name="Path 8315" d="M242.687,173.818s-.2.382-.253.539c0,0,.484.24,1.518-.385a.52.52,0,1,1,.753.253c.678.619,1.017.484,1.017.484-.005-.164-.076-.58-.076-.58.18.011.563-.461.563-.461a2.265,2.265,0,0,0-.365-.64c.245-.127.353-.684.353-.684-.385-.088-1.186.406-1.321.491A3.451,3.451,0,0,0,245.9,170.9s-.541-.044-.615-.056a.894.894,0,0,1-.081.082.683.683,0,0,1-1.178-.2c-.158-.012-.549-.051-.549-.051a3.079,3.079,0,0,0,.365,2.063c-.073-.079-.7-.746-1.108-.732,0,0-.073.551.118.72a2.652,2.652,0,0,0-.543.539S242.515,173.793,242.687,173.818Z" fill="#fec552"/>
              <g id="Group_4851" data-name="Group 4851">
                <path id="Path_8316" data-name="Path 8316" d="M227.99,192.413v8.647a11.927,11.927,0,0,1-1.333-5.5v-3.149Z" fill="#fec552"/>
                <path id="Path_8317" data-name="Path 8317" d="M229.322,192.413V203.1a11.984,11.984,0,0,1-1.332-2.04v-8.647Z" fill="#e60000"/>
                <path id="Path_8318" data-name="Path 8318" d="M230.654,192.413V204.5a12.242,12.242,0,0,1-1.332-1.4V192.413Z" fill="#fec552"/>
                <path id="Path_8319" data-name="Path 8319" d="M231.986,192.413v13.121a12.157,12.157,0,0,1-1.332-1.034V192.413Z" fill="#e60000"/>
                <path id="Path_8320" data-name="Path 8320" d="M233.319,192.413v13.12c-.217.145-.44.284-.667.415-.226-.131-.449-.27-.666-.414V192.413Z" fill="#fec552"/>
                <path id="Path_8321" data-name="Path 8321" d="M234.651,192.413V204.5a12.02,12.02,0,0,1-1.332,1.035v-13.12Z" fill="#e60000"/>
                <path id="Path_8322" data-name="Path 8322" d="M235.983,192.413V203.1a11.821,11.821,0,0,1-.847.943c-.157.157-.318.309-.485.457V192.413Z" fill="#fec552"/>
                <path id="Path_8323" data-name="Path 8323" d="M237.316,192.413v8.647a11.934,11.934,0,0,1-1.333,2.038V192.413Z" fill="#e60000"/>
                <path id="Path_8324" data-name="Path 8324" d="M238.648,192.413v3.149a11.938,11.938,0,0,1-1.332,5.5v-8.647Z" fill="#fec552"/>
              </g>
              <path id="Path_8325" data-name="Path 8325" d="M240.292,203.981a1.581,1.581,0,0,1-1.452,1.574c-.042,0-.084,0-.127,0s-.084,0-.127,0a1.579,1.579,0,1,1,1.706-1.574Z" fill="#dbaa47"/>
              <path id="Path_8326" data-name="Path 8326" d="M241,205.092a8.527,8.527,0,0,0-2.162,1.3v-.833c-.042,0-.084,0-.127,0s-.084,0-.127,0v.833a8.5,8.5,0,0,0-2.161-1.3c-.479-.013-1.362.164-1.4.113,0,0,.774,1.083,1.566,1.058s.742-.523,1.994.319v.6h.254v-.6c1.253-.842,1.217-.344,2-.319s1.566-1.058,1.566-1.058C242.363,205.256,241.48,205.079,241,205.092Z" fill="#058139"/>
              <path id="Path_8327" data-name="Path 8327" d="M239.68,193.445v2.117a10.95,10.95,0,0,0,4.882,9.12l.082.055.082-.055a11.151,11.151,0,0,0,1.672-1.371,10.884,10.884,0,0,0,3.209-7.749v-2.117Zm5.111.294H249.1l-4.307,4.2Zm-.294,4.2-4.307-4.2H244.5Zm-4.522-4,4.3,4.194H240.29a10.648,10.648,0,0,1-.315-2.574Zm4.315,4.49-2.754,2.688a10.645,10.645,0,0,1-1.168-2.688Zm-2.592,2.943,2.8-2.732v5.635A10.667,10.667,0,0,1,241.7,201.375Zm4.491,1.727a10.6,10.6,0,0,1-1.4,1.174v-5.633l2.8,2.733A10.791,10.791,0,0,1,246.189,203.1ZM245,198.432h3.926a10.545,10.545,0,0,1-1.171,2.689Zm4-.3h-3.986l4.3-4.194v1.62A10.747,10.747,0,0,1,249,198.136Z" fill="#fec552"/>
              <g id="Group_4860" data-name="Group 4860">
                <g id="Group_4855" data-name="Group 4855">
                  <g id="Group_4852" data-name="Group 4852">
                    <path id="Path_8328" data-name="Path 8328" d="M230.449,182.364v2.753h-.021v.457H229.8v-.457h-.5v.457h-.629v-.457h-.343v-2.753Z" fill="#dbaa47"/>
                    <path id="Path_8329" data-name="Path 8329" d="M230.121,181.549v.382H229.6v-.382h-.422v.382h-.525v-.382h-.577v.815H230.7v-.815Z" fill="#fec552"/>
                  </g>
                  <g id="Group_4853" data-name="Group 4853">
                    <path id="Path_8330" data-name="Path 8330" d="M236.983,182.364v2.753h-.343v.457h-.629v-.457h-.5v.457h-.628v-.457h-.021v-2.753Z" fill="#dbaa47"/>
                    <path id="Path_8331" data-name="Path 8331" d="M236.656,181.549v.382h-.525v-.382h-.422v.382h-.525v-.382h-.577v.815h2.625v-.815Z" fill="#fec552"/>
                  </g>
                  <g id="Group_4854" data-name="Group 4854">
                    <path id="Path_8332" data-name="Path 8332" d="M233.716,181.455v2.671h0v.551h-.757v-.551h-.61v.551h-.757v-.551h0v-2.671Z" fill="#dbaa47"/>
                    <path id="Path_8333" data-name="Path 8333" d="M233.388,180.64v.382h-.525v-.382h-.422v.382h-.525v-.382h-.577v.815h2.625v-.815Z" fill="#fec552"/>
                  </g>
                </g>
                <g id="Group_4859" data-name="Group 4859">
                  <g id="Group_4856" data-name="Group 4856">
                    <rect id="Rectangle_569" data-name="Rectangle 569" width="2.845" height="4.751" transform="translate(228.273 186.094)" fill="#dbaa47"/>
                    <path id="Path_8334" data-name="Path 8334" d="M231.119,185.3v.793h-3.143v-.976h.69v.457h.629v-.457h.5v.457h.628v-.457h.332v.184Z" fill="#fec552"/>
                  </g>
                  <g id="Group_4857" data-name="Group 4857">
                    <rect id="Rectangle_570" data-name="Rectangle 570" width="2.845" height="4.751" transform="translate(234.187 186.094)" fill="#dbaa47"/>
                    <path id="Path_8335" data-name="Path 8335" d="M237.33,185.118v.976h-3.143V185.3h.359v-.184h.332v.457h.628v-.457h.5v.457h.629v-.457Z" fill="#fec552"/>
                  </g>
                  <g id="Group_4858" data-name="Group 4858">
                    <rect id="Rectangle_571" data-name="Rectangle 571" width="3.068" height="5.544" transform="translate(231.119 185.302)" fill="#dbaa47"/>
                    <path id="Path_8336" data-name="Path 8336" d="M234.546,184.126V185.3H230.76v-1.176h.832v.551h.757v-.551h.61v.551h.757v-.551Z" fill="#fec552"/>
                  </g>
                  <rect id="Rectangle_572" data-name="Rectangle 572" width="9.065" height="0.456" transform="translate(228.12 190.845)" fill="#fec552"/>
                </g>
                <rect id="Rectangle_573" data-name="Rectangle 573" width="0.447" height="0.974" transform="translate(229.162 183.152)" fill="#0437a0"/>
                <rect id="Rectangle_574" data-name="Rectangle 574" width="0.447" height="0.974" transform="translate(235.696 183.152)" fill="#0437a0"/>
                <rect id="Rectangle_575" data-name="Rectangle 575" width="0.447" height="0.974" transform="translate(232.429 182.243)" fill="#0437a0"/>
                <rect id="Rectangle_576" data-name="Rectangle 576" width="0.535" height="1.166" transform="translate(229.659 187.451)" fill="#0437a0"/>
                <rect id="Rectangle_577" data-name="Rectangle 577" width="0.535" height="1.166" transform="translate(235.87 187.451)" fill="#0437a0"/>
                <path id="Rectangle_578" data-name="Rectangle 578" d="M.5,0H.715a.5.5,0,0,1,.5.5V2.648a0,0,0,0,1,0,0H0a0,0,0,0,1,0,0V.5A.5.5,0,0,1,.5,0Z" transform="translate(232.046 188.198)" fill="#0437a0"/>
              </g>
              <g id="Group_4861" data-name="Group 4861">
                <path id="Path_8337" data-name="Path 8337" d="M239.546,169.879a.9.9,0,0,1-1.8,0,.24.24,0,0,1,0-.038.887.887,0,0,1,.168-.487.9.9,0,0,1,1.625.487A.242.242,0,0,1,239.546,169.879Z" fill="#fff"/>
                <path id="Path_8338" data-name="Path 8338" d="M239.428,169.078a.724.724,0,0,1-.051.276.9.9,0,0,0-1.458,0,.725.725,0,0,1-.052-.276.78.78,0,1,1,1.561,0Z" fill="#fff"/>
                <path id="Path_8339" data-name="Path 8339" d="M239.312,168.277a.651.651,0,0,1-.07.3.779.779,0,0,0-1.188,0,.638.638,0,0,1-.07-.3.664.664,0,0,1,1.328,0Z" fill="#fff"/>
                <path id="Path_8340" data-name="Path 8340" d="M239.193,167.475a.543.543,0,0,1-.1.312.661.661,0,0,0-.894,0,.536.536,0,0,1-.1-.312.543.543,0,0,1,.273-.472.536.536,0,0,1,.273-.074.548.548,0,0,1,.274.074A.541.541,0,0,1,239.193,167.475Z" fill="#fff"/>
                <path id="Path_8341" data-name="Path 8341" d="M239.077,166.674a.427.427,0,0,1-.155.329.548.548,0,0,0-.274-.074.536.536,0,0,0-.273.074.423.423,0,0,1-.155-.329.428.428,0,0,1,.857,0Z" fill="#fff"/>
              </g>
              <path id="Path_8342" data-name="Path 8342" d="M237.426,166.624a.379.379,0,0,1-.743.107.314.314,0,0,0,.008-.075.384.384,0,0,0-.015-.107h0a.379.379,0,0,1,.75.076Z" fill="#fff"/>
              <path id="Path_8343" data-name="Path 8343" d="M233.315,170.5a.65.65,0,0,1-.04.23.684.684,0,0,1-1.179.2.675.675,0,0,1-.15-.426.685.685,0,1,1,1.369,0Z" fill="#fff"/>
              <path id="Path_8344" data-name="Path 8344" d="M233.38,169.412a.629.629,0,0,1-.323.55.688.688,0,0,0-.726-.081.6.6,0,0,1-.19-.311.59.59,0,0,1-.021-.158.629.629,0,0,1,.581-.628h0a.386.386,0,0,1,.048,0,.612.612,0,0,1,.373.124.517.517,0,0,1,.083.073A.626.626,0,0,1,233.38,169.412Z" fill="#fff"/>
              <path id="Path_8345" data-name="Path 8345" d="M233.788,168.351a.63.63,0,0,1-.582.628.618.618,0,0,0-.456-.2.386.386,0,0,0-.048,0h0a.63.63,0,0,1,.457-1.064h0a.63.63,0,0,1,.606.47A.607.607,0,0,1,233.788,168.351Z" fill="#fff"/>
              <g id="Group_4862" data-name="Group 4862">
                <path id="Path_8346" data-name="Path 8346" d="M247.512,181.766c-.167.028-.661.022-.731.2a5.325,5.325,0,0,0-1.28-.942c.026-.273.051-.549.077-.823a.776.776,0,0,1,.268.5c.109-.1.219-.189.328-.285.056.186.112.371.167.557l.294-.086a.1.1,0,0,1,.088,0,.1.1,0,0,1,.03.065c.018.1.037.208.056.312a1.552,1.552,0,0,0,.406-.1c0,.14,0,.278,0,.418l.45.019C247.715,181.677,247.6,181.751,247.512,181.766Z" fill="#fec552"/>
                <path id="Path_8347" data-name="Path 8347" d="M248.665,189.916a.438.438,0,0,0,.366-.024.652.652,0,0,1-.561.381.694.694,0,0,0,.509.088,1.018,1.018,0,0,1-.85.3,1.718,1.718,0,0,1-.088.707.589.589,0,0,1-.548.388.777.777,0,0,0,.153-.706c-.129-.112-.324.021-.432.154a3.71,3.71,0,0,0-.453.7.5.5,0,0,1-.319-.662,1.235,1.235,0,0,0-.948.2.538.538,0,0,1,.448-.628,1,1,0,0,1,.508-.329l-.794,0a1.257,1.257,0,0,1,1.288-.07c.124.066.266.157.4.1a.383.383,0,0,0,.172-.268,5.288,5.288,0,0,0,.163-.894,1.488,1.488,0,0,1-1.057-.662c-.163-.367,0-.792-.024-1.193a.421.421,0,0,0,0-.05.273.273,0,0,0-.041-.12.369.369,0,0,0-.145-.107l-1.1-.554-.763-.386a1.725,1.725,0,0,0-.338-.141,1.673,1.673,0,0,0-.913.123.512.512,0,0,1,.217.176,1.883,1.883,0,0,1-.637.086l.426.184-.733.1.313.078a2.829,2.829,0,0,1-.786.108,2.04,2.04,0,0,1-.072.681.688.688,0,0,1-.465.466.79.79,0,0,0,.012-.689.439.439,0,0,0-.607-.171c-.136.1-.176.283-.26.43a.761.761,0,0,1-.425.339,5.769,5.769,0,0,0-.03-.831.233.233,0,0,1-.289-.126l-.448.051a.927.927,0,0,1,.423-.28.647.647,0,0,0,.385-.318.274.274,0,0,0-.156-.345l.587,0a.239.239,0,0,1,.186.054c.058.067.027.171.05.257a.278.278,0,0,0,.342.16.818.818,0,0,0,.341-.237,2.413,2.413,0,0,0,.573-.758c.028-.066.032-.159.064-.221a2.894,2.894,0,0,0,.328-.189,4.727,4.727,0,0,0,.714-.529l-.64,1.124a1.806,1.806,0,0,0,1.32-1.033,8.8,8.8,0,0,1-.1,1.213,1.91,1.91,0,0,0,.736-1.164,1.906,1.906,0,0,1,.009.64.554.554,0,0,0,.257.548q.288-.592.575-1.186c.081.3.163.607.245.911a.775.775,0,0,0,.244-.609c0-.09,0-.179-.008-.269.035.032.068.064.1.1q.523.492,1.043.986a4.387,4.387,0,0,1,.744.833,2.184,2.184,0,0,1,.157.3,2.161,2.161,0,0,1,.132.418,2.387,2.387,0,0,1,.036.242c.021.218.024.471.2.608a.708.708,0,0,0,.66.005.946.946,0,0,1-.131.5.71.71,0,0,0,.359-.118.761.761,0,0,1-.485.622.964.964,0,0,0,.384-.068A.612.612,0,0,1,248.665,189.916Z" fill="#9a0133"/>
                <path id="Path_8348" data-name="Path 8348" d="M245.627,188.112a3.7,3.7,0,0,0,0,.526.526.526,0,0,0,.341-.139.685.685,0,0,1-.351.524c-.051.026-.115.065-.1.122s.145.091.128.163a.086.086,0,0,1-.049.05.73.73,0,0,1-.537-.018.585.585,0,0,0,.234.33.206.206,0,0,1-.2.108.577.577,0,0,1-.231-.075l-.3-.145a.482.482,0,0,0,.278.286.374.374,0,0,1-.408.1,1.1,1.1,0,0,1-.371-.241.486.486,0,0,0,.2.441.522.522,0,0,1-.54-.236c-.035-.059-.1-.139-.153-.1a.145.145,0,0,0-.033.044,1.919,1.919,0,0,0-.113.3c-.026.1-.056.213-.15.251a.707.707,0,0,1-.153.023.74.74,0,0,0-.288.168.311.311,0,0,1-.311.067.294.294,0,0,1-.118-.135.894.894,0,0,1,.224-1.076c.376-.3.921-.245,1.384-.392a.344.344,0,0,0,.183-.111.35.35,0,0,0-.027-.358,1.523,1.523,0,0,0-.3-.392c-.112-.107-.248-.21-.275-.361a.5.5,0,0,1,.276-.466,2.455,2.455,0,0,1,1.31-.34c.049,0,.107-.007.131-.05a.152.152,0,0,0,.011-.076.752.752,0,0,1-.007-.242l1.1.554a.369.369,0,0,1,.145.107.273.273,0,0,1,.041.12.711.711,0,0,1-.1.082,4.721,4.721,0,0,1-.773.468.155.155,0,0,0-.069.051A.149.149,0,0,0,245.627,188.112Z" fill="#9a0133"/>
                <path id="Path_8349" data-name="Path 8349" d="M249.307,187.392a1.011,1.011,0,0,1-.869.2,1.79,1.79,0,0,1-.283-.044,2.161,2.161,0,0,0-.132-.418l.116.048a2.333,2.333,0,0,0,.584.138.519.519,0,0,0,.222-.015.391.391,0,0,0,.2-.468,1.2,1.2,0,0,0-.3-.465c-.273-.311-.535-.634-.786-.965a2.8,2.8,0,0,1-.339-.536,2.965,2.965,0,0,1-.108-1.611,2.056,2.056,0,0,1,.9-1.154,2.668,2.668,0,0,0,.516-.365,1.385,1.385,0,0,1-.024.522c-.032.1-.086.2-.112.3a1.9,1.9,0,0,0-.03.32,2.319,2.319,0,0,1-.3.875,3.927,3.927,0,0,0-.368.854c-.178.74.38,1.009.9,1.608a1.451,1.451,0,0,1,.33.558A.674.674,0,0,1,249.307,187.392Z" fill="#9a0133"/>
                <path id="Path_8350" data-name="Path 8350" d="M244.992,182.234a.7.7,0,0,1-.044.086,8.388,8.388,0,0,0-.9-.071,2.907,2.907,0,0,1-.512-.038.8.8,0,0,1-.447-.235.47.47,0,0,1-.1-.477.262.262,0,0,1,.125-.139.256.256,0,0,1,.116-.019.336.336,0,0,1,.3.218.269.269,0,0,1-.145.328.894.894,0,0,0,.71.24l.528.018A.725.725,0,0,1,244.992,182.234Z" fill="#e60000"/>
                <path id="Path_8351" data-name="Path 8351" d="M246.8,182.41a1.273,1.273,0,0,1-.021-.442v0a5.325,5.325,0,0,0-1.28-.942l-1,.082a.581.581,0,0,0-.316.088.571.571,0,0,0-.126.536.215.215,0,0,0,.034.108.182.182,0,0,0,.115.06,2.2,2.2,0,0,0,.456-.031c.153-.005.335.07.355.221a.275.275,0,0,1-.027.146.7.7,0,0,1-.044.086l-.006.01c-.089.156-.214.332-.393.325a.857.857,0,0,1-.285-.109.227.227,0,0,0-.279.046.189.189,0,0,0,.088.241.55.55,0,0,0,.279.042l.54-.014c.123,0,.367-.054.47.006a.568.568,0,0,1-.351.2,6.837,6.837,0,0,1-.968.125,2.457,2.457,0,0,0-.678.155c-.168.068-.3.236-.49.208a.977.977,0,0,1-.559-.346,5.555,5.555,0,0,0-.537-.644c-.213-.179-.5-.295-.612-.55a.585.585,0,0,0,.2-1.121,1.013,1.013,0,0,1-.014.4.48.48,0,0,0-.3-.046c-.1.029-.172.158-.107.239a1.741,1.741,0,0,0-.7-.368.38.38,0,0,0-.221-.01.161.161,0,0,0-.115.172c.323.008.365.594.687.622a1.41,1.41,0,0,1-.637.136c-.219.033-.466.185-.439.4a10.341,10.341,0,0,1,1.292-.12c.068,0-.092.277-.111.295a2.283,2.283,0,0,1-.267.182c-.107.073-.517.489-.176.42a7.857,7.857,0,0,0,.823-.232q.027.339.055.677l.2-.235.1.446.166-.131a.66.66,0,0,1,.239.394l.194-.015c.01.037.019.074.029.111-.141.077-.382.024-.418.18a.165.165,0,0,0,.1.174.44.44,0,0,0,.213.031,3.367,3.367,0,0,0,.459-.046,3.014,3.014,0,0,1,.443-.092c.024.136-.3.425-.387.52a1.768,1.768,0,0,1-.572.417c-.016.006-.034.016-.037.031s.02.039.042.047a.513.513,0,0,0,.4-.035,2.894,2.894,0,0,0,.328-.189,4.727,4.727,0,0,0,.714-.529l-.64,1.124a1.806,1.806,0,0,0,1.32-1.033,8.8,8.8,0,0,1-.1,1.213,1.91,1.91,0,0,0,.736-1.164,1.906,1.906,0,0,1,.009.64.554.554,0,0,0,.257.548q.288-.592.575-1.186c.081.3.163.607.245.911a.775.775,0,0,0,.244-.609c0-.09,0-.179-.008-.269a2.256,2.256,0,0,1,.005-.411,6.031,6.031,0,0,0,.483.692,7.451,7.451,0,0,0-.032-.908l.354.375a3.476,3.476,0,0,0-.122-.957l.14.137c.072-.144-.016-.312-.035-.471a1.924,1.924,0,0,1,.075-.455A2.779,2.779,0,0,0,246.8,182.41Zm-1.212-.451a.179.179,0,1,1,.179-.179A.179.179,0,0,1,245.59,181.959Z" fill="#9a0133"/>
              </g>
              <path id="Path_8352" data-name="Path 8352" d="M234.309,167.613a.577.577,0,0,1-.542.577.63.63,0,0,0-.606-.47.547.547,0,0,1-.01-.107.578.578,0,0,1,.981-.416h0a.565.565,0,0,1,.134.2A.574.574,0,0,1,234.309,167.613Z" fill="#fff"/>
              <path id="Path_8353" data-name="Path 8353" d="M235.076,167.033v0a.487.487,0,0,1-.487.485.478.478,0,0,1-.322-.124.565.565,0,0,0-.134-.2h0a.491.491,0,0,1-.028-.164.485.485,0,0,1,.485-.485.48.48,0,0,1,.411.228h0A.472.472,0,0,1,235.076,167.033Z" fill="#fff"/>
              <path id="Path_8354" data-name="Path 8354" d="M235.88,166.787a.44.44,0,0,1-.8.248v0a.472.472,0,0,0-.076-.256h0a.44.44,0,0,1,.88.011Z" fill="#fff"/>
              <path id="Path_8355" data-name="Path 8355" d="M236.691,166.656a.314.314,0,0,1-.008.075.409.409,0,1,1-.007-.183h0A.384.384,0,0,1,236.691,166.656Z" fill="#fff"/>
              <path id="Path_8356" data-name="Path 8356" d="M231.9,167.613a.34.34,0,1,1,.34.339A.34.34,0,0,1,231.9,167.613Z" fill="#fff"/>
              <path id="Path_8357" data-name="Path 8357" d="M231.036,167.613a.433.433,0,1,1,.434.433A.433.433,0,0,1,231.036,167.613Z" fill="#fff"/>
              <circle id="Ellipse_16" data-name="Ellipse 16" cx="0.433" cy="0.433" r="0.433" transform="translate(230.17 167.354)" fill="#fff"/>
              <path id="Path_8358" data-name="Path 8358" d="M229.255,167.987a.457.457,0,1,1,.458.458A.457.457,0,0,1,229.255,167.987Z" fill="#fff"/>
              <path id="Path_8359" data-name="Path 8359" d="M228.331,168.425a.515.515,0,1,1,.514.515A.515.515,0,0,1,228.331,168.425Z" fill="#fff"/>
              <path id="Path_8360" data-name="Path 8360" d="M227.611,169.155a.516.516,0,1,1,.516.515A.516.516,0,0,1,227.611,169.155Z" fill="#fff"/>
              <path id="Path_8361" data-name="Path 8361" d="M226.9,170.2a.668.668,0,1,1,.668.668A.668.668,0,0,1,226.9,170.2Z" fill="#fff"/>
              <path id="Path_8362" data-name="Path 8362" d="M226.759,171.616a.749.749,0,1,1,.749.749A.749.749,0,0,1,226.759,171.616Z" fill="#fff"/>
              <path id="Path_8363" data-name="Path 8363" d="M239.87,166.624a.379.379,0,0,0,.743.107.313.313,0,0,1-.008-.075.384.384,0,0,1,.015-.107h0a.379.379,0,0,0-.75.076Z" fill="#fff"/>
              <path id="Path_8364" data-name="Path 8364" d="M243.981,170.5a.685.685,0,1,0,.983-.617.676.676,0,0,0-.3-.068.684.684,0,0,0-.685.685Z" fill="#fff"/>
              <path id="Path_8365" data-name="Path 8365" d="M245.176,169.412a.633.633,0,0,1-.02.158.605.605,0,0,1-.192.311.676.676,0,0,0-.3-.068.685.685,0,0,0-.427.149.628.628,0,0,1-.149-.983.511.511,0,0,1,.082-.073.622.622,0,0,1,.374-.124.393.393,0,0,1,.048,0h0A.63.63,0,0,1,245.176,169.412Z" fill="#fff"/>
              <path id="Path_8366" data-name="Path 8366" d="M243.508,168.351a.63.63,0,0,0,.582.628.618.618,0,0,1,.456-.2.393.393,0,0,1,.048,0h0a.63.63,0,0,0-.457-1.064h0a.628.628,0,0,0-.6.47A.536.536,0,0,0,243.508,168.351Z" fill="#fff"/>
              <path id="Path_8367" data-name="Path 8367" d="M242.987,167.613a.578.578,0,0,0,.543.577.628.628,0,0,1,.6-.47.546.546,0,0,0,.01-.107.578.578,0,0,0-.981-.416h0a.565.565,0,0,0-.134.2A.574.574,0,0,0,242.987,167.613Z" fill="#fff"/>
              <path id="Path_8368" data-name="Path 8368" d="M242.22,167.033v0a.487.487,0,0,0,.487.485.476.476,0,0,0,.322-.124.565.565,0,0,1,.134-.2h0a.467.467,0,0,0,.028-.164.485.485,0,0,0-.485-.485.48.48,0,0,0-.411.228h0A.472.472,0,0,0,242.22,167.033Z" fill="#fff"/>
              <path id="Path_8369" data-name="Path 8369" d="M241.416,166.787a.44.44,0,0,0,.8.248v0a.472.472,0,0,1,.076-.256h0a.44.44,0,0,0-.88.011Z" fill="#fff"/>
              <path id="Path_8370" data-name="Path 8370" d="M240.6,166.656a.313.313,0,0,0,.008.075.409.409,0,1,0,.007-.183h0A.384.384,0,0,0,240.6,166.656Z" fill="#fff"/>
              <path id="Path_8371" data-name="Path 8371" d="M245.394,167.613a.34.34,0,1,0-.34.339A.34.34,0,0,0,245.394,167.613Z" fill="#fff"/>
              <circle id="Ellipse_17" data-name="Ellipse 17" cx="0.433" cy="0.433" r="0.433" transform="translate(245.394 167.18)" fill="#fff"/>
              <circle id="Ellipse_18" data-name="Ellipse 18" cx="0.433" cy="0.433" r="0.433" transform="translate(246.26 167.354)" fill="#fff"/>
              <path id="Path_8372" data-name="Path 8372" d="M248.041,167.987a.457.457,0,1,0-.458.458A.458.458,0,0,0,248.041,167.987Z" fill="#fff"/>
              <circle id="Ellipse_19" data-name="Ellipse 19" cx="0.516" cy="0.516" r="0.516" transform="translate(247.935 167.909)" fill="#fff"/>
              <path id="Path_8373" data-name="Path 8373" d="M249.684,169.155a.515.515,0,1,0-.514.515A.515.515,0,0,0,249.684,169.155Z" fill="#fff"/>
              <circle id="Ellipse_20" data-name="Ellipse 20" cx="0.668" cy="0.668" r="0.668" transform="translate(249.063 169.53)" fill="#fff"/>
              <path id="Path_8374" data-name="Path 8374" d="M250.538,171.616a.749.749,0,1,0-.75.749A.75.75,0,0,0,250.538,171.616Z" fill="#fff"/>
              <path id="Path_8375" data-name="Path 8375" d="M229.366,174.687a.517.517,0,0,1-.381.5.46.46,0,0,1-.14.02.518.518,0,0,1-.4-.844h0a.515.515,0,0,1,.4-.193A.521.521,0,0,1,229.366,174.687Z" fill="#fff"/>
              <path id="Path_8376" data-name="Path 8376" d="M230.743,174.393a.294.294,0,1,1,.293.294A.293.293,0,0,1,230.743,174.393Z" fill="#fff"/>
              <path id="Path_8377" data-name="Path 8377" d="M235.2,173.911a.293.293,0,1,1,.294.293A.293.293,0,0,1,235.2,173.911Z" fill="#fff"/>
              <path id="Path_8378" data-name="Path 8378" d="M248.969,174.687a.518.518,0,0,1-.519.518.458.458,0,0,1-.139-.02.519.519,0,1,1,.658-.5Z" fill="#fff"/>
              <path id="Path_8379" data-name="Path 8379" d="M246.553,174.393a.293.293,0,1,0-.293.294A.293.293,0,0,0,246.553,174.393Z" fill="#fff"/>
              <path id="Path_8380" data-name="Path 8380" d="M242.1,173.911a.294.294,0,1,0-.294.293A.294.294,0,0,0,242.1,173.911Z" fill="#fff"/>
              <path id="Path_8381" data-name="Path 8381" d="M233.38,173.782a.5.5,0,0,1-.036.19.519.519,0,0,1-.483.33.509.509,0,0,1-.27-.077.519.519,0,1,1,.789-.443Z" fill="#fff"/>
              <path id="Path_8382" data-name="Path 8382" d="M244.955,173.782a.52.52,0,1,0-.519.52A.52.52,0,0,0,244.955,173.782Z" fill="#fff"/>
              <path id="Path_8383" data-name="Path 8383" d="M239.167,173.205a.519.519,0,1,1-.519-.519A.52.52,0,0,1,239.167,173.205Z" fill="#fff"/>
              <path id="Path_8384" data-name="Path 8384" d="M234.253,187.867v4.96a4.4,4.4,0,0,0,4.4,4.4h0a4.395,4.395,0,0,0,4.394-4.4v-4.96Z" fill="#e60000"/>
              <path id="Path_8385" data-name="Path 8385" d="M238.649,195.747a2.924,2.924,0,0,1-2.921-2.92v-3.485h5.84v3.485A2.923,2.923,0,0,1,238.649,195.747Z" fill="#0437a0"/>
              <path id="Path_8386" data-name="Path 8386" d="M239.335,193.187a.466.466,0,0,0-.238.062,1.181,1.181,0,0,0,.064-.349.592.592,0,1,0-1.027,0,1.184,1.184,0,0,0,.065.349.466.466,0,0,0-.238-.062c-.579,0-.686,1,0,1,0,0-.113-.427.106-.427.169,0,.233.21.254.34h-.116v.444h.158l-.25.33a.05.05,0,0,0,.061.075l.221-.1.208.449a.049.049,0,0,0,.09,0l.207-.449.223.1a.049.049,0,0,0,.06-.075l-.25-.33h.158V194.1h-.116c.021-.13.084-.34.254-.34.219,0,.106.427.106.427C240.022,194.182,239.914,193.187,239.335,193.187Z" fill="#fec552"/>
              <path id="Path_8387" data-name="Path 8387" d="M237.872,190.82a.476.476,0,0,0-.238.062,1.184,1.184,0,0,0,.065-.349.592.592,0,1,0-1.027,0,1.182,1.182,0,0,0,.064.349.472.472,0,0,0-.237-.062c-.579,0-.687,1,0,1,0,0-.114-.428.106-.428.169,0,.233.211.253.341h-.116v.444h.158l-.25.33a.05.05,0,0,0,.06.076l.223-.1.207.45a.051.051,0,0,0,.091,0l.207-.45.222.1a.05.05,0,0,0,.06-.076l-.25-.33h.159v-.444h-.117c.021-.13.085-.341.254-.341.219,0,.106.428.106.428C238.559,191.816,238.451,190.82,237.872,190.82Z" fill="#fec552"/>
              <path id="Path_8388" data-name="Path 8388" d="M239.424,190.82a.476.476,0,0,1,.238.062,1.184,1.184,0,0,1-.065-.349.592.592,0,1,1,1.028,0,1.184,1.184,0,0,1-.065.349.473.473,0,0,1,.238-.062c.579,0,.686,1,0,1,0,0,.112-.428-.106-.428-.17,0-.234.211-.254.341h.116v.444H240.4l.25.33a.05.05,0,0,1-.061.076l-.221-.1-.208.45a.051.051,0,0,1-.091,0l-.207-.45-.222.1a.05.05,0,0,1-.06-.076l.249-.33h-.157v-.444h.115c-.02-.13-.084-.341-.253-.341-.219,0-.106.428-.106.428C238.737,191.816,238.845,190.82,239.424,190.82Z" fill="#fec552"/>
            </g>
          </g>
        </g>
      </g>
    </g>
  </g>
</svg>
