<svg xmlns="http://www.w3.org/2000/svg" xmlns:xlink="http://www.w3.org/1999/xlink" viewBox="0 0 406.202 164.966">
  <defs>
    <clipPath id="clip-path">
      <path id="Path_7147" data-name="Path 7147" d="M174.162,332.136,133.858,264l40.3-68.132H466.4L506.7,264l-40.3,68.132Z" fill="none"/>
    </clipPath>
  </defs>
  <g id="Group_840" data-name="Group 840" transform="translate(-117.18 -181.521)">
    <path id="Path_1751" data-name="Path 1751" d="M165.978,346.487H474.585l48.8-82.482-48.8-82.484H165.978l-48.8,82.484Z" fill="#fff"/>
    <path id="Path_1752" data-name="Path 1752" d="M174.162,195.873H466.4l40.3,68.132-40.3,68.13H174.162l-40.3-68.13Z" fill="#80192e"/>
    <g id="Group_808" data-name="Group 808">
      <g id="Group_4549" data-name="Group 4549">
        <g id="Group_4548" data-name="Group 4548" clip-path="url(#clip-path)">
          <g id="Group_4547" data-name="Group 4547">
            <rect id="Rectangle_323" data-name="Rectangle 323" width="105.28" height="74.889" transform="translate(129.513 194.464)" fill="#0437a0"/>
            <rect id="Rectangle_324" data-name="Rectangle 324" width="276.258" height="10.698" transform="translate(234.792 194.464)" fill="#e60000"/>
            <rect id="Rectangle_325" data-name="Rectangle 325" width="276.258" height="10.698" transform="translate(234.792 205.163)" fill="#fff"/>
            <rect id="Rectangle_326" data-name="Rectangle 326" width="276.258" height="10.698" transform="translate(234.792 215.861)" fill="#e60000"/>
            <rect id="Rectangle_327" data-name="Rectangle 327" width="276.258" height="10.699" transform="translate(234.792 226.559)" fill="#fff"/>
            <rect id="Rectangle_328" data-name="Rectangle 328" width="276.258" height="10.698" transform="translate(234.792 237.258)" fill="#e60000"/>
            <rect id="Rectangle_329" data-name="Rectangle 329" width="276.258" height="10.698" transform="translate(234.792 247.956)" fill="#fff"/>
            <rect id="Rectangle_330" data-name="Rectangle 330" width="276.258" height="10.698" transform="translate(234.792 258.655)" fill="#e60000"/>
            <rect id="Rectangle_331" data-name="Rectangle 331" width="381.537" height="10.699" transform="translate(129.513 269.353)" fill="#fff"/>
            <rect id="Rectangle_332" data-name="Rectangle 332" width="381.537" height="10.698" transform="translate(129.513 280.052)" fill="#e60000"/>
            <rect id="Rectangle_333" data-name="Rectangle 333" width="381.537" height="10.698" transform="translate(129.513 290.75)" fill="#fff"/>
            <rect id="Rectangle_334" data-name="Rectangle 334" width="381.537" height="10.698" transform="translate(129.513 301.449)" fill="#e60000"/>
            <rect id="Rectangle_335" data-name="Rectangle 335" width="381.537" height="10.698" transform="translate(129.513 312.147)" fill="#fff"/>
            <rect id="Rectangle_336" data-name="Rectangle 336" width="381.537" height="10.699" transform="translate(129.513 322.845)" fill="#e60000"/>
            <g id="Group_4546" data-name="Group 4546">
              <g id="Group_4537" data-name="Group 4537">
                <path id="Path_7097" data-name="Path 7097" d="M146.9,205.813l.918,2.825h2.971l-2.4,1.746.918,2.825-2.4-1.746-2.4,1.746.918-2.825-2.4-1.746h2.971Z" fill="#fff"/>
                <path id="Path_7098" data-name="Path 7098" d="M164.528,205.813l.918,2.825h2.971l-2.4,1.746.919,2.825-2.4-1.746-2.4,1.746.918-2.825-2.4-1.746h2.971Z" fill="#fff"/>
                <path id="Path_7099" data-name="Path 7099" d="M182.153,205.813l.918,2.825h2.971l-2.4,1.746.918,2.825-2.4-1.746-2.4,1.746.918-2.825-2.4-1.746h2.97Z" fill="#fff"/>
                <path id="Path_7100" data-name="Path 7100" d="M199.777,205.813l.918,2.825h2.971l-2.4,1.746.918,2.825-2.4-1.746-2.4,1.746.918-2.825-2.4-1.746h2.971Z" fill="#fff"/>
                <path id="Path_7101" data-name="Path 7101" d="M217.4,205.813l.918,2.825h2.971l-2.4,1.746.918,2.825-2.4-1.746L215,213.21l.918-2.825-2.4-1.746h2.971Z" fill="#fff"/>
              </g>
              <g id="Group_4538" data-name="Group 4538">
                <path id="Path_7102" data-name="Path 7102" d="M138.092,198.348l.918,2.825h2.971l-2.4,1.746.918,2.825-2.4-1.746-2.4,1.746.918-2.825-2.4-1.746h2.971Z" fill="#fff"/>
                <path id="Path_7103" data-name="Path 7103" d="M155.716,198.348l.918,2.825h2.971l-2.4,1.746.918,2.825-2.4-1.746-2.4,1.746.918-2.825-2.4-1.746H154.8Z" fill="#fff"/>
                <path id="Path_7104" data-name="Path 7104" d="M173.34,198.348l.918,2.825h2.971l-2.4,1.746.918,2.825L173.34,204l-2.4,1.746.918-2.825-2.4-1.746h2.971Z" fill="#fff"/>
                <path id="Path_7105" data-name="Path 7105" d="M190.965,198.348l.918,2.825h2.971l-2.4,1.746.918,2.825-2.4-1.746-2.4,1.746.918-2.825-2.4-1.746h2.971Z" fill="#fff"/>
                <path id="Path_7106" data-name="Path 7106" d="M208.589,198.348l.918,2.825h2.971l-2.4,1.746.918,2.825-2.4-1.746-2.4,1.746.918-2.825-2.4-1.746h2.971Z" fill="#fff"/>
                <path id="Path_7107" data-name="Path 7107" d="M226.214,198.348l.918,2.825H230.1l-2.4,1.746.919,2.825-2.4-1.746-2.4,1.746.919-2.825-2.4-1.746H225.3Z" fill="#fff"/>
              </g>
              <g id="Group_4539" data-name="Group 4539">
                <path id="Path_7108" data-name="Path 7108" d="M146.9,220.744l.918,2.825h2.971l-2.4,1.746.918,2.825-2.4-1.746-2.4,1.746.918-2.825-2.4-1.746h2.971Z" fill="#fff"/>
                <path id="Path_7109" data-name="Path 7109" d="M164.528,220.744l.918,2.825h2.971l-2.4,1.746.919,2.825-2.4-1.746-2.4,1.746.918-2.825-2.4-1.746h2.971Z" fill="#fff"/>
                <path id="Path_7110" data-name="Path 7110" d="M182.153,220.744l.918,2.825h2.971l-2.4,1.746.918,2.825-2.4-1.746-2.4,1.746.918-2.825-2.4-1.746h2.97Z" fill="#fff"/>
                <path id="Path_7111" data-name="Path 7111" d="M199.777,220.744l.918,2.825h2.971l-2.4,1.746.918,2.825-2.4-1.746-2.4,1.746.918-2.825-2.4-1.746h2.971Z" fill="#fff"/>
                <path id="Path_7112" data-name="Path 7112" d="M217.4,220.744l.918,2.825h2.971l-2.4,1.746.918,2.825-2.4-1.746-2.4,1.746.918-2.825-2.4-1.746h2.971Z" fill="#fff"/>
              </g>
              <g id="Group_4540" data-name="Group 4540">
                <path id="Path_7113" data-name="Path 7113" d="M138.092,213.279l.918,2.825h2.971l-2.4,1.746.918,2.825-2.4-1.746-2.4,1.746.918-2.825-2.4-1.746h2.971Z" fill="#fff"/>
                <path id="Path_7114" data-name="Path 7114" d="M155.716,213.279l.918,2.825h2.971l-2.4,1.746.918,2.825-2.4-1.746-2.4,1.746.918-2.825-2.4-1.746H154.8Z" fill="#fff"/>
                <path id="Path_7115" data-name="Path 7115" d="M173.34,213.279l.918,2.825h2.971l-2.4,1.746.918,2.825-2.4-1.746-2.4,1.746.918-2.825-2.4-1.746h2.971Z" fill="#fff"/>
                <path id="Path_7116" data-name="Path 7116" d="M190.965,213.279l.918,2.825h2.971l-2.4,1.746.918,2.825-2.4-1.746-2.4,1.746.918-2.825-2.4-1.746h2.971Z" fill="#fff"/>
                <path id="Path_7117" data-name="Path 7117" d="M208.589,213.279l.918,2.825h2.971l-2.4,1.746.918,2.825-2.4-1.746-2.4,1.746.918-2.825-2.4-1.746h2.971Z" fill="#fff"/>
                <path id="Path_7118" data-name="Path 7118" d="M226.214,213.279l.918,2.825H230.1l-2.4,1.746.919,2.825-2.4-1.746-2.4,1.746.919-2.825-2.4-1.746H225.3Z" fill="#fff"/>
              </g>
              <g id="Group_4541" data-name="Group 4541">
                <path id="Path_7119" data-name="Path 7119" d="M146.9,235.676l.918,2.825h2.971l-2.4,1.746.918,2.825-2.4-1.746-2.4,1.746.918-2.825-2.4-1.746h2.971Z" fill="#fff"/>
                <path id="Path_7120" data-name="Path 7120" d="M164.528,235.676l.918,2.825h2.971l-2.4,1.746.919,2.825-2.4-1.746-2.4,1.746.918-2.825-2.4-1.746h2.971Z" fill="#fff"/>
                <path id="Path_7121" data-name="Path 7121" d="M182.153,235.676l.918,2.825h2.971l-2.4,1.746.918,2.825-2.4-1.746-2.4,1.746.918-2.825-2.4-1.746h2.97Z" fill="#fff"/>
                <path id="Path_7122" data-name="Path 7122" d="M199.777,235.676l.918,2.825h2.971l-2.4,1.746.918,2.825-2.4-1.746-2.4,1.746.918-2.825-2.4-1.746h2.971Z" fill="#fff"/>
                <path id="Path_7123" data-name="Path 7123" d="M217.4,235.676l.918,2.825h2.971l-2.4,1.746.918,2.825-2.4-1.746-2.4,1.746.918-2.825-2.4-1.746h2.971Z" fill="#fff"/>
              </g>
              <g id="Group_4542" data-name="Group 4542">
                <path id="Path_7124" data-name="Path 7124" d="M138.092,228.21l.918,2.825h2.971l-2.4,1.746.918,2.825-2.4-1.746-2.4,1.746.918-2.825-2.4-1.746h2.971Z" fill="#fff"/>
                <path id="Path_7125" data-name="Path 7125" d="M155.716,228.21l.918,2.825h2.971l-2.4,1.746.918,2.825-2.4-1.746-2.4,1.746.918-2.825-2.4-1.746H154.8Z" fill="#fff"/>
                <path id="Path_7126" data-name="Path 7126" d="M173.34,228.21l.918,2.825h2.971l-2.4,1.746.918,2.825-2.4-1.746-2.4,1.746.918-2.825-2.4-1.746h2.971Z" fill="#fff"/>
                <path id="Path_7127" data-name="Path 7127" d="M190.965,228.21l.918,2.825h2.971l-2.4,1.746.918,2.825-2.4-1.746-2.4,1.746.918-2.825-2.4-1.746h2.971Z" fill="#fff"/>
                <path id="Path_7128" data-name="Path 7128" d="M208.589,228.21l.918,2.825h2.971l-2.4,1.746.918,2.825-2.4-1.746-2.4,1.746.918-2.825-2.4-1.746h2.971Z" fill="#fff"/>
                <path id="Path_7129" data-name="Path 7129" d="M226.214,228.21l.918,2.825H230.1l-2.4,1.746.919,2.825-2.4-1.746-2.4,1.746.919-2.825-2.4-1.746H225.3Z" fill="#fff"/>
              </g>
              <g id="Group_4543" data-name="Group 4543">
                <path id="Path_7130" data-name="Path 7130" d="M146.9,250.607l.918,2.825h2.971l-2.4,1.746.918,2.825-2.4-1.746L144.5,258l.918-2.825-2.4-1.746h2.971Z" fill="#fff"/>
                <path id="Path_7131" data-name="Path 7131" d="M164.528,250.607l.918,2.825h2.971l-2.4,1.746.919,2.825-2.4-1.746-2.4,1.746.918-2.825-2.4-1.746h2.971Z" fill="#fff"/>
                <path id="Path_7132" data-name="Path 7132" d="M182.153,250.607l.918,2.825h2.971l-2.4,1.746.918,2.825-2.4-1.746-2.4,1.746.918-2.825-2.4-1.746h2.97Z" fill="#fff"/>
                <path id="Path_7133" data-name="Path 7133" d="M199.777,250.607l.918,2.825h2.971l-2.4,1.746.918,2.825-2.4-1.746-2.4,1.746.918-2.825-2.4-1.746h2.971Z" fill="#fff"/>
                <path id="Path_7134" data-name="Path 7134" d="M217.4,250.607l.918,2.825h2.971l-2.4,1.746L219.8,258l-2.4-1.746L215,258l.918-2.825-2.4-1.746h2.971Z" fill="#fff"/>
              </g>
              <g id="Group_4544" data-name="Group 4544">
                <path id="Path_7135" data-name="Path 7135" d="M138.092,243.141l.918,2.825h2.971l-2.4,1.746.918,2.825-2.4-1.746-2.4,1.746.918-2.825-2.4-1.746h2.971Z" fill="#fff"/>
                <path id="Path_7136" data-name="Path 7136" d="M155.716,243.141l.918,2.825h2.971l-2.4,1.746.918,2.825-2.4-1.746-2.4,1.746.918-2.825-2.4-1.746H154.8Z" fill="#fff"/>
                <path id="Path_7137" data-name="Path 7137" d="M173.34,243.141l.918,2.825h2.971l-2.4,1.746.918,2.825-2.4-1.746-2.4,1.746.918-2.825-2.4-1.746h2.971Z" fill="#fff"/>
                <path id="Path_7138" data-name="Path 7138" d="M190.965,243.141l.918,2.825h2.971l-2.4,1.746.918,2.825-2.4-1.746-2.4,1.746.918-2.825-2.4-1.746h2.971Z" fill="#fff"/>
                <path id="Path_7139" data-name="Path 7139" d="M208.589,243.141l.918,2.825h2.971l-2.4,1.746.918,2.825-2.4-1.746-2.4,1.746.918-2.825-2.4-1.746h2.971Z" fill="#fff"/>
                <path id="Path_7140" data-name="Path 7140" d="M226.214,243.141l.918,2.825H230.1l-2.4,1.746.919,2.825-2.4-1.746-2.4,1.746.919-2.825-2.4-1.746H225.3Z" fill="#fff"/>
              </g>
              <g id="Group_4545" data-name="Group 4545">
                <path id="Path_7141" data-name="Path 7141" d="M138.092,258.073l.918,2.825h2.971l-2.4,1.746.918,2.825-2.4-1.746-2.4,1.746.918-2.825-2.4-1.746h2.971Z" fill="#fff"/>
                <path id="Path_7142" data-name="Path 7142" d="M155.716,258.073l.918,2.825h2.971l-2.4,1.746.918,2.825-2.4-1.746-2.4,1.746.918-2.825-2.4-1.746H154.8Z" fill="#fff"/>
                <path id="Path_7143" data-name="Path 7143" d="M173.34,258.073l.918,2.825h2.971l-2.4,1.746.918,2.825-2.4-1.746-2.4,1.746.918-2.825-2.4-1.746h2.971Z" fill="#fff"/>
                <path id="Path_7144" data-name="Path 7144" d="M190.965,258.073l.918,2.825h2.971l-2.4,1.746.918,2.825-2.4-1.746-2.4,1.746.918-2.825-2.4-1.746h2.971Z" fill="#fff"/>
                <path id="Path_7145" data-name="Path 7145" d="M208.589,258.073l.918,2.825h2.971l-2.4,1.746.918,2.825-2.4-1.746-2.4,1.746.918-2.825-2.4-1.746h2.971Z" fill="#fff"/>
                <path id="Path_7146" data-name="Path 7146" d="M226.214,258.073l.918,2.825H230.1l-2.4,1.746.919,2.825-2.4-1.746-2.4,1.746.919-2.825-2.4-1.746H225.3Z" fill="#fff"/>
              </g>
            </g>
          </g>
        </g>
      </g>
    </g>
  </g>
</svg>
