<svg xmlns="http://www.w3.org/2000/svg" xmlns:xlink="http://www.w3.org/1999/xlink" width="752.282" height="518.546" viewBox="0 0 752.282 518.546">
  <defs>
    <linearGradient id="linear-gradient" x1="0.246" y1="-0.139" x2="0.754" y2="1.139" gradientUnits="objectBoundingBox">
      <stop offset="0" stop-color="#dab264"/>
      <stop offset="0.482" stop-color="#be895f"/>
      <stop offset="1" stop-color="#996a45"/>
    </linearGradient>
    <clipPath id="clip-path">
      <path id="Path_7139" data-name="Path 7139" d="M-1364.683,893.471A3269.318,3269.318,0,0,0-1704.17,875.76a3269.33,3269.33,0,0,0-339.487,17.711q-25.189,110.607-25.19,230.1,0,119.507,25.19,230.1a3269.347,3269.347,0,0,0,339.487,17.711,3269.335,3269.335,0,0,0,339.487-17.711q25.189-110.607,25.19-230.1T-1364.683,893.471Z" fill="none"/>
    </clipPath>
  </defs>
  <g id="Group_4547" data-name="Group 4547" transform="translate(2080.311 -864.295)">
    <path id="Path_7104" data-name="Path 7104" d="M-1704.184,1382.841a3295.4,3295.4,0,0,1-340.676-17.774l-8.153-.859-1.822-8c-16.9-74.235-25.476-152.508-25.476-232.643s8.572-158.41,25.476-232.641l1.822-8,8.153-.859a3296.814,3296.814,0,0,1,340.676-17.778,3296.949,3296.949,0,0,1,340.7,17.778l8.153.859,1.822,8c16.9,74.231,25.476,152.5,25.476,232.641s-8.573,158.408-25.476,232.643l-1.822,8-8.153.859a3295.4,3295.4,0,0,1-340.676,17.774Z" fill="url(#linear-gradient)"/>
    <g id="Group_4546" data-name="Group 4546">
      <g id="Group_4545" data-name="Group 4545" clip-path="url(#clip-path)">
        <g id="Group_4544" data-name="Group 4544">
          <path id="Path_7110" data-name="Path 7110" d="M-1008.022,1405.442V841.7h-1392.3v563.745Z" fill="#00a133"/>
          <g id="Group_4543" data-name="Group 4543">
            <path id="Path_7111" data-name="Path 7111" d="M-1915.684,1035.92c14.414,1.324,6.476-24.459,11.655-29.133,1-2.279,2.829-2.279,2.971.592,0,25.332-2,28.5,8.217,32.51,10.055-.67,7.732,1.519,9.535,41.373,0,0,8.812,2.622,9.232-21.223.433-15.683-5.681-36.134,4.949-29.863,3.771,2.645,5.46,5.881,11.294,4.56,8.939-2.53,14.242-6.727,14.387-13.68-1.378-18.006-5.973-23.221-5.324-24.937,1.59,2.53,3.983,2.279,4.52,0-4.224-14.417-14.523-17.4-17.185-8.162-1.473,13.961,11.021,20.069,9.155,31.549-2.578,1.324-5.13.821-7.3-1.435-14.779-11.155-1.8-4.366-7.749-23.39-.719-4.56-2.976-6.11-4.715-9.118-6.769-7.8-9.4,11.469-4.736,22.318,1.6,4.786,4.14,7.774,2.975,7.774-1,2.759-3,2.05-4.468-1.072-3.344-10.3-1.513-35.425-7.374-40.419-2.159-2.873-5.4-1.435-6.537,1.322-.709,17.772.637,10.866,4.759,40.784.308,11.879-6.829,5.152-6.531-.844,7.148-31.977-12.831-37.985-17.327,1.072-.831,5.4-4.406,9.233-6.883-.843-2.222-7.319-3.518-25.283-7.148-21.088C-1926.321,1008.588-1927.6,1033.413-1915.684,1035.92Z" fill="#fff"/>
            <path id="Path_7112" data-name="Path 7112" d="M-1893.951,1046.11c-11.836.252-29.248,15.593-29.768,24.119,12.528-5.995,24.883-11.762,37.62-18.1C-1888.184,1049.121-1886.211,1046.362-1893.951,1046.11Z" fill="#fff"/>
            <path id="Path_7113" data-name="Path 7113" d="M-1828.446,1092.161c5.3-17.842-.41-28.569,1.973-31.756,6.473,6.816,15.285.821,17.268-1.458a2.981,2.981,0,0,1,4.436-.48c4.923,3.6,13.62,1.938,15.409-4.309a144.46,144.46,0,0,0,2.154-19.081c-3.294.98-5.871,1.8-6.9,2.9-1.306,1.3-.331,6.262-2.085,7.319a2.114,2.114,0,0,1-3.239-1.438c-1.5-6.839-7.8-7.934-11.635,2.873-2.635,2.142-7.252,2.508-7.77-.48.662-7.316-2.3-8.274-8.149-4.923-8.317-64.366-6.284-34.287,1.254-43.406-.817-2.545-7.775-24.346-10.459-24.346-2.329-2.33-10.879.757-9.414,8.64,3.63,22.067,5.939,38.844,9.568,60.8.632,2.644-1.59,5.995-4.349,5.744-4.768-3.237-5.938-9.824-14.03-9.461-5.872.114-12.556,6.476-13.434,12.585-.893,4.924-1.281,10.19,0,14.385,4.179,5.038,9.17,4.445,13.434,3.373,3.532-1.46,6.5-5.06,7.769-4.217,5.281,9.951-29.865,37.563-39.57,19.082-2.67-5.29.211-25.192-6.446-20.632-19.817,51.089,46.339,58.278,53.743,2.165.709-2.274,3.58-4.627,3.955-.729-1.532,50.723-51.14,54.086-59.556,38.251-2.155-3.828-2.759-12.1-2.971-17.143-1.288-10.252-6.486-6.027-7.346,3.717C-1913.415,1146.275-1839.588,1127.609-1828.446,1092.161Zm-24.768-34.652c-.744,1.234-10.521,1.117-4.878-5.152C-1852.666,1048.407-1850.624,1057.509-1853.214,1057.509Z" fill="#fff"/>
            <path id="Path_7114" data-name="Path 7114" d="M-1822.716,1012.053c14.829,0,10.249,7.448,36.833-23-2.122-1.938-5.02-3.007-2.846-4.923,6.474-3.846,2.543-16.974-9.356-11.4-3.267,3.237-4.043,8.16-1.495,11.4,2.52,1.07,5.04,3.714,3.336,5.038C-1803.847,997.256-1822.716,1009.856-1822.716,1012.053Zm28.233-33.923c1.167-.112,2.518,1.072,3.207,2.508,1.719,3.622-2.269,5.154-4.284,1.094C-1796.513,979.6-1795.453,978.13-1794.483,978.13Z" fill="#fff"/>
            <path id="Path_7115" data-name="Path 7115" d="M-1916.995,1109.19c-5.082,10.262-5.794-5.545-3.851-19.425.786-4.923,0-3.463-1.55-1.435-8.634,13.792-9.052,40.11,4.235,35.734,4.405-1.916,6.375-10.909,5.306-14.145C-1914.333,1107.513-1915.5,1107.16-1916.995,1109.19Z" fill="#fff"/>
            <path id="Path_7116" data-name="Path 7116" d="M-1660.505,1024.061c3.928,27.873,4.65,61.313,3.194,86.1,3.444,0,8.961-5.643,10.887-13.917,1.171-10.623-.764-48.016-.963-51.6,8.944,14.6,17.613,30.032,26.129,47.041,3.125-1.435,2.475-18.83.617-21.337-6.02-13.091-18.733-34.587-28.423-48.917-.813-9.282-1.674-17.071-2.229-19.427-1.435-9.827,3.991,1.072,3.222-4.674-1.744-9.713-7.142-16.322-13.526-25.3-2.045-2.874-1.948-3.488-5.162.706-4.54,10.334,2.555,15.482-4.674,6.724-5.71-4.9-17.723-16.481-19.273-8.5C-1692.432,985.2-1689.627,980.337-1660.505,1024.061Zm-6.371-34.545c2.95,13.509,2.431,8.9-2.095,3.729C-1673.1,988.36-1668.9,990.079-1666.876,989.516Z" fill="#fff"/>
            <path id="Path_7117" data-name="Path 7117" d="M-1618.671,1096.241c-7.966,8.4-19.462,18.591-31.893,23.265-1.378,1.436,3.262,8.036,9.349,7.909,20.778-2.224,33.319-30.239,33.483-38.6,1.415-65.778-9.4-85.5-6.56-90.778.662-.843,2.883,0,4.052-1.913,1.762-1.8-4.56-16.437-8.162-22.069-1.281-2.507-1.744-4.194-3.871.252-2.222,3.716-3.744,10.189-3.533,16.07,4.829,33.329,6.292,62.717,9.5,96.042C-1616.094,1089.653-1616.516,1094.44-1618.671,1096.241Z" fill="#fff"/>
            <path id="Path_7118" data-name="Path 7118" d="M-1486.506,994.932c.688-1.572,3.967.229,5.072-1.687,1.8-1.686-8.463-15-12.11-20.63-1.236-2.508-1.682-4.2-3.8.365-15.956,25.211,39.11,143.439-16.533,146.285-7.307,4.195-7.307,9.108-1.378,9.232,10.132-1.2,22.106-2.04,30.38-14.508C-1470.928,1091.718-1486.954,995.761-1486.506,994.932Z" fill="#fff"/>
            <path id="Path_7119" data-name="Path 7119" d="M-1562.072,1039.774c.057-4.7.48-10.807.776-14.75.58-6.642,5.628-1.05,5.717-3.488-1.246-16.312-10.9-12.13-11.986-6.587,0,1.261,2.951,8.182-3.05,5.264.077-.067-.681-6.558-7.888-2.028a9.883,9.883,0,0,0-.535,7.546C-1576.254,1030.905-1566.664,1039.637-1562.072,1039.774Z" fill="#fff"/>
            <path id="Path_7120" data-name="Path 7120" d="M-1544.867,1020.116c1.436,18.636,1.866,35.761,3.329,54.422-.249,7.911-2.672,18.581-5.1,19.536-10.252,6.438-12.5-21.536-22.932-11.625-11.618,11.217-12.421,38.334-23.208,27.709-9.713-13.188-4.013-32.018-5.249-27.229-16.6,18.768,7.54,54.027,18.926,40.177,5.033-5.276,5.153-18.591,7.491-21.223,1.7-4.913,5.834-4.07,7.886-1.928a21.094,21.094,0,0,0,7.222,6.249c4.7,4.068,10.366,4.911,15.917,1.07,11.876-6.291,10.727-18.981,9.177-68.707q5.336,7.516,10.578,15.275a382.718,382.718,0,0,1,1.794,47.917c-.421,3.008,10.67-9.235,10.555-14.979-.069-5.055.018-9.64.035-13.9,5.351,8.543,10.543,17.218,15.431,26.005,3.056-1.436,2.013-18.83.123-21.224-25.323-42.846-12.447-6.931-19.823-48.215-8.137-43-3.555-26.166-.707-31.641,1.7-1.8-5.729-21.112-9.57-26.627-1.311-2.532-3.841-1.686-6.826,2.393-4.864,4.416.56,13.812,6.57,58.846-19.86-29.463-10.036-11.762-14.253-36.073-.305-3.194,1.322-.378,3,.137,1.254.229,2.406-1.915,1.657-3.965-11.6-21.37-12.737-25.393-15.506-21.452a8.529,8.529,0,0,0-2.878,6.473c1.41,20.218,3.234,18.713.684,16.048-10.066-10.416,4.617-1.664-1.876-9.938-5.555-5.995-7.2-7.911-11.911-11.513-2.336-1.436-3.8-4.444-4.575.48C-1570.319,993.037-1571.548,984.611-1544.867,1020.116Z" fill="#fff"/>
            <path id="Path_7121" data-name="Path 7121" d="M-1547.9,1250.2c-20.753,2.55-318.756-3.351-318.835-3.351,16.506,24.129,30.614,16.437,273.058,16.437-3.58,6.349,1.59,23.342,8.6,13.429,4.654.353,31.293.706,33.789-.14,1.641,2.419,3.328,4.685,6.44,4.334,5.488-1.209,9.807-1.8,9.991-12.949C-1534.851,1267.958-1535.428,1249.014-1547.9,1250.2Zm-5.42,20.265c0,.282-29.592-.263-32.468-.477-1.757-2.184-.615-5.63.512-5.63,10.909.478,21.226.114,32.247.592C-1551.282,1266.52-1552.183,1269.871-1553.317,1270.463Z" fill="#fff"/>
            <path id="Path_7122" data-name="Path 7122" d="M-1768.65,1024.773c10.24,4.032,11.23-31.323,15.5-22.773-.231,16.071,1.147,19.673,5.244,24.46,9.205,7.067,16.82.957,17.355.229,6.436-5.11,7.8-10.889,13.143-7.32,2.124,1.938,1.858,5.4,6.53,7.685,3.889,1.687,12.287.478,14.27-2.988,2.634-4.445,3.2-6,4.406-7.682,1.915-2.53,5.062-1.435,5.062-.592-.274,1.436-2.065,2.756-.9,5.264,4.949,3.672,10.273-6.309,12.288-12.1.261-6.468-5.085-1.288-7.016-.114-2.246.226-6.679,1.8-8.812-1.575-2.273-4.08-2.273-9.824-4.017-13.9,0-.229-2.935-6.361-.177-6.839,8.969,1.675,4.344-7.883-1.443-14.158-2.756-2.985-6.54-3.351-10.132-.34-2.518,2.279-2.195,5.037-2.69,7.43-1.972,8.959,10.482,16.566,8.066,30.57,0,0-2.742,4.331-7.444,3.831-11.252-2.674-4.463-33.741-10.583-42.9-1.465-3.854-2.492-7.568-6.052-.981-1.015,2.53-5.038,6.361-2.1,14.27,2.393,5.04,3.418,13.086,2.266,22.183-3.752,6.023-6.279,10.583-13.272,7.317-2.451-1.687-4.309-2.508-5.4-7.546.155-8.276.575-21.7-.888-24.6-2.154-4.536-5.848-2.871-7.376-1.551-14.424,13.054-12.959,41.447-19.387,29.751-3.784-3.487-4.058-31.3-8.64-26.74C-1788.164,1003.915-1776.616,1026.94-1768.65,1024.773Z" fill="#fff"/>
            <path id="Path_7123" data-name="Path 7123" d="M-1659.505,1070.095c.09,0,.182-.217.062-.458-3.112-1.861,4.041-1.286-45.113-1.572a3.56,3.56,0,0,1-1.407-.844c0-3.216,29.534-.208,31.054-23.253-.149-9.117-3.836-15-15.068-16.665-8.22.706-14.061,8.617-13.16,17.4-.366,2.256.833,6.93-1.573,7.43-15.792,1.553-33.005,11.377-33.632,18.467-2.065,0-3.01-2.314-2.821-4.331-.865-17.867-9.784-39.078-14.685-39.917-.458,0-1.288,1.021-2.908,2.257-9.466,10.946,12.541,28.127,7.854,54.325-5.237,11.511-15.947,21.713-26.229,27.343-10.983,3.495-14.864-2.57-13.9-6.349.092,0,18.191-9.916,26.433-27.218,6.261-17.332-3.717-28.56-3.717-28.794,1.47-.706,5.284,2.167,5.9.366-4.41-22.347-24.285-20.171-19.2-.706,1.7,4.057,6.349,4.786,9.642,13.175,0,.328,1.11,6.443-.569,8.891-1.548,4.8-19.868,18.36-19.868,18.693-.912,0,.57-10.339.57-12.217-4.311,0-8.637,18.25-8.662,18.327-14.4,9.849-30.7,17.28-40.11,27.46-4.914,7.555,33.778-8.869,38.251-10.785.936,0,.72,3.841,3.633,7.192,4.04,5.518,12.555,8.869,20.852,6.829,24.012-8.654,29.726-30.967,34.863-26.842,5.613,12.583,21.825,21.451,42.782,22.407,10.053-12.223-8.383-10.5-11.369-18.1-.918-3.478,1.361-6.59,6.063-8.983,13.4-1.572,26.674-3.488,39.481-7.568C-1665.99,1082.347-1663.565,1073.58-1659.505,1070.095Zm-35.425-26.855c.86-3.463,9.508,1.1,7.135,3.965C-1689.529,1048.942-1694.93,1046.257-1694.93,1043.24Zm-17.116,42.948c-14.715,4.971-6.449,11.735-9.078,15.2,0,.122-.3.49-.4.49-10.045,0-23.693-23.629-11.262-23.629,4.769,1.322,11.837,1.436,17.947,2.053C-1709.862,1080.673-1707.4,1084.5-1712.046,1086.188Z" fill="#fff"/>
            <path id="Path_7124" data-name="Path 7124" d="M-1871.222,983.285c3.674,1.684,15.234,3.393,13.63-10.3-.956-2.418-3.772-1.915-4.376.592-.2.73.309,2.053-.381,2.508-.458.363-2.012.137-1.978-2.03,0-1.861-1.925-3.279-2.885-1.435-.687,1.744-.028,2.679-1.4,3.01-3.157,0-.406-3.346-3.214-3.968C-1875.887,971.657-1875.658,981.4-1871.222,983.285Z" fill="#fff"/>
            <path id="Path_7125" data-name="Path 7125" d="M-1726.286,1044.7c4.951,2.256,16.693.957,13.877-6.725,0-7.448-4.016-5.548-4.675-3.122-.154.84.383,2.164-.323,2.642-.423.343-2.013,0-1.986-2.165,0-1.592-1.738-3.174-2.967-1.32-.555,2.109-.147,2.729-1.351,3.007-3.063,0-.4-3.331-3.237-3.966C-1730.98,1033.049-1730.659,1042.682-1726.286,1044.7Z" fill="#fff"/>
            <path id="Path_7126" data-name="Path 7126" d="M-1641.752,1019.255c4.913,2.281,14.215,1.209,13.809-6.7,0-.614-.142-3.008-.2-3.714-1.055-2.281-3.841-1.8-4.376.706-.251.729.267,2.05-.452,2.394-.351.5-1.981.251-1.926-2.028a4.227,4.227,0,0,0-.8-1.915c-3.324-1.413-1.491,3.167-3.506,3.6-3.187,0-.226-3-3.209-3.851C-1646.613,1007.744-1646.056,1017.449-1641.752,1019.255Z" fill="#fff"/>
            <path id="Path_7127" data-name="Path 7127" d="M-1638.428,988.32c1.714,4.925-1.312,9.6.477,10.329,1.717.821,4.013-5.177,4.913-10.578,1.028-4.423-2.084-13.292-6.49-15.091-2.737-.731-6.573.956-5.307,4.558C-1645.469,979.339-1639.471,985.083-1638.428,988.32Z" fill="#fff"/>
            <path id="Path_7128" data-name="Path 7128" d="M-1592.83,1103.923c3.42,0,7.376-7.8,9.08-15.593,1.59-18.049-8.521-83.051-9.466-86.216-1.682-8.983,6.689-1.208,5.719-6.475-2.883-6.588-10.063-16.3-12.287-22.067-1.435-2.507-.841-4.674-3.895-.592-2.759,9.232-3.787,16.663-2.732,22.544C-1599.132,1033.413-1591.689,1067.951-1592.83,1103.923Z" fill="#fff"/>
            <path id="Path_7129" data-name="Path 7129" d="M-1507.068,1002.478c.814,2.395-1.169,10.418.478,11.147,1.562.844,3.687-5.515,4.475-11.4.438-3.236-1.9-14.384-6.035-16.526-2.366-.617-5.871,1.072-4.759,5.015C-1513.474,992.629-1508.025,998.99-1507.068,1002.478Z" fill="#fff"/>
            <path id="Path_7130" data-name="Path 7130" d="M-1806.743,1088.445c1.436.49,3.476-4.058,4.252-8.389.451-2.394-1.858-10.67-5.672-12.1-2.421-.481-5.63.114-4.615,3.6-.114,1.915,5.25,4.194,5.555,8.617C-1806.416,1081.971-1808.372,1087.853-1806.743,1088.445Z" fill="#fff"/>
            <path id="Path_7131" data-name="Path 7131" d="M-1910.855,982.941c.774,1.916-.689,8.026.814,8.5,3.1,1.233,8.53-18.3-1.361-21.224-2.354-.617-5.63.844-4.52,3.829C-1916.5,975.486-1911.671,980.183-1910.855,982.941Z" fill="#fff"/>
            <path id="Path_7132" data-name="Path 7132" d="M-1798.861,1009.8c-4.406,2.257-6.063,9.347-3.321,13.542,2.483,3.465,6.557,2.164,7.065,2.164,4.465.617,11.812-14.837,1.916-5.881-4.046.9-3.787-5.018-2.337-8.274C-1794.752,1009.18-1796.4,1008.224-1798.861,1009.8Z" fill="#fff"/>
            <path id="Path_7133" data-name="Path 7133" d="M-1765.914,983.285a5.8,5.8,0,0,0,2.69-3.832c.691-3.373-3.505,1.551-4.068-2.166-.9-3.463,1.767-4.787,4.341-8.275.058-2.278,0-3.828-3.144-2.03C-1775.37,973.162-1774.872,988.33-1765.914,983.285Z" fill="#fff"/>
            <path id="Path_7134" data-name="Path 7134" d="M-1736.237,985.2c6.8-18.325-.045-21.823-3.393-13.541-.955,2.167-2.1,13.063-1.914,13.063C-1742.33,987.957-1738.1,989.414-1736.237,985.2Z" fill="#fff"/>
            <path id="Path_7135" data-name="Path 7135" d="M-1549.6,1039.637s-22.872,16.322-23.482,16.8c-2.239,2.03-1.1,9.12,0,8.391,1.659.592,24.679-15,24.256-16.917C-1547.782,1048.049-1547.265,1038.816-1549.6,1039.637Z" fill="#fff"/>
            <path id="Path_7136" data-name="Path 7136" d="M-1552.417,1083.884c1.55.729,5.59-4.308,5.448-10.53.45-3.259-1.139-15-5.214-17.054-2.456-.706-5.789,1.46-4.65,5.4-.6,1.916,2.849,8.392,3.807,11.877C-1552.245,1076.113-1554.1,1083.066-1552.417,1083.884Z" fill="#fff"/>
            <path id="Path_7137" data-name="Path 7137" d="M-1677.969,1118.549c4.769-1.8,7.829-3.717,14.539-5.165,1.709,0,1.686-4.786-1.17-4.786-3.617,0-6.953.226-10.627,3.122-5.394,1.438-2.018-8.2-2.224-9.369a3.9,3.9,0,0,0-4.411-.821c-.035,0-4.976,3.351-6.531,5.63-1.46,1.042-1.089,5.548,2.993,3,2.038-.125,3.025,1.2,2.814,3.592C-1683.83,1117.892-1680.847,1120.2-1677.969,1118.549Z" fill="#fff"/>
            <path id="Path_7138" data-name="Path 7138" d="M-1517.258,1120.223a2.918,2.918,0,0,0,.929-3.476c-.929-1.072-3-.48-4.406-.48-.729,0-2.914-.477-1.859-2.278,4.4-6.7,1.187-7.193-6.684-6.829-1.476.353-1.983,1.072-2.252,2.759.087,2.632,1.734,2.507,3.448,3.59,2.565,3.542-.445,4.495-4.433,8.276-.729,1.321-1.209,3.237,1.072,3.829C-1527.181,1126.823-1517.258,1120.462-1517.258,1120.223Z" fill="#fff"/>
          </g>
        </g>
      </g>
    </g>
  </g>
</svg>
