<svg xmlns="http://www.w3.org/2000/svg" xmlns:xlink="http://www.w3.org/1999/xlink" width="291.65" height="332.632" viewBox="0 0 291.65 332.632">
  <defs>
    <clipPath id="clip-path">
      <path id="Path_19793" data-name="Path 19793" d="M302.863,507,435,356.284,567.136,507,435,657.715Z" fill="none"/>
    </clipPath>
  </defs>
  <g id="Group_4464" data-name="Group 4464" transform="translate(-289.192 -340.684)">
    <path id="Path_7082" data-name="Path 7082" d="M289.192,507,435.017,340.684,580.843,507,435.017,673.316Z" fill="#fff"/>
    <g id="Group_4463" data-name="Group 4463">
      <g id="Group_12778" data-name="Group 12778">
        <g id="Group_12777" data-name="Group 12777" clip-path="url(#clip-path)">
          <g id="Group_12776" data-name="Group 12776">
            <path id="Path_19789" data-name="Path 19789" d="M105.862,356H764.138V658H105.862V356Z" fill="#fff"/>
            <path id="Path_19790" data-name="Path 19790" d="M454.8,478.844c11.238,8.968,25.316,30.764,8.509,56.989,24.31-14.142,16.994-52.685-8.509-56.989Zm-34.418,0c-11.238,8.968-25.308,30.764-8.5,56.989-24.311-14.142-16.981-52.685,8.5-56.989Zm17.212,71.066-3.188-4.232v-1.345a35.84,35.84,0,0,1-18.52-.777s11.631-.479,15.186-2.727c-22.768-9.931-26.161-44.417-7.439-60.611-11.2,17.655-7.671,44.48,10.438,55.167l-1.322-54.343s2.414-.462,4.845-3.846c2.433,3.384,4.852,3.846,4.852,3.846l-1.335,54.343c18.114-10.687,21.643-37.512,10.444-55.167,18.715,16.194,15.329,50.68-7.438,60.611,3.554,2.248,15.193,2.727,15.193,2.727a35.873,35.873,0,0,1-18.529.777v1.345l-3.187,4.232ZM427.27,469.8s3.5,8.712,10.323,1.729c6.825,6.983,10.316-1.729,10.316-1.729.994,3.806-1.025,7.268-4.741,7.832a5.767,5.767,0,0,1-5.575-2.242c-3.29,4.951-12.227,1.709-10.323-5.59Z" fill="#ff0203"/>
            <path id="Path_19791" data-name="Path 19791" d="M105.862,356H764.138V456.893h0v-2.5H731.077v2.5h-3.666v-2.5H694.4v2.5h-3.833v-2.5H657.529v2.5h-3.685v-2.5H620.819v2.5h-3.814v-2.5H583.971v2.5h-3.7v-2.5H547.253v2.5h-3.815v-2.5H510.4v2.5h-3.685v-2.5H473.7v2.5h-3.823v-2.5H436.828v2.5h-3.685v-2.5H400.137v2.5h-3.814v-2.5H363.261v2.5H359.6v-2.5H326.562v2.5h-3.816v-2.5H289.7v2.5h-3.684v-2.5H252.995v2.5H249.18v-2.5H216.128v2.5h-3.676v-2.5H179.437v2.5h-3.816v-2.5H142.569v2.5h-3.684v-2.5H105.862V451.89h3.647v-5.067h11.052v5.067h18.324v-7.573H127.834v2.506h7.406v2.561H124.206v-5.067H105.862v-2.526h47.713v-2.507H105.862V356Zm592.161,95.89v-5.067h11.053v5.067h18.335v-7.573H716.35v2.506h7.405v2.561H712.721v-5.067H694.4v7.573Zm44.059-10.1v-2.507H694.4v2.507Zm18.4,7.593h-3.8v-10.1H753.05v10.1h-3.676v-10.1h-3.646v5.033H731.077v7.573h11v-2.506h-7.359v-2.561h11.005v5.067h18.41V439.284h-3.654v10.1Zm-55.055,2.506v-2.506h-3.684v2.506Zm-80.972,0v-5.067h11.051v5.067h18.336v-7.573H642.792v2.506H650.2v2.561H639.146v-5.067H620.819v7.573Zm44.057-10.1v-2.507h-47.7v2.507Zm18.4,7.593h-3.8v-10.1h-3.647v10.1H675.8v-10.1h-3.647v5.033H657.529v7.573h10.985v-2.506h-7.339v-2.561h10.976v5.067h18.412V439.284h-3.648v10.1Zm-55.052,2.506v-2.506h-3.684v2.506Zm-80.964,0v-5.067h11.043v5.067h18.327v-7.573H569.234v2.506h7.407v2.561H565.589v-5.067H547.253v7.573Zm44.059-10.1v-2.507H547.253v2.507Zm18.4,7.593h-3.8v-10.1h-3.647v10.1h-3.683v-10.1h-3.637v5.033H583.971v7.573h10.987v-2.506H587.6v-2.561h11v5.067h18.41V439.284h-3.646v10.1Zm-55.053,2.506v-2.506h-3.684v2.506Zm-80.964,0v-5.067h11.034v5.067h18.335v-7.573H495.668v2.506h7.4v2.561H492.031v-5.067H473.7v7.573Zm44.05-10.1v-2.507H473.7v2.507Zm18.409,7.593h-3.807v-10.1h-3.636v10.1h-3.683v-10.1h-3.648v5.033H510.4v7.573h11v-2.506h-7.361v-2.561h11v5.067h18.411V439.284H539.8v10.1Zm-55.062,2.506v-2.506h-3.676v2.506Zm-80.974,0v-5.067h11.053v5.067h18.325v-7.573H422.091v2.506h7.416v2.561H418.465v-5.067H400.137v7.573Zm44.049-10.1v-2.507H400.137v2.507Zm18.429,7.593h-3.815v-10.1h-3.646v10.1h-3.674v-10.1H451.46v5.033H436.828v7.573h10.986v-2.506h-7.34v-2.561H451.46v5.067h18.422V439.284h-3.639v10.1Zm-55.071,2.506v-2.506h-3.684v2.506Zm-80.973,0v-5.067h11.053v5.067H359.6v-7.573h-11.06v2.506h7.4v2.561H344.887v-5.067H326.562v7.573Zm44.057-10.1v-2.507H326.562v2.507Zm18.411,7.593h-3.8v-10.1h-3.648v10.1h-3.684v-10.1h-3.626v5.033H363.261v7.573h11v-2.506h-7.339v-2.561h11v5.067h18.41V439.284h-3.656v10.1ZM337.6,451.89v-2.506H333.92v2.506Zm-80.972,0v-5.067h11.061v5.067h18.326v-7.573H274.968v2.506h7.4v2.561H271.331v-5.067H252.995v7.573Zm44.068-10.1v-2.507H252.995v2.507Zm18.408,7.593h-3.8v-10.1h-3.646v10.1h-3.684v-10.1h-3.637v5.033H289.7v7.573h11v-2.506h-7.359v-2.561h10.995v5.067h18.41V439.284h-3.638v10.1Zm-55.06,2.506v-2.506h-3.685v2.506Zm-80.984,0v-5.067h11.053v5.067h18.335v-7.573H201.4v2.506h7.406v2.561H197.773v-5.067H179.437v7.573Zm44.069-10.1v-2.507h-47.7v2.507Zm18.411,7.593h-3.808v-10.1H238.1v10.1h-3.683v-10.1h-3.648v5.033H216.128v7.573h11v-2.506h-7.351v-2.561h10.987v5.067H249.18V439.284h-3.636v10.1Zm-55.063,2.506v-2.506h-3.686v2.506Zm-18.506-2.506H168.17v-10.1h-3.646v10.1h-3.675v-10.1H157.2v5.033H142.569v7.573h11.006v-2.506h-7.368v-2.561H157.2v5.067h18.419V439.284h-3.646v10.1Zm-55.062,2.506v-2.506h-3.684v2.506Z" fill="#00991f"/>
            <path id="Path_19792" data-name="Path 19792" d="M116.913,574.72v-2.51h-3.684v2.51Zm25.656-17.609V559.6h33.052v-2.492h3.816V559.6h33.015v-2.492h3.676V559.6H249.18v-2.492h3.815V559.6h33.024v-2.492H289.7V559.6h33.043v-2.492h3.816V559.6H359.6v-2.492h3.666V559.6h33.062v-2.492h3.814V559.6h33.006v-2.492h3.685V559.6h33.054v-2.492H473.7V559.6h33.006v-2.492H510.4V559.6h33.042v-2.492h3.815V559.6h33.016v-2.492h3.7V559.6h33.034v-2.492h3.814V559.6h33.025v-2.492h3.685V559.6h33.034v-2.492H694.4V559.6h33.015v-2.492h3.666V559.6h33.061v-2.492h0V658H105.862V574.72h3.647v-5.072h11.052v5.072h18.324v-7.578H127.834v2.506h7.406v2.562H124.206v-5.068H105.862v-2.53h47.713v-2.5H105.862V559.6h33.023v-2.492Zm562.86,17.609v-2.51h-3.684v2.51Zm-7.406,0v-5.072h11.053v5.072h18.335v-7.578H716.35v2.506h7.405v2.562H712.721v-5.068H694.4v7.578Zm44.059-10.108v-2.5H694.4v2.5Zm18.4,7.6h-3.8v-10.1H753.05v10.1h-3.676v-10.1h-3.646v5.033H731.077v7.578h11v-2.51h-7.359v-2.562h11.005v5.072h18.41V562.109h-3.654v10.1Zm-128.621,2.51v-2.51h-3.684v2.51Zm-7.406,0v-5.072h11.051v5.072h18.336v-7.578H642.792v2.506H650.2v2.562H639.146v-5.068H620.819v7.578Zm44.057-10.108v-2.5h-47.7v2.5Zm18.4,7.6h-3.8v-10.1h-3.647v10.1H675.8v-10.1h-3.647v5.033H657.529v7.578h10.985v-2.51h-7.339v-2.562h10.976v5.072h18.412V562.109h-3.648v10.1Zm-128.609,2.51v-2.51h-3.684v2.51Zm-7.407,0v-5.072h11.043v5.072h18.327v-7.578H569.234v2.506h7.407v2.562H565.589v-5.068H547.253v7.578Zm44.059-10.108v-2.5H547.253v2.5Zm18.4,7.6h-3.8v-10.1h-3.647v10.1h-3.683v-10.1h-3.637v5.033H583.971v7.578h10.987v-2.51H587.6v-2.562h11v5.072h18.41V562.109h-3.646v10.1Zm-128.62,2.51v-2.51h-3.676v2.51Zm-7.4,0v-5.072h11.034v5.072h18.335v-7.578H495.668v2.506h7.4v2.562H492.031v-5.068H473.7v7.578Zm44.05-10.108v-2.5H473.7v2.5Zm18.409,7.6h-3.807v-10.1h-3.636v10.1h-3.683v-10.1h-3.648v5.033H510.4v7.578h11v-2.51h-7.361v-2.562h11v5.072h18.411V562.109H539.8v10.1Zm-128.629,2.51v-2.51h-3.684v2.51Zm-7.407,0v-5.072h11.053v5.072h18.325v-7.578H422.091v2.506h7.416v2.562H418.465v-5.068H400.137v7.578Zm44.049-10.108v-2.5H400.137v2.5Zm18.429,7.6h-3.815v-10.1h-3.646v10.1h-3.674v-10.1H451.46v5.033H436.828v7.578h10.986v-2.51h-7.34v-2.562H451.46v5.072h18.422V562.109h-3.639v10.1ZM337.6,574.72v-2.51H333.92v2.51Zm-7.4,0v-5.072h11.053v5.072H359.6v-7.578h-11.06v2.506h7.4v2.562H344.887v-5.068H326.562v7.578Zm44.057-10.108v-2.5H326.562v2.5Zm18.411,7.6h-3.8v-10.1h-3.648v10.1h-3.684v-10.1h-3.626v5.033H363.261v7.578h11v-2.51h-7.339v-2.562h11v5.072h18.41V562.109h-3.656v10.1Zm-128.619,2.51v-2.51h-3.685v2.51Zm-7.416,0v-5.072h11.061v5.072h18.326v-7.578H274.968v2.506h7.4v2.562H271.331v-5.068H252.995v7.578ZM300.7,564.612v-2.5H252.995v2.5Zm18.408,7.6h-3.8v-10.1h-3.646v10.1h-3.684v-10.1h-3.637v5.033H289.7v7.578h11v-2.51h-7.359v-2.562h10.995v5.072h18.41V562.109h-3.638v10.1Zm-128.627,2.51v-2.51h-3.686v2.51Zm-7.417,0v-5.072h11.053v5.072h18.335v-7.578H201.4v2.506h7.406v2.562H197.773v-5.068H179.437v7.578Zm44.069-10.108v-2.5h-47.7v2.5Zm18.411,7.6h-3.808v-10.1H238.1v10.1h-3.683v-10.1h-3.648v5.033H216.128v7.578h11v-2.51h-7.351v-2.562h10.987v5.072H249.18V562.109h-3.636v10.1Zm-73.569,0H168.17v-10.1h-3.646v10.1h-3.675v-10.1H157.2v5.033H142.569v7.578h11.006v-2.51h-7.368v-2.562H157.2v5.072h18.419V562.109h-3.646v10.1Z" fill="#ff0203"/>
          </g>
        </g>
      </g>
    </g>
  </g>
</svg>
