<svg xmlns="http://www.w3.org/2000/svg" xmlns:xlink="http://www.w3.org/1999/xlink" viewBox="0 0 16.937 19.318">
  <defs>
    <clipPath id="clip-path">
      <path id="Path_7085" data-name="Path 7085" d="M157.37,367.257l7.674-8.753,7.674,8.753-7.674,8.753Z" transform="translate(-157.37 -358.504)" fill="none"/>
    </clipPath>
  </defs>
  <g id="Group_4464" data-name="Group 4464" transform="translate(-111.485 -306.169)">
    <path id="Path_7082" data-name="Path 7082" d="M111.485,315.828l8.469-9.659,8.469,9.659-8.469,9.659Z" fill="#fff"/>
    <g id="Group_4463" data-name="Group 4463" transform="translate(112.279 307.075)">
      <g id="Group_4462" data-name="Group 4462" transform="translate(0 0)" clip-path="url(#clip-path)">
        <g id="Group_4461" data-name="Group 4461" transform="translate(-9.148 -2.461)">
          <path id="Path_7083" data-name="Path 7083" d="M-371.065,216.355h33.644v22.428h-33.644V216.355Z" transform="translate(371.065 -216.355)" fill="#f20300"/>
          <path id="Path_7084" data-name="Path 7084" d="M399.186,659.627l.546,1.622h2.689l-.748.524-1.427,1,.544,1.616.279.83-.717-.5-1.44-1.009-1.44,1.009-.717.5.279-.83.544-1.616-1.428-1-.748-.524h2.689l.547-1.622.273-.811.274.811Zm.741,2.2.061.182.066.2.541-.38Zm-.485.365-.123-.365h-.813l-.124.365-.12.359.319.224.332.232.331-.232.319-.224-.121-.359Zm-.318-.942-.212-.629-.211.629h.423Zm.84,2.494-.21-.624-.181.127-.159.112.551.386Zm-1.553-.386-.16-.112-.182-.127-.21.624.551-.386Zm-1.182-1.531.541.38.066-.2.062-.182Z" transform="translate(-382.136 -651.157)" fill="#008c1c"/>
        </g>
      </g>
    </g>
  </g>
</svg>
