<svg xmlns="http://www.w3.org/2000/svg" xmlns:xlink="http://www.w3.org/1999/xlink" width="291.65" height="332.632" viewBox="0 0 291.65 332.632">
  <defs>
    <clipPath id="clip-path">
      <path id="Path_21754" data-name="Path 21754" d="M302.863,507,435,356.284,567.136,507,435,657.715Z" fill="none"/>
    </clipPath>
  </defs>
  <g id="Group_4464" data-name="Group 4464" transform="translate(-289.192 -340.684)">
    <path id="Path_7082" data-name="Path 7082" d="M289.192,507,435.017,340.684,580.843,507,435.017,673.316Z" fill="#fff"/>
    <g id="Group_4463" data-name="Group 4463">
      <g id="Group_13974" data-name="Group 13974">
        <g id="Group_13973" data-name="Group 13973" clip-path="url(#clip-path)">
          <g id="Group_13972" data-name="Group 13972">
            <path id="Path_21725" data-name="Path 21725" d="M807.929,658V356H62.071V658Z" fill="#00a133"/>
            <g id="Group_13971" data-name="Group 13971">
              <path id="Path_21726" data-name="Path 21726" d="M367.3,478.985c4.607.423,2.07-7.817,3.725-9.311.319-.729.9-.729.95.189,0,8.1-.639,9.108,2.626,10.391,3.214-.214,2.472.485,3.048,13.223,0,0,2.816.839,2.951-6.783.138-5.012-1.816-11.549,1.581-9.545,1.206.846,1.746,1.88,3.61,1.458,2.857-.809,4.552-2.15,4.6-4.372-.44-5.756-1.909-7.422-1.7-7.971.508.809,1.273.728,1.445,0-1.351-4.608-4.642-5.562-5.493-2.609-.471,4.462,3.522,6.415,2.926,10.084a1.855,1.855,0,0,1-2.332-.459c-4.724-3.565-.575-1.395-2.477-7.476-.23-1.457-.951-1.952-1.507-2.914-2.163-2.494-3.005,3.666-1.514,7.133.511,1.53,1.323,2.485.951,2.485-.319.882-.958.655-1.428-.342-1.069-3.291-.483-11.323-2.357-12.919-.69-.918-1.725-.459-2.089.422-.227,5.681.2,3.473,1.521,13.036.1,3.8-2.183,1.646-2.087-.27,2.284-10.221-4.1-12.141-5.539.343-.265,1.726-1.408,2.951-2.2-.27-.71-2.339-1.124-8.081-2.284-6.74C363.9,470.249,363.487,478.184,367.3,478.985Z" fill="#fff"/>
              <path id="Path_21727" data-name="Path 21727" d="M374.244,482.242c-3.784.081-9.349,4.984-9.515,7.709,4-1.916,7.953-3.759,12.024-5.785C376.087,483.2,376.717,482.323,374.244,482.242Z" fill="#fff"/>
              <path id="Path_21728" data-name="Path 21728" d="M395.18,496.961c1.7-5.7-.131-9.131.631-10.15,2.069,2.179,4.885.263,5.519-.466a.953.953,0,0,1,1.418-.153c1.573,1.151,4.353.619,4.925-1.377a46.148,46.148,0,0,0,.688-6.1,5.877,5.877,0,0,0-2.2.925c-.417.417-.106,2-.666,2.34a.675.675,0,0,1-1.035-.46c-.481-2.186-2.492-2.536-3.719.918-.842.685-2.318.8-2.484-.153.212-2.338-.733-2.645-2.6-1.574-2.658-20.572-2.009-10.958.4-13.873-.26-.813-2.484-7.781-3.342-7.781-.745-.745-3.477.241-3.009,2.761,1.16,7.053,1.9,12.416,3.058,19.433a1.509,1.509,0,0,1-1.39,1.836c-1.524-1.035-1.9-3.14-4.485-3.024a5.1,5.1,0,0,0-4.293,4.022,10.241,10.241,0,0,0,0,4.6c1.336,1.61,2.931,1.421,4.293,1.078,1.13-.467,2.079-1.617,2.484-1.348,1.688,3.181-9.546,12.006-12.648,6.1-.853-1.691.068-8.052-2.06-6.594-6.334,16.329,14.811,18.627,17.177.691.227-.726,1.145-1.478,1.265-.232-.49,16.212-16.346,17.287-19.036,12.226-.689-1.224-.882-3.869-.949-5.48-.412-3.277-2.073-1.926-2.348,1.188C368.022,514.257,391.619,508.291,395.18,496.961Zm-7.916-11.075c-.238.394-3.363.357-1.559-1.647C387.439,482.976,388.092,485.886,387.264,485.886Z" fill="#fff"/>
              <path id="Path_21729" data-name="Path 21729" d="M397.011,471.357c4.74,0,3.277,2.381,11.773-7.352-.678-.619-1.6-.961-.909-1.573,2.069-1.23.812-5.426-2.991-3.644a2.785,2.785,0,0,0-.478,3.644c.806.341,1.611,1.187,1.066,1.61C403.043,466.627,397.011,470.655,397.011,471.357Zm9.025-10.843c.372-.035.8.343,1.024.8.55,1.158-.725,1.647-1.369.35C405.387,460.984,405.725,460.514,406.036,460.514Z" fill="#fff"/>
              <path id="Path_21730" data-name="Path 21730" d="M366.878,502.4c-1.624,3.28-1.852-1.773-1.231-6.209.252-1.573,0-1.107-.495-.459-2.76,4.409-2.893,12.82,1.353,11.422,1.409-.612,2.038-3.487,1.7-4.521C367.729,501.868,367.356,501.755,366.878,502.4Z" fill="#fff"/>
              <path id="Path_21731" data-name="Path 21731" d="M448.857,475.2a150.361,150.361,0,0,1,1.021,27.518c1.1,0,2.865-1.8,3.48-4.448.374-3.4-.244-15.347-.308-16.493,2.859,4.667,5.63,9.6,8.351,15.036,1-.459.792-6.019.2-6.82a133.653,133.653,0,0,0-9.085-15.635c-.26-2.967-.535-5.456-.712-6.209-.459-3.141,1.275.342,1.03-1.494-.558-3.1-2.283-5.217-4.324-8.088-.653-.918-.622-1.114-1.649.226-1.452,3.3.816,4.948-1.495,2.149-1.824-1.565-5.664-5.267-6.159-2.717C438.653,462.773,439.55,461.22,448.857,475.2Zm-2.036-11.041c.943,4.317.777,2.844-.669,1.192C444.83,463.784,446.175,464.333,446.821,464.154Z" fill="#fff"/>
              <path id="Path_21732" data-name="Path 21732" d="M462.229,498.265c-2.547,2.685-6.221,5.942-10.194,7.436-.441.459,1.042,2.568,2.988,2.528,6.641-.711,10.649-9.665,10.7-12.339.452-21.024-3.006-27.327-2.1-29.015.211-.269.921,0,1.3-.611.563-.576-1.457-5.253-2.609-7.054-.409-.8-.557-1.34-1.237.081a10.268,10.268,0,0,0-1.129,5.136c1.543,10.653,2.011,20.046,3.037,30.7C463.052,496.159,462.917,497.689,462.229,498.265Z" fill="#fff"/>
              <path id="Path_21733" data-name="Path 21733" d="M504.471,465.885c.22-.5,1.268.073,1.621-.539.574-.539-2.705-4.8-3.871-6.594-.4-.8-.537-1.341-1.215.116-5.1,8.058,12.5,45.846-5.284,46.756-2.335,1.341-2.335,2.911-.441,2.951,3.239-.383,7.066-.652,9.711-4.637C509.45,496.819,504.328,466.15,504.471,465.885Z" fill="#fff"/>
              <path id="Path_21734" data-name="Path 21734" d="M480.319,480.217c.018-1.5.153-3.454.248-4.714.185-2.123,1.8-.336,1.827-1.115-.4-5.214-3.485-3.877-3.831-2.106,0,.4.943,2.616-.975,1.683.025-.022-.218-2.1-2.521-.648a3.156,3.156,0,0,0-.171,2.412C475.786,477.382,478.851,480.173,480.319,480.217Z" fill="#fff"/>
              <path id="Path_21735" data-name="Path 21735" d="M485.818,473.934c.459,5.956.6,11.43,1.064,17.394-.08,2.529-.854,5.939-1.629,6.244-3.277,2.058-3.995-6.883-7.329-3.715-3.714,3.585-3.97,12.252-7.418,8.856-3.1-4.215-1.283-10.233-1.678-8.7-5.306,6,2.41,17.268,6.049,12.842,1.609-1.687,1.647-5.942,2.395-6.784a1.421,1.421,0,0,1,2.52-.616,6.745,6.745,0,0,0,2.308,2,3.887,3.887,0,0,0,5.088.342c3.8-2.01,3.428-6.066,2.933-21.96q1.705,2.4,3.381,4.883a122.388,122.388,0,0,1,.573,15.315c-.134.961,3.411-2.952,3.374-4.788-.022-1.616.006-3.081.011-4.442,1.71,2.73,3.37,5.5,4.932,8.311.977-.459.643-6.018.039-6.783-8.093-13.7-3.978-2.215-6.335-15.41-2.6-13.744-1.137-8.364-.226-10.114.545-.576-1.831-6.747-3.059-8.51-.419-.81-1.228-.539-2.182.765-1.554,1.411.179,4.414,2.1,18.808-6.348-9.417-3.208-3.76-4.555-11.53-.1-1.021.422-.121.958.044.4.073.769-.612.529-1.267-3.706-6.83-4.071-8.116-4.956-6.857a2.728,2.728,0,0,0-.92,2.069c.451,6.462,1.034,5.981.219,5.13-3.217-3.33,1.476-.532-.6-3.177a25.536,25.536,0,0,0-3.808-3.68c-.746-.459-1.215-1.42-1.462.154C477.683,465.279,477.29,462.586,485.818,473.934Z" fill="#fff"/>
              <path id="Path_21736" data-name="Path 21736" d="M484.849,547.473c-6.633.815-101.88-1.071-101.906-1.071,5.276,7.712,9.785,5.253,87.275,5.253-1.144,2.029.508,7.461,2.749,4.292,1.488.113,10,.226,10.8-.044.525.773,1.064,1.5,2.059,1.385,1.754-.387,3.134-.576,3.193-4.139C489.019,553.149,488.834,547.094,484.849,547.473Zm-1.732,6.477c0,.09-9.459-.084-10.378-.153-.561-.7-.2-1.8.164-1.8,3.487.153,6.784.036,10.307.189A1.277,1.277,0,0,1,483.117,553.95Z" fill="#fff"/>
              <path id="Path_21737" data-name="Path 21737" d="M414.292,475.422c3.273,1.289,3.589-10.011,4.955-7.278-.074,5.136.366,6.288,1.676,7.817a4.173,4.173,0,0,0,5.547.074c2.057-1.634,2.493-3.481,4.2-2.34.679.62.594,1.727,2.088,2.457,1.242.539,3.927.152,4.56-.955.843-1.421,1.023-1.917,1.409-2.456.612-.808,1.618-.459,1.618-.189-.088.459-.66.881-.287,1.683,1.582,1.173,3.284-2.017,3.928-3.869.083-2.067-1.626-.412-2.243-.036-.718.072-2.135.575-2.816-.5-.727-1.3-.727-3.14-1.284-4.444,0-.073-.938-2.033-.057-2.186,2.867.536,1.389-2.519-.461-4.525a2.177,2.177,0,0,0-3.238-.109c-.8.729-.7,1.61-.86,2.375-.63,2.864,3.35,5.295,2.578,9.771a2.714,2.714,0,0,1-2.379,1.225c-3.6-.855-1.427-10.785-3.383-13.713-.468-1.232-.8-2.419-1.934-.314-.325.809-1.61,2.034-.67,4.561a13.5,13.5,0,0,1,.724,7.09c-1.2,1.925-2.007,3.383-4.242,2.339a3.125,3.125,0,0,1-1.727-2.412c.049-2.645.183-6.936-.284-7.862a1.4,1.4,0,0,0-2.358-.495c-4.61,4.172-4.142,13.247-6.2,9.509-1.21-1.115-1.3-10-2.762-8.547C408.055,468.756,411.746,476.115,414.292,475.422Z" fill="#fff"/>
              <path id="Path_21738" data-name="Path 21738" d="M449.177,489.908c.029,0,.058-.069.02-.146-.995-.6,1.291-.411-14.419-.5a1.136,1.136,0,0,1-.45-.269c0-1.028,9.44-.067,9.926-7.432-.048-2.915-1.226-4.8-4.817-5.327a4.9,4.9,0,0,0-4.206,5.56c-.117.721.267,2.215-.5,2.375-5.048.5-10.549,3.636-10.75,5.9-.66,0-.962-.74-.9-1.384-.277-5.711-3.128-12.49-4.694-12.758-.146,0-.412.326-.93.721-3.025,3.5,4.009,8.99,2.511,17.363a20.3,20.3,0,0,1-8.383,8.74c-3.511,1.117-4.751-.822-4.445-2.03.03,0,5.815-3.169,8.449-8.7a9.532,9.532,0,0,0-1.188-9.2c.47-.226,1.689.692,1.887.117-1.41-7.143-7.762-6.447-6.139-.226.545,1.3,2.029,1.53,3.082,4.211,0,.1.355,2.06-.182,2.842-.494,1.535-6.35,5.868-6.35,5.974-.292,0,.182-3.3.182-3.9-1.378,0-2.76,5.833-2.768,5.857-4.6,3.148-9.812,5.523-12.82,8.777-1.571,2.415,10.8-2.835,12.226-3.447.3,0,.23,1.228,1.161,2.3a6.523,6.523,0,0,0,6.664,2.183c7.675-2.767,9.5-9.9,11.143-8.58,1.794,4.022,6.976,6.857,13.674,7.162,3.213-3.907-2.679-3.357-3.633-5.785-.294-1.111.435-2.106,1.937-2.871a67.062,67.062,0,0,0,12.619-2.419C447.1,493.824,447.879,491.022,449.177,489.908Zm-11.323-8.583c.275-1.107,3.039.353,2.281,1.267C439.581,483.147,437.854,482.289,437.854,481.325Zm-5.47,13.727c-4.7,1.589-2.061,3.751-2.9,4.86,0,.039-.1.156-.128.156-3.211,0-7.573-7.552-3.6-7.552a40.745,40.745,0,0,0,5.736.656C433.082,493.289,433.868,494.513,432.384,495.052Z" fill="#fff"/>
              <path id="Path_21739" data-name="Path 21739" d="M381.508,462.162c1.174.538,4.869,1.085,4.357-3.294-.306-.772-1.206-.612-1.4.19-.065.233.1.656-.122.8-.146.116-.643.044-.632-.649,0-.594-.615-1.048-.922-.458-.22.557-.009.856-.448.962-1.009,0-.13-1.07-1.027-1.269C380.017,458.445,380.09,461.561,381.508,462.162Z" fill="#fff"/>
              <path id="Path_21740" data-name="Path 21740" d="M427.832,481.791c1.583.721,5.336.306,4.436-2.15,0-2.38-1.284-1.773-1.494-1-.05.269.122.692-.1.845-.135.11-.643,0-.634-.692,0-.509-.556-1.014-.949-.422-.177.674-.047.872-.432.961-.978,0-.128-1.064-1.034-1.267C426.332,478.068,426.435,481.147,427.832,481.791Z" fill="#fff"/>
              <path id="Path_21741" data-name="Path 21741" d="M454.851,473.659c1.571.729,4.544.386,4.414-2.142,0-.2-.045-.962-.064-1.187-.337-.73-1.227-.576-1.4.225-.081.233.085.656-.145.765-.112.16-.633.081-.615-.648a1.353,1.353,0,0,0-.257-.612c-1.063-.452-.477,1.012-1.121,1.151-1.018,0-.072-.959-1.025-1.231C453.3,469.98,453.476,473.082,454.851,473.659Z" fill="#fff"/>
              <path id="Path_21742" data-name="Path 21742" d="M455.914,463.771c.547,1.575-.42,3.068.152,3.3.549.262,1.283-1.655,1.571-3.381.328-1.414-.667-4.249-2.075-4.824-.875-.233-2.1.306-1.7,1.457C453.663,460.9,455.58,462.737,455.914,463.771Z" fill="#fff"/>
              <path id="Path_21743" data-name="Path 21743" d="M470.488,500.72c1.093,0,2.357-2.492,2.9-4.984.508-5.768-2.724-26.544-3.026-27.556-.537-2.871,2.138-.386,1.828-2.069-.921-2.106-3.216-5.21-3.927-7.053-.459-.8-.269-1.494-1.245-.19a16.2,16.2,0,0,0-.873,7.206C468.473,478.184,470.852,489.223,470.488,500.72Z" fill="#fff"/>
              <path id="Path_21744" data-name="Path 21744" d="M497.9,468.3c.26.766-.374,3.33.153,3.563.5.27,1.178-1.762,1.43-3.643.14-1.034-.607-4.6-1.929-5.282a1.235,1.235,0,0,0-1.521,1.6C495.851,465.149,497.593,467.182,497.9,468.3Z" fill="#fff"/>
              <path id="Path_21745" data-name="Path 21745" d="M402.117,495.773c.459.157,1.111-1.3,1.359-2.681.144-.765-.594-3.41-1.813-3.869-.774-.154-1.8.036-1.475,1.151-.036.612,1.678,1.341,1.776,2.755C402.221,493.7,401.6,495.584,402.117,495.773Z" fill="#fff"/>
              <path id="Path_21746" data-name="Path 21746" d="M368.841,462.052c.247.612-.221,2.565.26,2.718.992.394,2.726-5.85-.435-6.783-.752-.2-1.8.269-1.445,1.223C367.037,459.669,368.58,461.17,368.841,462.052Z" fill="#fff"/>
              <path id="Path_21747" data-name="Path 21747" d="M404.636,470.636a3.24,3.24,0,0,0-1.061,4.328,2.135,2.135,0,0,0,2.258.691c1.427.2,3.775-4.742.612-1.879-1.293.287-1.21-1.6-.747-2.645C405.95,470.439,405.423,470.133,404.636,470.636Z" fill="#fff"/>
              <path id="Path_21748" data-name="Path 21748" d="M415.167,462.162a1.854,1.854,0,0,0,.859-1.225c.221-1.078-1.12.5-1.3-.692-.287-1.107.565-1.53,1.388-2.645.018-.728,0-1.223-1.005-.649C412.144,458.927,412.3,463.774,415.167,462.162Z" fill="#fff"/>
              <path id="Path_21749" data-name="Path 21749" d="M424.652,462.773c2.175-5.857-.014-6.974-1.085-4.328a22.509,22.509,0,0,0-.611,4.176C422.7,463.655,424.058,464.121,424.652,462.773Z" fill="#fff"/>
              <path id="Path_21750" data-name="Path 21750" d="M484.3,480.173s-7.311,5.217-7.506,5.37c-.715.649-.351,2.915,0,2.682.531.189,7.888-4.8,7.753-5.407C484.886,482.862,485.051,479.911,484.3,480.173Z" fill="#fff"/>
              <path id="Path_21751" data-name="Path 21751" d="M483.4,494.316c.495.233,1.786-1.378,1.741-3.366.144-1.042-.364-4.8-1.667-5.451a1.279,1.279,0,0,0-1.486,1.727c-.193.613.911,2.682,1.217,3.8C483.459,491.832,482.865,494.054,483.4,494.316Z" fill="#fff"/>
              <path id="Path_21752" data-name="Path 21752" d="M443.276,505.395a25.685,25.685,0,0,1,4.646-1.651c.547,0,.539-1.53-.373-1.53a4.885,4.885,0,0,0-3.4,1c-1.724.46-.645-2.622-.711-2.994a1.247,1.247,0,0,0-1.41-.263,10.3,10.3,0,0,0-2.087,1.8c-.467.333-.348,1.773.956.958.652-.04.967.383.9,1.148C441.4,505.185,442.356,505.924,443.276,505.395Z" fill="#fff"/>
              <path id="Path_21753" data-name="Path 21753" d="M494.642,505.93a.933.933,0,0,0,.3-1.111c-.3-.342-.958-.153-1.408-.153-.234,0-.932-.153-.594-.728,1.406-2.14.379-2.3-2.137-2.183-.471.113-.634.343-.72.882.028.841.555.8,1.1,1.147.819,1.132-.143,1.437-1.417,2.645-.233.423-.387,1.035.342,1.224C491.47,508.04,494.642,506.006,494.642,505.93Z" fill="#fff"/>
            </g>
          </g>
        </g>
      </g>
    </g>
  </g>
</svg>
