<svg xmlns="http://www.w3.org/2000/svg" xmlns:xlink="http://www.w3.org/1999/xlink" width="291.65" height="332.632" viewBox="0 0 291.65 332.632">
  <defs>
    <clipPath id="clip-path">
      <path id="Path_39440" data-name="Path 39440" d="M303.115,508.767,435.252,358.051,567.389,508.767,435.252,659.482Z" fill="none"/>
    </clipPath>
  </defs>
  <g id="Group_4464" data-name="Group 4464" transform="translate(-289.192 -340.684)">
    <path id="Path_7082" data-name="Path 7082" d="M289.192,507,435.017,340.684,580.843,507,435.017,673.316Z" fill="#fff"/>
    <g id="Group_4463" data-name="Group 4463">
      <g id="Group_23809" data-name="Group 23809">
        <g id="Group_23808" data-name="Group 23808" clip-path="url(#clip-path)">
          <g id="Group_23807" data-name="Group 23807">
            <g id="Group_23806" data-name="Group 23806">
              <g id="Group_23805" data-name="Group 23805">
                <g id="Group_23803" data-name="Group 23803">
                  <path id="Path_39432" data-name="Path 39432" d="M253.189,422.019H617.316v173.5H253.189v-173.5Z" fill="#fff"/>
                  <path id="Path_39433" data-name="Path 39433" d="M617.422,595.62H253.083V421.913H617.422ZM253.3,595.408H617.209V422.125H253.3Z" fill="#f3f3f4"/>
                </g>
                <g id="Group_23804" data-name="Group 23804">
                  <path id="Path_39434" data-name="Path 39434" d="M462.167,520.72a29.594,29.594,0,1,1-53.39-25.488c-2.817,14.614,8.541,23.415,19.053,19.213,5.826-2.331,6.945-6.227,11.29-9.435,10.777-7.951,24.921.965,23.1,15.587a1,1,0,0,1-.053.123Z" fill="#0046d6"/>
                  <path id="Path_39435" data-name="Path 39435" d="M435.079,479.208A29.592,29.592,0,0,1,462.22,520.6c1.821-14.622-12.323-23.538-23.1-15.587-4.345,3.208-5.464,7.1-11.29,9.435-10.512,4.2-21.87-4.6-19.053-19.213a29.6,29.6,0,0,1,26.3-16.024Z" fill="red"/>
                  <path id="Path_39436" data-name="Path 39436" d="M379.864,489.576l16.451-24.657,4.081,2.738L383.95,492.313l-4.086-2.737Zm6.031,4.132,16.449-24.656,4.081,2.734-16.446,24.658-4.084-2.736Zm-12.332-8.136,16.448-24.657,4.085,2.734-16.449,24.658-4.084-2.735Z"/>
                  <path id="Path_39437" data-name="Path 39437" d="M486.562,492.313l-16.446-24.656,4.081-2.738,16.449,24.657-4.084,2.737Zm6.3-4.006L485.2,476.819l4.087-2.727,7.659,11.48-4.084,2.735Zm-8.97-13.449-7.478-11.209,4.084-2.734,7.481,11.216-4.087,2.727Zm-3.358,21.586-7.621-11.428L477,482.289l7.617,11.419-4.08,2.736ZM471.6,483.053l-7.517-11.267,4.084-2.734,7.522,11.275-4.089,2.726Z"/>
                  <path id="Path_39438" data-name="Path 39438" d="M484.614,523.825,477,535.245l-4.084-2.729,7.621-11.425,4.08,2.734Zm-8.923,13.382-7.522,11.277-4.084-2.734,7.517-11.272,4.089,2.729Zm21.255-5.243-7.659,11.476-4.087-2.728,7.662-11.482,4.084,2.734Zm-8.967,13.44L480.5,556.623l-4.084-2.736,7.478-11.21,4.087,2.727Zm2.667-17.448L483.078,539.3l-4.087-2.729,7.571-11.353,4.084,2.737Zm-8.876,13.308L474.2,552.613l-4.081-2.736,7.561-11.342,4.093,2.729Z"/>
                  <path id="Path_39439" data-name="Path 39439" d="M384.042,525.219l7.576,11.353-4.089,2.729-7.568-11.345,4.081-2.737Zm6.034-4.128,16.449,24.659-4.087,2.734-16.446-24.659,4.084-2.734Zm-12.328,8.139,16.445,24.657-4.084,2.736-16.448-24.659,4.087-2.734Zm15.179,9.3,7.566,11.342-4.083,2.736-7.57-11.349,4.087-2.729Z"/>
                </g>
              </g>
            </g>
          </g>
        </g>
      </g>
    </g>
  </g>
</svg>
