<svg xmlns="http://www.w3.org/2000/svg" xmlns:xlink="http://www.w3.org/1999/xlink" width="291.65" height="332.632" viewBox="0 0 291.65 332.632">
  <defs>
    <clipPath id="clip-path">
      <path id="Path_17861" data-name="Path 17861" d="M302.863,507,435,356.284,567.136,507,435,657.715Z" fill="none"/>
    </clipPath>
  </defs>
  <g id="Group_4464" data-name="Group 4464" transform="translate(-289.192 -340.684)">
    <path id="Path_7082" data-name="Path 7082" d="M289.192,507,435.017,340.684,580.843,507,435.017,673.316Z" fill="#fff"/>
    <g id="Group_4463" data-name="Group 4463">
      <g id="Group_11584" data-name="Group 11584">
        <g id="Group_11583" data-name="Group 11583" clip-path="url(#clip-path)">
          <g id="Group_11582" data-name="Group 11582">
            <rect id="Rectangle_574" data-name="Rectangle 574" width="954.966" height="88.398" transform="translate(141.957 593.102)" fill="#e60000"/>
            <rect id="Rectangle_575" data-name="Rectangle 575" width="954.966" height="172.203" transform="translate(141.957 420.898)" fill="#ffc400"/>
            <rect id="Rectangle_576" data-name="Rectangle 576" width="954.966" height="88.398" transform="translate(141.957 332.5)" fill="#e60000"/>
            <g id="Group_11581" data-name="Group 11581">
              <path id="Path_17734" data-name="Path 17734" d="M435.906,559.956a30.763,30.763,0,0,1-30.723,0,30.749,30.749,0,0,0,15.361-26.609A30.7,30.7,0,0,0,435.906,559.956Z" fill="#fff"/>
              <path id="Path_17735" data-name="Path 17735" d="M451.266,525.278v8.069a30.625,30.625,0,0,1-9,21.722,30.937,30.937,0,0,1-6.363,4.887,30.7,30.7,0,0,1-15.362-26.609v-8.069Z" fill="#e60000"/>
              <rect id="Rectangle_577" data-name="Rectangle 577" width="30.719" height="33.077" transform="translate(389.824 492.201)" fill="#e60000"/>
              <rect id="Rectangle_578" data-name="Rectangle 578" width="30.723" height="33.077" transform="translate(420.544 492.201)" fill="#fff"/>
              <g id="Group_11564" data-name="Group 11564">
                <path id="Path_17736" data-name="Path 17736" d="M420.006,451.126v1.728h-1.728A2.32,2.32,0,0,1,420.006,451.126Z" fill="#0437a0"/>
                <path id="Path_17737" data-name="Path 17737" d="M422.811,452.854h-1.728v-1.728A2.33,2.33,0,0,1,422.811,452.854Z" fill="#0437a0"/>
                <path id="Path_17738" data-name="Path 17738" d="M420.006,453.924v1.736a2.321,2.321,0,0,1-1.728-1.736Z" fill="#0437a0"/>
                <path id="Path_17739" data-name="Path 17739" d="M422.811,453.924a2.331,2.331,0,0,1-1.728,1.736v-1.736Z" fill="#0437a0"/>
                <path id="Path_17740" data-name="Path 17740" d="M425.18,452.856v1.07h-4.1v4.455a1.089,1.089,0,0,0-1.079,0v-4.455h-4.1v-1.07H420V448.45h1.079v4.406Z" fill="#fec552"/>
              </g>
              <g id="Group_11566" data-name="Group 11566">
                <path id="Path_17741" data-name="Path 17741" d="M383.03,506.843a103.325,103.325,0,0,0-9.8,4.491l.1-10.427h9.643Z" fill="#fff"/>
                <path id="Path_17742" data-name="Path 17742" d="M378.39,529.861c-1.894.85-3.762,1.748-5.366,2.63l.053-5.467.065-6.9c.539-.293,1.109-.592,1.7-.885,2.621-1.318,5.637-2.618,8.276-3.686l.075,7.714.042,4.539C381.7,528.426,380.035,529.126,378.39,529.861Z" fill="#fff"/>
                <path id="Path_17743" data-name="Path 17743" d="M383.475,552.894H372.824l.115-11.614a102.177,102.177,0,0,1,10.378-4.764Z" fill="#fff"/>
                <rect id="Rectangle_579" data-name="Rectangle 579" width="12.255" height="1.082" transform="translate(372.022 554.286)" fill="#fec552"/>
                <rect id="Rectangle_580" data-name="Rectangle 580" width="13.287" height="1.392" rx="0.223" transform="translate(371.507 552.893)" fill="#dbaa47"/>
                <rect id="Rectangle_581" data-name="Rectangle 581" width="14.333" height="2.878" transform="translate(370.983 555.368)" fill="#dbaa47"/>
                <rect id="Rectangle_582" data-name="Rectangle 582" width="10.856" height="1.372" rx="0.22" transform="translate(372.722 499.535)" fill="#fec552"/>
                <rect id="Rectangle_583" data-name="Rectangle 583" width="10.856" height="1.374" rx="0.22" transform="translate(372.722 495.965)" fill="#fec552"/>
                <rect id="Rectangle_584" data-name="Rectangle 584" width="9.644" height="2.196" transform="translate(373.328 497.339)" fill="#dbaa47"/>
                <rect id="Rectangle_585" data-name="Rectangle 585" width="12.316" height="1.955" transform="translate(371.992 493.327)" fill="#fec552"/>
                <rect id="Rectangle_586" data-name="Rectangle 586" width="14.942" height="0.978" transform="translate(370.679 492.349)" fill="#dbaa47"/>
                <path id="Path_17744" data-name="Path 17744" d="M382.972,495.965h-9.644l-.756-.683h11.156Z" fill="#dbaa47"/>
                <path id="Path_17745" data-name="Path 17745" d="M389.824,504.234v8.745s-2.972,1.056-6.71,2.575c-2.639,1.068-5.655,2.368-8.276,3.686-.587.293-1.157.592-1.7.885l-.181.1c-.169.092-.335.186-.5.28a21.836,21.836,0,0,0-2.694,1.762l-.161.128c-.01.007-.018.016-.025.021-.084.07-.164.138-.239.206-.106.092-.2.186-.3.28-.041.039-.08.08-.118.121a3.665,3.665,0,0,0-.386.478v-8.743c.673-1.008,2.437-2.205,4.681-3.423a103.325,103.325,0,0,1,9.8-4.491C386.808,505.307,389.824,504.234,389.824,504.234Z" fill="#e60000"/>
                <path id="Path_17746" data-name="Path 17746" d="M373.142,520.125l-.065,6.9a15.338,15.338,0,0,1-4.531-3.524,3.665,3.665,0,0,1,.386-.478c.038-.041.077-.082.118-.121.09-.094.189-.188.3-.28.075-.068.155-.136.239-.206.007-.005.015-.014.025-.021l.161-.128a21.836,21.836,0,0,1,2.694-1.762c.162-.094.328-.188.5-.28Z" fill="#e60000"/>
                <path id="Path_17747" data-name="Path 17747" d="M387.963,525.689v.067c0,.013-.007.025-.01.039-.038.118-.169.23-.429.33-.662.254-1.441.551-2.3.885-.029.014-.059.026-.086.036-.331.131-.676.268-1.029.406-.284.116-.576.23-.876.355l-.042-4.539c1.385.613,2.629,1.141,3.59,1.544.575.239,1.093.545,1.174.831A.273.273,0,0,1,387.963,525.689Z" fill="#e60000"/>
                <path id="Path_17748" data-name="Path 17748" d="M387.966,533.3c0,.6-.25,1.488-1.662,2.032-.892.343-1.9.74-2.987,1.179a102.177,102.177,0,0,0-10.378,4.764,26.958,26.958,0,0,0-2.577,1.587h0a7.281,7.281,0,0,0-1.813,1.677V535.8a13.93,13.93,0,0,1,4.478-3.308c1.6-.882,3.472-1.78,5.366-2.63,1.645-.735,3.309-1.435,4.841-2.054.3-.125.592-.239.876-.355.353-.138.7-.275,1.029-.406.027-.01.057-.022.086-.036.861-.334,1.64-.631,2.3-.885.26-.1.391-.212.429-.33,0-.014.008-.026.01-.039Z" fill="#e60000"/>
                <path id="Path_17749" data-name="Path 17749" d="M370.541,547.583c.181-1.177-1.995-3.039-1.995-3.039a7.281,7.281,0,0,1,1.813-1.677h0A3.213,3.213,0,0,1,370.541,547.583Z" fill="#e60000"/>
                <g id="Group_11565" data-name="Group 11565">
                  <path id="Path_17750" data-name="Path 17750" d="M384.263,487.225a3.036,3.036,0,0,1-.332,1.384H372.369a3.055,3.055,0,0,1,2.725-4.442,2.558,2.558,0,0,1,1.365.345l0,0c.131.071.257.148.4.216a2.545,2.545,0,0,0,1.06.287c.073,0,.151,0,.232,0s.158,0,.228,0a2.586,2.586,0,0,0,1.068-.292c.132-.066.254-.14.386-.21h0a2.573,2.573,0,0,1,1.367-.349A3.057,3.057,0,0,1,384.263,487.225Z" fill="#e60000"/>
                </g>
                <path id="Path_17751" data-name="Path 17751" d="M383.944,488.609l0,0v0H372.359a1.7,1.7,0,0,0-1.68-1.107v.762a.985.985,0,0,1,.584.345v.708a1.754,1.754,0,0,1,1.1,1.442v1.59h11.582v-1.594l0,0a1.754,1.754,0,0,1,1.1-1.442v-.708a.984.984,0,0,1,.583-.345V487.5A1.7,1.7,0,0,0,383.944,488.609Z" fill="#fec552"/>
                <path id="Path_17752" data-name="Path 17752" d="M377.92,481.761v.741h-.741A1,1,0,0,1,377.92,481.761Z" fill="#0437a0"/>
                <path id="Path_17753" data-name="Path 17753" d="M379.121,482.5h-.741v-.741A1,1,0,0,1,379.121,482.5Z" fill="#0437a0"/>
                <path id="Path_17754" data-name="Path 17754" d="M377.92,482.961v.742a.994.994,0,0,1-.741-.742Z" fill="#0437a0"/>
                <path id="Path_17755" data-name="Path 17755" d="M379.121,482.961a1,1,0,0,1-.741.742v-.742Z" fill="#0437a0"/>
                <path id="Path_17756" data-name="Path 17756" d="M380.136,482.5v.459H378.38v2.058c-.07,0-.148,0-.228,0s-.159,0-.232,0v-2.058h-1.757V482.5h1.757v-1.885h.46V482.5Z" fill="#dbaa47"/>
                <path id="Path_17757" data-name="Path 17757" d="M390.463,561.341a5.772,5.772,0,0,1-2.567-.532,5.7,5.7,0,0,0-4.551,0,6.45,6.45,0,0,1-5.13,0,5.7,5.7,0,0,0-4.551,0,6.452,6.452,0,0,1-5.131,0,5.076,5.076,0,0,0-2.275-.474v-.756a5.789,5.789,0,0,1,2.565.532,5.677,5.677,0,0,0,4.551,0,6.451,6.451,0,0,1,5.131,0,5.675,5.675,0,0,0,4.55,0,6.451,6.451,0,0,1,5.131,0,5.083,5.083,0,0,0,2.277.476Z" fill="#0437a0"/>
                <path id="Path_17758" data-name="Path 17758" d="M390.463,563.051a5.772,5.772,0,0,1-2.567-.532,5.688,5.688,0,0,0-4.551,0,6.449,6.449,0,0,1-5.13,0,5.688,5.688,0,0,0-4.551,0,6.451,6.451,0,0,1-5.131,0,5.075,5.075,0,0,0-2.275-.475v-.755a5.79,5.79,0,0,1,2.565.532,5.677,5.677,0,0,0,4.551,0,6.452,6.452,0,0,1,5.131,0,5.674,5.674,0,0,0,4.55,0,6.452,6.452,0,0,1,5.131,0,5.054,5.054,0,0,0,2.277.476Z" fill="#0437a0"/>
                <path id="Path_17759" data-name="Path 17759" d="M390.463,564.763a5.781,5.781,0,0,1-2.567-.534,5.688,5.688,0,0,0-4.551,0,6.427,6.427,0,0,1-5.13,0,5.688,5.688,0,0,0-4.551,0,6.43,6.43,0,0,1-5.131,0,5.074,5.074,0,0,0-2.275-.475V563a5.772,5.772,0,0,1,2.565.534,5.688,5.688,0,0,0,4.551,0,6.43,6.43,0,0,1,5.131,0,5.685,5.685,0,0,0,4.55,0,6.43,6.43,0,0,1,5.131,0,5.084,5.084,0,0,0,2.277.475Z" fill="#0437a0"/>
              </g>
              <g id="Group_11568" data-name="Group 11568">
                <path id="Path_17760" data-name="Path 17760" d="M458.39,506.843a103.091,103.091,0,0,1,9.8,4.491l-.1-10.427h-9.644Z" fill="#fff"/>
                <path id="Path_17761" data-name="Path 17761" d="M463.03,529.861c1.894.85,3.762,1.748,5.366,2.63l-.053-5.467-.065-6.9c-.539-.293-1.107-.592-1.694-.885-2.623-1.318-5.639-2.618-8.276-3.686l-.075,7.714-.044,4.539C459.721,528.426,461.385,529.126,463.03,529.861Z" fill="#fff"/>
                <path id="Path_17762" data-name="Path 17762" d="M457.945,552.894H468.6l-.115-11.614a101.973,101.973,0,0,0-10.378-4.764Z" fill="#fff"/>
                <rect id="Rectangle_587" data-name="Rectangle 587" width="12.255" height="1.082" transform="translate(469.398 555.368) rotate(180)" fill="#fec552"/>
                <path id="Rectangle_588" data-name="Rectangle 588" d="M.223,0H13.065a.224.224,0,0,1,.224.224v.946a.223.223,0,0,1-.223.223H.224A.224.224,0,0,1,0,1.169V.223A.223.223,0,0,1,.223,0Z" transform="translate(469.915 554.286) rotate(180)" fill="#dbaa47"/>
                <rect id="Rectangle_589" data-name="Rectangle 589" width="14.333" height="2.878" transform="translate(470.437 558.246) rotate(180)" fill="#dbaa47"/>
                <rect id="Rectangle_590" data-name="Rectangle 590" width="10.856" height="1.372" rx="0.22" transform="translate(468.698 500.907) rotate(180)" fill="#fec552"/>
                <rect id="Rectangle_591" data-name="Rectangle 591" width="10.856" height="1.374" rx="0.22" transform="translate(468.698 497.339) rotate(180)" fill="#fec552"/>
                <rect id="Rectangle_592" data-name="Rectangle 592" width="9.644" height="2.196" transform="translate(468.092 499.535) rotate(180)" fill="#dbaa47"/>
                <rect id="Rectangle_593" data-name="Rectangle 593" width="12.316" height="1.955" transform="translate(469.429 495.282) rotate(180)" fill="#fec552"/>
                <rect id="Rectangle_594" data-name="Rectangle 594" width="14.942" height="0.978" transform="translate(470.742 493.327) rotate(180)" fill="#dbaa47"/>
                <path id="Path_17763" data-name="Path 17763" d="M458.448,495.965h9.644l.756-.683H457.692Z" fill="#dbaa47"/>
                <path id="Path_17764" data-name="Path 17764" d="M451.6,504.234v8.745s2.972,1.056,6.712,2.575c2.637,1.068,5.653,2.368,8.276,3.686.587.293,1.155.592,1.694.885l.181.1c.169.092.336.186.5.28a21.831,21.831,0,0,1,2.694,1.762c.056.043.109.086.162.128a.3.3,0,0,1,.024.021c.084.07.164.138.241.206.105.092.2.186.293.28.041.039.082.08.12.121a3.71,3.71,0,0,1,.383.478v-8.743c-.672-1.008-2.436-2.205-4.68-3.423a103.091,103.091,0,0,0-9.8-4.491C454.614,505.307,451.6,504.234,451.6,504.234Z" fill="#e60000"/>
                <path id="Path_17765" data-name="Path 17765" d="M468.278,520.125l.065,6.9a15.3,15.3,0,0,0,4.53-3.524,3.71,3.71,0,0,0-.383-.478c-.038-.041-.079-.082-.12-.121-.09-.094-.188-.188-.293-.28-.077-.068-.157-.136-.241-.206a.3.3,0,0,0-.024-.021c-.053-.042-.106-.085-.162-.128a21.831,21.831,0,0,0-2.694-1.762c-.161-.094-.328-.188-.5-.28Z" fill="#e60000"/>
                <path id="Path_17766" data-name="Path 17766" d="M453.457,525.689v.067a.173.173,0,0,1,.01.039c.038.118.169.23.429.33.662.254,1.443.551,2.3.885.031.014.06.026.089.036.33.131.674.268,1.027.406.286.116.577.23.876.355l.044-4.539c-1.385.613-2.629,1.141-3.592,1.544-.575.239-1.093.545-1.174.831C453.462,525.659,453.461,525.674,453.457,525.689Z" fill="#e60000"/>
                <path id="Path_17767" data-name="Path 17767" d="M453.455,533.3c0,.6.25,1.488,1.662,2.032.891.343,1.9.74,2.986,1.179a101.973,101.973,0,0,1,10.378,4.764,26.955,26.955,0,0,1,2.577,1.587h0a7.248,7.248,0,0,1,1.811,1.677V535.8a13.911,13.911,0,0,0-4.477-3.308c-1.6-.882-3.472-1.78-5.366-2.63-1.645-.735-3.309-1.435-4.841-2.054-.3-.125-.59-.239-.876-.355-.353-.138-.7-.275-1.027-.406-.029-.01-.058-.022-.089-.036-.858-.334-1.639-.631-2.3-.885-.26-.1-.391-.212-.429-.33a.173.173,0,0,0-.01-.039Z" fill="#e60000"/>
                <path id="Path_17768" data-name="Path 17768" d="M470.88,547.583c-.182-1.177,1.993-3.039,1.993-3.039a7.248,7.248,0,0,0-1.811-1.677h0A3.214,3.214,0,0,0,470.88,547.583Z" fill="#e60000"/>
                <g id="Group_11567" data-name="Group 11567">
                  <path id="Path_17769" data-name="Path 17769" d="M457.156,487.225a3.049,3.049,0,0,0,.333,1.384h11.562a3.055,3.055,0,0,0-2.725-4.442,2.558,2.558,0,0,0-1.365.345l-.005,0c-.131.071-.256.148-.4.216a2.54,2.54,0,0,1-1.059.287c-.074,0-.151,0-.232,0s-.159,0-.229,0a2.6,2.6,0,0,1-1.068-.292c-.13-.066-.255-.14-.386-.21h-.005a2.575,2.575,0,0,0-1.367-.349A3.059,3.059,0,0,0,457.156,487.225Z" fill="#e60000"/>
                </g>
                <path id="Path_17770" data-name="Path 17770" d="M457.477,488.609l0,0v0h11.583a1.7,1.7,0,0,1,1.68-1.107v.762a.984.984,0,0,0-.583.345v.708a1.754,1.754,0,0,0-1.1,1.442v1.59H457.479v-1.594l0,0a1.754,1.754,0,0,0-1.1-1.442v-.708a.984.984,0,0,0-.583-.345V487.5A1.7,1.7,0,0,1,457.477,488.609Z" fill="#fec552"/>
                <path id="Path_17771" data-name="Path 17771" d="M463.5,481.761v.741h.74A1,1,0,0,0,463.5,481.761Z" fill="#0437a0"/>
                <path id="Path_17772" data-name="Path 17772" d="M462.3,482.5h.741v-.741A1,1,0,0,0,462.3,482.5Z" fill="#0437a0"/>
                <path id="Path_17773" data-name="Path 17773" d="M463.5,482.961v.742a.991.991,0,0,0,.74-.742Z" fill="#0437a0"/>
                <path id="Path_17774" data-name="Path 17774" d="M462.3,482.961a1,1,0,0,0,.741.742v-.742Z" fill="#0437a0"/>
                <path id="Path_17775" data-name="Path 17775" d="M461.284,482.5v.459h1.756v2.058c.07,0,.148,0,.229,0s.158,0,.232,0v-2.058h1.755V482.5H463.5v-1.885h-.461V482.5Z" fill="#dbaa47"/>
                <path id="Path_17776" data-name="Path 17776" d="M450.957,561.341a5.772,5.772,0,0,0,2.567-.532,5.7,5.7,0,0,1,4.55,0,6.452,6.452,0,0,0,5.131,0,5.7,5.7,0,0,1,4.551,0,6.452,6.452,0,0,0,5.131,0,5.076,5.076,0,0,1,2.275-.474v-.756a5.8,5.8,0,0,0-2.565.532,5.677,5.677,0,0,1-4.551,0,6.451,6.451,0,0,0-5.131,0,5.675,5.675,0,0,1-4.55,0,6.451,6.451,0,0,0-5.131,0,5.083,5.083,0,0,1-2.277.476Z" fill="#0437a0"/>
                <path id="Path_17777" data-name="Path 17777" d="M450.957,563.051a5.771,5.771,0,0,0,2.567-.532,5.686,5.686,0,0,1,4.55,0,6.451,6.451,0,0,0,5.131,0,5.688,5.688,0,0,1,4.551,0,6.451,6.451,0,0,0,5.131,0,5.075,5.075,0,0,1,2.275-.475v-.755a5.8,5.8,0,0,0-2.565.532,5.677,5.677,0,0,1-4.551,0,6.452,6.452,0,0,0-5.131,0,5.674,5.674,0,0,1-4.55,0,6.452,6.452,0,0,0-5.131,0,5.054,5.054,0,0,1-2.277.476Z" fill="#0437a0"/>
                <path id="Path_17778" data-name="Path 17778" d="M450.957,564.763a5.781,5.781,0,0,0,2.567-.534,5.686,5.686,0,0,1,4.55,0,6.43,6.43,0,0,0,5.131,0,5.688,5.688,0,0,1,4.551,0,6.43,6.43,0,0,0,5.131,0,5.074,5.074,0,0,1,2.275-.475V563a5.779,5.779,0,0,0-2.565.534,5.688,5.688,0,0,1-4.551,0,6.43,6.43,0,0,0-5.131,0,5.685,5.685,0,0,1-4.55,0,6.43,6.43,0,0,0-5.131,0,5.084,5.084,0,0,1-2.277.475Z" fill="#0437a0"/>
              </g>
              <rect id="Rectangle_595" data-name="Rectangle 595" width="40.645" height="1.645" transform="translate(400.223 490.556)" fill="#9a0133"/>
              <path id="Path_17779" data-name="Path 17779" d="M447.355,476.383a7.685,7.685,0,0,1-.662,2.647,1.33,1.33,0,1,0-1.392,2.112,7.85,7.85,0,0,1-1.476,1.259l.017-.116H397.249l.017.12a7.937,7.937,0,0,1-1.478-1.263,1.329,1.329,0,1,0-1.392-2.114,7.631,7.631,0,0,1-.664-2.645,7.873,7.873,0,0,1,8.974-8.334,9.686,9.686,0,0,1,1.167-1.3,1.547,1.547,0,0,0,.488.8,1.753,1.753,0,0,1,1.858.206,1.607,1.607,0,0,0,.382-2.518,1.441,1.441,0,0,0-.211-.188,9.791,9.791,0,0,1,10.722,1.619,5.008,5.008,0,0,0,1.135.778.617.617,0,0,0-.005.1,2.3,2.3,0,1,0,4.6,0,.617.617,0,0,0-.005-.1,4.975,4.975,0,0,0,1.137-.778,9.79,9.79,0,0,1,10.721-1.619,1.5,1.5,0,0,0-.212.188,1.61,1.61,0,0,0,.382,2.518,1.753,1.753,0,0,1,1.094-.382,1.734,1.734,0,0,1,.765.176,1.555,1.555,0,0,0,.489-.8,9.886,9.886,0,0,1,1.166,1.3,7.872,7.872,0,0,1,8.973,8.334Z" fill="#e60000"/>
              <path id="Path_17780" data-name="Path 17780" d="M443.842,482.285l-.017.116-1.242,8.155H398.508l-1.242-8.151-.017-.119Z" fill="#fec552"/>
              <path id="Path_17781" data-name="Path 17781" d="M425.449,477.125s.528,1.157.666,1.63c0,0-1.277.638-4.645-1.732a1.33,1.33,0,1,0-1.853,0c-3.366,2.37-4.645,1.732-4.645,1.732.14-.473.666-1.63.666-1.63-.582-.02-1.444-1.419-1.444-1.419.168-.475,1.582-1.582,1.582-1.582-.664-.388-.609-1.8-.609-1.8,1.249-.131,3.481,1.393,3.745,1.577-2.083-1.549-1.945-4.885-1.945-4.885s1.582.01,1.8,0a2.3,2.3,0,0,0,3.551,0c.218.01,1.8,0,1.8,0s.138,3.336-1.943,4.885c.264-.184,2.494-1.708,3.743-1.577,0,0,.057,1.416-.609,1.8,0,0,1.416,1.107,1.582,1.582C426.893,475.706,426.031,477.105,425.449,477.125Z" fill="#fec552"/>
              <path id="Path_17782" data-name="Path 17782" d="M404.7,486.862a1.333,1.333,0,0,1-1.33,1.332,1.287,1.287,0,0,1-.692-.2,1.33,1.33,0,1,1,2.022-1.136Z" fill="#fff"/>
              <path id="Path_17783" data-name="Path 17783" d="M415.525,486.862a1.332,1.332,0,0,1-1.329,1.332,1.293,1.293,0,0,1-.693-.2,1.33,1.33,0,1,1,2.022-1.136Z" fill="#fff"/>
              <path id="Path_17784" data-name="Path 17784" d="M436.384,486.862a1.3,1.3,0,0,0,.093.486,1.326,1.326,0,0,0,1.236.846,1.293,1.293,0,0,0,.693-.2,1.33,1.33,0,1,0-2.022-1.136Z" fill="#fff"/>
              <path id="Path_17785" data-name="Path 17785" d="M425.562,486.862a1.282,1.282,0,0,0,.094.486,1.326,1.326,0,0,0,1.235.846,1.291,1.291,0,0,0,.693-.2,1.33,1.33,0,1,0-2.022-1.136Z" fill="#fff"/>
              <path id="Path_17786" data-name="Path 17786" d="M410.2,477.639s.5.98.648,1.38c0,0-1.241.615-3.891-.986a1.283,1.283,0,0,0,.094-.486,1.331,1.331,0,1,0-2.022,1.135c-1.735,1.586-2.605,1.24-2.605,1.24.013-.421.194-1.486.194-1.486-.46.029-1.44-1.181-1.44-1.181a5.717,5.717,0,0,1,.932-1.64c-.628-.326-.9-1.754-.9-1.754.988-.225,3.041,1.043,3.386,1.26-2-1.395-2.609-4.964-2.609-4.964s1.384-.113,1.573-.144c.067.075.137.147.206.212a1.752,1.752,0,0,0,3.021-.5c.4-.03,1.407-.131,1.407-.131s.55,3.57-.936,5.286c.187-.2,1.8-1.911,2.837-1.875,0,0,.19,1.413-.3,1.846a6.767,6.767,0,0,1,1.393,1.379S410.637,477.576,410.2,477.639Z" fill="#fec552"/>
              <path id="Path_17787" data-name="Path 17787" d="M430.893,477.639s-.5.98-.651,1.38c0,0,1.243.615,3.891-.986a1.331,1.331,0,1,1,1.93.649c1.735,1.586,2.6,1.24,2.6,1.24-.012-.421-.2-1.486-.2-1.486.461.029,1.442-1.181,1.442-1.181a5.763,5.763,0,0,0-.933-1.64c.628-.326.9-1.754.9-1.754-.986-.225-3.039,1.043-3.384,1.26,1.995-1.395,2.609-4.964,2.609-4.964s-1.385-.113-1.575-.144a2.432,2.432,0,0,1-.206.212,1.751,1.751,0,0,1-3.019-.5c-.4-.03-1.407-.131-1.407-.131s-.55,3.57.936,5.286c-.189-.2-1.8-1.911-2.839-1.875,0,0-.188,1.413.3,1.846a6.792,6.792,0,0,0-1.392,1.379S430.451,477.576,430.893,477.639Z" fill="#fec552"/>
              <g id="Group_11569" data-name="Group 11569">
                <path id="Path_17788" data-name="Path 17788" d="M393.237,525.278v22.155a30.6,30.6,0,0,1-3.413-14.086v-8.069Z" fill="#fec552"/>
                <path id="Path_17789" data-name="Path 17789" d="M396.652,525.278v27.38a30.755,30.755,0,0,1-3.415-5.225V525.278Z" fill="#e60000"/>
                <path id="Path_17790" data-name="Path 17790" d="M400.064,525.278v30.967a30.856,30.856,0,0,1-3.412-3.587v-27.38Z" fill="#fec552"/>
                <path id="Path_17791" data-name="Path 17791" d="M403.477,525.278V558.9a31.017,31.017,0,0,1-3.413-2.65V525.278Z" fill="#e60000"/>
                <path id="Path_17792" data-name="Path 17792" d="M406.891,525.278v33.613q-.834.561-1.708,1.065-.87-.5-1.706-1.061V525.278Z" fill="#fec552"/>
                <path id="Path_17793" data-name="Path 17793" d="M410.3,525.278v30.963a30.508,30.508,0,0,1-3.413,2.65V525.278Z" fill="#e60000"/>
                <path id="Path_17794" data-name="Path 17794" d="M413.717,525.278v27.375a30.117,30.117,0,0,1-2.171,2.416c-.4.4-.815.793-1.242,1.172V525.278Z" fill="#fec552"/>
                <path id="Path_17795" data-name="Path 17795" d="M417.131,525.278v22.155a30.572,30.572,0,0,1-3.414,5.22V525.278Z" fill="#e60000"/>
                <path id="Path_17796" data-name="Path 17796" d="M420.544,525.278v8.069a30.583,30.583,0,0,1-3.413,14.086V525.278Z" fill="#fec552"/>
              </g>
              <path id="Path_17797" data-name="Path 17797" d="M424.755,554.915a4.046,4.046,0,0,1-3.718,4.032c-.108.007-.215.012-.326.012s-.217-.005-.326-.012a4.045,4.045,0,1,1,4.37-4.032Z" fill="#dbaa47"/>
              <path id="Path_17798" data-name="Path 17798" d="M426.574,557.762c-1.084.029-4.7,2.7-5.537,3.32v-2.135c-.108.007-.215.012-.326.012s-.217-.005-.326-.012v2.135c-.833-.624-4.452-3.291-5.535-3.32-1.229-.033-3.49.419-3.585.29,0,0,1.982,2.774,4.011,2.709,1.991-.063,1.9-1.337,5.109.819v1.539h.652V561.58c3.209-2.156,3.117-.882,5.11-.819,2.027.065,4.012-2.709,4.012-2.709C430.062,558.181,427.8,557.729,426.574,557.762Z" fill="#058139"/>
              <path id="Path_17799" data-name="Path 17799" d="M423.188,527.923v5.424A28.053,28.053,0,0,0,435.7,556.712l.21.142.21-.142A28.438,28.438,0,0,0,440.4,553.2a27.884,27.884,0,0,0,8.222-19.852v-5.424Zm13.1.754h11.033l-11.033,10.769Zm-.754,10.769L424.5,528.677h11.033ZM423.944,529.2l11.011,10.746h-10.2a27.368,27.368,0,0,1-.806-6.6ZM435,540.7l-7.056,6.887a27.3,27.3,0,0,1-2.995-6.887Zm-6.643,7.54,7.172-7v14.437A27.334,27.334,0,0,1,428.357,548.238Zm11.507,4.427a27.606,27.606,0,0,1-3.581,3.008V541.239l7.175,7A27.682,27.682,0,0,1,439.864,552.665ZM436.812,540.7h10.059a26.984,26.984,0,0,1-3,6.89Zm10.257-.756H436.856L447.867,529.2v4.151A27.552,27.552,0,0,1,447.069,539.942Z" fill="#fec552"/>
              <g id="Group_11578" data-name="Group 11578">
                <g id="Group_11573" data-name="Group 11573">
                  <g id="Group_11570" data-name="Group 11570">
                    <path id="Path_17800" data-name="Path 17800" d="M399.537,499.535v7.054h-.053v1.171h-1.609v-1.171h-1.293v1.171h-1.613v-1.171h-.879v-7.054Z" fill="#dbaa47"/>
                    <path id="Path_17801" data-name="Path 17801" d="M398.7,497.446v.979h-1.345v-.979h-1.08v.979H394.93v-.979h-1.478v2.089h6.725v-2.089Z" fill="#fec552"/>
                  </g>
                  <g id="Group_11571" data-name="Group 11571">
                    <path id="Path_17802" data-name="Path 17802" d="M416.278,499.535v7.054H415.4v1.171h-1.612v-1.171h-1.293v1.171h-1.609v-1.171h-.053v-7.054Z" fill="#dbaa47"/>
                    <path id="Path_17803" data-name="Path 17803" d="M415.44,497.446v.979h-1.346v-.979h-1.08v.979h-1.345v-.979h-1.478v2.089h6.725v-2.089Z" fill="#fec552"/>
                  </g>
                  <g id="Group_11572" data-name="Group 11572">
                    <path id="Path_17804" data-name="Path 17804" d="M407.908,497.206v6.843h0v1.413h-1.94v-1.413H404.4v1.413h-1.938v-1.413h-.005v-6.843Z" fill="#dbaa47"/>
                    <path id="Path_17805" data-name="Path 17805" d="M407.069,495.117v.979h-1.345v-.979h-1.08v.979H403.3v-.979h-1.478v2.089h6.725v-2.089Z" fill="#fec552"/>
                  </g>
                </g>
                <g id="Group_11577" data-name="Group 11577">
                  <g id="Group_11574" data-name="Group 11574">
                    <rect id="Rectangle_596" data-name="Rectangle 596" width="7.289" height="12.173" transform="translate(393.964 509.09)" fill="#dbaa47"/>
                    <path id="Path_17806" data-name="Path 17806" d="M401.254,507.06v2.03H393.2v-2.5h1.768v1.171h1.613v-1.171h1.293v1.171h1.609v-1.171h.85v.471Z" fill="#fec552"/>
                  </g>
                  <g id="Group_11575" data-name="Group 11575">
                    <rect id="Rectangle_597" data-name="Rectangle 597" width="7.289" height="12.173" transform="translate(409.115 509.09)" fill="#dbaa47"/>
                    <path id="Path_17807" data-name="Path 17807" d="M417.167,506.589v2.5h-8.052v-2.03h.92v-.471h.85v1.171h1.609v-1.171h1.293v1.171H415.4v-1.171Z" fill="#fec552"/>
                  </g>
                  <g id="Group_11576" data-name="Group 11576">
                    <rect id="Rectangle_598" data-name="Rectangle 598" width="7.861" height="14.203" transform="translate(401.254 507.06)" fill="#dbaa47"/>
                    <path id="Path_17808" data-name="Path 17808" d="M410.034,504.048v3.012h-9.7v-3.012h2.131v1.413H404.4v-1.413h1.562v1.413h1.94v-1.413Z" fill="#fec552"/>
                  </g>
                  <rect id="Rectangle_599" data-name="Rectangle 599" width="23.225" height="1.167" transform="translate(393.572 521.263)" fill="#fec552"/>
                </g>
                <rect id="Rectangle_600" data-name="Rectangle 600" width="1.145" height="2.495" transform="translate(396.242 501.552)" fill="#0437a0"/>
                <rect id="Rectangle_601" data-name="Rectangle 601" width="1.145" height="2.495" transform="translate(412.981 501.552)" fill="#0437a0"/>
                <rect id="Rectangle_602" data-name="Rectangle 602" width="1.145" height="2.496" transform="translate(404.612 499.222)" fill="#0437a0"/>
                <rect id="Rectangle_603" data-name="Rectangle 603" width="1.37" height="2.988" transform="translate(397.515 512.566)" fill="#0437a0"/>
                <rect id="Rectangle_604" data-name="Rectangle 604" width="1.37" height="2.988" transform="translate(413.427 512.566)" fill="#0437a0"/>
                <path id="Rectangle_605" data-name="Rectangle 605" d="M.5,0H2.612a.5.5,0,0,1,.5.5V6.784a0,0,0,0,1,0,0H0a0,0,0,0,1,0,0V.5A.5.5,0,0,1,.5,0Z" transform="translate(403.629 514.48)" fill="#0437a0"/>
              </g>
              <g id="Group_11579" data-name="Group 11579">
                <path id="Path_17809" data-name="Path 17809" d="M422.845,467.546a2.3,2.3,0,1,1-4.6,0,.617.617,0,0,1,.005-.1,2.276,2.276,0,0,1,.428-1.247,2.3,2.3,0,0,1,3.737,0,2.276,2.276,0,0,1,.428,1.247A.617.617,0,0,1,422.845,467.546Z" fill="#fff"/>
                <path id="Path_17810" data-name="Path 17810" d="M422.543,465.495a1.879,1.879,0,0,1-.131.708,2.3,2.3,0,0,0-3.737,0,1.881,1.881,0,0,1-.133-.708,2,2,0,1,1,4,0Z" fill="#fff"/>
                <path id="Path_17811" data-name="Path 17811" d="M422.245,463.442a1.655,1.655,0,0,1-.179.756,2,2,0,0,0-3.044,0,1.656,1.656,0,0,1-.18-.756,1.7,1.7,0,0,1,3.4,0Z" fill="#fff"/>
                <path id="Path_17812" data-name="Path 17812" d="M421.941,461.388a1.383,1.383,0,0,1-.251.8,1.7,1.7,0,0,0-2.291,0,1.363,1.363,0,0,1-.253-.8,1.386,1.386,0,0,1,.7-1.208,1.369,1.369,0,0,1,.7-.19,1.4,1.4,0,0,1,1.4,1.4Z" fill="#fff"/>
                <path id="Path_17813" data-name="Path 17813" d="M421.643,459.335a1.1,1.1,0,0,1-.4.845,1.389,1.389,0,0,0-.7-.19,1.369,1.369,0,0,0-.7.19,1.1,1.1,0,1,1,1.8-.845Z" fill="#fff"/>
              </g>
              <path id="Path_17814" data-name="Path 17814" d="M417.414,459.209a.972.972,0,0,1-1.9.273.816.816,0,0,0,.02-.191.967.967,0,0,0-.039-.275v0a.972.972,0,0,1,1.923.2Z" fill="#fff"/>
              <path id="Path_17815" data-name="Path 17815" d="M406.881,469.133a1.691,1.691,0,0,1-.1.588,1.752,1.752,0,0,1-3.021.5,1.729,1.729,0,0,1-.385-1.092,1.754,1.754,0,1,1,3.508,0Z" fill="#fff"/>
              <path id="Path_17816" data-name="Path 17816" d="M407.048,466.352a1.608,1.608,0,0,1-.829,1.407,1.753,1.753,0,0,0-1.858-.206,1.547,1.547,0,0,1-.488-.8,1.489,1.489,0,0,1-.053-.4,1.612,1.612,0,0,1,1.488-1.611h0c.041,0,.083-.005.124-.005a1.575,1.575,0,0,1,.956.317,1.441,1.441,0,0,1,.211.188A1.6,1.6,0,0,1,407.048,466.352Z" fill="#fff"/>
              <path id="Path_17817" data-name="Path 17817" d="M408.093,463.632a1.613,1.613,0,0,1-1.492,1.609,1.579,1.579,0,0,0-1.167-.505c-.041,0-.083,0-.124.005h0a1.613,1.613,0,0,1,1.17-2.725h.009a1.611,1.611,0,0,1,1.551,1.2A1.514,1.514,0,0,1,408.093,463.632Z" fill="#fff"/>
              <g id="Group_11580" data-name="Group 11580">
                <path id="Path_17818" data-name="Path 17818" d="M443.253,498c-.428.073-1.692.058-1.872.513A13.6,13.6,0,0,0,438.1,496.1c.066-.7.131-1.408.2-2.11a1.994,1.994,0,0,1,.688,1.277c.28-.244.559-.486.839-.731.144.477.287.949.429,1.425l.752-.218a.192.192,0,0,1,.3.17c.048.269.1.533.143.8a4.02,4.02,0,0,0,1.041-.247c0,.358,0,.713,0,1.071.385.014.769.033,1.153.048C443.774,497.774,443.477,497.963,443.253,498Z" fill="#fec552"/>
                <path id="Path_17819" data-name="Path 17819" d="M446.209,518.881a1.115,1.115,0,0,0,.936-.06,1.67,1.67,0,0,1-1.436.975,1.784,1.784,0,0,0,1.3.227,2.606,2.606,0,0,1-2.177.759,4.459,4.459,0,0,1-.225,1.812,1.516,1.516,0,0,1-1.4.995,1.991,1.991,0,0,0,.393-1.809c-.333-.287-.831.053-1.109.393a9.6,9.6,0,0,0-1.16,1.783,1.276,1.276,0,0,1-.816-1.7,3.166,3.166,0,0,0-2.43.505,1.378,1.378,0,0,1,1.148-1.609,2.589,2.589,0,0,1,1.3-.843c-.677,0-1.358,0-2.035,0a3.227,3.227,0,0,1,3.3-.18c.318.17.681.4,1.011.254a.977.977,0,0,0,.44-.686,13.324,13.324,0,0,0,.418-2.292c-1.065-.29-2.261-.687-2.706-1.694-.418-.942,0-2.031-.062-3.058a1.107,1.107,0,0,0-.012-.128.659.659,0,0,0-.106-.307.947.947,0,0,0-.37-.273l-2.814-1.42q-.977-.494-1.953-.989a3.189,3.189,0,0,0-3.207-.046,1.282,1.282,0,0,1,.557.452,4.871,4.871,0,0,1-1.631.22c.365.157.726.312,1.092.471-.627.089-1.251.179-1.879.27.268.066.534.131.8.2a7.351,7.351,0,0,1-2.015.277,5.166,5.166,0,0,1-.185,1.743,1.752,1.752,0,0,1-1.191,1.193,2.013,2.013,0,0,0,.031-1.762,1.123,1.123,0,0,0-1.554-.441c-.348.261-.451.727-.668,1.1a1.928,1.928,0,0,1-1.088.868,14.969,14.969,0,0,0-.075-2.128.6.6,0,0,1-.743-.322c-.383.043-.764.085-1.146.129a2.338,2.338,0,0,1,1.083-.716,1.664,1.664,0,0,0,.987-.816.7.7,0,0,0-.4-.884c.5,0,1.005.005,1.505.009a.611.611,0,0,1,.476.138c.149.171.069.439.127.657a.714.714,0,0,0,.877.411,2.093,2.093,0,0,0,.873-.607,6.177,6.177,0,0,0,1.468-1.942c.073-.171.083-.408.164-.566a7.694,7.694,0,0,0,.841-.485,12.225,12.225,0,0,0,1.829-1.355q-.822,1.441-1.64,2.879a4.626,4.626,0,0,0,3.382-2.647,22.586,22.586,0,0,1-.266,3.107,4.879,4.879,0,0,0,1.885-2.981,4.9,4.9,0,0,1,.023,1.64,1.415,1.415,0,0,0,.66,1.4q.736-1.518,1.471-3.037c.208.778.42,1.556.63,2.334a1.982,1.982,0,0,0,.624-1.561c.005-.229-.007-.46-.02-.688.088.08.174.164.259.244q1.338,1.262,2.672,2.527a11.236,11.236,0,0,1,1.9,2.134,5.633,5.633,0,0,1,.4.779,5.487,5.487,0,0,1,.338,1.071,5.771,5.771,0,0,1,.094.619c.053.559.059,1.209.5,1.559a1.823,1.823,0,0,0,1.693.013,2.448,2.448,0,0,1-.338,1.283,1.794,1.794,0,0,0,.921-.3,1.957,1.957,0,0,1-1.242,1.595,2.482,2.482,0,0,0,.983-.176A1.564,1.564,0,0,1,446.209,518.881Z" fill="#9a0133"/>
                <path id="Path_17820" data-name="Path 17820" d="M438.424,514.26a9.451,9.451,0,0,0-.007,1.346,1.341,1.341,0,0,0,.874-.356,1.757,1.757,0,0,1-.9,1.343c-.129.067-.293.167-.263.312.038.181.371.236.328.418a.215.215,0,0,1-.126.128,1.872,1.872,0,0,1-1.376-.046,1.5,1.5,0,0,0,.6.846.536.536,0,0,1-.522.277,1.524,1.524,0,0,1-.592-.193l-.77-.37a1.234,1.234,0,0,0,.712.732.96.96,0,0,1-1.044.247,2.833,2.833,0,0,1-.953-.619,1.246,1.246,0,0,0,.516,1.131,1.328,1.328,0,0,1-1.382-.606c-.091-.15-.246-.355-.393-.254a.364.364,0,0,0-.083.114,4.669,4.669,0,0,0-.291.765c-.066.251-.143.548-.383.645a1.791,1.791,0,0,1-.395.058,1.886,1.886,0,0,0-.735.432.8.8,0,0,1-.8.17.748.748,0,0,1-.3-.345,2.291,2.291,0,0,1,.574-2.757c.964-.782,2.361-.628,3.545-1.005a.882.882,0,0,0,.471-.285.9.9,0,0,0-.071-.916,3.851,3.851,0,0,0-.763-1.005c-.287-.273-.635-.538-.705-.925a1.3,1.3,0,0,1,.709-1.193,6.291,6.291,0,0,1,3.356-.872c.126,0,.274-.017.334-.128a.367.367,0,0,0,.029-.194,2,2,0,0,1-.019-.62l2.814,1.42a.947.947,0,0,1,.37.273.659.659,0,0,1,.106.307,2.121,2.121,0,0,1-.257.212,12.188,12.188,0,0,1-1.981,1.2.4.4,0,0,0-.178.129A.408.408,0,0,0,438.424,514.26Z" fill="#9a0133"/>
                <path id="Path_17821" data-name="Path 17821" d="M447.854,512.414a2.591,2.591,0,0,1-2.227.519,4.562,4.562,0,0,1-.727-.113,5.487,5.487,0,0,0-.338-1.071c.138.056.254.105.3.124a6,6,0,0,0,1.5.352,1.3,1.3,0,0,0,.57-.038,1,1,0,0,0,.505-1.2,3.057,3.057,0,0,0-.762-1.193c-.7-.8-1.371-1.624-2.012-2.472a7.091,7.091,0,0,1-.869-1.372,6.171,6.171,0,0,1-.442-2.426,6.261,6.261,0,0,1,.164-1.7,5.267,5.267,0,0,1,2.319-2.957,6.906,6.906,0,0,0,1.323-.936,3.554,3.554,0,0,1-.063,1.338c-.081.263-.221.5-.287.768a5.012,5.012,0,0,0-.075.821,6,6,0,0,1-.777,2.242,9.891,9.891,0,0,0-.943,2.186c-.456,1.9.972,2.586,2.3,4.121a3.747,3.747,0,0,1,.846,1.429A1.726,1.726,0,0,1,447.854,512.414Z" fill="#9a0133"/>
                <path id="Path_17822" data-name="Path 17822" d="M436.8,499.2a2.216,2.216,0,0,1-.114.222,20.919,20.919,0,0,0-2.293-.184,7.535,7.535,0,0,1-1.311-.1,2.068,2.068,0,0,1-1.145-.6,1.207,1.207,0,0,1-.252-1.224.67.67,0,0,1,.321-.354.657.657,0,0,1,.3-.048.861.861,0,0,1,.776.558.686.686,0,0,1-.373.839,2.3,2.3,0,0,0,1.819.616l1.354.046A1.867,1.867,0,0,1,436.8,499.2Z" fill="#e60000"/>
                <path id="Path_17823" data-name="Path 17823" d="M441.434,499.651a3.269,3.269,0,0,1-.053-1.133v0A13.6,13.6,0,0,0,438.1,496.1c-.855.071-1.71.139-2.563.209a1.489,1.489,0,0,0-.809.224,1.454,1.454,0,0,0-.322,1.374.55.55,0,0,0,.085.276.465.465,0,0,0,.295.153,5.5,5.5,0,0,0,1.169-.078c.392-.012.858.179.91.567a.715.715,0,0,1-.069.373,2.216,2.216,0,0,1-.114.222c-.005.007-.01.017-.014.024-.23.4-.549.851-1.008.834a2.251,2.251,0,0,1-.731-.28.58.58,0,0,0-.713.118.479.479,0,0,0,.226.616,1.4,1.4,0,0,0,.713.108c.462-.012.923-.022,1.384-.036.315-.007.94-.138,1.2.015a1.455,1.455,0,0,1-.9.5,17.759,17.759,0,0,1-2.481.32,6.257,6.257,0,0,0-1.737.4c-.428.176-.766.606-1.254.534a2.493,2.493,0,0,1-1.432-.887,14.019,14.019,0,0,0-1.377-1.65c-.544-.457-1.286-.756-1.568-1.41a1.5,1.5,0,0,0,.515-2.871,2.587,2.587,0,0,1-.036,1.022,1.225,1.225,0,0,0-.767-.118c-.255.075-.441.406-.275.613a4.42,4.42,0,0,0-1.788-.942.982.982,0,0,0-.567-.026.407.407,0,0,0-.293.439c.827.022.933,1.523,1.759,1.593a3.591,3.591,0,0,1-1.633.35c-.56.084-1.193.475-1.125,1.033a26.618,26.618,0,0,1,3.311-.308c.176-.006-.236.709-.283.755a5.856,5.856,0,0,1-.685.467c-.274.186-1.324,1.253-.45,1.075a20.192,20.192,0,0,0,2.109-.592c.046.577.092,1.157.14,1.734l.505-.6.249,1.142c.142-.111.283-.225.423-.336a1.7,1.7,0,0,1,.613,1.01c.165-.012.329-.026.5-.037.026.095.05.189.075.284-.36.2-.979.06-1.07.461a.423.423,0,0,0,.256.445,1.133,1.133,0,0,0,.545.079,8.674,8.674,0,0,0,1.175-.116,7.547,7.547,0,0,1,1.137-.237c.061.348-.758,1.088-.992,1.333a4.567,4.567,0,0,1-1.465,1.069c-.041.016-.087.04-.094.079-.01.058.051.1.106.119a1.318,1.318,0,0,0,1.017-.088,7.694,7.694,0,0,0,.841-.485,12.225,12.225,0,0,0,1.829-1.355q-.822,1.441-1.64,2.879a4.626,4.626,0,0,0,3.382-2.647,22.586,22.586,0,0,1-.266,3.107,4.879,4.879,0,0,0,1.885-2.981,4.9,4.9,0,0,1,.023,1.64,1.415,1.415,0,0,0,.66,1.4q.736-1.518,1.471-3.037c.208.778.42,1.556.63,2.334a1.982,1.982,0,0,0,.624-1.561c.005-.229-.007-.46-.02-.688a5.784,5.784,0,0,1,.013-1.053,15.482,15.482,0,0,0,1.236,1.773,19.069,19.069,0,0,0-.082-2.328c.3.321.605.64.907.961a8.88,8.88,0,0,0-.312-2.45l.359.35c.184-.369-.041-.8-.089-1.207a4.841,4.841,0,0,1,.191-1.165A7.179,7.179,0,0,0,441.434,499.651Zm-3.1-1.156a.458.458,0,1,1,.458-.457A.457.457,0,0,1,438.33,498.495Z" fill="#9a0133"/>
              </g>
              <path id="Path_17824" data-name="Path 17824" d="M409.427,461.741a1.478,1.478,0,0,1-1.389,1.478,1.611,1.611,0,0,0-1.551-1.2,1.327,1.327,0,0,1-.026-.275,1.482,1.482,0,0,1,2.514-1.066v0a1.446,1.446,0,0,1,.343.507A1.465,1.465,0,0,1,409.427,461.741Z" fill="#fff"/>
              <path id="Path_17825" data-name="Path 17825" d="M411.393,460.256v0a1.247,1.247,0,0,1-1.248,1.242,1.223,1.223,0,0,1-.826-.317,1.446,1.446,0,0,0-.343-.507v0a1.21,1.21,0,0,1-.074-.419,1.243,1.243,0,0,1,2.3-.658v0A1.208,1.208,0,0,1,411.393,460.256Z" fill="#fff"/>
              <path id="Path_17826" data-name="Path 17826" d="M413.452,459.625a1.127,1.127,0,0,1-2.059.635v0a1.208,1.208,0,0,0-.2-.656v0a1.127,1.127,0,0,1,2.254.027Z" fill="#fff"/>
              <path id="Path_17827" data-name="Path 17827" d="M415.53,459.291a.816.816,0,0,1-.02.191,1.051,1.051,0,1,1-.019-.469v0A.967.967,0,0,1,415.53,459.291Z" fill="#fff"/>
              <path id="Path_17828" data-name="Path 17828" d="M403.262,461.741a.87.87,0,1,1,.87.87A.869.869,0,0,1,403.262,461.741Z" fill="#fff"/>
              <path id="Path_17829" data-name="Path 17829" d="M401.042,461.741a1.11,1.11,0,1,1,1.111,1.109A1.109,1.109,0,0,1,401.042,461.741Z" fill="#fff"/>
              <circle id="Ellipse_16" data-name="Ellipse 16" cx="1.109" cy="1.109" r="1.109" transform="translate(398.824 461.077)" fill="#fff"/>
              <path id="Path_17830" data-name="Path 17830" d="M396.479,462.7a1.173,1.173,0,1,1,1.173,1.174A1.172,1.172,0,0,1,396.479,462.7Z" fill="#fff"/>
              <path id="Path_17831" data-name="Path 17831" d="M394.111,463.821a1.32,1.32,0,1,1,1.319,1.321A1.32,1.32,0,0,1,394.111,463.821Z" fill="#fff"/>
              <path id="Path_17832" data-name="Path 17832" d="M392.268,465.691a1.32,1.32,0,1,1,1.321,1.321A1.32,1.32,0,0,1,392.268,465.691Z" fill="#fff"/>
              <path id="Path_17833" data-name="Path 17833" d="M390.439,468.365a1.71,1.71,0,1,1,1.709,1.712A1.711,1.711,0,0,1,390.439,468.365Z" fill="#fff"/>
              <path id="Path_17834" data-name="Path 17834" d="M390.084,472a1.919,1.919,0,1,1,1.919,1.92A1.918,1.918,0,0,1,390.084,472Z" fill="#fff"/>
              <path id="Path_17835" data-name="Path 17835" d="M423.675,459.209a.972.972,0,0,0,1.9.273.815.815,0,0,1-.02-.191,1,1,0,0,1,.037-.275v0a.97.97,0,0,0-1.921.2Z" fill="#fff"/>
              <path id="Path_17836" data-name="Path 17836" d="M434.206,469.133a1.754,1.754,0,1,0,2.521-1.58,1.734,1.734,0,0,0-.765-.176,1.755,1.755,0,0,0-1.756,1.756Z" fill="#fff"/>
              <path id="Path_17837" data-name="Path 17837" d="M437.269,466.352a1.572,1.572,0,0,1-.053.4,1.555,1.555,0,0,1-.489.8,1.734,1.734,0,0,0-.765-.176,1.753,1.753,0,0,0-1.094.382,1.61,1.61,0,0,1-.382-2.518,1.5,1.5,0,0,1,.212-.188,1.58,1.58,0,0,1,.957-.317c.039,0,.082,0,.123.005h0A1.614,1.614,0,0,1,437.269,466.352Z" fill="#fff"/>
              <path id="Path_17838" data-name="Path 17838" d="M432.995,463.632a1.613,1.613,0,0,0,1.491,1.609,1.583,1.583,0,0,1,1.169-.505c.039,0,.082,0,.123.005h0a1.615,1.615,0,0,0-1.172-2.725H434.6a1.608,1.608,0,0,0-1.551,1.2A1.441,1.441,0,0,0,432.995,463.632Z" fill="#fff"/>
              <path id="Path_17839" data-name="Path 17839" d="M431.66,461.741a1.479,1.479,0,0,0,1.391,1.478,1.608,1.608,0,0,1,1.551-1.2,1.482,1.482,0,0,0-2.488-1.341l0,0a1.446,1.446,0,0,0-.343.507A1.465,1.465,0,0,0,431.66,461.741Z" fill="#fff"/>
              <path id="Path_17840" data-name="Path 17840" d="M429.7,460.256v0a1.244,1.244,0,0,0,1.246,1.242,1.22,1.22,0,0,0,.826-.317,1.446,1.446,0,0,1,.343-.507l0,0a1.21,1.21,0,0,0,.072-.419,1.243,1.243,0,0,0-2.3-.658v0A1.207,1.207,0,0,0,429.7,460.256Z" fill="#fff"/>
              <path id="Path_17841" data-name="Path 17841" d="M427.635,459.625a1.128,1.128,0,0,0,2.061.635v0a1.207,1.207,0,0,1,.193-.656v0a1.127,1.127,0,0,0-2.254.027Z" fill="#fff"/>
              <path id="Path_17842" data-name="Path 17842" d="M425.559,459.291a.815.815,0,0,0,.02.191,1.046,1.046,0,1,0,.017-.469v0A1,1,0,0,0,425.559,459.291Z" fill="#fff"/>
              <path id="Path_17843" data-name="Path 17843" d="M437.827,461.741a.87.87,0,1,0-.87.87A.871.871,0,0,0,437.827,461.741Z" fill="#fff"/>
              <circle id="Ellipse_17" data-name="Ellipse 17" cx="1.109" cy="1.109" r="1.109" transform="translate(437.827 460.632)" fill="#fff"/>
              <circle id="Ellipse_18" data-name="Ellipse 18" cx="1.109" cy="1.109" r="1.109" transform="translate(440.045 461.077)" fill="#fff"/>
              <path id="Path_17844" data-name="Path 17844" d="M444.61,462.7a1.173,1.173,0,1,0-1.174,1.174A1.173,1.173,0,0,0,444.61,462.7Z" fill="#fff"/>
              <circle id="Ellipse_19" data-name="Ellipse 19" cx="1.321" cy="1.321" r="1.321" transform="translate(444.337 462.5)" fill="#fff"/>
              <path id="Path_17845" data-name="Path 17845" d="M448.819,465.691a1.32,1.32,0,1,0-1.319,1.321A1.32,1.32,0,0,0,448.819,465.691Z" fill="#fff"/>
              <circle id="Ellipse_20" data-name="Ellipse 20" cx="1.711" cy="1.711" r="1.711" transform="translate(447.227 466.654)" fill="#fff"/>
              <path id="Path_17846" data-name="Path 17846" d="M451.005,472a1.92,1.92,0,1,0-1.92,1.92A1.92,1.92,0,0,0,451.005,472Z" fill="#fff"/>
              <path id="Path_17847" data-name="Path 17847" d="M396.762,479.864a1.326,1.326,0,0,1-.974,1.278,1.249,1.249,0,0,1-.358.051,1.328,1.328,0,0,1-1.33-1.329,1.313,1.313,0,0,1,.3-.834v0a1.331,1.331,0,0,1,2.366.836Z" fill="#fff"/>
              <path id="Path_17848" data-name="Path 17848" d="M400.291,479.111a.752.752,0,1,1,.751.753A.751.751,0,0,1,400.291,479.111Z" fill="#fff"/>
              <path id="Path_17849" data-name="Path 17849" d="M411.708,477.876a.752.752,0,1,1,.753.753A.751.751,0,0,1,411.708,477.876Z" fill="#fff"/>
              <path id="Path_17850" data-name="Path 17850" d="M446.987,479.864a1.328,1.328,0,0,1-1.33,1.329,1.236,1.236,0,0,1-.356-.051,1.328,1.328,0,1,1,1.686-1.278Z" fill="#fff"/>
              <path id="Path_17851" data-name="Path 17851" d="M440.8,479.111a.75.75,0,1,0-.751.753A.75.75,0,0,0,440.8,479.111Z" fill="#fff"/>
              <path id="Path_17852" data-name="Path 17852" d="M429.379,477.876a.751.751,0,1,0-.751.753A.751.751,0,0,0,429.379,477.876Z" fill="#fff"/>
              <path id="Path_17853" data-name="Path 17853" d="M407.048,477.547a1.283,1.283,0,0,1-.094.486,1.328,1.328,0,0,1-1.237.845,1.3,1.3,0,0,1-.691-.2,1.33,1.33,0,1,1,2.022-1.135Z" fill="#fff"/>
              <path id="Path_17854" data-name="Path 17854" d="M436.7,477.547a1.331,1.331,0,1,0-1.331,1.331A1.331,1.331,0,0,0,436.7,477.547Z" fill="#fff"/>
              <path id="Path_17855" data-name="Path 17855" d="M421.875,476.067a1.331,1.331,0,1,1-1.331-1.329A1.329,1.329,0,0,1,421.875,476.067Z" fill="#fff"/>
              <path id="Path_17856" data-name="Path 17856" d="M409.285,513.632V526.34a11.262,11.262,0,0,0,11.26,11.26h0A11.261,11.261,0,0,0,431.8,526.34V513.632Z" fill="#e60000"/>
              <path id="Path_17857" data-name="Path 17857" d="M420.545,533.822a7.491,7.491,0,0,1-7.482-7.482v-8.93h14.963v8.93A7.49,7.49,0,0,1,420.545,533.822Z" fill="#0437a0"/>
              <path id="Path_17858" data-name="Path 17858" d="M422.3,527.261a1.2,1.2,0,0,0-.608.159,3.059,3.059,0,0,0,.164-.894,3.469,3.469,0,0,0-1.315-2.273,3.469,3.469,0,0,0-1.316,2.273,3.065,3.065,0,0,0,.166.894,1.206,1.206,0,0,0-.61-.159c-1.482,0-1.759,2.551,0,2.551,0,0-.29-1.1.272-1.1.433,0,.6.54.65.872h-.3v1.139h.4l-.64.844a.128.128,0,0,0,.156.193l.568-.258.531,1.152a.128.128,0,0,0,.232,0l.53-1.152.57.258a.128.128,0,0,0,.156-.193l-.642-.844h.406v-1.139h-.3c.053-.332.217-.872.651-.872.561,0,.271,1.1.271,1.1C424.064,529.812,423.787,527.261,422.3,527.261Z" fill="#fec552"/>
              <path id="Path_17859" data-name="Path 17859" d="M418.556,521.2a1.226,1.226,0,0,0-.609.159,3.018,3.018,0,0,0,.165-.894,3.469,3.469,0,0,0-1.315-2.273,3.469,3.469,0,0,0-1.316,2.273,3.018,3.018,0,0,0,.165.894,1.226,1.226,0,0,0-.609-.159c-1.483,0-1.759,2.551,0,2.551,0,0-.29-1.1.272-1.1.433,0,.6.539.65.873h-.3v1.137h.406l-.64.844a.128.128,0,0,0,.154.2l.57-.259.531,1.151a.128.128,0,0,0,.232,0l.53-1.151.57.259a.128.128,0,0,0,.154-.2l-.64-.844h.406v-1.137h-.3c.053-.334.217-.873.651-.873.561,0,.271,1.1.271,1.1C420.315,523.749,420.04,521.2,418.556,521.2Z" fill="#fec552"/>
              <path id="Path_17860" data-name="Path 17860" d="M422.532,521.2a1.22,1.22,0,0,1,.609.159,3.054,3.054,0,0,1-.166-.894,1.518,1.518,0,1,1,2.633,0,3.051,3.051,0,0,1-.165.894,1.218,1.218,0,0,1,.609-.159c1.482,0,1.759,2.551,0,2.551,0,0,.288-1.1-.272-1.1-.435,0-.6.539-.65.873h.3v1.137h-.406l.642.844a.129.129,0,0,1-.156.2l-.568-.259-.532,1.151a.128.128,0,0,1-.232,0l-.531-1.151-.568.259a.129.129,0,0,1-.155-.2l.639-.844h-.4v-1.137h.3c-.051-.334-.217-.873-.65-.873-.56,0-.271,1.1-.271,1.1C420.772,523.749,421.049,521.2,422.532,521.2Z" fill="#fec552"/>
            </g>
          </g>
        </g>
      </g>
    </g>
  </g>
</svg>
