<svg xmlns="http://www.w3.org/2000/svg" xmlns:xlink="http://www.w3.org/1999/xlink" width="419.51" height="289.167" viewBox="0 0 419.51 289.167">
  <defs>
    <linearGradient id="linear-gradient" y1="0.5" x2="1" y2="0.5" gradientUnits="objectBoundingBox">
      <stop offset="0" stop-color="#dab264"/>
      <stop offset="0.482" stop-color="#be895f"/>
      <stop offset="1" stop-color="#996a45"/>
    </linearGradient>
    <clipPath id="clip-path">
      <path id="Path_9057" data-name="Path 9057" d="M455.647,144.1a1819.438,1819.438,0,0,0-378.629,0A576.1,576.1,0,0,0,62.97,272.417,576.1,576.1,0,0,0,77.018,400.731a1823.376,1823.376,0,0,0,189.315,9.877,1823.357,1823.357,0,0,0,189.314-9.877A576.1,576.1,0,0,0,469.7,272.417,576.1,576.1,0,0,0,455.647,144.1Z" fill="none"/>
    </clipPath>
  </defs>
  <g id="Group_4978" data-name="Group 4978" transform="translate(-56.578 -127.833)">
    <path id="Path_9002" data-name="Path 9002" d="M266.325,417a1837.809,1837.809,0,0,1-189.978-9.912l-4.546-.479-1.016-4.459A585.284,585.284,0,0,1,56.578,272.417,585.256,585.256,0,0,1,70.785,142.685l1.016-4.459,4.546-.479a1825.338,1825.338,0,0,1,379.971,0l4.547.479,1.016,4.459a585.316,585.316,0,0,1,14.207,129.732A585.344,585.344,0,0,1,461.881,402.15l-1.016,4.459-4.547.479A1837.774,1837.774,0,0,1,266.341,417Z" fill="url(#linear-gradient)"/>
    <g id="Group_4977" data-name="Group 4977">
      <g id="Group_4976" data-name="Group 4976" clip-path="url(#clip-path)">
        <g id="Group_4975" data-name="Group 4975">
          <rect id="Rectangle_728" data-name="Rectangle 728" width="786" height="95.748" transform="translate(-126.667 320.293)" fill="#49a9f6"/>
          <rect id="Rectangle_729" data-name="Rectangle 729" width="786" height="95.748" transform="translate(-126.667 128.792)" fill="#49a9f6"/>
          <rect id="Rectangle_730" data-name="Rectangle 730" width="786" height="95.75" transform="translate(-126.667 224.543)" fill="#fff"/>
          <g id="Group_4974" data-name="Group 4974">
            <path id="Path_9005" data-name="Path 9005" d="M303.027,272.069a.744.744,0,0,0-.684-.368l-.291-.008c-11.005-.422-17.154-.613-20.6-.688-.006-.059-.01-.118-.016-.178.729-.223,1.552-.513,2.406-.818a24.372,24.372,0,0,1,5.341-1.5,9.161,9.161,0,0,1,1.164.031,11.172,11.172,0,0,0,4.087-.311,12.554,12.554,0,0,0,3.025-1.433,4.137,4.137,0,0,1,3.84-.773c.341.1.778.16.914-.087s-.157-.566-.393-.782a4.525,4.525,0,0,0-4.12-.444c-4.688,2.028-6.243,1.833-7.744,1.643a7.846,7.846,0,0,0-2.948.067,27.234,27.234,0,0,0-3.03.839c-.429.139-.873.284-1.39.435a6.7,6.7,0,0,1-1.712.354c-.015-.05-.028-.1-.044-.151l19.078-8.68a.662.662,0,0,0,.434-.519.684.684,0,0,0-.236-.645.739.739,0,0,0-.774-.077l-19.586,7.335c-.024-.046-.046-.093-.07-.138.587-.483,1.233-1.067,1.9-1.674a24.073,24.073,0,0,1,4.368-3.435,9.509,9.509,0,0,1,1.085-.417,11.244,11.244,0,0,0,3.66-1.851,12.712,12.712,0,0,0,1.995-2.2c.962-1.26,1.721-2.255,3.5-2.463.513-.062.785-.208.812-.431.032-.285-.365-.462-.666-.572a4.5,4.5,0,0,0-3.974,1.167c-3.548,3.657-5.1,4.093-6.6,4.514a7.763,7.763,0,0,0-2.624,1.157,26.047,26.047,0,0,0-2.842,2.243,7.727,7.727,0,0,1-2.252,1.549c-.016-.02-.033-.038-.049-.057l9.134-9.785,5.175-5.543a.667.667,0,0,0,.2-.649.69.69,0,0,0-.464-.5.738.738,0,0,0-.738.218L276,260.72c-.039-.032-.08-.063-.119-.1.36-.675.736-1.466,1.125-2.286a24.442,24.442,0,0,1,2.715-4.841,9.549,9.549,0,0,1,.837-.792,11.225,11.225,0,0,0,2.681-3.118,12.655,12.655,0,0,0,1.124-3.149,4.136,4.136,0,0,1,2.169-3.264c.45-.252.646-.49.586-.707-.079-.276-.514-.288-.833-.276a4.506,4.506,0,0,0-3.226,2.6c-1.883,4.745-3.149,5.737-4.373,6.7a7.684,7.684,0,0,0-1.979,2.071,26.757,26.757,0,0,0-1.75,3.12,8.021,8.021,0,0,1-1.507,2.33c-.021-.011-.044-.021-.065-.033l7.353-19.635a.685.685,0,0,0-.346-.906.705.705,0,0,0-.941.436l-.014.033c-.064.141-.362.794-1.486,3.266-1.9,4.182-5.188,11.4-7.16,15.731-.049-.014-.1-.027-.148-.042.073-.759.118-1.63.163-2.534a24.187,24.187,0,0,1,.657-5.514,9.583,9.583,0,0,1,.472-1.059,11.216,11.216,0,0,0,1.28-3.9,13.308,13.308,0,0,0-.14-3.143c-.2-1.489-.354-2.665.729-4.042.319-.406.41-.7.27-.878-.179-.224-.585-.07-.875.066a4.5,4.5,0,0,0-1.985,3.635c.073,5.119-.7,6.483-1.453,7.8a7.7,7.7,0,0,0-1.059,2.733,26.319,26.319,0,0,0-.423,3.558,8.022,8.022,0,0,1-.5,2.719c-.025,0-.05,0-.076,0l-.185-5.406c-.158-4.644-.171-5.028-.535-15.547a.681.681,0,0,0-.67-.7.693.693,0,0,0-.7.755l-.005.164h0c-.053,1.572-.487,14.172-.713,20.734-.05.006-.1.008-.155.014-.221-.729-.515-1.553-.82-2.406a24.333,24.333,0,0,1-1.5-5.342,9.71,9.71,0,0,1,.032-1.159,11.226,11.226,0,0,0-.307-4.091,12.592,12.592,0,0,0-1.434-3.019,4.148,4.148,0,0,1-.774-3.847c.139-.5.108-.8-.088-.913-.25-.138-.566.16-.781.4a4.511,4.511,0,0,0-.444,4.119c2.022,4.685,1.83,6.284,1.644,7.83a7.73,7.73,0,0,0,.066,2.863,26.5,26.5,0,0,0,.97,3.445,8.026,8.026,0,0,1,.581,2.707l-.072.019-8.683-19.077a.683.683,0,0,0-.875-.4.706.706,0,0,0-.369.978l.04.106h0c.465,1.246,4.968,13.269,7.3,19.482l-.138.072c-.486-.59-1.073-1.24-1.683-1.914a24.165,24.165,0,0,1-3.428-4.357,9.574,9.574,0,0,1-.415-1.086,11.244,11.244,0,0,0-1.85-3.661,12.753,12.753,0,0,0-2.2-1.993c-1.259-.961-2.253-1.72-2.468-3.5-.06-.513-.205-.786-.43-.812-.281-.034-.463.362-.573.664-.7,1.918.7,3.41,2.3,5.136a21.852,21.852,0,0,1,2.094,2.485,11.084,11.084,0,0,1,1.243,2.831,10.9,10.9,0,0,0,1.2,2.747,26.362,26.362,0,0,0,2.225,2.824,7.939,7.939,0,0,1,1.566,2.272c-.02.016-.038.033-.056.05l-2.168-2.023c-4.435-4.139-4.435-4.139-9.972-9.311l-3.188-2.977a.677.677,0,0,0-.971-.026.7.7,0,0,0,.042,1.035l14.275,15.289c-.032.039-.063.08-.1.119-.673-.356-1.461-.731-2.279-1.12a24.485,24.485,0,0,1-4.851-2.722,9.681,9.681,0,0,1-.8-.843,11.169,11.169,0,0,0-3.109-2.672,12.533,12.533,0,0,0-3.15-1.123,4.134,4.134,0,0,1-3.264-2.174c-.254-.448-.49-.644-.709-.582-.275.079-.288.513-.274.834a4.514,4.514,0,0,0,2.6,3.224c4.747,1.885,5.716,3.128,6.651,4.33a7.767,7.767,0,0,0,2.118,2.024,26.842,26.842,0,0,0,3.122,1.75,7.988,7.988,0,0,1,2.329,1.505c-.011.023-.023.045-.034.066l-19.637-7.355a.677.677,0,0,0-.9.343.7.7,0,0,0,.432.947l.224.1h0l3.411,1.553,15.4,7.007c-.014.049-.027.1-.042.149-.762-.073-1.635-.118-2.544-.165a24.171,24.171,0,0,1-5.5-.655,9.7,9.7,0,0,1-1.064-.475,11.191,11.191,0,0,0-3.893-1.277,13.245,13.245,0,0,0-3.149.139c-1.488.2-2.661.356-4.039-.73-.406-.317-.7-.407-.878-.268-.223.178-.07.584.064.875.847,1.814,3.023,1.9,5.326,2a22.606,22.606,0,0,1,3.174.28,11.063,11.063,0,0,1,2.885,1.126,10.928,10.928,0,0,0,2.786,1.094,26.1,26.1,0,0,0,3.574.423,7.876,7.876,0,0,1,2.705.5c0,.025,0,.052-.005.077-15.063.517-20.957.721-20.947.721a.682.682,0,0,0-.044,1.363l20.995.719c.006.052.008.1.014.156-.729.224-1.55.516-2.4.821a24.327,24.327,0,0,1-5.345,1.5,9.66,9.66,0,0,1-1.158-.031,11.2,11.2,0,0,0-4.092.309,12.512,12.512,0,0,0-3.025,1.436,4.149,4.149,0,0,1-3.841.771c-.5-.139-.8-.111-.913.085-.139.25.159.568.4.784a2.845,2.845,0,0,0,2.015.744,11.532,11.532,0,0,0,3.677-.938,22.588,22.588,0,0,1,3.03-.952,11.049,11.049,0,0,1,3.094-.065,10.825,10.825,0,0,0,3-.057,25.889,25.889,0,0,0,3.465-.975,7.933,7.933,0,0,1,2.687-.576c.008.024.013.048.02.072l-19.077,8.684a.689.689,0,0,0-.4.884.647.647,0,0,0,.628.425,1.068,1.068,0,0,0,.344-.065l.1-.041h0l19.484-7.3c.024.045.046.092.072.136-.589.485-1.236,1.068-1.906,1.675a24.191,24.191,0,0,1-4.368,3.436,9.364,9.364,0,0,1-1.085.417,11.174,11.174,0,0,0-3.658,1.85,12.5,12.5,0,0,0-2.251,2.488,4.119,4.119,0,0,1-3.247,2.177c-.513.062-.785.207-.812.43-.032.285.364.464.665.573a2.9,2.9,0,0,0,1,.184c1.459,0,2.715-1.168,4.126-2.486a22.468,22.468,0,0,1,2.49-2.1,11.134,11.134,0,0,1,2.833-1.242,10.855,10.855,0,0,0,2.747-1.2,26.714,26.714,0,0,0,2.817-2.218,8,8,0,0,1,2.279-1.573l.048.055L240.364,297.46a.684.684,0,0,0-.028.967.659.659,0,0,0,.478.208.821.821,0,0,0,.56-.246l.4-.374,14.891-13.9c.042.037.087.071.132.106a22.91,22.91,0,0,0-1.218,2.444,13.086,13.086,0,0,1-3.9,5.863,9.288,9.288,0,0,0-2.251,2.72,12.578,12.578,0,0,0-1.125,3.163,4.119,4.119,0,0,1-2.168,3.253c-.45.251-.648.49-.586.706.066.232.385.278.676.278.054,0,.108,0,.158,0a4.506,4.506,0,0,0,3.225-2.6c1.892-4.757,3.129-5.719,4.327-6.649a7.722,7.722,0,0,0,2.025-2.12,25.982,25.982,0,0,0,1.8-3.222,7.309,7.309,0,0,1,1.449-2.235l.073.038-7.354,19.636a.684.684,0,0,0,.344.9.7.7,0,0,0,.284.062.683.683,0,0,0,.236-.042.673.673,0,0,0,.382-.358l.042-.09,8.66-19.03c.053.017.108.029.163.046a22.859,22.859,0,0,0-.187,2.719,13.083,13.083,0,0,1-1.362,6.907,9.236,9.236,0,0,0-1.039,3.375,13.237,13.237,0,0,0,.141,3.143c.2,1.487.356,2.661-.73,4.046-.319.4-.409.7-.268.877a.328.328,0,0,0,.271.113,1.57,1.57,0,0,0,.6-.178,4.507,4.507,0,0,0,1.986-3.636c-.074-5.114.7-6.477,1.451-7.8a7.705,7.705,0,0,0,1.06-2.738,26.469,26.469,0,0,0,.424-3.556,8,8,0,0,1,.5-2.722l.074.006.722,20.952a.682.682,0,0,0,.666.7h.022a.7.7,0,0,0,.68-.762v-.048c.007-.191.038-1.074.167-4.828.155-4.537.4-11.631.551-16.024.056-.005.114-.009.17-.015a22.836,22.836,0,0,0,.866,2.58,13.169,13.169,0,0,1,1.386,6.92,9.272,9.272,0,0,0,.332,3.5,12.6,12.6,0,0,0,1.434,3.024c.734,1.212,1.267,2.089.772,3.843-.139.5-.109.8.087.914a.28.28,0,0,0,.138.035c.222,0,.468-.236.646-.43a4.515,4.515,0,0,0,.442-4.12c-2.023-4.687-1.829-6.254-1.643-7.77a7.737,7.737,0,0,0-.069-2.922,26.343,26.343,0,0,0-.967-3.444,8,8,0,0,1-.582-2.709l.072-.021,2.507,5.505c1.643,3.614,2.057,4.525,6.177,13.573a.668.668,0,0,0,.637.439.685.685,0,0,0,.606-1.014l-.012-.028c-3.639-9.713-6-16-7.325-19.561l.151-.078a23.6,23.6,0,0,0,1.788,2.054,13.072,13.072,0,0,1,3.921,5.847,9.253,9.253,0,0,0,1.653,3.122,12.534,12.534,0,0,0,2.486,2.247,4.135,4.135,0,0,1,2.18,3.25c.062.514.208.788.431.813h.033c.265,0,.433-.376.539-.665a4.507,4.507,0,0,0-1.169-3.976c-3.675-3.576-4.085-5.077-4.481-6.529a7.812,7.812,0,0,0-1.19-2.7,26.183,26.183,0,0,0-2.289-2.9,7.263,7.263,0,0,1-1.508-2.189c.022-.018.042-.038.063-.055l15.329,14.313a.669.669,0,0,0,.49.212.717.717,0,0,0,.481-.188.7.7,0,0,0-.045-1.034c-.007-.009-.989-1.059-3.792-4.063l-10.482-11.227c.033-.039.064-.08.1-.119.675.359,1.469.737,2.292,1.127a24.216,24.216,0,0,1,4.835,2.714,9.343,9.343,0,0,1,.8.841,11.241,11.241,0,0,0,3.112,2.674,12.534,12.534,0,0,0,3.152,1.125,4.144,4.144,0,0,1,3.262,2.171c.222.4.434.594.63.594a.306.306,0,0,0,.078-.011c.275-.079.288-.513.274-.831-.09-2.041-1.949-2.889-4.1-3.87a22.066,22.066,0,0,1-2.877-1.488,11.072,11.072,0,0,1-2.232-2.142,10.9,10.9,0,0,0-2.159-2.079,26.462,26.462,0,0,0-3.129-1.754,8,8,0,0,1-2.322-1.5c.013-.022.023-.044.035-.066l4.34,1.625,14.408,5.4.886.331a.687.687,0,1,0,.471-1.287l-.031-.013c-7.868-3.579-14.945-6.8-19-8.646.016-.049.029-.1.044-.149.757.073,1.626.118,2.526.162a24.345,24.345,0,0,1,5.523.657,9.863,9.863,0,0,1,1.054.472,11.254,11.254,0,0,0,3.9,1.282,13.182,13.182,0,0,0,3.15-.142c1.48-.2,2.652-.358,4.036.729a1.258,1.258,0,0,0,.686.333.3.3,0,0,0,.194-.064c.224-.178.07-.582-.065-.871-.864-1.85-2.9-1.922-5.261-2a22.184,22.184,0,0,1-3.24-.276,11.1,11.1,0,0,1-2.885-1.127,10.836,10.836,0,0,0-2.786-1.092,26.1,26.1,0,0,0-3.59-.424,7.812,7.812,0,0,1-2.688-.495c0-.025,0-.052.006-.077l20.951-.721a.666.666,0,0,0,.6-.313A.691.691,0,0,0,303.027,272.069Z" fill="#853409"/>
            <g id="Group_4973" data-name="Group 4973">
              <path id="Path_9006" data-name="Path 9006" d="M266.332,257.91a14.507,14.507,0,1,0,14.508,14.508A14.524,14.524,0,0,0,266.332,257.91Z" fill="#ffc703"/>
              <path id="Path_9007" data-name="Path 9007" d="M258.754,270.569l-.075-.047-.028-.016.021-.025.057-.068h0a3.346,3.346,0,0,1,5.164-.115c.021.027.038.049.057.075-.023.023-.039.036-.067.063v0h0a4.569,4.569,0,0,1-5.126.13Z" fill="#853409"/>
              <path id="Path_9008" data-name="Path 9008" d="M274.165,270.522l-.078.047h0a4.557,4.557,0,0,1-5.126-.13v0l-.052-.047-.016-.016.013-.019.044-.056a3.374,3.374,0,0,1,5.165.115h0l.055.068.02.025Z" fill="#853409"/>
              <path id="Path_9009" data-name="Path 9009" d="M266.3,247.832c.005.178.158,6.019.248,9.408q.422,0,.84.035L267.2,251.9c-.158-4.646-.171-5.027-.535-15.552v-.01a.371.371,0,0,0-.366-.378c-.222-.007-.347.145-.371.409v.038l-.719,20.868c.28-.02.56-.034.843-.038C266.183,252.4,266.137,254.139,266.3,247.832Z" fill="#ffc703"/>
              <path id="Path_9010" data-name="Path 9010" d="M270.916,248.663c-1.6,3.685-.552,3.122-1.293,8.934.238.053.477.112.712.177.068-.738.112-1.585.155-2.462a24.016,24.016,0,0,1,.675-5.6,9.848,9.848,0,0,1,.487-1.1,10.929,10.929,0,0,0,1.25-3.791,12.96,12.96,0,0,0-.139-3.072c-.2-1.5-.371-2.8.793-4.279a1.075,1.075,0,0,0,.266-.481,1.1,1.1,0,0,0-.489.149,4.219,4.219,0,0,0-1.8,3.346c.074,5.2-.723,6.606-1.495,7.961a7.468,7.468,0,0,0-1.022,2.635,26.257,26.257,0,0,0-.419,3.521,8.35,8.35,0,0,1-.491,2.736c.3.035.6.08.9.132C270.1,252.746,268.878,251.671,270.916,248.663Z" fill="#ffc703"/>
              <path id="Path_9011" data-name="Path 9011" d="M252.188,239.311c.07.188,4.876,13.024,7.32,19.55.25-.127.5-.248.761-.36-1.555-4.049-1.121-2.921-3.372-8.788,1.824,4.1,3.066,6.889,3.827,8.6q.39-.156.789-.291l-8.673-19.064a.367.367,0,0,0-.475-.223c-.156.058-.285.228-.2.534Z" fill="#ffc703"/>
              <path id="Path_9012" data-name="Path 9012" d="M260.584,248.921a7.487,7.487,0,0,0,.06,2.761,26.094,26.094,0,0,0,.961,3.409,8.426,8.426,0,0,1,.594,2.719c.289-.081.582-.156.879-.222-.791-4.785-2.331-5.313-1.6-8.87-.072,4.029.682,3.075,2.226,8.749q.36-.063.724-.109c-.217-.71-.5-1.511-.8-2.341a23.973,23.973,0,0,1-1.519-5.426,9.724,9.724,0,0,1,.032-1.2,10.975,10.975,0,0,0-.3-3.978,12.326,12.326,0,0,0-1.4-2.95,4.439,4.439,0,0,1-.807-4.093,1.123,1.123,0,0,0,.06-.546,1.078,1.078,0,0,0-.393.327,4.215,4.215,0,0,0-.388,3.78C260.971,245.692,260.766,247.409,260.584,248.921Z" fill="#ffc703"/>
              <path id="Path_9013" data-name="Path 9013" d="M240.593,247.245c7.761,8.312,11.967,12.818,14.251,15.263.184-.212.372-.42.567-.622-2.991-3.15-2.157-2.271-6.484-6.833,3.262,3.1,5.473,5.2,6.831,6.484.2-.195.407-.384.619-.569l-2.141-2c-4.436-4.139-4.436-4.139-9.975-9.312l-3.2-2.986a.362.362,0,0,0-.528-.018.382.382,0,0,0,.031.565Z" fill="#ffc703"/>
              <path id="Path_9014" data-name="Path 9014" d="M250.7,249.857a11.31,11.31,0,0,1,1.282,2.912,10.454,10.454,0,0,0,1.161,2.666,25.911,25.911,0,0,0,2.2,2.8,8.26,8.26,0,0,1,1.584,2.281q.355-.28.727-.543c-2.565-4.126-4.19-4.019-4.88-7.588,1.479,3.75,1.812,2.586,5.409,7.236.205-.131.414-.258.626-.379-.473-.573-1.045-1.207-1.638-1.862a24.116,24.116,0,0,1-3.477-4.429,10,10,0,0,1-.433-1.123,10.933,10.933,0,0,0-1.793-3.563,12.365,12.365,0,0,0-2.147-1.944c-1.267-.966-2.36-1.8-2.59-3.716a.287.287,0,1,0-.393-.076c-.63,1.736.7,3.162,2.24,4.813A22.5,22.5,0,0,1,250.7,249.857Z" fill="#ffc703"/>
              <path id="Path_9015" data-name="Path 9015" d="M232.87,258.987l.048.022c.012.006,1.468.667,3.634,1.655,8.061,3.667,12.7,5.778,15.366,6.992.089-.266.186-.53.288-.792-3.963-1.765-2.858-1.272-8.6-3.828l8.786,3.373c.112-.258.231-.511.356-.762L233.131,258.3a.362.362,0,0,0-.49.184C232.572,258.636,232.6,258.844,232.87,258.987Z" fill="#ffc703"/>
              <path id="Path_9016" data-name="Path 9016" d="M238.824,255.4c4.827,1.917,5.821,3.2,6.783,4.429a7.5,7.5,0,0,0,2.042,1.954,26.44,26.44,0,0,0,3.088,1.73,8.344,8.344,0,0,1,2.347,1.506q.221-.4.468-.777c-3.888-2.779-5.433-2.146-7.413-5.144,1.764,1.828,4.647,2.915,7.758,4.627.144-.2.292-.4.446-.6-.655-.347-1.422-.711-2.217-1.088a24.178,24.178,0,0,1-4.921-2.768,10.056,10.056,0,0,1-.83-.874,10.9,10.9,0,0,0-3.02-2.6,12.307,12.307,0,0,0-3.077-1.1,4.436,4.436,0,0,1-3.464-2.324,1.119,1.119,0,0,0-.343-.428,1.06,1.06,0,0,0-.049.51A4.221,4.221,0,0,0,238.824,255.4Z" fill="#ffc703"/>
              <path id="Path_9017" data-name="Path 9017" d="M251.157,272.693l-9.409-.245,9.408-.245c0-.283.015-.562.035-.84l-20.923.717h-.017a.351.351,0,0,0-.367.357.345.345,0,0,0,.35.377l20.961.72C251.175,273.254,251.161,272.975,251.157,272.693Z" fill="#ffc703"/>
              <path id="Path_9018" data-name="Path 9018" d="M236.109,267.232a23.223,23.223,0,0,1,3.217.285,11.317,11.317,0,0,1,2.971,1.155,10.548,10.548,0,0,0,2.7,1.066,25.759,25.759,0,0,0,3.535.418,8.236,8.236,0,0,1,2.723.486c.035-.3.08-.6.132-.89-4.661-1.082-5.836.1-8.81-1.916,3.571,1.552,3.406.593,8.934,1.292.053-.24.112-.477.177-.713-.741-.07-1.59-.114-2.472-.157a24.107,24.107,0,0,1-5.589-.673,9.7,9.7,0,0,1-1.1-.49,10.889,10.889,0,0,0-3.785-1.246,12.893,12.893,0,0,0-3.077.137c-1.5.2-2.794.373-4.277-.794a1.071,1.071,0,0,0-.48-.264,1.086,1.086,0,0,0,.149.488C231.822,267.057,233.808,267.138,236.109,267.232Z" fill="#ffc703"/>
              <path id="Path_9019" data-name="Path 9019" d="M252.417,278.48c-4.05,1.554-2.92,1.12-8.786,3.374l8.6-3.829c-.1-.259-.2-.522-.289-.789l-19.062,8.675a.369.369,0,0,0-.219.482c.057.154.227.279.533.184l.034-.014,19.553-7.32C252.65,278.992,252.529,278.737,252.417,278.48Z" fill="#ffc703"/>
              <path id="Path_9020" data-name="Path 9020" d="M236.435,279.191a22.518,22.518,0,0,1,3.074-.965,11.275,11.275,0,0,1,3.182-.07,10.476,10.476,0,0,0,2.906-.051,25.9,25.9,0,0,0,3.427-.965,8.2,8.2,0,0,1,2.7-.592c-.083-.289-.156-.58-.222-.876-4.719.787-5.361,2.325-8.87,1.6,3.89.065,3.477-.775,8.749-2.223q-.063-.361-.109-.73c-.71.219-1.509.5-2.337.8a24.129,24.129,0,0,1-5.43,1.521,10.062,10.062,0,0,1-1.2-.031,10.944,10.944,0,0,0-3.98.3,12.277,12.277,0,0,0-2.955,1.4,4.446,4.446,0,0,1-4.088.807,1.1,1.1,0,0,0-.545-.064c.011.041.066.159.324.4C232.4,280.671,234.269,279.985,236.435,279.191Z" fill="#ffc703"/>
              <path id="Path_9021" data-name="Path 9021" d="M255.8,283.338c-3.893,3.695-2.663,2.527-6.834,6.484,3.1-3.269,5.2-5.475,6.485-6.831-.2-.2-.386-.408-.57-.619l-14.3,15.314a.363.363,0,0,0-.017.525c.115.125.321.178.564-.028l.027-.027.4-.372,14.866-13.878C256.21,283.723,256,283.533,255.8,283.338Z" fill="#ffc703"/>
              <path id="Path_9022" data-name="Path 9022" d="M243.773,288.047a11.4,11.4,0,0,1,2.911-1.281,10.464,10.464,0,0,0,2.668-1.158,26.123,26.123,0,0,0,2.787-2.2,8.366,8.366,0,0,1,2.289-1.59c-.188-.238-.369-.48-.544-.729-4.069,2.535-4.06,4.2-7.588,4.879,3.608-1.416,2.829-1.985,7.236-5.406-.132-.206-.258-.415-.381-.629-.57.472-1.2,1.041-1.852,1.632a24,24,0,0,1-4.438,3.484,9.6,9.6,0,0,1-1.125.433,10.918,10.918,0,0,0-3.559,1.8,12.189,12.189,0,0,0-2.2,2.432,4.423,4.423,0,0,1-3.465,2.3,1.113,1.113,0,0,0-.528.154,1.1,1.1,0,0,0,.451.24c1.732.629,3.158-.7,4.807-2.236A22.576,22.576,0,0,1,243.773,288.047Z" fill="#ffc703"/>
              <path id="Path_9023" data-name="Path 9023" d="M260.779,286.543c-1.763,3.963-1.271,2.86-3.829,8.6,1.621-4.217,2.71-7.05,3.375-8.784-.258-.111-.512-.231-.762-.357l-7.348,19.616a.367.367,0,0,0-.009.278.356.356,0,0,0,.193.206.361.361,0,0,0,.279.011.357.357,0,0,0,.207-.191l.04-.091c.006-.011,5.421-11.914,8.646-19Q261.17,286.7,260.779,286.543Z" fill="#ffc703"/>
              <path id="Path_9024" data-name="Path 9024" d="M253.737,293.147a7.466,7.466,0,0,0,1.955-2.045,25.656,25.656,0,0,0,1.781-3.187,7.679,7.679,0,0,1,1.449-2.254q-.391-.219-.768-.462c-2.8,3.9-2.138,5.424-5.144,7.411,2.789-2.695,1.936-3.05,4.617-7.765-.2-.138-.39-.281-.58-.428a22.58,22.58,0,0,0-1.174,2.359,13.374,13.374,0,0,1-3.985,5.983,8.993,8.993,0,0,0-2.185,2.635,12.245,12.245,0,0,0-1.1,3.09,4.416,4.416,0,0,1-2.32,3.453,1.119,1.119,0,0,0-.43.341,1.089,1.089,0,0,0,.51.05,4.219,4.219,0,0,0,2.947-2.4C251.234,295.091,252.507,294.1,253.737,293.147Z" fill="#ffc703"/>
              <path id="Path_9025" data-name="Path 9025" d="M266.363,297c-.118-4.49-.2-7.54-.246-9.408-.282,0-.563-.017-.843-.036l.721,20.932a.366.366,0,0,0,.362.385c.169.006.353-.105.375-.428v-.032c0-.027.069-2.023.167-4.874.286-8.306.453-13.154.55-15.988-.279.021-.558.034-.84.04C266.495,291.929,266.526,290.721,266.363,297Z" fill="#ffc703"/>
              <path id="Path_9026" data-name="Path 9026" d="M261.751,296.172c.757-1.746,1-1.986,1.046-6.529,0-.51.126-1.534.243-2.406q-.351-.078-.7-.173a22.519,22.519,0,0,0-.178,2.624,13.35,13.35,0,0,1-1.393,7.05,8.983,8.983,0,0,0-1.01,3.269,13.053,13.053,0,0,0,.139,3.072c.2,1.5.374,2.793-.793,4.282a1.11,1.11,0,0,0-.266.48,1.069,1.069,0,0,0,.49-.149,4.216,4.216,0,0,0,1.8-3.345c-.076-5.2.72-6.6,1.491-7.957a7.449,7.449,0,0,0,1.024-2.641,26.344,26.344,0,0,0,.42-3.518,8.337,8.337,0,0,1,.491-2.737c-.3-.035-.6-.08-.9-.133C262.589,292.008,263.758,293.208,261.751,296.172Z" fill="#ffc703"/>
              <path id="Path_9027" data-name="Path 9027" d="M280.479,305.524c-3.632-9.695-5.987-15.984-7.323-19.55-.25.127-.5.246-.761.36,1.552,4.042,1.123,2.922,3.373,8.786l-3.827-8.6c-.26.1-.524.2-.789.289l2.491,5.478c1.645,3.613,2.059,4.525,6.18,13.576l0,.011a.365.365,0,0,0,.478.217c.16-.059.289-.235.181-.554Z" fill="#ffc703"/>
              <path id="Path_9028" data-name="Path 9028" d="M272.083,295.972a7.5,7.5,0,0,0-.063-2.818,26.1,26.1,0,0,0-.959-3.409,8.385,8.385,0,0,1-.594-2.721q-.435.122-.879.221c.783,4.735,2.325,5.338,1.6,8.871.032-1.9.163-2.216-1.534-6.431-.189-.473-.469-1.466-.694-2.318-.236.041-.471.078-.71.107a22.824,22.824,0,0,0,.838,2.493,13.448,13.448,0,0,1,1.413,7.061,9,9,0,0,0,.319,3.392,12.194,12.194,0,0,0,1.4,2.954,4.441,4.441,0,0,1,.806,4.092,1.086,1.086,0,0,0-.061.545c.04-.011.159-.066.4-.324a4.223,4.223,0,0,0,.386-3.782C271.691,299.139,271.891,297.528,272.083,295.972Z" fill="#ffc703"/>
              <path id="Path_9029" data-name="Path 9029" d="M290.2,295.583c-6.545-7.009-10.268-11-12.377-13.256-.184.212-.373.42-.568.622l6.483,6.831-6.831-6.482q-.3.293-.618.568l15.314,14.3a.368.368,0,0,0,.529.015c.163-.152.139-.372-.06-.591Z" fill="#ffc703"/>
              <path id="Path_9030" data-name="Path 9030" d="M280.668,292a7.443,7.443,0,0,0-1.146-2.6,25.745,25.745,0,0,0-2.263-2.868,7.654,7.654,0,0,1-1.528-2.2c-.235.186-.475.366-.721.537,2.528,4.053,4.2,4.067,4.879,7.589-1.427-3.623-1.987-2.827-5.407-7.237q-.3.193-.615.374a23.049,23.049,0,0,0,1.73,1.986,13.347,13.347,0,0,1,4,5.967,9,9,0,0,0,1.6,3.028,12.23,12.23,0,0,0,2.429,2.194,4.434,4.434,0,0,1,2.307,3.466,1.092,1.092,0,0,0,.153.529,1.061,1.061,0,0,0,.24-.449,4.213,4.213,0,0,0-1.091-3.643C281.5,295.034,281.076,293.489,280.668,292Z" fill="#ffc703"/>
              <path id="Path_9031" data-name="Path 9031" d="M299.764,285.834l-.019-.008-19-8.646c-.088.267-.185.531-.288.79l8.6,3.826-8.784-3.369q-.169.385-.357.761l4.317,1.617,14.442,5.408.855.322a.365.365,0,0,0,.493-.186C300.1,286.192,300.064,285.977,299.764,285.834Z" fill="#ffc703"/>
              <path id="Path_9032" data-name="Path 9032" d="M292.325,288.789a22.219,22.219,0,0,1-2.917-1.511,11.3,11.3,0,0,1-2.3-2.2,10.493,10.493,0,0,0-2.093-2.02,26.3,26.3,0,0,0-3.094-1.734,8.321,8.321,0,0,1-2.341-1.5q-.222.395-.466.774c3.887,2.776,5.445,2.158,7.411,5.143-2.687-2.787-3.029-1.923-7.764-4.618-.142.2-.288.4-.438.594.657.348,1.43.715,2.229,1.094a23.966,23.966,0,0,1,4.907,2.76,9.692,9.692,0,0,1,.827.871,10.947,10.947,0,0,0,3.024,2.6,12.218,12.218,0,0,0,3.078,1.1,4.444,4.444,0,0,1,3.462,2.321,1.108,1.108,0,0,0,.343.429,1.052,1.052,0,0,0,.051-.508C296.161,290.537,294.383,289.727,292.325,288.789Z" fill="#ffc703"/>
              <path id="Path_9033" data-name="Path 9033" d="M302.749,272.219a.421.421,0,0,0-.358-.2l-.35-.013c-9.186-.351-16.335-.588-20.569-.688.019.272.032.546.036.822,6.67.174,9.41.247,9.41.247l-9.408.246c0,.282-.016.561-.035.84l20.927-.718h.005a.365.365,0,0,0,.325-.165A.38.38,0,0,0,302.749,272.219Z" fill="#ffc703"/>
              <path id="Path_9034" data-name="Path 9034" d="M296.623,277.6a22.1,22.1,0,0,1-3.285-.281,11.314,11.314,0,0,1-2.971-1.154,10.476,10.476,0,0,0-2.7-1.066,26.135,26.135,0,0,0-3.55-.419,8.135,8.135,0,0,1-2.706-.483c-.036.3-.081.6-.132.89,4.645,1.076,5.826-.1,8.811,1.916-3.576-1.552-3.416-.6-8.935-1.293q-.08.36-.177.714c.736.069,1.58.111,2.455.155a23.952,23.952,0,0,1,5.606.673,9.964,9.964,0,0,1,1.094.487,10.982,10.982,0,0,0,3.792,1.253,12.875,12.875,0,0,0,3.079-.142,12.015,12.015,0,0,1,1.6-.146,4.074,4.074,0,0,1,2.675.941,1.083,1.083,0,0,0,.482.264,1.053,1.053,0,0,0-.149-.486C300.828,277.744,298.879,277.677,296.623,277.6Z" fill="#ffc703"/>
              <path id="Path_9035" data-name="Path 9035" d="M280.248,266.354c4.05-1.556,2.92-1.122,8.787-3.373-4.13,1.838-6.9,3.071-8.6,3.827q.156.39.29.789l19.064-8.673a.352.352,0,0,0,.239-.278.378.378,0,0,0-.125-.349.46.46,0,0,0-.464-.026l-19.552,7.322C280.015,265.843,280.136,266.1,280.248,266.354Z" fill="#ffc703"/>
              <path id="Path_9036" data-name="Path 9036" d="M297.821,265c-4.767,2.063-6.365,1.861-7.909,1.667a7.482,7.482,0,0,0-2.842.062,26.7,26.7,0,0,0-3,.832c-.431.139-.877.285-1.4.438a7.607,7.607,0,0,1-1.712.362c.082.291.155.583.218.879,3.164-.517,5.507-2.362,8.855-1.679-3.573-.061-3.295.748-8.751,2.227q.063.359.11.723c.709-.219,1.51-.5,2.34-.8a24.1,24.1,0,0,1,5.425-1.518,9.96,9.96,0,0,1,1.206.03,10.917,10.917,0,0,0,3.975-.3,12.3,12.3,0,0,0,2.953-1.4,4.437,4.437,0,0,1,4.09-.806,1.117,1.117,0,0,0,.546.061c-.011-.04-.066-.158-.324-.394A4.226,4.226,0,0,0,297.821,265Z" fill="#ffc703"/>
              <path id="Path_9037" data-name="Path 9037" d="M276.864,261.5c3.153-2.994,2.271-2.157,6.832-6.485-.077.08-4.139,4.359-6.484,6.831.2.2.385.409.57.619,5.683-6.085,6.1-6.536,9.112-9.759l5.185-5.554a.354.354,0,0,0,.113-.35.379.379,0,0,0-.248-.273.344.344,0,0,0-.091-.012.525.525,0,0,0-.347.164l-15.264,14.251Q276.56,261.2,276.864,261.5Z" fill="#ffc703"/>
              <path id="Path_9038" data-name="Path 9038" d="M285.842,258.113a7.475,7.475,0,0,0-2.529,1.114,25.582,25.582,0,0,0-2.813,2.219,8.022,8.022,0,0,1-2.258,1.57c.186.236.366.476.539.723,4.137-2.57,4.014-4.189,7.588-4.878-3.712,1.463-2.69,1.89-7.236,5.407.132.206.259.415.381.629.57-.472,1.2-1.041,1.851-1.631a23.819,23.819,0,0,1,4.439-3.484,9.685,9.685,0,0,1,1.124-.433,10.992,10.992,0,0,0,3.562-1.8,12.214,12.214,0,0,0,1.943-2.149c.968-1.268,1.8-2.362,3.718-2.585a.287.287,0,1,0,.074-.394,4.21,4.21,0,0,0-3.64,1.09C288.978,257.234,287.311,257.7,285.842,258.113Z" fill="#ffc703"/>
              <path id="Path_9039" data-name="Path 9039" d="M271.886,258.29c1.825-4.1,1.163-2.615,3.826-8.6-.028.075-2.147,5.594-3.372,8.784q.389.168.763.356l7.346-19.613a.363.363,0,0,0-.185-.494c-.156-.07-.371-.038-.514.255l-.011.026c-.012.024-.6,1.327-1.5,3.3-3.761,8.268-5.912,12.993-7.145,15.7C271.361,258.091,271.625,258.188,271.886,258.29Z" fill="#ffc703"/>
              <path id="Path_9040" data-name="Path 9040" d="M278.882,251.739a7.425,7.425,0,0,0-1.91,1.995,26.285,26.285,0,0,0-1.73,3.086,8.429,8.429,0,0,1-1.507,2.348c.265.147.524.3.779.469,2.84-3.959,2.1-5.407,5.142-7.412-2.8,2.707-1.853,2.918-4.618,7.765.2.14.4.286.593.436.347-.657.713-1.425,1.091-2.223a24.207,24.207,0,0,1,2.762-4.914,9.985,9.985,0,0,1,.865-.82,10.979,10.979,0,0,0,2.613-3.029,12.3,12.3,0,0,0,1.094-3.078,4.448,4.448,0,0,1,2.323-3.463,1.108,1.108,0,0,0,.43-.342,1.085,1.085,0,0,0-.509-.05,4.208,4.208,0,0,0-2.946,2.4C281.44,249.732,280.081,250.8,278.882,251.739Z" fill="#ffc703"/>
              <path id="Path_9041" data-name="Path 9041" d="M270.52,269.5c-1.26.4-1.574.992-.159,1.434,1.138.347.17-.027.17-.719a.957.957,0,0,1,.174-.551C270.864,269.439,271.291,269.249,270.52,269.5Z" fill="#ffc703"/>
              <path id="Path_9042" data-name="Path 9042" d="M272.615,269.6c-.953-.407-.462-.1-.338.083a.953.953,0,0,1-.007,1.08c-.163.238-.607.39.3.177C273.8,270.634,274.156,270.236,272.615,269.6Z" fill="#ffc703"/>
              <path id="Path_9043" data-name="Path 9043" d="M261.8,271.059c2.021-.146,2.317-1.328.03-1.677A.955.955,0,0,1,261.8,271.059Z" fill="#ffc703"/>
              <path id="Path_9044" data-name="Path 9044" d="M263.586,269.526l.024.015C263.578,269.517,263.574,269.514,263.586,269.526Z" fill="#853409"/>
              <path id="Path_9045" data-name="Path 9045" d="M260.227,269.6c-.841.348-1.458.857-.577,1.154,2.016.709.268-.105.914-1.071C260.688,269.5,261.166,269.191,260.227,269.6Z" fill="#ffc703"/>
              <path id="Path_9046" data-name="Path 9046" d="M267.794,275.183a.721.721,0,0,0,1.241.3c.336-.331.338-.755-.206-1.209,1.874.9-.248,2.973-1.09,1.419a1.925,1.925,0,0,1-2.637,0c-.8,1.5-2.865-.534-1.284-1.325l.194-.094c-1.214,1.028.409,2.153,1.038.9A1.618,1.618,0,0,0,267.794,275.183Z" fill="#853409"/>
              <path id="Path_9047" data-name="Path 9047" d="M261.115,266.671a5.765,5.765,0,0,1,4.249,1.175l.006,0,0,.006a7.216,7.216,0,0,1,.682,3.07c-.043.778-.768,3.842-1.292,3.258a.2.2,0,0,1-.029-.238v-.005c1.789-2.386,1.086-5.181-.032-5.874-2.539-1.566-5.4-.847-7.5,1.1A5.685,5.685,0,0,1,261.115,266.671Z" fill="#853409"/>
              <path id="Path_9048" data-name="Path 9048" d="M257.995,270.217a.106.106,0,0,1,.031-.075c1.194-1.21,2.725-2.07,4.346-1.562a4.012,4.012,0,0,1,1.426.838c.734.553.978.536.978.536a.108.108,0,0,1,.069.042.112.112,0,0,1,.017.079.1.1,0,0,1-.043.067c-.206.159-1.145-.546-1.233-.616-1.8-1.347-3.79-.868-5.411.761A.1.1,0,0,1,257.995,270.217Z" fill="#853409"/>
              <path id="Path_9049" data-name="Path 9049" d="M258.945,271.356a.091.091,0,0,1-.058-.055.105.105,0,0,1,0-.08.093.093,0,0,1,.057-.056.1.1,0,0,1,.08,0c1.913.776,3.662.945,5.228-.417a.1.1,0,0,1,.149.011.1.1,0,0,1-.01.147C262.749,272.454,261.005,272.319,258.945,271.356Z" fill="#853409"/>
              <path id="Path_9050" data-name="Path 9050" d="M268.382,283.281c-.214-2.893-3.71-2.9-3.924,0C264.214,279.99,268.645,279.881,268.382,283.281Z" fill="#853409"/>
              <path id="Path_9051" data-name="Path 9051" d="M266.656,280.528c-1.092-.076-1.14.211-2.113-.733a1.99,1.99,0,0,0-1.513-.759c1.93-.265,1.757,1.38,3.391,1.163h.009a1.806,1.806,0,0,0,.419.02,1.731,1.731,0,0,0,1.145-.61,1.722,1.722,0,0,1,1.817-.573C268.436,279.178,267.949,280.652,266.656,280.528Z" fill="#853409"/>
              <path id="Path_9052" data-name="Path 9052" d="M263.724,278.75c2.72-.459.711.1,2.7.1,1.589,0,.172-.532,2.707-.1a4.755,4.755,0,0,0-1.861.186c-1.081.55-1.356-.031-2.213-.152a12.3,12.3,0,0,0-1.33-.035h-.01C263.668,278.751,263.678,278.751,263.724,278.75Z" fill="#853409"/>
              <path id="Path_9053" data-name="Path 9053" d="M266.817,277.893c-.727.3-1.14-.552-2.406.064a9.841,9.841,0,0,0-1.605,1.1l.3-.3c.5-.49,1.278-1.462,1.972-1.462.84,0,1.054.565,1.712.263,1.47-.676,2.018.285,3.242,1.5C268.993,278.25,268,277.375,266.817,277.893Z" fill="#853409"/>
              <path id="Path_9054" data-name="Path 9054" d="M273.955,271.3a.092.092,0,0,1-.059.055c-2.05.96-3.806,1.1-5.443-.45a.092.092,0,0,1-.035-.071.1.1,0,0,1,.025-.076.1.1,0,0,1,.072-.038.172.172,0,0,1,.075.027c1.569,1.363,3.312,1.192,5.23.417a.1.1,0,0,1,.078,0,.09.09,0,0,1,.057.056A.1.1,0,0,1,273.955,271.3Z" fill="#853409"/>
              <path id="Path_9055" data-name="Path 9055" d="M274.667,270.287c-1.612-1.625-3.616-2.121-5.435-.746-.2.146-1.019.756-1.209.6a.1.1,0,0,1-.044-.067A.112.112,0,0,1,268,270a.105.105,0,0,1,.087-.042,3.1,3.1,0,0,0,1.023-.581c1.831-1.62,3.956-1.009,5.709.769A.1.1,0,1,1,274.667,270.287Z" fill="#853409"/>
              <path id="Path_9056" data-name="Path 9056" d="M267.012,270.912a7.6,7.6,0,0,0,1.092,3.025l0,0c.135.273-.245.579-.491.01a9.137,9.137,0,0,1-.83-3.025,7.183,7.183,0,0,1,.682-3.065.068.068,0,0,1,.01-.016,5.56,5.56,0,0,1,8.16,1.325C272.375,266.117,266.937,266.574,267.012,270.912Z" fill="#853409"/>
            </g>
          </g>
        </g>
      </g>
    </g>
  </g>
</svg>
