<svg xmlns="http://www.w3.org/2000/svg" xmlns:xlink="http://www.w3.org/1999/xlink" width="419.51" height="289.166" viewBox="0 0 419.51 289.166">
  <defs>
    <linearGradient id="linear-gradient" y1="0.5" x2="1" y2="0.5" gradientUnits="objectBoundingBox">
      <stop offset="0" stop-color="#dab264"/>
      <stop offset="0.482" stop-color="#be895f"/>
      <stop offset="1" stop-color="#996a45"/>
    </linearGradient>
    <clipPath id="clip-path">
      <path id="Path_21706" data-name="Path 21706" d="M525.647,117.1a1819.437,1819.437,0,0,0-378.629,0A576.1,576.1,0,0,0,132.97,245.417a576.1,576.1,0,0,0,14.048,128.314,1823.376,1823.376,0,0,0,189.315,9.877,1823.356,1823.356,0,0,0,189.314-9.877A576.1,576.1,0,0,0,539.7,245.417,576.1,576.1,0,0,0,525.647,117.1Z" fill="none"/>
    </clipPath>
  </defs>
  <g id="Group_7334" data-name="Group 7334" transform="translate(-126.578 -101.434)">
    <path id="Path_20547" data-name="Path 20547" d="M336.325,390.6a1837.519,1837.519,0,0,1-189.978-9.912l-4.546-.479-1.016-4.459a585.269,585.269,0,0,1-14.207-129.732,585.258,585.258,0,0,1,14.207-129.733l1.016-4.459,4.546-.479a1825.519,1825.519,0,0,1,379.971,0l4.547.479,1.016,4.459a585.316,585.316,0,0,1,14.207,129.733A585.327,585.327,0,0,1,531.881,375.75l-1.016,4.459-4.547.479A1837.485,1837.485,0,0,1,336.341,390.6Z" fill="url(#linear-gradient)"/>
    <g id="Group_7333" data-name="Group 7333">
      <g id="Group_7332" data-name="Group 7332" clip-path="url(#clip-path)">
        <g id="Group_7331" data-name="Group 7331">
          <rect id="Rectangle_1619" data-name="Rectangle 1619" width="787.872" height="282.083" transform="translate(-57.603 104.976)" fill="#00a133"/>
          <path id="Path_21413" data-name="Path 21413" d="M183.129,246.011l153.165,97.822,153.241-97.822L336.294,148.2Z" fill="#ffe100"/>
          <g id="Group_7330" data-name="Group 7330">
            <path id="Path_21414" data-name="Path 21414" d="M400.889,246.03a64.557,64.557,0,1,1-64.57-64.61,64.57,64.57,0,0,1,64.57,64.61Z" fill="#1457c7"/>
            <path id="Path_21415" data-name="Path 21415" d="M299.433,218.333a161.378,161.378,0,0,0-22.22,1.571,67.979,67.979,0,0,0-3.428,9.874,151.317,151.317,0,0,1,25.648-2.2,147,147,0,0,1,98.543,37.749,59.366,59.366,0,0,0,2.295-10.221,156.09,156.09,0,0,0-100.838-36.769Z" fill="#fff"/>
            <path id="Path_21416" data-name="Path 21416" d="M281.235,227.135a3.084,3.084,0,0,0-.749-6.083,2.837,2.837,0,0,0-2.344,3.378,2.876,2.876,0,0,0,3.093,2.705Zm-.13-1.121a1.863,1.863,0,0,0,1.367-2.127,1.765,1.765,0,0,0-1.856-1.714,1.79,1.79,0,0,0-1.392,2.113,1.841,1.841,0,0,0,1.881,1.728Z" fill="#00a133" fill-rule="evenodd"/>
            <path id="Path_21417" data-name="Path 21417" d="M286.261,226.607l1.109-.1-.155-2.269,2.5-.168a2.007,2.007,0,0,0,1.778-2.075,1.97,1.97,0,0,0-2.062-1.79l-3.557.244Zm.875-3.506,2.373-.154a.831.831,0,0,0,.721-.863.742.742,0,0,0-.8-.722l-2.4.128Z" fill="#00a133" fill-rule="evenodd"/>
            <path id="Path_21418" data-name="Path 21418" d="M291.442,226.233c-.051-.877-.154-2.8-1.495-2.732l-1.676.116c1.908-.116,2.062,1.829,2.166,2.681Z" fill="#00a133"/>
            <path id="Path_21419" data-name="Path 21419" d="M294.071,226.117l2.862-.064a2.648,2.648,0,0,0,2.63-2.694l-.053-.877a2.661,2.661,0,0,0-2.681-2.59l-2.862.065Zm1.084-1.172,1.674-.04a1.631,1.631,0,0,0,1.625-1.688v-.554a1.647,1.647,0,0,0-1.65-1.611l-1.7.04Z" fill="#00a133" fill-rule="evenodd"/>
            <path id="Path_21420" data-name="Path 21420" d="M301.805,226.04l5.568.193.051-1.16-4.459-.154.051-1.56,3.532.091v-1.044l-3.481-.13v-1.212l4.253.144v-1.16l-5.259-.181Z" fill="#00a133"/>
            <path id="Path_21421" data-name="Path 21421" d="M309.667,226.362l1.056.091.361-4.2.825,4.3,1.005.091,1.572-4.1-.361,4.2,1.031.1.541-6.148-1.495-.13-1.623,4.1-.851-4.317-1.548-.13Z" fill="#00a133"/>
            <path id="Path_21422" data-name="Path 21422" d="M322.374,227.793l4.615.774.127-1.033-3.478-.592.232-1.379,2.887.49.13-1.056-2.809-.477.127-.967,3.4.593.128-1.044-4.381-.774Z" fill="#00a133"/>
            <path id="Path_21423" data-name="Path 21423" d="M334.076,230.087l1.083.3.619-2.2,2.345.594a1.958,1.958,0,0,0,2.4-1.38,2.024,2.024,0,0,0-1.393-2.372l-3.4-.876Zm2.011-3.043,2.269.606a.737.737,0,0,0,.927-.566.794.794,0,0,0-.541-.967l-2.294-.592Z" fill="#00a133" fill-rule="evenodd"/>
            <path id="Path_21424" data-name="Path 21424" d="M341.63,232.1l1.108.335.7-2.164,2.294.734a1.948,1.948,0,0,0,2.448-1.249,1.916,1.916,0,0,0-1.238-2.423l-3.4-1.069Zm2.139-2.924,2.268.722a.8.8,0,0,0,.98-.53.745.745,0,0,0-.516-.979l-2.242-.721Z" fill="#00a133" fill-rule="evenodd"/>
            <path id="Path_21425" data-name="Path 21425" d="M346.6,233.67c.285-.839.853-2.669-.386-3.067l-1.572-.516c1.8.593,1.237,2.423.953,3.273Z" fill="#00a133"/>
            <path id="Path_21426" data-name="Path 21426" d="M351.655,235.488a2.942,2.942,0,0,0,3.662-1.908,2.787,2.787,0,1,0-5.182-1.973,2.964,2.964,0,0,0,1.52,3.881Zm.388-1.083a1.783,1.783,0,0,0,2.216-1.238,1.8,1.8,0,0,0-.825-2.385,1.862,1.862,0,0,0-2.241,1.251,1.818,1.818,0,0,0,.85,2.372Z" fill="#00a133" fill-rule="evenodd"/>
            <path id="Path_21427" data-name="Path 21427" d="M358.9,238.413a3.092,3.092,0,0,0,2.449-5.647,2.9,2.9,0,0,0-3.738,1.715,2.948,2.948,0,0,0,1.289,3.932Zm.464-1.057a1.749,1.749,0,0,0,2.243-1.122,1.821,1.821,0,0,0-.7-2.434,1.974,1.974,0,0,0-1.546,3.556Z" fill="#00a133" fill-rule="evenodd"/>
            <path id="Path_21428" data-name="Path 21428" d="M360.523,235.758l2.165.941-.413.8-2.088-.953Z" fill="#00a133"/>
            <path id="Path_21429" data-name="Path 21429" d="M361.864,236.325l.825.374-1.262,2.809-.749-.361Z" fill="#00a133"/>
            <path id="Path_21430" data-name="Path 21430" d="M363.54,240.475l1.005.5,1-2.062,2.191,1.121a1.93,1.93,0,0,0,1.726-3.453l-3.118-1.574Zm2.525-2.552,2.114,1.044a.774.774,0,0,0,1.058-.349.8.8,0,0,0-.335-1.056l-2.167-1.058Z" fill="#00a133" fill-rule="evenodd"/>
            <path id="Path_21431" data-name="Path 21431" d="M368.179,242.808c.386-.787,1.237-2.514.077-3.107l-1.521-.774c1.779.89.9,2.618.542,3.392Z" fill="#00a133"/>
            <path id="Path_21432" data-name="Path 21432" d="M370.473,244.019l4.846,2.718.516-.992-3.867-2.2.748-1.379,3.067,1.741.516-.954-3.042-1.7.619-1.1,3.636,2.088.618-.992-4.639-2.6Z" fill="#00a133"/>
            <path id="Path_21433" data-name="Path 21433" d="M379.469,247.022c-.335.5,0,1.1.721,1.572.749.465,1.239.438,1.47.129.669-1.082-3.2-2.616-2.01-4.446,1.005-1.586,2.784-.36,3.453.065s1.728,1.534.9,2.795l-1.134-.735c.388-.526,0-1.081-.644-1.416-.567-.413-1.031-.579-1.366,0-.593.837,3.248,2.435,2.036,4.292-.8,1.352-2.32.746-3.3.128-.9-.554-2.139-1.844-1.34-3.12Z" fill="#00a133"/>
            <path id="Path_21434" data-name="Path 21434" d="M386.067,251.378c-.386.49-.1,1.1.619,1.611s1.263.542,1.495.207c.7-1.007-3.118-2.772-1.779-4.537,1.109-1.534,2.837-.207,3.455.231a2,2,0,0,1,.721,2.848l-1.056-.784c.335-.53,0-1.071-.593-1.495-.567-.4-.953-.581-1.339-.053-.62.813,3.065,2.643,1.828,4.408-.953,1.316-2.448.644-3.351-.052-.85-.592-2.062-1.933-1.159-3.184Z" fill="#00a133"/>
            <path id="Path_21435" data-name="Path 21435" d="M392.279,258.467a3.1,3.1,0,1,0-.231-4.125,2.92,2.92,0,0,0,.231,4.125Zm.722-.915a1.78,1.78,0,0,0,2.5-.491,1.81,1.81,0,0,0-.1-2.513,1.953,1.953,0,0,0-2.4,3Z" fill="#00a133" fill-rule="evenodd"/>
            <path id="Path_21436" data-name="Path 21436" d="M283.58,231.659l-.85,2.63,1.339.437Z" fill="#fff"/>
            <path id="Path_21437" data-name="Path 21437" d="M283.58,231.659l.877,2.63-1.314.437Z" fill="#fff"/>
            <path id="Path_21438" data-name="Path 21438" d="M286.21,233.58h-2.757v1.353Z" fill="#fff"/>
            <path id="Path_21439" data-name="Path 21439" d="M286.21,233.58l-2.192,1.609-.876-1.107Z" fill="#fff"/>
            <path id="Path_21440" data-name="Path 21440" d="M280.951,233.58l2.242,1.609.825-1.107Z" fill="#fff"/>
            <path id="Path_21441" data-name="Path 21441" d="M280.951,233.58h2.783v1.353Z" fill="#fff"/>
            <path id="Path_21442" data-name="Path 21442" d="M285.2,236.659l-.851-2.629-1.288.439Z" fill="#fff"/>
            <path id="Path_21443" data-name="Path 21443" d="M285.2,236.659l-2.242-1.636.825-1.121Z" fill="#fff"/>
            <path id="Path_21444" data-name="Path 21444" d="M281.956,236.659l2.242-1.636-.8-1.121Z" fill="#fff"/>
            <path id="Path_21445" data-name="Path 21445" d="M281.956,236.659l.877-2.629,1.339.439Z" fill="#fff"/>
            <path id="Path_21446" data-name="Path 21446" d="M289.329,258.815l-.877,2.616,1.34.425Z" fill="#fff"/>
            <path id="Path_21447" data-name="Path 21447" d="M289.329,258.815l.825,2.616-1.29.425Z" fill="#fff"/>
            <path id="Path_21448" data-name="Path 21448" d="M291.907,260.722h-2.733v1.393Z" fill="#fff"/>
            <path id="Path_21449" data-name="Path 21449" d="M291.907,260.722l-2.192,1.637-.825-1.147Z" fill="#fff"/>
            <path id="Path_21450" data-name="Path 21450" d="M286.7,260.722l2.192,1.637.877-1.147Z" fill="#fff"/>
            <path id="Path_21451" data-name="Path 21451" d="M286.7,260.722h2.784v1.393Z" fill="#fff"/>
            <path id="Path_21452" data-name="Path 21452" d="M290.953,263.828l-.849-2.63-1.342.428Z" fill="#fff"/>
            <path id="Path_21453" data-name="Path 21453" d="M290.953,263.828l-2.242-1.651.8-1.1Z" fill="#fff"/>
            <path id="Path_21454" data-name="Path 21454" d="M287.654,263.828l2.293-1.651-.851-1.1Z" fill="#fff"/>
            <path id="Path_21455" data-name="Path 21455" d="M287.654,263.828l.851-2.63,1.339.428Z" fill="#fff"/>
            <path id="Path_21456" data-name="Path 21456" d="M281.389,265.516l-.516,1.778.851.284Z" fill="#fff"/>
            <path id="Path_21457" data-name="Path 21457" d="M281.389,265.516l.567,1.778-.851.284Z" fill="#fff"/>
            <path id="Path_21458" data-name="Path 21458" d="M283.142,266.8h-1.857v.928Z" fill="#fff"/>
            <path id="Path_21459" data-name="Path 21459" d="M283.142,266.8l-1.469,1.1-.542-.748Z" fill="#fff"/>
            <path id="Path_21460" data-name="Path 21460" d="M279.661,266.8l1.47,1.1.542-.748Z" fill="#fff"/>
            <path id="Path_21461" data-name="Path 21461" d="M279.661,266.8h1.831v.928Z" fill="#fff"/>
            <path id="Path_21462" data-name="Path 21462" d="M282.472,268.868l-.567-1.753-.851.3Z" fill="#fff"/>
            <path id="Path_21463" data-name="Path 21463" d="M282.472,268.868,281,267.784l.541-.76Z" fill="#fff"/>
            <path id="Path_21464" data-name="Path 21464" d="M280.332,268.868l1.47-1.084-.516-.76Z" fill="#fff"/>
            <path id="Path_21465" data-name="Path 21465" d="M280.332,268.868l.542-1.753.851.3Z" fill="#fff"/>
            <path id="Path_21466" data-name="Path 21466" d="M295.645,256.3l-.439,1.239.619.232Z" fill="#fff"/>
            <path id="Path_21467" data-name="Path 21467" d="M295.645,256.3l.386,1.239-.619.232Z" fill="#fff"/>
            <path id="Path_21468" data-name="Path 21468" d="M296.88,257.229h-1.288v.645Z" fill="#fff"/>
            <path id="Path_21469" data-name="Path 21469" d="M296.88,257.229l-1.055.774-.361-.542Z" fill="#fff"/>
            <path id="Path_21470" data-name="Path 21470" d="M294.355,257.229l1.109.774.361-.542Z" fill="#fff"/>
            <path id="Path_21471" data-name="Path 21471" d="M294.355,257.229H295.7v.645Z" fill="#fff"/>
            <path id="Path_21472" data-name="Path 21472" d="M296.417,258.7l-.437-1.276-.568.219Z" fill="#fff"/>
            <path id="Path_21473" data-name="Path 21473" d="M296.417,258.7l-1.056-.786.386-.542Z" fill="#fff"/>
            <path id="Path_21474" data-name="Path 21474" d="M294.871,258.7l1.057-.786-.386-.542Z" fill="#fff"/>
            <path id="Path_21475" data-name="Path 21475" d="M294.871,258.7l.386-1.276.619.219Z" fill="#fff"/>
            <path id="Path_21476" data-name="Path 21476" d="M302.784,265.685l-.722,2.2,1.031.374Z" fill="#fff"/>
            <path id="Path_21477" data-name="Path 21477" d="M302.784,265.685l.67,2.2-1.058.374Z" fill="#fff"/>
            <path id="Path_21478" data-name="Path 21478" d="M304.924,267.294H302.63v1.135Z" fill="#fff"/>
            <path id="Path_21479" data-name="Path 21479" d="M304.924,267.294l-1.856,1.354-.67-.954Z" fill="#fff"/>
            <path id="Path_21480" data-name="Path 21480" d="M300.567,267.294l1.856,1.354.67-.954Z" fill="#fff"/>
            <path id="Path_21481" data-name="Path 21481" d="M300.567,267.294h2.295v1.135Z" fill="#fff"/>
            <path id="Path_21482" data-name="Path 21482" d="M304.125,269.834l-.723-2.165-1.107.36Z" fill="#fff"/>
            <path id="Path_21483" data-name="Path 21483" d="M304.125,269.834l-1.883-1.34.67-.916Z" fill="#fff"/>
            <path id="Path_21484" data-name="Path 21484" d="M301.442,269.834l1.805-1.34-.67-.916Z" fill="#fff"/>
            <path id="Path_21485" data-name="Path 21485" d="M301.442,269.834l.672-2.165,1.081.36Z" fill="#fff"/>
            <path id="Path_21486" data-name="Path 21486" d="M300.826,272.1l-.723,2.2,1.083.36Z" fill="#fff"/>
            <path id="Path_21487" data-name="Path 21487" d="M300.826,272.1l.7,2.2-1.083.36Z" fill="#fff"/>
            <path id="Path_21488" data-name="Path 21488" d="M303.016,273.714h-2.295v1.12Z" fill="#fff"/>
            <path id="Path_21489" data-name="Path 21489" d="M303.016,273.714l-1.883,1.353-.67-.942Z" fill="#fff"/>
            <path id="Path_21490" data-name="Path 21490" d="M298.659,273.714l1.857,1.353.67-.942Z" fill="#fff"/>
            <path id="Path_21491" data-name="Path 21491" d="M298.659,273.714h2.294v1.12Z" fill="#fff"/>
            <path id="Path_21492" data-name="Path 21492" d="M302.165,276.278l-.67-2.2-1.107.361Z" fill="#fff"/>
            <path id="Path_21493" data-name="Path 21493" d="M302.165,276.278l-1.883-1.379.723-.9Z" fill="#fff"/>
            <path id="Path_21494" data-name="Path 21494" d="M299.484,276.278l1.856-1.379-.67-.9Z" fill="#fff"/>
            <path id="Path_21495" data-name="Path 21495" d="M299.484,276.278l.7-2.2,1.107.361Z" fill="#fff"/>
            <path id="Path_21496" data-name="Path 21496" d="M356.347,223.217l-.851,2.643,1.34.411Z" fill="#fff"/>
            <path id="Path_21497" data-name="Path 21497" d="M356.347,223.217l.877,2.643-1.342.411Z" fill="#fff"/>
            <path id="Path_21498" data-name="Path 21498" d="M358.976,225.125h-2.758v1.405Z" fill="#fff"/>
            <path id="Path_21499" data-name="Path 21499" d="M358.976,225.125l-2.241,1.636-.8-1.134Z" fill="#fff"/>
            <path id="Path_21500" data-name="Path 21500" d="M353.719,225.125l2.267,1.636.8-1.134Z" fill="#fff"/>
            <path id="Path_21501" data-name="Path 21501" d="M353.719,225.125H356.5v1.405Z" fill="#fff"/>
            <path id="Path_21502" data-name="Path 21502" d="M358,228.244l-.876-2.642-1.289.438Z" fill="#fff"/>
            <path id="Path_21503" data-name="Path 21503" d="M358,228.244l-2.269-1.637.826-1.134Z" fill="#fff"/>
            <path id="Path_21504" data-name="Path 21504" d="M354.722,228.244l2.244-1.637-.8-1.134Z" fill="#fff"/>
            <path id="Path_21505" data-name="Path 21505" d="M354.722,228.244l.877-2.642,1.341.438Z" fill="#fff"/>
            <path id="Path_21506" data-name="Path 21506" d="M381.556,265.943l-.849,2.628,1.34.437Z" fill="#fff"/>
            <path id="Path_21507" data-name="Path 21507" d="M381.556,265.943l.879,2.628-1.29.437Z" fill="#fff"/>
            <path id="Path_21508" data-name="Path 21508" d="M384.212,267.849h-2.783v1.367Z" fill="#fff"/>
            <path id="Path_21509" data-name="Path 21509" d="M384.212,267.849l-2.218,1.625-.849-1.135Z" fill="#fff"/>
            <path id="Path_21510" data-name="Path 21510" d="M378.927,267.849l2.269,1.625.8-1.135Z" fill="#fff"/>
            <path id="Path_21511" data-name="Path 21511" d="M378.927,267.849h2.785v1.367Z" fill="#fff"/>
            <path id="Path_21512" data-name="Path 21512" d="M383.259,270.942l-.877-2.629-1.341.412Z" fill="#fff"/>
            <path id="Path_21513" data-name="Path 21513" d="M383.259,270.942l-2.269-1.623.825-1.135Z" fill="#fff"/>
            <path id="Path_21514" data-name="Path 21514" d="M379.96,270.942l2.241-1.623-.825-1.135Z" fill="#fff"/>
            <path id="Path_21515" data-name="Path 21515" d="M379.96,270.942l.849-2.629,1.341.412Z" fill="#fff"/>
            <path id="Path_21516" data-name="Path 21516" d="M390.578,267.476l-.618,1.739.928.283Z" fill="#fff"/>
            <path id="Path_21517" data-name="Path 21517" d="M390.578,267.476l.567,1.739-.927.283Z" fill="#fff"/>
            <path id="Path_21518" data-name="Path 21518" d="M392.279,268.752h-1.8v.9Z" fill="#fff"/>
            <path id="Path_21519" data-name="Path 21519" d="M392.279,268.752l-1.469,1.083-.541-.761Z" fill="#fff"/>
            <path id="Path_21520" data-name="Path 21520" d="M388.8,268.752l1.469,1.083.593-.761Z" fill="#fff"/>
            <path id="Path_21521" data-name="Path 21521" d="M388.8,268.752h1.855v.9Z" fill="#fff"/>
            <path id="Path_21522" data-name="Path 21522" d="M391.61,270.8l-.516-1.765-.9.309Z" fill="#fff"/>
            <path id="Path_21523" data-name="Path 21523" d="M391.61,270.8l-1.47-1.084.568-.76Z" fill="#fff"/>
            <path id="Path_21524" data-name="Path 21524" d="M389.471,270.8l1.469-1.084-.516-.76Z" fill="#fff"/>
            <path id="Path_21525" data-name="Path 21525" d="M389.471,270.8l.567-1.765.851.309Z" fill="#fff"/>
            <path id="Path_21526" data-name="Path 21526" d="M384.212,272.1l-.67,2.2,1.056.36Z" fill="#fff"/>
            <path id="Path_21527" data-name="Path 21527" d="M384.212,272.1l.7,2.2-1.032.36Z" fill="#fff"/>
            <path id="Path_21528" data-name="Path 21528" d="M386.4,273.714h-2.294v1.12Z" fill="#fff"/>
            <path id="Path_21529" data-name="Path 21529" d="M386.4,273.714l-1.8,1.353-.721-.942Z" fill="#fff"/>
            <path id="Path_21530" data-name="Path 21530" d="M382.047,273.714l1.881,1.353.67-.942Z" fill="#fff"/>
            <path id="Path_21531" data-name="Path 21531" d="M382.047,273.714h2.3v1.12Z" fill="#fff"/>
            <path id="Path_21532" data-name="Path 21532" d="M385.577,276.278l-.7-2.2-1.109.361Z" fill="#fff"/>
            <path id="Path_21533" data-name="Path 21533" d="M385.577,276.278l-1.855-1.379.67-.9Z" fill="#fff"/>
            <path id="Path_21534" data-name="Path 21534" d="M382.871,276.278l1.856-1.379-.67-.9Z" fill="#fff"/>
            <path id="Path_21535" data-name="Path 21535" d="M382.871,276.278l.7-2.2,1.109.361Z" fill="#fff"/>
            <path id="Path_21536" data-name="Path 21536" d="M368.669,285.636l-.721,2.178,1.081.374Z" fill="#fff"/>
            <path id="Path_21537" data-name="Path 21537" d="M368.669,285.636l.7,2.178-1.107.374Z" fill="#fff"/>
            <path id="Path_21538" data-name="Path 21538" d="M370.86,287.247h-2.295V288.4Z" fill="#fff"/>
            <path id="Path_21539" data-name="Path 21539" d="M370.86,287.247l-1.883,1.339-.67-.941Z" fill="#fff"/>
            <path id="Path_21540" data-name="Path 21540" d="M366.5,287.247l1.855,1.339.619-.941Z" fill="#fff"/>
            <path id="Path_21541" data-name="Path 21541" d="M366.5,287.247H368.8V288.4Z" fill="#fff"/>
            <path id="Path_21542" data-name="Path 21542" d="M369.983,289.81l-.644-2.19-1.16.348Z" fill="#fff"/>
            <path id="Path_21543" data-name="Path 21543" d="M369.983,289.81l-1.855-1.365.669-.916Z" fill="#fff"/>
            <path id="Path_21544" data-name="Path 21544" d="M367.328,289.81l1.855-1.365-.669-.916Z" fill="#fff"/>
            <path id="Path_21545" data-name="Path 21545" d="M367.328,289.81l.7-2.19,1.107.348Z" fill="#fff"/>
            <path id="Path_21546" data-name="Path 21546" d="M368.565,292.621l-.541,1.725.877.3Z" fill="#fff"/>
            <path id="Path_21547" data-name="Path 21547" d="M368.565,292.621l.567,1.725-.876.3Z" fill="#fff"/>
            <path id="Path_21548" data-name="Path 21548" d="M370.318,293.9h-1.8v.914Z" fill="#fff"/>
            <path id="Path_21549" data-name="Path 21549" d="M370.318,293.9l-1.521,1.057-.541-.734Z" fill="#fff"/>
            <path id="Path_21550" data-name="Path 21550" d="M366.838,293.9l1.469,1.057.542-.734Z" fill="#fff"/>
            <path id="Path_21551" data-name="Path 21551" d="M366.838,293.9h1.83v.914Z" fill="#fff"/>
            <path id="Path_21552" data-name="Path 21552" d="M369.648,295.92l-.567-1.714-.9.258Z" fill="#fff"/>
            <path id="Path_21553" data-name="Path 21553" d="M369.648,295.92l-1.52-1.056.565-.748Z" fill="#fff"/>
            <path id="Path_21554" data-name="Path 21554" d="M367.509,295.92l1.469-1.056-.567-.748Z" fill="#fff"/>
            <path id="Path_21555" data-name="Path 21555" d="M367.509,295.92l.567-1.714.851.258Z" fill="#fff"/>
            <path id="Path_21556" data-name="Path 21556" d="M375.113,280.995l-.619,1.767.85.283Z" fill="#fff"/>
            <path id="Path_21557" data-name="Path 21557" d="M375.113,280.995l.515,1.767-.85.283Z" fill="#fff"/>
            <path id="Path_21558" data-name="Path 21558" d="M376.839,282.272h-1.881v.927Z" fill="#fff"/>
            <path id="Path_21559" data-name="Path 21559" d="M376.839,282.272l-1.495,1.107-.566-.735Z" fill="#fff"/>
            <path id="Path_21560" data-name="Path 21560" d="M373.334,282.272l1.495,1.107.515-.735Z" fill="#fff"/>
            <path id="Path_21561" data-name="Path 21561" d="M373.334,282.272h1.881v.927Z" fill="#fff"/>
            <path id="Path_21562" data-name="Path 21562" d="M376.169,284.334l-.592-1.741-.851.284Z" fill="#fff"/>
            <path id="Path_21563" data-name="Path 21563" d="M376.169,284.334l-1.493-1.07.593-.746Z" fill="#fff"/>
            <path id="Path_21564" data-name="Path 21564" d="M374,284.334l1.495-1.07-.542-.746Z" fill="#fff"/>
            <path id="Path_21565" data-name="Path 21565" d="M374,284.334l.593-1.741.851.284Z" fill="#fff"/>
            <path id="Path_21566" data-name="Path 21566" d="M380.268,277.3l-.7,2.178,1.057.36Z" fill="#fff"/>
            <path id="Path_21567" data-name="Path 21567" d="M380.268,277.3l.723,2.178-1.135.36Z" fill="#fff"/>
            <path id="Path_21568" data-name="Path 21568" d="M382.434,278.894h-2.3v1.135Z" fill="#fff"/>
            <path id="Path_21569" data-name="Path 21569" d="M382.434,278.894l-1.805,1.354-.669-.954Z" fill="#fff"/>
            <path id="Path_21570" data-name="Path 21570" d="M378.077,278.894l1.883,1.354.669-.954Z" fill="#fff"/>
            <path id="Path_21571" data-name="Path 21571" d="M378.077,278.894h2.293v1.135Z" fill="#fff"/>
            <path id="Path_21572" data-name="Path 21572" d="M381.609,281.433l-.67-2.153-1.135.349Z" fill="#fff"/>
            <path id="Path_21573" data-name="Path 21573" d="M381.609,281.433l-1.858-1.339.67-.928Z" fill="#fff"/>
            <path id="Path_21574" data-name="Path 21574" d="M378.9,281.433l1.907-1.339-.723-.928Z" fill="#fff"/>
            <path id="Path_21575" data-name="Path 21575" d="M378.9,281.433l.748-2.153,1.057.349Z" fill="#fff"/>
            <path id="Path_21576" data-name="Path 21576" d="M368.358,279.771l-.514,1.753.849.3Z" fill="#fff"/>
            <path id="Path_21577" data-name="Path 21577" d="M368.358,279.771l.619,1.753-.9.3Z" fill="#fff"/>
            <path id="Path_21578" data-name="Path 21578" d="M370.189,281.06h-1.881v.914Z" fill="#fff"/>
            <path id="Path_21579" data-name="Path 21579" d="M370.189,281.06l-1.52,1.07-.54-.761Z" fill="#fff"/>
            <path id="Path_21580" data-name="Path 21580" d="M366.658,281.06l1.47,1.07.54-.761Z" fill="#fff"/>
            <path id="Path_21581" data-name="Path 21581" d="M366.658,281.06h1.856v.914Z" fill="#fff"/>
            <path id="Path_21582" data-name="Path 21582" d="M369.518,283.134l-.592-1.778-.9.272Z" fill="#fff"/>
            <path id="Path_21583" data-name="Path 21583" d="M369.518,283.134l-1.52-1.12.516-.709Z" fill="#fff"/>
            <path id="Path_21584" data-name="Path 21584" d="M367.328,283.134l1.469-1.12-.541-.709Z" fill="#fff"/>
            <path id="Path_21585" data-name="Path 21585" d="M367.328,283.134l.567-1.778.9.272Z" fill="#fff"/>
            <path id="Path_21586" data-name="Path 21586" d="M311.728,246.365l-.723,2.178,1.109.347Z" fill="#fff"/>
            <path id="Path_21587" data-name="Path 21587" d="M311.728,246.365l.7,2.178-1.084.347Z" fill="#fff"/>
            <path id="Path_21588" data-name="Path 21588" d="M313.919,247.95h-2.294V249.1Z" fill="#fff"/>
            <path id="Path_21589" data-name="Path 21589" d="M313.919,247.95l-1.855,1.379-.67-.954Z" fill="#fff"/>
            <path id="Path_21590" data-name="Path 21590" d="M309.512,247.95l1.881,1.379.67-.954Z" fill="#fff"/>
            <path id="Path_21591" data-name="Path 21591" d="M309.512,247.95h2.293V249.1Z" fill="#fff"/>
            <path id="Path_21592" data-name="Path 21592" d="M313.069,250.528l-.67-2.178-1.109.347Z" fill="#fff"/>
            <path id="Path_21593" data-name="Path 21593" d="M313.069,250.528l-1.883-1.353.67-.941Z" fill="#fff"/>
            <path id="Path_21594" data-name="Path 21594" d="M310.337,250.528l1.907-1.353-.67-.941Z" fill="#fff"/>
            <path id="Path_21595" data-name="Path 21595" d="M310.337,250.528l.747-2.178,1.057.347Z" fill="#fff"/>
            <path id="Path_21596" data-name="Path 21596" d="M353.873,240.913l-.516,1.765.851.27Z" fill="#fff"/>
            <path id="Path_21597" data-name="Path 21597" d="M353.873,240.913l.619,1.765-.9.27Z" fill="#fff"/>
            <path id="Path_21598" data-name="Path 21598" d="M355.677,242.214h-1.855v.9Z" fill="#fff"/>
            <path id="Path_21599" data-name="Path 21599" d="M355.677,242.214l-1.52,1.084-.516-.749Z" fill="#fff"/>
            <path id="Path_21600" data-name="Path 21600" d="M352.145,242.214l1.5,1.084.516-.749Z" fill="#fff"/>
            <path id="Path_21601" data-name="Path 21601" d="M352.145,242.214h1.883v.9Z" fill="#fff"/>
            <path id="Path_21602" data-name="Path 21602" d="M355.007,244.277l-.618-1.767-.851.3Z" fill="#fff"/>
            <path id="Path_21603" data-name="Path 21603" d="M355.007,244.277l-1.52-1.109.541-.748Z" fill="#fff"/>
            <path id="Path_21604" data-name="Path 21604" d="M352.816,244.277l1.5-1.109-.542-.748Z" fill="#fff"/>
            <path id="Path_21605" data-name="Path 21605" d="M352.816,244.277l.567-1.767.876.3Z" fill="#fff"/>
            <path id="Path_21606" data-name="Path 21606" d="M336.319,272.256l-.876,2.63,1.341.437Z" fill="#fff"/>
            <path id="Path_21607" data-name="Path 21607" d="M336.319,272.256l.851,2.63-1.29.437Z" fill="#fff"/>
            <path id="Path_21608" data-name="Path 21608" d="M338.948,274.164h-2.732v1.393Z" fill="#fff"/>
            <path id="Path_21609" data-name="Path 21609" d="M338.948,274.164l-2.215,1.649-.8-1.146Z" fill="#fff"/>
            <path id="Path_21610" data-name="Path 21610" d="M333.69,274.164l2.294,1.649.749-1.146Z" fill="#fff"/>
            <path id="Path_21611" data-name="Path 21611" d="M333.69,274.164h2.758v1.393Z" fill="#fff"/>
            <path id="Path_21612" data-name="Path 21612" d="M337.944,277.271l-.825-2.616-1.34.412Z" fill="#fff"/>
            <path id="Path_21613" data-name="Path 21613" d="M337.944,277.271l-2.218-1.637.774-1.109Z" fill="#fff"/>
            <path id="Path_21614" data-name="Path 21614" d="M334.7,277.271l2.243-1.637-.825-1.109Z" fill="#fff"/>
            <path id="Path_21615" data-name="Path 21615" d="M334.7,277.271l.85-2.616,1.341.412Z" fill="#fff"/>
            <path id="Path_21616" data-name="Path 21616" d="M343.82,259.9l-.721,2.19,1.109.335Z" fill="#fff"/>
            <path id="Path_21617" data-name="Path 21617" d="M343.82,259.9l.723,2.19-1.109.335Z" fill="#fff"/>
            <path id="Path_21618" data-name="Path 21618" d="M345.985,261.5h-2.32v1.12Z" fill="#fff"/>
            <path id="Path_21619" data-name="Path 21619" d="M345.985,261.5l-1.881,1.339-.67-.928Z" fill="#fff"/>
            <path id="Path_21620" data-name="Path 21620" d="M341.63,261.5l1.855,1.339.67-.928Z" fill="#fff"/>
            <path id="Path_21621" data-name="Path 21621" d="M341.63,261.5h2.294v1.12Z" fill="#fff"/>
            <path id="Path_21622" data-name="Path 21622" d="M345.159,264.06l-.721-2.2-1.083.374Z" fill="#fff"/>
            <path id="Path_21623" data-name="Path 21623" d="M345.159,264.06l-1.855-1.366.67-.942Z" fill="#fff"/>
            <path id="Path_21624" data-name="Path 21624" d="M342.429,264.06l1.881-1.366-.67-.942Z" fill="#fff"/>
            <path id="Path_21625" data-name="Path 21625" d="M342.429,264.06l.721-2.2,1.109.374Z" fill="#fff"/>
            <path id="Path_21626" data-name="Path 21626" d="M336.319,254.11l-.721,2.165,1.107.36Z" fill="#fff"/>
            <path id="Path_21627" data-name="Path 21627" d="M336.319,254.11l.7,2.165-1.03.36Z" fill="#fff"/>
            <path id="Path_21628" data-name="Path 21628" d="M338.51,255.683h-2.295v1.16Z" fill="#fff"/>
            <path id="Path_21629" data-name="Path 21629" d="M338.51,255.683l-1.856,1.34-.67-.914Z" fill="#fff"/>
            <path id="Path_21630" data-name="Path 21630" d="M334.154,255.683l1.881,1.34.619-.914Z" fill="#fff"/>
            <path id="Path_21631" data-name="Path 21631" d="M334.154,255.683h2.295v1.16Z" fill="#fff"/>
            <path id="Path_21632" data-name="Path 21632" d="M337.684,258.26l-.7-2.19-1.109.334Z" fill="#fff"/>
            <path id="Path_21633" data-name="Path 21633" d="M337.684,258.26l-1.855-1.353.67-.942Z" fill="#fff"/>
            <path id="Path_21634" data-name="Path 21634" d="M334.978,258.26l1.856-1.353-.67-.942Z" fill="#fff"/>
            <path id="Path_21635" data-name="Path 21635" d="M334.978,258.26l.7-2.19,1.109.334Z" fill="#fff"/>
            <path id="Path_21636" data-name="Path 21636" d="M329.8,260.349l-.568,1.767.9.281Z" fill="#fff"/>
            <path id="Path_21637" data-name="Path 21637" d="M329.8,260.349l.618,1.767-.9.281Z" fill="#fff"/>
            <path id="Path_21638" data-name="Path 21638" d="M331.576,261.626h-1.829v.9Z" fill="#fff"/>
            <path id="Path_21639" data-name="Path 21639" d="M331.576,261.626l-1.494,1.081-.568-.76Z" fill="#fff"/>
            <path id="Path_21640" data-name="Path 21640" d="M328.1,261.626l1.469,1.081.517-.76Z" fill="#fff"/>
            <path id="Path_21641" data-name="Path 21641" d="M328.1,261.626H329.9v.9Z" fill="#fff"/>
            <path id="Path_21642" data-name="Path 21642" d="M330.907,263.686l-.543-1.753-.9.284Z" fill="#fff"/>
            <path id="Path_21643" data-name="Path 21643" d="M330.907,263.686l-1.47-1.081.567-.749Z" fill="#fff"/>
            <path id="Path_21644" data-name="Path 21644" d="M328.767,263.686l1.47-1.081-.542-.749Z" fill="#fff"/>
            <path id="Path_21645" data-name="Path 21645" d="M328.767,263.686l.567-1.753.851.284Z" fill="#fff"/>
            <path id="Path_21646" data-name="Path 21646" d="M333.1,265.363l-.413,1.25.618.192Z" fill="#fff"/>
            <path id="Path_21647" data-name="Path 21647" d="M333.1,265.363l.387,1.25-.619.192Z" fill="#fff"/>
            <path id="Path_21648" data-name="Path 21648" d="M334.334,266.264H333.02v.658Z" fill="#fff"/>
            <path id="Path_21649" data-name="Path 21649" d="M334.334,266.264l-1.032.786-.386-.541Z" fill="#fff"/>
            <path id="Path_21650" data-name="Path 21650" d="M331.808,266.264l1.109.786.386-.541Z" fill="#fff"/>
            <path id="Path_21651" data-name="Path 21651" d="M331.808,266.264h1.341v.658Z" fill="#fff"/>
            <path id="Path_21652" data-name="Path 21652" d="M333.82,267.759l-.387-1.262-.619.192Z" fill="#fff"/>
            <path id="Path_21653" data-name="Path 21653" d="M333.82,267.759l-1.058-.786.439-.541Z" fill="#fff"/>
            <path id="Path_21654" data-name="Path 21654" d="M332.3,267.759l1.058-.786-.387-.541Z" fill="#fff"/>
            <path id="Path_21655" data-name="Path 21655" d="M332.3,267.759l.439-1.262.619.192Z" fill="#fff"/>
            <path id="Path_21656" data-name="Path 21656" d="M355.677,287.206l-.721,2.205,1.109.372Z" fill="#fff"/>
            <path id="Path_21657" data-name="Path 21657" d="M355.677,287.206l.723,2.205-1.134.372Z" fill="#fff"/>
            <path id="Path_21658" data-name="Path 21658" d="M357.842,288.792h-2.295v1.186Z" fill="#fff"/>
            <path id="Path_21659" data-name="Path 21659" d="M357.842,288.792l-1.856,1.379-.669-.953Z" fill="#fff"/>
            <path id="Path_21660" data-name="Path 21660" d="M353.487,288.792l1.83,1.379.721-.953Z" fill="#fff"/>
            <path id="Path_21661" data-name="Path 21661" d="M353.487,288.792h2.294v1.186Z" fill="#fff"/>
            <path id="Path_21662" data-name="Path 21662" d="M357.018,291.4l-.722-2.2-1.083.374Z" fill="#fff"/>
            <path id="Path_21663" data-name="Path 21663" d="M357.018,291.4l-1.857-1.353.67-.928Z" fill="#fff"/>
            <path id="Path_21664" data-name="Path 21664" d="M354.312,291.4l1.855-1.353-.67-.928Z" fill="#fff"/>
            <path id="Path_21665" data-name="Path 21665" d="M354.312,291.4l.695-2.2,1.109.374Z" fill="#fff"/>
            <path id="Path_21666" data-name="Path 21666" d="M361.194,281.974l-.567,1.754.851.3Z" fill="#fff"/>
            <path id="Path_21667" data-name="Path 21667" d="M361.194,281.974l.567,1.754-.9.3Z" fill="#fff"/>
            <path id="Path_21668" data-name="Path 21668" d="M362.947,283.263H361.09v.877Z" fill="#fff"/>
            <path id="Path_21669" data-name="Path 21669" d="M362.947,283.263l-1.469,1.058-.568-.723Z" fill="#fff"/>
            <path id="Path_21670" data-name="Path 21670" d="M359.415,283.263l1.495,1.058.568-.723Z" fill="#fff"/>
            <path id="Path_21671" data-name="Path 21671" d="M359.415,283.263H361.3v.877Z" fill="#fff"/>
            <path id="Path_21672" data-name="Path 21672" d="M362.276,285.3l-.568-1.753-.849.3Z" fill="#fff"/>
            <path id="Path_21673" data-name="Path 21673" d="M362.276,285.3l-1.469-1.083.541-.749Z" fill="#fff"/>
            <path id="Path_21674" data-name="Path 21674" d="M360.137,285.3l1.469-1.083-.567-.749Z" fill="#fff"/>
            <path id="Path_21675" data-name="Path 21675" d="M360.137,285.3l.567-1.753.876.3Z" fill="#fff"/>
            <path id="Path_21676" data-name="Path 21676" d="M350.574,280.389l-.568,1.741.851.309Z" fill="#fff"/>
            <path id="Path_21677" data-name="Path 21677" d="M350.574,280.389l.567,1.741-.851.309Z" fill="#fff"/>
            <path id="Path_21678" data-name="Path 21678" d="M352.3,281.653h-1.829v.941Z" fill="#fff"/>
            <path id="Path_21679" data-name="Path 21679" d="M352.3,281.653l-1.494,1.109-.516-.774Z" fill="#fff"/>
            <path id="Path_21680" data-name="Path 21680" d="M348.795,281.653l1.495,1.109.516-.774Z" fill="#fff"/>
            <path id="Path_21681" data-name="Path 21681" d="M348.795,281.653h1.881v.941Z" fill="#fff"/>
            <path id="Path_21682" data-name="Path 21682" d="M351.655,283.728l-.566-1.754-.9.3Z" fill="#fff"/>
            <path id="Path_21683" data-name="Path 21683" d="M351.655,283.728l-1.52-1.084.568-.734Z" fill="#fff"/>
            <path id="Path_21684" data-name="Path 21684" d="M349.465,283.728l1.5-1.084-.541-.734Z" fill="#fff"/>
            <path id="Path_21685" data-name="Path 21685" d="M349.465,283.728l.567-1.754.928.3Z" fill="#fff"/>
            <path id="Path_21686" data-name="Path 21686" d="M310.388,277.528l-.825,2.617,1.288.439Z" fill="#fff"/>
            <path id="Path_21687" data-name="Path 21687" d="M310.388,277.528l.851,2.617-1.288.439Z" fill="#fff"/>
            <path id="Path_21688" data-name="Path 21688" d="M313.069,279.461h-2.783v1.379Z" fill="#fff"/>
            <path id="Path_21689" data-name="Path 21689" d="M313.069,279.461l-2.294,1.612L310,279.951Z" fill="#fff"/>
            <path id="Path_21690" data-name="Path 21690" d="M307.733,279.461l2.32,1.612.747-1.123Z" fill="#fff"/>
            <path id="Path_21691" data-name="Path 21691" d="M307.733,279.461h2.783v1.379Z" fill="#fff"/>
            <path id="Path_21692" data-name="Path 21692" d="M312.011,282.542l-.825-2.616-1.288.413Z" fill="#fff"/>
            <path id="Path_21693" data-name="Path 21693" d="M312.011,282.542l-2.216-1.623.774-1.123Z" fill="#fff"/>
            <path id="Path_21694" data-name="Path 21694" d="M308.763,282.542l2.242-1.623-.825-1.123Z" fill="#fff"/>
            <path id="Path_21695" data-name="Path 21695" d="M308.763,282.542l.9-2.616,1.288.413Z" fill="#fff"/>
            <path id="Path_21696" data-name="Path 21696" d="M336.319,295.623l-.284.89.414.141Z" fill="#fff"/>
            <path id="Path_21697" data-name="Path 21697" d="M336.319,295.623l.284.89-.387.141Z" fill="#fff"/>
            <path id="Path_21698" data-name="Path 21698" d="M337.222,296.28h-.954v.452Z" fill="#fff"/>
            <path id="Path_21699" data-name="Path 21699" d="M337.222,296.28l-.774.542-.233-.388Z" fill="#fff"/>
            <path id="Path_21700" data-name="Path 21700" d="M335.443,296.28l.772.542.233-.388Z" fill="#fff"/>
            <path id="Path_21701" data-name="Path 21701" d="M335.443,296.28h.9v.452Z" fill="#fff"/>
            <path id="Path_21702" data-name="Path 21702" d="M336.835,297.3l-.232-.876-.439.154Z" fill="#fff"/>
            <path id="Path_21703" data-name="Path 21703" d="M336.835,297.3l-.721-.529.232-.36Z" fill="#fff"/>
            <path id="Path_21704" data-name="Path 21704" d="M335.778,297.3l.721-.529-.232-.36Z" fill="#fff"/>
            <path id="Path_21705" data-name="Path 21705" d="M335.778,297.3l.309-.876.413.154Z" fill="#fff"/>
          </g>
        </g>
      </g>
    </g>
  </g>
</svg>
