<svg xmlns="http://www.w3.org/2000/svg" xmlns:xlink="http://www.w3.org/1999/xlink" width="419.51" height="289.166" viewBox="0 0 419.51 289.166">
  <defs>
    <linearGradient id="linear-gradient" y1="0.5" x2="1" y2="0.5" gradientUnits="objectBoundingBox">
      <stop offset="0" stop-color="#dab264"/>
      <stop offset="0.482" stop-color="#be895f"/>
      <stop offset="1" stop-color="#996a45"/>
    </linearGradient>
    <clipPath id="clip-path">
      <path id="Path_20546" data-name="Path 20546" d="M525.647,117.1a1819.437,1819.437,0,0,0-378.629,0A576.1,576.1,0,0,0,132.97,245.417a576.1,576.1,0,0,0,14.048,128.314,1823.376,1823.376,0,0,0,189.315,9.877,1823.356,1823.356,0,0,0,189.314-9.877A576.1,576.1,0,0,0,539.7,245.417,576.1,576.1,0,0,0,525.647,117.1Z" fill="none"/>
    </clipPath>
  </defs>
  <g id="Group_7158" data-name="Group 7158" transform="translate(-126.578 -101.434)">
    <path id="Path_19680" data-name="Path 19680" d="M336.325,390.6a1837.519,1837.519,0,0,1-189.978-9.912l-4.546-.479-1.016-4.459a585.269,585.269,0,0,1-14.207-129.732,585.258,585.258,0,0,1,14.207-129.733l1.016-4.459,4.546-.479a1825.519,1825.519,0,0,1,379.971,0l4.547.479,1.016,4.459a585.316,585.316,0,0,1,14.207,129.733A585.327,585.327,0,0,1,531.881,375.75l-1.016,4.459-4.547.479A1837.485,1837.485,0,0,1,336.341,390.6Z" fill="url(#linear-gradient)"/>
    <g id="Group_7157" data-name="Group 7157">
      <g id="Group_7156" data-name="Group 7156" clip-path="url(#clip-path)">
        <g id="Group_7155" data-name="Group 7155">
          <rect id="Rectangle_1525" data-name="Rectangle 1525" width="211.724" height="281.861" transform="translate(230.473 105.086)" fill="#fff"/>
          <rect id="Rectangle_1526" data-name="Rectangle 1526" width="201.14" height="281.861" transform="translate(29.333 105.086)" fill="#e60000"/>
          <rect id="Rectangle_1527" data-name="Rectangle 1527" width="201.136" height="281.861" transform="translate(442.197 105.086)" fill="#e60000"/>
          <path id="Path_20545" data-name="Path 20545" d="M380.378,278.47c3.067-2.3,38.934-31.864,38.934-31.864s-4.377-1.977-7.918-3.723-2.871-2.873-2.257-5.744,6.758-24.706,6.758-24.706-17.451,3.838-21.7,4.639-5.458-.756-6.021-3.063-2.643-9.608-2.643-9.608-14.269,15.925-18.138,20.347c-3.853,4.435-7.77,2.4-6.682-3.483s8.073-42.423,8.073-42.423-6.258,3.444-10.594,5.468-6.122,1.6-7.915-1.413-14.272-26.542-14.272-26.542-12.484,23.526-14.275,26.542-3.577,3.438-7.915,1.413-10.6-5.468-10.6-5.468,7,36.532,8.087,42.423-2.827,7.918-6.693,3.483S286.473,204.4,286.473,204.4s-2.077,7.3-2.639,9.608-1.792,3.863-6.025,3.063-21.7-4.639-21.7-4.639,6.15,21.831,6.763,24.706,1.276,4.007-2.259,5.744-7.917,3.723-7.917,3.723,35.872,29.564,38.933,31.864,3.673,3.682,2.165,8.481-2.73,9.518-2.73,9.518,35.445-4.97,39.358-5.482c3.908-.527,3.528,3.625,3.437,5.786s-1.041,39.563-1.041,39.563H339.2s-.954-37.395-1.044-39.563-.479-6.313,3.435-5.786c3.908.512,39.352,5.482,39.352,5.482s-1.228-4.712-2.733-9.518S377.314,280.778,380.378,278.47Z" fill="#e60000"/>
        </g>
      </g>
    </g>
  </g>
</svg>
