<svg xmlns="http://www.w3.org/2000/svg" xmlns:xlink="http://www.w3.org/1999/xlink" width="419.51" height="289.166" viewBox="0 0 419.51 289.166">
  <defs>
    <linearGradient id="linear-gradient" y1="0.5" x2="1" y2="0.5" gradientUnits="objectBoundingBox">
      <stop offset="0" stop-color="#dab264"/>
      <stop offset="0.482" stop-color="#be895f"/>
      <stop offset="1" stop-color="#996a45"/>
    </linearGradient>
    <clipPath id="clip-path">
      <path id="Path_17113" data-name="Path 17113" d="M525.647,117.1a1819.437,1819.437,0,0,0-378.629,0A576.1,576.1,0,0,0,132.97,245.417a576.1,576.1,0,0,0,14.048,128.314,1823.376,1823.376,0,0,0,189.315,9.877,1823.356,1823.356,0,0,0,189.314-9.877A576.1,576.1,0,0,0,539.7,245.417,576.1,576.1,0,0,0,525.647,117.1Z" fill="none"/>
    </clipPath>
  </defs>
  <g id="Group_6481" data-name="Group 6481" transform="translate(-126.578 -101.434)">
    <path id="Path_16282" data-name="Path 16282" d="M336.325,390.6a1837.519,1837.519,0,0,1-189.978-9.912l-4.546-.479-1.016-4.459a585.269,585.269,0,0,1-14.207-129.732,585.258,585.258,0,0,1,14.207-129.733l1.016-4.459,4.546-.479a1825.519,1825.519,0,0,1,379.971,0l4.547.479,1.016,4.459a585.316,585.316,0,0,1,14.207,129.733A585.327,585.327,0,0,1,531.881,375.75l-1.016,4.459-4.547.479A1837.485,1837.485,0,0,1,336.341,390.6Z" fill="url(#linear-gradient)"/>
    <g id="Group_6480" data-name="Group 6480">
      <g id="Group_6479" data-name="Group 6479" clip-path="url(#clip-path)">
        <g id="Group_6478" data-name="Group 6478">
          <path id="Path_17110" data-name="Path 17110" d="M126,101H546.667V390H126Z" fill="#001489"/>
          <path id="Path_17111" data-name="Path 17111" d="M126,149.167H546.667V341.833H126Z" fill="#fff"/>
          <path id="Path_17112" data-name="Path 17112" d="M126,197.333H546.667v96.334H126Z" fill="#da291c"/>
        </g>
      </g>
    </g>
  </g>
</svg>
