<svg xmlns="http://www.w3.org/2000/svg" xmlns:xlink="http://www.w3.org/1999/xlink" width="419.51" height="289.166" viewBox="0 0 419.51 289.166">
  <defs>
    <linearGradient id="linear-gradient" y1="0.5" x2="1" y2="0.5" gradientUnits="objectBoundingBox">
      <stop offset="0" stop-color="#dab264"/>
      <stop offset="0.482" stop-color="#be895f"/>
      <stop offset="1" stop-color="#996a45"/>
    </linearGradient>
    <clipPath id="clip-path">
      <path id="Path_18813" data-name="Path 18813" d="M525.647,117.1a1819.437,1819.437,0,0,0-378.629,0A576.1,576.1,0,0,0,132.97,245.417a576.1,576.1,0,0,0,14.048,128.314,1823.376,1823.376,0,0,0,189.315,9.877,1823.356,1823.356,0,0,0,189.314-9.877A576.1,576.1,0,0,0,539.7,245.417,576.1,576.1,0,0,0,525.647,117.1Z" fill="none"/>
    </clipPath>
  </defs>
  <g id="Group_6811" data-name="Group 6811" transform="translate(-126.578 -101.434)">
    <path id="Path_17948" data-name="Path 17948" d="M336.325,390.6a1837.519,1837.519,0,0,1-189.978-9.912l-4.546-.479-1.016-4.459a585.269,585.269,0,0,1-14.207-129.732,585.258,585.258,0,0,1,14.207-129.733l1.016-4.459,4.546-.479a1825.519,1825.519,0,0,1,379.971,0l4.547.479,1.016,4.459a585.316,585.316,0,0,1,14.207,129.733A585.327,585.327,0,0,1,531.881,375.75l-1.016,4.459-4.547.479A1837.485,1837.485,0,0,1,336.341,390.6Z" fill="url(#linear-gradient)"/>
    <g id="Group_6810" data-name="Group 6810">
      <g id="Group_6809" data-name="Group 6809" clip-path="url(#clip-path)">
        <g id="Group_6808" data-name="Group 6808">
          <g id="Group_6795" data-name="Group 6795">
            <path id="Path_18781" data-name="Path 18781" d="M734.333,293.9v-95.77h-796V293.9Z" fill="#fff"/>
            <path id="Path_18782" data-name="Path 18782" d="M-61.667,389.667h796V293.9h-796v95.769Z" fill="#0437a0"/>
            <path id="Path_18783" data-name="Path 18783" d="M-61.667,198.128h796V102.366h-796v95.762Z" fill="#e60000"/>
          </g>
          <g id="Group_6807" data-name="Group 6807">
            <path id="Path_18784" data-name="Path 18784" d="M393.068,175.393a140.794,140.794,0,0,0-7.753-13.887l-.439-.69-.781.236a118.777,118.777,0,0,0-13.381,4.942,135.235,135.235,0,0,0-9.286-11.471l-.558-.616-.738.384a124.878,124.878,0,0,0-12.322,7.381,130.156,130.156,0,0,0-10.948-9.554l-.66-.515-.662.515a130.445,130.445,0,0,0-10.947,9.554,124.878,124.878,0,0,0-12.322-7.381l-.737-.384-.559.616a135.235,135.235,0,0,0-9.286,11.471,118.847,118.847,0,0,0-13.381-4.942l-.783-.236-.436.69a141.028,141.028,0,0,0-7.756,13.887l-.215.443,11.332,26.191,1.02-.517c2.791-1.415,5.676-2.708,8.579-3.846,2.881-1.131,5.849-2.138,8.823-2.992,2.956-.849,5.985-1.568,9.008-2.137s6.083-1,9.129-1.281,6.136-.427,9.193-.427,6.148.143,9.19.427,6.123.715,9.131,1.281,6.052,1.288,9.008,2.137c2.974.855,5.942,1.861,8.823,2.992,2.9,1.138,5.787,2.431,8.579,3.846l1.02.517,11.332-26.191Z" fill="#fff"/>
            <path id="Path_18785" data-name="Path 18785" d="M384.406,162.083a117.343,117.343,0,0,0-14.053,5.235q-3.262,13.161-6.526,26.32,4.512,1.3,8.92,3.023t8.672,3.888q5.342-12.343,10.681-24.686A138.937,138.937,0,0,0,384.406,162.083Z" fill="#60bee1"/>
            <path id="Path_18786" data-name="Path 18786" d="M311.773,155.247a133.726,133.726,0,0,0-9.723,12.071q3.264,13.161,6.526,26.32,4.511-1.3,9.105-2.161t9.23-1.295q-1.1-13.566-2.2-27.135A123.028,123.028,0,0,0,311.773,155.247Z" fill="#0437a0"/>
            <path id="Path_18787" data-name="Path 18787" d="M326.3,182.631c-3.141.307-6.549.688-9.735,1.215-3.353.587-6.654,1.286-9.872,2.183q-.865-3.477-1.725-6.952a61.7,61.7,0,0,1,10.042-2.609,68.107,68.107,0,0,1,10.74-.6Q326.028,179.248,326.3,182.631Z" fill="#160080"/>
            <path id="Path_18788" data-name="Path 18788" d="M289.252,203.363l-.242,60.184c1.8,23.871,26.446,42.124,48.734,41.128,20.658.144,43.265-17.43,45.649-40.931V203.363Zm93.021,60.325c-1.1,10.689-6.593,20.792-15.475,28.448-8.418,7.26-18.913,11.419-28.8,11.419h-.308c-.559.028-1.131.04-1.7.04-10.466,0-21.5-4.231-30.291-11.6-9.229-7.747-14.759-17.861-15.572-28.484l.237-59.026h91.907Z" fill="#e60000"/>
            <path id="Path_18789" data-name="Path 18789" d="M382.273,204.482v59.206c-1.1,10.689-6.593,20.792-15.475,28.448-8.418,7.26-18.913,11.419-28.8,11.419h-.308c-.559.028-1.131.04-1.7.04-10.466,0-21.5-4.231-30.291-11.6-9.229-7.747-14.759-17.861-15.572-28.484l.237-59.026Z" fill="#fff"/>
            <g id="Group_6796" data-name="Group 6796">
              <rect id="Rectangle_1327" data-name="Rectangle 1327" width="18.429" height="19.944" transform="translate(326.987 244.372)" fill="#e60000"/>
              <rect id="Rectangle_1328" data-name="Rectangle 1328" width="18.429" height="19.945" transform="translate(308.558 224.427)" fill="#e60000"/>
              <rect id="Rectangle_1329" data-name="Rectangle 1329" width="18.429" height="18.825" transform="translate(326.987 205.602)" fill="#e60000"/>
              <path id="Path_18790" data-name="Path 18790" d="M326.987,301.437a41.185,41.185,0,0,0,9.005,1.038c.554,0,1.11-.013,1.7-.038H338a37.026,37.026,0,0,0,7.415-.774v-17.4H326.987Z" fill="#e60000"/>
              <path id="Path_18791" data-name="Path 18791" d="M366.068,291.291a47.39,47.39,0,0,0,6.649-7.031h-8.872v8.823C364.6,292.507,365.343,291.916,366.068,291.291Z" fill="#e60000"/>
              <path id="Path_18792" data-name="Path 18792" d="M291.481,205.6l-.076,18.825h17.153V205.6Z" fill="#e60000"/>
              <path id="Path_18793" data-name="Path 18793" d="M381.065,264.315c.028-.229.065-.457.089-.688V244.372H363.845v19.943Z" fill="#e60000"/>
              <path id="Path_18794" data-name="Path 18794" d="M306.418,291.132c.7.586,1.415,1.143,2.14,1.688v-8.56h-8.836A47.418,47.418,0,0,0,306.418,291.132Z" fill="#e60000"/>
              <path id="Path_18795" data-name="Path 18795" d="M291.325,244.372l-.077,19.1c.022.284.062.565.09.848h17.22V244.372Z" fill="#e60000"/>
              <rect id="Rectangle_1330" data-name="Rectangle 1330" width="18.429" height="19.945" transform="translate(308.558 264.315)" fill="#e60000"/>
              <rect id="Rectangle_1331" data-name="Rectangle 1331" width="17.309" height="18.825" transform="translate(363.845 205.602)" fill="#e60000"/>
              <rect id="Rectangle_1332" data-name="Rectangle 1332" width="18.429" height="19.945" transform="translate(345.416 264.315)" fill="#e60000"/>
              <rect id="Rectangle_1333" data-name="Rectangle 1333" width="18.429" height="19.945" transform="translate(345.416 224.427)" fill="#e60000"/>
            </g>
            <path id="Path_18796" data-name="Path 18796" d="M336.2,152.967a128.543,128.543,0,0,0-11.486,10.08q1.1,13.567,2.2,27.135,4.633-.432,9.291-.432t9.291.432q1.1-13.566,2.194-27.135A128.674,128.674,0,0,0,336.2,152.967Z" fill="#60bee1"/>
            <path id="Path_18797" data-name="Path 18797" d="M360.63,155.247a122.822,122.822,0,0,0-12.943,7.8q-1.1,13.567-2.194,27.135,4.633.432,9.229,1.295t9.105,2.161q3.264-13.161,6.526-26.32A133.551,133.551,0,0,0,360.63,155.247Z" fill="#0437a0"/>
            <path id="Path_18798" data-name="Path 18798" d="M288,162.083a139.344,139.344,0,0,0-7.7,13.78q5.342,12.343,10.681,24.686,4.266-2.16,8.672-3.888t8.921-3.023q-3.264-13.161-6.526-26.32A117.47,117.47,0,0,0,288,162.083Z" fill="#60bee1"/>
            <path id="Path_18799" data-name="Path 18799" d="M388.6,183.962c-.387.885-.767,1.763-1.148,2.648q-1.494,3.451-2.989,6.9c-.358.834-.716,1.663-1.08,2.5-3.247-1.231-6.352-2.177-9.559-3.2-3.034-.962-6.018-1.858-9.1-2.8.217-.885.441-1.774.66-2.665q.9-3.6,1.785-7.214c.235-.924.465-1.853.694-2.781a97.456,97.456,0,0,1,10.976,2.91A103.243,103.243,0,0,1,388.6,183.962Z" fill="#4c73d5"/>
            <path id="Path_18800" data-name="Path 18800" d="M290.558,169.9l2.15,1.51,2.382-1.107-.233,2.617,2.149,1.51-2.382,1.107-.233,2.617-2.149-1.51-2.384,1.105.233-2.617-2.149-1.51,2.382-1.105Z" fill="#ffc400"/>
            <path id="Path_18801" data-name="Path 18801" d="M382.841,167.448l-2.149,1.51-2.382-1.105.233,2.616-2.149,1.511,2.382,1.105.233,2.617,2.149-1.51,2.382,1.106-.233-2.616,2.15-1.511-2.382-1.106Z" fill="#ffc400"/>
            <path id="Path_18802" data-name="Path 18802" d="M301.675,179.716a6.922,6.922,0,0,1-12.9,4.52,6.922,6.922,0,1,0,12.9-4.52Z" fill="#fff"/>
            <g id="Group_6799" data-name="Group 6799">
              <path id="Path_18803" data-name="Path 18803" d="M334.54,166.384v-.708h.769v-.8h-1.723v.585H332.54v-.893h-.77v-.491h-1.107v.491h-.77v.893h-1.046v-.585h-1.724v.8h.77v.708h.768l.155.954h-1.693v.954h.847V169h-.847v1.139h.677v1.436s1.693,2.288,3.416,2.288,3.416-2.288,3.416-2.288v-1.436h.677V169h-.847v-.708h.847v-.954h-1.692l.153-.954Z" fill="#ffc400"/>
              <g id="Group_6797" data-name="Group 6797" opacity="0.3" style="mix-blend-mode: multiply;isolation: isolate">
                <rect id="Rectangle_1334" data-name="Rectangle 1334" width="0.986" height="0.986" transform="translate(329.677 168.261)" fill="#ff931e"/>
                <rect id="Rectangle_1335" data-name="Rectangle 1335" width="0.985" height="0.986" transform="translate(331.77 168.261)" fill="#ff931e"/>
              </g>
              <g id="Group_6798" data-name="Group 6798" opacity="0.3" style="mix-blend-mode: multiply;isolation: isolate">
                <rect id="Rectangle_1336" data-name="Rectangle 1336" width="0.985" height="0.492" transform="translate(329.739 170.909)" fill="#ff931e"/>
                <rect id="Rectangle_1337" data-name="Rectangle 1337" width="0.986" height="0.492" transform="translate(331.708 170.909)" fill="#ff931e"/>
                <rect id="Rectangle_1338" data-name="Rectangle 1338" width="0.985" height="0.493" transform="translate(330.723 171.4)" fill="#ff931e"/>
              </g>
            </g>
            <g id="Group_6802" data-name="Group 6802">
              <path id="Path_18804" data-name="Path 18804" d="M344.51,166.384v-.708h.77v-.8h-1.723v.585H342.51v-.893h-.768v-.491h-1.109v.491h-.77v.893h-1.046v-.585h-1.723v.8h.769v.708h.77l.153.954h-1.692v.954h.847V169h-.847v1.139h.677v1.436s1.692,2.288,3.416,2.288,3.416-2.288,3.416-2.288v-1.436h.677V169h-.846v-.708h.846v-.954h-1.693l.153-.954Z" fill="#ffc400"/>
              <g id="Group_6800" data-name="Group 6800" opacity="0.3" style="mix-blend-mode: multiply;isolation: isolate">
                <rect id="Rectangle_1339" data-name="Rectangle 1339" width="0.986" height="0.986" transform="translate(339.647 168.261)" fill="#ff931e"/>
                <rect id="Rectangle_1340" data-name="Rectangle 1340" width="0.986" height="0.986" transform="translate(341.74 168.261)" fill="#ff931e"/>
              </g>
              <g id="Group_6801" data-name="Group 6801" opacity="0.3" style="mix-blend-mode: multiply;isolation: isolate">
                <rect id="Rectangle_1341" data-name="Rectangle 1341" width="0.985" height="0.492" transform="translate(339.709 170.909)" fill="#ff931e"/>
                <rect id="Rectangle_1342" data-name="Rectangle 1342" width="0.985" height="0.492" transform="translate(341.68 170.909)" fill="#ff931e"/>
                <rect id="Rectangle_1343" data-name="Rectangle 1343" width="0.986" height="0.493" transform="translate(340.694 171.4)" fill="#ff931e"/>
              </g>
            </g>
            <g id="Group_6805" data-name="Group 6805">
              <path id="Path_18805" data-name="Path 18805" d="M339.525,178.295v-.71h.77v-.8h-1.724v.584h-1.046v-.892h-.77v-.493h-1.107v.493h-.77v.892h-1.046v-.584h-1.724v.8h.77v.71h.77l.153.953h-1.693v.954h.847v.708h-.847v1.138h.677v1.435s1.693,2.289,3.417,2.289,3.416-2.289,3.416-2.289v-1.435h.677V180.91h-.847V180.2h.847v-.954H338.6l.153-.953Z" fill="#ffc400"/>
              <g id="Group_6803" data-name="Group 6803" opacity="0.3" style="mix-blend-mode: multiply;isolation: isolate">
                <rect id="Rectangle_1344" data-name="Rectangle 1344" width="0.986" height="0.985" transform="translate(334.662 180.171)" fill="#ff931e"/>
                <rect id="Rectangle_1345" data-name="Rectangle 1345" width="0.986" height="0.985" transform="translate(336.755 180.171)" fill="#ff931e"/>
              </g>
              <g id="Group_6804" data-name="Group 6804" opacity="0.3" style="mix-blend-mode: multiply;isolation: isolate">
                <rect id="Rectangle_1346" data-name="Rectangle 1346" width="0.985" height="0.493" transform="translate(334.724 182.818)" fill="#ff931e"/>
                <rect id="Rectangle_1347" data-name="Rectangle 1347" width="0.985" height="0.493" transform="translate(336.694 182.818)" fill="#ff931e"/>
                <rect id="Rectangle_1348" data-name="Rectangle 1348" width="0.986" height="0.493" transform="translate(335.708 183.311)" fill="#ff931e"/>
              </g>
            </g>
            <path id="Path_18806" data-name="Path 18806" d="M325.239,169.567a83.435,83.435,0,0,0-11.222,1.036,45.7,45.7,0,0,0-10.477,2.72q-.746-2.989-1.483-5.983a40.614,40.614,0,0,1,10.428-3.308,87.515,87.515,0,0,1,12.235-.946Q324.981,166.326,325.239,169.567Z" fill="#e60000"/>
            <path id="Path_18807" data-name="Path 18807" d="M326.3,182.631c-3.141.307-6.549.688-9.735,1.215-3.353.587-6.654,1.286-9.872,2.183q-.865-3.477-1.725-6.952a61.7,61.7,0,0,1,10.042-2.609,68.107,68.107,0,0,1,10.74-.6Q326.028,179.248,326.3,182.631Z" fill="#e60000"/>
            <g id="Group_6806" data-name="Group 6806">
              <path id="Path_18808" data-name="Path 18808" d="M358.242,172.583a11.492,11.492,0,0,0,2.631.358,5.185,5.185,0,0,0,.569-.042,4.1,4.1,0,0,0,1.389-.413,4.261,4.261,0,0,0,.724-.371.517.517,0,0,0,.236-.264c.022-.092-.058-.154.008-.257a1.571,1.571,0,0,0-.484,0,5.383,5.383,0,0,1-2.526.211,3.178,3.178,0,0,1-.948-.358c-.132-.062-.927-.291-.722-.476.153-.138.708-.028.914-.047a2.444,2.444,0,0,0,.84-.234,2.132,2.132,0,0,0,.8-.4,1.027,1.027,0,0,0,.3-.352c.01-.021.091-.341.054-.341a3.464,3.464,0,0,0-.464-.042c-1.426.865-3.016-.183-4.477-.417a7.51,7.51,0,0,0-2.869.185,2.658,2.658,0,0,0-.913.409c-.317.227-.552.4-.165.705a5.7,5.7,0,0,0,1.7,1.114c.628.191,1.306.132,1.927.354A14.726,14.726,0,0,0,358.242,172.583Z" fill="#e60000"/>
              <path id="Path_18809" data-name="Path 18809" d="M364.972,176.6a3.519,3.519,0,0,1,.3-.522l-.021-1.326a.637.637,0,0,0-.359-.464.773.773,0,0,0-.442.274l-.652.485a2.106,2.106,0,0,1-1.094,0H361.8a1.4,1.4,0,0,1-1.052,0l-.59.042a2.568,2.568,0,0,1-.462.188l-.548-.019a11.145,11.145,0,0,0-1.516.209,2.3,2.3,0,0,0-1.178-.169l-.464-.105a5.282,5.282,0,0,1-1.218-1.3c-.052-.09-.105-.178-.153-.271.067.129,1.232-.524,1.354-.624.2-.163.934-.9.477-1.008a4.4,4.4,0,0,0-.945.053,2.721,2.721,0,0,1-.727-.014c-.69-.181-1.212-.954-1.818-1.309-.413-.243-.352-.354-.786-.126-.206.106-.246.431-.479.519a.77.77,0,0,1-.551-.1c-.284-.126-.909-.732-1.209-.538-.218.139-.206.571-.134.784a2.039,2.039,0,0,0,.906.884,3.85,3.85,0,0,1-.358,1.053c-.084.169-.189.358-.274.548a1.362,1.362,0,0,0-.232.525.6.6,0,0,0,.245.668.09.09,0,0,0,.046.029.919.919,0,0,0,.215.083c.178,0,.907-.163,1.027-.065s.063.51.2.686c.122.16.381.2.484.33s.074.067-.015.211c-.134.219-.365.334-.535.518a1.411,1.411,0,0,0-.225.438,2.683,2.683,0,0,0-.327,1.482c.037.242.218.419.26.676a2.454,2.454,0,0,1,.079.712,7.7,7.7,0,0,0-.187.881,3.861,3.861,0,0,1-.4.761l-.4.632a3.223,3.223,0,0,0-.428.934,2.8,2.8,0,0,1-.4.572c-.062.079-.382.378-.375.451.024.279.019.632.363.681a7.743,7.743,0,0,0,1.005-.028.771.771,0,0,0,.569-.317c.1-.2-.071-.426.007-.666.065-.193.252-.3.342-.474a5.1,5.1,0,0,0,.171-.76,2.829,2.829,0,0,1,.309-.5c.125-.2.249-.395.365-.6.054-.091.174-.454.257-.5a1.406,1.406,0,0,1,.717-.213l.335.506a2.315,2.315,0,0,0-.23.906l-.147,1.642a1.21,1.21,0,0,0-.328.839.785.785,0,0,1-.289.451c-.051.047-.392.272-.389.323.018.344-.039.586.352.656.255.045.526.039.783.06a.737.737,0,0,0,.59-.313,1.722,1.722,0,0,1,.029-.263.977.977,0,0,1,.26-.369c.077-.07.166-.13.237-.208.346-.381.286-1.2.354-1.682a1.94,1.94,0,0,1,.506-.862,2.009,2.009,0,0,0,.547-1.1c0,.023,1.625-.108,1.789-.119.2-.015.406-.031.608-.058.111-.015.382-.115.483-.023.138.122-.153.431-.234.559q-.314.485-.625.969a1.877,1.877,0,0,1-.023.553,1.956,1.956,0,0,1-.495.577l-.4.4c.09.357.119.5.5.525.268.021.538.029.806.043a.638.638,0,0,0,.4-.2.926.926,0,0,0,.126-.569,1.593,1.593,0,0,1,.248-.577,3.566,3.566,0,0,1,.837-1.057,8.847,8.847,0,0,0,1.222-1.256,1.369,1.369,0,0,1,.778.569,3.975,3.975,0,0,1-.125,1.536l-.447.819a5.492,5.492,0,0,1-.337.551,7.541,7.541,0,0,1-.618.594,1.3,1.3,0,0,0,.027.4c.139.417.9.3,1.258.332a.818.818,0,0,0,.59-.358c.055-.063,0-.337.021-.428a.628.628,0,0,1,.3-.378c.461-.345.248-.885.522-1.306.295-.457.95-.746,1.1-1.277a2.2,2.2,0,0,0-.031-1.085,4.358,4.358,0,0,1,.135-1.244c.057-.361-.031-.686.017-1.045a1.7,1.7,0,0,1,.507-.927.717.717,0,0,0,.232-.63,4.293,4.293,0,0,1-.063-.482A.857.857,0,0,1,364.972,176.6Z" fill="#ffc400"/>
            </g>
            <path id="Path_18810" data-name="Path 18810" d="M388.6,183.962c-.387.885-.767,1.763-1.148,2.648q-1.494,3.451-2.989,6.9c-.358.834-.716,1.663-1.08,2.5-3.247-1.231-6.352-2.177-9.559-3.2-3.034-.962-6.018-1.858-9.1-2.8.217-.885.441-1.774.66-2.665q.9-3.6,1.785-7.214c.235-.924.465-1.853.694-2.781a97.456,97.456,0,0,1,10.976,2.91A103.243,103.243,0,0,1,388.6,183.962Z" fill="#fff"/>
            <path id="Path_18811" data-name="Path 18811" d="M387.451,186.61q-1.494,3.451-2.989,6.9c-3.123-1.242-6.313-2.389-9.525-3.426-3.13-1.019-6.308-1.97-9.549-2.737q.9-3.6,1.785-7.214c1,.223,5.849,1.354,10.511,2.877C381.831,184.354,385.923,185.989,387.451,186.61Z" fill="#e60000"/>
            <path id="Path_18812" data-name="Path 18812" d="M385.826,187.46a22.352,22.352,0,0,1-2.822-.223,18.944,18.944,0,0,1-2.55-.594,2.7,2.7,0,0,0-1.064-1.114c-2.258-1.239-4.418.157-8.5-2.15a1.457,1.457,0,0,1-.253-.126c-.078-.067-.056-.059-.075-.177s0-.391-.081-.486c-.064-.074-.141-.055-.237-.056-.216,0-.433,0-.648,0a2.529,2.529,0,0,0-.887.041c-.225.091-.36.3-.558.428-.09.06-.719.346-.719.423,0,.247-.075.567.52.692.345,0,1.385.1,1.459.124a.648.648,0,0,1,.223.494v.522c0,.154-1.272.137-1.385.133a3.67,3.67,0,0,1-.782-.105c-.124-.034-.52-.132-.527.1-.005.15.26.218.37.257a3.546,3.546,0,0,0,.7.273,3.477,3.477,0,0,0,.445.011c.51,0,1.02,0,1.53.024.074,0,.248.323.223.472a3.742,3.742,0,0,1-.984.325,9.483,9.483,0,0,1-.967.1c-.122.007-.372-.019-.407.148-.024.116.109.216.2.243l.345.1c.324,0,1.065-.248,1.536-.273a7.819,7.819,0,0,1,2.714-.211,3.294,3.294,0,0,1,1.33.333,10.3,10.3,0,0,0,1.636.672,5.341,5.341,0,0,0,.9.167c.173.018.577-.061.7.1.093.127.065.562-.117.593a1.573,1.573,0,0,1-.342-.017c-.319-.022-.627-.129-.94-.149-.163-.01-.492-.008-.476.228.017.295.837.355,1.055.406l.789.178.767.024a1.811,1.811,0,0,0,.792-.669l.273-.049a4.387,4.387,0,0,0,1.882.816c.569.051.569.175.816.595a1.6,1.6,0,0,1,.122.93c-.022.125-.185.34-.178.442.01.14.236.23.35.228.521-.015.4-.641.4-.973a3.726,3.726,0,0,0,0-.883c-.079-.319-.3-.382-.544-.568a3.3,3.3,0,0,1-.635-.63c-.022-.03-.333-.541-.281-.551.642-.123,2.054.643,3.341.594a2.232,2.232,0,0,0,1.758-.594C386.271,187.831,386.271,187.609,385.826,187.46Z"/>
          </g>
        </g>
      </g>
    </g>
  </g>
</svg>
