<svg xmlns="http://www.w3.org/2000/svg" xmlns:xlink="http://www.w3.org/1999/xlink" width="419.51" height="289.166" viewBox="0 0 419.51 289.166">
  <defs>
    <linearGradient id="linear-gradient" y1="0.5" x2="1" y2="0.5" gradientUnits="objectBoundingBox">
      <stop offset="0" stop-color="#dab264"/>
      <stop offset="0.482" stop-color="#be895f"/>
      <stop offset="1" stop-color="#996a45"/>
    </linearGradient>
    <clipPath id="clip-path">
      <path id="Path_11127" data-name="Path 11127" d="M896.647,377.1a1819.435,1819.435,0,0,0-378.629,0,593.032,593.032,0,0,0,0,256.628,1823.384,1823.384,0,0,0,189.315,9.877,1823.365,1823.365,0,0,0,189.314-9.877,593.031,593.031,0,0,0,0-256.628Z" fill="none"/>
    </clipPath>
  </defs>
  <g id="Group_5347" data-name="Group 5347" transform="translate(-497.578 -361.53)">
    <path id="Path_10434" data-name="Path 10434" d="M707.325,650.7a1837.529,1837.529,0,0,1-189.978-9.912L512.8,640.3l-1.016-4.459a599.435,599.435,0,0,1,0-259.465l1.016-4.459,4.546-.479a1825.521,1825.521,0,0,1,379.971,0l4.547.479,1.016,4.459a599.434,599.434,0,0,1,0,259.465l-1.016,4.459-4.547.479A1837.493,1837.493,0,0,1,707.341,650.7Z" fill="url(#linear-gradient)"/>
    <g id="Group_5346" data-name="Group 5346">
      <g id="Group_5345" data-name="Group 5345" clip-path="url(#clip-path)">
        <g id="Group_5344" data-name="Group 5344">
          <path id="Path_11098" data-name="Path 11098" d="M1068.645,652.409V359.817H346.021V652.409Z" fill="#00a133"/>
          <g id="Group_5343" data-name="Group 5343">
            <path id="Path_11099" data-name="Path 11099" d="M597.554,460.622c7.481.687,3.361-12.7,6.049-15.121.518-1.183,1.468-1.183,1.542.307,0,13.148-1.038,14.791,4.264,16.873,5.219-.347,4.014.789,4.95,21.474,0,0,4.573,1.361,4.791-11.015.225-8.14-2.949-18.754,2.568-15.5,1.958,1.372,2.835,3.052,5.862,2.366,4.64-1.313,7.392-3.491,7.467-7.1-.715-9.345-3.1-12.052-2.763-12.943.825,1.313,2.067,1.183,2.346,0-2.192-7.482-7.538-9.031-8.919-4.236-.765,7.246,5.72,10.416,4.751,16.375a3.012,3.012,0,0,1-3.787-.745c-7.671-5.79-.933-2.266-4.022-12.14-.373-2.367-1.544-3.171-2.447-4.732-3.513-4.051-4.879,5.952-2.458,11.583.829,2.484,2.148,4.035,1.544,4.035-.518,1.432-1.556,1.064-2.319-.557-1.735-5.344-.785-18.386-3.827-20.977-1.121-1.492-2.8-.745-3.393.685-.368,9.225.331,5.64,2.47,21.168.16,6.165-3.544,2.674-3.389-.438,3.709-16.6-6.66-19.715-8.994.557-.431,2.8-2.286,4.791-3.572-.438-1.153-3.8-1.826-13.122-3.71-10.945C592.033,446.436,591.366,459.321,597.554,460.622Z" fill="#fff"/>
            <path id="Path_11100" data-name="Path 11100" d="M608.834,465.911c-6.144.13-15.181,8.093-15.451,12.518,6.5-3.112,12.915-6.1,19.526-9.395C611.827,467.473,612.85,466.041,608.834,465.911Z" fill="#fff"/>
            <path id="Path_11101" data-name="Path 11101" d="M642.832,489.812c2.752-9.261-.213-14.828,1.024-16.482,3.359,3.538,7.933.426,8.962-.757a1.547,1.547,0,0,1,2.3-.249c2.555,1.87,7.069,1.006,8-2.236a75.042,75.042,0,0,0,1.118-9.9c-1.71.509-3.047.935-3.579,1.5-.678.677-.172,3.25-1.082,3.8a1.1,1.1,0,0,1-1.682-.746c-.779-3.55-4.046-4.118-6.039,1.491-1.367,1.112-3.763,1.3-4.032-.249.344-3.8-1.192-4.295-4.23-2.555-4.316-33.407-3.261-17.8.651-22.529-.424-1.321-4.035-12.636-5.428-12.636-1.209-1.209-5.646.393-4.886,4.485,1.884,11.453,3.082,20.16,4.966,31.555.328,1.372-.825,3.112-2.257,2.981-2.475-1.68-3.082-5.1-7.282-4.91-3.048.059-6.517,3.361-6.973,6.532a16.66,16.66,0,0,0,0,7.466c2.17,2.614,4.76,2.307,6.973,1.75,1.833-.757,3.375-2.626,4.032-2.188,2.741,5.164-15.5,19.495-20.538,9.9-1.385-2.745.11-13.074-3.345-10.708-10.285,26.516,24.051,30.248,27.893,1.124.368-1.18,1.858-2.4,2.053-.379-.795,26.326-26.542,28.072-30.911,19.854-1.118-1.988-1.431-6.282-1.541-8.9-.669-5.321-3.366-3.128-3.813,1.929C598.731,517.9,637.048,508.21,642.832,489.812Zm-12.855-17.985c-.386.64-5.461.58-2.532-2.674C630.261,467.1,631.321,471.827,629.977,471.827Z" fill="#fff"/>
            <path id="Path_11102" data-name="Path 11102" d="M645.8,448.234c7.7,0,5.32,3.866,19.118-11.938-1.1-1.006-2.606-1.561-1.478-2.555,3.36-2,1.32-8.81-4.856-5.916a4.521,4.521,0,0,0-.776,5.916c1.308.555,2.616,1.928,1.732,2.614C655.6,440.554,645.8,447.094,645.8,448.234Zm14.654-17.606c.605-.058,1.307.556,1.664,1.3.892,1.88-1.177,2.676-2.223.568C659.405,431.391,659.955,430.628,660.459,430.628Z" fill="#fff"/>
            <path id="Path_11103" data-name="Path 11103" d="M596.873,498.65c-2.638,5.326-3.007-2.878-2-10.082.408-2.555,0-1.8-.8-.745-4.481,7.159-4.7,20.818,2.2,18.547,2.287-.994,3.309-5.662,2.754-7.342C598.255,497.78,597.649,497.6,596.873,498.65Z" fill="#fff"/>
            <path id="Path_11104" data-name="Path 11104" d="M730,454.467a244.212,244.212,0,0,1,1.657,44.685c1.788,0,4.651-2.928,5.651-7.223.608-5.513-.4-24.921-.5-26.781,4.642,7.578,9.142,15.587,13.561,24.414,1.622-.744,1.285-9.772.321-11.074A217.115,217.115,0,0,0,735.934,453.1c-.423-4.818-.869-8.861-1.157-10.083-.745-5.1,2.071.556,1.672-2.426-.9-5.041-3.707-8.472-7.02-13.133-1.061-1.491-1.011-1.81-2.679.367-2.357,5.363,1.326,8.035-2.426,3.49-2.964-2.543-9.2-8.554-10-4.413C713.425,434.3,714.881,431.773,730,454.467Zm-3.307-17.929c1.531,7.011,1.262,4.618-1.087,1.935C723.456,435.937,725.641,436.829,726.689,436.538Z" fill="#fff"/>
            <path id="Path_11105" data-name="Path 11105" d="M751.708,491.929c-4.134,4.361-10.1,9.649-16.553,12.075-.715.745,1.693,4.171,4.853,4.105,10.783-1.154,17.292-15.694,17.378-20.036.734-34.141-4.881-44.376-3.4-47.116.343-.437,1.5,0,2.1-.993.914-.934-2.367-8.531-4.236-11.454-.665-1.3-.906-2.177-2.009.131a16.666,16.666,0,0,0-1.834,8.341c2.506,17.3,3.266,32.551,4.931,49.847C753.046,488.51,752.826,490.994,751.708,491.929Z" fill="#fff"/>
            <path id="Path_11106" data-name="Path 11106" d="M820.3,439.348c.357-.816,2.059.119,2.632-.875.933-.875-4.392-7.786-6.285-10.708-.642-1.3-.873-2.177-1.973.19-8.282,13.085,20.3,74.447-8.581,75.924-3.793,2.177-3.793,4.727-.716,4.792,5.259-.621,11.474-1.059,15.768-7.53C828.389,489.582,820.071,439.778,820.3,439.348Z" fill="#fff"/>
            <path id="Path_11107" data-name="Path 11107" d="M781.084,462.622c.029-2.438.249-5.609.4-7.655.3-3.448,2.92-.545,2.967-1.811-.647-8.466-5.659-6.3-6.221-3.419,0,.655,1.531,4.247-1.583,2.732.04-.034-.354-3.4-4.094-1.052a5.128,5.128,0,0,0-.278,3.916C773.723,458.019,778.7,462.551,781.084,462.622Z" fill="#fff"/>
            <path id="Path_11108" data-name="Path 11108" d="M790.014,452.419c.745,9.672.968,18.561,1.727,28.246-.129,4.106-1.386,9.644-2.644,10.14-5.321,3.341-6.488-11.178-11.9-6.034-6.03,5.822-6.447,19.9-12.046,14.381-5.041-6.844-2.082-16.617-2.724-14.132-8.616,9.741,3.914,28.041,9.823,20.853,2.612-2.739,2.674-9.649,3.888-11.015.884-2.55,3.028-2.113,4.093-1a10.949,10.949,0,0,0,3.748,3.243,6.312,6.312,0,0,0,8.261.556C798.4,494.39,797.806,487.8,797,462q2.769,3.9,5.49,7.928a198.757,198.757,0,0,1,.931,24.869c-.219,1.561,5.538-4.793,5.478-7.774-.036-2.624.009-5,.018-7.214,2.778,4.434,5.472,8.936,8.009,13.5,1.586-.745,1.045-9.773.064-11.015-13.143-22.238-6.46-3.6-10.288-25.025-4.224-22.318-1.846-13.58-.367-16.422.884-.935-2.974-10.957-4.967-13.82-.681-1.314-1.994-.875-3.543,1.242-2.525,2.292.29,7.169,3.41,30.542-10.308-15.292-5.209-6.1-7.4-18.722-.158-1.658.686-.2,1.556.071.651.119,1.249-.994.86-2.058-6.018-11.091-6.611-13.179-8.048-11.134a4.431,4.431,0,0,0-1.494,3.359c.733,10.494,1.679,9.713.355,8.33-5.224-5.406,2.4-.864-.973-5.158a41.446,41.446,0,0,0-6.182-5.976c-1.213-.745-1.973-2.306-2.375.249C776.8,438.365,776.166,433.991,790.014,452.419Z" fill="#fff"/>
            <path id="Path_11109" data-name="Path 11109" d="M788.441,571.836C777.67,573.159,623,570.1,622.96,570.1c8.567,12.523,15.89,8.531,141.722,8.531-1.858,3.295.825,12.115,4.465,6.97,2.416.183,16.242.367,17.537-.072.852,1.255,1.727,2.431,3.343,2.249,2.848-.628,5.089-.935,5.185-6.721C795.212,581.053,794.913,571.221,788.441,571.836Zm-2.813,10.517c0,.146-15.359-.136-16.852-.247-.911-1.134-.319-2.922.266-2.922,5.662.248,11.017.059,16.737.307A2.072,2.072,0,0,1,785.628,582.353Z" fill="#fff"/>
            <path id="Path_11110" data-name="Path 11110" d="M673.867,454.836c5.314,2.093,5.828-16.257,8.045-11.819-.12,8.341.6,10.21,2.722,12.7,4.777,3.668,8.729.5,9.007.118,3.34-2.652,4.049-5.651,6.821-3.8,1.1,1.006.965,2.8,3.39,3.988,2.018.876,6.377.248,7.406-1.551,1.367-2.307,1.66-3.111,2.287-3.987.994-1.313,2.627-.745,2.627-.307-.142.745-1.072,1.431-.465,2.732,2.569,1.906,5.332-3.274,6.378-6.281.135-3.357-2.64-.669-3.642-.06-1.166.118-3.466.935-4.573-.817-1.18-2.118-1.18-5.1-2.085-7.217,0-.118-1.524-3.3-.092-3.549,4.655.869,2.255-4.092-.749-7.348-1.43-1.55-3.394-1.739-5.259-.177-1.306,1.183-1.139,2.614-1.4,3.857-1.023,4.649,5.44,8.6,4.187,15.866a4.4,4.4,0,0,1-3.864,1.988c-5.84-1.388-2.316-17.512-5.493-22.267-.76-2-1.293-3.928-3.141-.509-.527,1.313-2.615,3.3-1.088,7.406,1.242,2.616,1.774,6.792,1.176,11.513-1.947,3.126-3.259,5.493-6.889,3.8a5.075,5.075,0,0,1-2.8-3.916c.08-4.3.3-11.265-.461-12.767-1.118-2.355-3.035-1.491-3.828-.8-7.487,6.775-6.726,21.511-10.062,15.441-1.964-1.81-2.107-16.245-4.485-13.879C663.739,444.011,669.732,455.961,673.867,454.836Z" fill="#fff"/>
            <path id="Path_11111" data-name="Path 11111" d="M730.515,478.359c.046,0,.094-.112.032-.238-1.615-.965,2.1-.667-23.414-.816a1.859,1.859,0,0,1-.731-.437c0-1.67,15.329-.109,16.118-12.069-.078-4.732-1.991-7.786-7.821-8.65-4.266.367-7.3,4.473-6.83,9.028-.19,1.171.432,3.6-.816,3.857-8.2.806-17.131,5.9-17.456,9.584-1.072,0-1.562-1.2-1.464-2.247-.449-9.274-5.078-20.282-7.622-20.718-.238,0-.669.53-1.509,1.172-4.913,5.681,6.509,14.6,4.076,28.195-2.718,5.974-8.277,11.27-13.613,14.192-5.7,1.814-7.715-1.334-7.217-3.3.048,0,9.442-5.146,13.719-14.126a15.48,15.48,0,0,0-1.929-14.945c.763-.366,2.743,1.125,3.064.19-2.289-11.6-12.6-10.469-9.968-.366.885,2.1,3.3,2.484,5.005,6.838,0,.17.576,3.344-.3,4.614-.8,2.494-10.311,9.529-10.311,9.7-.474,0,.3-5.366.3-6.341-2.238,0-4.483,9.473-4.5,9.512-7.472,5.112-15.932,8.969-20.818,14.252-2.55,3.922,17.532-4.6,19.853-5.6.486,0,.373,1.994,1.885,3.733a10.591,10.591,0,0,0,10.823,3.544c12.462-4.492,15.428-16.072,18.095-13.931,2.913,6.53,11.327,11.133,22.2,11.629,5.218-6.343-4.351-5.45-5.9-9.393-.476-1.8.707-3.421,3.147-4.663a108.9,108.9,0,0,0,20.491-3.927C727.149,484.718,728.407,480.168,730.515,478.359Zm-18.387-13.938c.447-1.8,4.935.573,3.7,2.058C714.931,467.38,712.128,465.987,712.128,464.421Zm-8.883,22.291c-7.637,2.579-3.347,6.09-4.712,7.891,0,.064-.154.255-.209.255-5.214,0-12.3-12.264-5.845-12.264,2.475.686,6.143.745,9.315,1.065C704.379,483.849,705.655,485.836,703.245,486.712Z" fill="#fff"/>
            <path id="Path_11112" data-name="Path 11112" d="M620.63,433.3c1.907.874,7.907,1.761,7.074-5.348-.5-1.255-1.957-.994-2.271.307-.106.379.16,1.066-.2,1.3-.238.188-1.045.071-1.027-1.054,0-.966-1-1.7-1.5-.745-.356.9-.014,1.391-.727,1.563-1.638,0-.21-1.737-1.668-2.06C618.209,427.268,618.328,432.327,620.63,433.3Z" fill="#fff"/>
            <path id="Path_11113" data-name="Path 11113" d="M695.854,465.177c2.57,1.171,8.664.5,7.2-3.49,0-3.865-2.084-2.879-2.426-1.62-.08.436.2,1.123-.168,1.371-.219.178-1.044,0-1.03-1.123,0-.827-.9-1.648-1.54-.686-.288,1.1-.076,1.417-.7,1.561-1.589,0-.207-1.729-1.679-2.058C693.418,459.132,693.584,464.131,695.854,465.177Z" fill="#fff"/>
            <path id="Path_11114" data-name="Path 11114" d="M739.729,451.972c2.55,1.184,7.377.628,7.167-3.478,0-.319-.074-1.561-.1-1.928-.548-1.184-1.994-.935-2.272.367-.13.378.139,1.064-.235,1.242-.182.259-1.027.13-1-1.052a2.187,2.187,0,0,0-.417-.994c-1.725-.734-.774,1.643-1.819,1.868-1.654,0-.118-1.556-1.666-2C737.206,446,737.495,451.035,739.729,451.972Z" fill="#fff"/>
            <path id="Path_11115" data-name="Path 11115" d="M741.454,435.917c.889,2.556-.681,4.981.248,5.36.89.427,2.082-2.686,2.55-5.49.533-2.295-1.082-6.9-3.369-7.832-1.42-.38-3.411.5-2.754,2.365C737.8,431.255,740.913,434.237,741.454,435.917Z" fill="#fff"/>
            <path id="Path_11116" data-name="Path 11116" d="M765.12,495.916c1.775,0,3.828-4.046,4.713-8.093.825-9.367-4.423-43.1-4.913-44.747-.873-4.662,3.471-.627,2.968-3.361-1.5-3.419-5.223-8.46-6.377-11.453-.745-1.3-.437-2.426-2.022-.307-1.432,4.792-1.965,8.648-1.418,11.7C761.849,459.321,765.712,477.246,765.12,495.916Z" fill="#fff"/>
            <path id="Path_11117" data-name="Path 11117" d="M809.632,443.265c.422,1.243-.607,5.407.248,5.785.811.438,1.913-2.862,2.323-5.916.227-1.68-.986-7.465-3.133-8.577a2.005,2.005,0,0,0-2.47,2.6C806.307,438.153,809.135,441.454,809.632,443.265Z" fill="#fff"/>
            <path id="Path_11118" data-name="Path 11118" d="M654.1,487.883c.745.254,1.8-2.106,2.207-4.354.233-1.242-.965-5.538-2.944-6.283-1.257-.249-2.922.059-2.4,1.87-.06.994,2.724,2.177,2.883,4.472C654.265,484.523,653.25,487.576,654.1,487.883Z" fill="#fff"/>
            <path id="Path_11119" data-name="Path 11119" d="M600.06,433.125c.4.994-.358,4.165.422,4.413,1.612.641,4.428-9.5-.706-11.015-1.221-.32-2.922.438-2.346,1.987C597.132,429.255,599.637,431.693,600.06,433.125Z" fill="#fff"/>
            <path id="Path_11120" data-name="Path 11120" d="M658.186,447.063c-2.286,1.171-3.146,4.851-1.723,7.028,1.288,1.8,3.4,1.124,3.667,1.124,2.317.32,6.13-7.7.994-3.053-2.1.466-1.965-2.6-1.212-4.294C660.319,446.743,659.465,446.247,658.186,447.063Z" fill="#fff"/>
            <path id="Path_11121" data-name="Path 11121" d="M675.287,433.3a3.007,3.007,0,0,0,1.4-1.988c.359-1.751-1.82.8-2.112-1.125-.467-1.8.917-2.484,2.254-4.294.029-1.183,0-1.987-1.632-1.054C670.379,428.049,670.637,435.922,675.287,433.3Z" fill="#fff"/>
            <path id="Path_11122" data-name="Path 11122" d="M690.689,434.3c3.532-9.511-.023-11.326-1.761-7.028a36.644,36.644,0,0,0-.993,6.78C687.527,435.728,689.725,436.485,690.689,434.3Z" fill="#fff"/>
            <path id="Path_11123" data-name="Path 11123" d="M787.557,462.551s-11.871,8.471-12.188,8.719c-1.162,1.054-.571,4.734,0,4.355.861.308,12.809-7.785,12.589-8.78C788.5,466.917,788.769,462.125,787.557,462.551Z" fill="#fff"/>
            <path id="Path_11124" data-name="Path 11124" d="M786.095,485.516c.8.378,2.9-2.236,2.828-5.466.233-1.691-.592-7.785-2.707-8.851A2.077,2.077,0,0,0,783.8,474c-.314.994,1.479,4.355,1.976,6.164C786.184,481.482,785.22,485.091,786.095,485.516Z" fill="#fff"/>
            <path id="Path_11125" data-name="Path 11125" d="M720.932,503.507c2.475-.935,4.063-1.929,7.545-2.68.887,0,.876-2.484-.607-2.484a7.93,7.93,0,0,0-5.516,1.62c-2.8.746-1.047-4.258-1.154-4.863a2.025,2.025,0,0,0-2.289-.426,16.716,16.716,0,0,0-3.39,2.922c-.757.541-.565,2.88,1.554,1.556,1.057-.064,1.57.622,1.46,1.865C717.89,503.166,719.438,504.366,720.932,503.507Z" fill="#fff"/>
            <path id="Path_11126" data-name="Path 11126" d="M804.343,504.376a1.514,1.514,0,0,0,.482-1.8c-.482-.556-1.556-.249-2.287-.249-.378,0-1.512-.248-.964-1.182,2.284-3.475.616-3.733-3.47-3.545-.765.184-1.029.557-1.168,1.432.045,1.366.9,1.3,1.789,1.863,1.331,1.839-.231,2.334-2.3,4.3-.379.686-.628,1.68.556,1.987C799.193,507.8,804.343,504.5,804.343,504.376Z" fill="#fff"/>
          </g>
        </g>
      </g>
    </g>
  </g>
</svg>
