<svg xmlns="http://www.w3.org/2000/svg" xmlns:xlink="http://www.w3.org/1999/xlink" viewBox="0 0 35.165 24.239">
  <defs>
    <linearGradient id="linear-gradient" y1="0.5" x2="1" y2="0.5" gradientUnits="objectBoundingBox">
      <stop offset="0" stop-color="#dab264"/>
      <stop offset="0.482" stop-color="#be895f"/>
      <stop offset="1" stop-color="#996a45"/>
    </linearGradient>
    <clipPath id="clip-path">
      <path id="Path_5326" data-name="Path 5326" d="M751.286,577.349a152.507,152.507,0,0,0-31.738,0,49.714,49.714,0,0,0,0,21.512,152.507,152.507,0,0,0,31.738,0,49.714,49.714,0,0,0,0-21.512Z" transform="translate(-718.37 -576.521)" fill="none"/>
    </clipPath>
  </defs>
  <g id="Group_3276" data-name="Group 3276" transform="translate(-709.313 -567.463)">
    <path id="Path_3574" data-name="Path 3574" d="M726.895,591.7a154.011,154.011,0,0,1-15.925-.831l-.381-.04-.085-.374a50.252,50.252,0,0,1,0-21.75l.085-.374.381-.04a153.039,153.039,0,0,1,31.851,0l.381.04.085.374a50.252,50.252,0,0,1,0,21.75l-.085.374-.381.04a154.012,154.012,0,0,1-15.925.831Z" fill="url(#linear-gradient)"/>
    <g id="Group_3275" data-name="Group 3275" transform="translate(709.849 567.999)">
      <g id="Group_3274" data-name="Group 3274" transform="translate(0 0)" clip-path="url(#clip-path)">
        <g id="Group_3273" data-name="Group 3273" transform="translate(-2.357 -1.352)">
          <path id="Path_5323" data-name="Path 5323" d="M897.167,579.547H910.1V553.676H897.167v25.871Z" transform="translate(-884.232 -553.676)" fill="#ffc400"/>
          <path id="Path_5324" data-name="Path 5324" d="M1115.8,579.547h12.936V553.676H1115.8v25.871Z" transform="translate(-1089.934 -553.676)" fill="#e60000"/>
          <path id="Path_5325" data-name="Path 5325" d="M678.536,579.547h12.935V553.676H678.536v25.871Zm19.4-17.247.968,2.979h3.133l-2.535,1.841.968,2.979-2.534-1.842L695.4,570.1l.969-2.979-2.535-1.841h3.133l.968-2.979Z" transform="translate(-678.536 -553.676)" fill="#00a133"/>
        </g>
      </g>
    </g>
  </g>
</svg>
