<svg xmlns="http://www.w3.org/2000/svg" xmlns:xlink="http://www.w3.org/1999/xlink" width="419.51" height="289.166" viewBox="0 0 419.51 289.166">
  <defs>
    <linearGradient id="linear-gradient" y1="0.5" x2="1" y2="0.5" gradientUnits="objectBoundingBox">
      <stop offset="0" stop-color="#dab264"/>
      <stop offset="0.482" stop-color="#be895f"/>
      <stop offset="1" stop-color="#996a45"/>
    </linearGradient>
    <clipPath id="clip-path">
      <path id="Path_15452" data-name="Path 15452" d="M525.647,117.1a1819.437,1819.437,0,0,0-378.629,0A576.1,576.1,0,0,0,132.97,245.417a576.1,576.1,0,0,0,14.048,128.314,1823.376,1823.376,0,0,0,189.315,9.877,1823.356,1823.356,0,0,0,189.314-9.877A576.1,576.1,0,0,0,539.7,245.417,576.1,576.1,0,0,0,525.647,117.1Z" fill="none"/>
    </clipPath>
  </defs>
  <g id="Group_6168" data-name="Group 6168" transform="translate(-126.578 -101.434)">
    <path id="Path_14624" data-name="Path 14624" d="M336.325,390.6a1837.519,1837.519,0,0,1-189.978-9.912l-4.546-.479-1.016-4.459a585.269,585.269,0,0,1-14.207-129.732,585.258,585.258,0,0,1,14.207-129.733l1.016-4.459,4.546-.479a1825.519,1825.519,0,0,1,379.971,0l4.547.479,1.016,4.459a585.316,585.316,0,0,1,14.207,129.733A585.327,585.327,0,0,1,531.881,375.75l-1.016,4.459-4.547.479A1837.485,1837.485,0,0,1,336.341,390.6Z" fill="url(#linear-gradient)"/>
    <g id="Group_6167" data-name="Group 6167">
      <g id="Group_6166" data-name="Group 6166" clip-path="url(#clip-path)">
        <g id="Group_6165" data-name="Group 6165">
          <rect id="Rectangle_1043" data-name="Rectangle 1043" width="778" height="72.017" transform="translate(20 316.163)" fill="#e60000"/>
          <rect id="Rectangle_1044" data-name="Rectangle 1044" width="778" height="140.292" transform="translate(20 175.871)" fill="#ffc400"/>
          <rect id="Rectangle_1045" data-name="Rectangle 1045" width="778" height="72.017" transform="translate(20 103.854)" fill="#e60000"/>
          <g id="Group_6164" data-name="Group 6164">
            <path id="Path_15325" data-name="Path 15325" d="M259.477,289.16a25.065,25.065,0,0,1-25.03,0,25.053,25.053,0,0,0,12.514-21.678A25.013,25.013,0,0,0,259.477,289.16Z" fill="#fff"/>
            <path id="Path_15326" data-name="Path 15326" d="M271.991,260.908v6.574a25.059,25.059,0,0,1-12.514,21.678,25.013,25.013,0,0,1-12.516-21.678v-6.574Z" fill="#e60000"/>
            <rect id="Rectangle_1046" data-name="Rectangle 1046" width="25.027" height="26.948" transform="translate(221.935 233.96)" fill="#e60000"/>
            <rect id="Rectangle_1047" data-name="Rectangle 1047" width="25.029" height="26.948" transform="translate(246.961 233.96)" fill="#fff"/>
            <g id="Group_6147" data-name="Group 6147">
              <path id="Path_15327" data-name="Path 15327" d="M246.523,200.5V201.9h-1.408A1.892,1.892,0,0,1,246.523,200.5Z" fill="#0437a0"/>
              <path id="Path_15328" data-name="Path 15328" d="M248.809,201.9H247.4V200.5A1.9,1.9,0,0,1,248.809,201.9Z" fill="#0437a0"/>
              <path id="Path_15329" data-name="Path 15329" d="M246.523,202.777v1.413a1.89,1.89,0,0,1-1.408-1.413Z" fill="#0437a0"/>
              <path id="Path_15330" data-name="Path 15330" d="M248.809,202.777a1.9,1.9,0,0,1-1.408,1.413v-1.413Z" fill="#0437a0"/>
              <path id="Path_15331" data-name="Path 15331" d="M250.738,201.907v.871H247.4v3.63a.884.884,0,0,0-.879,0v-3.63h-3.338v-.871h3.338v-3.59h.879v3.59Z" fill="#fec552"/>
            </g>
            <g id="Group_6149" data-name="Group 6149">
              <path id="Path_15332" data-name="Path 15332" d="M216.4,245.889a84.147,84.147,0,0,0-7.986,3.659l.083-8.5h7.856Z" fill="#fff"/>
              <path id="Path_15333" data-name="Path 15333" d="M212.62,264.642c-1.544.692-3.066,1.423-4.373,2.142l.043-4.454.054-5.62c.439-.239.9-.483,1.381-.722,2.135-1.073,4.593-2.132,6.742-3l.062,6.284.034,3.7C215.315,263.473,213.96,264.043,212.62,264.642Z" fill="#fff"/>
              <path id="Path_15334" data-name="Path 15334" d="M216.762,283.406h-8.677l.093-9.461a83.116,83.116,0,0,1,8.455-3.882Z" fill="#fff"/>
              <rect id="Rectangle_1048" data-name="Rectangle 1048" width="9.984" height="0.881" transform="translate(207.432 284.54)" fill="#fec552"/>
              <path id="Rectangle_1049" data-name="Rectangle 1049" d="M.223,0H10.6a.223.223,0,0,1,.223.223V.911a.223.223,0,0,1-.223.223H.224A.224.224,0,0,1,0,.911V.223A.223.223,0,0,1,.223,0Z" transform="translate(207.012 283.406)" fill="#dbaa47"/>
              <rect id="Rectangle_1050" data-name="Rectangle 1050" width="11.677" height="2.345" transform="translate(206.585 285.422)" fill="#dbaa47"/>
              <rect id="Rectangle_1051" data-name="Rectangle 1051" width="8.844" height="1.118" rx="0.22" transform="translate(208.001 239.935)" fill="#fec552"/>
              <rect id="Rectangle_1052" data-name="Rectangle 1052" width="8.844" height="1.119" rx="0.22" transform="translate(208.001 237.027)" fill="#fec552"/>
              <rect id="Rectangle_1053" data-name="Rectangle 1053" width="7.857" height="1.789" transform="translate(208.495 238.146)" fill="#dbaa47"/>
              <rect id="Rectangle_1054" data-name="Rectangle 1054" width="10.034" height="1.593" transform="translate(207.407 234.878)" fill="#fec552"/>
              <rect id="Rectangle_1055" data-name="Rectangle 1055" width="12.173" height="0.797" transform="translate(206.337 234.081)" fill="#dbaa47"/>
              <path id="Path_15335" data-name="Path 15335" d="M216.352,237.027h-7.857l-.616-.556h9.089Z" fill="#dbaa47"/>
              <path id="Path_15336" data-name="Path 15336" d="M221.935,243.764v7.124s-2.422.86-5.468,2.1c-2.149.87-4.607,1.929-6.742,3-.478.239-.942.483-1.381.722l-.148.08c-.138.075-.272.152-.4.228a17.69,17.69,0,0,0-2.2,1.436l-.13.1a.226.226,0,0,0-.021.016c-.068.057-.134.113-.2.169-.086.074-.166.151-.24.227-.034.032-.065.066-.1.1a2.839,2.839,0,0,0-.314.39v-7.124a11.766,11.766,0,0,1,3.813-2.788,84.147,84.147,0,0,1,7.986-3.659C219.477,244.638,221.935,243.764,221.935,243.764Z" fill="#e60000"/>
              <path id="Path_15337" data-name="Path 15337" d="M208.344,256.71l-.054,5.62a12.5,12.5,0,0,1-3.69-2.87,2.839,2.839,0,0,1,.314-.39c.031-.033.062-.067.1-.1.074-.076.154-.153.24-.227.061-.056.127-.112.2-.169a.226.226,0,0,1,.021-.016l.13-.1a17.69,17.69,0,0,1,2.2-1.436c.132-.076.266-.153.4-.228Z" fill="#e60000"/>
              <path id="Path_15338" data-name="Path 15338" d="M220.418,261.243v.054a.187.187,0,0,1-.008.032c-.031.1-.138.188-.349.269-.539.207-1.175.448-1.876.721-.023.011-.048.021-.07.029l-.839.331c-.23.094-.468.188-.713.289l-.034-3.7c1.128.5,2.142.93,2.924,1.258.469.195.891.444.957.678A.152.152,0,0,1,220.418,261.243Z" fill="#e60000"/>
              <path id="Path_15339" data-name="Path 15339" d="M220.421,267.447c0,.487-.2,1.212-1.354,1.656-.727.279-1.552.6-2.434.96a83.116,83.116,0,0,0-8.455,3.882,21.826,21.826,0,0,0-2.1,1.293h0A5.893,5.893,0,0,0,204.6,276.6V269.48a11.332,11.332,0,0,1,3.647-2.7c1.307-.719,2.829-1.45,4.373-2.142,1.34-.6,2.7-1.169,3.943-1.674.245-.1.483-.195.713-.289l.839-.331c.022-.008.047-.018.07-.029.7-.273,1.337-.514,1.876-.721.211-.081.318-.173.349-.269a.187.187,0,0,0,.008-.032Z" fill="#e60000"/>
              <path id="Path_15340" data-name="Path 15340" d="M206.225,279.08c.147-.96-1.625-2.476-1.625-2.476a5.893,5.893,0,0,1,1.476-1.366h0A2.619,2.619,0,0,1,206.225,279.08Z" fill="#e60000"/>
              <g id="Group_6148" data-name="Group 6148">
                <path id="Path_15341" data-name="Path 15341" d="M217.4,229.907a2.47,2.47,0,0,1-.271,1.127h-9.419a2.489,2.489,0,0,1,2.22-3.619,2.083,2.083,0,0,1,1.112.281l0,0c.107.058.21.121.323.177a2.076,2.076,0,0,0,.863.233c.06,0,.123,0,.189,0s.129,0,.186,0a2.088,2.088,0,0,0,.87-.238c.107-.054.207-.114.314-.171h.005a2.1,2.1,0,0,1,1.113-.284A2.491,2.491,0,0,1,217.4,229.907Z" fill="#e60000"/>
              </g>
              <path id="Path_15342" data-name="Path 15342" d="M217.144,231.034l0,0v0h-9.437a1.382,1.382,0,0,0-1.368-.9v.621a.8.8,0,0,1,.476.281v.577a1.427,1.427,0,0,1,.892,1.175v1.295h9.437v-1.3l0,0a1.427,1.427,0,0,1,.893-1.175v-.577a.8.8,0,0,1,.475-.281v-.621A1.384,1.384,0,0,0,217.144,231.034Z" fill="#fec552"/>
              <path id="Path_15343" data-name="Path 15343" d="M212.236,225.455v.6h-.6A.815.815,0,0,1,212.236,225.455Z" fill="#0437a0"/>
              <path id="Path_15344" data-name="Path 15344" d="M213.214,226.059h-.6v-.6A.813.813,0,0,1,213.214,226.059Z" fill="#0437a0"/>
              <path id="Path_15345" data-name="Path 15345" d="M212.236,226.433v.6a.812.812,0,0,1-.6-.6Z" fill="#0437a0"/>
              <path id="Path_15346" data-name="Path 15346" d="M213.214,226.433a.81.81,0,0,1-.6.6v-.6Z" fill="#0437a0"/>
              <path id="Path_15347" data-name="Path 15347" d="M214.042,226.059v.374h-1.431v1.676c-.057,0-.121,0-.186,0s-.129,0-.189,0v-1.676H210.8v-.374h1.431v-1.536h.375v1.536Z" fill="#dbaa47"/>
              <path id="Path_15348" data-name="Path 15348" d="M222.455,290.288a4.706,4.706,0,0,1-2.091-.433,4.634,4.634,0,0,0-3.708,0,5.261,5.261,0,0,1-4.18,0,4.632,4.632,0,0,0-3.707,0,5.261,5.261,0,0,1-4.18,0,4.134,4.134,0,0,0-1.853-.387v-.616a4.711,4.711,0,0,1,2.089.434,4.624,4.624,0,0,0,3.708,0,5.249,5.249,0,0,1,4.18,0,4.621,4.621,0,0,0,3.707,0,5.249,5.249,0,0,1,4.18,0,4.135,4.135,0,0,0,1.855.388Z" fill="#0437a0"/>
              <path id="Path_15349" data-name="Path 15349" d="M222.455,291.681a4.706,4.706,0,0,1-2.091-.433,4.635,4.635,0,0,0-3.708,0,5.26,5.26,0,0,1-4.18,0,4.632,4.632,0,0,0-3.707,0,5.26,5.26,0,0,1-4.18,0,4.134,4.134,0,0,0-1.853-.387v-.616a4.712,4.712,0,0,1,2.089.434,4.624,4.624,0,0,0,3.708,0,5.249,5.249,0,0,1,4.18,0,4.621,4.621,0,0,0,3.707,0,5.249,5.249,0,0,1,4.18,0,4.121,4.121,0,0,0,1.855.388Z" fill="#0437a0"/>
              <path id="Path_15350" data-name="Path 15350" d="M222.455,293.076a4.686,4.686,0,0,1-2.091-.436,4.645,4.645,0,0,0-3.708,0,5.228,5.228,0,0,1-4.18,0,4.643,4.643,0,0,0-3.707,0,5.228,5.228,0,0,1-4.18,0,4.149,4.149,0,0,0-1.853-.386v-.616a4.7,4.7,0,0,1,2.089.435,4.635,4.635,0,0,0,3.708,0,5.238,5.238,0,0,1,4.18,0,4.632,4.632,0,0,0,3.707,0,5.238,5.238,0,0,1,4.18,0,4.137,4.137,0,0,0,1.855.387Z" fill="#0437a0"/>
            </g>
            <g id="Group_6151" data-name="Group 6151">
              <path id="Path_15351" data-name="Path 15351" d="M277.794,245.889a84.052,84.052,0,0,1,7.987,3.659l-.082-8.5h-7.857Z" fill="#fff"/>
              <path id="Path_15352" data-name="Path 15352" d="M281.574,264.642c1.543.692,3.065,1.423,4.372,2.142l-.043-4.454-.053-5.62c-.439-.239-.9-.483-1.38-.722-2.137-1.073-4.6-2.132-6.742-3l-.061,6.284-.037,3.7C278.879,263.473,280.234,264.043,281.574,264.642Z" fill="#fff"/>
              <path id="Path_15353" data-name="Path 15353" d="M277.432,283.406h8.677l-.093-9.461a83.014,83.014,0,0,0-8.455-3.882Z" fill="#fff"/>
              <rect id="Rectangle_1056" data-name="Rectangle 1056" width="9.984" height="0.881" transform="translate(286.762 285.422) rotate(180)" fill="#fec552"/>
              <path id="Rectangle_1057" data-name="Rectangle 1057" d="M.223,0H10.6a.224.224,0,0,1,.224.224V.911a.223.223,0,0,1-.223.223H.224A.224.224,0,0,1,0,.911V.223A.223.223,0,0,1,.223,0Z" transform="translate(287.183 284.54) rotate(180)" fill="#dbaa47"/>
              <rect id="Rectangle_1058" data-name="Rectangle 1058" width="11.677" height="2.345" transform="translate(287.609 287.767) rotate(180)" fill="#dbaa47"/>
              <rect id="Rectangle_1059" data-name="Rectangle 1059" width="8.844" height="1.118" rx="0.22" transform="translate(286.192 241.053) rotate(180)" fill="#fec552"/>
              <rect id="Rectangle_1060" data-name="Rectangle 1060" width="8.844" height="1.119" rx="0.22" transform="translate(286.192 238.146) rotate(180)" fill="#fec552"/>
              <rect id="Rectangle_1061" data-name="Rectangle 1061" width="7.857" height="1.789" transform="translate(285.699 239.935) rotate(180)" fill="#dbaa47"/>
              <rect id="Rectangle_1062" data-name="Rectangle 1062" width="10.034" height="1.593" transform="translate(286.787 236.471) rotate(180)" fill="#fec552"/>
              <rect id="Rectangle_1063" data-name="Rectangle 1063" width="12.173" height="0.797" transform="translate(287.858 234.878) rotate(180)" fill="#dbaa47"/>
              <path id="Path_15354" data-name="Path 15354" d="M277.842,237.027H285.7l.616-.556h-9.089Z" fill="#dbaa47"/>
              <path id="Path_15355" data-name="Path 15355" d="M272.259,243.764v7.124s2.421.86,5.469,2.1c2.147.87,4.605,1.929,6.742,3,.478.239.941.483,1.38.722l.148.08c.137.075.273.152.4.228a17.668,17.668,0,0,1,2.195,1.436c.046.035.089.07.132.1a.2.2,0,0,1,.02.016c.068.057.133.113.2.169.086.074.165.151.239.227.033.032.066.066.1.1a2.986,2.986,0,0,1,.313.39v-7.124a11.778,11.778,0,0,0-3.813-2.788,84.052,84.052,0,0,0-7.987-3.659C274.718,244.638,272.259,243.764,272.259,243.764Z" fill="#e60000"/>
              <path id="Path_15356" data-name="Path 15356" d="M285.85,256.71l.053,5.62a12.492,12.492,0,0,0,3.691-2.87,2.986,2.986,0,0,0-.313-.39c-.031-.033-.064-.067-.1-.1-.074-.076-.153-.153-.239-.227-.063-.056-.128-.112-.2-.169a.2.2,0,0,0-.02-.016c-.043-.035-.086-.07-.132-.1a17.668,17.668,0,0,0-2.195-1.436c-.131-.076-.267-.153-.4-.228Z" fill="#e60000"/>
              <path id="Path_15357" data-name="Path 15357" d="M273.776,261.243v.054c0,.011.006.021.008.032.03.1.137.188.349.269.539.207,1.176.448,1.875.721.025.011.049.021.072.029l.837.331c.232.094.47.188.713.289l.037-3.7c-1.129.5-2.143.93-2.927,1.258-.468.195-.891.444-.956.678A.223.223,0,0,0,273.776,261.243Z" fill="#e60000"/>
              <path id="Path_15358" data-name="Path 15358" d="M273.774,267.447c0,.487.2,1.212,1.354,1.656.726.279,1.552.6,2.433.96a83.014,83.014,0,0,1,8.455,3.882,21.944,21.944,0,0,1,2.1,1.293h0a5.911,5.911,0,0,1,1.476,1.366V269.48a11.339,11.339,0,0,0-3.648-2.7c-1.307-.719-2.829-1.45-4.372-2.142-1.34-.6-2.7-1.169-3.944-1.674-.243-.1-.481-.195-.713-.289l-.837-.331c-.023-.008-.047-.018-.072-.029-.7-.273-1.336-.514-1.875-.721-.212-.081-.319-.173-.349-.269,0-.011-.006-.021-.008-.032Z" fill="#e60000"/>
              <path id="Path_15359" data-name="Path 15359" d="M287.97,279.08c-.149-.96,1.624-2.476,1.624-2.476a5.911,5.911,0,0,0-1.476-1.366h0A2.619,2.619,0,0,0,287.97,279.08Z" fill="#e60000"/>
              <g id="Group_6150" data-name="Group 6150">
                <path id="Path_15360" data-name="Path 15360" d="M276.789,229.907a2.482,2.482,0,0,0,.271,1.127h9.42a2.489,2.489,0,0,0-2.22-3.619,2.08,2.08,0,0,0-1.112.281l0,0c-.107.058-.209.121-.323.177a2.071,2.071,0,0,1-.863.233c-.06,0-.122,0-.189,0s-.129,0-.186,0a2.1,2.1,0,0,1-.871-.238c-.105-.054-.207-.114-.314-.171h0a2.1,2.1,0,0,0-1.114-.284A2.492,2.492,0,0,0,276.789,229.907Z" fill="#e60000"/>
              </g>
              <path id="Path_15361" data-name="Path 15361" d="M277.051,231.034v0h9.436a1.385,1.385,0,0,1,1.37-.9v.621a.8.8,0,0,0-.476.281v.577a1.428,1.428,0,0,0-.894,1.175v1.295h-9.436v-1.295a1.428,1.428,0,0,0-.894-1.175v-.577a.8.8,0,0,0-.476-.281v-.621A1.388,1.388,0,0,1,277.051,231.034Z" fill="#fec552"/>
              <path id="Path_15362" data-name="Path 15362" d="M281.958,225.455v.6h.6A.81.81,0,0,0,281.958,225.455Z" fill="#0437a0"/>
              <path id="Path_15363" data-name="Path 15363" d="M280.979,226.059h.6v-.6A.816.816,0,0,0,280.979,226.059Z" fill="#0437a0"/>
              <path id="Path_15364" data-name="Path 15364" d="M281.958,226.433v.6a.807.807,0,0,0,.6-.6Z" fill="#0437a0"/>
              <path id="Path_15365" data-name="Path 15365" d="M280.979,226.433a.813.813,0,0,0,.6.6v-.6Z" fill="#0437a0"/>
              <path id="Path_15366" data-name="Path 15366" d="M280.152,226.059v.374h1.431v1.676c.057,0,.12,0,.186,0s.129,0,.189,0v-1.676h1.43v-.374h-1.43v-1.536h-.375v1.536Z" fill="#dbaa47"/>
              <path id="Path_15367" data-name="Path 15367" d="M271.739,290.288a4.706,4.706,0,0,0,2.091-.433,4.632,4.632,0,0,1,3.707,0,5.261,5.261,0,0,0,4.18,0,4.634,4.634,0,0,1,3.708,0,5.261,5.261,0,0,0,4.18,0,4.127,4.127,0,0,1,1.853-.387v-.616a4.711,4.711,0,0,0-2.089.434,4.623,4.623,0,0,1-3.708,0,5.249,5.249,0,0,0-4.18,0,4.621,4.621,0,0,1-3.707,0,5.252,5.252,0,0,0-4.181,0,4.134,4.134,0,0,1-1.854.388Z" fill="#0437a0"/>
              <path id="Path_15368" data-name="Path 15368" d="M271.739,291.681a4.706,4.706,0,0,0,2.091-.433,4.632,4.632,0,0,1,3.707,0,5.26,5.26,0,0,0,4.18,0,4.634,4.634,0,0,1,3.708,0,5.26,5.26,0,0,0,4.18,0,4.127,4.127,0,0,1,1.853-.387v-.616a4.712,4.712,0,0,0-2.089.434,4.623,4.623,0,0,1-3.708,0,5.25,5.25,0,0,0-4.18,0,4.621,4.621,0,0,1-3.707,0,5.252,5.252,0,0,0-4.181,0,4.119,4.119,0,0,1-1.854.388Z" fill="#0437a0"/>
              <path id="Path_15369" data-name="Path 15369" d="M271.739,293.076a4.686,4.686,0,0,0,2.091-.436,4.643,4.643,0,0,1,3.707,0,5.228,5.228,0,0,0,4.18,0,4.645,4.645,0,0,1,3.708,0,5.228,5.228,0,0,0,4.18,0,4.142,4.142,0,0,1,1.853-.386v-.616a4.7,4.7,0,0,0-2.089.435,4.634,4.634,0,0,1-3.708,0,5.238,5.238,0,0,0-4.18,0,4.632,4.632,0,0,1-3.707,0,5.241,5.241,0,0,0-4.181,0,4.135,4.135,0,0,1-1.854.387Z" fill="#0437a0"/>
            </g>
            <rect id="Rectangle_1064" data-name="Rectangle 1064" width="33.113" height="1.34" transform="translate(230.406 232.62)" fill="#9a0133"/>
            <path id="Path_15370" data-name="Path 15370" d="M268.8,221.074a6.237,6.237,0,0,1-.539,2.156,1.083,1.083,0,1,0-1.134,1.721,6.443,6.443,0,0,1-1.2,1.026l.014-.1H227.983l.014.1a6.5,6.5,0,0,1-1.2-1.028,1.083,1.083,0,1,0-1.134-1.723,6.233,6.233,0,0,1-.541-2.154,6.415,6.415,0,0,1,7.311-6.79,7.994,7.994,0,0,1,.951-1.055,1.255,1.255,0,0,0,.4.651,1.431,1.431,0,0,1,1.514.168A1.308,1.308,0,0,0,235.6,212a1.088,1.088,0,0,0-.172-.153,7.981,7.981,0,0,1,8.736,1.319,4.091,4.091,0,0,0,.924.634.516.516,0,0,0,0,.078,1.876,1.876,0,1,0,3.751,0,.414.414,0,0,0-.005-.078,4.058,4.058,0,0,0,.926-.634,7.978,7.978,0,0,1,8.734-1.319,1.237,1.237,0,0,0-.172.153,1.312,1.312,0,0,0,.311,2.052,1.427,1.427,0,0,1,.892-.311,1.407,1.407,0,0,1,.622.143,1.265,1.265,0,0,0,.4-.651,8.127,8.127,0,0,1,.95,1.055,6.414,6.414,0,0,1,7.31,6.79Z" fill="#e60000"/>
            <path id="Path_15371" data-name="Path 15371" d="M265.942,225.882l-.014.095-1.012,6.643H229.009L228,225.979l-.014-.1Z" fill="#fec552"/>
            <path id="Path_15372" data-name="Path 15372" d="M250.958,221.678s.429.943.542,1.328c0,0-1.04.52-3.784-1.411a1.083,1.083,0,1,0-1.51,0c-2.742,1.931-3.784,1.411-3.784,1.411.114-.385.543-1.328.543-1.328-.474-.016-1.176-1.156-1.176-1.156.136-.387,1.288-1.289,1.288-1.289-.541-.315-.5-1.469-.5-1.469,1.018-.107,2.836,1.134,3.051,1.284-1.7-1.262-1.584-3.98-1.584-3.98s1.288.009,1.468,0a1.872,1.872,0,0,0,2.892,0c.178.009,1.467,0,1.467,0s.113,2.718-1.583,3.98c.215-.15,2.032-1.391,3.05-1.284,0,0,.045,1.154-.5,1.469,0,0,1.154.9,1.289,1.289C252.134,220.522,251.432,221.662,250.958,221.678Z" fill="#fec552"/>
            <path id="Path_15373" data-name="Path 15373" d="M234.057,229.61a1.1,1.1,0,0,1-.075.4,1.084,1.084,0,0,1-1.008.689,1.058,1.058,0,0,1-.565-.16,1.083,1.083,0,1,1,1.648-.926Z" fill="#fff"/>
            <path id="Path_15374" data-name="Path 15374" d="M242.873,229.61a1.1,1.1,0,0,1-.075.4,1.084,1.084,0,0,1-1.008.689,1.054,1.054,0,0,1-.564-.16,1.083,1.083,0,1,1,1.647-.926Z" fill="#fff"/>
            <path id="Path_15375" data-name="Path 15375" d="M259.866,229.61a1.059,1.059,0,0,0,.076.4,1.08,1.08,0,0,0,1.007.689,1.054,1.054,0,0,0,.564-.16,1.083,1.083,0,1,0-1.647-.926Z" fill="#fff"/>
            <path id="Path_15376" data-name="Path 15376" d="M251.05,229.61a1.058,1.058,0,0,0,.076.4,1.08,1.08,0,0,0,1.007.689,1.054,1.054,0,0,0,.564-.16,1.083,1.083,0,1,0-1.647-.926Z" fill="#fff"/>
            <path id="Path_15377" data-name="Path 15377" d="M238.532,222.1s.41.8.528,1.125c0,0-1.011.5-3.17-.8a1.054,1.054,0,0,0,.077-.4,1.084,1.084,0,1,0-2.169,0,1.075,1.075,0,0,0,.522.924c-1.414,1.293-2.123,1.011-2.123,1.011.011-.344.158-1.211.158-1.211-.375.024-1.173-.962-1.173-.962a4.657,4.657,0,0,1,.759-1.336c-.512-.265-.737-1.429-.737-1.429.805-.184,2.477.849,2.758,1.026-1.625-1.136-2.125-4.044-2.125-4.044s1.127-.092,1.281-.117c.055.061.112.12.169.173a1.427,1.427,0,0,0,2.46-.41c.328-.025,1.147-.107,1.147-.107s.448,2.908-.763,4.306c.153-.164,1.469-1.557,2.312-1.528,0,0,.154,1.151-.247,1.505a5.482,5.482,0,0,1,1.135,1.123S238.89,222.045,238.532,222.1Z" fill="#fec552"/>
            <path id="Path_15378" data-name="Path 15378" d="M255.392,222.1s-.41.8-.529,1.125c0,0,1.012.5,3.169-.8a1.085,1.085,0,1,1,2.094-.4,1.079,1.079,0,0,1-.521.924c1.413,1.293,2.121,1.011,2.121,1.011-.01-.344-.159-1.211-.159-1.211.376.024,1.175-.962,1.175-.962a4.7,4.7,0,0,0-.76-1.336c.511-.265.736-1.429.736-1.429-.8-.184-2.475.849-2.756,1.026,1.625-1.136,2.125-4.044,2.125-4.044s-1.128-.092-1.283-.117a2.113,2.113,0,0,1-.168.173,1.426,1.426,0,0,1-2.459-.41c-.33-.025-1.147-.107-1.147-.107s-.448,2.908.763,4.306c-.154-.164-1.469-1.557-2.313-1.528,0,0-.153,1.151.246,1.505a5.508,5.508,0,0,0-1.134,1.123S255.032,222.045,255.392,222.1Z" fill="#fec552"/>
            <g id="Group_6152" data-name="Group 6152">
              <path id="Path_15379" data-name="Path 15379" d="M224.715,260.908v18.049a24.91,24.91,0,0,1-2.78-11.475v-6.574Z" fill="#fec552"/>
              <path id="Path_15380" data-name="Path 15380" d="M227.5,260.908v22.306a25.039,25.039,0,0,1-2.782-4.257V260.908Z" fill="#e60000"/>
              <path id="Path_15381" data-name="Path 15381" d="M230.277,260.908v25.228a25.094,25.094,0,0,1-2.78-2.922V260.908Z" fill="#fec552"/>
              <path id="Path_15382" data-name="Path 15382" d="M233.057,260.908V288.3a25.225,25.225,0,0,1-2.78-2.159V260.908Z" fill="#e60000"/>
              <path id="Path_15383" data-name="Path 15383" d="M235.839,260.908v27.384q-.68.457-1.392.868c-.472-.274-.937-.563-1.39-.865V260.908Z" fill="#fec552"/>
              <path id="Path_15384" data-name="Path 15384" d="M238.619,260.908v25.225a25.053,25.053,0,0,1-2.78,2.159V260.908Z" fill="#e60000"/>
              <path id="Path_15385" data-name="Path 15385" d="M241.4,260.908v22.3a24.426,24.426,0,0,1-1.768,1.968c-.328.328-.664.647-1.012.955V260.908Z" fill="#fec552"/>
              <path id="Path_15386" data-name="Path 15386" d="M244.181,260.908v18.049a24.845,24.845,0,0,1-2.782,4.253v-22.3Z" fill="#e60000"/>
              <path id="Path_15387" data-name="Path 15387" d="M246.961,260.908v6.574a24.91,24.91,0,0,1-2.78,11.475V260.908Z" fill="#fec552"/>
            </g>
            <path id="Path_15388" data-name="Path 15388" d="M250.392,285.053a3.3,3.3,0,0,1-3.029,3.285c-.087.006-.175.01-.266.01s-.176,0-.265-.01a3.3,3.3,0,1,1,3.56-3.285Z" fill="#dbaa47"/>
            <path id="Path_15389" data-name="Path 15389" d="M251.874,287.372c-.883.024-3.831,2.2-4.511,2.7v-1.739c-.087.006-.175.01-.266.01s-.176,0-.265-.01v1.739c-.678-.509-3.627-2.681-4.51-2.7-1-.027-2.842.342-2.92.236,0,0,1.615,2.261,3.268,2.208,1.622-.052,1.549-1.09,4.162.667v1.254h.531v-1.254c2.615-1.757,2.54-.719,4.163-.667,1.652.053,3.269-2.208,3.269-2.208C254.715,287.714,252.873,287.345,251.874,287.372Z" fill="#058139"/>
            <path id="Path_15390" data-name="Path 15390" d="M249.116,263.063v4.419a22.854,22.854,0,0,0,10.19,19.035l.171.115.171-.115a23.187,23.187,0,0,0,3.489-2.862,22.719,22.719,0,0,0,6.7-16.173v-4.419Zm10.668.614h8.988l-8.988,8.773Zm-.615,8.773-8.988-8.773h8.988Zm-9.437-8.35,8.97,8.755h-8.314a22.306,22.306,0,0,1-.656-5.373Zm9.006,9.371-5.748,5.61a22.2,22.2,0,0,1-2.439-5.61Zm-5.411,6.142,5.842-5.7v11.762A22.284,22.284,0,0,1,253.327,279.613Zm9.375,3.606a22.412,22.412,0,0,1-2.918,2.451V273.911l5.845,5.7A22.456,22.456,0,0,1,262.7,283.219Zm-2.487-9.748h8.2a22,22,0,0,1-2.444,5.613Zm8.356-.616h-8.32l8.97-8.755v3.382A22.442,22.442,0,0,1,268.571,272.855Z" fill="#fec552"/>
            <g id="Group_6161" data-name="Group 6161">
              <g id="Group_6156" data-name="Group 6156">
                <g id="Group_6153" data-name="Group 6153">
                  <path id="Path_15391" data-name="Path 15391" d="M229.847,239.935v5.747H229.8v.954h-1.311v-.954H227.44v.954h-1.314v-.954h-.716v-5.747Z" fill="#dbaa47"/>
                  <path id="Path_15392" data-name="Path 15392" d="M229.165,238.233v.8h-1.1v-.8h-.88v.8h-1.1v-.8h-1.2v1.7h5.479v-1.7Z" fill="#fec552"/>
                </g>
                <g id="Group_6154" data-name="Group 6154">
                  <path id="Path_15393" data-name="Path 15393" d="M243.486,239.935v5.747h-.716v.954h-1.314v-.954H240.4v.954h-1.311v-.954h-.043v-5.747Z" fill="#dbaa47"/>
                  <path id="Path_15394" data-name="Path 15394" d="M242.8,238.233v.8h-1.1v-.8h-.88v.8h-1.1v-.8h-1.2v1.7h5.479v-1.7Z" fill="#fec552"/>
                </g>
                <g id="Group_6155" data-name="Group 6155">
                  <path id="Path_15395" data-name="Path 15395" d="M236.667,238.037v5.575h0v1.151h-1.58v-1.151h-1.272v1.151h-1.579v-1.151h0v-5.575Z" fill="#dbaa47"/>
                  <path id="Path_15396" data-name="Path 15396" d="M235.983,236.336v.8h-1.1v-.8h-.88v.8h-1.1v-.8h-1.2v1.7h5.478v-1.7Z" fill="#fec552"/>
                </g>
              </g>
              <g id="Group_6160" data-name="Group 6160">
                <g id="Group_6157" data-name="Group 6157">
                  <rect id="Rectangle_1065" data-name="Rectangle 1065" width="5.939" height="9.917" transform="translate(225.307 247.72)" fill="#dbaa47"/>
                  <path id="Path_15397" data-name="Path 15397" d="M231.246,246.066v1.654h-6.56v-2.038h1.44v.954h1.314v-.954h1.054v.954H229.8v-.954h.692v.384Z" fill="#fec552"/>
                </g>
                <g id="Group_6158" data-name="Group 6158">
                  <rect id="Rectangle_1066" data-name="Rectangle 1066" width="5.939" height="9.917" transform="translate(237.65 247.72)" fill="#dbaa47"/>
                  <path id="Path_15398" data-name="Path 15398" d="M244.21,245.682v2.038h-6.56v-1.654h.749v-.384h.692v.954H240.4v-.954h1.054v.954h1.314v-.954Z" fill="#fec552"/>
                </g>
                <g id="Group_6159" data-name="Group 6159">
                  <rect id="Rectangle_1067" data-name="Rectangle 1067" width="6.404" height="11.571" transform="translate(231.246 246.066)" fill="#dbaa47"/>
                  <path id="Path_15399" data-name="Path 15399" d="M238.4,243.612v2.454h-7.9v-2.454h1.736v1.151h1.579v-1.151h1.272v1.151h1.58v-1.151Z" fill="#fec552"/>
                </g>
                <rect id="Rectangle_1068" data-name="Rectangle 1068" width="18.921" height="0.951" transform="translate(224.988 257.637)" fill="#fec552"/>
              </g>
              <rect id="Rectangle_1069" data-name="Rectangle 1069" width="0.933" height="2.032" transform="translate(227.163 241.578)" fill="#0437a0"/>
              <rect id="Rectangle_1070" data-name="Rectangle 1070" width="0.933" height="2.032" transform="translate(240.8 241.578)" fill="#0437a0"/>
              <rect id="Rectangle_1071" data-name="Rectangle 1071" width="0.933" height="2.034" transform="translate(233.982 239.681)" fill="#0437a0"/>
              <rect id="Rectangle_1072" data-name="Rectangle 1072" width="1.116" height="2.434" transform="translate(228.2 250.551)" fill="#0437a0"/>
              <rect id="Rectangle_1073" data-name="Rectangle 1073" width="1.116" height="2.434" transform="translate(241.163 250.551)" fill="#0437a0"/>
              <path id="Rectangle_1074" data-name="Rectangle 1074" d="M.5,0H2.035a.5.5,0,0,1,.5.5V5.527a0,0,0,0,1,0,0H0a0,0,0,0,1,0,0V.5A.5.5,0,0,1,.5,0Z" transform="translate(233.181 252.111)" fill="#0437a0"/>
            </g>
            <g id="Group_6162" data-name="Group 6162">
              <path id="Path_15400" data-name="Path 15400" d="M248.837,213.874a1.876,1.876,0,0,1-3.751,0,.516.516,0,0,1,0-.078,1.872,1.872,0,0,1,3.742,0A.414.414,0,0,1,248.837,213.874Z" fill="#fff"/>
              <path id="Path_15401" data-name="Path 15401" d="M248.59,212.2a1.518,1.518,0,0,1-.107.577,1.875,1.875,0,0,0-3.044,0,1.538,1.538,0,0,1-.108-.577,1.63,1.63,0,0,1,3.259,0Z" fill="#fff"/>
              <path id="Path_15402" data-name="Path 15402" d="M248.347,210.531a1.345,1.345,0,0,1-.146.616,1.628,1.628,0,0,0-2.48,0,1.385,1.385,0,1,1,2.626-.616Z" fill="#fff"/>
              <path id="Path_15403" data-name="Path 15403" d="M248.1,208.857a1.127,1.127,0,0,1-.205.651,1.382,1.382,0,0,0-1.867,0,1.112,1.112,0,0,1-.205-.651,1.131,1.131,0,0,1,.568-.984,1.113,1.113,0,0,1,.57-.154,1.139,1.139,0,0,1,1.139,1.138Z" fill="#fff"/>
              <path id="Path_15404" data-name="Path 15404" d="M247.857,207.185a.9.9,0,0,1-.324.688,1.131,1.131,0,0,0-.572-.154,1.113,1.113,0,0,0-.57.154.892.892,0,0,1,.131-1.465.884.884,0,0,1,.879,0A.89.89,0,0,1,247.857,207.185Z" fill="#fff"/>
            </g>
            <path id="Path_15405" data-name="Path 15405" d="M244.412,207.082a.792.792,0,0,1-1.552.222.619.619,0,0,0,.017-.155.793.793,0,0,0-.032-.224v0a.792.792,0,0,1,1.567.16Z" fill="#fff"/>
            <path id="Path_15406" data-name="Path 15406" d="M235.831,215.167a1.373,1.373,0,0,1-.084.48,1.427,1.427,0,0,1-2.46.41,1.405,1.405,0,0,1-.315-.89,1.429,1.429,0,0,1,2.859,0Z" fill="#fff"/>
            <path id="Path_15407" data-name="Path 15407" d="M235.967,212.9a1.311,1.311,0,0,1-.676,1.147,1.431,1.431,0,0,0-1.514-.168,1.255,1.255,0,0,1-.4-.651,1.186,1.186,0,0,1-.043-.328,1.314,1.314,0,0,1,1.212-1.312h0c.034,0,.068,0,.1,0a1.28,1.28,0,0,1,.778.258,1.088,1.088,0,0,1,.172.153A1.3,1.3,0,0,1,235.967,212.9Z" fill="#fff"/>
            <path id="Path_15408" data-name="Path 15408" d="M236.817,210.685A1.313,1.313,0,0,1,235.6,212a1.287,1.287,0,0,0-.95-.411c-.034,0-.068,0-.1,0h0a1.314,1.314,0,0,1,.953-2.22h.007a1.312,1.312,0,0,1,1.264.98A1.2,1.2,0,0,1,236.817,210.685Z" fill="#fff"/>
            <g id="Group_6163" data-name="Group 6163">
              <path id="Path_15409" data-name="Path 15409" d="M265.463,238.685c-.349.06-1.379.048-1.525.419a11.093,11.093,0,0,0-2.672-1.966c.054-.571.107-1.147.16-1.718a1.623,1.623,0,0,1,.56,1.04l.684-.6c.117.388.233.773.349,1.161l.613-.178a.207.207,0,0,1,.185,0,.209.209,0,0,1,.061.135c.039.218.078.433.117.65a3.236,3.236,0,0,0,.848-.2c0,.293,0,.582,0,.874.314.011.627.026.939.038C265.887,238.5,265.645,238.655,265.463,238.685Z" fill="#fec552"/>
              <path id="Path_15410" data-name="Path 15410" d="M267.87,255.7a.91.91,0,0,0,.763-.048,1.359,1.359,0,0,1-1.17.793,1.449,1.449,0,0,0,1.062.185,2.123,2.123,0,0,1-1.774.619,3.648,3.648,0,0,1-.183,1.476,1.235,1.235,0,0,1-1.144.811,1.624,1.624,0,0,0,.319-1.474c-.271-.233-.677.043-.9.32a7.859,7.859,0,0,0-.946,1.453,1.04,1.04,0,0,1-.664-1.381,2.578,2.578,0,0,0-1.98.412,1.123,1.123,0,0,1,.936-1.311,2.1,2.1,0,0,1,1.061-.687c-.552,0-1.107,0-1.659,0a2.63,2.63,0,0,1,2.69-.147c.259.139.555.328.823.207a.8.8,0,0,0,.359-.559,10.783,10.783,0,0,0,.34-1.867,3.094,3.094,0,0,1-2.2-1.38c-.341-.768,0-1.655-.05-2.491,0-.035-.006-.07-.01-.1a.561.561,0,0,0-.086-.25.772.772,0,0,0-.3-.222l-2.292-1.157-1.592-.806a3.427,3.427,0,0,0-.706-.293,3.477,3.477,0,0,0-1.906.255,1.047,1.047,0,0,1,.453.369,3.935,3.935,0,0,1-1.329.179c.3.128.592.254.89.384l-1.531.219.654.163a5.968,5.968,0,0,1-1.642.225,4.253,4.253,0,0,1-.15,1.421,1.43,1.43,0,0,1-.971.972,1.643,1.643,0,0,0,.025-1.436.915.915,0,0,0-1.266-.359c-.283.213-.367.592-.544.9a1.574,1.574,0,0,1-.886.708,12.087,12.087,0,0,0-.062-1.734.49.49,0,0,1-.6-.263l-.934.106a1.9,1.9,0,0,1,.882-.584,1.354,1.354,0,0,0,.8-.664.571.571,0,0,0-.326-.72l1.227.007a.5.5,0,0,1,.387.112c.121.139.056.357.1.535a.583.583,0,0,0,.715.335,1.717,1.717,0,0,0,.712-.494,5.062,5.062,0,0,0,1.195-1.582c.06-.139.068-.333.134-.462a6.15,6.15,0,0,0,.685-.4,9.92,9.92,0,0,0,1.49-1.1l-1.336,2.346a3.768,3.768,0,0,0,2.755-2.156,18.325,18.325,0,0,1-.216,2.531,3.987,3.987,0,0,0,1.536-2.429,4.014,4.014,0,0,1,.018,1.336,1.153,1.153,0,0,0,.538,1.143q.6-1.236,1.2-2.474.255.951.513,1.9a1.616,1.616,0,0,0,.509-1.272c0-.186-.006-.374-.017-.56.072.065.142.133.211.2q1.091,1.028,2.177,2.059a9.146,9.146,0,0,1,1.552,1.739,4.58,4.58,0,0,1,.328.634,4.589,4.589,0,0,1,.351,1.377c.044.455.049.985.406,1.269a1.48,1.48,0,0,0,1.379.011,1.989,1.989,0,0,1-.275,1.046,1.46,1.46,0,0,0,.751-.248,1.594,1.594,0,0,1-1.012,1.3,2.027,2.027,0,0,0,.8-.143A1.274,1.274,0,0,1,267.87,255.7Z" fill="#9a0133"/>
              <path id="Path_15411" data-name="Path 15411" d="M261.528,251.932a7.72,7.72,0,0,0-.005,1.1,1.1,1.1,0,0,0,.712-.291,1.434,1.434,0,0,1-.734,1.094c-.106.054-.239.136-.214.255.03.147.3.191.266.34a.172.172,0,0,1-.1.1,1.524,1.524,0,0,1-1.121-.037,1.221,1.221,0,0,0,.489.689.434.434,0,0,1-.425.225,1.231,1.231,0,0,1-.482-.156l-.627-.3a1,1,0,0,0,.579.6.78.78,0,0,1-.85.2,2.321,2.321,0,0,1-.776-.505,1.014,1.014,0,0,0,.42.922,1.084,1.084,0,0,1-1.126-.494c-.074-.122-.2-.289-.32-.207a.314.314,0,0,0-.068.093,3.715,3.715,0,0,0-.236.623c-.054.205-.117.446-.313.526a1.5,1.5,0,0,1-.321.047,1.529,1.529,0,0,0-.6.352.656.656,0,0,1-.65.139.61.61,0,0,1-.247-.281,1.867,1.867,0,0,1,.467-2.247c.785-.637,1.924-.511,2.889-.818a.578.578,0,0,0,.325-.979,3.132,3.132,0,0,0-.621-.819c-.234-.222-.517-.438-.574-.753a1.053,1.053,0,0,1,.577-.972,5.125,5.125,0,0,1,2.734-.711c.1,0,.224-.013.272-.1a.3.3,0,0,0,.024-.158,1.606,1.606,0,0,1-.015-.5l2.292,1.157a.772.772,0,0,1,.3.222.561.561,0,0,1,.086.25,1.8,1.8,0,0,1-.21.173,9.929,9.929,0,0,1-1.614.976.329.329,0,0,0-.145.1A.353.353,0,0,0,261.528,251.932Z" fill="#9a0133"/>
              <path id="Path_15412" data-name="Path 15412" d="M269.21,250.428a2.111,2.111,0,0,1-1.814.422,3.682,3.682,0,0,1-.592-.091,4.4,4.4,0,0,0-.275-.873c.112.045.207.086.242.1a4.906,4.906,0,0,0,1.219.286,1.055,1.055,0,0,0,.464-.03.818.818,0,0,0,.412-.976,2.492,2.492,0,0,0-.622-.972c-.57-.649-1.116-1.323-1.639-2.014a5.757,5.757,0,0,1-.707-1.118,5,5,0,0,1-.36-1.976,5.075,5.075,0,0,1,.133-1.386,4.285,4.285,0,0,1,1.889-2.409,5.643,5.643,0,0,0,1.078-.762,2.869,2.869,0,0,1-.052,1.09c-.065.214-.179.41-.233.625a4.153,4.153,0,0,0-.062.669,4.874,4.874,0,0,1-.632,1.826,8.078,8.078,0,0,0-.769,1.781c-.371,1.545.793,2.108,1.873,3.357a3.062,3.062,0,0,1,.689,1.165A1.406,1.406,0,0,1,269.21,250.428Z" fill="#9a0133"/>
              <path id="Path_15413" data-name="Path 15413" d="M260.2,239.663c-.027.061-.06.122-.093.18a17.161,17.161,0,0,0-1.869-.15,6.021,6.021,0,0,1-1.067-.078,1.683,1.683,0,0,1-.933-.49.984.984,0,0,1-.206-1,.543.543,0,0,1,.261-.289.534.534,0,0,1,.244-.039.7.7,0,0,1,.632.454.559.559,0,0,1-.3.684,1.873,1.873,0,0,0,1.482.5l1.1.038A1.509,1.509,0,0,1,260.2,239.663Z" fill="#e60000"/>
              <path id="Path_15414" data-name="Path 15414" d="M263.981,240.03a2.649,2.649,0,0,1-.043-.923v0a11.093,11.093,0,0,0-2.672-1.966c-.7.059-1.393.114-2.088.171a1.2,1.2,0,0,0-.659.182,1.186,1.186,0,0,0-.263,1.119.436.436,0,0,0,.07.225.374.374,0,0,0,.24.125,4.5,4.5,0,0,0,.952-.063c.32-.01.7.145.741.461a.579.579,0,0,1-.055.3c-.027.061-.06.122-.093.18l-.012.02c-.187.325-.447.693-.821.679a1.8,1.8,0,0,1-.6-.228c-.2-.082-.47-.086-.581.1a.389.389,0,0,0,.183.5,1.144,1.144,0,0,0,.581.088c.377-.01.752-.018,1.128-.029.257-.006.766-.113.981.012a1.177,1.177,0,0,1-.732.41,14.543,14.543,0,0,1-2.022.262,5.043,5.043,0,0,0-1.415.322c-.349.143-.624.494-1.022.435a2.031,2.031,0,0,1-1.166-.723,11.515,11.515,0,0,0-1.122-1.344c-.443-.372-1.048-.616-1.277-1.148a1.222,1.222,0,0,0,.42-2.34,2.143,2.143,0,0,1-.03.833,1,1,0,0,0-.625-.1c-.207.061-.359.331-.224.5a3.6,3.6,0,0,0-1.457-.767.791.791,0,0,0-.461-.021.33.33,0,0,0-.239.357c.674.018.76,1.241,1.433,1.3a2.941,2.941,0,0,1-1.331.286c-.455.068-.971.386-.916.841a21.771,21.771,0,0,1,2.7-.251c.143-.005-.192.577-.231.615a4.882,4.882,0,0,1-.557.381c-.224.151-1.079,1.02-.367.875a16.412,16.412,0,0,0,1.718-.482c.038.47.075.943.114,1.412l.412-.49.2.93.344-.274a1.376,1.376,0,0,1,.5.823l.4-.031c.021.078.04.155.061.232-.293.16-.8.049-.872.376a.344.344,0,0,0,.209.362.914.914,0,0,0,.443.065,7.1,7.1,0,0,0,.958-.1,6.21,6.21,0,0,1,.926-.193c.05.283-.617.887-.808,1.086a3.717,3.717,0,0,1-1.194.871c-.033.012-.071.032-.076.064s.042.081.086.1a1.077,1.077,0,0,0,.829-.072,6.15,6.15,0,0,0,.685-.4,9.92,9.92,0,0,0,1.49-1.1l-1.336,2.346a3.768,3.768,0,0,0,2.755-2.156,18.325,18.325,0,0,1-.216,2.531,3.987,3.987,0,0,0,1.536-2.429,4.014,4.014,0,0,1,.018,1.336,1.153,1.153,0,0,0,.538,1.143q.6-1.236,1.2-2.474.255.951.513,1.9a1.616,1.616,0,0,0,.509-1.272c0-.186-.006-.374-.017-.56a4.641,4.641,0,0,1,.011-.858,12.652,12.652,0,0,0,1.007,1.445,15.6,15.6,0,0,0-.067-1.9l.739.782a7.226,7.226,0,0,0-.254-2l.292.285c.15-.3-.033-.651-.072-.983a3.923,3.923,0,0,1,.155-.949A5.882,5.882,0,0,0,263.981,240.03Zm-2.529-.942a.373.373,0,1,1,.373-.372A.371.371,0,0,1,261.452,239.088Z" fill="#9a0133"/>
            </g>
            <path id="Path_15415" data-name="Path 15415" d="M237.9,209.145a1.2,1.2,0,0,1-1.132,1.2,1.312,1.312,0,0,0-1.264-.98,1.112,1.112,0,0,1-.021-.224,1.207,1.207,0,0,1,2.048-.869l0,0a1.2,1.2,0,0,1,.367.866Z" fill="#fff"/>
            <path id="Path_15416" data-name="Path 15416" d="M239.506,207.935v0a1.015,1.015,0,0,1-1.016,1.012,1,1,0,0,1-.673-.258,1.184,1.184,0,0,0-.279-.413l0,0a.982.982,0,0,1-.06-.341,1.013,1.013,0,0,1,1.872-.536h0A.987.987,0,0,1,239.506,207.935Z" fill="#fff"/>
            <path id="Path_15417" data-name="Path 15417" d="M241.184,207.421a.918.918,0,0,1-1.678.517v0a.987.987,0,0,0-.158-.535h0a.918.918,0,0,1,1.836.022Z" fill="#fff"/>
            <path id="Path_15418" data-name="Path 15418" d="M242.877,207.149a.619.619,0,0,1-.017.155.855.855,0,1,1-.015-.382v0A.793.793,0,0,1,242.877,207.149Z" fill="#fff"/>
            <path id="Path_15419" data-name="Path 15419" d="M232.882,209.145a.709.709,0,1,1,.709.709A.708.708,0,0,1,232.882,209.145Z" fill="#fff"/>
            <path id="Path_15420" data-name="Path 15420" d="M231.073,209.145a.9.9,0,1,1,.9.9A.9.9,0,0,1,231.073,209.145Z" fill="#fff"/>
            <circle id="Ellipse_27" data-name="Ellipse 27" cx="0.904" cy="0.904" r="0.904" transform="translate(229.266 208.604)" fill="#fff"/>
            <path id="Path_15421" data-name="Path 15421" d="M227.356,209.926a.955.955,0,1,1,.955.957A.955.955,0,0,1,227.356,209.926Z" fill="#fff"/>
            <path id="Path_15422" data-name="Path 15422" d="M225.427,210.84a1.075,1.075,0,1,1,1.074,1.076A1.075,1.075,0,0,1,225.427,210.84Z" fill="#fff"/>
            <path id="Path_15423" data-name="Path 15423" d="M223.925,212.363A1.076,1.076,0,1,1,225,213.439,1.076,1.076,0,0,1,223.925,212.363Z" fill="#fff"/>
            <path id="Path_15424" data-name="Path 15424" d="M222.435,214.542a1.394,1.394,0,1,1,1.393,1.394A1.394,1.394,0,0,1,222.435,214.542Z" fill="#fff"/>
            <path id="Path_15425" data-name="Path 15425" d="M222.146,217.5a1.564,1.564,0,1,1,1.564,1.564A1.563,1.563,0,0,1,222.146,217.5Z" fill="#fff"/>
            <path id="Path_15426" data-name="Path 15426" d="M249.512,207.082a.792.792,0,0,0,1.552.222.619.619,0,0,1-.017-.155.83.83,0,0,1,.03-.224v0a.791.791,0,0,0-1.565.16Z" fill="#fff"/>
            <path id="Path_15427" data-name="Path 15427" d="M258.092,215.167a1.429,1.429,0,1,0,2.053-1.287,1.407,1.407,0,0,0-.622-.143,1.429,1.429,0,0,0-1.431,1.43Z" fill="#fff"/>
            <path id="Path_15428" data-name="Path 15428" d="M260.587,212.9a1.319,1.319,0,0,1-.442.979,1.407,1.407,0,0,0-.622-.143,1.427,1.427,0,0,0-.892.311A1.312,1.312,0,0,1,258.32,212a1.237,1.237,0,0,1,.172-.153,1.29,1.29,0,0,1,.78-.258c.032,0,.067,0,.1,0h0A1.315,1.315,0,0,1,260.587,212.9Z" fill="#fff"/>
            <path id="Path_15429" data-name="Path 15429" d="M257.105,210.685A1.313,1.313,0,0,0,258.32,212a1.292,1.292,0,0,1,.952-.411c.032,0,.067,0,.1,0h0a1.316,1.316,0,0,0-.955-2.22h-.005a1.309,1.309,0,0,0-1.264.98A1.165,1.165,0,0,0,257.105,210.685Z" fill="#fff"/>
            <path id="Path_15430" data-name="Path 15430" d="M256.018,209.145a1.2,1.2,0,0,0,1.133,1.2,1.309,1.309,0,0,1,1.264-.98,1.278,1.278,0,0,0,.02-.224,1.206,1.206,0,0,0-2.047-.869l0,0a1.2,1.2,0,0,0-.367.866Z" fill="#fff"/>
            <path id="Path_15431" data-name="Path 15431" d="M254.418,207.935v0a1.013,1.013,0,0,0,1.015,1.012,1,1,0,0,0,.673-.258,1.184,1.184,0,0,1,.279-.413l0,0a.981.981,0,0,0,.058-.341,1.012,1.012,0,0,0-1.871-.536h0A.987.987,0,0,0,254.418,207.935Z" fill="#fff"/>
            <path id="Path_15432" data-name="Path 15432" d="M252.739,207.421a.919.919,0,0,0,1.679.517v0a.987.987,0,0,1,.157-.535h0a.918.918,0,0,0-1.836.022Z" fill="#fff"/>
            <path id="Path_15433" data-name="Path 15433" d="M251.047,207.149a.619.619,0,0,0,.017.155.85.85,0,1,0,.013-.382v0A.83.83,0,0,0,251.047,207.149Z" fill="#fff"/>
            <path id="Path_15434" data-name="Path 15434" d="M261.042,209.145a.709.709,0,1,0-.709.709A.709.709,0,0,0,261.042,209.145Z" fill="#fff"/>
            <circle id="Ellipse_28" data-name="Ellipse 28" cx="0.904" cy="0.904" r="0.904" transform="translate(261.042 208.241)" fill="#fff"/>
            <circle id="Ellipse_29" data-name="Ellipse 29" cx="0.904" cy="0.904" r="0.904" transform="translate(262.849 208.604)" fill="#fff"/>
            <path id="Path_15435" data-name="Path 15435" d="M266.568,209.926a.956.956,0,1,0-.957.957A.956.956,0,0,0,266.568,209.926Z" fill="#fff"/>
            <circle id="Ellipse_30" data-name="Ellipse 30" cx="1.076" cy="1.076" r="1.076" transform="translate(266.345 209.764)" fill="#fff"/>
            <path id="Path_15436" data-name="Path 15436" d="M270,212.363a1.075,1.075,0,1,0-1.074,1.076A1.076,1.076,0,0,0,270,212.363Z" fill="#fff"/>
            <circle id="Ellipse_31" data-name="Ellipse 31" cx="1.394" cy="1.394" r="1.394" transform="translate(268.7 213.147)" fill="#fff"/>
            <path id="Path_15437" data-name="Path 15437" d="M271.778,217.5a1.564,1.564,0,1,0-1.564,1.564A1.564,1.564,0,0,0,271.778,217.5Z" fill="#fff"/>
            <path id="Path_15438" data-name="Path 15438" d="M227.587,223.909a1.08,1.08,0,0,1-.794,1.042,1.006,1.006,0,0,1-.292.042,1.082,1.082,0,0,1-.842-1.763v0a1.084,1.084,0,0,1,1.928.681Z" fill="#fff"/>
            <path id="Path_15439" data-name="Path 15439" d="M230.462,223.3a.612.612,0,1,1,.611.613A.612.612,0,0,1,230.462,223.3Z" fill="#fff"/>
            <path id="Path_15440" data-name="Path 15440" d="M239.763,222.29a.613.613,0,1,1,.613.613A.612.612,0,0,1,239.763,222.29Z" fill="#fff"/>
            <path id="Path_15441" data-name="Path 15441" d="M268.5,223.909a1.082,1.082,0,0,1-1.083,1.084.992.992,0,0,1-.29-.042,1.082,1.082,0,1,1,1.373-1.042Z" fill="#fff"/>
            <path id="Path_15442" data-name="Path 15442" d="M263.461,223.3a.612.612,0,1,0-.612.613A.612.612,0,0,0,263.461,223.3Z" fill="#fff"/>
            <path id="Path_15443" data-name="Path 15443" d="M254.159,222.29a.611.611,0,1,0-.611.613A.611.611,0,0,0,254.159,222.29Z" fill="#fff"/>
            <path id="Path_15444" data-name="Path 15444" d="M235.967,222.022a1.054,1.054,0,0,1-.077.4,1.082,1.082,0,0,1-1.007.688,1.046,1.046,0,0,1-.563-.16,1.083,1.083,0,0,1,.563-2.009A1.086,1.086,0,0,1,235.967,222.022Z" fill="#fff"/>
            <path id="Path_15445" data-name="Path 15445" d="M260.126,222.022a1.085,1.085,0,1,0-1.084,1.084A1.085,1.085,0,0,0,260.126,222.022Z" fill="#fff"/>
            <path id="Path_15446" data-name="Path 15446" d="M248.046,220.817a1.084,1.084,0,1,1-1.085-1.083A1.082,1.082,0,0,1,248.046,220.817Z" fill="#fff"/>
            <path id="Path_15447" data-name="Path 15447" d="M237.789,251.42v10.353a9.175,9.175,0,0,0,9.174,9.173h0a9.174,9.174,0,0,0,9.172-9.173V251.42Z" fill="#e60000"/>
            <path id="Path_15448" data-name="Path 15448" d="M246.963,267.868a6.1,6.1,0,0,1-6.1-6.1V254.5h12.19v7.275A6.1,6.1,0,0,1,246.963,267.868Z" fill="#0437a0"/>
            <path id="Path_15449" data-name="Path 15449" d="M248.394,262.523a.977.977,0,0,0-.494.13,2.511,2.511,0,0,0,.133-.729,2.825,2.825,0,0,0-1.072-1.851,2.825,2.825,0,0,0-1.072,1.851,2.518,2.518,0,0,0,.135.729.982.982,0,0,0-.5-.13c-1.208,0-1.433,2.079,0,2.079,0,0-.236-.893.221-.893.353,0,.487.439.53.711h-.242v.927h.329l-.521.688a.1.1,0,0,0,.126.157l.463-.21.433.938a.1.1,0,0,0,.189,0l.432-.938.464.21a.1.1,0,0,0,.127-.157l-.523-.688h.331v-.927h-.243c.043-.272.176-.711.529-.711.458,0,.221.893.221.893C249.829,264.6,249.6,262.523,248.394,262.523Z" fill="#fec552"/>
            <path id="Path_15450" data-name="Path 15450" d="M245.342,257.584a1.011,1.011,0,0,0-.5.129,2.441,2.441,0,0,0,.135-.728,2.829,2.829,0,0,0-1.071-1.852,2.829,2.829,0,0,0-1.072,1.852,2.441,2.441,0,0,0,.135.728,1.011,1.011,0,0,0-.5-.129c-1.208,0-1.433,2.078,0,2.078,0,0-.236-.892.221-.892.354,0,.487.439.53.712h-.243v.926h.331l-.522.687a.1.1,0,0,0,.125.159l.465-.211.432.938a.1.1,0,0,0,.189,0l.432-.938.465.211a.1.1,0,0,0,.125-.159l-.521-.687h.33v-.926h-.243c.043-.273.177-.712.53-.712.457,0,.221.892.221.892C246.775,259.662,246.551,257.584,245.342,257.584Z" fill="#fec552"/>
            <path id="Path_15451" data-name="Path 15451" d="M248.581,257.584a1,1,0,0,1,.5.129,2.473,2.473,0,0,1-.135-.728,2.829,2.829,0,0,1,1.072-1.852,2.828,2.828,0,0,1,1.073,1.852,2.472,2.472,0,0,1-.135.728,1.006,1.006,0,0,1,.5-.129c1.208,0,1.433,2.078,0,2.078,0,0,.235-.892-.221-.892-.355,0-.488.439-.53.712h.242v.926h-.331l.523.687a.105.105,0,0,1-.127.159l-.463-.211-.433.938a.1.1,0,0,1-.19,0l-.432-.938-.463.211a.1.1,0,0,1-.126-.159l.521-.687h-.329v-.926h.241c-.041-.273-.176-.712-.529-.712-.456,0-.221.892-.221.892C247.148,259.662,247.373,257.584,248.581,257.584Z" fill="#fec552"/>
          </g>
        </g>
      </g>
    </g>
  </g>
</svg>
