<svg xmlns="http://www.w3.org/2000/svg" xmlns:xlink="http://www.w3.org/1999/xlink" width="419.51" height="289.167" viewBox="0 0 419.51 289.167">
  <defs>
    <linearGradient id="linear-gradient" y1="0.5" x2="1" y2="0.5" gradientUnits="objectBoundingBox">
      <stop offset="0" stop-color="#dab264"/>
      <stop offset="0.482" stop-color="#be895f"/>
      <stop offset="1" stop-color="#996a45"/>
    </linearGradient>
    <clipPath id="clip-path">
      <path id="Path_29616" data-name="Path 29616" d="M528.647,117.1a1819.437,1819.437,0,0,0-378.629,0A576.1,576.1,0,0,0,135.97,245.417a576.1,576.1,0,0,0,14.048,128.314,1823.376,1823.376,0,0,0,189.315,9.877,1823.356,1823.356,0,0,0,189.314-9.877A576.1,576.1,0,0,0,542.7,245.417,576.1,576.1,0,0,0,528.647,117.1Z" fill="none"/>
    </clipPath>
  </defs>
  <g id="Group_8537" data-name="Group 8537" transform="translate(-129.578 -101.424)">
    <path id="Path_28142" data-name="Path 28142" d="M339.325,390.591a1837.8,1837.8,0,0,1-189.978-9.912L144.8,380.2l-1.016-4.459a585.284,585.284,0,0,1-14.207-129.733,585.271,585.271,0,0,1,14.207-129.733l1.016-4.458,4.546-.48a1825.521,1825.521,0,0,1,379.971,0l4.547.48,1.016,4.458a585.329,585.329,0,0,1,14.207,129.733,585.343,585.343,0,0,1-14.207,129.733l-1.016,4.459-4.547.479a1837.766,1837.766,0,0,1-189.977,9.912Z" fill="url(#linear-gradient)"/>
    <g id="Group_8536" data-name="Group 8536">
      <g id="Group_8535" data-name="Group 8535" clip-path="url(#clip-path)">
        <g id="Group_8534" data-name="Group 8534">
          <g id="Group_8533" data-name="Group 8533">
            <rect id="Rectangle_2421" data-name="Rectangle 2421" width="791.895" height="289.403" transform="translate(103.105 101.306)" fill="#fff"/>
            <path id="Path_29578" data-name="Path 29578" d="M103.105,358.545H895V326.382H103.105Zm0-64.3H895v-32.2H103.105Zm204.024-64.328H895v-32.15H307.129Zm0-64.327H895V133.455H307.129Z" fill="#126fb5"/>
            <path id="Path_29579" data-name="Path 29579" d="M288.491,181.932c-3.35-.6,1.993.37-32.6-5.929,18.294-7.959,12.075-16,25.109-16,2.963-.546,2.962-.129.474-1.371-13.545-5.96-12.761,4.371-28.771,5.3,23.614-34.3,24.671-31.038-9.03-7.315,7.159-18.485-3.153-18.594,6.1-28.763,1.781-1.763,2.173-1.55-.924-.939-13.24,4.125-6.179,12.748-16.354,23.908-7.238-40.113-4.21-40.658-11.757,1.047-8.011-17.922-15.252-10.836-16.18-24.464,0-2.5.308-2.5-.923,0-6.579,12.291,4.148,11.469,5.128,28.527-33.96-23.9-30.738-24.91-7.668,8.568-17.613-6.567-18.161,3.724-28.241-5.422-2.462-1.867-2.155-2.031-.922.491,4.088,13.181,13.027,6.257,24.051,16.712-30.321,5.521-27.212,4.958-31.068,5.65,3.887.618-1.619-.361,31.868,5.746-17.87,8.055-10.835,15.286-24.39,16.125-3.116,0-2.963-.317-.461.953,13.258,6.6,13.211-4.236,28.674-4.962-18.533,26.65-15.565,22.079-17.5,25.953,3.253-2.63-1.295.634,26.648-18.78-7.4,18.472,3.442,18.506-6.119,29.015-1.9,1.863-2.169,1.678.923.477,13.252-4.153,6.055-11.9,16.415-23.429,7.273,39.859,4.184,40.088,11.711-1.295,7.8,17.916,15.152,10.42,16.165,24.247,0,3.117-.309,2.96.924.477,6.6-12.339-4.252-11.8-5.145-28.815,26.743,18.58,22.4,15.446,25.643,18.1-1.964-3.97,1.07.732-18.274-27.107,17.417,6.953,19.685-2.755,28.554,6.116,2.462,1.885,2.155,2.041.922-.462-3.985-13.706-11.932-5.606-23.738-16.82C289.913,181.608,284.606,182.55,288.491,181.932Z" fill="#403403"/>
            <g id="Group_8532" data-name="Group 8532">
              <g id="Group_8531" data-name="Group 8531">
                <path id="Path_29580" data-name="Path 29580" d="M210.622,222.944c3.731-22.625,12.562-25.308.882-17.194-7.5,17.977,1.068,19.668-4.452,27.746C209.462,231.046,209.9,227.513,210.622,222.944Z" fill="#ffc400"/>
                <path id="Path_29581" data-name="Path 29581" d="M208.949,233.136c5.573-4.15,2.047-11.518,11.726-21.739l-1.849-10.135C209.436,218.425,213.913,226.482,208.949,233.136Z" fill="#ffc400"/>
                <path id="Path_29582" data-name="Path 29582" d="M245.112,129.782c-3.263,2.12-3.957,4.835-4.65,8.323-5.323,19.086-9.352,5.043-5.919,24.065C243.9,145.11,240.565,135.289,245.112,129.782Z" fill="#ffc400"/>
                <path id="Path_29583" data-name="Path 29583" d="M242.787,140.428c-3.473,22.775-13.417,26.256-.754,17.343,7.492-18.376-1.6-19.438,4.659-28.222C243.974,132.009,243.506,135.646,242.787,140.428Z" fill="#ffc400"/>
                <path id="Path_29584" data-name="Path 29584" d="M174.978,163.571c4.771,7.013,12.231,2.615,22.222,12.489l9.954-1.813C191.337,164.911,181.151,168.725,174.978,163.571Z" fill="#ffc400"/>
                <path id="Path_29585" data-name="Path 29585" d="M185.444,165.592c22.116,3.417,25.854,13.711,16.97.821-17.4-7.007-19.538,1.3-27.992-4.8C176.887,164.559,180.554,165.242,185.444,165.592Z" fill="#ffc400"/>
                <path id="Path_29586" data-name="Path 29586" d="M246.739,191.072l4.178,6.014c17.254,7.535,19.692-.8,27.4,4.221C273.263,196.313,261.877,199.576,246.739,191.072Z" fill="#ffc400"/>
                <path id="Path_29587" data-name="Path 29587" d="M256.362,187.724,246.3,189.561c17.493,9.579,26.992,5.582,32.528,10.861C274.267,192.861,267.321,198.287,256.362,187.724Z" fill="#ffc400"/>
                <path id="Path_29588" data-name="Path 29588" d="M207.246,190.249c-17.432,4.808-22.736,14.529-29.751,15.3,8.027,1.444,9.458-6.684,24.051-7.106Z" fill="#ffc400"/>
                <path id="Path_29589" data-name="Path 29589" d="M206.361,189.424l-7.728-1.409c-17.923,7.564-12.444,14.786-22.284,16.447C183.719,204.291,189.124,194.321,206.361,189.424Z" fill="#ffc400"/>
                <path id="Path_29590" data-name="Path 29590" d="M246.362,173.139c17.621-4.253,21.52-14.53,30.155-15.131-8.018-1.572-9.44,6.739-24.544,6.984Z" fill="#ffc400"/>
                <path id="Path_29591" data-name="Path 29591" d="M247.091,174.4l7.141,1.3c17.8-6.922,13.314-14.9,23.767-16.727C269.766,158.567,264.6,169.408,247.091,174.4Z" fill="#ffc400"/>
                <path id="Path_29592" data-name="Path 29592" d="M219.14,160.7l1.261-6.966c-7.361-17.371-14.773-13.019-16.459-23.494C203.172,138.914,213.807,142.569,219.14,160.7Z" fill="#ffc400"/>
                <path id="Path_29593" data-name="Path 29593" d="M209.95,156.768l8.361,5.886c-4.217-18.26-14.7-22.151-15.3-30.54C201.473,139.752,209.639,142.6,209.95,156.768Z" fill="#ffc400"/>
                <path id="Path_29594" data-name="Path 29594" d="M243.466,206.835l-8.2-5.7c5.228,19.084,14.554,21.8,15.141,30.523C251.865,224.093,243.834,221.27,243.466,206.835Z" fill="#ffc400"/>
                <path id="Path_29595" data-name="Path 29595" d="M234.419,202.214l-1.411,7.755c7.624,17.578,14.867,13.553,16.457,23.186C250.218,224.806,238.946,220.551,234.419,202.214Z" fill="#ffc400"/>
                <path id="Path_29596" data-name="Path 29596" d="M226.012,208.312c0-9.53,1.55-4.89-5.884-7.567C228.008,243.816,226.012,240.889,226.012,208.312Z" fill="#ffc400"/>
                <path id="Path_29597" data-name="Path 29597" d="M230.113,201.642c-3.6.655-2.687-4.843-2.687,31.247C234.311,195.153,234.569,200.833,230.113,201.642Z" fill="#ffc400"/>
                <path id="Path_29598" data-name="Path 29598" d="M227.426,155.531c0,8.893-1.47,4.419,5.765,7.03C225.431,120.02,227.426,123.195,227.426,155.531Z" fill="#ffc400"/>
                <path id="Path_29599" data-name="Path 29599" d="M223.382,161.754c3.6-.646,2.63,4.688,2.63-30.812C219.055,168.971,219.241,162.5,223.382,161.754Z" fill="#ffc400"/>
                <path id="Path_29600" data-name="Path 29600" d="M206.448,181.427c.2-7.784,4.972-6.928-8.406-4.489C163.45,183.252,164.452,181.427,206.448,181.427Z" fill="#ffc400"/>
                <path id="Path_29601" data-name="Path 29601" d="M199.3,187.12c11.2,2.052,7.832,2.6,7.228-3.173-.211-2.031.814-1.567-4.044-1.567C163.56,182.38,164.941,180.828,199.3,187.12Z" fill="#ffc400"/>
                <path id="Path_29602" data-name="Path 29602" d="M246.949,182.38c-.179,7.866-5.109,6.989,8.558,4.486C290.072,180.539,288.89,182.38,246.949,182.38Z" fill="#ffc400"/>
                <path id="Path_29603" data-name="Path 29603" d="M253.423,176.582c-10.206-1.859-7.151-2.466-6.557,3.291.208,2.021-.965,1.554,4.048,1.554C289.424,181.427,289.066,183.081,253.423,176.582Z" fill="#ffc400"/>
                <path id="Path_29604" data-name="Path 29604" d="M211.218,204.7c9.17-6.376,7.329-3.658,2.745-7.464-1.367-1.133-.411-1.48-3.692,1.8C183.182,226.117,181.528,225.347,211.218,204.7Z" fill="#ffc400"/>
                <path id="Path_29605" data-name="Path 29605" d="M212.261,195.648c-5.693-5.832-1.725-8.232-9.312,2.789C182.749,227.771,181.857,226.074,212.261,195.648Z" fill="#ffc400"/>
                <path id="Path_29606" data-name="Path 29606" d="M242.246,158.618c-9.211,6.4-7.406,3.7-2.809,7.51,1.69,1.4.6,1.755,4.094-1.736C272.546,135.418,273.457,136.93,242.246,158.618Z" fill="#ffc400"/>
                <path id="Path_29607" data-name="Path 29607" d="M250.957,164.44c19.678-28.283,20.173-26.256-9.6,3.518C246.747,173.681,242.72,176.28,250.957,164.44Z" fill="#ffc400"/>
                <path id="Path_29608" data-name="Path 29608" d="M203.769,166.333c6.256,8.992,3.594,7.217,7.35,2.656,1.242-1.508,1.6-.513-1.758-3.912C180.888,136.287,181.644,134.531,203.769,166.333Z" fill="#ffc400"/>
                <path id="Path_29609" data-name="Path 29609" d="M212.739,167.249c5.834-5.678,8.648-1.528-2.793-9.478C179.3,136.486,180.892,135.449,212.739,167.249Z" fill="#ffc400"/>
                <path id="Path_29610" data-name="Path 29610" d="M249.492,197.031c-6.022-8.745-3.448-7.05-7.217-2.6-1.323,1.558-1.667.529,1.763,3.925C269.982,224.031,269.45,226.018,249.492,197.031Z" fill="#ffc400"/>
                <path id="Path_29611" data-name="Path 29611" d="M240.435,196.339c-5.644,5.314-8.225,1.423,3.027,9.248C272.212,225.58,270.312,226.2,240.435,196.339Z" fill="#ffc400"/>
                <path id="Path_29612" data-name="Path 29612" d="M242.235,192.717c6.881-9.89,2.821-24.578-8.911-28.816a19.044,19.044,0,0,0-25.4,19.94C209.508,200.932,231.834,207.661,242.235,192.717Zm-4.781-16.737c1.292,1.5-.42,2.314,1.144,1.274.527-.516-.15.3-1.138,1.079-3.266,2.6-7.174-.114-6.781-.585a.619.619,0,0,1,.932-.044c3.348,1.951.518.154.494-1.283,0-.364,1.112-2.147-1.893.833,0-2.894,3.931-3.1,5.7-2.691,2.107.485,3.229,2.281,4.076,2.691C239.389,177.254,238.625,176.527,237.454,175.98Zm2.54-2.872c3.766,2.885-3.49-.856-7.65.225-2.357.614-2.814,1.957-3.533,1.6C228.567,174.67,233.431,168.079,239.994,173.108Zm-14.921,11.625c-.606,1.854,3.942,1.977,3.278,0,.458.9,1.968.994,1.845-.23-.076-.753-.461-.773-.461-1.661,1.4.478.961,2.8,2.355,3.263,1.092,0,2.078,1.017,1.957,1.348-.142.383-2.481-2.625-6.324-.637-1.521.788-2.513-.711-4.051-.711a6.593,6.593,0,0,0-4.2,1.414c-.463,0,.491-1.414,1.846-1.414,1.429-.462.952-2.787,2.353-3.263,0,.126-.475,2.017-.475,1.891C223.2,185.65,224.646,185.6,225.073,184.733Zm-12.328-10.476c-.728-.616,2-2.077,3.308-2.561,4.826-1.774,8.9,2.875,8.573,3.235-.743.359-1.206-.985-3.56-1.6C216.344,172.1,213.572,174.957,212.745,174.257Zm3.206,4.076c-1-.786-1.664-1.591-1.142-1.079,1.487,1-.074.27,1.027-1.149-5.524,3.049.286-1.558,2.539-1.646,2.539-.1,4.822.351,4.822,2.795a6.1,6.1,0,0,0-2.1-1.663c-.406-.14,1.283,1.091-1.028,2.912,1.337-.355,2.072-1.212,2.481-1C223.737,177.978,219.676,181.261,215.951,178.333ZM224,193.309c-2.109-.483-6.056-3.311-6.788-2.436-3.77,4.5,3.886-5.257.375-.483,2.758.35,4.55-1.485,6.087-1.485,1.421,0,2.43.648,3.706.435,6.135-1.023,3.754,1.616,8.539,1.035.126-.016.176.1-.576-.863-1.3-1.655,1.038.768,1.2,1.03.092.145,1.345,2.84.1.779C235.19,188.934,231.664,195.068,224,193.309Zm2.938,2.6c-3.431,0-.656-.631.49-.433C228.6,195.674,228.724,195.906,226.936,195.906Z" fill="#ffc400"/>
                <path id="Path_29613" data-name="Path 29613" d="M216.859,178.346c1.651.553-1.268-.717.682-2.862C215.76,175.8,214.816,177.667,216.859,178.346Z" fill="#ffc400"/>
                <path id="Path_29614" data-name="Path 29614" d="M235.912,175.489c-.361-.066.813.4.508,2.024-.2,1.065-.647,1.038-.327.96C238.325,177.935,238.127,175.886,235.912,175.489Z" fill="#ffc400"/>
                <path id="Path_29615" data-name="Path 29615" d="M231.3,191.517c2.356-.725-4.324-.749-3.87-.743C215.427,190.646,225.667,193.251,231.3,191.517Z" fill="#ffc400"/>
              </g>
            </g>
          </g>
        </g>
      </g>
    </g>
  </g>
</svg>
