<svg xmlns="http://www.w3.org/2000/svg" xmlns:xlink="http://www.w3.org/1999/xlink" width="419.51" height="289.166" viewBox="0 0 419.51 289.166">
  <defs>
    <linearGradient id="linear-gradient" y1="0.5" x2="1" y2="0.5" gradientUnits="objectBoundingBox">
      <stop offset="0" stop-color="#dab264"/>
      <stop offset="0.482" stop-color="#be895f"/>
      <stop offset="1" stop-color="#996a45"/>
    </linearGradient>
    <clipPath id="clip-path">
      <path id="Path_9550" data-name="Path 9550" d="M456.647,219.1a1819.438,1819.438,0,0,0-378.629,0A576.1,576.1,0,0,0,63.97,347.417,576.1,576.1,0,0,0,78.018,475.731a1823.376,1823.376,0,0,0,189.315,9.877,1823.357,1823.357,0,0,0,189.314-9.877A576.1,576.1,0,0,0,470.7,347.417,576.1,576.1,0,0,0,456.647,219.1Z" fill="none"/>
    </clipPath>
  </defs>
  <g id="Group_5063" data-name="Group 5063" transform="translate(-57.578 -203.53)">
    <path id="Path_9333" data-name="Path 9333" d="M267.325,492.7a1837.528,1837.528,0,0,1-189.978-9.912L72.8,482.3l-1.016-4.459a599.435,599.435,0,0,1,0-259.465l1.016-4.459,4.546-.479a1825.521,1825.521,0,0,1,379.971,0l4.547.479,1.016,4.459a585.325,585.325,0,0,1,14.207,129.733,585.329,585.329,0,0,1-14.207,129.732l-1.016,4.459-4.547.479A1837.493,1837.493,0,0,1,267.341,492.7Z" fill="url(#linear-gradient)"/>
    <g id="Group_5062" data-name="Group 5062">
      <g id="Group_5061" data-name="Group 5061" clip-path="url(#clip-path)">
        <g id="Group_5060" data-name="Group 5060">
          <g id="Group_5052" data-name="Group 5052">
            <rect id="Rectangle_804" data-name="Rectangle 804" width="472.64" height="283.584" transform="translate(31.013 206.321)" fill="#00b140"/>
            <rect id="Rectangle_805" data-name="Rectangle 805" width="472.64" height="141.792" transform="translate(31.013 206.321)" fill="#fff"/>
          </g>
          <g id="Group_5059" data-name="Group 5059">
            <g id="Group_5058" data-name="Group 5058">
              <g id="Group_5053" data-name="Group 5053">
                <path id="Path_9443" data-name="Path 9443" d="M176.741,273.564c-15.349,2.326-54.247,5.98-69.424,3.489l2.966,7.144c25.118-2.326,49.189,5.815,71.518-2.659Z" fill="#c8102e" stroke="#000" stroke-width="1.157"/>
                <path id="Path_9444" data-name="Path 9444" d="M117.261,291.008c-9.6-2.823-25.468-19.271-28.084-29.24,7.5,5.15,25.467,11.8,31.921,11.132-2.094,1.495-7.327,5.481-11.339,5.98C111.679,282.536,115.341,287.187,117.261,291.008Z" fill="#c8102e" stroke="#000" stroke-width="1.157"/>
              </g>
              <g id="Group_5054" data-name="Group 5054">
                <path id="Path_9445" data-name="Path 9445" d="M148.134,286.024h0c2.792,3.821,17.444,2.243,24.856-2.408l-2.006-3.24-1.482,2.741-2.354-2.575-.61,4.07-4.1-2.99-.7,3.572-2.616-3.157-.959,3.9-3.838-2.992-1.482,4.072a7.792,7.792,0,0,1-1.833-4.9A5.36,5.36,0,0,0,148.134,286.024Z" fill="#c8102e" stroke="#000" stroke-width="1.157"/>
                <path id="Path_9446" data-name="Path 9446" d="M149.355,273.647a6.223,6.223,0,0,0,3.49,4.734c.087-1.245-1.484-4.153-.524-5.4l2.006,1.827.611-3.489,2.7,1.911.261-4.07,2.79,1.827V266.5C156.158,266.918,150.576,272.152,149.355,273.647Z" fill="#c8102e" stroke="#000" stroke-width="1.157"/>
              </g>
              <path id="Path_9447" data-name="Path 9447" d="M432.415,318.92c-1.178-2.658-4.841-5.9-8.068-7.891,1.259-2.95,3.224-7.618,5.187-12.451a86.031,86.031,0,0,1-20.973,1.07c11.163-10.632,34.537-32.564,42.212-42.532-2.791,13.623-.7,44.193,4.885,54.826-5.932-2.326-12.787-7.143-16.624-12.459a202.582,202.582,0,0,1-6.575,19.354" fill="#c8102e" stroke="#000" stroke-width="1.157"/>
              <path id="Path_9448" data-name="Path 9448" d="M214.594,260.605c.7,3.489.871,6.147,3.488,7.144s8.372,2.99,12.036,8.972c-4.361-1.163-10.466-2.825-10.99,1.163-.5,3.795,1.25,3.683,4.187,4.319,3.837.831,7.5,5.316,7.675,11.3-3.141-1.827-7.5-3.323-10.292-3.323s-3.576.5-4.273,3.821c-1.152,5.48.96,5.815,3.575,6.147s8.2,2.825,8.548,11.962c-2.966-2.492-8.914-3.881-12.56-4.485-2.006-.332-2.354.664-2.615,4.153s.173,4.653,3.661,5.649,7.5,3.489,8.548,8.805c-3.315-1.5-8.548-1-10.117-.332s-2.421,4.378.894,11.521a104.1,104.1,0,0,1,21.956-4.544c16.487-1.653,12.56-12.625,12.56-29.9s36.281-36.551,91.4-67.121c-13.257,32.231,4.885,29.24,15,25.586s33.84-12.959,52.33-20.6c-25.468,16.282-38.376,33.561-16.048,41.2-28.607,8.639-41.864,32.231-26.165,47.184-10.706-3.612-25.542,3.2-31.755,12.692,11.163-1,32.8,1.6,46.058,5.251,12.624,3.48,33.463-.6,35.427-11.318a8.944,8.944,0,0,0,.158-1.641,14.454,14.454,0,0,0-2.437-8.617c-3.242-4.526-8.923-5.505-12.041-5.505-4.535,0-9.245,1.827-9.245,4.984s2.791,4.486,8.373,4.486c3.052,0,7.757.505,12.913-3.965a14.454,14.454,0,0,1,2.437,8.617,8.792,8.792,0,0,1-.165,1.618,33.587,33.587,0,0,1-15.884,4.03c-11.164,0-21.628-4.32-21.628-15.949s12.558-18.275,22.675-18.275c13.955,0,33.491,5.316,33.491,26.582,0,26.915-37.051,39.5-59.031,39.5a46,46,0,0,0,12.283,7.348c15.567,5.815,29.305,12.959,34.19,23.925-5.931,0-15.7-4.652-20.235-9.3,12.559,14.621-2.674,41.515-1.046,50.507,1.743,9.635,13.6,3.654,13.6,11.132,0,6.644-6.977,5.481-9.593,2.491s-11.005-5.5-15.351-2.491c-3.837,2.658-9.767,3.986-12.384,1.328s-12.21-1.662-16.222,1.994-9.615,3.94-11.338,1.163c-1.845-2.973-1.373-6.589,6.089-7.84-3.315-3.324-13.416,2.357-15.159-3.956-1.254-4.536,1.4-6.646,10.116-5.982-.872-2.159-7.325-3.155-6.454-7.642s5.914-7.262,11.862-.664c15.873,17.611,23.2,7.809,28.606.166-1.744-3.988.175-6.646,3.489-9.137-1.744-2.825-.7-6.812.523-9.47-2.616-1.5-4.186-8.142-1.395-10.467-2.268,0-5.757-2.493-5.757-6.812a8.133,8.133,0,0,1-9.767-1c-3.315,1.827-12.036,2.159-15.874-1.829-5.233,1.994-14.478,1.495-16.919-2.326-4.605,1.164-13.083-2.658-14.827-6.812a18.1,18.1,0,0,1-7.647-2.324c-6.977,4.984-16.424,14.619-7.006,21.929s28.956,1.329,29.3,19.6c-4.536-3.654-12.908-2.658-15.7-6.313-9.419,13.291-23.024,25.419-43.084,30.4,2.964,1.827,8.373,1.994,10.465,1.827,4.349-.345,8.024,3.157,4.71,7.31s-10.117.665-14.129-2.823c-5.773-5.022-9.594-2.161-11.164-1s-3.663,1.829-6.453-.831-5.409-.829-6.8.831c-2.267,2.7-7.5-3.489-15.873,3.821-4.026,3.516-13.606-1-9.769-6.147-4.012,1-11.107-4.553-5.233-9.967,5.408-4.984,15.7,6.479,24.072,3.155a20.058,20.058,0,0,0-13.955-7.475c-4.187-.5-4.927-5.137-2.965-8.474,2.442-4.153,9.943-1.328,15,5.151,3.985,5.105,9.245,5.15,14.652,4.154,3.8-2.412,9.681-2.493,12.3-1.662,0-2.492,4.1-4.652,7.238-4.652-.174-3.323.872-6.313,5.932-7.144.421-.069.857-.137,1.307-.177a11.979,11.979,0,0,1-9.336-3.828c-6.988,1.7-14.729-1.581-15.866-7.865-11.045-.77-12.143-11.915-9.422-15.543a6.061,6.061,0,0,1,.744-.832,12.945,12.945,0,0,1-12.683,1.815,19.7,19.7,0,0,1-21.3,7.263,16.138,16.138,0,0,1-9.393,6.712c.326,4.027-.543,8.589-5.858,13.95,1.4-7.31-8.373-9.636-6.279-21.6-.7,8.639-27.038,22.928-31.225,41.867,3.839,1.662,8.026,2.824,10.642,2.326,6.579-1.253,8.721,5.317,6.8,7.975s-7.326,3.987-9.593,1.661-6.978.831-9.245-3.488-8.548-2.825-11.164,0-11.338-3.656-17.617,2.823c-2.35,2.424-10.291,4.985-15,3.656s-7.5-5.982-5.93-8.473c-3.14-2.825-3.184-6.284-.174-9.3-1.135-4.236,2.564-12.608,8.809-9.3,3.924,2.076,17.835,11.88,29.958.665,10.511-9.845,4.388-17.734,11.12-18.774-.819-4,1.745-8.971,4.535-9.969a7.237,7.237,0,0,1-.411-5.325,17.223,17.223,0,0,1-4.637-1.016,62.412,62.412,0,0,1-16.059,2.354c0,3.987-4.883,13.623-9.07,18.276-1.4-36.551-36.281-40.207-40.992-69.28-.173,4.318-4.884,8.638-5.406,12.293s-2.791,6.479-6.978,4.819-5.233-8.64-1.046-9.636,3.4-7.643,6.018-8.474,3.052-3.489,2.006-6.812.522-7.31,1.57-9.8-.524-6.647-4.187-8.142a6.089,6.089,0,0,1-3.489-8.306c-3.837-2.659-2.743-8.4,2.442-9.47,6.455-1.33,6.279,8.8,9.943,9.968-.523-1.993.175-5.815,1.745-8.307-2.094-4.321.523-7.808,4.709-7.808,7.326,0,4.884,11.629,3.139,15.285,2.443-3.324,6.281-7.145,9.245-4.486s2.482,8.209-.7,10.632c-2.617,1.993-8.024,5.15-6.454,8.64,3.14,5.316,5.058,11.629,5.408,19.77,4.36,3.157,7.151,6.812,7.151,9.8,2.878.167,8.389,2.441,9.158,5.65,3.488-.334,8.7.333,10.2,3.406,1.135-.583,4.161-.777,5.994-.611a11.258,11.258,0,0,1,2.554-7.115c-5.93-6.314-5.757-16.282.349-20.269-1.738-4.14-1.046-11.8,4.709-15.784-.124-4.155,1.047-9.635,6.8-13.125-.872-4.486,2.093-10.632,5.757-10.965-.873-4.32-.214-9.652,4.844-12.144a6.234,6.234,0,0,1-1.71-4.662c-8.873,1.828-12.341,7-15.17,11.822a19.6,19.6,0,0,0-2.094-6.646c0,5.15-4.012,6.978-4.185,14.122-2.966-2.99-4.012-7.809-3.839-11.132.14-2.659-4.534-5.149-3.139-9.8,6.978,6.147,21.107-7.311,33.317-2.991-12.036-24.09-20.758-12.461-26.863-8.307s-10.466-1.993-9.767-5.981c-8.2-1.828-17.968-1.5-28.608.5,7.849-9.8,26.339-14.122,39.945-13.125,5.93-10.466,13.083-8.971,20.059-7.975a83.01,83.01,0,0,0,15.176.413c3.315-8.806,22.676-9.716,24.6-16.694,1.745,1.328.685,6.328-1.059,10.647,5.043-1.438,9.373-2.973,10.827-5.995.872,2.824-.523,10.466-2.443,12.792a20.281,20.281,0,0,1,6.106-.664c-6.106,3.322-13.779,8.307-15,9.138s-1.92,2.491,1.221,4.153c-3.49.664-13.257,3.988-17.269,1.33" fill="#c8102e" stroke="#000" stroke-width="1.157"/>
              <g id="Group_5055" data-name="Group 5055">
                <path id="Path_9449" data-name="Path 9449" d="M82.026,305.546c4.621-3.157,10.942-.823,12.3,3.821.872,2.99-4.426,5.211-4.885,2.409C88.828,308.038,86.3,305.712,82.026,305.546Z" fill="#c8102e" stroke="#000" stroke-width="1.157"/>
                <path id="Path_9450" data-name="Path 9450" d="M100.152,295.887c5.379-1.762,10.731,2.2,10.632,7.019-.065,3.1-5.809,3.782-5.4.974C105.92,300.132,104.2,297.213,100.152,295.887Z" fill="#c8102e" stroke="#000" stroke-width="1.157"/>
                <path id="Path_9451" data-name="Path 9451" d="M120.157,304.392c5.131,2.337,6.028,8.736,2.407,12.105-2.332,2.169-6.926-1.185-4.569-2.917C121.14,311.271,122.062,308.038,120.157,304.392Z" fill="#c8102e" stroke="#000" stroke-width="1.157"/>
                <path id="Path_9452" data-name="Path 9452" d="M79.3,371.543c4.476,3.341,10.895,1.267,12.456-3.319,1.006-2.953-4.191-5.386-4.772-2.605C86.209,369.328,83.578,371.55,79.3,371.543Z" fill="#c8102e" stroke="#000" stroke-width="1.157"/>
                <path id="Path_9453" data-name="Path 9453" d="M110.805,438.729a8.153,8.153,0,0,1,12.369-3.613c2.518,1.969-.475,6.688-2.541,4.647C117.875,437.04,114.4,436.523,110.805,438.729Z" fill="#c8102e" stroke="#000" stroke-width="1.157"/>
                <path id="Path_9454" data-name="Path 9454" d="M104.92,452.485c.312-5.409,7.923-8.808,12.573-6.9,3,1.225,1.494,6.551-1.087,5.135A9.949,9.949,0,0,0,104.92,452.485Z" fill="#c8102e" stroke="#000" stroke-width="1.157"/>
                <path id="Path_9455" data-name="Path 9455" d="M113.191,465.249a7.647,7.647,0,0,1,7.166-10.258c3.258,0,4.081,5.46,1.125,5.128C117.539,459.675,114.507,461.373,113.191,465.249Z" fill="#c8102e" stroke="#000" stroke-width="1.157"/>
                <path id="Path_9456" data-name="Path 9456" d="M195.231,460.706c.674-5.379-4.52-9.527-9.446-8.418-3.171.715-2.657,6.206.14,5.237C189.658,456.232,193.017,457.22,195.231,460.706Z" fill="#c8102e" stroke="#000" stroke-width="1.157"/>
                <path id="Path_9457" data-name="Path 9457" d="M226.7,462.424a7.76,7.76,0,0,1,8.631-9.177c3.226.445,3.221,5.958.345,5.228C231.841,457.5,228.586,458.765,226.7,462.424Z" fill="#c8102e" stroke="#000" stroke-width="1.157"/>
                <path id="Path_9458" data-name="Path 9458" d="M305.177,461.128c.436-5.4-4.936-9.34-9.809-8.033-3.136.841-2.381,6.307.371,5.227C299.412,456.881,302.811,457.734,305.177,461.128Z" fill="#c8102e" stroke="#000" stroke-width="1.157"/>
                <path id="Path_9459" data-name="Path 9459" d="M217.385,451.173c-.835-5.357,4.747-9.969,9.7-8.994,3.192.629,2.328,6.455-.5,5.563C222.821,446.55,219.493,447.63,217.385,451.173Z" fill="#c8102e" stroke="#000" stroke-width="1.157"/>
                <path id="Path_9460" data-name="Path 9460" d="M224.691,435.758c.311-5.409,6.753-8.857,11.4-6.953,2.994,1.225.918,6.768-1.661,5.353A7.442,7.442,0,0,0,224.691,435.758Z" fill="#c8102e" stroke="#000" stroke-width="1.157"/>
                <path id="Path_9461" data-name="Path 9461" d="M344.792,465.247a7.76,7.76,0,0,1,8.631-9.176c3.226.446,3.221,5.959.345,5.229C349.93,460.324,346.676,461.59,344.792,465.247Z" fill="#c8102e" stroke="#000" stroke-width="1.157"/>
                <path id="Path_9462" data-name="Path 9462" d="M422.736,462.71a7.754,7.754,0,0,0-8.564-9.234c-3.227.425-3.264,5.938-.383,5.225C417.634,457.752,420.881,459.039,422.736,462.71Z" fill="#c8102e" stroke="#000" stroke-width="1.157"/>
                <path id="Path_9463" data-name="Path 9463" d="M334.752,452.959c-.821-5.359,4.257-9.636,9.211-8.649,3.19.635,2.827,6.138,0,5.238C340.2,448.349,336.869,449.42,334.752,452.959Z" fill="#c8102e" stroke="#000" stroke-width="1.157"/>
                <path id="Path_9464" data-name="Path 9464" d="M337.655,438.331c.106-5.417,5.847-8.849,10.566-7.106,3.038,1.121,1.741,6.493-.891,5.169A7.43,7.43,0,0,0,337.655,438.331Z" fill="#c8102e" stroke="#000" stroke-width="1.157"/>
              </g>
              <g id="Group_5057" data-name="Group 5057">
                <path id="Path_9465" data-name="Path 9465" d="M357.278,261.436c-13.257,4.32-64.54,23.592-73.959,26.582s-14.3,3.656-19.885,15.949" fill="none" stroke="#000" stroke-width="1.157"/>
                <path id="Path_9466" data-name="Path 9466" d="M332.508,247.147c-33.49,20.6-60.7,38.545-68.376,55.492s-7.152,27.246-25.817,30.236" fill="none" stroke="#000" stroke-width="1.157"/>
                <path id="Path_9467" data-name="Path 9467" d="M184.591,364.775c8.373-9.3,25.816-20.6,42.561-21.266a100.13,100.13,0,0,0-8.373,15.95" fill="none" stroke="#000" stroke-width="1.157"/>
                <path id="Path_9468" data-name="Path 9468" d="M218.431,365.771c4.186-5.316,14.651-16.613,21.28-21.265-3.139,8.972-8.372,30.237-5.581,44.857,1.743-13.955,9.418-35.553,17.442-47.848,5.932,13.624,13.954,32.9,13.954,45.191,1.745-14.621-1.743-39.874-6.976-50.839,14.3,6.977,32.1,26.914,39.771,39.209-5.233-17.279-23.026-38.213-32.446-44.859,23.375,3.988,57.215,18.276,69.773,28.909-20.582-18.275-45.7-32.563-63.492-39.21,27.908-2.324,80.239,3.656,95.239,9.305-21.978-11.963-67.331-18.276-94.542-16.614,28.607-11.63,79.542-24.921,120.707-30.57-31.4,1.661-71.866,9.637-113.381,18.608,18.49-11.963,75.7-34.557,89.309-38.545" fill="none" stroke="#000" stroke-width="1.157"/>
                <path id="Path_9469" data-name="Path 9469" d="M192.964,253.461c2.492-7.841,12.657-9.923,20.919-12.28" fill="none" stroke="#000" stroke-width="1.157"/>
                <path id="Path_9470" data-name="Path 9470" d="M206.743,259.277c-6.976-.5-8.216-2.861-4.36-5.484,2.442-1.661,7.5-4.32,10.99-4.652-.873-.165-3.315-.831-4.536-1,3.663-1.5,9.769-3.656,11.861-5.65" fill="none" stroke="#000" stroke-width="1.157"/>
                <path id="Path_9471" data-name="Path 9471" d="M198.632,246.65c-2.669.23-5.471.443-8.285.578" fill="none" stroke="#000" stroke-width="1.157"/>
                <path id="Path_9472" data-name="Path 9472" d="M180.58,285.692a33.708,33.708,0,0,0-5.065.639" fill="none" stroke="#000" stroke-width="1.157"/>
                <path id="Path_9473" data-name="Path 9473" d="M152.209,370.395a19.173,19.173,0,0,0,4.821,12.987c2.791,2.991,19.886,3.988,20.584-1.662" fill="none" stroke="#000" stroke-width="1.157"/>
                <path id="Path_9474" data-name="Path 9474" d="M154.763,363.28c5.93,6.312,25.118,2.491,25.118-2.16" fill="none" stroke="#000" stroke-width="1.157"/>
                <path id="Path_9475" data-name="Path 9475" d="M155.112,343.011c2.093,4.984,24.42,9.469,24.769,3.654" fill="none" stroke="#000" stroke-width="1.157"/>
                <path id="Path_9476" data-name="Path 9476" d="M159.821,327.227c.175,5.815,20.508,9.592,21.107,5.316" fill="none" stroke="#000" stroke-width="1.157"/>
                <path id="Path_9477" data-name="Path 9477" d="M166.624,314.1c.872,4.486,14.3,8.806,16.223,6.812" fill="none" stroke="#000" stroke-width="1.157"/>
                <path id="Path_9478" data-name="Path 9478" d="M172.381,303.137c.635,3.151,10.291,5.981,13.6,4.818" fill="none" stroke="#000" stroke-width="1.157"/>
                <path id="Path_9479" data-name="Path 9479" d="M177.225,290.993c1.979,2.288,5.819,4.417,12.425,5.5" fill="none" stroke="#000" stroke-width="1.157"/>
                <path id="Path_9480" data-name="Path 9480" d="M143.775,267.417c.173-3.489,3.661-3.987,3.139-7.476" fill="none" stroke="#000" stroke-width="1.157"/>
                <path id="Path_9481" data-name="Path 9481" d="M180.4,281.7c1.221,1.827,4.36,5.649,4.709,8.473,1.745-1.329,3.139-4.154,3.663-5.483a10.89,10.89,0,0,1,3.488,5.317,38.149,38.149,0,0,0,2.094-7.643,16.185,16.185,0,0,1,6.8,3.323,6.74,6.74,0,0,0-2.443-6.148,11.646,11.646,0,0,0,5.582-1.163,17.081,17.081,0,0,0-5.058-4.817c1.745-.5,4.186-2.492,5.233-3.323-1.57-.664-4.36-2.16-6.1-2.99a12.6,12.6,0,0,0,2.442-4.487" fill="none" stroke="#000" stroke-width="1.157"/>
                <path id="Path_9482" data-name="Path 9482" d="M151.448,254.708c-1.133,0-1.657,2.491.437,4.07,1.505,1.135,1.482,5.815-1.221,6.978" fill="none" stroke="#000" stroke-width="1.157"/>
                <path id="Path_9483" data-name="Path 9483" d="M192.265,290.012c-7.674,16.945-14.739,49.094-12.3,72.353" fill="none" stroke="#000" stroke-width="1.157"/>
                <path id="Path_9484" data-name="Path 9484" d="M188.253,394.182c0,3.489,5.757,4.153,5.582-4.154" fill="none" stroke="#000" stroke-width="1.157"/>
                <path id="Path_9485" data-name="Path 9485" d="M193.313,394.182c.7,2.99,6.628,3.654,5.406-5.151" fill="none" stroke="#000" stroke-width="1.157"/>
                <path id="Path_9486" data-name="Path 9486" d="M190.871,396.508c.348,6.479,4.709,6.147,5.057,0" fill="none" stroke="#000" stroke-width="1.157"/>
                <path id="Path_9487" data-name="Path 9487" d="M198.894,392.021c1.744,3.988,6.628,1.994,5.234-6.811" fill="none" stroke="#000" stroke-width="1.157"/>
                <path id="Path_9488" data-name="Path 9488" d="M204.3,389.031c1.92,3.324,6.454.665,6.978-5.15" fill="none" stroke="#000" stroke-width="1.157"/>
                <path id="Path_9489" data-name="Path 9489" d="M181.626,370.59c-2.994,3.122-6.427,10.13-2.269,16.78,2.444,3.9,9.159,6.064,9.856,3.738" fill="none" stroke="#000" stroke-width="1.157"/>
                <path id="Path_9490" data-name="Path 9490" d="M179.357,387.37c-2.7.416-6.68,5.935-4.709,11.214,1.4,3.738,9.42,5.982,10.641,3.24" fill="none" stroke="#000" stroke-width="1.157"/>
                <path id="Path_9491" data-name="Path 9491" d="M261.341,392.021c8.721,1,20.234-4.651,20.932-15.949" fill="none" stroke="#000" stroke-width="1.157"/>
                <path id="Path_9492" data-name="Path 9492" d="M281.225,381.388c4.885,2.991,15,3.988,19.188-3.654" fill="none" stroke="#000" stroke-width="1.157"/>
                <path id="Path_9493" data-name="Path 9493" d="M285.761,383.714c-4.536,9.969-8.644,20.56.7,28.244,7.675,6.314,13.376-3.1,22.677,6.314,2.79,2.824-.524,8.14-28.608,23.592" fill="none" stroke="#000" stroke-width="1.157"/>
                <path id="Path_9494" data-name="Path 9494" d="M146.216,371.006c1.832,3.737,1.657,11.048-1.831,10.05" fill="none" stroke="#000" stroke-width="1.157"/>
                <path id="Path_9495" data-name="Path 9495" d="M118.656,453.66c5.93-8.639,12.933-1.658,17.966-3.157" fill="none" stroke="#000" stroke-width="1.157"/>
                <path id="Path_9496" data-name="Path 9496" d="M164.968,256.2c-1.047,2.409,1.738,5.78,4.361,6.065,3.052.332,7.412-1.579,6.454-4.652" fill="#fff" stroke="#000" stroke-width="1.157"/>
                <path id="Path_9497" data-name="Path 9497" d="M161.915,256.452c1.569-2.078,19.886,4.485,27.211-.167" fill="none" stroke="#000" stroke-width="1.157"/>
                <path id="Path_9498" data-name="Path 9498" d="M102.608,318.422c-.7,1.494-.436,5.9,2.268,8.307" fill="none" stroke="#000" stroke-width="1.157"/>
                <path id="Path_9499" data-name="Path 9499" d="M232.036,452.33c1.4-1.66,6.561-3.338,10.379-2.408,3.75.913,10.466-.332,14.826-1.994" fill="none" stroke="#000" stroke-width="1.157"/>
                <g id="Group_5056" data-name="Group 5056">
                  <path id="Path_9500" data-name="Path 9500" d="M192.265,290.012c-1.743,16.281,2.181,41.286,12.211,52.418" fill="none" stroke="#000" stroke-width="1.157"/>
                  <path id="Path_9501" data-name="Path 9501" d="M187,304.467c.287,14.488,4.012,31.689,11.376,41.158" fill="none" stroke="#000" stroke-width="1.157"/>
                  <path id="Path_9502" data-name="Path 9502" d="M182.967,320.256c1.449,10.964,4.713,21.989,9.871,29.149" fill="none" stroke="#000" stroke-width="1.157"/>
                  <path id="Path_9503" data-name="Path 9503" d="M180.439,336.9c1.742,6.507,4.2,12.478,7.38,16.969" fill="none" stroke="#000" stroke-width="1.157"/>
                  <path id="Path_9504" data-name="Path 9504" d="M179.54,352.643a39.433,39.433,0,0,0,3.475,5.988" fill="none" stroke="#000" stroke-width="1.157"/>
                  <path id="Path_9505" data-name="Path 9505" d="M191.917,300.146c-.523,5.151-3.837,9.137-6.8,11.464" fill="none" stroke="#000" stroke-width="1.157"/>
                  <path id="Path_9506" data-name="Path 9506" d="M192.265,307.291a15.535,15.535,0,0,1-8.982,12.044" fill="none" stroke="#000" stroke-width="1.157"/>
                  <path id="Path_9507" data-name="Path 9507" d="M193.313,314.434c-.524,5.15-5.757,11.464-11.687,14.288" fill="none" stroke="#000" stroke-width="1.157"/>
                  <path id="Path_9508" data-name="Path 9508" d="M194.707,321.578c-.522,5.151-7.325,12.959-14.251,15.465" fill="none" stroke="#000" stroke-width="1.157"/>
                  <path id="Path_9509" data-name="Path 9509" d="M196.888,328.722c-2.006,6.978-10.029,15.119-17.093,16.947" fill="none" stroke="#000" stroke-width="1.157"/>
                  <path id="Path_9510" data-name="Path 9510" d="M200.028,335.867c-.524,5.149-11.251,15.617-20.5,18.607" fill="none" stroke="#000" stroke-width="1.157"/>
                </g>
                <path id="Path_9511" data-name="Path 9511" d="M136.012,367.6c1.133,4.734-2.617,9.054-4.536,7.891" fill="none" stroke="#000" stroke-width="1.157"/>
                <path id="Path_9512" data-name="Path 9512" d="M155.984,384.048c-18.141-3.656-31.629-9.746-39.072-23.925-1.92-3.655,3.14-4.652,2.791-7.975" fill="none" stroke="#000" stroke-width="1.157"/>
                <path id="Path_9513" data-name="Path 9513" d="M114.295,332.378c-3.14-5.317-3.838-11.132-2.094-14.786" fill="none" stroke="#000" stroke-width="1.157"/>
                <path id="Path_9514" data-name="Path 9514" d="M126.854,361.95c0,2.991-3.75,6.812-5.059,5.4" fill="none" stroke="#000" stroke-width="1.157"/>
                <path id="Path_9515" data-name="Path 9515" d="M157.03,383.382c-2.091,4.837,1.953,14.074,10.826,17.251" fill="none" stroke="#000" stroke-width="1.157"/>
                <path id="Path_9516" data-name="Path 9516" d="M174.648,398.584a5.626,5.626,0,0,0-2.155,3.065" fill="none" stroke="#000" stroke-width="1.157"/>
                <path id="Path_9517" data-name="Path 9517" d="M181.8,408.469c-1.571,2.493-7.676.666-8.9-1.495" fill="none" stroke="#000" stroke-width="1.157"/>
                <path id="Path_9518" data-name="Path 9518" d="M157.249,435.717c-7.4,6.926-14.931,7.317-23.94,8.306-9.072,1-11.6-2.907-14.827.332" fill="none" stroke="#000" stroke-width="1.157"/>
                <path id="Path_9519" data-name="Path 9519" d="M216.337,383.714c1.048,4.653.7,9.305-3.488,16.283-2.311,3.85-.122,8,.276,12.964" fill="none" stroke="#000" stroke-width="1.157"/>
                <path id="Path_9520" data-name="Path 9520" d="M256.5,397.171c4-3.006,6.637-7.964,7.978-11.795" fill="none" stroke="#000" stroke-width="1.157"/>
                <path id="Path_9521" data-name="Path 9521" d="M243.82,398.986a19.26,19.26,0,0,0,1.822-20.588" fill="none" stroke="#000" stroke-width="1.157"/>
                <path id="Path_9522" data-name="Path 9522" d="M222.518,406.249c2.681-3.944,4.285-9.561,4.285-16.886" fill="none" stroke="#000" stroke-width="1.157"/>
                <path id="Path_9523" data-name="Path 9523" d="M168.369,416.943c.7,3.4,6.1,4.9,6.977,3.24" fill="none" stroke="#000" stroke-width="1.157"/>
                <path id="Path_9524" data-name="Path 9524" d="M211.628,376.9c0,3.322-3.489,5.815-6.106,3.821.349,4.818-3.313,6.314-5.93,3.988.524,6.812-5.407,7.476-9.245,2.159-4.361,20.435-19.012,35.72-20.06,45.689-.348,2.326-9.681,1.662-7.239-5.15" fill="none" stroke="#000" stroke-width="1.157"/>
                <path id="Path_9525" data-name="Path 9525" d="M274.947,395.677c-5.234-.623-14.437-2.154-18.444,1.494" fill="none" stroke="#000" stroke-width="1.157"/>
                <path id="Path_9526" data-name="Path 9526" d="M277.04,411.294c-4.836,1.827-8.744,2.469-11.859,2.252" fill="none" stroke="#000" stroke-width="1.157"/>
                <path id="Path_9527" data-name="Path 9527" d="M290.383,425.239c4.82-.18,9.792-3.233,11.775-10.788" fill="none" stroke="#000" stroke-width="1.157"/>
                <path id="Path_9528" data-name="Path 9528" d="M281.046,421.411a14.443,14.443,0,0,0,9.425-7.292" fill="none" stroke="#000" stroke-width="1.157"/>
                <path id="Path_9529" data-name="Path 9529" d="M304.773,426.911a44.412,44.412,0,0,0-14.39-1.672" fill="none" stroke="#000" stroke-width="1.157"/>
                <path id="Path_9530" data-name="Path 9530" d="M287.506,438.043c1.919-1-1.221-5.484-4.362-5.484" fill="none" stroke="#000" stroke-width="1.157"/>
                <path id="Path_9531" data-name="Path 9531" d="M250.875,445.518a77.143,77.143,0,0,0,12.733-6.644" fill="none" stroke="#000" stroke-width="1.157"/>
                <path id="Path_9532" data-name="Path 9532" d="M275.906,437.212c2.369.753,5.843,3.654,4.622,4.652" fill="none" stroke="#000" stroke-width="1.157"/>
                <path id="Path_9533" data-name="Path 9533" d="M298.321,375.076c2.791,4.652,8.022,7.642,15,4.652.491,1.4,2.15,2.839,4.215,3.988" fill="none" stroke="#000" stroke-width="1.157"/>
                <path id="Path_9534" data-name="Path 9534" d="M336.869,373.912c3.49,2.659-2.616,12.461-11.686,12.128" fill="none" stroke="#000" stroke-width="1.157"/>
                <path id="Path_9535" data-name="Path 9535" d="M385.71,433.889c1.21,2.765,5.757,2.492,7.5,0,1.993-2.847,5.582-11.63,3.489-29.241s-19.885-19.936-40.469-23.924-25.816-10.3-30-21.93" fill="none" stroke="#000" stroke-width="1.157"/>
                <path id="Path_9536" data-name="Path 9536" d="M389.2,424.752c1.744,2.823,6.628,2.159,7.326-.666" fill="none" stroke="#000" stroke-width="1.157"/>
                <path id="Path_9537" data-name="Path 9537" d="M389.722,415.282c2.617,1.495,7.675,1,7.5-2.326" fill="none" stroke="#000" stroke-width="1.157"/>
                <path id="Path_9538" data-name="Path 9538" d="M388.327,404.815c2.267,0,8.373.332,8.024-2.327" fill="none" stroke="#000" stroke-width="1.157"/>
                <path id="Path_9539" data-name="Path 9539" d="M382.57,398c1.919-1.33,7.327-6.978,4.361-8.64" fill="none" stroke="#000" stroke-width="1.157"/>
                <path id="Path_9540" data-name="Path 9540" d="M372.8,397.007c3.313-1.829,6.976-11.3,2.964-12.129" fill="none" stroke="#000" stroke-width="1.157"/>
                <path id="Path_9541" data-name="Path 9541" d="M356.929,395.178c5.233-1.994,10.117-12.3,6.629-12.959" fill="none" stroke="#000" stroke-width="1.157"/>
                <path id="Path_9542" data-name="Path 9542" d="M340.01,392.852c8.546-2.159,11.164-13.124,7.849-14.122" fill="none" stroke="#000" stroke-width="1.157"/>
                <path id="Path_9543" data-name="Path 9543" d="M351.7,442.029c8.9.679,13.78,5.151,17.269,6.978" fill="none" stroke="#000" stroke-width="1.157"/>
                <path id="Path_9544" data-name="Path 9544" d="M349.6,351.816c8.11-.748,16.083,11.067,27.137,19.9" fill="none" stroke="#000" stroke-width="1.157"/>
                <path id="Path_9545" data-name="Path 9545" d="M439.034,299.483c1.526-5.147,2.8-9.983,3.367-12.794" fill="none" stroke="#000" stroke-width="1.157"/>
                <path id="Path_9546" data-name="Path 9546" d="M356.739,451.967a38.232,38.232,0,0,1,6.295-.467" fill="none" stroke="#000" stroke-width="1.157"/>
                <path id="Path_9547" data-name="Path 9547" d="M435.772,282.7c-1.179,3.181-3.713,9.654-6.239,15.877" fill="none" stroke="#000" stroke-width="1.157"/>
                <path id="Path_9548" data-name="Path 9548" d="M216.359,337.419c-15.385,5.052-31.316,14.752-41.536,32.672,5.582,1.329,16.4,0,21.28-1.661.349,4.32.349,9.968.349,13.624,4.885-3.656,10.815-8.972,15.351-10.3-.35,4.319-.35,11.961-.35,14.953,6.629-6.646,19.187-7.31,22.677,2.657,2.79-14.62,25.815-15.284,31.4-2.657,6.281-11.63,22.329-15.951,32.8-11.63,4.534-12.295,24.419-18.94,37.327-15.95-4.279-5.632-3.514-11.861-.008-17.213" fill="none" stroke="#000" stroke-width="1.157"/>
              </g>
            </g>
            <path id="Path_9549" data-name="Path 9549" d="M167.032,256.77l6.842,1.205S169.058,264.121,167.032,256.77Z" stroke="#000" stroke-linejoin="round" stroke-width="1.692"/>
          </g>
        </g>
      </g>
    </g>
  </g>
</svg>
