<svg xmlns="http://www.w3.org/2000/svg" xmlns:xlink="http://www.w3.org/1999/xlink" width="291.65" height="332.632" viewBox="0 0 291.65 332.632">
  <defs>
    <clipPath id="clip-path">
      <path id="Path_14131" data-name="Path 14131" d="M316.863,507,449,356.284,581.136,507,449,657.715Z" fill="none"/>
    </clipPath>
  </defs>
  <g id="Group_4464" data-name="Group 4464" transform="translate(-303.192 -340.684)">
    <path id="Path_7082" data-name="Path 7082" d="M303.192,507,449.017,340.684,594.843,507,449.017,673.316Z" fill="#fff"/>
    <g id="Group_4463" data-name="Group 4463">
      <g id="Group_9215" data-name="Group 9215">
        <g id="Group_9214" data-name="Group 9214" clip-path="url(#clip-path)">
          <g id="Group_9213" data-name="Group 9213">
            <rect id="Rectangle_481" data-name="Rectangle 481" width="908.453" height="110.665" transform="translate(-5.227 562.335)" fill="#49a9f6"/>
            <rect id="Rectangle_482" data-name="Rectangle 482" width="908.453" height="110.665" transform="translate(-5.227 341)" fill="#49a9f6"/>
            <rect id="Rectangle_483" data-name="Rectangle 483" width="908.453" height="110.667" transform="translate(-5.227 451.668)" fill="#fff"/>
            <g id="Group_9212" data-name="Group 9212">
              <path id="Path_14079" data-name="Path 14079" d="M491.41,506.6a.858.858,0,0,0-.79-.425l-.336-.01c-12.719-.487-19.826-.708-23.814-.795-.007-.068-.012-.137-.018-.205.842-.258,1.794-.594,2.781-.946a28.172,28.172,0,0,1,6.173-1.734,10.825,10.825,0,0,1,1.345.036,12.925,12.925,0,0,0,4.724-.359,14.457,14.457,0,0,0,3.5-1.657c1.4-.849,2.412-1.463,4.438-.893.395.112.9.185,1.057-.1s-.182-.654-.455-.9a5.232,5.232,0,0,0-4.762-.513c-5.418,2.344-7.216,2.119-8.951,1.9a9.063,9.063,0,0,0-3.407.077,31.281,31.281,0,0,0-3.5.97c-.5.16-1.01.328-1.607.5a7.764,7.764,0,0,1-1.979.409c-.018-.059-.032-.117-.05-.175l22.05-10.032a.763.763,0,0,0,.5-.6.789.789,0,0,0-.272-.745.86.86,0,0,0-.895-.089c-.141.052-15.073,5.644-22.637,8.478-.028-.053-.054-.107-.081-.159.678-.558,1.425-1.233,2.2-1.935a27.8,27.8,0,0,1,5.048-3.97,11.181,11.181,0,0,1,1.255-.482,12.975,12.975,0,0,0,4.23-2.14,14.657,14.657,0,0,0,2.3-2.543c1.112-1.456,1.99-2.607,4.048-2.848.593-.071.908-.24.939-.5.037-.329-.422-.534-.77-.66a5.2,5.2,0,0,0-4.593,1.349c-4.1,4.226-5.9,4.73-7.631,5.217a8.947,8.947,0,0,0-3.032,1.337,30.212,30.212,0,0,0-3.286,2.592,8.9,8.9,0,0,1-2.6,1.791c-.019-.023-.039-.044-.057-.067l10.558-11.309,5.98-6.407a.77.77,0,0,0,.232-.75.8.8,0,0,0-.537-.579.851.851,0,0,0-.853.252l-17.678,16.5c-.045-.037-.093-.073-.138-.111.415-.78.851-1.694,1.3-2.642a28.232,28.232,0,0,1,3.138-5.6,11.019,11.019,0,0,1,.967-.916,12.958,12.958,0,0,0,3.1-3.6,14.6,14.6,0,0,0,1.3-3.64c.389-1.59.67-2.741,2.507-3.772.52-.292.747-.566.677-.818-.09-.318-.594-.333-.962-.318a5.207,5.207,0,0,0-3.729,3.006c-2.177,5.483-3.639,6.631-5.055,7.741a8.917,8.917,0,0,0-2.287,2.394,31.243,31.243,0,0,0-2.022,3.605,9.275,9.275,0,0,1-1.742,2.693c-.024-.013-.05-.024-.075-.037l8.5-22.694a.791.791,0,0,0-.4-1.047.814.814,0,0,0-1.088.5l-.016.039c-.075.162-.419.917-1.717,3.774-2.2,4.834-6,13.179-8.276,18.182-.056-.016-.115-.031-.172-.049.085-.877.137-1.883.189-2.928a28.017,28.017,0,0,1,.759-6.373,11.155,11.155,0,0,1,.546-1.224,12.98,12.98,0,0,0,1.48-4.508,15.346,15.346,0,0,0-.162-3.633c-.229-1.72-.409-3.08.842-4.671.369-.469.474-.81.312-1.015-.206-.259-.675-.081-1.012.077a5.2,5.2,0,0,0-2.293,4.2c.084,5.917-.813,7.493-1.68,9.018a8.927,8.927,0,0,0-1.224,3.158,30.506,30.506,0,0,0-.489,4.114,9.281,9.281,0,0,1-.576,3.142c-.029,0-.058,0-.088-.006l-.214-6.248c-.183-5.368-.2-5.811-.618-17.969a.788.788,0,0,0-.775-.8.8.8,0,0,0-.808.873l-.005.19h0c-.062,1.816-.563,16.38-.824,23.964-.059.006-.119.009-.179.016-.256-.843-.6-1.8-.948-2.781a28.054,28.054,0,0,1-1.735-6.175,11.179,11.179,0,0,1,.037-1.339,12.978,12.978,0,0,0-.355-4.728,14.512,14.512,0,0,0-1.658-3.49c-.85-1.4-1.462-2.409-.894-4.446.161-.573.125-.928-.1-1.055-.289-.159-.654.185-.9.457a5.22,5.22,0,0,0-.513,4.761c2.338,5.416,2.115,7.263,1.9,9.05a8.946,8.946,0,0,0,.076,3.31,30.96,30.96,0,0,0,1.12,3.981,9.233,9.233,0,0,1,.672,3.128l-.082.023-10.037-22.05a.791.791,0,0,0-1.011-.466.819.819,0,0,0-.427,1.132l.047.122h0c.538,1.439,5.742,15.336,8.431,22.517-.053.029-.107.055-.159.083-.561-.682-1.24-1.434-1.944-2.213a27.819,27.819,0,0,1-3.963-5.035,10.84,10.84,0,0,1-.48-1.255,12.985,12.985,0,0,0-2.138-4.232,14.708,14.708,0,0,0-2.542-2.3c-1.454-1.11-2.6-1.988-2.852-4.048-.07-.593-.237-.908-.5-.939-.324-.038-.535.419-.662.769-.8,2.217.8,3.941,2.664,5.935a25.342,25.342,0,0,1,2.42,2.872,12.789,12.789,0,0,1,1.437,3.272,12.574,12.574,0,0,0,1.386,3.175,30.3,30.3,0,0,0,2.571,3.265,9.163,9.163,0,0,1,1.81,2.626c-.023.018-.044.038-.065.057l-2.505-2.338c-5.126-4.783-5.126-4.783-11.526-10.762l-3.685-3.441a.782.782,0,0,0-1.122-.029.812.812,0,0,0,.049,1.2l16.5,17.671c-.038.045-.073.092-.111.138-.777-.412-1.688-.846-2.633-1.3a28.285,28.285,0,0,1-5.606-3.146,11.181,11.181,0,0,1-.924-.974,12.924,12.924,0,0,0-3.593-3.089,14.475,14.475,0,0,0-3.642-1.3c-1.59-.39-2.741-.671-3.772-2.513-.294-.518-.566-.745-.82-.674-.318.093-.332.594-.316.965a5.219,5.219,0,0,0,3.006,3.726c5.486,2.179,6.607,3.615,7.688,5.005a8.963,8.963,0,0,0,2.448,2.339,30.854,30.854,0,0,0,3.608,2.022,9.253,9.253,0,0,1,2.691,1.741c-.013.026-.026.052-.039.076l-22.7-8.5a.784.784,0,0,0-1.042.4.815.815,0,0,0,.5,1.094l.258.114h0l3.943,1.8,17.8,8.1c-.016.057-.03.116-.048.172-.88-.084-1.89-.136-2.94-.189a28.033,28.033,0,0,1-6.361-.758,11.454,11.454,0,0,1-1.231-.549,12.937,12.937,0,0,0-4.5-1.476,15.29,15.29,0,0,0-3.64.161c-1.719.229-3.075.411-4.668-.844-.469-.367-.81-.471-1.014-.31-.258.206-.082.675.074,1.011.979,2.1,3.493,2.2,6.156,2.31a26.364,26.364,0,0,1,3.668.323,12.775,12.775,0,0,1,3.334,1.3,12.608,12.608,0,0,0,3.22,1.264,30.018,30.018,0,0,0,4.132.489,9.123,9.123,0,0,1,3.126.574c0,.03,0,.061-.006.09-17.41.6-24.222.833-24.211.833a.788.788,0,0,0-.05,1.576l24.266.831c.006.06.009.12.016.18-.843.258-1.792.6-2.778.948a28.122,28.122,0,0,1-6.178,1.737,11.322,11.322,0,0,1-1.337-.036,12.931,12.931,0,0,0-4.73.357,14.465,14.465,0,0,0-3.5,1.659c-1.394.846-2.4,1.458-4.439.891-.573-.16-.929-.128-1.055.1-.161.289.183.656.456.906a3.292,3.292,0,0,0,2.329.86,13.343,13.343,0,0,0,4.25-1.084,25.967,25.967,0,0,1,3.5-1.1,12.777,12.777,0,0,1,3.576-.074,12.513,12.513,0,0,0,3.462-.067,29.941,29.941,0,0,0,4-1.126,9.152,9.152,0,0,1,3.106-.666c.009.028.016.056.024.083l-22.05,10.037a.8.8,0,0,0-.459,1.022.747.747,0,0,0,.725.49,1.229,1.229,0,0,0,.4-.074l.122-.048h0l22.519-8.431c.027.052.053.106.082.157-.68.56-1.428,1.234-2.2,1.935a27.984,27.984,0,0,1-5.048,3.972,11.01,11.01,0,0,1-1.255.483,12.9,12.9,0,0,0-4.227,2.137,14.462,14.462,0,0,0-2.6,2.876c-.961,1.315-1.656,2.263-3.753,2.516-.593.072-.907.239-.938.5-.037.33.42.536.768.663a3.371,3.371,0,0,0,1.16.212c1.687,0,3.138-1.35,4.769-2.873a25.9,25.9,0,0,1,2.878-2.425,12.834,12.834,0,0,1,3.274-1.435,12.5,12.5,0,0,0,3.175-1.385,30.83,30.83,0,0,0,3.257-2.563,9.229,9.229,0,0,1,2.634-1.818c.018.022.037.042.055.064l-16.541,17.716a.791.791,0,0,0-.032,1.118.761.761,0,0,0,.552.24.954.954,0,0,0,.648-.284l.461-.433,17.211-16.067c.048.042.1.081.152.122a26.592,26.592,0,0,0-1.407,2.824,15.125,15.125,0,0,1-4.511,6.777,10.72,10.72,0,0,0-2.6,3.144,14.454,14.454,0,0,0-1.3,3.656c-.385,1.581-.664,2.724-2.507,3.759-.519.291-.748.567-.677.817.077.268.445.321.781.321.064,0,.125,0,.184-.005a5.207,5.207,0,0,0,3.727-3c2.186-5.5,3.616-6.609,5-7.684a8.955,8.955,0,0,0,2.341-2.451,30.031,30.031,0,0,0,2.081-3.724,8.423,8.423,0,0,1,1.675-2.582l.084.043-8.5,22.7a.792.792,0,0,0,.4,1.037.812.812,0,0,0,.329.071.792.792,0,0,0,.272-.048.779.779,0,0,0,.442-.414l.048-.1,10.009-21.995c.062.02.125.034.188.054a26.47,26.47,0,0,0-.215,3.142,15.117,15.117,0,0,1-1.575,7.983,10.7,10.7,0,0,0-1.2,3.9,15.216,15.216,0,0,0,.164,3.633c.229,1.719.41,3.076-.844,4.676-.369.468-.473.809-.31,1.013a.379.379,0,0,0,.313.132,1.808,1.808,0,0,0,.7-.207,5.211,5.211,0,0,0,2.3-4.2c-.086-5.91.81-7.486,1.677-9.012a8.94,8.94,0,0,0,1.225-3.166,30.786,30.786,0,0,0,.49-4.11,9.256,9.256,0,0,1,.576-3.145c.03,0,.057.005.086.006l.835,24.217a.786.786,0,0,0,.769.813.122.122,0,0,0,.026,0,.808.808,0,0,0,.786-.882v-.055c.008-.22.044-1.241.193-5.58.179-5.243.461-13.442.636-18.52l.2-.017a26.36,26.36,0,0,0,1,2.981,15.231,15.231,0,0,1,1.6,8,10.724,10.724,0,0,0,.383,4.045,14.575,14.575,0,0,0,1.658,3.495c.849,1.4,1.464,2.414.893,4.441-.161.575-.127.93.1,1.057a.321.321,0,0,0,.159.04c.257,0,.541-.273.747-.5a5.219,5.219,0,0,0,.511-4.762c-2.339-5.417-2.115-7.228-1.9-8.98a8.942,8.942,0,0,0-.08-3.378,30.394,30.394,0,0,0-1.118-3.98,9.261,9.261,0,0,1-.672-3.131l.083-.024,2.9,6.363c1.9,4.176,2.378,5.23,7.139,15.686a.775.775,0,0,0,.737.509.815.815,0,0,0,.279-.049.805.805,0,0,0,.421-1.123l-.013-.033c-4.206-11.226-6.93-18.5-8.467-22.608l.175-.091a27.247,27.247,0,0,0,2.067,2.375,15.108,15.108,0,0,1,4.532,6.757,10.694,10.694,0,0,0,1.91,3.609,14.485,14.485,0,0,0,2.873,2.6c1.315.964,2.267,1.66,2.52,3.756.071.594.24.911.5.94h.038c.306,0,.5-.435.623-.769a5.209,5.209,0,0,0-1.351-4.6c-4.248-4.133-4.722-5.868-5.179-7.547a9.041,9.041,0,0,0-1.375-3.115,30.452,30.452,0,0,0-2.646-3.352,8.428,8.428,0,0,1-1.744-2.53c.026-.021.049-.044.073-.063l17.718,16.542a.774.774,0,0,0,.566.245.822.822,0,0,0,.556-.218.808.808,0,0,0-.052-1.194l-4.383-4.7-12.114-12.976c.037-.046.073-.093.11-.138.781.415,1.7.852,2.649,1.3a28.006,28.006,0,0,1,5.589,3.136,11.022,11.022,0,0,1,.922.973,12.97,12.97,0,0,0,3.6,3.09,14.452,14.452,0,0,0,3.643,1.3c1.586.388,2.73.669,3.77,2.51.257.456.5.687.728.687a.364.364,0,0,0,.091-.013c.318-.091.332-.593.316-.961-.1-2.359-2.253-3.339-4.741-4.473a25.278,25.278,0,0,1-3.325-1.72,12.822,12.822,0,0,1-2.581-2.476,12.534,12.534,0,0,0-2.495-2.4,30.446,30.446,0,0,0-3.616-2.027,9.264,9.264,0,0,1-2.683-1.737c.014-.026.026-.052.04-.076l5.016,1.878,16.653,6.238,1.024.383a.786.786,0,0,0,1.047-.4.811.811,0,0,0-.5-1.087l-.036-.016c-9.093-4.136-17.273-7.86-21.961-9.993.018-.057.033-.115.051-.172.875.084,1.879.136,2.92.187a28.212,28.212,0,0,1,6.382.759,11.449,11.449,0,0,1,1.219.546,13,13,0,0,0,4.51,1.482,15.277,15.277,0,0,0,3.641-.164c1.71-.232,3.064-.414,4.665.842a1.446,1.446,0,0,0,.792.385.352.352,0,0,0,.224-.073c.26-.206.081-.674-.075-1.008-1-2.138-3.353-2.221-6.08-2.316a25.533,25.533,0,0,1-3.745-.32,12.775,12.775,0,0,1-3.334-1.3,12.532,12.532,0,0,0-3.221-1.263,30.207,30.207,0,0,0-4.149-.49,9.024,9.024,0,0,1-3.107-.572c0-.029,0-.059.007-.089l24.215-.833a.774.774,0,0,0,.692-.361A.8.8,0,0,0,491.41,506.6Z" fill="#853409"/>
              <g id="Group_9211" data-name="Group 9211">
                <path id="Path_14080" data-name="Path 14080" d="M449,490.233A16.767,16.767,0,1,0,465.767,507,16.786,16.786,0,0,0,449,490.233Z" fill="#ffc703"/>
                <path id="Path_14081" data-name="Path 14081" d="M440.24,504.865l-.086-.055-.033-.019.025-.029.065-.077h0a3.868,3.868,0,0,1,5.969-.134l.067.086c-.028.028-.046.043-.078.073v0h0a5.281,5.281,0,0,1-5.924.151Z" fill="#853409"/>
                <path id="Path_14082" data-name="Path 14082" d="M458.052,504.81l-.09.055h0a5.268,5.268,0,0,1-5.925-.151v0l-.06-.053-.019-.02.016-.021.05-.065a3.9,3.9,0,0,1,5.971.134h0l.063.077.023.029Z" fill="#853409"/>
                <path id="Path_14083" data-name="Path 14083" d="M448.965,478.585c.005.206.182,6.957.285,10.874.325,0,.65.017.971.04l-.213-6.207c-.183-5.37-.2-5.811-.618-17.976V465.3a.429.429,0,0,0-.423-.437c-.257-.008-.4.168-.429.473v.043l-.831,24.12c.323-.023.648-.039.974-.044C448.827,483.86,448.773,485.875,448.965,478.585Z" fill="#ffc703"/>
                <path id="Path_14084" data-name="Path 14084" d="M454.3,479.545c-1.854,4.26-.638,3.609-1.495,10.326.276.062.552.13.823.2.08-.852.13-1.831.18-2.845a27.811,27.811,0,0,1,.779-6.47,11.294,11.294,0,0,1,.564-1.268,12.651,12.651,0,0,0,1.444-4.383,14.962,14.962,0,0,0-.16-3.55c-.231-1.735-.429-3.235.917-4.946a.332.332,0,1,0-.258-.383,4.87,4.87,0,0,0-2.084,3.867c.086,6.015-.836,7.635-1.728,9.2a8.631,8.631,0,0,0-1.181,3.045,30.138,30.138,0,0,0-.484,4.069,9.67,9.67,0,0,1-.568,3.162c.349.041.7.093,1.039.153C453.354,484.264,451.942,483.022,454.3,479.545Z" fill="#ffc703"/>
                <path id="Path_14085" data-name="Path 14085" d="M432.651,468.736c.082.218,5.636,15.054,8.461,22.6.288-.146.582-.286.88-.416-1.8-4.679-1.3-3.376-3.9-10.156l4.424,9.939c.3-.121.6-.232.912-.336L433.4,468.329a.424.424,0,0,0-.549-.258c-.18.067-.33.263-.226.617Z" fill="#ffc703"/>
                <path id="Path_14086" data-name="Path 14086" d="M442.355,479.844a8.656,8.656,0,0,0,.07,3.191,30.255,30.255,0,0,0,1.11,3.94,9.7,9.7,0,0,1,.687,3.143q.5-.141,1.016-.257c-.914-5.53-2.7-6.14-1.852-10.252-.083,4.657.789,3.555,2.573,10.113q.415-.073.837-.127c-.251-.82-.581-1.747-.923-2.706a27.762,27.762,0,0,1-1.757-6.27,11.514,11.514,0,0,1,.038-1.388,12.7,12.7,0,0,0-.341-4.6,14.281,14.281,0,0,0-1.62-3.409c-.864-1.42-1.546-2.543-.934-4.731a1.283,1.283,0,0,0,.07-.63,1.239,1.239,0,0,0-.454.376,4.871,4.871,0,0,0-.448,4.37C442.8,476.112,442.566,478.1,442.355,479.844Z" fill="#ffc703"/>
                <path id="Path_14087" data-name="Path 14087" d="M419.25,477.906l16.471,17.641c.213-.245.43-.485.656-.719-3.458-3.641-2.494-2.625-7.5-7.9,3.771,3.58,6.326,6.006,7.9,7.494q.348-.337.716-.657l-2.476-2.311c-5.126-4.784-5.126-4.784-11.528-10.762l-3.694-3.451a.418.418,0,0,0-.611-.021.441.441,0,0,0,.036.652Z" fill="#ffc703"/>
                <path id="Path_14088" data-name="Path 14088" d="M430.932,480.925a13.123,13.123,0,0,1,1.483,3.367,12.029,12.029,0,0,0,1.342,3.081,30.024,30.024,0,0,0,2.542,3.23,9.572,9.572,0,0,1,1.831,2.636c.274-.216.553-.425.841-.627-2.966-4.769-4.844-4.645-5.641-8.77,1.709,4.334,2.094,2.988,6.251,8.363.237-.151.479-.3.724-.438-.547-.663-1.208-1.395-1.893-2.153a27.853,27.853,0,0,1-4.019-5.118,11.255,11.255,0,0,1-.5-1.3,12.647,12.647,0,0,0-2.073-4.118,14.218,14.218,0,0,0-2.482-2.247c-1.464-1.117-2.727-2.081-2.993-4.3a1.268,1.268,0,0,0-.175-.609,1.251,1.251,0,0,0-.279.521c-.728,2.007.808,3.654,2.589,5.563A25.924,25.924,0,0,1,430.932,480.925Z" fill="#ffc703"/>
                <path id="Path_14089" data-name="Path 14089" d="M410.324,491.478l.055.026,4.2,1.912c9.316,4.238,14.674,6.678,17.76,8.082.1-.308.214-.613.333-.915-4.581-2.041-3.3-1.471-9.941-4.425,4.839,1.857,8.134,3.121,10.155,3.9.13-.3.268-.591.412-.882l-22.673-8.492a.419.419,0,0,0-.567.212C409.98,491.072,410.011,491.312,410.324,491.478Z" fill="#ffc703"/>
                <path id="Path_14090" data-name="Path 14090" d="M417.2,487.327c5.579,2.216,6.728,3.693,7.84,5.12a8.686,8.686,0,0,0,2.36,2.258,30.757,30.757,0,0,0,3.57,2,9.657,9.657,0,0,1,2.712,1.74q.255-.457.541-.9c-4.494-3.212-6.279-2.48-8.568-5.946,2.039,2.114,5.371,3.37,8.967,5.349q.249-.354.515-.7c-.757-.4-1.643-.821-2.562-1.258a27.965,27.965,0,0,1-5.688-3.2,11.673,11.673,0,0,1-.959-1.01,12.63,12.63,0,0,0-3.49-3.006,14.181,14.181,0,0,0-3.557-1.266c-1.618-.4-2.895-.71-4-2.687a1.294,1.294,0,0,0-.4-.495,1.234,1.234,0,0,0-.057.589A4.876,4.876,0,0,0,417.2,487.327Z" fill="#ffc703"/>
                <path id="Path_14091" data-name="Path 14091" d="M431.46,507.319c-3.993-.1-10.927-.286-10.876-.283l10.874-.283c0-.327.018-.65.041-.971l-24.183.829H407.3a.4.4,0,0,0-.424.413.4.4,0,0,0,.4.435l24.227.832C431.481,507.968,431.465,507.645,431.46,507.319Z" fill="#ffc703"/>
                <path id="Path_14092" data-name="Path 14092" d="M414.067,501.008a26.651,26.651,0,0,1,3.719.329,13.05,13.05,0,0,1,3.433,1.335,12.2,12.2,0,0,0,3.123,1.232,29.7,29.7,0,0,0,4.086.483,9.481,9.481,0,0,1,3.147.562c.041-.346.093-.69.153-1.029-5.388-1.25-6.745.112-10.183-2.214,4.128,1.793,3.937.685,10.326,1.493q.092-.416.2-.824c-.855-.081-1.837-.132-2.857-.182a27.781,27.781,0,0,1-6.459-.778,11.111,11.111,0,0,1-1.274-.566,12.594,12.594,0,0,0-4.374-1.44,14.857,14.857,0,0,0-3.557.159c-1.732.23-3.229.43-4.943-.919a1.255,1.255,0,0,0-.555-.3,1.282,1.282,0,0,0,.172.565C409.113,500.8,411.408,500.9,414.067,501.008Z" fill="#ffc703"/>
                <path id="Path_14093" data-name="Path 14093" d="M432.916,514.008c-4.681,1.8-3.375,1.294-10.155,3.9l9.936-4.425q-.18-.45-.334-.912L410.33,522.6a.426.426,0,0,0-.253.556c.067.179.263.324.617.213l.039-.016,22.6-8.46Q433.111,514.453,432.916,514.008Z" fill="#ffc703"/>
                <path id="Path_14094" data-name="Path 14094" d="M414.444,514.83A26.127,26.127,0,0,1,418,513.714a13.108,13.108,0,0,1,3.678-.081,12.1,12.1,0,0,0,3.359-.058,30.286,30.286,0,0,0,3.96-1.115,9.467,9.467,0,0,1,3.123-.685c-.1-.335-.18-.671-.256-1.013-5.454.91-6.2,2.688-10.252,1.853,4.5.075,4.019-.9,10.112-2.569-.048-.279-.091-.56-.126-.844-.82.253-1.744.581-2.7.923a27.814,27.814,0,0,1-6.276,1.758,11.4,11.4,0,0,1-1.386-.035,12.639,12.639,0,0,0-4.6.341,14.2,14.2,0,0,0-3.415,1.623c-1.417.86-2.536,1.539-4.726.932a1.282,1.282,0,0,0-.629-.074c.013.048.076.184.374.458C409.78,516.54,411.941,515.747,414.444,514.83Z" fill="#ffc703"/>
                <path id="Path_14095" data-name="Path 14095" d="M436.828,519.623c-4.5,4.271-3.078,2.92-7.9,7.494,3.588-3.779,6.01-6.328,7.5-7.9-.228-.232-.447-.472-.659-.716l-16.527,17.7a.421.421,0,0,0-.019.607c.133.144.371.206.653-.032l.03-.031.461-.431,17.182-16.04C437.3,520.068,437.062,519.848,436.828,519.623Z" fill="#ffc703"/>
                <path id="Path_14096" data-name="Path 14096" d="M422.925,525.066a13.138,13.138,0,0,1,3.365-1.481,12.066,12.066,0,0,0,3.084-1.339,30.315,30.315,0,0,0,3.221-2.537,9.651,9.651,0,0,1,2.646-1.837q-.327-.413-.629-.843c-4.7,2.93-4.693,4.852-8.77,5.639,4.17-1.636,3.269-2.294,8.363-6.248-.153-.238-.3-.48-.44-.727-.659.546-1.388,1.2-2.141,1.886a27.733,27.733,0,0,1-5.129,4.027,11.146,11.146,0,0,1-1.3.5,12.625,12.625,0,0,0-4.113,2.075,14.1,14.1,0,0,0-2.539,2.811c-.979,1.336-1.749,2.391-4,2.662a1.284,1.284,0,0,0-.61.177,1.23,1.23,0,0,0,.521.278c2,.727,3.65-.807,5.556-2.584A25.922,25.922,0,0,1,422.925,525.066Z" fill="#ffc703"/>
                <path id="Path_14097" data-name="Path 14097" d="M442.581,523.327c-2.037,4.581-1.469,3.3-4.425,9.939,1.873-4.874,3.131-8.148,3.9-10.153q-.447-.192-.881-.412l-8.493,22.671a.427.427,0,0,0-.009.322.41.41,0,0,0,.222.238.422.422,0,0,0,.323.013.411.411,0,0,0,.238-.221l.048-.1c.006-.013,6.265-13.77,9.992-21.959Q443.034,523.507,442.581,523.327Z" fill="#ffc703"/>
                <path id="Path_14098" data-name="Path 14098" d="M434.442,530.96A8.639,8.639,0,0,0,436.7,528.6a29.521,29.521,0,0,0,2.059-3.683,8.838,8.838,0,0,1,1.675-2.605c-.3-.169-.6-.348-.888-.534-3.232,4.512-2.471,6.269-5.946,8.566,3.224-3.116,2.239-3.526,5.337-8.975-.227-.159-.451-.325-.67-.495a25.938,25.938,0,0,0-1.357,2.727,15.457,15.457,0,0,1-4.607,6.915,10.4,10.4,0,0,0-2.524,3.045,14.114,14.114,0,0,0-1.27,3.571c-.391,1.608-.7,2.878-2.681,3.991a1.293,1.293,0,0,0-.5.395,1.258,1.258,0,0,0,.59.057,4.877,4.877,0,0,0,3.4-2.774C431.549,533.206,433.02,532.063,434.442,530.96Z" fill="#ffc703"/>
                <path id="Path_14099" data-name="Path 14099" d="M449.035,535.417c-.137-5.19-.228-8.715-.284-10.874-.327-.005-.651-.02-.974-.042l.832,24.194a.425.425,0,0,0,.419.445c.195.006.407-.122.434-.495v-.038c0-.031.079-2.337.193-5.632.329-9.6.522-15.2.635-18.479-.322.024-.645.039-.971.045C449.187,529.552,449.223,528.156,449.035,535.417Z" fill="#ffc703"/>
                <path id="Path_14100" data-name="Path 14100" d="M443.7,534.456c.875-2.018,1.156-2.295,1.209-7.546.005-.59.146-1.773.281-2.781q-.406-.09-.8-.2a25.713,25.713,0,0,0-.206,3.033,15.442,15.442,0,0,1-1.61,8.148,10.4,10.4,0,0,0-1.168,3.779,15.046,15.046,0,0,0,.161,3.55c.232,1.732.432,3.229-.917,4.949a1.287,1.287,0,0,0-.307.555,1.247,1.247,0,0,0,.567-.172,4.871,4.871,0,0,0,2.084-3.866c-.088-6.008.833-7.629,1.724-9.2a8.626,8.626,0,0,0,1.183-3.052,30.224,30.224,0,0,0,.485-4.066,9.659,9.659,0,0,1,.569-3.164c-.349-.041-.693-.092-1.036-.154C444.673,529.643,446.024,531.031,443.7,534.456Z" fill="#ffc703"/>
                <path id="Path_14101" data-name="Path 14101" d="M465.35,545.265c-4.2-11.205-6.92-18.474-8.464-22.6-.289.146-.581.284-.88.415,1.794,4.672,1.3,3.378,3.9,10.155-2.111-4.745-3.545-7.963-4.423-9.937-.3.12-.6.23-.912.334l2.879,6.331c1.9,4.176,2.38,5.23,7.143,15.691l0,.013a.42.42,0,0,0,.551.25c.186-.068.335-.271.21-.639Z" fill="#ffc703"/>
                <path id="Path_14102" data-name="Path 14102" d="M455.646,534.226a8.683,8.683,0,0,0-.073-3.258,29.9,29.9,0,0,0-1.109-3.94,9.713,9.713,0,0,1-.686-3.146q-.5.142-1.016.257c.9,5.472,2.688,6.17,1.852,10.252.037-2.2.188-2.561-1.773-7.433-.219-.547-.542-1.694-.8-2.678-.273.047-.545.089-.821.123a26.259,26.259,0,0,0,.969,2.882,15.55,15.55,0,0,1,1.633,8.161,10.412,10.412,0,0,0,.368,3.92,14.158,14.158,0,0,0,1.62,3.414c.864,1.425,1.546,2.55.932,4.73a1.256,1.256,0,0,0-.07.63c.046-.013.184-.076.457-.375a4.882,4.882,0,0,0,.446-4.371C455.193,537.886,455.424,536.024,455.646,534.226Z" fill="#ffc703"/>
                <path id="Path_14103" data-name="Path 14103" d="M476.584,533.776l-14.306-15.322c-.212.245-.43.486-.655.719l7.493,7.9-7.9-7.493c-.232.225-.47.445-.714.657l17.7,16.526a.426.426,0,0,0,.612.018c.188-.175.16-.43-.07-.683Z" fill="#ffc703"/>
                <path id="Path_14104" data-name="Path 14104" d="M465.569,529.63a8.619,8.619,0,0,0-1.325-3,29.726,29.726,0,0,0-2.616-3.315,8.838,8.838,0,0,1-1.766-2.544c-.272.215-.549.423-.833.62,2.922,4.685,4.853,4.7,5.639,8.772-1.649-4.188-2.3-3.267-6.249-8.364-.234.149-.471.294-.711.432a26.73,26.73,0,0,0,2,2.295,15.431,15.431,0,0,1,4.625,6.9,10.377,10.377,0,0,0,1.847,3.5,14.1,14.1,0,0,0,2.807,2.535c1.337.979,2.394,1.753,2.667,4.006a.332.332,0,1,0,.454.093,4.873,4.873,0,0,0-1.261-4.211C466.525,533.141,466.04,531.356,465.569,529.63Z" fill="#ffc703"/>
                <path id="Path_14105" data-name="Path 14105" d="M487.64,522.507l-.023-.009-21.957-9.993c-.1.309-.215.614-.333.914l9.939,4.422c-4.878-1.87-8.15-3.127-10.153-3.894-.13.3-.268.59-.413.879l4.99,1.869c5.688,2.129,5.688,2.129,16.692,6.251l.988.371a.421.421,0,0,0,.57-.214C488.023,522.921,487.986,522.673,487.64,522.507Z" fill="#ffc703"/>
                <path id="Path_14106" data-name="Path 14106" d="M479.042,525.923a25.607,25.607,0,0,1-3.372-1.747,13.061,13.061,0,0,1-2.658-2.543,12.13,12.13,0,0,0-2.419-2.335,30.478,30.478,0,0,0-3.576-2,9.586,9.586,0,0,1-2.706-1.734q-.256.456-.539.894c4.493,3.209,6.293,2.495,8.566,5.945-3.105-3.221-3.5-2.222-8.973-5.338-.165.234-.333.462-.507.687.76.4,1.653.826,2.576,1.265a27.729,27.729,0,0,1,5.672,3.189,11.446,11.446,0,0,1,.956,1.007,12.62,12.62,0,0,0,3.495,3.009,14.118,14.118,0,0,0,3.558,1.269c1.611.4,2.884.706,4,2.684a1.276,1.276,0,0,0,.4.495,1.223,1.223,0,0,0,.059-.586C483.475,527.944,481.42,527.007,479.042,525.923Z" fill="#ffc703"/>
                <path id="Path_14107" data-name="Path 14107" d="M491.089,506.772a.486.486,0,0,0-.414-.231l-.4-.014c-10.617-.406-18.88-.68-23.774-.8.023.315.038.632.043.95,7.708.2,10.875.286,10.875.286l-10.874.284c0,.326-.018.649-.04.97l24.187-.829h.007a.423.423,0,0,0,.375-.19A.438.438,0,0,0,491.089,506.772Z" fill="#ffc703"/>
                <path id="Path_14108" data-name="Path 14108" d="M484.009,512.987a25.435,25.435,0,0,1-3.8-.324,13.037,13.037,0,0,1-3.433-1.335,12.163,12.163,0,0,0-3.123-1.232,30.3,30.3,0,0,0-4.1-.484,9.379,9.379,0,0,1-3.128-.558c-.04.346-.092.69-.152,1.029,5.369,1.244,6.734-.115,10.184,2.214-4.133-1.793-3.948-.691-10.327-1.495q-.093.417-.2.827c.851.079,1.826.128,2.838.178a27.756,27.756,0,0,1,6.48.778,11.349,11.349,0,0,1,1.264.563,12.676,12.676,0,0,0,4.383,1.448,14.826,14.826,0,0,0,3.558-.164,14.01,14.01,0,0,1,1.847-.169,4.71,4.71,0,0,1,3.092,1.088,1.26,1.26,0,0,0,.557.3,1.234,1.234,0,0,0-.172-.562C488.869,513.158,486.617,513.08,484.009,512.987Z" fill="#ffc703"/>
                <path id="Path_14109" data-name="Path 14109" d="M465.084,499.993c4.679-1.8,3.374-1.3,10.154-3.9l-9.937,4.423c.12.3.232.6.336.913L487.671,491.4a.408.408,0,0,0,.276-.321.434.434,0,0,0-.145-.4.529.529,0,0,0-.536-.031l-22.6,8.464C464.814,499.4,464.954,499.7,465.084,499.993Z" fill="#ffc703"/>
                <path id="Path_14110" data-name="Path 14110" d="M485.393,498.427c-5.509,2.384-7.356,2.151-9.14,1.927a8.658,8.658,0,0,0-3.286.071,30.735,30.735,0,0,0-3.465.961c-.5.161-1.015.33-1.617.506a8.725,8.725,0,0,1-1.979.419q.143.5.252,1.016c3.657-.6,6.365-2.73,10.234-1.941-4.129-.07-3.807.865-10.114,2.574q.073.416.127.836c.819-.253,1.745-.581,2.7-.922a27.809,27.809,0,0,1,6.271-1.754,11.315,11.315,0,0,1,1.394.034,12.627,12.627,0,0,0,4.594-.341,14.2,14.2,0,0,0,3.413-1.622c1.424-.863,2.547-1.545,4.727-.931a1.285,1.285,0,0,0,.632.071c-.013-.047-.077-.184-.375-.456A4.884,4.884,0,0,0,485.393,498.427Z" fill="#ffc703"/>
                <path id="Path_14111" data-name="Path 14111" d="M461.171,494.378c3.645-3.46,2.625-2.493,7.9-7.5l-7.494,7.9c.227.232.445.472.659.716,6.568-7.034,7.055-7.555,10.532-11.28l5.993-6.42a.41.41,0,0,0,.13-.4.437.437,0,0,0-.286-.315.382.382,0,0,0-.106-.015.606.606,0,0,0-.4.19l-17.643,16.471Q460.821,494.04,461.171,494.378Z" fill="#ffc703"/>
                <path id="Path_14112" data-name="Path 14112" d="M471.549,490.468a8.672,8.672,0,0,0-2.924,1.287,29.67,29.67,0,0,0-3.251,2.565,9.294,9.294,0,0,1-2.61,1.815q.324.408.623.836c4.782-2.971,4.639-4.842,8.77-5.639-4.29,1.691-3.108,2.185-8.362,6.249.152.239.3.481.44.727.659-.545,1.386-1.2,2.139-1.884a27.57,27.57,0,0,1,5.131-4.028,11.336,11.336,0,0,1,1.3-.5,12.692,12.692,0,0,0,4.116-2.076,14.156,14.156,0,0,0,2.247-2.484c1.118-1.466,2.084-2.73,4.3-2.988a1.293,1.293,0,0,0,.609-.177,1.257,1.257,0,0,0-.523-.278,4.865,4.865,0,0,0-4.207,1.26C475.173,489.452,473.247,489.991,471.549,490.468Z" fill="#ffc703"/>
                <path id="Path_14113" data-name="Path 14113" d="M455.419,490.673c2.109-4.74,1.344-3.023,4.421-9.938-.032.086-2.481,6.466-3.9,10.152q.449.2.882.412l8.491-22.668a.419.419,0,0,0-.215-.571c-.18-.082-.428-.044-.594.293l-.013.031-1.733,3.81c-4.347,9.556-6.833,15.016-8.258,18.146C454.812,490.442,455.117,490.554,455.419,490.673Z" fill="#ffc703"/>
                <path id="Path_14114" data-name="Path 14114" d="M463.5,483.1a8.621,8.621,0,0,0-2.208,2.307,30.338,30.338,0,0,0-2,3.566,9.735,9.735,0,0,1-1.742,2.714c.307.171.605.352.9.543,3.282-4.576,2.428-6.25,5.942-8.568-3.238,3.13-2.14,3.373-5.337,8.975.234.162.461.331.685.505.4-.76.825-1.648,1.262-2.57a27.937,27.937,0,0,1,3.193-5.68,11.406,11.406,0,0,1,1-.948,12.692,12.692,0,0,0,3.02-3.5,14.187,14.187,0,0,0,1.264-3.556c.4-1.617.711-2.895,2.685-4a1.272,1.272,0,0,0,.5-.4,1.249,1.249,0,0,0-.588-.057,4.865,4.865,0,0,0-3.406,2.774C466.46,480.781,464.89,482.013,463.5,483.1Z" fill="#ffc703"/>
                <path id="Path_14115" data-name="Path 14115" d="M453.839,503.628c-1.456.465-1.819,1.146-.183,1.657,1.315.4.2-.031.2-.831a1.094,1.094,0,0,1,.2-.636C454.237,503.558,454.73,503.339,453.839,503.628Z" fill="#ffc703"/>
                <path id="Path_14116" data-name="Path 14116" d="M456.261,503.74c-1.1-.471-.534-.112-.391.1a1.1,1.1,0,0,1-.008,1.248c-.188.276-.7.451.343.2C457.63,504.939,458.042,504.48,456.261,503.74Z" fill="#ffc703"/>
                <path id="Path_14117" data-name="Path 14117" d="M443.758,505.431c2.335-.169,2.678-1.535.034-1.938A1.1,1.1,0,0,1,443.758,505.431Z" fill="#ffc703"/>
                <path id="Path_14118" data-name="Path 14118" d="M445.826,503.659l.027.017C445.816,503.649,445.811,503.645,445.826,503.659Z" fill="#853409"/>
                <path id="Path_14119" data-name="Path 14119" d="M441.943,503.74c-.972.4-1.685.99-.667,1.334,2.33.82.31-.122,1.057-1.238C442.475,503.626,443.029,503.272,441.943,503.74Z" fill="#ffc703"/>
                <path id="Path_14120" data-name="Path 14120" d="M450.689,510.2a.834.834,0,0,0,1.435.352c.388-.383.389-.873-.239-1.4,2.165,1.045-.287,3.436-1.26,1.639a2.225,2.225,0,0,1-3.048,0c-.925,1.733-3.311-.617-1.484-1.531l.224-.108c-1.4,1.188.473,2.488,1.2,1.045A1.87,1.87,0,0,0,450.689,510.2Z" fill="#853409"/>
                <path id="Path_14121" data-name="Path 14121" d="M442.969,500.359a6.663,6.663,0,0,1,4.911,1.358l.007,0,0,.007a8.341,8.341,0,0,1,.789,3.548c-.05.9-.888,4.441-1.493,3.766a.234.234,0,0,1-.034-.276v-.005c2.068-2.758,1.255-5.988-.037-6.79-2.935-1.81-6.243-.979-8.666,1.276A6.568,6.568,0,0,1,442.969,500.359Z" fill="#853409"/>
                <path id="Path_14122" data-name="Path 14122" d="M439.363,504.457a.122.122,0,0,1,.036-.086c1.38-1.4,3.149-2.393,5.023-1.8a4.652,4.652,0,0,1,1.649.968c.847.639,1.13.62,1.13.62a.117.117,0,0,1,.079.048.124.124,0,0,1,.019.091.115.115,0,0,1-.048.078c-.239.184-1.325-.631-1.425-.712-2.085-1.557-4.382-1-6.255.879A.12.12,0,0,1,439.363,504.457Z" fill="#853409"/>
                <path id="Path_14123" data-name="Path 14123" d="M440.461,505.774a.1.1,0,0,1-.067-.064.117.117,0,0,1,0-.092.108.108,0,0,1,.066-.065.116.116,0,0,1,.093,0c2.21.9,4.231,1.092,6.041-.482a.122.122,0,0,1,.161.183C444.858,507.043,442.842,506.887,440.461,505.774Z" fill="#853409"/>
                <path id="Path_14124" data-name="Path 14124" d="M451.369,519.557c-.248-3.344-4.289-3.351-4.536,0C446.551,515.753,451.672,515.627,451.369,519.557Z" fill="#853409"/>
                <path id="Path_14125" data-name="Path 14125" d="M449.374,516.375c-1.263-.088-1.318.243-2.443-.848a2.3,2.3,0,0,0-1.748-.876c2.23-.307,2.03,1.594,3.918,1.344h.012a2.067,2.067,0,0,0,.483.023,2,2,0,0,0,1.323-.705,1.989,1.989,0,0,1,2.1-.662C451.431,514.815,450.867,516.518,449.374,516.375Z" fill="#853409"/>
                <path id="Path_14126" data-name="Path 14126" d="M445.985,514.32c3.144-.531.821.12,3.116.12,1.838,0,.2-.615,3.13-.119a5.528,5.528,0,0,0-2.151.215c-1.25.636-1.568-.036-2.558-.176a14.236,14.236,0,0,0-1.537-.04h-.012C445.92,514.321,445.931,514.321,445.985,514.32Z" fill="#853409"/>
                <path id="Path_14127" data-name="Path 14127" d="M449.559,513.33c-.839.347-1.317-.638-2.781.073a11.571,11.571,0,0,0-1.855,1.272l.351-.345c.579-.567,1.477-1.69,2.279-1.69.97,0,1.219.652,1.978.3,1.7-.78,2.333.33,3.748,1.732C452.075,513.742,450.926,512.731,449.559,513.33Z" fill="#853409"/>
                <path id="Path_14128" data-name="Path 14128" d="M457.81,505.71a.1.1,0,0,1-.068.064c-2.37,1.11-4.4,1.272-6.292-.52a.111.111,0,0,1-.041-.083.114.114,0,0,1,.03-.087.122.122,0,0,1,.083-.044.2.2,0,0,1,.087.031c1.813,1.576,3.828,1.378,6.045.482a.106.106,0,0,1,.089,0,.105.105,0,0,1,.067.065A.122.122,0,0,1,457.81,505.71Z" fill="#853409"/>
                <path id="Path_14129" data-name="Path 14129" d="M458.633,504.538c-1.864-1.878-4.18-2.451-6.282-.862-.227.169-1.178.874-1.4.7a.11.11,0,0,1-.05-.078.124.124,0,0,1,.019-.091.121.121,0,0,1,.1-.048,3.583,3.583,0,0,0,1.182-.672c2.116-1.872,4.573-1.166,6.6.889A.119.119,0,1,1,458.633,504.538Z" fill="#853409"/>
                <path id="Path_14130" data-name="Path 14130" d="M449.784,505.261a8.786,8.786,0,0,0,1.264,3.5l0,.005c.155.315-.284.669-.568.011a10.59,10.59,0,0,1-.96-3.5,8.317,8.317,0,0,1,.789-3.542.121.121,0,0,1,.011-.019c2.9-2.164,6.8-2,9.431,1.532C455.984,499.719,449.7,500.246,449.784,505.261Z" fill="#853409"/>
              </g>
            </g>
          </g>
        </g>
      </g>
    </g>
  </g>
</svg>
