<svg xmlns="http://www.w3.org/2000/svg" xmlns:xlink="http://www.w3.org/1999/xlink" width="291.65" height="332.632" viewBox="0 0 291.65 332.632">
  <defs>
    <clipPath id="clip-path">
      <path id="Path_36981" data-name="Path 36981" d="M303.115,508.767,435.252,358.051,567.389,508.767,435.252,659.482Z" fill="none"/>
    </clipPath>
  </defs>
  <g id="Group_4464" data-name="Group 4464" transform="translate(-289.192 -340.684)">
    <path id="Path_7082" data-name="Path 7082" d="M289.192,507,435.017,340.684,580.843,507,435.017,673.316Z" fill="#fff"/>
    <g id="Group_4463" data-name="Group 4463">
      <g id="Group_22563" data-name="Group 22563">
        <g id="Group_22562" data-name="Group 22562" clip-path="url(#clip-path)">
          <g id="Group_22561" data-name="Group 22561">
            <rect id="Rectangle_1932" data-name="Rectangle 1932" width="840.71" height="301" transform="translate(14.897 358.267)" fill="#00a133"/>
            <g id="Group_22560" data-name="Group 22560">
              <path id="Path_36688" data-name="Path 36688" d="M301.57,508.761l133.649,85.358,133.715-85.358L435.219,423.415Z" fill="#ffe100"/>
              <g id="Group_22559" data-name="Group 22559">
                <path id="Path_36689" data-name="Path 36689" d="M491.583,508.778A56.331,56.331,0,1,1,435.241,452.4a56.342,56.342,0,0,1,56.342,56.378Z" fill="#1457c7"/>
                <path id="Path_36690" data-name="Path 36690" d="M403.055,484.61a140.807,140.807,0,0,0-19.389,1.371,59.413,59.413,0,0,0-2.992,8.616,132.028,132.028,0,0,1,22.381-1.923,128.275,128.275,0,0,1,85.987,32.939,51.812,51.812,0,0,0,2-8.919,136.2,136.2,0,0,0-87.989-32.084Z" fill="#fff"/>
                <path id="Path_36691" data-name="Path 36691" d="M387.175,492.291a2.691,2.691,0,0,0-.653-5.309,2.477,2.477,0,0,0-2.046,2.948,2.511,2.511,0,0,0,2.7,2.361Zm-.113-.978a1.626,1.626,0,0,0,1.193-1.856,1.541,1.541,0,0,0-1.62-1.5,1.561,1.561,0,0,0-1.214,1.844,1.606,1.606,0,0,0,1.641,1.508Z" fill="#00a133" fill-rule="evenodd"/>
                <path id="Path_36692" data-name="Path 36692" d="M391.561,491.83l.967-.09-.135-1.98,2.182-.147a1.752,1.752,0,0,0,1.551-1.81,1.718,1.718,0,0,0-1.8-1.562l-3.1.213Zm.764-3.059,2.07-.135a.725.725,0,0,0,.629-.753.647.647,0,0,0-.7-.63l-2.091.112Z" fill="#00a133" fill-rule="evenodd"/>
                <path id="Path_36693" data-name="Path 36693" d="M396.082,491.5c-.045-.766-.135-2.441-1.3-2.384l-1.462.1c1.665-.1,1.8,1.6,1.89,2.339Z" fill="#00a133"/>
                <path id="Path_36694" data-name="Path 36694" d="M398.376,491.4l2.5-.057a2.31,2.31,0,0,0,2.3-2.35l-.046-.765a2.322,2.322,0,0,0-2.339-2.261l-2.5.057Zm.946-1.023,1.461-.035a1.423,1.423,0,0,0,1.417-1.473v-.484a1.437,1.437,0,0,0-1.439-1.406l-1.485.035Z" fill="#00a133" fill-rule="evenodd"/>
                <path id="Path_36695" data-name="Path 36695" d="M405.125,491.335l4.858.169.045-1.012-3.891-.135.044-1.361,3.082.08v-.911l-3.038-.113v-1.058l3.711.125v-1.012l-4.589-.158Z" fill="#00a133"/>
                <path id="Path_36696" data-name="Path 36696" d="M411.984,491.616l.922.08.315-3.666.72,3.755.877.079,1.372-3.577-.315,3.667.9.09.472-5.365-1.3-.113-1.416,3.577-.742-3.767-1.35-.113Z" fill="#00a133"/>
                <path id="Path_36697" data-name="Path 36697" d="M423.073,492.865l4.027.675.111-.9-3.035-.516.2-1.2,2.519.427.113-.922-2.452-.417.111-.843,2.97.518.112-.911-3.823-.675Z" fill="#00a133"/>
                <path id="Path_36698" data-name="Path 36698" d="M433.284,494.866l.945.259.54-1.923,2.046.517a1.708,1.708,0,0,0,2.092-1.2,1.766,1.766,0,0,0-1.215-2.07l-2.969-.764Zm1.754-2.655,1.98.529a.643.643,0,0,0,.809-.494.691.691,0,0,0-.472-.843l-2-.518Z" fill="#00a133" fill-rule="evenodd"/>
                <path id="Path_36699" data-name="Path 36699" d="M439.875,496.62l.966.292.608-1.888,2,.64a1.7,1.7,0,0,0,2.136-1.09,1.673,1.673,0,0,0-1.08-2.115l-2.969-.932Zm1.867-2.552,1.978.63a.7.7,0,0,0,.856-.462.651.651,0,0,0-.45-.855l-1.957-.629Z" fill="#00a133" fill-rule="evenodd"/>
                <path id="Path_36700" data-name="Path 36700" d="M444.215,497.993c.248-.732.743-2.329-.337-2.677l-1.372-.45c1.574.518,1.079,2.115.831,2.856Z" fill="#00a133"/>
                <path id="Path_36701" data-name="Path 36701" d="M448.623,499.579a2.566,2.566,0,0,0,3.2-1.664,2.432,2.432,0,1,0-4.521-1.723,2.585,2.585,0,0,0,1.326,3.387Zm.338-.945a1.72,1.72,0,0,0,1.214-3.161,1.624,1.624,0,0,0-1.955,1.091,1.586,1.586,0,0,0,.741,2.07Z" fill="#00a133" fill-rule="evenodd"/>
                <path id="Path_36702" data-name="Path 36702" d="M454.943,502.131a2.7,2.7,0,0,0,2.138-4.927,2.529,2.529,0,0,0-3.262,1.5,2.573,2.573,0,0,0,1.124,3.431Zm.406-.921a1.527,1.527,0,0,0,1.957-.98,1.59,1.59,0,0,0-.608-2.124,1.723,1.723,0,0,0-1.349,3.1Z" fill="#00a133" fill-rule="evenodd"/>
                <path id="Path_36703" data-name="Path 36703" d="M456.361,499.815l1.89.821-.36.7-1.822-.832Z" fill="#00a133"/>
                <path id="Path_36704" data-name="Path 36704" d="M457.531,500.309l.72.326-1.1,2.451-.654-.315Z" fill="#00a133"/>
                <path id="Path_36705" data-name="Path 36705" d="M458.993,503.931l.877.438.878-1.8,1.911.978a1.685,1.685,0,0,0,1.506-3.014l-2.721-1.373Zm2.2-2.227,1.845.911a.674.674,0,0,0,.923-.3.7.7,0,0,0-.292-.922l-1.891-.923Z" fill="#00a133" fill-rule="evenodd"/>
                <path id="Path_36706" data-name="Path 36706" d="M463.041,505.967c.337-.687,1.08-2.194.068-2.712l-1.328-.675c1.553.776.789,2.284.473,2.959Z" fill="#00a133"/>
                <path id="Path_36707" data-name="Path 36707" d="M465.043,507.023l4.229,2.372.45-.865-3.375-1.923.652-1.2,2.676,1.519.45-.833-2.655-1.484.54-.957,3.172,1.822.539-.865-4.048-2.272Z" fill="#00a133"/>
                <path id="Path_36708" data-name="Path 36708" d="M472.893,509.643c-.293.44,0,.956.629,1.372.653.406,1.081.383,1.283.113.584-.944-2.79-2.283-1.755-3.879.878-1.384,2.43-.315,3.014.056a1.76,1.76,0,0,1,.787,2.439l-.989-.641c.338-.46,0-.944-.562-1.236-.495-.36-.9-.505-1.193,0-.518.73,2.834,2.125,1.777,3.745-.7,1.18-2.025.651-2.879.112-.788-.484-1.867-1.609-1.17-2.722Z" fill="#00a133"/>
                <path id="Path_36709" data-name="Path 36709" d="M478.65,513.445c-.337.427-.089.955.54,1.406s1.1.472,1.3.18c.606-.878-2.721-2.419-1.553-3.959.968-1.339,2.476-.181,3.015.2a1.745,1.745,0,0,1,.629,2.485l-.922-.685c.293-.462,0-.934-.517-1.3-.495-.349-.831-.507-1.168-.046-.541.709,2.675,2.306,1.6,3.846-.831,1.148-2.136.562-2.924-.046-.741-.516-1.8-1.685-1.011-2.777Z" fill="#00a133"/>
                <path id="Path_36710" data-name="Path 36710" d="M484.07,519.631a2.7,2.7,0,1,0-.2-3.6,2.55,2.55,0,0,0,.2,3.6Zm.631-.8a1.553,1.553,0,0,0,2.182-.429,1.578,1.578,0,0,0-.089-2.192,1.7,1.7,0,0,0-2.093,2.621Z" fill="#00a133" fill-rule="evenodd"/>
                <path id="Path_36711" data-name="Path 36711" d="M389.221,496.238l-.741,2.3,1.169.381Z" fill="#fff"/>
                <path id="Path_36712" data-name="Path 36712" d="M389.221,496.238l.765,2.3-1.147.381Z" fill="#fff"/>
                <path id="Path_36713" data-name="Path 36713" d="M391.516,497.915H389.11v1.18Z" fill="#fff"/>
                <path id="Path_36714" data-name="Path 36714" d="M391.516,497.915l-1.912,1.4-.764-.966Z" fill="#fff"/>
                <path id="Path_36715" data-name="Path 36715" d="M386.927,497.915l1.957,1.4.72-.966Z" fill="#fff"/>
                <path id="Path_36716" data-name="Path 36716" d="M386.927,497.915h2.429v1.18Z" fill="#fff"/>
                <path id="Path_36717" data-name="Path 36717" d="M390.639,500.6l-.742-2.294-1.124.383Z" fill="#fff"/>
                <path id="Path_36718" data-name="Path 36718" d="M390.639,500.6l-1.957-1.427.72-.978Z" fill="#fff"/>
                <path id="Path_36719" data-name="Path 36719" d="M387.8,500.6l1.957-1.427-.7-.978Z" fill="#fff"/>
                <path id="Path_36720" data-name="Path 36720" d="M387.8,500.6l.765-2.294,1.169.383Z" fill="#fff"/>
                <path id="Path_36721" data-name="Path 36721" d="M394.238,519.934l-.765,2.283,1.17.371Z" fill="#fff"/>
                <path id="Path_36722" data-name="Path 36722" d="M394.238,519.934l.72,2.283-1.125.371Z" fill="#fff"/>
                <path id="Path_36723" data-name="Path 36723" d="M396.488,521.6H394.1v1.216Z" fill="#fff"/>
                <path id="Path_36724" data-name="Path 36724" d="M396.488,521.6l-1.912,1.429-.72-1Z" fill="#fff"/>
                <path id="Path_36725" data-name="Path 36725" d="M391.943,521.6l1.912,1.429.765-1Z" fill="#fff"/>
                <path id="Path_36726" data-name="Path 36726" d="M391.943,521.6h2.43v1.216Z" fill="#fff"/>
                <path id="Path_36727" data-name="Path 36727" d="M395.655,524.308l-.741-2.3-1.171.373Z" fill="#fff"/>
                <path id="Path_36728" data-name="Path 36728" d="M395.655,524.308l-1.957-1.441.7-.956Z" fill="#fff"/>
                <path id="Path_36729" data-name="Path 36729" d="M392.776,524.308l2-1.441-.742-.956Z" fill="#fff"/>
                <path id="Path_36730" data-name="Path 36730" d="M392.776,524.308l.742-2.3,1.169.373Z" fill="#fff"/>
                <path id="Path_36731" data-name="Path 36731" d="M387.31,525.781l-.45,1.551.742.248Z" fill="#fff"/>
                <path id="Path_36732" data-name="Path 36732" d="M387.31,525.781l.495,1.551-.742.248Z" fill="#fff"/>
                <path id="Path_36733" data-name="Path 36733" d="M388.84,526.905h-1.62v.81Z" fill="#fff"/>
                <path id="Path_36734" data-name="Path 36734" d="M388.84,526.905l-1.282.957-.473-.652Z" fill="#fff"/>
                <path id="Path_36735" data-name="Path 36735" d="M385.8,526.905l1.283.957.473-.652Z" fill="#fff"/>
                <path id="Path_36736" data-name="Path 36736" d="M385.8,526.905h1.6v.81Z" fill="#fff"/>
                <path id="Path_36737" data-name="Path 36737" d="M388.255,528.706l-.495-1.529-.743.259Z" fill="#fff"/>
                <path id="Path_36738" data-name="Path 36738" d="M388.255,528.706l-1.282-.946.472-.663Z" fill="#fff"/>
                <path id="Path_36739" data-name="Path 36739" d="M386.387,528.706l1.283-.946-.45-.663Z" fill="#fff"/>
                <path id="Path_36740" data-name="Path 36740" d="M386.387,528.706l.473-1.529.742.259Z" fill="#fff"/>
                <path id="Path_36741" data-name="Path 36741" d="M399.749,517.74l-.383,1.081.54.2Z" fill="#fff"/>
                <path id="Path_36742" data-name="Path 36742" d="M399.749,517.74l.337,1.081-.54.2Z" fill="#fff"/>
                <path id="Path_36743" data-name="Path 36743" d="M400.827,518.55H399.7v.563Z" fill="#fff"/>
                <path id="Path_36744" data-name="Path 36744" d="M400.827,518.55l-.921.675-.315-.473Z" fill="#fff"/>
                <path id="Path_36745" data-name="Path 36745" d="M398.624,518.55l.968.675.315-.473Z" fill="#fff"/>
                <path id="Path_36746" data-name="Path 36746" d="M398.624,518.55h1.17v.563Z" fill="#fff"/>
                <path id="Path_36747" data-name="Path 36747" d="M400.423,519.833l-.381-1.113-.5.191Z" fill="#fff"/>
                <path id="Path_36748" data-name="Path 36748" d="M400.423,519.833l-.922-.686.337-.473Z" fill="#fff"/>
                <path id="Path_36749" data-name="Path 36749" d="M399.074,519.833l.922-.686-.337-.473Z" fill="#fff"/>
                <path id="Path_36750" data-name="Path 36750" d="M399.074,519.833l.337-1.113.54.191Z" fill="#fff"/>
                <path id="Path_36751" data-name="Path 36751" d="M405.979,525.928l-.63,1.923.9.326Z" fill="#fff"/>
                <path id="Path_36752" data-name="Path 36752" d="M405.979,525.928l.585,1.923-.923.326Z" fill="#fff"/>
                <path id="Path_36753" data-name="Path 36753" d="M407.846,527.333h-2v.991Z" fill="#fff"/>
                <path id="Path_36754" data-name="Path 36754" d="M407.846,527.333l-1.62,1.182-.585-.833Z" fill="#fff"/>
                <path id="Path_36755" data-name="Path 36755" d="M404.044,527.333l1.62,1.182.585-.833Z" fill="#fff"/>
                <path id="Path_36756" data-name="Path 36756" d="M404.044,527.333h2v.991Z" fill="#fff"/>
                <path id="Path_36757" data-name="Path 36757" d="M407.149,529.549l-.631-1.889-.966.314Z" fill="#fff"/>
                <path id="Path_36758" data-name="Path 36758" d="M407.149,529.549l-1.643-1.17.585-.8Z" fill="#fff"/>
                <path id="Path_36759" data-name="Path 36759" d="M404.808,529.549l1.575-1.17-.585-.8Z" fill="#fff"/>
                <path id="Path_36760" data-name="Path 36760" d="M404.808,529.549l.586-1.889.943.314Z" fill="#fff"/>
                <path id="Path_36761" data-name="Path 36761" d="M404.27,531.529l-.631,1.923.945.314Z" fill="#fff"/>
                <path id="Path_36762" data-name="Path 36762" d="M404.27,531.529l.607,1.923-.945.314Z" fill="#fff"/>
                <path id="Path_36763" data-name="Path 36763" d="M406.181,532.935h-2v.977Z" fill="#fff"/>
                <path id="Path_36764" data-name="Path 36764" d="M406.181,532.935l-1.643,1.18-.585-.822Z" fill="#fff"/>
                <path id="Path_36765" data-name="Path 36765" d="M402.379,532.935l1.62,1.18.585-.822Z" fill="#fff"/>
                <path id="Path_36766" data-name="Path 36766" d="M402.379,532.935h2v.977Z" fill="#fff"/>
                <path id="Path_36767" data-name="Path 36767" d="M405.439,535.172l-.585-1.923-.966.315Z" fill="#fff"/>
                <path id="Path_36768" data-name="Path 36768" d="M405.439,535.172l-1.643-1.2.631-.786Z" fill="#fff"/>
                <path id="Path_36769" data-name="Path 36769" d="M403.1,535.172l1.62-1.2-.585-.786Z" fill="#fff"/>
                <path id="Path_36770" data-name="Path 36770" d="M403.1,535.172l.608-1.923.966.315Z" fill="#fff"/>
                <path id="Path_36771" data-name="Path 36771" d="M452.717,488.872l-.742,2.306,1.17.359Z" fill="#fff"/>
                <path id="Path_36772" data-name="Path 36772" d="M452.717,488.872l.765,2.306-1.171.359Z" fill="#fff"/>
                <path id="Path_36773" data-name="Path 36773" d="M455.011,490.536H452.6v1.226Z" fill="#fff"/>
                <path id="Path_36774" data-name="Path 36774" d="M455.011,490.536l-1.956,1.427-.7-.989Z" fill="#fff"/>
                <path id="Path_36775" data-name="Path 36775" d="M450.423,490.536l1.978,1.427.7-.989Z" fill="#fff"/>
                <path id="Path_36776" data-name="Path 36776" d="M450.423,490.536h2.429v1.226Z" fill="#fff"/>
                <path id="Path_36777" data-name="Path 36777" d="M454.156,493.258l-.764-2.306-1.125.383Z" fill="#fff"/>
                <path id="Path_36778" data-name="Path 36778" d="M454.156,493.258l-1.98-1.428.721-.989Z" fill="#fff"/>
                <path id="Path_36779" data-name="Path 36779" d="M451.3,493.258l1.958-1.428-.7-.989Z" fill="#fff"/>
                <path id="Path_36780" data-name="Path 36780" d="M451.3,493.258l.765-2.306,1.17.383Z" fill="#fff"/>
                <path id="Path_36781" data-name="Path 36781" d="M474.713,526.153l-.741,2.294,1.17.382Z" fill="#fff"/>
                <path id="Path_36782" data-name="Path 36782" d="M474.713,526.153l.767,2.294-1.125.382Z" fill="#fff"/>
                <path id="Path_36783" data-name="Path 36783" d="M477.031,527.816H474.6v1.193Z" fill="#fff"/>
                <path id="Path_36784" data-name="Path 36784" d="M477.031,527.816l-1.935,1.418-.741-.99Z" fill="#fff"/>
                <path id="Path_36785" data-name="Path 36785" d="M472.42,527.816l1.98,1.418.7-.99Z" fill="#fff"/>
                <path id="Path_36786" data-name="Path 36786" d="M472.42,527.816h2.43v1.193Z" fill="#fff"/>
                <path id="Path_36787" data-name="Path 36787" d="M476.2,530.516l-.765-2.294-1.17.36Z" fill="#fff"/>
                <path id="Path_36788" data-name="Path 36788" d="M476.2,530.516l-1.98-1.417.72-.99Z" fill="#fff"/>
                <path id="Path_36789" data-name="Path 36789" d="M473.321,530.516l1.955-1.417-.72-.99Z" fill="#fff"/>
                <path id="Path_36790" data-name="Path 36790" d="M473.321,530.516l.741-2.294,1.17.36Z" fill="#fff"/>
                <path id="Path_36791" data-name="Path 36791" d="M482.586,527.491l-.539,1.518.81.247Z" fill="#fff"/>
                <path id="Path_36792" data-name="Path 36792" d="M482.586,527.491l.495,1.518-.809.247Z" fill="#fff"/>
                <path id="Path_36793" data-name="Path 36793" d="M484.07,528.6H482.5v.786Z" fill="#fff"/>
                <path id="Path_36794" data-name="Path 36794" d="M484.07,528.6l-1.282.945-.472-.664Z" fill="#fff"/>
                <path id="Path_36795" data-name="Path 36795" d="M481.035,528.6l1.282.945.518-.664Z" fill="#fff"/>
                <path id="Path_36796" data-name="Path 36796" d="M481.035,528.6h1.619v.786Z" fill="#fff"/>
                <path id="Path_36797" data-name="Path 36797" d="M483.487,530.393l-.45-1.54-.787.27Z" fill="#fff"/>
                <path id="Path_36798" data-name="Path 36798" d="M483.487,530.393l-1.283-.946.5-.663Z" fill="#fff"/>
                <path id="Path_36799" data-name="Path 36799" d="M481.62,530.393l1.282-.946-.45-.663Z" fill="#fff"/>
                <path id="Path_36800" data-name="Path 36800" d="M481.62,530.393l.495-1.54.743.27Z" fill="#fff"/>
                <path id="Path_36801" data-name="Path 36801" d="M477.031,531.529l-.585,1.923.922.314Z" fill="#fff"/>
                <path id="Path_36802" data-name="Path 36802" d="M477.031,531.529l.608,1.923-.9.314Z" fill="#fff"/>
                <path id="Path_36803" data-name="Path 36803" d="M478.942,532.935h-2v.977Z" fill="#fff"/>
                <path id="Path_36804" data-name="Path 36804" d="M478.942,532.935l-1.574,1.18-.629-.822Z" fill="#fff"/>
                <path id="Path_36805" data-name="Path 36805" d="M475.142,532.935l1.642,1.18.585-.822Z" fill="#fff"/>
                <path id="Path_36806" data-name="Path 36806" d="M475.142,532.935h2v.977Z" fill="#fff"/>
                <path id="Path_36807" data-name="Path 36807" d="M478.223,535.172l-.607-1.923-.967.315Z" fill="#fff"/>
                <path id="Path_36808" data-name="Path 36808" d="M478.223,535.172l-1.619-1.2.585-.786Z" fill="#fff"/>
                <path id="Path_36809" data-name="Path 36809" d="M475.862,535.172l1.62-1.2-.585-.786Z" fill="#fff"/>
                <path id="Path_36810" data-name="Path 36810" d="M475.862,535.172l.608-1.923.968.315Z" fill="#fff"/>
                <path id="Path_36811" data-name="Path 36811" d="M463.468,543.337l-.629,1.9.944.326Z" fill="#fff"/>
                <path id="Path_36812" data-name="Path 36812" d="M463.468,543.337l.607,1.9-.966.326Z" fill="#fff"/>
                <path id="Path_36813" data-name="Path 36813" d="M465.381,544.743h-2v1.011Z" fill="#fff"/>
                <path id="Path_36814" data-name="Path 36814" d="M465.381,544.743l-1.643,1.168-.585-.821Z" fill="#fff"/>
                <path id="Path_36815" data-name="Path 36815" d="M461.579,544.743l1.619,1.168.54-.821Z" fill="#fff"/>
                <path id="Path_36816" data-name="Path 36816" d="M461.579,544.743h2v1.011Z" fill="#fff"/>
                <path id="Path_36817" data-name="Path 36817" d="M464.615,546.98l-.562-1.911-1.012.3Z" fill="#fff"/>
                <path id="Path_36818" data-name="Path 36818" d="M464.615,546.98,463,545.789l.584-.8Z" fill="#fff"/>
                <path id="Path_36819" data-name="Path 36819" d="M462.3,546.98l1.618-1.191-.584-.8Z" fill="#fff"/>
                <path id="Path_36820" data-name="Path 36820" d="M462.3,546.98l.608-1.911.966.3Z" fill="#fff"/>
                <path id="Path_36821" data-name="Path 36821" d="M463.378,549.433l-.472,1.505.765.26Z" fill="#fff"/>
                <path id="Path_36822" data-name="Path 36822" d="M463.378,549.433l.495,1.505-.764.26Z" fill="#fff"/>
                <path id="Path_36823" data-name="Path 36823" d="M464.908,550.546h-1.574v.8Z" fill="#fff"/>
                <path id="Path_36824" data-name="Path 36824" d="M464.908,550.546l-1.327.922-.472-.64Z" fill="#fff"/>
                <path id="Path_36825" data-name="Path 36825" d="M461.871,550.546l1.282.922.473-.64Z" fill="#fff"/>
                <path id="Path_36826" data-name="Path 36826" d="M461.871,550.546h1.6v.8Z" fill="#fff"/>
                <path id="Path_36827" data-name="Path 36827" d="M464.323,552.311l-.495-1.5-.787.225Z" fill="#fff"/>
                <path id="Path_36828" data-name="Path 36828" d="M464.323,552.311,463,551.389l.493-.652Z" fill="#fff"/>
                <path id="Path_36829" data-name="Path 36829" d="M462.456,552.311l1.282-.922-.495-.652Z" fill="#fff"/>
                <path id="Path_36830" data-name="Path 36830" d="M462.456,552.311l.495-1.5.743.225Z" fill="#fff"/>
                <path id="Path_36831" data-name="Path 36831" d="M469.092,539.288l-.54,1.542.741.247Z" fill="#fff"/>
                <path id="Path_36832" data-name="Path 36832" d="M469.092,539.288l.449,1.542-.741.247Z" fill="#fff"/>
                <path id="Path_36833" data-name="Path 36833" d="M470.6,540.4h-1.641v.809Z" fill="#fff"/>
                <path id="Path_36834" data-name="Path 36834" d="M470.6,540.4l-1.3.966-.493-.641Z" fill="#fff"/>
                <path id="Path_36835" data-name="Path 36835" d="M467.54,540.4l1.3.966.449-.641Z" fill="#fff"/>
                <path id="Path_36836" data-name="Path 36836" d="M467.54,540.4h1.641v.809Z" fill="#fff"/>
                <path id="Path_36837" data-name="Path 36837" d="M470.013,542.2l-.516-1.519-.742.248Z" fill="#fff"/>
                <path id="Path_36838" data-name="Path 36838" d="M470.013,542.2l-1.3-.934.517-.651Z" fill="#fff"/>
                <path id="Path_36839" data-name="Path 36839" d="M468.125,542.2l1.3-.934-.473-.651Z" fill="#fff"/>
                <path id="Path_36840" data-name="Path 36840" d="M468.125,542.2l.518-1.519.742.248Z" fill="#fff"/>
                <path id="Path_36841" data-name="Path 36841" d="M473.59,536.061l-.607,1.9.922.314Z" fill="#fff"/>
                <path id="Path_36842" data-name="Path 36842" d="M473.59,536.061l.631,1.9-.99.314Z" fill="#fff"/>
                <path id="Path_36843" data-name="Path 36843" d="M475.48,537.455h-2v.99Z" fill="#fff"/>
                <path id="Path_36844" data-name="Path 36844" d="M475.48,537.455l-1.575,1.182-.584-.833Z" fill="#fff"/>
                <path id="Path_36845" data-name="Path 36845" d="M471.678,537.455l1.643,1.182.584-.833Z" fill="#fff"/>
                <path id="Path_36846" data-name="Path 36846" d="M471.678,537.455h2v.99Z" fill="#fff"/>
                <path id="Path_36847" data-name="Path 36847" d="M474.76,539.67l-.585-1.879-.99.3Z" fill="#fff"/>
                <path id="Path_36848" data-name="Path 36848" d="M474.76,539.67l-1.621-1.169.585-.81Z" fill="#fff"/>
                <path id="Path_36849" data-name="Path 36849" d="M472.4,539.67l1.664-1.169-.631-.81Z" fill="#fff"/>
                <path id="Path_36850" data-name="Path 36850" d="M472.4,539.67l.652-1.879.922.3Z" fill="#fff"/>
                <path id="Path_36851" data-name="Path 36851" d="M463.2,538.22l-.449,1.53.741.257Z" fill="#fff"/>
                <path id="Path_36852" data-name="Path 36852" d="M463.2,538.22l.54,1.53-.787.257Z" fill="#fff"/>
                <path id="Path_36853" data-name="Path 36853" d="M464.795,539.344h-1.642v.8Z" fill="#fff"/>
                <path id="Path_36854" data-name="Path 36854" d="M464.795,539.344l-1.326.934-.472-.664Z" fill="#fff"/>
                <path id="Path_36855" data-name="Path 36855" d="M461.714,539.344l1.283.934.472-.664Z" fill="#fff"/>
                <path id="Path_36856" data-name="Path 36856" d="M461.714,539.344h1.62v.8Z" fill="#fff"/>
                <path id="Path_36857" data-name="Path 36857" d="M464.21,541.154l-.516-1.551-.787.237Z" fill="#fff"/>
                <path id="Path_36858" data-name="Path 36858" d="M464.21,541.154l-1.326-.977.45-.619Z" fill="#fff"/>
                <path id="Path_36859" data-name="Path 36859" d="M462.3,541.154l1.282-.977-.472-.619Z" fill="#fff"/>
                <path id="Path_36860" data-name="Path 36860" d="M462.3,541.154l.495-1.551.787.237Z" fill="#fff"/>
                <path id="Path_36861" data-name="Path 36861" d="M413.783,509.07l-.631,1.9.967.3Z" fill="#fff"/>
                <path id="Path_36862" data-name="Path 36862" d="M413.783,509.07l.608,1.9-.946.3Z" fill="#fff"/>
                <path id="Path_36863" data-name="Path 36863" d="M415.695,510.453h-2v1Z" fill="#fff"/>
                <path id="Path_36864" data-name="Path 36864" d="M415.695,510.453l-1.619,1.2-.585-.833Z" fill="#fff"/>
                <path id="Path_36865" data-name="Path 36865" d="M411.849,510.453l1.641,1.2.585-.833Z" fill="#fff"/>
                <path id="Path_36866" data-name="Path 36866" d="M411.849,510.453h2v1Z" fill="#fff"/>
                <path id="Path_36867" data-name="Path 36867" d="M414.953,512.7l-.585-1.9-.967.3Z" fill="#fff"/>
                <path id="Path_36868" data-name="Path 36868" d="M414.953,512.7l-1.643-1.181.585-.821Z" fill="#fff"/>
                <path id="Path_36869" data-name="Path 36869" d="M412.569,512.7l1.664-1.181-.585-.821Z" fill="#fff"/>
                <path id="Path_36870" data-name="Path 36870" d="M412.569,512.7l.652-1.9.922.3Z" fill="#fff"/>
                <path id="Path_36871" data-name="Path 36871" d="M450.558,504.313l-.45,1.54.742.236Z" fill="#fff"/>
                <path id="Path_36872" data-name="Path 36872" d="M450.558,504.313l.54,1.54-.788.236Z" fill="#fff"/>
                <path id="Path_36873" data-name="Path 36873" d="M452.132,505.448h-1.619v.788Z" fill="#fff"/>
                <path id="Path_36874" data-name="Path 36874" d="M452.132,505.448l-1.326.946-.45-.653Z" fill="#fff"/>
                <path id="Path_36875" data-name="Path 36875" d="M449.05,505.448l1.306.946.45-.653Z" fill="#fff"/>
                <path id="Path_36876" data-name="Path 36876" d="M449.05,505.448h1.643v.788Z" fill="#fff"/>
                <path id="Path_36877" data-name="Path 36877" d="M451.547,507.249l-.539-1.542-.743.26Z" fill="#fff"/>
                <path id="Path_36878" data-name="Path 36878" d="M451.547,507.249l-1.326-.968.472-.652Z" fill="#fff"/>
                <path id="Path_36879" data-name="Path 36879" d="M449.636,507.249l1.3-.968-.473-.652Z" fill="#fff"/>
                <path id="Path_36880" data-name="Path 36880" d="M449.636,507.249l.495-1.542.764.26Z" fill="#fff"/>
                <path id="Path_36881" data-name="Path 36881" d="M435.241,531.663l-.764,2.3,1.17.381Z" fill="#fff"/>
                <path id="Path_36882" data-name="Path 36882" d="M435.241,531.663l.743,2.3-1.125.381Z" fill="#fff"/>
                <path id="Path_36883" data-name="Path 36883" d="M437.534,533.327H435.15v1.215Z" fill="#fff"/>
                <path id="Path_36884" data-name="Path 36884" d="M437.534,533.327l-1.933,1.439-.7-1Z" fill="#fff"/>
                <path id="Path_36885" data-name="Path 36885" d="M432.947,533.327l2,1.439.653-1Z" fill="#fff"/>
                <path id="Path_36886" data-name="Path 36886" d="M432.947,533.327h2.407v1.215Z" fill="#fff"/>
                <path id="Path_36887" data-name="Path 36887" d="M436.658,536.038l-.72-2.283-1.17.36Z" fill="#fff"/>
                <path id="Path_36888" data-name="Path 36888" d="M436.658,536.038l-1.935-1.429.675-.967Z" fill="#fff"/>
                <path id="Path_36889" data-name="Path 36889" d="M433.824,536.038l1.957-1.429-.72-.967Z" fill="#fff"/>
                <path id="Path_36890" data-name="Path 36890" d="M433.824,536.038l.741-2.283,1.17.36Z" fill="#fff"/>
                <path id="Path_36891" data-name="Path 36891" d="M441.786,520.879l-.629,1.911.968.292Z" fill="#fff"/>
                <path id="Path_36892" data-name="Path 36892" d="M441.786,520.879l.631,1.911-.968.292Z" fill="#fff"/>
                <path id="Path_36893" data-name="Path 36893" d="M443.676,522.273h-2.024v.977Z" fill="#fff"/>
                <path id="Path_36894" data-name="Path 36894" d="M443.676,522.273l-1.641,1.169-.585-.81Z" fill="#fff"/>
                <path id="Path_36895" data-name="Path 36895" d="M439.875,522.273l1.619,1.169.585-.81Z" fill="#fff"/>
                <path id="Path_36896" data-name="Path 36896" d="M439.875,522.273h2v.977Z" fill="#fff"/>
                <path id="Path_36897" data-name="Path 36897" d="M442.955,524.511l-.629-1.923-.945.326Z" fill="#fff"/>
                <path id="Path_36898" data-name="Path 36898" d="M442.955,524.511l-1.619-1.192.585-.822Z" fill="#fff"/>
                <path id="Path_36899" data-name="Path 36899" d="M440.572,524.511l1.641-1.192-.585-.822Z" fill="#fff"/>
                <path id="Path_36900" data-name="Path 36900" d="M440.572,524.511l.629-1.923.968.326Z" fill="#fff"/>
                <path id="Path_36901" data-name="Path 36901" d="M435.241,515.829l-.629,1.89.966.314Z" fill="#fff"/>
                <path id="Path_36902" data-name="Path 36902" d="M435.241,515.829l.607,1.89-.9.314Z" fill="#fff"/>
                <path id="Path_36903" data-name="Path 36903" d="M437.153,517.2h-2v1.012Z" fill="#fff"/>
                <path id="Path_36904" data-name="Path 36904" d="M437.153,517.2l-1.62,1.17-.585-.8Z" fill="#fff"/>
                <path id="Path_36905" data-name="Path 36905" d="M433.351,517.2l1.641,1.17.54-.8Z" fill="#fff"/>
                <path id="Path_36906" data-name="Path 36906" d="M433.351,517.2h2v1.012Z" fill="#fff"/>
                <path id="Path_36907" data-name="Path 36907" d="M436.432,519.45l-.607-1.911-.968.291Z" fill="#fff"/>
                <path id="Path_36908" data-name="Path 36908" d="M436.432,519.45l-1.619-1.18.585-.822Z" fill="#fff"/>
                <path id="Path_36909" data-name="Path 36909" d="M434.071,519.45l1.62-1.18-.585-.822Z" fill="#fff"/>
                <path id="Path_36910" data-name="Path 36910" d="M434.071,519.45l.608-1.911.968.291Z" fill="#fff"/>
                <path id="Path_36911" data-name="Path 36911" d="M429.551,521.272l-.5,1.542.788.246Z" fill="#fff"/>
                <path id="Path_36912" data-name="Path 36912" d="M429.551,521.272l.539,1.542-.787.246Z" fill="#fff"/>
                <path id="Path_36913" data-name="Path 36913" d="M431.1,522.387h-1.6v.786Z" fill="#fff"/>
                <path id="Path_36914" data-name="Path 36914" d="M431.1,522.387l-1.3.943-.5-.663Z" fill="#fff"/>
                <path id="Path_36915" data-name="Path 36915" d="M428.066,522.387l1.282.943.451-.663Z" fill="#fff"/>
                <path id="Path_36916" data-name="Path 36916" d="M428.066,522.387h1.575v.786Z" fill="#fff"/>
                <path id="Path_36917" data-name="Path 36917" d="M430.518,524.185l-.474-1.53-.786.248Z" fill="#fff"/>
                <path id="Path_36918" data-name="Path 36918" d="M430.518,524.185l-1.283-.944.495-.653Z" fill="#fff"/>
                <path id="Path_36919" data-name="Path 36919" d="M428.651,524.185l1.283-.944-.473-.653Z" fill="#fff"/>
                <path id="Path_36920" data-name="Path 36920" d="M428.651,524.185l.495-1.53.743.248Z" fill="#fff"/>
                <path id="Path_36921" data-name="Path 36921" d="M432.43,525.648l-.36,1.09.539.167Z" fill="#fff"/>
                <path id="Path_36922" data-name="Path 36922" d="M432.43,525.648l.338,1.09-.54.167Z" fill="#fff"/>
                <path id="Path_36923" data-name="Path 36923" d="M433.509,526.434h-1.147v.574Z" fill="#fff"/>
                <path id="Path_36924" data-name="Path 36924" d="M433.509,526.434l-.9.686-.337-.472Z" fill="#fff"/>
                <path id="Path_36925" data-name="Path 36925" d="M431.3,526.434l.968.686.337-.472Z" fill="#fff"/>
                <path id="Path_36926" data-name="Path 36926" d="M431.3,526.434h1.17v.574Z" fill="#fff"/>
                <path id="Path_36927" data-name="Path 36927" d="M433.06,527.738l-.338-1.1-.54.167Z" fill="#fff"/>
                <path id="Path_36928" data-name="Path 36928" d="M433.06,527.738l-.923-.686.383-.472Z" fill="#fff"/>
                <path id="Path_36929" data-name="Path 36929" d="M431.732,527.738l.923-.686-.338-.472Z" fill="#fff"/>
                <path id="Path_36930" data-name="Path 36930" d="M431.732,527.738l.383-1.1.54.167Z" fill="#fff"/>
                <path id="Path_36931" data-name="Path 36931" d="M452.132,544.708l-.629,1.924.968.325Z" fill="#fff"/>
                <path id="Path_36932" data-name="Path 36932" d="M452.132,544.708l.631,1.924-.989.325Z" fill="#fff"/>
                <path id="Path_36933" data-name="Path 36933" d="M454.021,546.092h-2v1.035Z" fill="#fff"/>
                <path id="Path_36934" data-name="Path 36934" d="M454.021,546.092l-1.62,1.2-.584-.832Z" fill="#fff"/>
                <path id="Path_36935" data-name="Path 36935" d="M450.221,546.092l1.6,1.2.629-.832Z" fill="#fff"/>
                <path id="Path_36936" data-name="Path 36936" d="M450.221,546.092h2v1.035Z" fill="#fff"/>
                <path id="Path_36937" data-name="Path 36937" d="M453.3,548.364l-.63-1.923-.945.326Z" fill="#fff"/>
                <path id="Path_36938" data-name="Path 36938" d="M453.3,548.364l-1.62-1.18.585-.81Z" fill="#fff"/>
                <path id="Path_36939" data-name="Path 36939" d="M450.941,548.364l1.618-1.18-.585-.81Z" fill="#fff"/>
                <path id="Path_36940" data-name="Path 36940" d="M450.941,548.364l.606-1.923.968.326Z" fill="#fff"/>
                <path id="Path_36941" data-name="Path 36941" d="M456.946,540.142l-.495,1.531.742.257Z" fill="#fff"/>
                <path id="Path_36942" data-name="Path 36942" d="M456.946,540.142l.495,1.531-.787.257Z" fill="#fff"/>
                <path id="Path_36943" data-name="Path 36943" d="M458.475,541.267h-1.62v.765Z" fill="#fff"/>
                <path id="Path_36944" data-name="Path 36944" d="M458.475,541.267l-1.282.923-.5-.631Z" fill="#fff"/>
                <path id="Path_36945" data-name="Path 36945" d="M455.394,541.267l1.3.923.5-.631Z" fill="#fff"/>
                <path id="Path_36946" data-name="Path 36946" d="M455.394,541.267h1.643v.765Z" fill="#fff"/>
                <path id="Path_36947" data-name="Path 36947" d="M457.891,543.045l-.5-1.53-.741.258Z" fill="#fff"/>
                <path id="Path_36948" data-name="Path 36948" d="M457.891,543.045l-1.282-.945.472-.653Z" fill="#fff"/>
                <path id="Path_36949" data-name="Path 36949" d="M456.024,543.045l1.281-.945-.495-.653Z" fill="#fff"/>
                <path id="Path_36950" data-name="Path 36950" d="M456.024,543.045l.495-1.53.764.258Z" fill="#fff"/>
                <path id="Path_36951" data-name="Path 36951" d="M447.679,538.759l-.5,1.519.742.27Z" fill="#fff"/>
                <path id="Path_36952" data-name="Path 36952" d="M447.679,538.759l.495,1.519-.742.27Z" fill="#fff"/>
                <path id="Path_36953" data-name="Path 36953" d="M449.185,539.862h-1.6v.821Z" fill="#fff"/>
                <path id="Path_36954" data-name="Path 36954" d="M449.185,539.862l-1.3.967-.45-.675Z" fill="#fff"/>
                <path id="Path_36955" data-name="Path 36955" d="M446.127,539.862l1.3.967.45-.675Z" fill="#fff"/>
                <path id="Path_36956" data-name="Path 36956" d="M446.127,539.862h1.641v.821Z" fill="#fff"/>
                <path id="Path_36957" data-name="Path 36957" d="M448.623,541.673l-.493-1.531-.788.26Z" fill="#fff"/>
                <path id="Path_36958" data-name="Path 36958" d="M448.623,541.673l-1.326-.946.5-.64Z" fill="#fff"/>
                <path id="Path_36959" data-name="Path 36959" d="M446.712,541.673l1.3-.946-.472-.64Z" fill="#fff"/>
                <path id="Path_36960" data-name="Path 36960" d="M446.712,541.673l.495-1.531.81.26Z" fill="#fff"/>
                <path id="Path_36961" data-name="Path 36961" d="M412.614,536.262l-.72,2.284,1.124.383Z" fill="#fff"/>
                <path id="Path_36962" data-name="Path 36962" d="M412.614,536.262l.742,2.284-1.124.383Z" fill="#fff"/>
                <path id="Path_36963" data-name="Path 36963" d="M414.953,537.949h-2.429v1.2Z" fill="#fff"/>
                <path id="Path_36964" data-name="Path 36964" d="M414.953,537.949l-2,1.407-.675-.98Z" fill="#fff"/>
                <path id="Path_36965" data-name="Path 36965" d="M410.3,537.949l2.024,1.407.652-.98Z" fill="#fff"/>
                <path id="Path_36966" data-name="Path 36966" d="M410.3,537.949h2.429v1.2Z" fill="#fff"/>
                <path id="Path_36967" data-name="Path 36967" d="M414.03,540.638l-.72-2.283-1.124.36Z" fill="#fff"/>
                <path id="Path_36968" data-name="Path 36968" d="M414.03,540.638l-1.934-1.417.675-.98Z" fill="#fff"/>
                <path id="Path_36969" data-name="Path 36969" d="M411.2,540.638l1.957-1.417-.72-.98Z" fill="#fff"/>
                <path id="Path_36970" data-name="Path 36970" d="M411.2,540.638l.788-2.283,1.124.36Z" fill="#fff"/>
                <path id="Path_36971" data-name="Path 36971" d="M435.241,552.052l-.248.776.361.123Z" fill="#fff"/>
                <path id="Path_36972" data-name="Path 36972" d="M435.241,552.052l.248.776-.338.123Z" fill="#fff"/>
                <path id="Path_36973" data-name="Path 36973" d="M436.029,552.625H435.2v.395Z" fill="#fff"/>
                <path id="Path_36974" data-name="Path 36974" d="M436.029,552.625l-.675.473-.2-.338Z" fill="#fff"/>
                <path id="Path_36975" data-name="Path 36975" d="M434.476,552.625l.674.473.2-.338Z" fill="#fff"/>
                <path id="Path_36976" data-name="Path 36976" d="M434.476,552.625h.787v.395Z" fill="#fff"/>
                <path id="Path_36977" data-name="Path 36977" d="M435.691,553.515l-.2-.764-.383.135Z" fill="#fff"/>
                <path id="Path_36978" data-name="Path 36978" d="M435.691,553.515l-.629-.462.2-.314Z" fill="#fff"/>
                <path id="Path_36979" data-name="Path 36979" d="M434.769,553.515l.629-.462-.2-.314Z" fill="#fff"/>
                <path id="Path_36980" data-name="Path 36980" d="M434.769,553.515l.269-.764.36.135Z" fill="#fff"/>
              </g>
            </g>
          </g>
        </g>
      </g>
    </g>
  </g>
</svg>
