<svg xmlns="http://www.w3.org/2000/svg" xmlns:xlink="http://www.w3.org/1999/xlink" width="179.8" height="73.019" viewBox="0 0 179.8 73.019">
  <defs>
    <clipPath id="clip-path">
      <path id="Path_7390" data-name="Path 7390" d="M1975.074-447.424l-17.84-30.158,17.84-30.158h129.35l17.84,30.158-17.84,30.158Z" transform="translate(-1957.234 507.74)" fill="none"/>
    </clipPath>
  </defs>
  <g id="Group_840" data-name="Group 840" transform="translate(-1928.562 532.402)">
    <path id="Path_1751" data-name="Path 1751" d="M1950.162-459.383h136.6l21.6-36.509-21.6-36.51h-136.6l-21.6,36.51Z" transform="translate(0)" fill="#fff"/>
    <path id="Path_1752" data-name="Path 1752" d="M1975.072-507.738h129.351l17.84,30.158-17.84,30.157H1975.072l-17.84-30.157Z" transform="translate(-21.286 -18.311)" fill="#80192e"/>
    <g id="Group_808" data-name="Group 808" transform="translate(1935.947 -526.05)">
      <g id="Group_4539" data-name="Group 4539" transform="translate(0)">
        <g id="Group_4538" data-name="Group 4538" clip-path="url(#clip-path)">
          <g id="Group_4537" data-name="Group 4537" transform="translate(-1.964 -0.088)">
            <rect id="Rectangle_320" data-name="Rectangle 320" width="168.959" height="60.492" fill="#00a133"/>
            <path id="Path_7097" data-name="Path 7097" d="M2166.042-454.81l32.846,20.978,32.863-20.978-32.863-20.975Z" transform="translate(-2110.297 484.104)" fill="#ffe100"/>
            <g id="Group_4536" data-name="Group 4536" transform="translate(74.754 15.442)">
              <path id="Path_7098" data-name="Path 7098" d="M2267.539-434.271a13.847,13.847,0,0,1-13.847,13.85,13.846,13.846,0,0,1-13.842-13.85,13.855,13.855,0,0,1,13.842-13.856,13.856,13.856,0,0,1,13.847,13.856Z" transform="translate(-2239.85 448.127)" fill="#1457c7"/>
              <path id="Path_7099" data-name="Path 7099" d="M2247.023-417.392a34.587,34.587,0,0,0-4.765.337,14.573,14.573,0,0,0-.735,2.117,32.469,32.469,0,0,1,5.5-.473,31.525,31.525,0,0,1,21.133,8.1,12.791,12.791,0,0,0,.492-2.192,33.474,33.474,0,0,0-21.625-7.885Z" transform="translate(-2241.092 425.308)" fill="#fff"/>
              <path id="Path_7100" data-name="Path 7100" d="M2245.791-413.836a.621.621,0,0,0,.5-.724.619.619,0,0,0-.664-.58.608.608,0,0,0-.5.724.617.617,0,0,0,.663.58Zm-.028-.24a.4.4,0,0,0,.293-.456.379.379,0,0,0-.4-.368.384.384,0,0,0-.3.453.4.4,0,0,0,.4.371Z" transform="translate(-2243.762 423.64)" fill="#00a133" fillRule="evenodd"/>
              <path id="Path_7101" data-name="Path 7101" d="M2251.673-414.465l.238-.022-.033-.487.536-.036a.431.431,0,0,0,.382-.445.423.423,0,0,0-.442-.384l-.763.052Zm.188-.752.509-.033a.178.178,0,0,0,.155-.185.16.16,0,0,0-.171-.155l-.514.028Z" transform="translate(-2248.566 424.155)" fill="#00a133" fillRule="evenodd"/>
              <path id="Path_7102" data-name="Path 7102" d="M2254.265-412.5c-.011-.188-.033-.6-.321-.586l-.359.025c.409-.025.442.392.465.575Z" transform="translate(-2250.048 422.114)" fill="#00a133"/>
              <path id="Path_7103" data-name="Path 7103" d="M2258.351-414.759l.614-.014a.568.568,0,0,0,.564-.578l-.011-.188a.571.571,0,0,0-.575-.556l-.614.014Zm.232-.252.36-.009a.349.349,0,0,0,.348-.362v-.119a.353.353,0,0,0-.354-.345l-.365.009Z" transform="translate(-2253.569 424.345)" fill="#00a133" fillRule="evenodd"/>
              <path id="Path_7104" data-name="Path 7104" d="M2264.854-414.791l1.194.041.011-.249-.956-.033.011-.335.758.02v-.224l-.747-.028v-.26l.913.031v-.249l-1.128-.039Z" transform="translate(-2258.414 424.36)" fill="#00a133"/>
              <path id="Path_7105" data-name="Path 7105" d="M2271.4-414.5l.227.02.077-.9.177.923.216.019.337-.879-.077.9.221.022.116-1.319-.321-.028-.348.879-.182-.926-.332-.028Z" transform="translate(-2263.274 424.137)" fill="#00a133"/>
              <path id="Path_7106" data-name="Path 7106" d="M2281.98-412.894l.99.166.027-.222-.746-.127.049-.3.62.105.027-.227-.6-.1.027-.207.73.127.028-.224-.94-.166Z" transform="translate(-2271.129 422.839)" fill="#00a133"/>
              <path id="Path_7107" data-name="Path 7107" d="M2291.723-411.278l.232.063.133-.473.5.127a.42.42,0,0,0,.514-.3.434.434,0,0,0-.3-.509l-.73-.188Zm.432-.653.486.13a.158.158,0,0,0,.2-.121.17.17,0,0,0-.116-.207l-.492-.127Z" transform="translate(-2278.363 421.715)" fill="#00a133" fillRule="evenodd"/>
              <path id="Path_7108" data-name="Path 7108" d="M2298.013-409.54l.238.072.149-.464.492.157a.417.417,0,0,0,.525-.268.41.41,0,0,0-.265-.52l-.73-.229Zm.459-.627.486.155a.173.173,0,0,0,.21-.114.16.16,0,0,0-.111-.21l-.481-.155Z" transform="translate(-2283.032 420.408)" fill="#00a133" fillRule="evenodd"/>
              <path id="Path_7109" data-name="Path 7109" d="M2300.943-406.837c.061-.18.183-.572-.083-.658l-.337-.111c.386.127.265.52.2.7Z" transform="translate(-2284.896 418.042)" fill="#00a133"/>
              <path id="Path_7110" data-name="Path 7110" d="M2305.283-406.774a.63.63,0,0,0,.785-.409.621.621,0,0,0-.32-.826.626.626,0,0,0-.791.4.635.635,0,0,0,.326.832Zm.083-.232a.383.383,0,0,0,.476-.266.387.387,0,0,0-.177-.512.4.4,0,0,0-.48.268.39.39,0,0,0,.182.509Z" transform="translate(-2288.153 418.369)" fill="#00a133" fillRule="evenodd"/>
              <path id="Path_7111" data-name="Path 7111" d="M2311.421-404.293a.64.64,0,0,0,.813-.368.636.636,0,0,0-.288-.843.621.621,0,0,0-.8.368.633.633,0,0,0,.277.843Zm.1-.227a.375.375,0,0,0,.481-.241.391.391,0,0,0-.149-.522.381.381,0,0,0-.481.243.378.378,0,0,0,.149.52Z" transform="translate(-2292.737 416.515)" fill="#00a133" fillRule="evenodd"/>
              <path id="Path_7112" data-name="Path 7112" d="M2313.537-402.884l.464.2-.088.171-.448-.2Z" transform="translate(-2294.505 414.536)" fill="#00a133"/>
              <path id="Path_7113" data-name="Path 7113" d="M2314.127-402.412l.177.08-.271.6-.16-.077Z" transform="translate(-2294.808 414.186)" fill="#00a133"/>
              <path id="Path_7114" data-name="Path 7114" d="M2316.255-402.335l.215.108.216-.442.47.241a.412.412,0,0,0,.552-.185.409.409,0,0,0-.182-.556l-.669-.337Zm.542-.547.453.224a.166.166,0,0,0,.227-.075.171.171,0,0,0-.072-.227l-.465-.227Z" transform="translate(-2296.577 414.999)" fill="#00a133" fillRule="evenodd"/>
              <path id="Path_7115" data-name="Path 7115" d="M2319.226-399.413c.083-.169.265-.539.017-.666l-.326-.166c.382.191.194.561.116.727Z" transform="translate(-2298.552 412.577)" fill="#00a133"/>
              <path id="Path_7116" data-name="Path 7116" d="M2322.028-399.328l1.039.583.111-.213-.829-.473.16-.3.658.373.111-.2-.653-.365.133-.235.78.448.132-.213-1-.558Z" transform="translate(-2300.862 412.752)" fill="#00a133"/>
              <path id="Path_7117" data-name="Path 7117" d="M2328.611-395.689c-.072.108,0,.235.155.337s.266.094.315.028c.144-.232-.685-.561-.431-.953.215-.34.6-.077.74.014a.432.432,0,0,1,.193.6l-.243-.158c.083-.113,0-.232-.138-.3-.122-.089-.221-.124-.293,0-.127.18.7.522.437.921-.171.29-.5.16-.708.027-.193-.119-.459-.4-.288-.669Z" transform="translate(-2305.515 409.758)" fill="#00a133"/>
              <path id="Path_7118" data-name="Path 7118" d="M2334.1-392c-.083.105-.022.235.133.346s.271.116.32.044c.149-.216-.668-.594-.381-.973.238-.329.608-.044.741.05a.429.429,0,0,1,.154.611l-.227-.168c.073-.114,0-.229-.126-.321s-.2-.125-.287-.011c-.133.174.657.567.392.945-.2.282-.525.138-.719-.011-.182-.127-.442-.414-.249-.683Z" transform="translate(-2309.589 407.007)" fill="#00a133"/>
              <path id="Path_7119" data-name="Path 7119" d="M2339.591-387.3a.626.626,0,0,0,.873-.147.629.629,0,0,0-.049-.884.622.622,0,0,0-.874.146.63.63,0,0,0,.05.885Zm.155-.2a.382.382,0,0,0,.537-.105.389.389,0,0,0-.022-.539.372.372,0,0,0-.526.105.368.368,0,0,0,.011.539Z" transform="translate(-2313.749 403.818)" fill="#00a133" fillRule="evenodd"/>
              <path id="Path_7120" data-name="Path 7120" d="M2249.154-406.3l-.182.564.287.094Z" transform="translate(-2246.622 417.07)" fill="#fff"/>
              <path id="Path_7121" data-name="Path 7121" d="M2249.409-406.3l.188.564-.282.094Z" transform="translate(-2246.877 417.07)" fill="#fff"/>
              <path id="Path_7122" data-name="Path 7122" d="M2250.165-404.7h-.591v.29Z" transform="translate(-2247.069 415.883)" fill="#fff"/>
              <path id="Path_7123" data-name="Path 7123" d="M2249.973-404.7l-.47.345-.188-.238Z" transform="translate(-2246.877 415.883)" fill="#fff"/>
              <path id="Path_7124" data-name="Path 7124" d="M2247.49-404.7l.481.345.177-.238Z" transform="translate(-2245.522 415.883)" fill="#fff"/>
              <path id="Path_7125" data-name="Path 7125" d="M2247.49-404.7h.6v.29Z" transform="translate(-2245.522 415.883)" fill="#fff"/>
              <path id="Path_7126" data-name="Path 7126" d="M2249.709-403.759l-.183-.564-.276.094Z" transform="translate(-2246.829 415.605)" fill="#fff"/>
              <path id="Path_7127" data-name="Path 7127" d="M2249.645-403.838l-.481-.351.177-.24Z" transform="translate(-2246.765 415.684)" fill="#fff"/>
              <path id="Path_7128" data-name="Path 7128" d="M2248.327-403.838l.481-.351-.171-.24Z" transform="translate(-2246.144 415.684)" fill="#fff"/>
              <path id="Path_7129" data-name="Path 7129" d="M2248.327-403.759l.188-.564.287.094Z" transform="translate(-2246.144 415.605)" fill="#fff"/>
              <path id="Path_7130" data-name="Path 7130" d="M2253.924-383.686l-.188.561.288.091Z" transform="translate(-2250.16 400.283)" fill="#fff"/>
              <path id="Path_7131" data-name="Path 7131" d="M2254.178-383.686l.177.561-.276.091Z" transform="translate(-2250.415 400.283)" fill="#fff"/>
              <path id="Path_7132" data-name="Path 7132" d="M2254.923-382.1h-.586v.3Z" transform="translate(-2250.605 399.104)" fill="#fff"/>
              <path id="Path_7133" data-name="Path 7133" d="M2254.748-382.1l-.47.351-.177-.246Z" transform="translate(-2250.431 399.104)" fill="#fff"/>
              <path id="Path_7134" data-name="Path 7134" d="M2252.276-382.1l.47.351.188-.246Z" transform="translate(-2249.076 399.104)" fill="#fff"/>
              <path id="Path_7135" data-name="Path 7135" d="M2252.276-382.1h.6v.3Z" transform="translate(-2249.076 399.104)" fill="#fff"/>
              <path id="Path_7136" data-name="Path 7136" d="M2254.463-381.138l-.182-.564-.288.092Z" transform="translate(-2250.35 398.81)" fill="#fff"/>
              <path id="Path_7137" data-name="Path 7137" d="M2254.431-381.209l-.481-.354.172-.235Z" transform="translate(-2250.319 398.882)" fill="#fff"/>
              <path id="Path_7138" data-name="Path 7138" d="M2253.071-381.209l.492-.354-.183-.235Z" transform="translate(-2249.666 398.882)" fill="#fff"/>
              <path id="Path_7139" data-name="Path 7139" d="M2253.071-381.138l.183-.564.287.092Z" transform="translate(-2249.666 398.81)" fill="#fff"/>
              <path id="Path_7140" data-name="Path 7140" d="M2247.537-378.106l-.111.381.183.061Z" transform="translate(-2245.475 396.141)" fill="#fff"/>
              <path id="Path_7141" data-name="Path 7141" d="M2247.68-378.106l.121.381-.183.061Z" transform="translate(-2245.618 396.141)" fill="#fff"/>
              <path id="Path_7142" data-name="Path 7142" d="M2248.167-377.034h-.4v.2Z" transform="translate(-2245.729 395.344)" fill="#fff"/>
              <path id="Path_7143" data-name="Path 7143" d="M2248.072-377.034l-.315.235-.116-.16Z" transform="translate(-2245.634 395.344)" fill="#fff"/>
              <path id="Path_7144" data-name="Path 7144" d="M2246.417-377.034l.315.235.116-.16Z" transform="translate(-2244.725 395.344)" fill="#fff"/>
              <path id="Path_7145" data-name="Path 7145" d="M2246.417-377.034h.393v.2Z" transform="translate(-2244.725 395.344)" fill="#fff"/>
              <path id="Path_7146" data-name="Path 7146" d="M2247.88-376.4l-.122-.376-.183.064Z" transform="translate(-2245.586 395.152)" fill="#fff"/>
              <path id="Path_7147" data-name="Path 7147" d="M2247.849-376.456l-.315-.232.116-.163Z" transform="translate(-2245.555 395.209)" fill="#fff"/>
              <path id="Path_7148" data-name="Path 7148" d="M2246.974-376.456l.315-.232-.11-.163Z" transform="translate(-2245.139 395.209)" fill="#fff"/>
              <path id="Path_7149" data-name="Path 7149" d="M2246.974-376.4l.117-.376.182.064Z" transform="translate(-2245.139 395.152)" fill="#fff"/>
              <path id="Path_7150" data-name="Path 7150" d="M2259.453-385.779l-.094.266.133.05Z" transform="translate(-2254.334 401.838)" fill="#fff"/>
              <path id="Path_7151" data-name="Path 7151" d="M2259.58-385.779l.083.266-.133.05Z" transform="translate(-2254.461 401.838)" fill="#fff"/>
              <path id="Path_7152" data-name="Path 7152" d="M2259.957-385.006h-.277v.138Z" transform="translate(-2254.573 401.264)" fill="#fff"/>
              <path id="Path_7153" data-name="Path 7153" d="M2259.878-385.006l-.227.166-.078-.116Z" transform="translate(-2254.494 401.264)" fill="#fff"/>
              <path id="Path_7154" data-name="Path 7154" d="M2258.651-385.006l.237.166.078-.116Z" transform="translate(-2253.808 401.264)" fill="#fff"/>
              <path id="Path_7155" data-name="Path 7155" d="M2258.651-385.006h.288v.138Z" transform="translate(-2253.808 401.264)" fill="#fff"/>
              <path id="Path_7156" data-name="Path 7156" d="M2259.746-384.571l-.094-.274-.122.047Z" transform="translate(-2254.461 401.143)" fill="#fff"/>
              <path id="Path_7157" data-name="Path 7157" d="M2259.715-384.6l-.226-.169.083-.116Z" transform="translate(-2254.43 401.176)" fill="#fff"/>
              <path id="Path_7158" data-name="Path 7158" d="M2259.08-384.6l.226-.169-.083-.116Z" transform="translate(-2254.128 401.176)" fill="#fff"/>
              <path id="Path_7159" data-name="Path 7159" d="M2259.08-384.571l.083-.274.133.047Z" transform="translate(-2254.128 401.143)" fill="#fff"/>
              <path id="Path_7160" data-name="Path 7160" d="M2265.222-377.966l-.155.473.221.08Z" transform="translate(-2258.573 396.037)" fill="#fff"/>
              <path id="Path_7161" data-name="Path 7161" d="M2265.43-377.966l.144.473-.227.08Z" transform="translate(-2258.78 396.037)" fill="#fff"/>
              <path id="Path_7162" data-name="Path 7162" d="M2266.032-376.626h-.492v.243Z" transform="translate(-2258.924 395.042)" fill="#fff"/>
              <path id="Path_7163" data-name="Path 7163" d="M2265.889-376.626l-.4.29-.144-.2Z" transform="translate(-2258.78 395.042)" fill="#fff"/>
              <path id="Path_7164" data-name="Path 7164" d="M2263.823-376.626l.4.29.144-.2Z" transform="translate(-2257.648 395.042)" fill="#fff"/>
              <path id="Path_7165" data-name="Path 7165" d="M2263.823-376.626h.492v.243Z" transform="translate(-2257.648 395.042)" fill="#fff"/>
              <path id="Path_7166" data-name="Path 7166" d="M2265.654-375.849l-.155-.464-.238.077Z" transform="translate(-2258.716 394.81)" fill="#fff"/>
              <path id="Path_7167" data-name="Path 7167" d="M2265.621-375.906l-.4-.287.144-.2Z" transform="translate(-2258.684 394.866)" fill="#fff"/>
              <path id="Path_7168" data-name="Path 7168" d="M2264.552-375.906l.387-.287-.144-.2Z" transform="translate(-2258.19 394.866)" fill="#fff"/>
              <path id="Path_7169" data-name="Path 7169" d="M2264.552-375.849l.144-.464.232.077Z" transform="translate(-2258.19 394.81)" fill="#fff"/>
              <path id="Path_7170" data-name="Path 7170" d="M2263.592-372.622l-.155.473.232.077Z" transform="translate(-2257.362 392.069)" fill="#fff"/>
              <path id="Path_7171" data-name="Path 7171" d="M2263.8-372.622l.149.473-.232.077Z" transform="translate(-2257.569 392.069)" fill="#fff"/>
              <path id="Path_7172" data-name="Path 7172" d="M2264.444-371.28h-.492v.24Z" transform="translate(-2257.744 391.073)" fill="#fff"/>
              <path id="Path_7173" data-name="Path 7173" d="M2264.284-371.28l-.4.29-.144-.2Z" transform="translate(-2257.584 391.073)" fill="#fff"/>
              <path id="Path_7174" data-name="Path 7174" d="M2262.235-371.28l.4.29.144-.2Z" transform="translate(-2256.469 391.073)" fill="#fff"/>
              <path id="Path_7175" data-name="Path 7175" d="M2262.235-371.28h.492v.24Z" transform="translate(-2256.469 391.073)" fill="#fff"/>
              <path id="Path_7176" data-name="Path 7176" d="M2264.055-370.508l-.144-.473-.238.077Z" transform="translate(-2257.537 390.85)" fill="#fff"/>
              <path id="Path_7177" data-name="Path 7177" d="M2263.99-370.555l-.4-.3.155-.193Z" transform="translate(-2257.473 390.897)" fill="#fff"/>
              <path id="Path_7178" data-name="Path 7178" d="M2262.921-370.555l.4-.3-.144-.193Z" transform="translate(-2256.979 390.897)" fill="#fff"/>
              <path id="Path_7179" data-name="Path 7179" d="M2262.921-370.508l.15-.473.237.077Z" transform="translate(-2256.979 390.85)" fill="#fff"/>
              <path id="Path_7180" data-name="Path 7180" d="M2309.741-413.325l-.183.567.288.088Z" transform="translate(-2291.604 422.289)" fill="#fff"/>
              <path id="Path_7181" data-name="Path 7181" d="M2309.98-413.325l.188.567-.288.088Z" transform="translate(-2291.843 422.289)" fill="#fff"/>
              <path id="Path_7182" data-name="Path 7182" d="M2310.751-411.737h-.592v.3Z" transform="translate(-2292.05 421.11)" fill="#fff"/>
              <path id="Path_7183" data-name="Path 7183" d="M2310.575-411.737l-.48.351-.172-.243Z" transform="translate(-2291.875 421.11)" fill="#fff"/>
              <path id="Path_7184" data-name="Path 7184" d="M2308.078-411.737l.486.351.172-.243Z" transform="translate(-2290.506 421.11)" fill="#fff"/>
              <path id="Path_7185" data-name="Path 7185" d="M2308.078-411.737h.6v.3Z" transform="translate(-2290.506 421.11)" fill="#fff"/>
              <path id="Path_7186" data-name="Path 7186" d="M2310.3-410.773l-.187-.567-.277.094Z" transform="translate(-2291.812 420.815)" fill="#fff"/>
              <path id="Path_7187" data-name="Path 7187" d="M2310.237-410.853l-.486-.351.177-.243Z" transform="translate(-2291.748 420.894)" fill="#fff"/>
              <path id="Path_7188" data-name="Path 7188" d="M2308.914-410.853l.482-.351-.172-.243Z" transform="translate(-2291.126 420.894)" fill="#fff"/>
              <path id="Path_7189" data-name="Path 7189" d="M2308.914-410.773l.188-.567.288.094Z" transform="translate(-2291.126 420.815)" fill="#fff"/>
              <path id="Path_7190" data-name="Path 7190" d="M2330.731-377.751l-.182.564.288.094Z" transform="translate(-2307.188 395.877)" fill="#fff"/>
              <path id="Path_7191" data-name="Path 7191" d="M2331-377.751l.188.564-.276.094Z" transform="translate(-2307.46 395.877)" fill="#fff"/>
              <path id="Path_7192" data-name="Path 7192" d="M2331.747-376.164h-.6v.293Z" transform="translate(-2307.635 394.699)" fill="#fff"/>
              <path id="Path_7193" data-name="Path 7193" d="M2331.572-376.164l-.476.348-.182-.243Z" transform="translate(-2307.46 394.699)" fill="#fff"/>
              <path id="Path_7194" data-name="Path 7194" d="M2329.067-376.164l.487.348.171-.243Z" transform="translate(-2306.088 394.699)" fill="#fff"/>
              <path id="Path_7195" data-name="Path 7195" d="M2329.067-376.164h.6v.293Z" transform="translate(-2306.088 394.699)" fill="#fff"/>
              <path id="Path_7196" data-name="Path 7196" d="M2331.3-375.214l-.188-.564-.287.088Z" transform="translate(-2307.396 394.412)" fill="#fff"/>
              <path id="Path_7197" data-name="Path 7197" d="M2331.272-375.294l-.487-.348.177-.243Z" transform="translate(-2307.364 394.492)" fill="#fff"/>
              <path id="Path_7198" data-name="Path 7198" d="M2329.927-375.294l.481-.348-.177-.243Z" transform="translate(-2306.727 394.492)" fill="#fff"/>
              <path id="Path_7199" data-name="Path 7199" d="M2329.927-375.214l.182-.564.287.088Z" transform="translate(-2306.727 394.412)" fill="#fff"/>
              <path id="Path_7200" data-name="Path 7200" d="M2338.386-376.474l-.133.373.2.061Z" transform="translate(-2312.909 394.929)" fill="#fff"/>
              <path id="Path_7201" data-name="Path 7201" d="M2338.546-376.474l.122.373-.2.061Z" transform="translate(-2313.068 394.929)" fill="#fff"/>
              <path id="Path_7202" data-name="Path 7202" d="M2339.069-375.412h-.387v.193Z" transform="translate(-2313.227 394.141)" fill="#fff"/>
              <path id="Path_7203" data-name="Path 7203" d="M2338.942-375.412l-.315.232-.116-.163Z" transform="translate(-2313.1 394.141)" fill="#fff"/>
              <path id="Path_7204" data-name="Path 7204" d="M2337.288-375.412l.315.232.127-.163Z" transform="translate(-2312.192 394.141)" fill="#fff"/>
              <path id="Path_7205" data-name="Path 7205" d="M2337.288-375.412h.4v.193Z" transform="translate(-2312.192 394.141)" fill="#fff"/>
              <path id="Path_7206" data-name="Path 7206" d="M2338.751-374.8l-.111-.379-.193.066Z" transform="translate(-2313.053 393.965)" fill="#fff"/>
              <path id="Path_7207" data-name="Path 7207" d="M2338.718-374.846l-.315-.233.122-.163Z" transform="translate(-2313.02 394.014)" fill="#fff"/>
              <path id="Path_7208" data-name="Path 7208" d="M2337.846-374.846l.315-.233-.111-.163Z" transform="translate(-2312.606 394.014)" fill="#fff"/>
              <path id="Path_7209" data-name="Path 7209" d="M2337.846-374.8l.122-.379.182.066Z" transform="translate(-2312.606 393.965)" fill="#fff"/>
              <path id="Path_7210" data-name="Path 7210" d="M2333.053-372.622l-.144.473.227.077Z" transform="translate(-2308.941 392.069)" fill="#fff"/>
              <path id="Path_7211" data-name="Path 7211" d="M2333.26-372.622l.149.473-.221.077Z" transform="translate(-2309.149 392.069)" fill="#fff"/>
              <path id="Path_7212" data-name="Path 7212" d="M2333.874-371.28h-.492v.24Z" transform="translate(-2309.292 391.073)" fill="#fff"/>
              <path id="Path_7213" data-name="Path 7213" d="M2333.73-371.28l-.387.29-.155-.2Z" transform="translate(-2309.149 391.073)" fill="#fff"/>
              <path id="Path_7214" data-name="Path 7214" d="M2331.665-371.28l.4.29.144-.2Z" transform="translate(-2308.017 391.073)" fill="#fff"/>
              <path id="Path_7215" data-name="Path 7215" d="M2331.665-371.28h.492v.24Z" transform="translate(-2308.017 391.073)" fill="#fff"/>
              <path id="Path_7216" data-name="Path 7216" d="M2333.489-370.508l-.149-.473-.238.077Z" transform="translate(-2309.084 390.85)" fill="#fff"/>
              <path id="Path_7217" data-name="Path 7217" d="M2333.458-370.555l-.4-.3.144-.193Z" transform="translate(-2309.053 390.897)" fill="#fff"/>
              <path id="Path_7218" data-name="Path 7218" d="M2332.352-370.555l.4-.3-.144-.193Z" transform="translate(-2308.527 390.897)" fill="#fff"/>
              <path id="Path_7219" data-name="Path 7219" d="M2332.352-370.508l.149-.473.238.077Z" transform="translate(-2308.527 390.85)" fill="#fff"/>
              <path id="Path_7220" data-name="Path 7220" d="M2320.08-361.354l-.155.467.232.08Z" transform="translate(-2299.302 383.703)" fill="#fff"/>
              <path id="Path_7221" data-name="Path 7221" d="M2320.271-361.354l.149.467-.238.08Z" transform="translate(-2299.492 383.703)" fill="#fff"/>
              <path id="Path_7222" data-name="Path 7222" d="M2320.932-360.013h-.492v.248Z" transform="translate(-2299.684 382.708)" fill="#fff"/>
              <path id="Path_7223" data-name="Path 7223" d="M2320.773-360.013l-.4.287-.144-.2Z" transform="translate(-2299.524 382.708)" fill="#fff"/>
              <path id="Path_7224" data-name="Path 7224" d="M2318.724-360.013l.4.287.133-.2Z" transform="translate(-2298.409 382.708)" fill="#fff"/>
              <path id="Path_7225" data-name="Path 7225" d="M2318.724-360.013h.491v.248Z" transform="translate(-2298.409 382.708)" fill="#fff"/>
              <path id="Path_7226" data-name="Path 7226" d="M2320.505-359.232l-.138-.47-.249.075Z" transform="translate(-2299.445 382.477)" fill="#fff"/>
              <path id="Path_7227" data-name="Path 7227" d="M2320.474-359.289l-.4-.293.144-.2Z" transform="translate(-2299.413 382.533)" fill="#fff"/>
              <path id="Path_7228" data-name="Path 7228" d="M2319.41-359.289l.4-.293-.143-.2Z" transform="translate(-2298.918 382.533)" fill="#fff"/>
              <path id="Path_7229" data-name="Path 7229" d="M2319.41-359.232l.149-.47.238.075Z" transform="translate(-2298.918 382.477)" fill="#fff"/>
              <path id="Path_7230" data-name="Path 7230" d="M2320.106-355.538l-.116.37.188.064Z" transform="translate(-2299.349 379.385)" fill="#fff"/>
              <path id="Path_7231" data-name="Path 7231" d="M2320.249-355.538l.121.37-.188.064Z" transform="translate(-2299.492 379.385)" fill="#fff"/>
              <path id="Path_7232" data-name="Path 7232" d="M2320.784-354.476h-.387v.2Z" transform="translate(-2299.651 378.597)" fill="#fff"/>
              <path id="Path_7233" data-name="Path 7233" d="M2320.625-354.476l-.326.227-.116-.157Z" transform="translate(-2299.492 378.597)" fill="#fff"/>
              <path id="Path_7234" data-name="Path 7234" d="M2319-354.476l.315.227.116-.157Z" transform="translate(-2298.616 378.597)" fill="#fff"/>
              <path id="Path_7235" data-name="Path 7235" d="M2319-354.476h.393v.2Z" transform="translate(-2298.616 378.597)" fill="#fff"/>
              <path id="Path_7236" data-name="Path 7236" d="M2320.433-353.851l-.122-.368-.193.055Z" transform="translate(-2299.445 378.406)" fill="#fff"/>
              <path id="Path_7237" data-name="Path 7237" d="M2320.4-353.906l-.326-.227.122-.16Z" transform="translate(-2299.413 378.461)" fill="#fff"/>
              <path id="Path_7238" data-name="Path 7238" d="M2319.56-353.906l.315-.227-.122-.16Z" transform="translate(-2299.03 378.461)" fill="#fff"/>
              <path id="Path_7239" data-name="Path 7239" d="M2319.56-353.851l.122-.368.182.055Z" transform="translate(-2299.03 378.406)" fill="#fff"/>
              <path id="Path_7240" data-name="Path 7240" d="M2325.509-365.218l-.133.379.183.061Z" transform="translate(-2303.348 386.572)" fill="#fff"/>
              <path id="Path_7241" data-name="Path 7241" d="M2325.685-365.218l.11.379-.182.061Z" transform="translate(-2303.524 386.572)" fill="#fff"/>
              <path id="Path_7242" data-name="Path 7242" d="M2326.166-364.155h-.4v.2Z" transform="translate(-2303.635 385.783)" fill="#fff"/>
              <path id="Path_7243" data-name="Path 7243" d="M2326.055-364.155l-.321.238-.121-.158Z" transform="translate(-2303.524 385.783)" fill="#fff"/>
              <path id="Path_7244" data-name="Path 7244" d="M2324.411-364.155l.321.238.11-.158Z" transform="translate(-2302.632 385.783)" fill="#fff"/>
              <path id="Path_7245" data-name="Path 7245" d="M2324.411-364.155h.4v.2Z" transform="translate(-2302.632 385.783)" fill="#fff"/>
              <path id="Path_7246" data-name="Path 7246" d="M2325.879-363.514l-.127-.373-.182.061Z" transform="translate(-2303.492 385.584)" fill="#fff"/>
              <path id="Path_7247" data-name="Path 7247" d="M2325.847-363.561l-.32-.23.127-.16Z" transform="translate(-2303.46 385.631)" fill="#fff"/>
              <path id="Path_7248" data-name="Path 7248" d="M2324.969-363.561l.321-.23-.116-.16Z" transform="translate(-2303.046 385.631)" fill="#fff"/>
              <path id="Path_7249" data-name="Path 7249" d="M2324.969-363.514l.127-.373.183.061Z" transform="translate(-2303.046 385.584)" fill="#fff"/>
              <path id="Path_7250" data-name="Path 7250" d="M2329.754-368.3l-.149.467.226.077Z" transform="translate(-2306.488 388.858)" fill="#fff"/>
              <path id="Path_7251" data-name="Path 7251" d="M2329.928-368.3l.155.467-.243.077Z" transform="translate(-2306.663 388.858)" fill="#fff"/>
              <path id="Path_7252" data-name="Path 7252" d="M2330.569-366.967h-.492v.243Z" transform="translate(-2306.838 387.871)" fill="#fff"/>
              <path id="Path_7253" data-name="Path 7253" d="M2330.458-366.967l-.387.29-.144-.2Z" transform="translate(-2306.727 387.871)" fill="#fff"/>
              <path id="Path_7254" data-name="Path 7254" d="M2328.36-366.967l.4.29.143-.2Z" transform="translate(-2305.563 387.871)" fill="#fff"/>
              <path id="Path_7255" data-name="Path 7255" d="M2328.36-366.967h.492v.243Z" transform="translate(-2305.563 387.871)" fill="#fff"/>
              <path id="Path_7256" data-name="Path 7256" d="M2330.185-366.184l-.144-.462-.243.075Z" transform="translate(-2306.631 387.632)" fill="#fff"/>
              <path id="Path_7257" data-name="Path 7257" d="M2330.152-366.255l-.4-.287.144-.2Z" transform="translate(-2306.598 387.703)" fill="#fff"/>
              <path id="Path_7258" data-name="Path 7258" d="M2329.046-366.255l.409-.287-.155-.2Z" transform="translate(-2306.073 387.703)" fill="#fff"/>
              <path id="Path_7259" data-name="Path 7259" d="M2329.046-366.184l.16-.462.226.075Z" transform="translate(-2306.073 387.632)" fill="#fff"/>
              <path id="Path_7260" data-name="Path 7260" d="M2319.949-366.237l-.11.376.182.063Z" transform="translate(-2299.237 387.329)" fill="#fff"/>
              <path id="Path_7261" data-name="Path 7261" d="M2320.093-366.237l.133.376-.194.063Z" transform="translate(-2299.38 387.329)" fill="#fff"/>
              <path id="Path_7262" data-name="Path 7262" d="M2320.629-365.164h-.4v.2Z" transform="translate(-2299.524 386.532)" fill="#fff"/>
              <path id="Path_7263" data-name="Path 7263" d="M2320.518-365.164l-.326.23-.116-.163Z" transform="translate(-2299.413 386.532)" fill="#fff"/>
              <path id="Path_7264" data-name="Path 7264" d="M2318.852-365.164l.316.23.115-.163Z" transform="translate(-2298.504 386.532)" fill="#fff"/>
              <path id="Path_7265" data-name="Path 7265" d="M2318.852-365.164h.4v.2Z" transform="translate(-2298.504 386.532)" fill="#fff"/>
              <path id="Path_7266" data-name="Path 7266" d="M2320.31-364.536l-.127-.381-.193.058Z" transform="translate(-2299.349 386.349)" fill="#fff"/>
              <path id="Path_7267" data-name="Path 7267" d="M2320.294-364.568l-.326-.24.111-.152Z" transform="translate(-2299.333 386.38)" fill="#fff"/>
              <path id="Path_7268" data-name="Path 7268" d="M2319.41-364.568l.315-.24-.116-.152Z" transform="translate(-2298.918 386.38)" fill="#fff"/>
              <path id="Path_7269" data-name="Path 7269" d="M2319.41-364.536l.122-.381.194.058Z" transform="translate(-2298.918 386.349)" fill="#fff"/>
              <path id="Path_7270" data-name="Path 7270" d="M2272.67-394.052l-.155.467.238.074Z" transform="translate(-2264.102 407.979)" fill="#fff"/>
              <path id="Path_7271" data-name="Path 7271" d="M2272.877-394.052l.149.467-.232.074Z" transform="translate(-2264.309 407.979)" fill="#fff"/>
              <path id="Path_7272" data-name="Path 7272" d="M2273.522-392.732h-.492v.246Z" transform="translate(-2264.484 407)" fill="#fff"/>
              <path id="Path_7273" data-name="Path 7273" d="M2273.379-392.732l-.4.3-.144-.2Z" transform="translate(-2264.341 407)" fill="#fff"/>
              <path id="Path_7274" data-name="Path 7274" d="M2271.271-392.732l.4.3.144-.2Z" transform="translate(-2263.178 407)" fill="#fff"/>
              <path id="Path_7275" data-name="Path 7275" d="M2271.271-392.732h.492v.246Z" transform="translate(-2263.178 407)" fill="#fff"/>
              <path id="Path_7276" data-name="Path 7276" d="M2273.133-391.932l-.144-.467-.237.074Z" transform="translate(-2264.278 406.752)" fill="#fff"/>
              <path id="Path_7277" data-name="Path 7277" d="M2273.068-392l-.4-.29.144-.2Z" transform="translate(-2264.213 406.824)" fill="#fff"/>
              <path id="Path_7278" data-name="Path 7278" d="M2271.958-392l.409-.29-.144-.2Z" transform="translate(-2263.688 406.824)" fill="#fff"/>
              <path id="Path_7279" data-name="Path 7279" d="M2271.958-391.932l.16-.467.227.074Z" transform="translate(-2263.688 406.752)" fill="#fff"/>
              <path id="Path_7280" data-name="Path 7280" d="M2307.888-398.591l-.111.379.182.058Z" transform="translate(-2290.282 411.35)" fill="#fff"/>
              <path id="Path_7281" data-name="Path 7281" d="M2308.031-398.591l.133.379-.194.058Z" transform="translate(-2290.425 411.35)" fill="#fff"/>
              <path id="Path_7282" data-name="Path 7282" d="M2308.562-397.508h-.4v.194Z" transform="translate(-2290.569 410.546)" fill="#fff"/>
              <path id="Path_7283" data-name="Path 7283" d="M2308.45-397.508l-.326.233-.111-.161Z" transform="translate(-2290.458 410.546)" fill="#fff"/>
              <path id="Path_7284" data-name="Path 7284" d="M2306.768-397.508l.321.233.111-.161Z" transform="translate(-2289.533 410.546)" fill="#fff"/>
              <path id="Path_7285" data-name="Path 7285" d="M2306.768-397.508h.4v.194Z" transform="translate(-2289.533 410.546)" fill="#fff"/>
              <path id="Path_7286" data-name="Path 7286" d="M2308.243-396.882l-.133-.379-.182.064Z" transform="translate(-2290.394 410.362)" fill="#fff"/>
              <path id="Path_7287" data-name="Path 7287" d="M2308.211-396.938l-.326-.238.116-.16Z" transform="translate(-2290.362 410.418)" fill="#fff"/>
              <path id="Path_7288" data-name="Path 7288" d="M2307.327-396.938l.321-.238-.116-.16Z" transform="translate(-2289.948 410.418)" fill="#fff"/>
              <path id="Path_7289" data-name="Path 7289" d="M2307.327-396.882l.122-.379.188.064Z" transform="translate(-2289.948 410.362)" fill="#fff"/>
              <path id="Path_7290" data-name="Path 7290" d="M2293.049-372.494l-.188.564.288.094Z" transform="translate(-2279.208 391.974)" fill="#fff"/>
              <path id="Path_7291" data-name="Path 7291" d="M2293.32-372.494l.182.564-.277.094Z" transform="translate(-2279.478 391.974)" fill="#fff"/>
              <path id="Path_7292" data-name="Path 7292" d="M2294.09-370.906h-.586v.3Z" transform="translate(-2279.686 390.795)" fill="#fff"/>
              <path id="Path_7293" data-name="Path 7293" d="M2293.916-370.906l-.475.354-.171-.246Z" transform="translate(-2279.511 390.795)" fill="#fff"/>
              <path id="Path_7294" data-name="Path 7294" d="M2291.4-370.906l.492.354.16-.246Z" transform="translate(-2278.125 390.795)" fill="#fff"/>
              <path id="Path_7295" data-name="Path 7295" d="M2291.4-370.906h.592v.3Z" transform="translate(-2278.125 390.795)" fill="#fff"/>
              <path id="Path_7296" data-name="Path 7296" d="M2293.605-369.936l-.177-.561-.288.088Z" transform="translate(-2279.415 390.492)" fill="#fff"/>
              <path id="Path_7297" data-name="Path 7297" d="M2293.573-370.016l-.476-.351.166-.238Z" transform="translate(-2279.383 390.572)" fill="#fff"/>
              <path id="Path_7298" data-name="Path 7298" d="M2292.239-370.016l.481-.351-.177-.238Z" transform="translate(-2278.746 390.572)" fill="#fff"/>
              <path id="Path_7299" data-name="Path 7299" d="M2292.239-369.936l.182-.561.288.088Z" transform="translate(-2278.746 390.492)" fill="#fff"/>
              <path id="Path_7300" data-name="Path 7300" d="M2299.391-382.784l-.155.47.238.072Z" transform="translate(-2283.941 399.614)" fill="#fff"/>
              <path id="Path_7301" data-name="Path 7301" d="M2299.6-382.784l.155.47-.238.072Z" transform="translate(-2284.148 399.614)" fill="#fff"/>
              <path id="Path_7302" data-name="Path 7302" d="M2300.205-381.453h-.5v.24Z" transform="translate(-2284.291 398.626)" fill="#fff"/>
              <path id="Path_7303" data-name="Path 7303" d="M2300.062-381.453l-.4.287-.144-.2Z" transform="translate(-2284.148 398.626)" fill="#fff"/>
              <path id="Path_7304" data-name="Path 7304" d="M2298.013-381.453l.4.287.144-.2Z" transform="translate(-2283.032 398.626)" fill="#fff"/>
              <path id="Path_7305" data-name="Path 7305" d="M2298.013-381.453h.492v.24Z" transform="translate(-2283.032 398.626)" fill="#fff"/>
              <path id="Path_7306" data-name="Path 7306" d="M2299.837-380.681l-.155-.473-.232.08Z" transform="translate(-2284.099 398.403)" fill="#fff"/>
              <path id="Path_7307" data-name="Path 7307" d="M2299.8-380.745l-.4-.293.144-.2Z" transform="translate(-2284.067 398.467)" fill="#fff"/>
              <path id="Path_7308" data-name="Path 7308" d="M2298.678-380.745l.4-.293-.144-.2Z" transform="translate(-2283.526 398.467)" fill="#fff"/>
              <path id="Path_7309" data-name="Path 7309" d="M2298.678-380.681l.154-.473.239.08Z" transform="translate(-2283.526 398.403)" fill="#fff"/>
              <path id="Path_7310" data-name="Path 7310" d="M2293.145-387.6l-.154.464.237.077Z" transform="translate(-2279.304 403.191)" fill="#fff"/>
              <path id="Path_7311" data-name="Path 7311" d="M2293.384-387.6l.149.464-.221.077Z" transform="translate(-2279.542 403.191)" fill="#fff"/>
              <path id="Path_7312" data-name="Path 7312" d="M2294-386.294h-.492v.249Z" transform="translate(-2279.686 402.219)" fill="#fff"/>
              <path id="Path_7313" data-name="Path 7313" d="M2293.854-386.294l-.4.287-.144-.2Z" transform="translate(-2279.542 402.219)" fill="#fff"/>
              <path id="Path_7314" data-name="Path 7314" d="M2291.788-386.294l.4.287.133-.2Z" transform="translate(-2278.411 402.219)" fill="#fff"/>
              <path id="Path_7315" data-name="Path 7315" d="M2291.788-386.294h.492v.249Z" transform="translate(-2278.411 402.219)" fill="#fff"/>
              <path id="Path_7316" data-name="Path 7316" d="M2293.612-385.5l-.149-.47-.238.072Z" transform="translate(-2279.478 401.98)" fill="#fff"/>
              <path id="Path_7317" data-name="Path 7317" d="M2293.581-385.566l-.4-.29.144-.2Z" transform="translate(-2279.447 402.045)" fill="#fff"/>
              <path id="Path_7318" data-name="Path 7318" d="M2292.475-385.566l.4-.29-.144-.2Z" transform="translate(-2278.921 402.045)" fill="#fff"/>
              <path id="Path_7319" data-name="Path 7319" d="M2292.475-385.5l.149-.47.238.072Z" transform="translate(-2278.921 401.98)" fill="#fff"/>
              <path id="Path_7320" data-name="Path 7320" d="M2287.81-382.409l-.122.379.193.06Z" transform="translate(-2275.368 399.335)" fill="#fff"/>
              <path id="Path_7321" data-name="Path 7321" d="M2287.986-382.409l.133.379-.193.06Z" transform="translate(-2275.542 399.335)" fill="#fff"/>
              <path id="Path_7322" data-name="Path 7322" d="M2288.511-381.346h-.393v.193Z" transform="translate(-2275.687 398.546)" fill="#fff"/>
              <path id="Path_7323" data-name="Path 7323" d="M2288.367-381.346l-.32.232-.122-.163Z" transform="translate(-2275.542 398.546)" fill="#fff"/>
              <path id="Path_7324" data-name="Path 7324" d="M2286.744-381.346l.315.232.111-.163Z" transform="translate(-2274.667 398.546)" fill="#fff"/>
              <path id="Path_7325" data-name="Path 7325" d="M2286.744-381.346h.387v.193Z" transform="translate(-2274.667 398.546)" fill="#fff"/>
              <path id="Path_7326" data-name="Path 7326" d="M2288.192-380.714l-.116-.376-.193.061Z" transform="translate(-2275.511 398.356)" fill="#fff"/>
              <path id="Path_7327" data-name="Path 7327" d="M2288.176-380.761l-.315-.232.122-.161Z" transform="translate(-2275.495 398.403)" fill="#fff"/>
              <path id="Path_7328" data-name="Path 7328" d="M2287.3-380.761l.315-.232-.116-.161Z" transform="translate(-2275.081 398.403)" fill="#fff"/>
              <path id="Path_7329" data-name="Path 7329" d="M2287.3-380.714l.122-.376.182.061Z" transform="translate(-2275.081 398.356)" fill="#fff"/>
              <path id="Path_7330" data-name="Path 7330" d="M2290.653-378.234l-.089.268.133.041Z" transform="translate(-2277.503 396.235)" fill="#fff"/>
              <path id="Path_7331" data-name="Path 7331" d="M2290.765-378.234l.083.268-.133.041Z" transform="translate(-2277.615 396.235)" fill="#fff"/>
              <path id="Path_7332" data-name="Path 7332" d="M2291.126-377.484h-.282v.141Z" transform="translate(-2277.71 395.679)" fill="#fff"/>
              <path id="Path_7333" data-name="Path 7333" d="M2291.062-377.484l-.221.169-.083-.116Z" transform="translate(-2277.646 395.679)" fill="#fff"/>
              <path id="Path_7334" data-name="Path 7334" d="M2289.834-377.484l.238.169.083-.116Z" transform="translate(-2276.961 395.679)" fill="#fff"/>
              <path id="Path_7335" data-name="Path 7335" d="M2289.834-377.484h.288v.141Z" transform="translate(-2276.961 395.679)" fill="#fff"/>
              <path id="Path_7336" data-name="Path 7336" d="M2290.888-377.019l-.083-.271-.133.041Z" transform="translate(-2277.582 395.534)" fill="#fff"/>
              <path id="Path_7337" data-name="Path 7337" d="M2290.856-377.059l-.227-.169.094-.116Z" transform="translate(-2277.551 395.575)" fill="#fff"/>
              <path id="Path_7338" data-name="Path 7338" d="M2290.242-377.059l.227-.169-.083-.116Z" transform="translate(-2277.264 395.575)" fill="#fff"/>
              <path id="Path_7339" data-name="Path 7339" d="M2290.242-377.019l.094-.271.133.041Z" transform="translate(-2277.264 395.534)" fill="#fff"/>
              <path id="Path_7340" data-name="Path 7340" d="M2309.263-360.047l-.155.473.238.08Z" transform="translate(-2291.27 382.732)" fill="#fff"/>
              <path id="Path_7341" data-name="Path 7341" d="M2309.455-360.047l.155.473-.243.08Z" transform="translate(-2291.462 382.732)" fill="#fff"/>
              <path id="Path_7342" data-name="Path 7342" d="M2310.093-358.726h-.492v.254Z" transform="translate(-2291.636 381.752)" fill="#fff"/>
              <path id="Path_7343" data-name="Path 7343" d="M2309.951-358.726l-.4.3-.144-.2Z" transform="translate(-2291.494 381.752)" fill="#fff"/>
              <path id="Path_7344" data-name="Path 7344" d="M2307.885-358.726l.392.3.155-.2Z" transform="translate(-2290.362 381.752)" fill="#fff"/>
              <path id="Path_7345" data-name="Path 7345" d="M2307.885-358.726h.492v.254Z" transform="translate(-2290.362 381.752)" fill="#fff"/>
              <path id="Path_7346" data-name="Path 7346" d="M2309.71-357.92l-.155-.473-.232.08Z" transform="translate(-2291.43 381.505)" fill="#fff"/>
              <path id="Path_7347" data-name="Path 7347" d="M2309.677-357.968l-.4-.29.144-.2Z" transform="translate(-2291.397 381.552)" fill="#fff"/>
              <path id="Path_7348" data-name="Path 7348" d="M2308.572-357.968l.4-.29-.144-.2Z" transform="translate(-2290.873 381.552)" fill="#fff"/>
              <path id="Path_7349" data-name="Path 7349" d="M2308.572-357.92l.149-.473.238.08Z" transform="translate(-2290.873 381.505)" fill="#fff"/>
              <path id="Path_7350" data-name="Path 7350" d="M2313.951-364.4l-.121.376.183.063Z" transform="translate(-2294.776 385.967)" fill="#fff"/>
              <path id="Path_7351" data-name="Path 7351" d="M2314.1-364.4l.121.376-.193.063Z" transform="translate(-2294.919 385.967)" fill="#fff"/>
              <path id="Path_7352" data-name="Path 7352" d="M2314.614-363.33h-.4v.188Z" transform="translate(-2295.063 385.17)" fill="#fff"/>
              <path id="Path_7353" data-name="Path 7353" d="M2314.5-363.33l-.315.227-.122-.155Z" transform="translate(-2294.95 385.17)" fill="#fff"/>
              <path id="Path_7354" data-name="Path 7354" d="M2312.821-363.33l.321.227.122-.155Z" transform="translate(-2294.027 385.17)" fill="#fff"/>
              <path id="Path_7355" data-name="Path 7355" d="M2312.821-363.33h.4v.188Z" transform="translate(-2294.027 385.17)" fill="#fff"/>
              <path id="Path_7356" data-name="Path 7356" d="M2314.328-362.717l-.122-.376-.182.063Z" transform="translate(-2294.919 384.994)" fill="#fff"/>
              <path id="Path_7357" data-name="Path 7357" d="M2314.3-362.766l-.315-.232.116-.161Z" transform="translate(-2294.888 385.043)" fill="#fff"/>
              <path id="Path_7358" data-name="Path 7358" d="M2313.423-362.766l.315-.232-.122-.161Z" transform="translate(-2294.473 385.043)" fill="#fff"/>
              <path id="Path_7359" data-name="Path 7359" d="M2313.423-362.717l.122-.376.188.063Z" transform="translate(-2294.473 384.994)" fill="#fff"/>
              <path id="Path_7360" data-name="Path 7360" d="M2305.109-365.723l-.123.373.183.066Z" transform="translate(-2288.21 386.947)" fill="#fff"/>
              <path id="Path_7361" data-name="Path 7361" d="M2305.284-365.723l.122.373-.183.066Z" transform="translate(-2288.386 386.947)" fill="#fff"/>
              <path id="Path_7362" data-name="Path 7362" d="M2305.766-364.671h-.392v.2Z" transform="translate(-2288.498 386.166)" fill="#fff"/>
              <path id="Path_7363" data-name="Path 7363" d="M2305.654-364.671l-.32.238-.111-.166Z" transform="translate(-2288.386 386.166)" fill="#fff"/>
              <path id="Path_7364" data-name="Path 7364" d="M2303.979-364.671l.321.238.11-.166Z" transform="translate(-2287.462 386.166)" fill="#fff"/>
              <path id="Path_7365" data-name="Path 7365" d="M2303.979-364.671h.4v.2Z" transform="translate(-2287.462 386.166)" fill="#fff"/>
              <path id="Path_7366" data-name="Path 7366" d="M2305.453-364.027l-.121-.376-.194.064Z" transform="translate(-2288.322 385.967)" fill="#fff"/>
              <path id="Path_7367" data-name="Path 7367" d="M2305.42-364.066l-.325-.232.122-.157Z" transform="translate(-2288.291 386.006)" fill="#fff"/>
              <path id="Path_7368" data-name="Path 7368" d="M2304.537-364.066l.32-.232-.116-.157Z" transform="translate(-2287.876 386.006)" fill="#fff"/>
              <path id="Path_7369" data-name="Path 7369" d="M2304.537-364.027l.121-.376.2.064Z" transform="translate(-2287.876 385.967)" fill="#fff"/>
              <path id="Path_7370" data-name="Path 7370" d="M2271.49-368.105l-.177.561.276.094Z" transform="translate(-2263.21 388.716)" fill="#fff"/>
              <path id="Path_7371" data-name="Path 7371" d="M2271.729-368.105l.183.561-.276.094Z" transform="translate(-2263.449 388.716)" fill="#fff"/>
              <path id="Path_7372" data-name="Path 7372" d="M2272.512-366.5h-.6v.3Z" transform="translate(-2263.656 387.52)" fill="#fff"/>
              <path id="Path_7373" data-name="Path 7373" d="M2272.336-366.5l-.492.346-.166-.241Z" transform="translate(-2263.481 387.52)" fill="#fff"/>
              <path id="Path_7374" data-name="Path 7374" d="M2269.789-366.5l.5.346.16-.241Z" transform="translate(-2262.078 387.52)" fill="#fff"/>
              <path id="Path_7375" data-name="Path 7375" d="M2269.789-366.5h.6v.3Z" transform="translate(-2262.078 387.52)" fill="#fff"/>
              <path id="Path_7376" data-name="Path 7376" d="M2272.046-365.547l-.177-.561-.276.089Z" transform="translate(-2263.417 387.233)" fill="#fff"/>
              <path id="Path_7377" data-name="Path 7377" d="M2271.982-365.628l-.476-.348.166-.241Z" transform="translate(-2263.353 387.313)" fill="#fff"/>
              <path id="Path_7378" data-name="Path 7378" d="M2270.648-365.628l.48-.348-.177-.241Z" transform="translate(-2262.716 387.313)" fill="#fff"/>
              <path id="Path_7379" data-name="Path 7379" d="M2270.648-365.547l.193-.561.276.089Z" transform="translate(-2262.716 387.233)" fill="#fff"/>
              <path id="Path_7380" data-name="Path 7380" d="M2293.416-353.038l-.061.191.089.03Z" transform="translate(-2279.574 377.529)" fill="#fff"/>
              <path id="Path_7381" data-name="Path 7381" d="M2293.527-353.038l.061.191-.083.03Z" transform="translate(-2279.686 377.529)" fill="#fff"/>
              <path id="Path_7382" data-name="Path 7382" d="M2293.753-352.491h-.2v.1Z" transform="translate(-2279.718 377.123)" fill="#fff"/>
              <path id="Path_7383" data-name="Path 7383" d="M2293.721-352.491l-.166.116-.05-.083Z" transform="translate(-2279.686 377.123)" fill="#fff"/>
              <path id="Path_7384" data-name="Path 7384" d="M2292.861-352.491l.166.116.05-.083Z" transform="translate(-2279.208 377.123)" fill="#fff"/>
              <path id="Path_7385" data-name="Path 7385" d="M2292.861-352.491h.194v.1Z" transform="translate(-2279.208 377.123)" fill="#fff"/>
              <path id="Path_7386" data-name="Path 7386" d="M2293.606-352.184l-.05-.188-.094.033Z" transform="translate(-2279.654 377.035)" fill="#fff"/>
              <path id="Path_7387" data-name="Path 7387" d="M2293.574-352.193l-.155-.113.05-.077Z" transform="translate(-2279.623 377.043)" fill="#fff"/>
              <path id="Path_7388" data-name="Path 7388" d="M2293.141-352.193l.155-.113-.05-.077Z" transform="translate(-2279.415 377.043)" fill="#fff"/>
              <path id="Path_7389" data-name="Path 7389" d="M2293.141-352.184l.066-.188.088.033Z" transform="translate(-2279.415 377.035)" fill="#fff"/>
            </g>
          </g>
        </g>
      </g>
    </g>
  </g>
</svg>
