<svg xmlns="http://www.w3.org/2000/svg" xmlns:xlink="http://www.w3.org/1999/xlink" width="291.65" height="332.632" viewBox="0 0 291.65 332.632">
  <defs>
    <clipPath id="clip-path">
      <path id="Path_34530" data-name="Path 34530" d="M303.115,508.767,435.252,358.051,567.389,508.767,435.252,659.482Z" fill="none"/>
    </clipPath>
  </defs>
  <g id="Group_4464" data-name="Group 4464" transform="translate(-289.192 -340.684)">
    <path id="Path_7082" data-name="Path 7082" d="M289.192,507,435.017,340.684,580.843,507,435.017,673.316Z" fill="#fff"/>
    <g id="Group_4463" data-name="Group 4463">
      <g id="Group_21322" data-name="Group 21322">
        <g id="Group_21321" data-name="Group 21321" clip-path="url(#clip-path)">
          <g id="Group_21320" data-name="Group 21320">
            <g id="Group_21307" data-name="Group 21307">
              <path id="Path_34498" data-name="Path 34498" d="M871.752,561.28V456.246h-873V561.28Z" fill="#fff"/>
              <path id="Path_34499" data-name="Path 34499" d="M-1.248,666.313h873V561.28h-873V666.313Z" fill="#0437a0"/>
              <path id="Path_34500" data-name="Path 34500" d="M-1.248,456.246h873V351.22h-873V456.246Z" fill="#e60000"/>
            </g>
            <g id="Group_21319" data-name="Group 21319">
              <path id="Path_34501" data-name="Path 34501" d="M497.476,431.311a154.326,154.326,0,0,0-8.5-15.23l-.481-.757-.856.259A130,130,0,0,0,472.96,421a148.426,148.426,0,0,0-10.185-12.58l-.612-.677-.81.422a136.987,136.987,0,0,0-13.514,8.094,142.626,142.626,0,0,0-12.007-10.477l-.724-.565-.725.565a143.073,143.073,0,0,0-12.006,10.477,136.987,136.987,0,0,0-13.514-8.094l-.809-.422-.613.677A148.224,148.224,0,0,0,397.257,421a130.235,130.235,0,0,0-14.676-5.42l-.858-.259-.479.757a154.748,154.748,0,0,0-8.5,15.23l-.236.486,12.428,28.724,1.118-.567c3.061-1.551,6.226-2.97,9.41-4.218,3.16-1.24,6.415-2.345,9.676-3.281,3.241-.931,6.564-1.72,9.88-2.344,3.3-.62,6.67-1.093,10.012-1.4s6.729-.468,10.081-.468,6.743.157,10.08.468,6.715.785,10.014,1.4,6.638,1.413,9.879,2.344c3.262.938,6.517,2.041,9.676,3.281,3.182,1.248,6.347,2.667,9.41,4.218l1.118.567L497.713,431.8Z" fill="#fff"/>
              <path id="Path_34502" data-name="Path 34502" d="M487.975,416.714a128.651,128.651,0,0,0-15.411,5.741q-3.58,14.435-7.158,28.866,4.948,1.42,9.783,3.315T484.7,458.9q5.859-13.536,11.714-27.073A151.931,151.931,0,0,0,487.975,416.714Z" fill="#60bee1"/>
              <path id="Path_34503" data-name="Path 34503" d="M408.316,409.216a146.671,146.671,0,0,0-10.663,13.239l7.157,28.866q4.947-1.424,9.986-2.37t10.123-1.42q-1.2-14.88-2.408-29.76A134.862,134.862,0,0,0,408.316,409.216Z" fill="#0437a0"/>
              <path id="Path_34504" data-name="Path 34504" d="M424.247,439.249c-3.444.337-7.182.755-10.676,1.333-3.677.643-7.3,1.411-10.827,2.394q-.949-3.813-1.892-7.625a67.564,67.564,0,0,1,11.014-2.86,74.579,74.579,0,0,1,11.779-.663Q423.949,435.539,424.247,439.249Z" fill="#160080"/>
              <path id="Path_34505" data-name="Path 34505" d="M383.617,461.986l-.265,66.007c1.97,26.18,29,46.2,53.448,45.106,22.657.158,47.45-19.116,50.065-44.891V461.986Zm102.02,66.161c-1.2,11.723-7.232,22.8-16.972,31.2-9.233,7.961-20.743,12.523-31.583,12.523h-.338c-.613.03-1.24.043-1.865.043-11.479,0-23.585-4.64-33.222-12.725-10.122-8.5-16.187-19.588-17.078-31.24l.259-64.735h100.8Z" fill="#e60000"/>
              <path id="Path_34506" data-name="Path 34506" d="M485.637,463.214v64.933c-1.2,11.723-7.232,22.8-16.972,31.2-9.233,7.961-20.743,12.523-31.583,12.523h-.338c-.613.03-1.24.043-1.865.043-11.479,0-23.585-4.64-33.222-12.725-10.122-8.5-16.187-19.588-17.078-31.24l.259-64.735Z" fill="#fff"/>
              <g id="Group_21308" data-name="Group 21308">
                <rect id="Rectangle_1726" data-name="Rectangle 1726" width="20.212" height="21.873" transform="translate(425.002 506.962)" fill="#e60000"/>
                <rect id="Rectangle_1727" data-name="Rectangle 1727" width="20.212" height="21.874" transform="translate(404.79 485.088)" fill="#e60000"/>
                <rect id="Rectangle_1728" data-name="Rectangle 1728" width="20.212" height="20.646" transform="translate(425.002 464.442)" fill="#e60000"/>
                <path id="Path_34507" data-name="Path 34507" d="M425,569.548a45.131,45.131,0,0,0,9.877,1.138c.606,0,1.217-.014,1.865-.041h.338a40.619,40.619,0,0,0,8.132-.849V550.71H425Z" fill="#e60000"/>
                <path id="Path_34508" data-name="Path 34508" d="M467.863,558.42a51.961,51.961,0,0,0,7.293-7.71h-9.73v9.676C466.252,559.754,467.069,559.106,467.863,558.42Z" fill="#e60000"/>
                <path id="Path_34509" data-name="Path 34509" d="M386.061,464.442l-.083,20.646H404.79V464.442Z" fill="#e60000"/>
                <path id="Path_34510" data-name="Path 34510" d="M484.312,528.835c.031-.251.071-.5.1-.754V506.962H465.426v21.873Z" fill="#e60000"/>
                <path id="Path_34511" data-name="Path 34511" d="M402.444,558.246c.766.642,1.551,1.254,2.346,1.852V550.71H395.1A51.97,51.97,0,0,0,402.444,558.246Z" fill="#e60000"/>
                <path id="Path_34512" data-name="Path 34512" d="M385.891,506.962l-.085,20.943c.024.311.068.619.1.93H404.79V506.962Z" fill="#e60000"/>
                <rect id="Rectangle_1729" data-name="Rectangle 1729" width="20.212" height="21.874" transform="translate(404.79 528.835)" fill="#e60000"/>
                <rect id="Rectangle_1730" data-name="Rectangle 1730" width="18.983" height="20.646" transform="translate(465.426 464.442)" fill="#e60000"/>
                <rect id="Rectangle_1731" data-name="Rectangle 1731" width="20.212" height="21.874" transform="translate(445.214 528.835)" fill="#e60000"/>
                <rect id="Rectangle_1732" data-name="Rectangle 1732" width="20.212" height="21.874" transform="translate(445.214 485.088)" fill="#e60000"/>
              </g>
              <path id="Path_34513" data-name="Path 34513" d="M435.108,406.716a141,141,0,0,0-12.6,11.055q1.2,14.879,2.408,29.76,5.082-.474,10.189-.474t10.191.474q1.2-14.88,2.406-29.76A141,141,0,0,0,435.108,406.716Z" fill="#60bee1"/>
              <path id="Path_34514" data-name="Path 34514" d="M461.9,409.216a134.762,134.762,0,0,0-14.2,8.555q-1.2,14.879-2.406,29.76,5.082.474,10.121,1.42t9.986,2.37q3.58-14.435,7.158-28.866A146.859,146.859,0,0,0,461.9,409.216Z" fill="#0437a0"/>
              <path id="Path_34515" data-name="Path 34515" d="M382.241,416.714a152.536,152.536,0,0,0-8.439,15.113q5.857,13.536,11.714,27.073,4.677-2.368,9.51-4.264t9.784-3.315l-7.157-28.866A128.8,128.8,0,0,0,382.241,416.714Z" fill="#60bee1"/>
              <path id="Path_34516" data-name="Path 34516" d="M492.574,440.709c-.424.971-.841,1.934-1.259,2.9q-1.638,3.786-3.278,7.563c-.393.915-.786,1.824-1.185,2.738-3.56-1.35-6.966-2.388-10.483-3.505-3.328-1.055-6.6-2.038-9.975-3.069.238-.971.483-1.946.724-2.922q.984-3.949,1.958-7.913c.257-1.013.51-2.032.761-3.05a107.082,107.082,0,0,1,12.038,3.192A113.442,113.442,0,0,1,492.574,440.709Z" fill="#4c73d5"/>
              <path id="Path_34517" data-name="Path 34517" d="M385.049,425.285l2.358,1.656,2.613-1.214-.256,2.87,2.357,1.656-2.613,1.214-.256,2.87-2.357-1.656-2.614,1.212.256-2.87-2.357-1.656,2.613-1.212Z" fill="#ffc400"/>
              <path id="Path_34518" data-name="Path 34518" d="M486.259,422.6l-2.357,1.656-2.613-1.212.256,2.869-2.357,1.658,2.613,1.212.256,2.87,2.357-1.656,2.613,1.213-.256-2.869,2.358-1.658-2.613-1.213Z" fill="#ffc400"/>
              <path id="Path_34519" data-name="Path 34519" d="M397.241,436.052a7.591,7.591,0,0,1-14.151,4.958,7.591,7.591,0,1,0,14.151-4.958Z" fill="#fff"/>
              <g id="Group_21311" data-name="Group 21311">
                <path id="Path_34520" data-name="Path 34520" d="M433.286,421.431v-.777h.844v-.878h-1.89v.643h-1.148v-.98h-.844V418.9h-1.214v.539h-.845v.98h-1.147v-.643h-1.89v.878H426v.777h.843l.169,1.046h-1.856v1.046h.928v.776h-.928v1.25h.742v1.574s1.856,2.51,3.747,2.51,3.746-2.51,3.746-2.51v-1.574h.743V424.3H433.2v-.776h.929v-1.046h-1.857l.168-1.046Z" fill="#ffc400"/>
                <g id="Group_21309" data-name="Group 21309" opacity="0.3" style="mix-blend-mode: multiply;isolation: isolate">
                  <rect id="Rectangle_1733" data-name="Rectangle 1733" width="1.081" height="1.081" transform="translate(427.952 423.489)" fill="#ff931e"/>
                  <rect id="Rectangle_1734" data-name="Rectangle 1734" width="1.08" height="1.081" transform="translate(430.248 423.489)" fill="#ff931e"/>
                </g>
                <g id="Group_21310" data-name="Group 21310" opacity="0.3" style="mix-blend-mode: multiply;isolation: isolate">
                  <rect id="Rectangle_1735" data-name="Rectangle 1735" width="1.08" height="0.539" transform="translate(428.02 426.393)" fill="#ff931e"/>
                  <rect id="Rectangle_1736" data-name="Rectangle 1736" width="1.081" height="0.539" transform="translate(430.18 426.393)" fill="#ff931e"/>
                  <rect id="Rectangle_1737" data-name="Rectangle 1737" width="1.08" height="0.541" transform="translate(429.1 426.932)" fill="#ff931e"/>
                </g>
              </g>
              <g id="Group_21314" data-name="Group 21314">
                <path id="Path_34521" data-name="Path 34521" d="M444.22,421.431v-.777h.845v-.878h-1.89v.643h-1.148v-.98h-.843V418.9h-1.215v.539h-.845v.98h-1.147v-.643h-1.891v.878h.845v.777h.844l.168,1.046h-1.857v1.046h.929v.776h-.929v1.25h.743v1.574s1.856,2.51,3.747,2.51,3.746-2.51,3.746-2.51v-1.574h.743V424.3h-.928v-.776h.928v-1.046h-1.857l.168-1.046Z" fill="#ffc400"/>
                <g id="Group_21312" data-name="Group 21312" opacity="0.3" style="mix-blend-mode: multiply;isolation: isolate">
                  <rect id="Rectangle_1738" data-name="Rectangle 1738" width="1.082" height="1.081" transform="translate(438.887 423.489)" fill="#ff931e"/>
                  <rect id="Rectangle_1739" data-name="Rectangle 1739" width="1.081" height="1.081" transform="translate(441.183 423.489)" fill="#ff931e"/>
                </g>
                <g id="Group_21313" data-name="Group 21313" opacity="0.3" style="mix-blend-mode: multiply;isolation: isolate">
                  <rect id="Rectangle_1740" data-name="Rectangle 1740" width="1.08" height="0.539" transform="translate(438.955 426.393)" fill="#ff931e"/>
                  <rect id="Rectangle_1741" data-name="Rectangle 1741" width="1.08" height="0.539" transform="translate(441.116 426.393)" fill="#ff931e"/>
                  <rect id="Rectangle_1742" data-name="Rectangle 1742" width="1.082" height="0.541" transform="translate(440.035 426.932)" fill="#ff931e"/>
                </g>
              </g>
              <g id="Group_21317" data-name="Group 21317">
                <path id="Path_34522" data-name="Path 34522" d="M438.753,434.493v-.778h.844v-.876h-1.89v.641h-1.148V432.5h-.844v-.54H434.5v.54h-.844v.979h-1.148v-.641h-1.89v.876h.844v.778h.844l.168,1.046h-1.856v1.047h.929v.776h-.929v1.248h.742v1.574s1.857,2.51,3.747,2.51,3.747-2.51,3.747-2.51V438.61h.742v-1.248h-.929v-.776h.929v-1.047h-1.856l.168-1.046Z" fill="#ffc400"/>
                <g id="Group_21315" data-name="Group 21315" opacity="0.3" style="mix-blend-mode: multiply;isolation: isolate">
                  <rect id="Rectangle_1743" data-name="Rectangle 1743" width="1.082" height="1.08" transform="translate(433.42 436.552)" fill="#ff931e"/>
                  <rect id="Rectangle_1744" data-name="Rectangle 1744" width="1.081" height="1.08" transform="translate(435.715 436.552)" fill="#ff931e"/>
                </g>
                <g id="Group_21316" data-name="Group 21316" opacity="0.3" style="mix-blend-mode: multiply;isolation: isolate">
                  <rect id="Rectangle_1745" data-name="Rectangle 1745" width="1.08" height="0.541" transform="translate(433.487 439.454)" fill="#ff931e"/>
                  <rect id="Rectangle_1746" data-name="Rectangle 1746" width="1.08" height="0.541" transform="translate(435.649 439.454)" fill="#ff931e"/>
                  <rect id="Rectangle_1747" data-name="Rectangle 1747" width="1.081" height="0.541" transform="translate(434.567 439.995)" fill="#ff931e"/>
                </g>
              </g>
              <path id="Path_34523" data-name="Path 34523" d="M423.086,424.922a91.5,91.5,0,0,0-12.308,1.135,50.153,50.153,0,0,0-11.491,2.984q-.817-3.279-1.627-6.562a44.564,44.564,0,0,1,11.437-3.628,95.94,95.94,0,0,1,13.419-1.037Q422.8,421.368,423.086,424.922Z" fill="#e60000"/>
              <path id="Path_34524" data-name="Path 34524" d="M424.247,439.249c-3.444.337-7.182.755-10.676,1.333-3.677.643-7.3,1.411-10.827,2.394q-.949-3.813-1.892-7.625a67.564,67.564,0,0,1,11.014-2.86,74.579,74.579,0,0,1,11.779-.663Q423.949,435.539,424.247,439.249Z" fill="#e60000"/>
              <g id="Group_21318" data-name="Group 21318">
                <path id="Path_34525" data-name="Path 34525" d="M459.281,428.23a12.612,12.612,0,0,0,2.885.392,5.691,5.691,0,0,0,.624-.046,4.494,4.494,0,0,0,1.524-.453,4.784,4.784,0,0,0,.793-.407.563.563,0,0,0,.259-.289c.025-.1-.063-.17.01-.282a1.7,1.7,0,0,0-.532,0,5.907,5.907,0,0,1-2.77.231,3.466,3.466,0,0,1-1.04-.393c-.145-.068-1.017-.319-.792-.522.168-.151.777-.031,1-.051a2.672,2.672,0,0,0,.921-.257,2.337,2.337,0,0,0,.882-.442,1.14,1.14,0,0,0,.329-.385c.011-.024.1-.375.059-.375a3.789,3.789,0,0,0-.508-.046c-1.564.949-3.308-.2-4.91-.458a8.261,8.261,0,0,0-3.148.2,2.925,2.925,0,0,0-1,.448c-.347.249-.6.444-.18.773a6.243,6.243,0,0,0,1.859,1.222c.689.21,1.433.145,2.114.388A16.061,16.061,0,0,0,459.281,428.23Z" fill="#e60000"/>
                <path id="Path_34526" data-name="Path 34526" d="M466.662,432.635a3.83,3.83,0,0,1,.329-.573l-.023-1.454c0-.116-.184-.464-.392-.508a.851.851,0,0,0-.486.3l-.714.531a2.306,2.306,0,0,1-1.2,0h-.993a1.531,1.531,0,0,1-1.154,0l-.647.047a2.83,2.83,0,0,1-.507.206l-.6-.021a12.244,12.244,0,0,0-1.662.229,2.536,2.536,0,0,0-1.293-.185l-.508-.115a5.783,5.783,0,0,1-1.336-1.424c-.057-.1-.115-.2-.168-.3.074.142,1.352-.575,1.485-.684.216-.179,1.025-.981.523-1.106a4.8,4.8,0,0,0-1.036.058,2.961,2.961,0,0,1-.8-.015c-.756-.2-1.329-1.046-1.993-1.436-.453-.266-.387-.388-.863-.138-.225.117-.269.472-.525.57a.851.851,0,0,1-.6-.114c-.311-.139-1-.8-1.326-.591-.239.153-.225.626-.147.86a2.235,2.235,0,0,0,.994.969,4.273,4.273,0,0,1-.393,1.156c-.092.184-.208.392-.3.6a1.5,1.5,0,0,0-.254.577.651.651,0,0,0,.268.731.1.1,0,0,0,.05.033,1.021,1.021,0,0,0,.236.09c.2,0,1-.178,1.126-.07.147.117.07.559.219.751.134.176.417.222.53.362s.082.075-.016.232c-.147.24-.4.366-.586.568a1.515,1.515,0,0,0-.247.481,2.936,2.936,0,0,0-.359,1.625c.04.265.239.459.285.741a2.662,2.662,0,0,1,.086.781,8.77,8.77,0,0,0-.205.966,4.257,4.257,0,0,1-.44.835l-.439.693a3.525,3.525,0,0,0-.47,1.025,3.044,3.044,0,0,1-.435.627c-.067.086-.418.414-.411.494.026.307.02.694.4.747a8.547,8.547,0,0,0,1.1-.03.85.85,0,0,0,.624-.348c.106-.218-.079-.467.007-.731.071-.211.276-.326.375-.519a5.642,5.642,0,0,0,.188-.833,2.98,2.98,0,0,1,.339-.547c.137-.218.272-.433.4-.654.059-.1.191-.5.282-.546a1.542,1.542,0,0,1,.786-.233l.368.555a2.532,2.532,0,0,0-.253.993l-.161,1.8a1.465,1.465,0,0,0-.252.382,1.437,1.437,0,0,0-.107.538.861.861,0,0,1-.318.494c-.055.053-.43.3-.427.355.021.377-.043.642.387.719.279.049.576.043.858.066a.805.805,0,0,0,.647-.343,1.972,1.972,0,0,1,.032-.288,1.051,1.051,0,0,1,.286-.4c.084-.077.181-.142.26-.229.379-.417.313-1.314.388-1.844a2.106,2.106,0,0,1,.555-.945,2.207,2.207,0,0,0,.6-1.2c0,.025,1.782-.119,1.963-.131.223-.017.445-.034.667-.063.121-.017.419-.126.53-.026.151.134-.168.473-.258.613q-.344.531-.685,1.063a2.071,2.071,0,0,1-.025.607,2.153,2.153,0,0,1-.544.633c-.147.148-.294.3-.443.444.1.391.131.543.548.576.294.023.59.031.885.046a.7.7,0,0,0,.443-.222,1.021,1.021,0,0,0,.139-.624,1.744,1.744,0,0,1,.271-.633,3.93,3.93,0,0,1,.918-1.16,9.588,9.588,0,0,0,1.34-1.377,1.5,1.5,0,0,1,.854.624,4.367,4.367,0,0,1-.137,1.685l-.49.9a6.144,6.144,0,0,1-.37.6,8.358,8.358,0,0,1-.678.652,1.458,1.458,0,0,0,.03.444c.152.457.99.331,1.38.365a.9.9,0,0,0,.647-.393c.06-.07,0-.37.023-.47a.689.689,0,0,1,.333-.414c.505-.379.272-.971.573-1.433.323-.5,1.041-.818,1.211-1.4a2.424,2.424,0,0,0-.034-1.189,4.734,4.734,0,0,1,.148-1.365c.061-.4-.034-.752.018-1.146a1.863,1.863,0,0,1,.556-1.017.785.785,0,0,0,.255-.69,4.411,4.411,0,0,1-.07-.528A.95.95,0,0,1,466.662,432.635Z" fill="#ffc400"/>
              </g>
              <path id="Path_34527" data-name="Path 34527" d="M492.574,440.709c-.424.971-.841,1.934-1.259,2.9q-1.638,3.786-3.278,7.563c-.393.915-.786,1.824-1.185,2.738-3.56-1.35-6.966-2.388-10.483-3.505-3.328-1.055-6.6-2.038-9.975-3.069.238-.971.483-1.946.724-2.922q.984-3.949,1.958-7.913c.257-1.013.51-2.032.761-3.05a107.082,107.082,0,0,1,12.038,3.192A113.442,113.442,0,0,1,492.574,440.709Z" fill="#fff"/>
              <path id="Path_34528" data-name="Path 34528" d="M491.315,443.613q-1.638,3.786-3.278,7.563c-3.425-1.362-6.923-2.62-10.446-3.757-3.433-1.117-6.919-2.16-10.473-3q.984-3.949,1.958-7.913c1.092.245,6.415,1.485,11.528,3.155C485.152,441.139,489.639,442.933,491.315,443.613Z" fill="#e60000"/>
              <path id="Path_34529" data-name="Path 34529" d="M489.533,444.546a24.687,24.687,0,0,1-3.1-.245,20.579,20.579,0,0,1-2.8-.652,2.974,2.974,0,0,0-1.168-1.222c-2.476-1.359-4.845.173-9.317-2.357a1.64,1.64,0,0,1-.278-.139c-.086-.074-.061-.064-.083-.194s0-.428-.088-.533c-.07-.081-.155-.06-.26-.061-.237,0-.474,0-.71,0a2.781,2.781,0,0,0-.974.044c-.246.1-.394.326-.611.47-.1.067-.789.379-.789.464,0,.271-.082.622.57.76a15.938,15.938,0,0,1,1.6.135.71.71,0,0,1,.245.542v.572c0,.169-1.395.151-1.519.146a3.992,3.992,0,0,1-.858-.115c-.135-.037-.569-.145-.577.107-.006.165.285.239.4.282a1.9,1.9,0,0,0,1.251.312c.559,0,1.118,0,1.678.026.081,0,.272.354.244.517a4.063,4.063,0,0,1-1.079.358,10.462,10.462,0,0,1-1.06.109c-.135.008-.409-.021-.447.162-.026.128.12.237.225.267l.379.109c.354,0,1.167-.271,1.683-.3a8.57,8.57,0,0,1,2.977-.231,3.617,3.617,0,0,1,1.459.365,11.328,11.328,0,0,0,1.794.737,5.883,5.883,0,0,0,.993.183c.189.02.633-.066.765.112.1.139.071.616-.127.65a1.7,1.7,0,0,1-.376-.018c-.35-.025-.688-.142-1.031-.163-.179-.011-.539-.01-.522.249.018.324.918.39,1.157.445.288.067.577.131.865.2l.841.026a1.994,1.994,0,0,0,.87-.733l.3-.054a4.82,4.82,0,0,0,2.065.895c.623.056.623.191.9.652a1.759,1.759,0,0,1,.134,1.02c-.025.137-.2.372-.2.485.011.154.259.252.384.249.571-.015.437-.7.437-1.066a4.079,4.079,0,0,0,0-.969c-.086-.349-.328-.419-.6-.622a3.621,3.621,0,0,1-.7-.692c-.025-.032-.365-.593-.308-.6.7-.135,2.252.706,3.663.652a2.449,2.449,0,0,0,1.929-.652C490.021,444.952,490.021,444.709,489.533,444.546Z"/>
            </g>
          </g>
        </g>
      </g>
    </g>
  </g>
</svg>
