<svg xmlns="http://www.w3.org/2000/svg" xmlns:xlink="http://www.w3.org/1999/xlink" width="419.51" height="289.166" viewBox="0 0 419.51 289.166">
  <defs>
    <linearGradient id="linear-gradient" y1="0.5" x2="1" y2="0.5" gradientUnits="objectBoundingBox">
      <stop offset="0" stop-color="#dab264"/>
      <stop offset="0.482" stop-color="#be895f"/>
      <stop offset="1" stop-color="#996a45"/>
    </linearGradient>
    <clipPath id="clip-path">
      <path id="Path_11824" data-name="Path 11824" d="M463.647,308.1a1819.436,1819.436,0,0,0-378.629,0,593.032,593.032,0,0,0,0,256.628,1823.385,1823.385,0,0,0,189.315,9.877,1823.365,1823.365,0,0,0,189.314-9.877A576.1,576.1,0,0,0,477.7,436.417,576.1,576.1,0,0,0,463.647,308.1Z" fill="none"/>
    </clipPath>
  </defs>
  <g id="Group_5475" data-name="Group 5475" transform="translate(-64.578 -292.53)">
    <path id="Path_11128" data-name="Path 11128" d="M274.325,581.7a1837.528,1837.528,0,0,1-189.978-9.912L79.8,571.3l-1.016-4.459a599.435,599.435,0,0,1,0-259.465l1.016-4.459,4.546-.479a1825.521,1825.521,0,0,1,379.971,0l4.547.479,1.016,4.459a585.324,585.324,0,0,1,14.207,129.733,585.329,585.329,0,0,1-14.207,129.732l-1.016,4.459-4.547.479A1837.493,1837.493,0,0,1,274.341,581.7Z" fill="url(#linear-gradient)"/>
    <g id="Group_5474" data-name="Group 5474">
      <g id="Group_5473" data-name="Group 5473" clip-path="url(#clip-path)">
        <g id="Group_5472" data-name="Group 5472">
          <path id="Path_11821" data-name="Path 11821" d="M60.833,586.037V288.189h142.34V586.037Z" fill="#0437a0"/>
          <path id="Path_11822" data-name="Path 11822" d="M345.5,586.037V288.189H203.169V586.037Z" fill="#fff"/>
          <path id="Path_11823" data-name="Path 11823" d="M345.5,586.037V288.189H487.833V586.037Z" fill="#e60000"/>
        </g>
      </g>
    </g>
  </g>
</svg>
