<svg xmlns="http://www.w3.org/2000/svg" xmlns:xlink="http://www.w3.org/1999/xlink" width="419.51" height="289.167" viewBox="0 0 419.51 289.167">
  <defs>
    <linearGradient id="linear-gradient" y1="0.5" x2="1" y2="0.5" gradientUnits="objectBoundingBox">
      <stop offset="0" stop-color="#dab264"/>
      <stop offset="0.482" stop-color="#be895f"/>
      <stop offset="1" stop-color="#996a45"/>
    </linearGradient>
    <clipPath id="clip-path">
      <path id="Path_31095" data-name="Path 31095" d="M528.647,117.1a1819.437,1819.437,0,0,0-378.629,0A576.1,576.1,0,0,0,135.97,245.417a576.1,576.1,0,0,0,14.048,128.314,1823.376,1823.376,0,0,0,189.315,9.877,1823.356,1823.356,0,0,0,189.314-9.877A576.1,576.1,0,0,0,542.7,245.417,576.1,576.1,0,0,0,528.647,117.1Z" fill="none"/>
    </clipPath>
  </defs>
  <g id="Group_8763" data-name="Group 8763" transform="translate(-129.578 -101.424)">
    <path id="Path_29617" data-name="Path 29617" d="M339.325,390.591a1837.8,1837.8,0,0,1-189.978-9.912L144.8,380.2l-1.016-4.459a585.284,585.284,0,0,1-14.207-129.733,585.271,585.271,0,0,1,14.207-129.733l1.016-4.458,4.546-.48a1825.521,1825.521,0,0,1,379.971,0l4.547.48,1.016,4.458a585.329,585.329,0,0,1,14.207,129.733,585.343,585.343,0,0,1-14.207,129.733l-1.016,4.459-4.547.479a1837.766,1837.766,0,0,1-189.977,9.912Z" fill="url(#linear-gradient)"/>
    <g id="Group_8762" data-name="Group 8762">
      <g id="Group_8761" data-name="Group 8761" clip-path="url(#clip-path)">
        <g id="Group_8760" data-name="Group 8760">
          <path id="Path_31091" data-name="Path 31091" d="M-39.593,388.969H718.258v-95.3H-39.593v95.3Z" fill="#00a133"/>
          <path id="Path_31092" data-name="Path 31092" d="M-39.593,198.356H718.258v-95.31H-39.593v95.31Z" fill="#e60000"/>
          <path id="Path_31093" data-name="Path 31093" d="M-39.593,293.666H718.258v-95.31H-39.593v95.31Z" fill="#ffc400"/>
          <g id="Group_8759" data-name="Group 8759">
            <path id="Path_31094" data-name="Path 31094" d="M289.577,234.836h38.017l11.739-36.157,11.745,36.157H389.1l-30.754,22.347,11.74,36.156L339.333,271l-30.742,22.344,11.74-36.156-30.755-22.347Z"/>
          </g>
        </g>
      </g>
    </g>
  </g>
</svg>
