<svg xmlns="http://www.w3.org/2000/svg" xmlns:xlink="http://www.w3.org/1999/xlink" width="419.51" height="289.166" viewBox="0 0 419.51 289.166">
  <defs>
    <linearGradient id="linear-gradient" y1="0.5" x2="1" y2="0.5" gradientUnits="objectBoundingBox">
      <stop offset="0" stop-color="#dab264"/>
      <stop offset="0.482" stop-color="#be895f"/>
      <stop offset="1" stop-color="#996a45"/>
    </linearGradient>
    <clipPath id="clip-path">
      <path id="Path_9332" data-name="Path 9332" d="M456.647,219.1a1819.438,1819.438,0,0,0-378.629,0A576.1,576.1,0,0,0,63.97,347.417,576.1,576.1,0,0,0,78.018,475.731a1823.376,1823.376,0,0,0,189.315,9.877,1823.357,1823.357,0,0,0,189.314-9.877A576.1,576.1,0,0,0,470.7,347.417,576.1,576.1,0,0,0,456.647,219.1Z" fill="none"/>
    </clipPath>
  </defs>
  <g id="Group_5032" data-name="Group 5032" transform="translate(-57.578 -203.53)">
    <path id="Path_9222" data-name="Path 9222" d="M267.325,492.7a1837.528,1837.528,0,0,1-189.978-9.912L72.8,482.3l-1.016-4.459a599.435,599.435,0,0,1,0-259.465l1.016-4.459,4.546-.479a1825.521,1825.521,0,0,1,379.971,0l4.547.479,1.016,4.459a585.325,585.325,0,0,1,14.207,129.733,585.329,585.329,0,0,1-14.207,129.732l-1.016,4.459-4.547.479A1837.493,1837.493,0,0,1,267.341,492.7Z" fill="url(#linear-gradient)"/>
    <g id="Group_5031" data-name="Group 5031">
      <g id="Group_5030" data-name="Group 5030" clip-path="url(#clip-path)">
        <g id="Group_5029" data-name="Group 5029">
          <path id="Path_9328" data-name="Path 9328" d="M-56.659,199.474H591.324V496.752H-56.659V199.474Z" fill="#fff"/>
          <path id="Path_9329" data-name="Path 9329" d="M286.823,320.4c11.062,8.827,24.919,30.282,8.376,56.1,23.929-13.92,16.728-51.861-8.376-56.1Zm-33.88,0c-11.063,8.827-24.913,30.282-8.37,56.1-23.93-13.92-16.716-51.861,8.37-56.1Zm16.942,69.954-3.137-4.166v-1.323a35.284,35.284,0,0,1-18.232-.766s11.45-.471,14.949-2.683c-22.412-9.777-25.751-43.723-7.322-59.664-11.025,17.379-7.551,43.784,10.274,54.3l-1.3-53.493s2.376-.454,4.769-3.785c2.4,3.331,4.776,3.785,4.776,3.785l-1.314,53.493c17.831-10.52,21.305-36.925,10.281-54.3,18.423,15.941,15.089,49.887-7.322,59.664,3.5,2.212,14.956,2.683,14.956,2.683a35.309,35.309,0,0,1-18.239.766v1.323l-3.138,4.166ZM259.724,311.5s3.442,8.576,10.161,1.7c6.719,6.875,10.155-1.7,10.155-1.7.979,3.746-1.009,7.154-4.667,7.709A5.678,5.678,0,0,1,269.885,317c-3.238,4.873-12.036,1.682-10.161-5.5Z" fill="#ff0203"/>
          <path id="Path_9330" data-name="Path 9330" d="M-56.659,199.474H591.324v99.315h0v-2.456H558.78v2.456h-3.609v-2.456h-32.5v2.456H518.9v-2.456H486.382v2.456h-3.627v-2.456H450.247v2.456h-3.755v-2.456H413.975v2.456h-3.644v-2.456h-32.5v2.456h-3.756v-2.456H341.55v2.456h-3.627v-2.456h-32.49v2.456H301.67v-2.456H269.132v2.456h-3.627v-2.456H233.016v2.456h-3.755v-2.456H196.716v2.456h-3.609v-2.456H160.591v2.456h-3.756v-2.456H124.308v2.456h-3.626v-2.456H88.174v2.456H84.419v-2.456H51.883v2.456H48.265v-2.456h-32.5v2.456H12.01v-2.456H-20.526v2.456h-3.626v-2.456H-56.659v-2.468h3.59v-4.988H-42.19v4.988h18.038V286.41H-35.03v2.467h7.29V291.4H-38.6V286.41H-56.659v-2.486H-9.692v-2.468H-56.659V199.474Zm582.9,94.391v-4.988h10.88v4.988h18.048V286.41H544.284v2.467h7.289V291.4H540.711V286.41H522.673v7.455Zm43.37-9.941v-2.468h-46.94v2.468Zm18.114,7.474H583.99v-9.942h-3.58V291.4h-3.619v-9.942H573.2v4.954H558.78v7.455h10.833V291.4H562.37v-2.521H573.2v4.988h18.122V281.456h-3.6V291.4Zm-54.194,2.467V291.4h-3.626v2.467Zm-79.705,0v-4.988H464.7v4.988h18.05V286.41H471.876v2.467h7.29V291.4H468.287V286.41h-18.04v7.455Zm43.368-9.941v-2.468H450.247v2.468Zm18.113,7.474h-3.736v-9.942h-3.591V291.4h-3.617v-9.942h-3.589v4.954H486.382v7.455H497.2V291.4h-7.225v-2.521h10.8v4.988H518.9V281.456h-3.59V291.4Zm-54.192,2.467V291.4h-3.626v2.467Zm-79.7,0v-4.988h10.87v4.988h18.041V286.41H399.468v2.467h7.291V291.4H395.88V286.41H377.831v7.455Zm43.37-9.941v-2.468H377.831v2.468ZM442.9,291.4h-3.738v-9.942h-3.589V291.4H431.95v-9.942h-3.58v4.954H413.975v7.455H424.79V291.4h-7.245v-2.521H428.37v4.988h18.122V281.456H442.9V291.4Zm-54.192,2.467V291.4h-3.626v2.467Zm-79.7,0v-4.988h10.862v4.988h18.049V286.41H327.052v2.467h7.281V291.4H323.472V286.41H305.433v7.455Zm43.362-9.941v-2.468H305.433v2.468Zm18.121,7.474h-3.747v-9.942h-3.58V291.4h-3.625v-9.942h-3.59v4.954h-14.4v7.455h10.824V291.4h-7.246v-2.521h10.825v4.988h18.122V281.456h-3.58V291.4Zm-54.2,2.467V291.4h-3.618v2.467Zm-79.708,0v-4.988h10.88v4.988h18.039V286.41H254.626v2.467h7.3V291.4H251.057V286.41H233.016v7.455Zm43.361-9.941v-2.468H233.016v2.468Zm18.14,7.474h-3.755v-9.942h-3.589V291.4h-3.617v-9.942h-3.59v4.954h-14.4v7.455h10.815V291.4h-7.225v-2.521h10.814v4.988H301.67V281.456h-3.583V291.4Zm-54.21,2.467V291.4h-3.626v2.467Zm-79.706,0v-4.988h10.88v4.988h18.056V286.41H182.22v2.467h7.288V291.4H178.629V286.41H160.591v7.455Zm43.368-9.941v-2.468H160.591v2.468Zm18.123,7.474h-3.737v-9.942h-3.591V291.4h-3.626v-9.942h-3.57v4.954H196.716v7.455h10.823V291.4h-7.225v-2.521h10.824v4.988h18.123V281.456h-3.6V291.4Zm-54.2,2.467V291.4h-3.626v2.467Zm-79.706,0v-4.988h10.888v4.988h18.04V286.41H109.8v2.467h7.29V291.4h-10.87V286.41H88.174v7.455Zm43.378-9.941v-2.468H88.174v2.468Zm18.121,7.474h-3.745v-9.942h-3.589V291.4h-3.627v-9.942h-3.58v4.954h-14.4v7.455h10.824V291.4h-7.243v-2.521h10.823v4.988h18.123V281.456h-3.582V291.4Zm-54.2,2.467V291.4H95.426v2.467Zm-79.717,0v-4.988h10.88v4.988H48.265V286.41H37.386v2.467h7.29V291.4H33.815V286.41H15.766v7.455Zm43.38-9.941v-2.468H15.766v2.468ZM80.839,291.4H77.091v-9.942H73.512V291.4H69.886v-9.942H66.295v4.954H51.883v7.455H62.717V291.4H55.48v-2.521H66.295v4.988H84.419V281.456h-3.58V291.4Zm-54.2,2.467V291.4H23.009v2.467ZM8.421,291.4H4.675v-9.942H1.086V291.4H-2.531v-9.942h-3.59v4.954h-14.4v7.455H-9.692V291.4h-7.253v-2.521H-6.121v4.988H12.01V281.456H8.421V291.4Zm-54.2,2.467V291.4h-3.626v2.467Z" fill="#00991f"/>
          <path id="Path_9331" data-name="Path 9331" d="M-45.78,414.774V412.3h-3.626v2.471Zm25.254-17.334v2.453H12.01V397.44h3.756v2.453h32.5V397.44h3.618v2.453H84.419V397.44h3.755v2.453h32.508V397.44h3.626v2.453h32.527V397.44h3.756v2.453h32.516V397.44h3.609v2.453h32.545V397.44h3.755v2.453h32.489V397.44h3.627v2.453H301.67V397.44h3.763v2.453h32.49V397.44h3.627v2.453h32.525V397.44h3.756v2.453h32.5V397.44h3.644v2.453h32.517V397.44h3.755v2.453h32.508V397.44h3.627v2.453H518.9V397.44h3.774v2.453h32.5V397.44h3.609v2.453h32.544V397.44h0v99.312H-56.659V414.774h3.59v-4.993H-42.19v4.993h18.038v-7.459H-35.03v2.466h7.29V412.3H-38.6v-4.988H-56.659v-2.49H-9.692v-2.464H-56.659v-2.468h32.507V397.44Zm554.059,17.334V412.3h-3.626v2.471Zm-7.29,0v-4.993h10.88v4.993h18.048v-7.459H544.284v2.466h7.289V412.3H540.711v-4.988H522.673v7.459Zm43.37-9.949v-2.464h-46.94v2.464Zm18.114,7.478H583.99v-9.942h-3.58V412.3h-3.619v-9.942H573.2v4.954H558.78v7.459h10.833V412.3H562.37v-2.522H573.2v4.993h18.122V402.361h-3.6V412.3Zm-126.61,2.471V412.3h-3.626v2.471Zm-7.289,0v-4.993H464.7v4.993h18.05v-7.459H471.876v2.466h7.29V412.3H468.287v-4.988h-18.04v7.459Zm43.368-9.949v-2.464H450.247v2.464Zm18.113,7.478h-3.736v-9.942h-3.591V412.3h-3.617v-9.942h-3.589v4.954H486.382v7.459H497.2V412.3h-7.225v-2.522h10.8v4.993H518.9V402.361h-3.59V412.3Zm-126.6,2.471V412.3h-3.626v2.471Zm-7.291,0v-4.993h10.87v4.993h18.041v-7.459H399.468v2.466h7.291V412.3H395.88v-4.988H377.831v7.459Zm43.37-9.949v-2.464H377.831v2.464ZM442.9,412.3h-3.738v-9.942h-3.589V412.3H431.95v-9.942h-3.58v4.954H413.975v7.459H424.79V412.3h-7.245v-2.522H428.37v4.993h18.122V402.361H442.9V412.3Zm-126.609,2.471V412.3h-3.618v2.471Zm-7.282,0v-4.993h10.862v4.993h18.049v-7.459H327.052v2.466h7.281V412.3H323.472v-4.988H305.433v7.459Zm43.362-9.949v-2.464H305.433v2.464Zm18.121,7.478h-3.747v-9.942h-3.58V412.3h-3.625v-9.942h-3.59v4.954h-14.4v7.459h10.824V412.3h-7.246v-2.522h10.825v4.993h18.122V402.361h-3.58V412.3Zm-126.618,2.471V412.3h-3.626v2.471Zm-7.291,0v-4.993h10.88v4.993h18.039v-7.459H254.626v2.466h7.3V412.3H251.057v-4.988H233.016v7.459Zm43.361-9.949v-2.464H233.016v2.464Zm18.14,7.478h-3.755v-9.942h-3.589V412.3h-3.617v-9.942h-3.59v4.954h-14.4v7.459h10.815V412.3h-7.225v-2.522h10.814v4.993H301.67V402.361h-3.583V412.3ZM171.46,414.774V412.3h-3.626v2.471Zm-7.289,0v-4.993h10.88v4.993h18.056v-7.459H182.22v2.466h7.288V412.3H178.629v-4.988H160.591v7.459Zm43.368-9.949v-2.464H160.591v2.464Zm18.123,7.478h-3.737v-9.942h-3.591V412.3h-3.626v-9.942h-3.57v4.954H196.716v7.459h10.823V412.3h-7.225v-2.522h10.824v4.993h18.123V402.361h-3.6V412.3ZM99.054,414.774V412.3H95.426v2.471Zm-7.3,0v-4.993h10.888v4.993h18.04v-7.459H109.8v2.466h7.29V412.3h-10.87v-4.988H88.174v7.459Zm43.378-9.949v-2.464H88.174v2.464Zm18.121,7.478h-3.745v-9.942h-3.589V412.3h-3.627v-9.942h-3.58v4.954h-14.4v7.459h10.824V412.3h-7.243v-2.522h10.823v4.993h18.123V402.361h-3.582V412.3ZM26.637,414.774V412.3H23.009v2.471Zm-7.3,0v-4.993h10.88v4.993H48.265v-7.459H37.386v2.466h7.29V412.3H33.815v-4.988H15.766v7.459Zm43.38-9.949v-2.464H15.766v2.464ZM80.839,412.3H77.091v-9.942H73.512V412.3H69.886v-9.942H66.295v4.954H51.883v7.459H62.717V412.3H55.48v-2.522H66.295v4.993H84.419V402.361h-3.58V412.3Zm-72.418,0H4.675v-9.942H1.086V412.3H-2.531v-9.942h-3.59v4.954h-14.4v7.459H-9.692V412.3h-7.253v-2.522H-6.121v4.993H12.01V402.361H8.421V412.3Z" fill="#ff0203"/>
        </g>
      </g>
    </g>
  </g>
</svg>
