<svg xmlns="http://www.w3.org/2000/svg" xmlns:xlink="http://www.w3.org/1999/xlink" width="419.51" height="289.166" viewBox="0 0 419.51 289.166">
  <defs>
    <linearGradient id="linear-gradient" y1="0.5" x2="1" y2="0.5" gradientUnits="objectBoundingBox">
      <stop offset="0" stop-color="#dab264"/>
      <stop offset="0.482" stop-color="#be895f"/>
      <stop offset="1" stop-color="#996a45"/>
    </linearGradient>
    <clipPath id="clip-path">
      <path id="Path_14623" data-name="Path 14623" d="M525.647,117.1a1819.437,1819.437,0,0,0-378.629,0A576.1,576.1,0,0,0,132.97,245.417a576.1,576.1,0,0,0,14.048,128.314,1823.376,1823.376,0,0,0,189.315,9.877,1823.356,1823.356,0,0,0,189.314-9.877A576.1,576.1,0,0,0,539.7,245.417,576.1,576.1,0,0,0,525.647,117.1Z" fill="none"/>
    </clipPath>
  </defs>
  <g id="Group_6013" data-name="Group 6013" transform="translate(-126.578 -101.53)">
    <path id="Path_13922" data-name="Path 13922" d="M336.325,390.7a1837.527,1837.527,0,0,1-189.978-9.912L141.8,380.3l-1.016-4.459a585.269,585.269,0,0,1-14.207-129.732,585.265,585.265,0,0,1,14.207-129.733l1.016-4.459,4.546-.479a1825.519,1825.519,0,0,1,379.971,0l4.547.479,1.016,4.459a585.323,585.323,0,0,1,14.207,129.733,585.327,585.327,0,0,1-14.207,129.732l-1.016,4.459-4.547.479A1837.493,1837.493,0,0,1,336.341,390.7Z" fill="url(#linear-gradient)"/>
    <g id="Group_6012" data-name="Group 6012">
      <g id="Group_6011" data-name="Group 6011" clip-path="url(#clip-path)">
        <g id="Group_6010" data-name="Group 6010">
          <path id="Path_14621" data-name="Path 14621" d="M4.833,388.6h663V103.622h-663V388.6Z" fill="#fff"/>
          <path id="Path_14622" data-name="Path 14622" d="M421.82,246.116A85.49,85.49,0,1,0,336.329,331.6a85.5,85.5,0,0,0,85.491-85.487Z" fill="#e60000"/>
        </g>
      </g>
    </g>
  </g>
</svg>
