<?xml version="1.0" encoding="utf-8"?>
<!-- Generator: Adobe Illustrator 25.4.1, SVG Export Plug-In . SVG Version: 6.00 Build 0)  -->
<svg version="1.1" id="logo" xmlns="http://www.w3.org/2000/svg" xmlns:xlink="http://www.w3.org/1999/xlink" x="0px" y="0px"
	 viewBox="0 0 329.6 153.6" style="enable-background:new 0 0 329.6 153.6;" xml:space="preserve">
<style type="text/css">
	.st0{fill:#78C9B1;}
	.st1{enable-background:new    ;}
	.st2{fill:#FFFFFF;}
</style>
<g>
	<g id="symbol" transform="translate(140 53)">
		<g id="Group_1" transform="translate(24.419 0)">
			<path id="Path_1" class="st0" d="M-99.4-16.7L-79-48c0.9-1.3,0.5-3.1-0.8-4c-1.3-0.9-3.1-0.5-4,0.8l-22.5,34.4H-99.4z"/>
			<path id="Path_2" class="st0" d="M-118.6-16.7h8.3l-17.2-16.5c-1.1-1.1-2.9-1.2-4.1-0.1s-1.2,2.9-0.1,4.1
				c0.1,0.1,0.1,0.1,0.2,0.2L-118.6-16.7z"/>
		</g>
		<g id="Group_2" transform="translate(0 29.57)">
			<path id="Path_3" class="st0" d="M-125.4,22.7h-14.3c0.1,1.1,0.4,2.6,0.8,4.4c0.7,3,1.7,6,2.9,8.8c1.6,3.9,3.6,7.6,5.9,11
				c1.4,2,2.9,4,4.6,5.8c2.2,2.4,4.5,4.5,7.1,6.4c3.6,2.7,7.5,4.9,11.6,6.6c12,4.9,25.2,5.8,37.8,2.7c21.2-5.8,37.3-23,41.7-44.5
				c1-5.1,1.2-10.4,0.7-15.6l-0.2-2.1h-35.5c0.1,0.3,0.2,0.7,0.3,1.2c1,4.3,0.8,8.7-0.5,12.9l21.2-0.1c-0.1,0.5-0.2,1.1-0.3,1.9
				c0,0.2-0.4,1.8-0.9,3.7c-0.7,2.4-1.7,4.8-2.8,7.1c-1.5,2.9-3.2,5.6-5.3,8.1c-3.4,3.9-7.4,7.2-11.9,9.8c-2.3,1.3-4.7,2.3-7.2,3.2
				c-2.1,0.8-4.2,1.3-6.4,1.7c-2.5,0.4-5.1,0.6-7.7,0.6c-9.2-0.1-18.1-3.1-25.6-8.5c-2-1.5-3.9-3.1-5.6-4.9
				c-2.6-2.8-4.8-5.8-6.5-9.2c-1.1-2.1-2.1-4.3-2.8-6.6c-0.3-1.1-0.6-2-0.7-2.7L-125.4,22.7z"/>
			<path id="Path_4" class="st0" d="M-32.7-12.6h-16.7c-0.3-0.4-0.7-0.9-1.2-1.5c-1.8-2.1-3.8-4-5.9-5.8c-2.4-2-5.1-3.7-7.9-5.2
				c-4.3-2.1-9-3.5-13.8-4c-5.5-0.6-11-0.2-16.3,1.2c-4.2,1.1-8.2,2.8-11.9,5.1c-3.1,2-6,4.4-8.5,7.1c-5,5.5-8.5,12.1-10.2,19.3
				h-14.6c0.1-0.3,0.2-0.8,0.3-1.3c0.3-1.3,0.9-3.7,1.8-6.3c0,0,0.9-2.8,2.1-5.5c2.3-5.1,5.3-9.9,8.9-14.3
				c8.8-10.4,21.1-17.3,34.6-19.3c4.9-0.8,9.8-0.9,14.7-0.3c13.3,1.5,25.7,7.6,35.1,17.2c3,3.1,5.6,6.5,7.8,10.1L-32.7-12.6z"/>
			<circle id="Ellipse_2" class="st0" cx="-84.7" cy="13" r="16.6"/>
		</g>
	</g>
	<g class="st1">
		<path class="st2" d="M146.3,111.1c-3.1-1.7-5.6-4.2-7.3-7.3c-1.8-3.2-2.7-6.8-2.7-10.9s0.9-7.8,2.7-10.9c1.8-3.2,4.3-5.6,7.5-7.3
			c3.2-1.7,6.7-2.6,10.6-2.6c3.9,0,7.4,0.9,10.6,2.6c3.2,1.7,5.6,4.2,7.5,7.3c1.8,3.2,2.7,6.8,2.7,10.9s-0.9,7.8-2.8,10.9
			c-1.9,3.2-4.4,5.6-7.6,7.3c-3.2,1.7-6.7,2.6-10.7,2.6C152.9,113.6,149.4,112.8,146.3,111.1z M162,103.4c1.6-0.9,2.9-2.2,3.9-4
			c1-1.8,1.5-4,1.5-6.6c0-3.8-1-6.8-3-8.9c-2-2.1-4.5-3.1-7.4-3.1c-2.9,0-5.4,1-7.3,3.1c-2,2.1-3,5-3,8.9c0,3.8,1,6.8,2.9,8.9
			c1.9,2.1,4.3,3.1,7.3,3.1C158.6,104.8,160.4,104.3,162,103.4z"/>
		<path class="st2" d="M195.6,59.1V113h-10.2V59.1H195.6z"/>
		<path class="st2" d="M205.4,81.8c1.6-3.2,3.8-5.6,6.6-7.3c2.8-1.7,5.9-2.5,9.4-2.5c3,0,5.6,0.6,7.9,1.8c2.3,1.2,4.1,2.7,5.4,4.6
			v-5.8H245V113h-10.3v-5.9c-1.3,1.9-3.1,3.5-5.4,4.7c-2.3,1.2-5,1.9-8,1.9c-3.4,0-6.5-0.9-9.3-2.6c-2.8-1.7-5-4.2-6.6-7.4
			c-1.6-3.2-2.4-6.8-2.4-11C203,88.6,203.8,85,205.4,81.8z M233.3,86.4c-1-1.8-2.3-3.1-3.9-4.1c-1.7-0.9-3.4-1.4-5.3-1.4
			s-3.6,0.5-5.2,1.4c-1.6,0.9-2.9,2.3-3.9,4c-1,1.8-1.5,3.9-1.5,6.3s0.5,4.6,1.5,6.4c1,1.8,2.3,3.2,3.9,4.2c1.6,1,3.4,1.5,5.2,1.5
			c1.9,0,3.7-0.5,5.3-1.4c1.7-0.9,3-2.3,3.9-4.1c1-1.8,1.5-3.9,1.5-6.4S234.3,88.2,233.3,86.4z"/>
		<path class="st2" d="M264.4,104.6h18v8.4h-29.6v-8.2L270.4,81h-17.6v-8.4h29.3v8.2L264.4,104.6z"/>
		<path class="st2" d="M297.6,111.1c-3.1-1.7-5.5-4.2-7.3-7.3c-1.8-3.2-2.7-6.8-2.7-10.9s0.9-7.8,2.7-10.9c1.8-3.2,4.3-5.6,7.5-7.3
			c3.2-1.7,6.7-2.6,10.6-2.6c3.9,0,7.4,0.9,10.6,2.6c3.2,1.7,5.6,4.2,7.5,7.3c1.8,3.2,2.7,6.8,2.7,10.9s-0.9,7.8-2.8,10.9
			c-1.9,3.2-4.4,5.6-7.6,7.3c-3.2,1.7-6.7,2.6-10.7,2.6C304.3,113.6,300.8,112.8,297.6,111.1z M313.4,103.4c1.6-0.9,2.9-2.2,3.9-4
			c1-1.8,1.5-4,1.5-6.6c0-3.8-1-6.8-3-8.9c-2-2.1-4.5-3.1-7.4-3.1c-2.9,0-5.4,1-7.3,3.1c-2,2.1-3,5-3,8.9c0,3.8,1,6.8,2.9,8.9
			c1.9,2.1,4.3,3.1,7.3,3.1C310,104.8,311.7,104.3,313.4,103.4z"/>
	</g>
</g>
</svg>
