<svg xmlns="http://www.w3.org/2000/svg" xmlns:xlink="http://www.w3.org/1999/xlink" width="419.51" height="289.166" viewBox="0 0 419.51 289.166">
  <defs>
    <linearGradient id="linear-gradient" y1="0.5" x2="1" y2="0.5" gradientUnits="objectBoundingBox">
      <stop offset="0" stop-color="#dab264"/>
      <stop offset="0.482" stop-color="#be895f"/>
      <stop offset="1" stop-color="#996a45"/>
    </linearGradient>
    <clipPath id="clip-path">
      <path id="Path_17947" data-name="Path 17947" d="M525.647,117.1a1819.437,1819.437,0,0,0-378.629,0A576.1,576.1,0,0,0,132.97,245.417a576.1,576.1,0,0,0,14.048,128.314,1823.376,1823.376,0,0,0,189.315,9.877,1823.356,1823.356,0,0,0,189.314-9.877A576.1,576.1,0,0,0,539.7,245.417,576.1,576.1,0,0,0,525.647,117.1Z" fill="none"/>
    </clipPath>
  </defs>
  <g id="Group_6639" data-name="Group 6639" transform="translate(-126.578 -101.434)">
    <path id="Path_17114" data-name="Path 17114" d="M336.325,390.6a1837.519,1837.519,0,0,1-189.978-9.912l-4.546-.479-1.016-4.459a585.269,585.269,0,0,1-14.207-129.732,585.258,585.258,0,0,1,14.207-129.733l1.016-4.459,4.546-.479a1825.519,1825.519,0,0,1,379.971,0l4.547.479,1.016,4.459a585.316,585.316,0,0,1,14.207,129.733A585.327,585.327,0,0,1,531.881,375.75l-1.016,4.459-4.547.479A1837.485,1837.485,0,0,1,336.341,390.6Z" fill="url(#linear-gradient)"/>
    <g id="Group_6638" data-name="Group 6638">
      <g id="Group_6637" data-name="Group 6637" clip-path="url(#clip-path)">
        <g id="Group_6636" data-name="Group 6636">
          <path id="Path_17945" data-name="Path 17945" d="M116.672,99.586H555.994V392.448H116.672V99.586Z" fill="#f20300"/>
          <path id="Path_17946" data-name="Path 17946" d="M339.314,210.188l7.131,21.183h35.116l-9.773,6.844-18.636,13.077,7.107,21.106,3.642,10.837-9.36-6.569-18.8-13.176-18.8,13.176-9.36,6.569,3.647-10.837,7.108-21.106-18.644-13.077-9.765-6.844h35.115l7.139-21.183,3.56-10.585,3.572,10.585Zm9.671,28.723.8,2.383.863,2.577,7.07-4.96Zm-6.33,4.766-1.6-4.766H330.442l-1.62,4.766-1.57,4.693,4.16,2.922,4.33,3.026,4.328-3.026,4.167-2.922-1.582-4.693Zm-4.148-12.306-2.765-8.207-2.76,8.207h5.525Zm10.972,32.57-2.746-8.151-2.365,1.657-2.077,1.458,7.188,5.036ZM329.2,258.9l-2.083-1.458-2.372-1.657-2.739,8.151L329.2,258.9Zm-15.441-19.994,7.069,4.96.864-2.577.814-2.383Z" fill="#008c1c"/>
        </g>
      </g>
    </g>
  </g>
</svg>
