<svg xmlns="http://www.w3.org/2000/svg" xmlns:xlink="http://www.w3.org/1999/xlink" width="419.51" height="289.166" viewBox="0 0 419.51 289.166">
  <defs>
    <linearGradient id="linear-gradient" y1="0.5" x2="1" y2="0.5" gradientUnits="objectBoundingBox">
      <stop offset="0" stop-color="#dab264"/>
      <stop offset="0.482" stop-color="#be895f"/>
      <stop offset="1" stop-color="#996a45"/>
    </linearGradient>
    <clipPath id="clip-path">
      <path id="Path_9768" data-name="Path 9768" d="M456.647,219.1a1819.438,1819.438,0,0,0-378.629,0A576.1,576.1,0,0,0,63.97,347.417,576.1,576.1,0,0,0,78.018,475.731a1823.376,1823.376,0,0,0,189.315,9.877,1823.357,1823.357,0,0,0,189.314-9.877A576.1,576.1,0,0,0,470.7,347.417,576.1,576.1,0,0,0,456.647,219.1Z" fill="none"/>
    </clipPath>
  </defs>
  <g id="Group_5095" data-name="Group 5095" transform="translate(-57.578 -203.53)">
    <path id="Path_9551" data-name="Path 9551" d="M267.325,492.7a1837.528,1837.528,0,0,1-189.978-9.912L72.8,482.3l-1.016-4.459a599.435,599.435,0,0,1,0-259.465l1.016-4.459,4.546-.479a1825.521,1825.521,0,0,1,379.971,0l4.547.479,1.016,4.459a585.325,585.325,0,0,1,14.207,129.733,585.329,585.329,0,0,1-14.207,129.732l-1.016,4.459-4.547.479A1837.493,1837.493,0,0,1,267.341,492.7Z" fill="url(#linear-gradient)"/>
    <g id="Group_5094" data-name="Group 5094">
      <g id="Group_5093" data-name="Group 5093" clip-path="url(#clip-path)">
        <g id="Group_5092" data-name="Group 5092">
          <rect id="Rectangle_829" data-name="Rectangle 829" width="142.926" height="782.183" transform="translate(658.424 205.186) rotate(90)" fill="#fff"/>
          <rect id="Rectangle_830" data-name="Rectangle 830" width="142.927" height="782.183" transform="translate(658.424 348.112) rotate(90)" fill="#e60000"/>
        </g>
      </g>
    </g>
  </g>
</svg>
