<svg xmlns="http://www.w3.org/2000/svg" xmlns:xlink="http://www.w3.org/1999/xlink" width="419.51" height="289.167" viewBox="0 0 419.51 289.167">
  <defs>
    <linearGradient id="linear-gradient" y1="0.5" x2="1" y2="0.5" gradientUnits="objectBoundingBox">
      <stop offset="0" stop-color="#dab264"/>
      <stop offset="0.482" stop-color="#be895f"/>
      <stop offset="1" stop-color="#996a45"/>
    </linearGradient>
    <clipPath id="clip-path">
      <path id="Path_26704" data-name="Path 26704" d="M528.647,117.1a1819.437,1819.437,0,0,0-378.629,0A576.1,576.1,0,0,0,135.97,245.417a576.1,576.1,0,0,0,14.048,128.314,1823.376,1823.376,0,0,0,189.315,9.877,1823.356,1823.356,0,0,0,189.314-9.877A576.1,576.1,0,0,0,542.7,245.417,576.1,576.1,0,0,0,528.647,117.1Z" fill="none"/>
    </clipPath>
  </defs>
  <g id="Group_8093" data-name="Group 8093" transform="translate(-129.578 -101.424)">
    <path id="Path_25276" data-name="Path 25276" d="M339.325,390.591a1837.8,1837.8,0,0,1-189.978-9.912L144.8,380.2l-1.016-4.459a585.284,585.284,0,0,1-14.207-129.733,585.271,585.271,0,0,1,14.207-129.733l1.016-4.458,4.546-.48a1825.521,1825.521,0,0,1,379.971,0l4.547.48,1.016,4.458a585.329,585.329,0,0,1,14.207,129.733,585.343,585.343,0,0,1-14.207,129.733l-1.016,4.459-4.547.479a1837.766,1837.766,0,0,1-189.977,9.912Z" fill="url(#linear-gradient)"/>
    <g id="Group_8092" data-name="Group 8092">
      <g id="Group_8091" data-name="Group 8091" clip-path="url(#clip-path)">
        <g id="effectFlag">
          <rect id="Rectangle_1988" data-name="Rectangle 1988" width="232.316" height="299.996" transform="translate(29.562 96.01)" fill="#008c1c"/>
          <rect id="Rectangle_1989" data-name="Rectangle 1989" width="588.56" height="299.996" transform="translate(261.878 96.01)" fill="#e60000"/>
          <g id="Group_8090" data-name="Group 8090">
            <path id="Path_26516" data-name="Path 26516" d="M323.217,244.647q0-.387,0-.777,0-1.3-.054-2.594a4.719,4.719,0,0,1,1.6,1.617l-.121-1.874a4.669,4.669,0,0,0-1.585-1.608,60.911,60.911,0,0,0-6.781-23.892,6.737,6.737,0,0,1,1.253.9l.265-1.385a9.525,9.525,0,0,0-2.66-1.6q-1-1.74-2.105-3.406a8.484,8.484,0,0,1,2.124,1.354l.265-1.385a11.986,11.986,0,0,0-3.854-2.079A61.189,61.189,0,0,0,265.8,182.725V181.41h-1.48v1.24q-1.175-.043-2.363-.044t-2.362.044v-1.24h-1.48v1.315a61.193,61.193,0,0,0-46.05,25.586,3.129,3.129,0,0,0-1.536.218,6.957,6.957,0,0,1-.292,1.3,2.2,2.2,0,0,1,.91-.2,61.047,61.047,0,0,0-4.508,7.88,2.369,2.369,0,0,0-1.01.209,6.853,6.853,0,0,1-.292,1.3,1.883,1.883,0,0,1,.685-.179A60.942,60.942,0,0,0,200.814,240a2.712,2.712,0,0,0-.772,1.063v1.753a2.567,2.567,0,0,1,.685-.976q-.033,1.012-.034,2.033c0,.524.008,1.046.021,1.565a2.52,2.52,0,0,0-.672.961v1.753a2.66,2.66,0,0,1,.736-1.027,60.913,60.913,0,0,0,6.722,24.841,2.136,2.136,0,0,0-.452.818l.709,1.238a2.091,2.091,0,0,1,.424-.779q.954,1.748,2.021,3.425a2.137,2.137,0,0,0-.472.842l.71,1.238a2.263,2.263,0,0,1,.525-.908,61.222,61.222,0,0,0,47.15,27.179v1.314h1.48v-1.241q1.176.047,2.362.046t2.363-.046v1.241h1.48v-1.314a61.183,61.183,0,0,0,44.943-24.084,5.634,5.634,0,0,1,.582,1.226,6.824,6.824,0,0,1,1.019-.861,6.9,6.9,0,0,0-.737-1.528,61.263,61.263,0,0,0,4.85-7.887c.783,1.217.751,1.681.751,1.681a6.884,6.884,0,0,1,1.02-.861s.152-.635-1-2.373A60.933,60.933,0,0,0,323.17,246.4a4.461,4.461,0,0,1,1.454,1.516l-.12-1.876A4.23,4.23,0,0,0,323.217,244.647Z" fill="#ffc400"/>
            <g id="Group_8066" data-name="Group 8066">
              <path id="Path_26517" data-name="Path 26517" d="M261.957,305.227c-.789,0-1.585-.015-2.365-.046l-.088,0V182.562l.088,0c1.562-.058,3.172-.058,4.731,0l.09,0V305.179l-.09,0C263.543,305.212,262.747,305.227,261.957,305.227ZM259.688,305c1.5.054,3.041.054,4.54,0V182.739c-1.5-.054-3.041-.054-4.54,0Z"/>
              <path id="Path_26518" data-name="Path 26518" d="M207.484,272.134l-.066-.129a60.7,60.7,0,0,1-6.732-24.879l0-.041.03-.029a9.433,9.433,0,0,1,1.444-1.151,22.776,22.776,0,0,1,3.8-1.958c.495-.206.994-.4,1.486-.581l.125-.047v.135c0,.139,0,.277,0,.416a54.073,54.073,0,0,0,4.271,21.17c.455,1.076.955,2.159,1.486,3.216l.044.088-.091.039c-.487.205-.94.407-1.348.6a16.93,16.93,0,0,0-3.268,1.966,6.688,6.688,0,0,0-1.09,1.069Zm-6.611-24.977a60.5,60.5,0,0,0,6.645,24.637,7.073,7.073,0,0,1,1.03-.988,17.112,17.112,0,0,1,3.3-1.988c.384-.183.81-.374,1.264-.568-.516-1.032-1-2.088-1.446-3.138a54.234,54.234,0,0,1-4.286-21.242v-.284c-.447.165-.9.344-1.351.531a22.541,22.541,0,0,0-3.772,1.942A9.429,9.429,0,0,0,200.873,247.157Z"/>
              <path id="Path_26519" data-name="Path 26519" d="M200.706,240.233l.016-.241a60.858,60.858,0,0,1,5.216-21.187l.021-.047.052-.007a7.763,7.763,0,0,1,1.645,0,22.509,22.509,0,0,1,3.878.774c.443.123.927.269,1.439.43l.1.032-.047.1c-.409.839-.808,1.719-1.188,2.614a53.94,53.94,0,0,0-3.734,13.479l-.007.056-.053.019c-.547.194-1.077.393-1.571.593a24.193,24.193,0,0,0-4.04,2.007,9.817,9.817,0,0,0-1.556,1.207Zm5.379-21.305a60.662,60.662,0,0,0-5.163,20.84,10.337,10.337,0,0,1,1.414-1.068,24.354,24.354,0,0,1,4.07-2.024c.481-.194.994-.387,1.524-.577a54.166,54.166,0,0,1,3.74-13.47c.365-.864.751-1.713,1.146-2.526-.474-.149-.921-.282-1.332-.4a22.341,22.341,0,0,0-3.846-.77A7.925,7.925,0,0,0,206.085,218.928Z"/>
              <path id="Path_26520" data-name="Path 26520" d="M258.208,298.317l-.1-.007a54.347,54.347,0,0,1-34.74-15.851,54.894,54.894,0,0,1-6.738-8.175l-.062-.093.1-.044a74.54,74.54,0,0,1,14.275-3.925l-.612-1.07a74.143,74.143,0,0,0-14.379,3.959c-.459.192-.918.4-1.361.609a16.851,16.851,0,0,0-3.257,1.962,6.727,6.727,0,0,0-1.064,1.04l-.08.1-.071-.109c-.708-1.113-1.389-2.268-2.025-3.429l-.03-.053.037-.049a6.574,6.574,0,0,1,1.106-1.1,16.79,16.79,0,0,1,3.293-2c.437-.21.895-.415,1.358-.61a73.9,73.9,0,0,1,14.4-3.978l-.611-1.07a74.265,74.265,0,0,0-14.376,3.957l-.079.033-.04-.076c-.532-1.062-1.034-2.149-1.49-3.228a54.234,54.234,0,0,1-4.286-21.242c0-.141,0-.28,0-.419v-.063l.061-.022a96.935,96.935,0,0,1,17.622-4.217v-1.565a97.561,97.561,0,0,0-17.461,4.164l-.058.022c-.536.2-1.039.4-1.5.585a22.6,22.6,0,0,0-3.828,1.974,8.841,8.841,0,0,0-1.447,1.172l-.154.159-.006-.222c-.012-.5-.019-1.031-.019-1.568,0-.679.011-1.362.033-2.034l0-.037.025-.026a9.311,9.311,0,0,1,1.549-1.238,23.551,23.551,0,0,1,3.995-2.026c.487-.2,1.008-.4,1.55-.6a99,99,0,0,1,17.315-4.1v-1.567a100.032,100.032,0,0,0-17.024,4.009l-.145.051.022-.151a54.132,54.132,0,0,1,3.747-13.526c.38-.9.782-1.781,1.193-2.623l.035-.072.075.024a93.77,93.77,0,0,1,12.382,5.2l.251-1.117a94.977,94.977,0,0,0-12.086-5.111c-.5-.163-.986-.311-1.435-.44a24.38,24.38,0,0,0-3.844-.826,9.3,9.3,0,0,0-1.6-.063l-.157.009.068-.141a61.36,61.36,0,0,1,4.514-7.893l.025-.036.044-.005a9.136,9.136,0,0,1,1.765.062,25.049,25.049,0,0,1,4.083.9c.509.149,1,.3,1.5.472a96.57,96.57,0,0,1,11.767,5l.251-1.116a100.493,100.493,0,0,0-11.216-4.82l-.123-.043.08-.1c.9-1.128,1.853-2.23,2.831-3.273v-.055h.082c1.1-.261,2.253-.5,3.44-.7l-.238-1.039c-.551.1-1.091.211-1.6.317l-.307.063.223-.22a54.349,54.349,0,0,1,34.435-15.547l.1-.008Zm-41.36-24.043a54.808,54.808,0,0,0,6.652,8.054,54.164,54.164,0,0,0,34.522,15.79v-108.5a54.164,54.164,0,0,0-33.993,15.269c.447-.091.912-.18,1.387-.27l.087-.016.321,1.4-.1.016c-1.21.21-2.39.449-3.507.715-.947,1.009-1.871,2.074-2.745,3.165a101.845,101.845,0,0,1,11.178,4.818l.064.031-.333,1.489-.1-.052a97.208,97.208,0,0,0-11.85-5.044c-.5-.167-.989-.319-1.495-.469a25.226,25.226,0,0,0-4.051-.892,9.038,9.038,0,0,0-1.684-.063,60.876,60.876,0,0,0-4.41,7.692,9.981,9.981,0,0,1,1.473.071,24.36,24.36,0,0,1,3.873.832c.452.129.937.277,1.442.443a95.413,95.413,0,0,1,12.175,5.153l.066.032-.334,1.487-.106-.051a94.08,94.08,0,0,0-12.385-5.22c-.4.817-.785,1.672-1.153,2.542a53.916,53.916,0,0,0-3.712,13.328,101.16,101.16,0,0,1,17.02-3.982l.107-.018v1.941l-.078.013a99.078,99.078,0,0,0-17.358,4.1c-.54.2-1.059.4-1.544.594a23.416,23.416,0,0,0-3.964,2.008,9.185,9.185,0,0,0-1.493,1.188c-.022.661-.032,1.33-.032,1.993,0,.459,0,.913.014,1.348a9.6,9.6,0,0,1,1.325-1.043,22.714,22.714,0,0,1,3.86-1.99c.442-.185.926-.374,1.442-.566h0l.06-.024a97.867,97.867,0,0,1,17.661-4.211l.107-.017v1.94l-.078.012a97.484,97.484,0,0,0-17.606,4.2c0,.117,0,.236,0,.353a54.073,54.073,0,0,0,4.271,21.17c.445,1.05.932,2.106,1.448,3.139a74.828,74.828,0,0,1,14.4-3.946l.065-.012.807,1.408-.128.024a73.89,73.89,0,0,0-14.494,3.992c-.462.194-.915.4-1.351.606a16.707,16.707,0,0,0-3.256,1.974,6.648,6.648,0,0,0-1.039,1.024c.606,1.1,1.253,2.2,1.923,3.258a7.053,7.053,0,0,1,1.011-.968,16.912,16.912,0,0,1,3.293-1.985c.447-.214.908-.419,1.37-.613a74.389,74.389,0,0,1,14.481-3.984l.064-.011.807,1.409-.128.024A75.206,75.206,0,0,0,216.848,274.274Z"/>
              <path id="Path_26521" data-name="Path 26521" d="M219.351,210.056l-.061-.022c-.5-.173-1-.337-1.5-.49l-.128-.039.082-.106c.549-.7,1.127-1.4,1.716-2.087v-.036l.068-.02c.857-.251,1.737-.484,2.618-.692l.3-.071-.211.225c-.983,1.045-1.94,2.151-2.845,3.287Zm-1.374-.648c.431.135.873.28,1.312.43.831-1.039,1.705-2.055,2.6-3.022-.768.186-1.534.39-2.282.609C219.049,208.074,218.5,208.74,217.977,209.408Z"/>
              <path id="Path_26522" data-name="Path 26522" d="M213.823,208.572l-.067-.011a12.367,12.367,0,0,0-1.693-.158l-.176,0,.1-.144a61.985,61.985,0,0,1,19.838-17.847,60.59,60.59,0,0,1,26.282-7.775l.1-.006v6.982l-.086.005A54.155,54.155,0,0,0,223.8,205.11l-.02.019-.027.006c-.914.189-1.781.384-2.576.581h0l-.07.017c-5.765,1.425-7.155,2.685-7.265,2.79Zm-1.581-.349a12.608,12.608,0,0,1,1.5.148c.253-.233,1.756-1.433,7.259-2.8v-.019l.081,0c.807-.2,1.687-.4,2.617-.591a54.34,54.34,0,0,1,34.327-15.522v-6.613a60.426,60.426,0,0,0-26.1,7.746A61.8,61.8,0,0,0,212.242,208.223Z"/>
              <path id="Path_26523" data-name="Path 26523" d="M258.208,305.113l-.1-.006a61.308,61.308,0,0,1-47.223-27.22l-.038-.057.044-.053a7.22,7.22,0,0,1,1.1-1.047,17.418,17.418,0,0,1,3.306-1.972c.436-.207.9-.412,1.377-.611l.069-.028.043.061a54.745,54.745,0,0,0,24,19.807,53.887,53.887,0,0,0,17.333,4.138l.086.006Zm-47.127-27.272a61.113,61.113,0,0,0,46.941,27.075V298.3a54.347,54.347,0,0,1-34.653-15.845,55.038,55.038,0,0,1-6.7-8.111c-.45.187-.887.382-1.3.578a17.218,17.218,0,0,0-3.271,1.949A7.144,7.144,0,0,0,211.081,277.841Z"/>
              <path id="Path_26524" data-name="Path 26524" d="M311.822,208.111l-.287-.107c-.731-.274-1.555-.546-2.45-.808-1.827-.537-3.954-1.043-6.317-1.507-.835-.162-1.678-.316-2.507-.456l-.029-.006-.021-.019a54.161,54.161,0,0,0-34.417-15.593l-.086-.005v-6.982l.1.006a60.611,60.611,0,0,1,26.069,7.655,62.036,62.036,0,0,1,19.767,17.573Zm-11.5-3.055c.822.138,1.658.29,2.483.453,2.369.464,4.5.971,6.335,1.509.783.231,1.512.468,2.175.707a61.84,61.84,0,0,0-19.528-17.274,60.456,60.456,0,0,0-25.892-7.627v6.613a54.345,54.345,0,0,1,34.427,15.619Z"/>
              <path id="Path_26525" data-name="Path 26525" d="M323.169,239.6l-.16-.11a14.835,14.835,0,0,0-1.547-.918,35.8,35.8,0,0,0-4.022-1.737c-.494-.183-1.021-.371-1.567-.557l-.052-.019-.009-.056a54.153,54.153,0,0,0-9.5-23.82l-.138-.192.232.049c.721.151,1.438.315,2.132.484a44.57,44.57,0,0,1,5.522,1.664l.06.025a16.7,16.7,0,0,1,2.2,1.03l.023.013.012.024a60.72,60.72,0,0,1,6.792,23.928Zm-7.181-3.479c.528.18,1.037.362,1.517.541a35.87,35.87,0,0,1,4.042,1.747,15.5,15.5,0,0,1,1.409.822,60.524,60.524,0,0,0-6.745-23.641A16.581,16.581,0,0,0,314,214.559l-.061-.025A44.4,44.4,0,0,0,308.5,212.9c-.619-.151-1.256-.3-1.9-.434a54.342,54.342,0,0,1,9.386,23.651Z"/>
              <path id="Path_26526" data-name="Path 26526" d="M265.708,305.113v-6.982l.086-.006a54.18,54.18,0,0,0,34.623-15.8,54.8,54.8,0,0,0,5.824-6.866l.063-.089.078.079c.4.4.739.756,1.044,1.085a32.239,32.239,0,0,1,2.534,3.032c.335.468.626.911.862,1.317l.031.053-.037.049a61.286,61.286,0,0,1-45.01,24.119Zm.185-6.809v6.612a61.089,61.089,0,0,0,44.738-23.99c-.227-.387-.5-.807-.822-1.248a31.433,31.433,0,0,0-2.518-3.014c-.284-.307-.6-.637-.963-1.005a54.991,54.991,0,0,1-5.781,6.8A54.347,54.347,0,0,1,265.893,298.3Z"/>
              <path id="Path_26527" data-name="Path 26527" d="M317.242,270.517l-.091-.137c-.274-.416-.607-.868-.992-1.345a38.252,38.252,0,0,0-2.8-3.073c-.37-.366-.753-.737-1.14-1.1l-.045-.043.023-.06a54.026,54.026,0,0,0,4.155-20.885c0-.2,0-.4,0-.594l0-.132.125.044c.5.178,1.005.361,1.486.544a32.786,32.786,0,0,1,3.812,1.7,13.684,13.684,0,0,1,1.461.9l.041.03,0,.05a60.766,60.766,0,0,1-5.951,23.963Zm-4.853-5.749c.371.352.74.71,1.1,1.062a38.875,38.875,0,0,1,2.821,3.089c.344.43.651.841.911,1.224a60.63,60.63,0,0,0,5.861-23.7,13.422,13.422,0,0,0-1.4-.855,32.732,32.732,0,0,0-3.79-1.688c-.44-.167-.895-.335-1.357-.5,0,.154,0,.308,0,.463A54.261,54.261,0,0,1,312.389,264.768Z"/>
              <path id="Path_26528" data-name="Path 26528" d="M208.574,271.021l-.052-.1c-.618-1.223-1.2-2.483-1.736-3.743a59.486,59.486,0,0,1-4.669-21.192v-.052l.042-.028a22.776,22.776,0,0,1,3.8-1.958c.495-.206.994-.4,1.486-.581l.125-.047v.135c0,.139,0,.277,0,.416a54.073,54.073,0,0,0,4.271,21.17c.455,1.076.955,2.159,1.486,3.216l.044.088-.091.039c-.487.205-.94.407-1.348.6a16.93,16.93,0,0,0-3.268,1.966Zm-6.269-24.99a59.292,59.292,0,0,0,4.651,21.074c.516,1.222,1.081,2.442,1.681,3.63a17.448,17.448,0,0,1,3.215-1.917c.384-.183.81-.374,1.264-.568-.516-1.032-1-2.088-1.446-3.138a54.234,54.234,0,0,1-4.286-21.242v-.284c-.447.165-.9.344-1.351.531A22.7,22.7,0,0,0,202.3,246.031Z"/>
              <path id="Path_26529" data-name="Path 26529" d="M202.277,238.957l.016-.187a59.447,59.447,0,0,1,4.493-18.206c.243-.577.505-1.168.777-1.757l.027-.059.066.006a22.509,22.509,0,0,1,3.878.774c.443.123.927.269,1.439.43l.1.032-.047.1c-.409.839-.808,1.719-1.188,2.614a53.94,53.94,0,0,0-3.734,13.479l-.007.056-.053.019c-.547.194-1.077.393-1.571.593a24.193,24.193,0,0,0-4.04,2.007Zm5.426-20.014c-.261.567-.512,1.137-.747,1.693a59.307,59.307,0,0,0-4.463,17.963,25.149,25.149,0,0,1,3.913-1.923c.481-.194.994-.387,1.524-.577a54.166,54.166,0,0,1,3.74-13.47c.365-.864.751-1.713,1.146-2.526-.474-.149-.921-.282-1.332-.4A22.645,22.645,0,0,0,207.7,218.943Z"/>
              <path id="Path_26530" data-name="Path 26530" d="M219.351,210.056l-.061-.022c-.5-.173-1-.337-1.5-.49l-.128-.039.082-.106c.549-.7,1.127-1.4,1.716-2.087v-.036l.068-.02c.857-.251,1.737-.484,2.618-.692l.3-.071-.211.225c-.983,1.045-1.94,2.151-2.845,3.287Zm-1.374-.648c.431.135.873.28,1.312.43.831-1.039,1.705-2.055,2.6-3.022-.768.186-1.534.39-2.282.609C219.049,208.074,218.5,208.74,217.977,209.408Z"/>
              <path id="Path_26531" data-name="Path 26531" d="M213.841,208.529l-.141-.119a60.559,60.559,0,0,1,5.918-6.88,59.679,59.679,0,0,1,38.492-17.415l.1-.007v5.5l-.086.005A54.155,54.155,0,0,0,223.8,205.11l-.02.019-.027.006c-.914.189-1.781.384-2.576.581h0l-.07.017C215.214,207.19,213.894,208.475,213.841,208.529Zm44.181-24.223a59.487,59.487,0,0,0-38.273,17.356,60.125,60.125,0,0,0-5.524,6.352A24.2,24.2,0,0,1,221,205.571v-.019l.081,0c.807-.2,1.687-.4,2.617-.591a54.34,54.34,0,0,1,34.327-15.522Z"/>
              <path id="Path_26532" data-name="Path 26532" d="M258.208,303.631l-.1-.006a59.647,59.647,0,0,1-38.492-17.416,60.064,60.064,0,0,1-7.647-9.356l-.047-.071.066-.052a17.418,17.418,0,0,1,3.306-1.972c.436-.207.9-.412,1.377-.611l.069-.028.043.061a54.745,54.745,0,0,0,24,19.807,53.887,53.887,0,0,0,17.333,4.138l.086.006Zm-46.036-26.809a60.022,60.022,0,0,0,26.552,22.051,59.209,59.209,0,0,0,19.3,4.562V298.3a54.347,54.347,0,0,1-34.653-15.845,55.038,55.038,0,0,1-6.7-8.111c-.45.187-.887.382-1.3.578A17.467,17.467,0,0,0,212.172,276.822Z"/>
              <path id="Path_26533" data-name="Path 26533" d="M309.363,207.278l-.278-.082c-1.827-.537-3.954-1.043-6.317-1.507-.835-.162-1.678-.316-2.507-.456l-.029-.006-.021-.019a54.161,54.161,0,0,0-34.417-15.593l-.086-.005v-5.5l.1.007A59.674,59.674,0,0,1,304.3,201.53a60.528,60.528,0,0,1,4.889,5.521Zm-9.043-2.222c.822.138,1.658.29,2.483.453,2.252.44,4.288.921,6.058,1.43a60.292,60.292,0,0,0-4.7-5.277,59.481,59.481,0,0,0-38.273-17.356v5.131a54.345,54.345,0,0,1,34.427,15.619Z"/>
              <path id="Path_26534" data-name="Path 26534" d="M321.611,238.647l-.149-.079a35.8,35.8,0,0,0-4.022-1.737c-.494-.183-1.021-.371-1.567-.557l-.052-.019-.009-.056a54.153,54.153,0,0,0-9.5-23.82l-.138-.192.232.049c.721.151,1.438.315,2.132.484a44.57,44.57,0,0,1,5.522,1.664l.06.024v.039a59.658,59.658,0,0,1,7.474,24.031Zm-5.623-2.53c.528.18,1.037.362,1.517.541a36.8,36.8,0,0,1,3.892,1.669,59.433,59.433,0,0,0-7.432-23.783A44.574,44.574,0,0,0,308.5,212.9c-.619-.151-1.256-.3-1.9-.434a54.342,54.342,0,0,1,9.386,23.651Z"/>
              <path id="Path_26535" data-name="Path 26535" d="M265.708,303.631v-5.5l.086-.006a54.18,54.18,0,0,0,34.623-15.8,54.8,54.8,0,0,0,5.824-6.866l.063-.089.078.079c.4.4.739.756,1.044,1.085a32.239,32.239,0,0,1,2.534,3.032l.039.056-.041.054a60.481,60.481,0,0,1-5.662,6.53,59.642,59.642,0,0,1-38.49,17.416Zm.185-5.327v5.131a59.468,59.468,0,0,0,38.273-17.356,60.437,60.437,0,0,0,5.6-6.457,32.04,32.04,0,0,0-2.478-2.958c-.284-.307-.6-.637-.963-1.005a54.991,54.991,0,0,1-5.781,6.8A54.347,54.347,0,0,1,265.893,298.3Z"/>
              <path id="Path_26536" data-name="Path 26536" d="M316.253,269.151l-.094-.116a38.252,38.252,0,0,0-2.8-3.073c-.37-.366-.753-.737-1.14-1.1l-.045-.043.023-.06a54.026,54.026,0,0,0,4.155-20.885c0-.2,0-.4,0-.594l0-.132.125.044c.5.178,1.005.361,1.486.544a32.786,32.786,0,0,1,3.812,1.7l.05.027,0,.057a59.461,59.461,0,0,1-4.682,21.664c-.267.631-.541,1.249-.814,1.839Zm-3.864-4.383c.371.352.74.71,1.1,1.062a39.575,39.575,0,0,1,2.727,2.973c.25-.547.5-1.117.749-1.7a59.294,59.294,0,0,0,4.666-21.541,33.019,33.019,0,0,0-3.74-1.66c-.44-.167-.895-.335-1.357-.5,0,.154,0,.308,0,.463A54.261,54.261,0,0,1,312.389,264.768Z"/>
              <path id="Path_26537" data-name="Path 26537" d="M211.851,269.025l-.042-.081c-.529-1.054-1.034-2.15-1.5-3.258a55.627,55.627,0,0,1-4.4-21.654l0-.062.058-.023c.495-.206.994-.4,1.486-.581l.125-.047v.135c0,.139,0,.277,0,.416a54.073,54.073,0,0,0,4.271,21.17c.455,1.076.955,2.159,1.486,3.216l.044.088-.091.039c-.487.205-.94.407-1.348.6Zm-5.76-24.932a55.47,55.47,0,0,0,4.387,21.522c.454,1.075.944,2.14,1.456,3.165.363-.172.76-.349,1.182-.53-.516-1.032-1-2.088-1.446-3.138a54.234,54.234,0,0,1-4.286-21.242v-.284C206.956,243.744,206.522,243.916,206.091,244.093Z"/>
              <path id="Path_26538" data-name="Path 26538" d="M206.33,236.908l.019-.157a55.6,55.6,0,0,1,3.959-14.7c.347-.824.724-1.657,1.117-2.474l.034-.07.075.02c.443.123.927.269,1.439.43l.1.032-.047.1c-.409.839-.808,1.719-1.188,2.614a53.94,53.94,0,0,0-3.734,13.479l-.007.056-.053.019c-.547.194-1.077.393-1.571.593Zm5.229-17.18c-.38.792-.744,1.6-1.081,2.4a55.288,55.288,0,0,0-3.925,14.491c.438-.174.9-.348,1.377-.518a54.166,54.166,0,0,1,3.74-13.47c.365-.864.751-1.713,1.146-2.526C212.371,219.964,211.949,219.838,211.559,219.728Z"/>
              <path id="Path_26539" data-name="Path 26539" d="M219.351,210.056l-.061-.022c-.5-.173-1-.337-1.5-.49l-.128-.039.082-.106c.549-.7,1.127-1.4,1.716-2.087v-.036l.068-.02c.857-.251,1.737-.484,2.618-.692l.3-.071-.211.225c-.983,1.045-1.94,2.151-2.845,3.287Zm-1.374-.648c.431.135.873.28,1.312.43.831-1.039,1.705-2.055,2.6-3.022-.768.186-1.534.39-2.282.609C219.049,208.074,218.5,208.74,217.977,209.408Z"/>
              <path id="Path_26540" data-name="Path 26540" d="M220.811,205.807l.211-.227c.417-.446.854-.9,1.3-1.346a55.848,55.848,0,0,1,35.787-16.288l.1-.006v1.67l-.086.005A54.155,54.155,0,0,0,223.8,205.11l-.02.019-.027.006c-.941.2-1.831.4-2.645.6Zm37.211-17.668a55.656,55.656,0,0,0-35.568,16.226c-.37.369-.734.742-1.083,1.113.725-.174,1.505-.349,2.324-.519a54.34,54.34,0,0,1,34.327-15.522Z"/>
              <path id="Path_26541" data-name="Path 26541" d="M258.208,299.8l-.1-.006a55.848,55.848,0,0,1-35.787-16.288,56.358,56.358,0,0,1-7.064-8.613l-.059-.089.1-.046c.436-.207.9-.412,1.377-.611l.069-.028.043.061a54.745,54.745,0,0,0,24,19.807,53.887,53.887,0,0,0,17.333,4.138l.086.006Zm-42.736-24.92a56.228,56.228,0,0,0,24.741,20.47,55.355,55.355,0,0,0,17.809,4.252v-1.3a54.347,54.347,0,0,1-34.653-15.845,55.038,55.038,0,0,1-6.7-8.111C216.258,274.521,215.855,274.7,215.472,274.88Z"/>
              <path id="Path_26542" data-name="Path 26542" d="M303.05,205.745l-.282-.056c-.835-.162-1.678-.316-2.507-.456l-.029-.006-.021-.019a54.161,54.161,0,0,0-34.417-15.593l-.086-.005v-1.67l.1.006a55.854,55.854,0,0,1,35.787,16.288c.433.432.857.87,1.26,1.3Zm-2.73-.689c.729.123,1.468.257,2.2.4-.342-.362-.7-.727-1.059-1.088a55.667,55.667,0,0,0-35.57-16.226v1.3a54.345,54.345,0,0,1,34.427,15.619Z"/>
              <path id="Path_26543" data-name="Path 26543" d="M317.584,236.886l-.144-.055c-.494-.183-1.021-.371-1.567-.557l-.052-.019-.009-.056a54.153,54.153,0,0,0-9.5-23.82l-.138-.192.232.049c.721.151,1.438.315,2.132.484l.035.008.021.03a55.816,55.816,0,0,1,8.968,23.975Zm-1.6-.769c.475.163.936.327,1.374.489a55.638,55.638,0,0,0-8.9-23.715c-.607-.148-1.232-.29-1.861-.425a54.342,54.342,0,0,1,9.386,23.651Z"/>
              <path id="Path_26544" data-name="Path 26544" d="M265.708,299.8v-1.669l.086-.006a54.18,54.18,0,0,0,34.623-15.8,54.8,54.8,0,0,0,5.824-6.866l.063-.089.078.079c.4.4.739.756,1.044,1.085l.053.056-.045.062a56.4,56.4,0,0,1-23.66,18.865,55.581,55.581,0,0,1-17.968,4.274Zm.185-1.5v1.3a55.661,55.661,0,0,0,35.57-16.227,56.472,56.472,0,0,0,5.777-6.767c-.271-.291-.572-.6-.912-.949a54.991,54.991,0,0,1-5.781,6.8A54.347,54.347,0,0,1,265.893,298.3Z"/>
              <path id="Path_26545" data-name="Path 26545" d="M313.449,266.058l-.1-.1c-.37-.366-.753-.737-1.14-1.1l-.045-.043.023-.06a54.026,54.026,0,0,0,4.155-20.885c0-.2,0-.4,0-.594l0-.132.125.044c.5.178,1.005.361,1.486.544l.06.022v.116a55.7,55.7,0,0,1-4.4,21.816c-.035.084-.069.166-.106.247Zm-1.06-1.29c.337.32.673.646,1,.967.018-.04.034-.079.052-.12a55.51,55.51,0,0,0,4.388-21.733c-.422-.16-.858-.32-1.3-.475,0,.154,0,.308,0,.463A54.261,54.261,0,0,1,312.389,264.768Z"/>
              <path id="Path_26546" data-name="Path 26546" d="M265.708,298.317V189.423l.1.008a54.353,54.353,0,0,1,34.535,15.644l.206.205-.287-.048c-1.634-.276-2.8-.431-3.091-.456l-.233,1.211c.665.041,3.166.442,5.033.795.867.166,1.66.327,2.427.494l.073.018a55.639,55.639,0,0,1,6.115,1.653,23.87,23.87,0,0,1,2.489,1l.053.024V210c.726,1.089,1.43,2.229,2.093,3.385l.14.243-.257-.111c-.642-.282-1.385-.563-2.208-.838a56.581,56.581,0,0,0-5.594-1.506c-.729-.161-1.465-.314-2.187-.455-2.911-.57-5.149-.872-5.567-.909l-.234,1.212c.774.049,4.1.571,7.1,1.211l.073.016v.047a54.321,54.321,0,0,1,9.513,23.876l.022.149-.144-.048a148.526,148.526,0,0,0-15.566-4.142l.107,1.682a149.017,149.017,0,0,1,15.754,4.2c.544.187,1.064.373,1.545.552a35.8,35.8,0,0,1,3.972,1.723,14.793,14.793,0,0,1,1.535.913l.038.025,0,.047c.036.868.055,1.742.055,2.6,0,.261,0,.519-.006.779l0,.182-.145-.109a12.3,12.3,0,0,0-1.466-.928,31.46,31.46,0,0,0-3.842-1.729l-.059-.024c-.452-.172-.936-.349-1.441-.528a145.327,145.327,0,0,0-16.189-4.36l.107,1.683a146.558,146.558,0,0,1,16.194,4.352l.062.022v.065c0,.2,0,.4,0,.6a54.2,54.2,0,0,1-4.169,20.957l-.051.123-.1-.092a147.089,147.089,0,0,0-13.85-11.221l.173,1.93a149.2,149.2,0,0,1,13.106,10.765c.374.355.742.713,1.127,1.1a37.155,37.155,0,0,1,2.782,3.055,16.313,16.313,0,0,1,.983,1.351l.028.044-.024.048a61.191,61.191,0,0,1-4.858,7.9l-.082.114-.072-.12c-.249-.419-.539-.861-.864-1.313a33.2,33.2,0,0,0-2.516-3.059c-.325-.355-.674-.723-1.039-1.1a92.575,92.575,0,0,0-11.352-9.6l-.759,1.16a97.645,97.645,0,0,1,11.385,9.54l.054.054-.045.065a55.06,55.06,0,0,1-5.844,6.888,54.346,54.346,0,0,1-34.741,15.851Zm.185-108.7v108.5a54.18,54.18,0,0,0,34.524-15.79,54.957,54.957,0,0,0,5.779-6.8,98.176,98.176,0,0,0-11.379-9.518l-.071-.051.961-1.47.079.057a92.861,92.861,0,0,1,11.454,9.674c.367.375.717.745,1.043,1.1a33.009,33.009,0,0,1,2.531,3.077c.3.412.565.817.8,1.2a61.563,61.563,0,0,0,4.736-7.714c-.251-.386-.567-.82-.943-1.291a37.152,37.152,0,0,0-2.768-3.037c-.383-.383-.751-.74-1.123-1.093a149.158,149.158,0,0,0-13.123-10.776l-.033-.025-.218-2.419.164.12a148.845,148.845,0,0,1,13.937,11.265,54.017,54.017,0,0,0,4.1-20.762c0-.177,0-.352,0-.529A147.679,147.679,0,0,0,300.165,239l-.069-.014-.132-2.068.118.025a146.418,146.418,0,0,1,16.334,4.392c.53.186,1.036.372,1.5.551l.061.025a31.555,31.555,0,0,1,3.806,1.718,13.032,13.032,0,0,1,1.342.834c0-.2,0-.4,0-.6,0-.837-.017-1.694-.051-2.543a14.868,14.868,0,0,0-1.48-.876,35.592,35.592,0,0,0-3.95-1.713c-.479-.179-1-.364-1.54-.55a149.634,149.634,0,0,0-15.8-4.207l-.069-.013-.132-2.066.119.023a151.556,151.556,0,0,1,15.565,4.124,53.891,53.891,0,0,0-3.715-13.348,54.459,54.459,0,0,0-5.742-10.294c-3.616-.77-6.768-1.2-7.1-1.216l-.168.125.319-1.653.029-.021a53.033,53.033,0,0,1,5.734.9c.723.141,1.46.295,2.191.457a56.99,56.99,0,0,1,5.613,1.51c.722.241,1.382.487,1.967.734-.62-1.071-1.276-2.125-1.951-3.139a23.587,23.587,0,0,0-2.445-.978,56.23,56.23,0,0,0-6.166-1.664l-.073-.017c-.744-.16-1.514-.317-2.352-.477-2.814-.534-4.825-.792-5.074-.807l-.169.129.318-1.659.029-.022A28.283,28.283,0,0,1,300,205a54.167,54.167,0,0,0-34.109-15.381Z"/>
              <g id="Group_8065" data-name="Group 8065">
                <path id="Path_26547" data-name="Path 26547" d="M259.688,306.422h-1.666v-125.1h1.666Zm-1.48-.186h1.3V181.5h-1.3Z"/>
                <path id="Path_26548" data-name="Path 26548" d="M265.893,306.422h-1.665v-125.1h1.665Zm-1.48-.186h1.3V181.5h-1.3Z"/>
              </g>
              <path id="Path_26549" data-name="Path 26549" d="M200.042,242.9h-.012a.094.094,0,0,1-.08-.093V241.06a.181.181,0,0,1,0-.024,2.811,2.811,0,0,1,.8-1.1,9.817,9.817,0,0,1,1.587-1.232,24.354,24.354,0,0,1,4.07-2.024c.5-.2,1.028-.4,1.577-.6a100.6,100.6,0,0,1,17.165-4.033.093.093,0,0,1,.075.02.1.1,0,0,1,.032.071v1.753a.092.092,0,0,1-.078.092,99.078,99.078,0,0,0-17.358,4.1c-.54.2-1.059.4-1.544.594a23.416,23.416,0,0,0-3.964,2.008A9.1,9.1,0,0,0,200.8,241.9l-.007.008a2.583,2.583,0,0,0-.662.932A.092.092,0,0,1,200.042,242.9Zm.092-1.831v1.348a4.162,4.162,0,0,1,.518-.639l.009-.009a9.311,9.311,0,0,1,1.549-1.238,23.551,23.551,0,0,1,3.995-2.026c.487-.2,1.008-.4,1.55-.6a99,99,0,0,1,17.315-4.1v-1.567a100.032,100.032,0,0,0-17.024,4.009c-.547.194-1.077.393-1.571.593a24.193,24.193,0,0,0-4.04,2.007,9.817,9.817,0,0,0-1.556,1.207A2.869,2.869,0,0,0,200.134,241.073Z"/>
              <path id="Path_26550" data-name="Path 26550" d="M200.042,248.241h-.012a.092.092,0,0,1-.08-.091V246.4a.165.165,0,0,1,0-.022,2.613,2.613,0,0,1,.694-1,9.129,9.129,0,0,1,1.479-1.2,22.714,22.714,0,0,1,3.86-1.99c.455-.189.955-.386,1.489-.584l.013-.006a97.867,97.867,0,0,1,17.661-4.211.094.094,0,0,1,.075.021.091.091,0,0,1,.032.07v1.753a.091.091,0,0,1-.078.091,97.251,97.251,0,0,0-17.666,4.22c-.489.179-.986.374-1.478.578a22.541,22.541,0,0,0-3.772,1.942,9.322,9.322,0,0,0-1.417,1.128,2.688,2.688,0,0,0-.713.985A.092.092,0,0,1,200.042,248.241Zm.092-1.832v1.348a4.3,4.3,0,0,1,.578-.7,9.556,9.556,0,0,1,1.446-1.151,22.776,22.776,0,0,1,3.8-1.958c.495-.206.994-.4,1.486-.581a96.935,96.935,0,0,1,17.622-4.217v-1.565a97.352,97.352,0,0,0-17.505,4.18l-.014.006c-.536.2-1.039.4-1.5.585a22.6,22.6,0,0,0-3.828,1.974,8.841,8.841,0,0,0-1.447,1.172A2.671,2.671,0,0,0,200.134,246.409Z"/>
              <path id="Path_26551" data-name="Path 26551" d="M207.757,274.111a.089.089,0,0,1-.079-.047l-.71-1.237a.089.089,0,0,1-.012-.062,2.192,2.192,0,0,1,.471-.858,6.79,6.79,0,0,1,1.121-1.1,17.112,17.112,0,0,1,3.3-1.988c.409-.2.865-.4,1.355-.606a74.648,74.648,0,0,1,14.478-3.979.09.09,0,0,1,.1.046l.71,1.237a.089.089,0,0,1,0,.085.092.092,0,0,1-.066.052,73.89,73.89,0,0,0-14.494,3.992c-.462.194-.915.4-1.351.606a16.707,16.707,0,0,0-3.256,1.974,6.507,6.507,0,0,0-1.075,1.072,2.017,2.017,0,0,0-.4.738.094.094,0,0,1-.076.075Zm-.612-1.345.591,1.029a2.986,2.986,0,0,1,.37-.611,6.574,6.574,0,0,1,1.106-1.1,16.79,16.79,0,0,1,3.293-2c.437-.21.895-.415,1.358-.61a73.9,73.9,0,0,1,14.4-3.978l-.611-1.07a74.265,74.265,0,0,0-14.376,3.957c-.487.205-.94.407-1.348.6a16.93,16.93,0,0,0-3.268,1.966,6.688,6.688,0,0,0-1.09,1.069A2.369,2.369,0,0,0,207.145,272.766Z"/>
              <path id="Path_26552" data-name="Path 26552" d="M210.44,278.837a.09.09,0,0,1-.081-.045l-.71-1.239a.1.1,0,0,1-.01-.061,2.226,2.226,0,0,1,.491-.884,6.8,6.8,0,0,1,1.093-1.069,16.912,16.912,0,0,1,3.293-1.985c.447-.214.908-.419,1.37-.613a74.389,74.389,0,0,1,14.481-3.984.091.091,0,0,1,.1.046l.711,1.239a.091.091,0,0,1,0,.085.086.086,0,0,1-.066.052,74.772,74.772,0,0,0-14.366,3.939c-.476.2-.936.4-1.369.608a17.218,17.218,0,0,0-3.271,1.949,7.021,7.021,0,0,0-1.067,1.019,2.238,2.238,0,0,0-.506.867.094.094,0,0,1-.077.075Zm-.612-1.343.59,1.026a3.19,3.19,0,0,1,.475-.743,7.22,7.22,0,0,1,1.1-1.047,17.418,17.418,0,0,1,3.306-1.972c.436-.207.9-.412,1.377-.611a74.54,74.54,0,0,1,14.275-3.925l-.612-1.07a74.143,74.143,0,0,0-14.379,3.959c-.459.192-.918.4-1.361.609a16.851,16.851,0,0,0-3.257,1.962,6.727,6.727,0,0,0-1.064,1.04A2.383,2.383,0,0,0,209.828,277.494Z"/>
              <path id="Path_26553" data-name="Path 26553" d="M225.42,225.388a.1.1,0,0,1-.042-.009,93.513,93.513,0,0,0-12.461-5.244c-.511-.161-.993-.306-1.433-.428a22.341,22.341,0,0,0-3.846-.77,7.586,7.586,0,0,0-1.6,0,1.845,1.845,0,0,0-.648.166.091.091,0,0,1-.113-.015.094.094,0,0,1-.013-.113,6.226,6.226,0,0,0,.279-1.265.088.088,0,0,1,.041-.065,2.428,2.428,0,0,1,1.054-.223,9.573,9.573,0,0,1,1.629.064,24.36,24.36,0,0,1,3.873.832c.452.129.937.277,1.442.443a95.413,95.413,0,0,1,12.175,5.153.092.092,0,0,1,.05.1l-.293,1.3a.089.089,0,0,1-.05.063A.092.092,0,0,1,225.42,225.388Zm-18.668-6.68c.277,0,.579.015.9.046a22.509,22.509,0,0,1,3.878.774c.443.123.927.269,1.439.43a93.77,93.77,0,0,1,12.382,5.2l.251-1.117a94.977,94.977,0,0,0-12.086-5.111c-.5-.163-.986-.311-1.435-.44a24.38,24.38,0,0,0-3.844-.826,9.3,9.3,0,0,0-1.6-.063,2.709,2.709,0,0,0-.931.176,10.314,10.314,0,0,1-.214,1.076,2.952,2.952,0,0,1,.511-.1A5.98,5.98,0,0,1,206.752,218.708Z"/>
              <path id="Path_26554" data-name="Path 26554" d="M230.32,216.2a.1.1,0,0,1-.041-.009,97.208,97.208,0,0,0-11.85-5.044c-.5-.167-.989-.319-1.495-.469a25.226,25.226,0,0,0-4.051-.892,8.84,8.84,0,0,0-1.729-.06,2.286,2.286,0,0,0-.87.188.1.1,0,0,1-.113-.016.092.092,0,0,1-.012-.112,6.338,6.338,0,0,0,.279-1.267.092.092,0,0,1,.041-.065,3.206,3.206,0,0,1,1.587-.233,12.3,12.3,0,0,1,1.719.16l.015,0a28.609,28.609,0,0,1,4.049.987c.493.153,1,.317,1.5.492a100.948,100.948,0,0,1,11.3,4.86.1.1,0,0,1,.05.1l-.294,1.3a.089.089,0,0,1-.05.063A.092.092,0,0,1,230.32,216.2Zm-18.659-6.678a10.418,10.418,0,0,1,1.243.081,25.049,25.049,0,0,1,4.083.9c.509.149,1,.3,1.5.472a96.57,96.57,0,0,1,11.767,5l.251-1.116a100.493,100.493,0,0,0-11.216-4.82c-.5-.173-1-.337-1.5-.49a28.7,28.7,0,0,0-4.038-.983l-.015,0a12.241,12.241,0,0,0-1.678-.155,3.571,3.571,0,0,0-1.449.188,10.366,10.366,0,0,1-.214,1.076,3.4,3.4,0,0,1,.739-.129C211.3,209.525,211.477,209.519,211.661,209.519Z"/>
              <path id="Path_26555" data-name="Path 26555" d="M311.325,282.251l-.013,0a.092.092,0,0,1-.078-.067,5.368,5.368,0,0,0-.572-1.2c-.233-.4-.521-.839-.853-1.3a31.433,31.433,0,0,0-2.518-3.014c-.3-.329-.645-.682-1.041-1.083a97.862,97.862,0,0,0-11.433-9.572.09.09,0,0,1-.022-.124l.859-1.316a.093.093,0,0,1,.061-.04.1.1,0,0,1,.071.016,92.861,92.861,0,0,1,11.454,9.674c.367.375.717.745,1.043,1.1a33.009,33.009,0,0,1,2.531,3.077c.328.456.621.9.872,1.325a6.887,6.887,0,0,1,.748,1.552.093.093,0,0,1-.035.1,6.194,6.194,0,0,0-.995.833A.092.092,0,0,1,311.325,282.251ZM295,265.912a97.645,97.645,0,0,1,11.385,9.54c.4.4.739.756,1.044,1.085a32.239,32.239,0,0,1,2.534,3.032c.335.468.626.911.862,1.317a6.99,6.99,0,0,1,.538,1.086,9.121,9.121,0,0,1,.876-.71,7.614,7.614,0,0,0-.709-1.445c-.249-.419-.539-.861-.864-1.313a33.2,33.2,0,0,0-2.516-3.059c-.325-.355-.674-.723-1.039-1.1a92.575,92.575,0,0,0-11.352-9.6Z"/>
              <path id="Path_26556" data-name="Path 26556" d="M317.208,273.657a.087.087,0,0,1-.028-.005.091.091,0,0,1-.064-.1,3.6,3.6,0,0,0-.738-1.624,16.366,16.366,0,0,0-.971-1.336,37.152,37.152,0,0,0-2.768-3.037c-.383-.383-.751-.74-1.123-1.093a149.158,149.158,0,0,0-13.123-10.776.1.1,0,0,1-.037-.066l-.2-2.174a.1.1,0,0,1,.046-.09.093.093,0,0,1,.1.006,147.84,147.84,0,0,1,14.035,11.357c.388.367.772.74,1.143,1.106a38.875,38.875,0,0,1,2.821,3.089c.385.481.723.939,1,1.358,1.161,1.752,1.017,2.419,1.01,2.447a.084.084,0,0,1-.035.053,6.137,6.137,0,0,0-1,.834A.094.094,0,0,1,317.208,273.657Zm-18.671-18.09a149.2,149.2,0,0,1,13.106,10.765c.374.355.742.713,1.127,1.1a37.155,37.155,0,0,1,2.782,3.055,16.313,16.313,0,0,1,.983,1.351,5.146,5.146,0,0,1,.736,1.518,9.265,9.265,0,0,1,.87-.7,4.359,4.359,0,0,0-.99-2.271c-.274-.416-.607-.868-.992-1.345a38.252,38.252,0,0,0-2.8-3.073c-.37-.366-.753-.737-1.14-1.1a147.089,147.089,0,0,0-13.85-11.221Z"/>
              <path id="Path_26557" data-name="Path 26557" d="M217.822,209.549a.1.1,0,0,1-.028,0,28.7,28.7,0,0,0-4.038-.983.091.091,0,0,1-.078-.091.091.091,0,0,1,.031-.07h0c.138-.139,1.509-1.4,7.347-2.844l.012,0h0c.817-.2,1.71-.4,2.653-.6.541-.111,1.112-.223,1.7-.333a.092.092,0,0,1,.107.071l.279,1.22a.1.1,0,0,1-.013.072.1.1,0,0,1-.062.039c-1.215.21-2.4.452-3.523.718l-.011,0c-.869.205-1.737.434-2.582.681-.591.685-1.167,1.386-1.716,2.088A.1.1,0,0,1,217.822,209.549Zm-3.842-1.139a29.162,29.162,0,0,1,3.808.939c.543-.692,1.112-1.385,1.694-2.058a.1.1,0,0,1,.05-.035c.853-.249,1.731-.483,2.606-.689l.012-.005h0c1.1-.261,2.259-.5,3.45-.705l-.238-1.039c-.551.1-1.091.211-1.6.317-.936.194-1.823.393-2.635.594l-.011,0C216.17,206.954,214.442,208.054,213.98,208.41Z"/>
              <path id="Path_26558" data-name="Path 26558" d="M215.564,208.875l-.08-.166a29.809,29.809,0,0,1,4.047-1.452l.052.178A29.961,29.961,0,0,0,215.564,208.875Z"/>
              <path id="Path_26559" data-name="Path 26559" d="M223.193,211.461l-.04-.18a31.01,31.01,0,0,1,3.182-.465l.2-.022-.275-1.053c-.75.07-1.416.157-2.038.261l-.185.032a6.927,6.927,0,0,0-2.458.729l-.1-.158a7.027,7.027,0,0,1,2.525-.754l.184-.031c.647-.11,1.344-.2,2.13-.27a.092.092,0,0,1,.1.067l.321,1.234a.083.083,0,0,1-.013.076.089.089,0,0,1-.066.04l-.3.032A31.5,31.5,0,0,0,223.193,211.461Z"/>
              <path id="Path_26560" data-name="Path 26560" d="M324.768,242.986a.089.089,0,0,1-.082-.051,4.623,4.623,0,0,0-1.57-1.583,15.2,15.2,0,0,0-1.518-.9,35.592,35.592,0,0,0-3.95-1.713c-.479-.179-1-.364-1.54-.55a149.634,149.634,0,0,0-15.8-4.207.088.088,0,0,1-.073-.085l-.12-1.874a.091.091,0,0,1,.032-.075.1.1,0,0,1,.079-.022,150.246,150.246,0,0,1,15.708,4.174c.547.187,1.075.374,1.571.559a35.87,35.87,0,0,1,4.042,1.747,14.9,14.9,0,0,1,1.568.929,4.741,4.741,0,0,1,1.616,1.644.079.079,0,0,1,.01.035l.119,1.874a.094.094,0,0,1-.069.1Zm-24.354-9.172a149.017,149.017,0,0,1,15.754,4.2c.544.187,1.064.373,1.545.552a35.8,35.8,0,0,1,3.972,1.723,14.793,14.793,0,0,1,1.535.913,5.623,5.623,0,0,1,1.432,1.317l-.1-1.476a4.627,4.627,0,0,0-1.548-1.556,14.835,14.835,0,0,0-1.547-.918,35.8,35.8,0,0,0-4.022-1.737c-.494-.183-1.021-.371-1.567-.557a148.526,148.526,0,0,0-15.566-4.142Z"/>
              <path id="Path_26561" data-name="Path 26561" d="M324.624,248.008a.094.094,0,0,1-.084-.052,4.354,4.354,0,0,0-1.422-1.479,13.364,13.364,0,0,0-1.442-.885,32.732,32.732,0,0,0-3.79-1.688c-.48-.182-.977-.364-1.482-.541A146.942,146.942,0,0,0,300.165,239a.094.094,0,0,1-.074-.086l-.12-1.876a.091.091,0,0,1,.032-.074.092.092,0,0,1,.079-.021,146.418,146.418,0,0,1,16.334,4.392c.53.186,1.036.372,1.5.551l.014.007a31.523,31.523,0,0,1,3.853,1.736,12.664,12.664,0,0,1,1.487.941A4.308,4.308,0,0,1,324.587,246a.082.082,0,0,1,.009.035l.12,1.875a.093.093,0,0,1-.069.1Zm-24.352-9.172a146.558,146.558,0,0,1,16.194,4.352c.5.178,1.005.361,1.486.544a32.786,32.786,0,0,1,3.812,1.7,13.684,13.684,0,0,1,1.461.9,5.424,5.424,0,0,1,1.282,1.215l-.094-1.476a4.155,4.155,0,0,0-1.251-1.342,12.3,12.3,0,0,0-1.466-.928,31.46,31.46,0,0,0-3.842-1.729l-.012-.006c-.465-.178-.965-.361-1.488-.546a145.268,145.268,0,0,0-16.189-4.36Z"/>
              <path id="Path_26562" data-name="Path 26562" d="M317.534,216.511a.1.1,0,0,1-.065-.025,6.6,6.6,0,0,0-1.235-.887,16.567,16.567,0,0,0-2.236-1.04l-.014-.007A44.411,44.411,0,0,0,308.5,212.9c-.694-.17-1.41-.331-2.129-.484l-.014,0c-3.692-.788-6.909-1.221-7.138-1.221h0a.082.082,0,0,1-.064-.013.093.093,0,0,1-.041-.1l.266-1.385a.09.09,0,0,1,.036-.056,52.957,52.957,0,0,1,5.734.9c.723.141,1.46.295,2.191.457a56.99,56.99,0,0,1,5.613,1.51c.827.278,1.576.561,2.224.844l.013.007a9.583,9.583,0,0,1,2.672,1.609.091.091,0,0,1,.028.085l-.265,1.386a.1.1,0,0,1-.063.071A.091.091,0,0,1,317.534,216.511Zm-3.457-2.119a16.585,16.585,0,0,1,2.25,1.047,7.311,7.311,0,0,1,1.147.8l.225-1.172a9.6,9.6,0,0,0-2.6-1.547l-.013-.006c-.638-.279-1.378-.559-2.195-.832a56.581,56.581,0,0,0-5.594-1.506c-.729-.161-1.465-.314-2.187-.455-2.911-.57-5.149-.872-5.567-.909l-.234,1.212c.774.049,4.1.571,7.1,1.211l.014,0c.716.152,1.429.313,2.118.482a44.57,44.57,0,0,1,5.522,1.664A.037.037,0,0,1,314.077,214.392Z"/>
              <path id="Path_26563" data-name="Path 26563" d="M315.156,211.474a.1.1,0,0,1-.063-.025,8.359,8.359,0,0,0-2.1-1.336l-.012-.007a23.567,23.567,0,0,0-2.458-.984,56.23,56.23,0,0,0-6.166-1.664l-.015,0c-.761-.166-1.55-.326-2.41-.49-2.891-.548-4.934-.807-5.091-.807a.094.094,0,0,1-.107-.11l.267-1.384a.113.113,0,0,1,.035-.058c.113-.082,3.222.439,3.254.445l.013,0c.827.139,1.668.292,2.5.456,2.369.464,4.5.971,6.335,1.509.9.264,1.727.537,2.461.811a11.917,11.917,0,0,1,3.887,2.1.091.091,0,0,1,.028.085l-.267,1.385a.09.09,0,0,1-.091.074Zm-2.069-1.522A9.022,9.022,0,0,1,315.1,211.2l.224-1.173A11.878,11.878,0,0,0,311.535,208c-.731-.274-1.555-.546-2.45-.808-1.827-.537-3.954-1.043-6.317-1.507-.835-.162-1.678-.316-2.507-.456l-.013,0c-1.628-.275-2.787-.429-3.079-.454l-.233,1.211c.665.041,3.166.442,5.033.795.867.166,1.66.327,2.427.494l.015.005a55.847,55.847,0,0,1,6.173,1.666,23.87,23.87,0,0,1,2.489,1Z"/>
            </g>
            <g id="Group_8089" data-name="Group 8089">
              <path id="Path_26564" data-name="Path 26564" d="M224.289,201.1v50.977A38.115,38.115,0,0,0,262.4,290.191h0a38.116,38.116,0,0,0,38.116-38.116V201.1Z" fill="#fff"/>
              <path id="Path_26565" data-name="Path 26565" d="M225.821,202.631v49.444a36.584,36.584,0,0,0,73.167,0V202.631Z" fill="#e60000"/>
              <path id="Path_26566" data-name="Path 26566" d="M262.4,290.288a38.214,38.214,0,0,1-38.212-38.213V201h76.423v51.072A38.212,38.212,0,0,1,262.4,290.288Zm-38.021-89.094v50.881a38.021,38.021,0,0,0,76.042,0V201.194Z"/>
              <path id="Path_26567" data-name="Path 26567" d="M262.4,288.754a36.677,36.677,0,0,1-36.679-36.679V202.536h73.358v49.539A36.679,36.679,0,0,1,262.4,288.754Zm-36.488-86.027v49.348a36.487,36.487,0,1,0,72.974,0V202.727Z"/>
              <path id="Path_26568" data-name="Path 26568" d="M240.514,217.324v34.751a21.89,21.89,0,1,0,43.78,0V217.324Z" fill="#fff"/>
              <path id="Path_26569" data-name="Path 26569" d="M262.4,274.062a21.984,21.984,0,0,1-21.987-21.987V217.228h43.973v34.847A21.986,21.986,0,0,1,262.4,274.062ZM240.61,217.421v34.654a21.795,21.795,0,1,0,43.589,0V217.421Z"/>
              <g id="Group_8067" data-name="Group 8067">
                <path id="Path_26570" data-name="Path 26570" d="M257.582,222.749v7.657a4.822,4.822,0,0,0,9.645,0v-7.657Zm2.53,8.793a1.013,1.013,0,1,1,1.012-1.013A1.013,1.013,0,0,1,260.112,231.542Zm0-4.586a1.013,1.013,0,1,1,1.012-1.012A1.012,1.012,0,0,1,260.112,226.956Zm2.293,2.292a1.012,1.012,0,1,1,1.012-1.012A1.014,1.014,0,0,1,262.4,229.248Zm2.292,2.294a1.013,1.013,0,1,1,1.012-1.013A1.013,1.013,0,0,1,264.7,231.542Zm0-4.586a1.013,1.013,0,1,1,1.012-1.012A1.012,1.012,0,0,1,264.7,226.956Z" fill="#0437a0"/>
                <path id="Path_26571" data-name="Path 26571" d="M257.582,256.063v7.655a4.822,4.822,0,1,0,9.645,0v-7.655Zm2.53,8.792a1.013,1.013,0,1,1,1.012-1.012A1.012,1.012,0,0,1,260.112,264.855Zm0-4.585a1.013,1.013,0,1,1,1.012-1.012A1.012,1.012,0,0,1,260.112,260.27Zm2.293,2.292a1.013,1.013,0,1,1,1.012-1.012A1.014,1.014,0,0,1,262.4,262.562Zm2.292,2.293a1.013,1.013,0,1,1,1.012-1.012A1.012,1.012,0,0,1,264.7,264.855Zm0-4.585a1.013,1.013,0,1,1,1.012-1.012A1.012,1.012,0,0,1,264.7,260.27Z" fill="#0437a0"/>
                <path id="Path_26572" data-name="Path 26572" d="M257.582,239.407v7.655a4.822,4.822,0,1,0,9.645,0v-7.655Zm2.53,8.792a1.013,1.013,0,1,1,1.012-1.014A1.013,1.013,0,0,1,260.112,248.2Zm0-4.585a1.013,1.013,0,1,1,1.012-1.014A1.013,1.013,0,0,1,260.112,243.614Zm2.293,2.292a1.013,1.013,0,1,1,1.012-1.013A1.014,1.014,0,0,1,262.4,245.906ZM264.7,248.2a1.013,1.013,0,1,1,1.012-1.014A1.013,1.013,0,0,1,264.7,248.2Zm0-4.585a1.013,1.013,0,1,1,1.012-1.014A1.013,1.013,0,0,1,264.7,243.614Z" fill="#0437a0"/>
                <path id="Path_26573" data-name="Path 26573" d="M244.621,239.407v7.655a4.822,4.822,0,1,0,9.643,0v-7.655Zm2.528,8.792a1.013,1.013,0,1,1,1.014-1.014A1.013,1.013,0,0,1,247.149,248.2Zm0-4.585a1.013,1.013,0,1,1,1.014-1.014A1.013,1.013,0,0,1,247.149,243.614Zm2.294,2.292a1.013,1.013,0,1,1,1.012-1.013A1.012,1.012,0,0,1,249.443,245.906Zm2.293,2.293a1.013,1.013,0,1,1,1.012-1.014A1.013,1.013,0,0,1,251.736,248.2Zm0-4.585a1.013,1.013,0,1,1,1.012-1.014A1.013,1.013,0,0,1,251.736,243.614Z" fill="#0437a0"/>
                <path id="Path_26574" data-name="Path 26574" d="M270.545,239.407v7.655a4.822,4.822,0,1,0,9.644,0v-7.655Zm2.529,8.792a1.013,1.013,0,1,1,1.013-1.014A1.013,1.013,0,0,1,273.074,248.2Zm0-4.585a1.013,1.013,0,1,1,1.013-1.014A1.013,1.013,0,0,1,273.074,243.614Zm2.293,2.292a1.013,1.013,0,1,1,1.013-1.013A1.013,1.013,0,0,1,275.367,245.906Zm2.292,2.293a1.013,1.013,0,1,1,1.013-1.014A1.013,1.013,0,0,1,277.659,248.2Zm0-4.585a1.013,1.013,0,1,1,1.013-1.014A1.013,1.013,0,0,1,277.659,243.614Z" fill="#0437a0"/>
              </g>
              <g id="Group_8070" data-name="Group 8070">
                <g id="Group_8068" data-name="Group 8068">
                  <rect id="Rectangle_1990" data-name="Rectangle 1990" width="2.702" height="4.452" transform="translate(231.817 205.365)" fill="#ffc400"/>
                  <rect id="Rectangle_1991" data-name="Rectangle 1991" width="11.35" height="0.697" transform="translate(227.493 209.817)" fill="#ffc400"/>
                  <rect id="Rectangle_1992" data-name="Rectangle 1992" width="11.988" height="0.697" transform="translate(227.174 215.44)" fill="#ffc400"/>
                  <rect id="Rectangle_1993" data-name="Rectangle 1993" width="10.757" height="0.969" transform="translate(227.79 210.514)" fill="#ffc400"/>
                  <path id="Path_26575" data-name="Path 26575" d="M238.547,215.44H227.79l.64-3.957h9.479Z" fill="#ffc400"/>
                  <path id="Path_26576" data-name="Path 26576" d="M236.009,215.44h-5.68v-.029a4.368,4.368,0,0,1,2.275-3.744l.373-.184h.381l.371.184a4.375,4.375,0,0,1,2.278,3.744Z" fill="#ffc400"/>
                  <path id="Path_26577" data-name="Path 26577" d="M234.73,215.44h-3.122a3.176,3.176,0,0,1,1.56-2.627A3.177,3.177,0,0,1,234.73,215.44Z" fill="#ffc400"/>
                  <path id="Path_26578" data-name="Path 26578" d="M234.444,203.836v.623H233.5v-.623h-.654v.623h-.949v-.623h-.733v1.53h4.019v-1.53Z" fill="#ffc400"/>
                  <rect id="Rectangle_1994" data-name="Rectangle 1994" width="0.59" height="1.434" transform="translate(232.873 206.558)" fill="#ffc400"/>
                  <rect id="Rectangle_1995" data-name="Rectangle 1995" width="2.7" height="2.341" transform="translate(235.178 207.476)" fill="#ffc400"/>
                  <path id="Path_26579" data-name="Path 26579" d="M237.8,205.946v.622h-.949v-.622H236.2v.622h-.949v-.622h-.733v1.53h4.019v-1.53Z" fill="#ffc400"/>
                  <rect id="Rectangle_1996" data-name="Rectangle 1996" width="0.591" height="0.764" transform="translate(236.232 208.265)" fill="#ffc400"/>
                  <rect id="Rectangle_1997" data-name="Rectangle 1997" width="2.7" height="2.341" transform="translate(228.458 207.476)" fill="#ffc400"/>
                  <path id="Path_26580" data-name="Path 26580" d="M228.532,205.946v.622h.951v-.622h.654v.622h.949v-.622h.733v1.53H227.8v-1.53Z" fill="#ffc400"/>
                  <rect id="Rectangle_1998" data-name="Rectangle 1998" width="0.591" height="0.764" transform="translate(229.513 208.265)" fill="#ffc400"/>
                </g>
                <g id="Group_8069" data-name="Group 8069">
                  <path id="Path_26581" data-name="Path 26581" d="M234.614,209.914h-2.892V205.27h2.892Zm-2.7-.193h2.508v-4.259h-2.508Z"/>
                  <path id="Path_26582" data-name="Path 26582" d="M238.94,210.609H227.4v-.888H238.94Zm-11.351-.191h11.159v-.5H227.589Z"/>
                  <path id="Path_26583" data-name="Path 26583" d="M239.258,216.232h-12.18v-.887h12.18Zm-11.989-.192h11.8v-.5h-11.8Z"/>
                  <path id="Path_26584" data-name="Path 26584" d="M238.644,211.578h-10.95v-1.16h10.95Zm-10.759-.19h10.567v-.779H227.885Z"/>
                  <path id="Path_26585" data-name="Path 26585" d="M238.66,215.536H227.677l.67-4.148h9.642Zm-10.757-.191h10.532l-.609-3.767H228.51Z"/>
                  <path id="Path_26586" data-name="Path 26586" d="M236.109,215.536h-5.882l.006-.129a4.471,4.471,0,0,1,2.33-3.827l.393-.192h.425l.391.192a4.473,4.473,0,0,1,2.331,3.828Zm-5.681-.191h5.482a4.271,4.271,0,0,0-2.221-3.593l-.352-.174H233l-.353.174A4.258,4.258,0,0,0,230.428,215.345Z"/>
                  <path id="Path_26587" data-name="Path 26587" d="M234.827,215.536h-3.318l0-.1a3.3,3.3,0,0,1,1.615-2.71l.042-.021.043.021a3.3,3.3,0,0,1,1.615,2.71Zm-3.118-.191h2.919a3.051,3.051,0,0,0-1.46-2.424A3.047,3.047,0,0,0,231.709,215.345Z"/>
                  <path id="Path_26588" data-name="Path 26588" d="M235.274,205.462h-4.211V203.74h.924v.622h.759v-.622h.845v.622h.758v-.622h.925Zm-4.02-.192h3.828v-1.338h-.541v.622H233.4v-.622h-.464v.622h-1.141v-.622h-.541Z"/>
                  <rect id="Rectangle_1999" data-name="Rectangle 1999" width="0.59" height="1.434" transform="translate(232.873 206.558)"/>
                  <path id="Path_26589" data-name="Path 26589" d="M237.975,209.914h-2.893v-2.535h2.893Zm-2.7-.193h2.509v-2.15h-2.509Z"/>
                  <path id="Path_26590" data-name="Path 26590" d="M238.633,207.571h-4.211v-1.72h.926v.622h.757v-.622h.846v.622h.758v-.622h.924Zm-4.019-.192h3.829v-1.337H237.9v.621h-1.141v-.621H236.3v.621h-1.141v-.621h-.542Z"/>
                  <rect id="Rectangle_2000" data-name="Rectangle 2000" width="0.591" height="0.764" transform="translate(236.232 208.265)"/>
                  <path id="Path_26591" data-name="Path 26591" d="M231.254,209.914h-2.891v-2.535h2.891Zm-2.7-.193h2.509v-2.15h-2.509Z"/>
                  <path id="Path_26592" data-name="Path 26592" d="M231.914,207.571H227.7v-1.72h.926v.622h.756v-.622h.847v.622h.757v-.622h.925Zm-4.019-.192h3.827v-1.337h-.541v.621H230.04v-.621h-.462v.621h-1.142v-.621H227.9Z"/>
                  <rect id="Rectangle_2001" data-name="Rectangle 2001" width="0.591" height="0.764" transform="translate(229.513 208.265)"/>
                </g>
              </g>
              <g id="Group_8073" data-name="Group 8073">
                <g id="Group_8071" data-name="Group 8071">
                  <rect id="Rectangle_2002" data-name="Rectangle 2002" width="2.702" height="4.452" transform="translate(231.817 235.021)" fill="#ffc400"/>
                  <rect id="Rectangle_2003" data-name="Rectangle 2003" width="11.35" height="0.697" transform="translate(227.493 239.473)" fill="#ffc400"/>
                  <rect id="Rectangle_2004" data-name="Rectangle 2004" width="11.988" height="0.697" transform="translate(227.174 245.096)" fill="#ffc400"/>
                  <rect id="Rectangle_2005" data-name="Rectangle 2005" width="10.757" height="0.97" transform="translate(227.79 240.17)" fill="#ffc400"/>
                  <path id="Path_26593" data-name="Path 26593" d="M238.547,245.1H227.79l.64-3.957h9.479Z" fill="#ffc400"/>
                  <path id="Path_26594" data-name="Path 26594" d="M236.009,245.1h-5.68v-.029a4.37,4.37,0,0,1,2.275-3.745l.373-.183h.381l.371.183a4.376,4.376,0,0,1,2.278,3.745Z" fill="#ffc400"/>
                  <path id="Path_26595" data-name="Path 26595" d="M234.73,245.1h-3.122a3.176,3.176,0,0,1,1.56-2.627A3.177,3.177,0,0,1,234.73,245.1Z" fill="#ffc400"/>
                  <path id="Path_26596" data-name="Path 26596" d="M234.444,233.491v.624H233.5v-.624h-.654v.624h-.949v-.624h-.733v1.53h4.019v-1.53Z" fill="#ffc400"/>
                  <rect id="Rectangle_2006" data-name="Rectangle 2006" width="0.59" height="1.435" transform="translate(232.873 236.214)" fill="#ffc400"/>
                  <rect id="Rectangle_2007" data-name="Rectangle 2007" width="2.7" height="2.341" transform="translate(235.178 237.132)" fill="#ffc400"/>
                  <path id="Path_26597" data-name="Path 26597" d="M237.8,235.6v.622h-.949V235.6H236.2v.622h-.949V235.6h-.733v1.53h4.019V235.6Z" fill="#ffc400"/>
                  <rect id="Rectangle_2008" data-name="Rectangle 2008" width="0.591" height="0.764" transform="translate(236.232 237.921)" fill="#ffc400"/>
                  <rect id="Rectangle_2009" data-name="Rectangle 2009" width="2.7" height="2.341" transform="translate(228.458 237.132)" fill="#ffc400"/>
                  <path id="Path_26598" data-name="Path 26598" d="M228.532,235.6v.622h.951V235.6h.654v.622h.949V235.6h.733v1.53H227.8V235.6Z" fill="#ffc400"/>
                  <rect id="Rectangle_2010" data-name="Rectangle 2010" width="0.591" height="0.764" transform="translate(229.513 237.921)" fill="#ffc400"/>
                </g>
                <g id="Group_8072" data-name="Group 8072">
                  <path id="Path_26599" data-name="Path 26599" d="M234.614,239.57h-2.892v-4.644h2.892Zm-2.7-.192h2.508v-4.26h-2.508Z"/>
                  <path id="Path_26600" data-name="Path 26600" d="M238.94,240.265H227.4v-.887H238.94Zm-11.351-.191h11.159v-.5H227.589Z"/>
                  <path id="Path_26601" data-name="Path 26601" d="M239.258,245.889h-12.18V245h12.18Zm-11.989-.193h11.8v-.5h-11.8Z"/>
                  <path id="Path_26602" data-name="Path 26602" d="M238.644,241.235h-10.95v-1.161h10.95Zm-10.759-.191h10.567v-.779H227.885Z"/>
                  <path id="Path_26603" data-name="Path 26603" d="M238.66,245.192H227.677l.67-4.148h9.642ZM227.9,245h10.532l-.609-3.765H228.51Z"/>
                  <path id="Path_26604" data-name="Path 26604" d="M236.109,245.192h-5.882l.006-.129a4.471,4.471,0,0,1,2.33-3.827l.393-.192h.425l.391.192a4.475,4.475,0,0,1,2.331,3.828ZM230.428,245h5.482a4.273,4.273,0,0,0-2.221-3.593l-.352-.172H233l-.353.172A4.261,4.261,0,0,0,230.428,245Z"/>
                  <path id="Path_26605" data-name="Path 26605" d="M234.827,245.192h-3.318l0-.1a3.3,3.3,0,0,1,1.615-2.71l.042-.021.043.021a3.3,3.3,0,0,1,1.615,2.71ZM231.709,245h2.919a3.053,3.053,0,0,0-1.46-2.424A3.05,3.05,0,0,0,231.709,245Z"/>
                  <path id="Path_26606" data-name="Path 26606" d="M235.274,235.118h-4.211V233.4h.924v.622h.759V233.4h.845v.622h.758V233.4h.925Zm-4.02-.192h3.828v-1.338h-.541v.622H233.4v-.622h-.464v.622h-1.141v-.622h-.541Z"/>
                  <rect id="Rectangle_2011" data-name="Rectangle 2011" width="0.59" height="1.435" transform="translate(232.873 236.214)"/>
                  <path id="Path_26607" data-name="Path 26607" d="M237.975,239.57h-2.893v-2.535h2.893Zm-2.7-.192h2.509v-2.151h-2.509Z"/>
                  <path id="Path_26608" data-name="Path 26608" d="M238.633,237.227h-4.211v-1.722h.926v.624h.757v-.624h.846v.624h.758v-.624h.924Zm-4.019-.192h3.829V235.7H237.9v.621h-1.141V235.7H236.3v.621h-1.141V235.7h-.542Z"/>
                  <rect id="Rectangle_2012" data-name="Rectangle 2012" width="0.591" height="0.764" transform="translate(236.232 237.921)"/>
                  <path id="Path_26609" data-name="Path 26609" d="M231.254,239.57h-2.891v-2.535h2.891Zm-2.7-.192h2.509v-2.151h-2.509Z"/>
                  <path id="Path_26610" data-name="Path 26610" d="M231.914,237.227H227.7v-1.722h.926v.624h.756v-.624h.847v.624h.757v-.624h.925Zm-4.019-.192h3.827V235.7h-.541v.621H230.04V235.7h-.462v.621h-1.142V235.7H227.9Z"/>
                  <rect id="Rectangle_2013" data-name="Rectangle 2013" width="0.591" height="0.764" transform="translate(229.513 237.921)"/>
                </g>
              </g>
              <g id="Group_8076" data-name="Group 8076">
                <g id="Group_8074" data-name="Group 8074">
                  <rect id="Rectangle_2014" data-name="Rectangle 2014" width="2.701" height="4.451" transform="translate(236.115 268.212) rotate(-44.514)" fill="#ffc400"/>
                  <rect id="Rectangle_2015" data-name="Rectangle 2015" width="11.351" height="0.697" transform="translate(236.15 274.418) rotate(-44.508)" fill="#ffc400"/>
                  <rect id="Rectangle_2016" data-name="Rectangle 2016" width="11.987" height="0.697" transform="translate(239.863 278.65) rotate(-44.488)" fill="#ffc400"/>
                  <rect id="Rectangle_2017" data-name="Rectangle 2017" width="10.757" height="0.969" transform="translate(236.847 274.702) rotate(-44.448)" fill="#ffc400"/>
                  <path id="Path_26611" data-name="Path 26611" d="M247.977,270.679l-7.673,7.54-2.318-3.269,6.76-6.646Z" fill="#ffc400"/>
                  <path id="Path_26612" data-name="Path 26612" d="M246.165,272.459l-4.051,3.982-.019-.022a4.375,4.375,0,0,1-1-4.266l.138-.391.271-.267.393-.131a4.38,4.38,0,0,1,4.249,1.074Z" fill="#ffc400"/>
                  <path id="Path_26613" data-name="Path 26613" d="M245.253,273.355l-2.227,2.189a1.777,1.777,0,1,1,2.227-2.189Z" fill="#ffc400"/>
                  <path id="Path_26614" data-name="Path 26614" d="M236.916,265.279l.436.444-.676.666-.437-.444-.466.459.437.443-.678.666-.436-.443-.524.513,1.072,1.091,2.866-2.818-1.072-1.091Z" fill="#ffc400"/>
                  <path id="Path_26615" data-name="Path 26615" d="M239.129,268.931l-.421.415-1.006-1.024.422-.414Z" fill="#ffc400"/>
                  <rect id="Rectangle_2018" data-name="Rectangle 2018" width="2.701" height="2.341" transform="matrix(0.713, -0.701, 0.701, 0.713, 239.99, 267.362)" fill="#ffc400"/>
                  <path id="Path_26616" data-name="Path 26616" d="M240.791,264.428l.436.444-.676.666-.437-.444-.466.459.437.443-.678.666-.436-.443-.523.513,1.072,1.091,2.866-2.818-1.072-1.091Z" fill="#ffc400"/>
                  <rect id="Rectangle_2019" data-name="Rectangle 2019" width="0.59" height="0.763" transform="matrix(0.713, -0.701, 0.701, 0.713, 241.296, 267.184)" fill="#ffc400"/>
                  <rect id="Rectangle_2020" data-name="Rectangle 2020" width="2.701" height="2.342" transform="translate(235.198 272.071) rotate(-44.514)" fill="#ffc400"/>
                  <path id="Path_26617" data-name="Path 26617" d="M234.179,270.929l.436.444.678-.666-.437-.444.466-.458.437.443.676-.666-.436-.443.522-.515,1.072,1.091-2.866,2.818-1.072-1.091Z" fill="#ffc400"/>
                  <rect id="Rectangle_2021" data-name="Rectangle 2021" width="0.59" height="0.764" transform="translate(236.503 271.894) rotate(-44.502)" fill="#ffc400"/>
                </g>
                <g id="Group_8075" data-name="Group 8075">
                  <path id="Path_26618" data-name="Path 26618" d="M241.3,269.494l-2.062,2.027-3.256-3.31,2.063-2.029Zm-2.061,1.757,1.79-1.758-2.987-3.039-1.789,1.758Z"/>
                  <path id="Path_26619" data-name="Path 26619" d="M244.87,266.958l-8.233,8.092-.622-.633,8.231-8.091Zm-8.23,7.821,7.959-7.822-.354-.36-7.959,7.823Z"/>
                  <path id="Path_26620" data-name="Path 26620" d="M249.038,270.745l-8.686,8.538-.623-.632,8.686-8.538Zm-8.684,8.268,8.413-8.269-.354-.361L240,278.653Z"/>
                  <path id="Path_26621" data-name="Path 26621" d="M245.338,267.859l-7.809,7.675-.814-.828,7.809-7.676Zm-7.806,7.4,7.534-7.407-.545-.555-7.535,7.407Z"/>
                  <path id="Path_26622" data-name="Path 26622" d="M248.123,270.668l-7.832,7.7-2.431-3.429,6.878-6.759Zm-7.806,7.4,7.511-7.383-3.073-2.259-6.644,6.531Z"/>
                  <path id="Path_26623" data-name="Path 26623" d="M246.3,272.457l-4.194,4.122-.087-.1A4.471,4.471,0,0,1,241,272.121l.145-.412.3-.3.413-.137a4.474,4.474,0,0,1,4.346,1.1Zm-4.186,3.846,3.909-3.843a4.267,4.267,0,0,0-4.1-1.005l-.372.124-.241.236-.13.369A4.264,4.264,0,0,0,242.118,276.3Z"/>
                  <path id="Path_26624" data-name="Path 26624" d="M245.391,273.355l-2.368,2.326-.066-.072a3.3,3.3,0,0,1-.749-3.064l.016-.045.044-.015a3.3,3.3,0,0,1,3.052.8Zm-2.359,2.049,2.081-2.045a1.651,1.651,0,1,0-2.081,2.045Z"/>
                  <path id="Path_26625" data-name="Path 26625" d="M238.646,265.857l-3,2.952-1.206-1.227.659-.649.437.445.539-.531-.435-.445.6-.592.436.443.541-.531-.437-.443.66-.649Zm-3,2.681,2.729-2.683-.937-.955-.387.38.437.445-.814.8-.437-.443-.329.324.436.443-.814.8-.436-.444-.386.379Z"/>
                  <path id="Path_26626" data-name="Path 26626" d="M239.129,268.931l-.421.415-1.006-1.024.422-.414Z"/>
                  <path id="Path_26627" data-name="Path 26627" d="M243.693,267.139l-2.063,2.028-1.776-1.807,2.063-2.028Zm-2.06,1.757,1.789-1.759-1.508-1.534-1.789,1.759Z"/>
                  <path id="Path_26628" data-name="Path 26628" d="M242.522,265.006l-3,2.953-1.206-1.228.659-.648.437.444.54-.531-.436-.444.6-.593.435.443.542-.531-.438-.443.661-.648Zm-3,2.681,2.729-2.682-.937-.955-.387.38.437.444-.814.8-.437-.443-.329.325.436.442-.814.8-.436-.444-.386.38Z"/>
                  <rect id="Rectangle_2022" data-name="Rectangle 2022" width="0.59" height="0.763" transform="matrix(0.713, -0.701, 0.701, 0.713, 241.296, 267.184)"/>
                  <path id="Path_26629" data-name="Path 26629" d="M238.9,271.85l-2.062,2.027-1.776-1.807,2.063-2.027Zm-2.059,1.756,1.789-1.759-1.507-1.533-1.79,1.759Z"/>
                  <path id="Path_26630" data-name="Path 26630" d="M237.73,269.717l-3,2.953-1.206-1.228.659-.648.437.443.54-.531-.436-.445.6-.592.436.444.541-.531-.437-.444.66-.648Zm-3,2.681,2.729-2.684-.938-.953-.386.38.437.443-.814.8-.437-.444-.329.324.436.445-.814.8-.436-.444-.387.38Z"/>
                  <rect id="Rectangle_2023" data-name="Rectangle 2023" width="0.59" height="0.764" transform="translate(236.503 271.894) rotate(-44.502)"/>
                </g>
              </g>
              <g id="Group_8079" data-name="Group 8079">
                <g id="Group_8077" data-name="Group 8077">
                  <rect id="Rectangle_2024" data-name="Rectangle 2024" width="4.452" height="2.701" transform="matrix(0.701, -0.713, 0.713, 0.701, 283.648, 269.493)" fill="#ffc400"/>
                  <path id="Path_26631" data-name="Path 26631" d="M280.076,266.958l8.095,7.957.487-.5-8.095-7.957Z" fill="#ffc400"/>
                  <rect id="Rectangle_2025" data-name="Rectangle 2025" width="0.696" height="11.987" transform="translate(275.899 270.754) rotate(-45.603)" fill="#ffc400"/>
                  <rect id="Rectangle_2026" data-name="Rectangle 2026" width="0.97" height="10.758" transform="translate(279.608 267.857) rotate(-45.487)" fill="#ffc400"/>
                  <path id="Path_26632" data-name="Path 26632" d="M276.833,270.679l7.672,7.54,2.318-3.269-6.76-6.646Z" fill="#ffc400"/>
                  <path id="Path_26633" data-name="Path 26633" d="M278.645,272.459l4.049,3.982.021-.022a4.375,4.375,0,0,0,1-4.266l-.138-.391-.272-.267-.393-.131a4.381,4.381,0,0,0-4.249,1.074Z" fill="#ffc400"/>
                  <path id="Path_26634" data-name="Path 26634" d="M279.555,273.355l2.228,2.189a1.778,1.778,0,1,0-2.228-2.189Z" fill="#ffc400"/>
                  <path id="Path_26635" data-name="Path 26635" d="M287.894,265.279l-.436.444.676.666.437-.444.466.459-.437.443.678.666.436-.443.523.513-1.072,1.091-2.867-2.818,1.072-1.091Z" fill="#ffc400"/>
                  <rect id="Rectangle_2027" data-name="Rectangle 2027" width="1.434" height="0.591" transform="translate(285.679 268.931) rotate(-45.496)" fill="#ffc400"/>
                  <rect id="Rectangle_2028" data-name="Rectangle 2028" width="2.341" height="2.701" transform="translate(281.252 267.137) rotate(-45.486)" fill="#ffc400"/>
                  <path id="Path_26636" data-name="Path 26636" d="M284.019,264.428l-.437.444.678.666.437-.444.466.459-.437.443.678.666.436-.443.524.513-1.072,1.091-2.867-2.818,1.072-1.091Z" fill="#ffc400"/>
                  <rect id="Rectangle_2029" data-name="Rectangle 2029" width="0.763" height="0.59" transform="translate(282.558 267.315) rotate(-45.498)" fill="#ffc400"/>
                  <rect id="Rectangle_2030" data-name="Rectangle 2030" width="2.342" height="2.701" transform="translate(286.044 271.848) rotate(-45.486)" fill="#ffc400"/>
                  <path id="Path_26637" data-name="Path 26637" d="M290.631,270.929l-.436.444-.678-.666.437-.444-.466-.458-.437.443-.676-.666.436-.443-.522-.515-1.074,1.091,2.867,2.818,1.072-1.091Z" fill="#ffc400"/>
                  <rect id="Rectangle_2031" data-name="Rectangle 2031" width="0.764" height="0.59" transform="translate(287.35 272.026) rotate(-45.498)" fill="#ffc400"/>
                </g>
                <g id="Group_8078" data-name="Group 8078">
                  <path id="Path_26638" data-name="Path 26638" d="M286.767,266.182l2.063,2.029-3.255,3.31-2.062-2.027Zm1.793,2.03-1.79-1.758-2.986,3.039,1.789,1.758Z"/>
                  <path id="Path_26639" data-name="Path 26639" d="M280.563,266.326l8.231,8.091-.623.633-8.231-8.092Zm7.96,8.094-7.958-7.823-.354.36,7.959,7.822Z"/>
                  <path id="Path_26640" data-name="Path 26640" d="M276.395,270.113l8.686,8.538-.624.632-8.686-8.538Zm8.414,8.54-8.413-8.27-.353.361,8.413,8.269Z"/>
                  <path id="Path_26641" data-name="Path 26641" d="M280.286,267.03l7.809,7.676-.814.828-7.809-7.675Zm7.537,7.678-7.534-7.407-.546.555,7.535,7.407Z"/>
                  <path id="Path_26642" data-name="Path 26642" d="M280.072,268.18l6.877,6.759-2.43,3.429-7.832-7.7Zm6.627,6.782-6.645-6.531-3.073,2.259,7.511,7.383Z"/>
                  <path id="Path_26643" data-name="Path 26643" d="M278.6,272.369a4.472,4.472,0,0,1,4.345-1.1l.415.137.3.3.146.412a4.469,4.469,0,0,1-1.023,4.362l-.086.1-4.194-4.122Zm5.028-.185-.13-.369-.241-.236-.373-.124a4.264,4.264,0,0,0-4.1,1.005l3.908,3.843A4.264,4.264,0,0,0,283.627,272.184Z"/>
                  <path id="Path_26644" data-name="Path 26644" d="M279.489,273.286a3.305,3.305,0,0,1,3.053-.8l.044.015.016.045a3.3,3.3,0,0,1-.75,3.064l-.067.072-2.366-2.326Zm2.947-.634a3.047,3.047,0,0,0-2.74.707l2.082,2.045A3.046,3.046,0,0,0,282.436,272.652Z"/>
                  <path id="Path_26645" data-name="Path 26645" d="M287.37,264.63l.659.649-.436.443.54.531.437-.443.6.592-.436.445.54.531.436-.445.66.649-1.207,1.227-3-2.952Zm2.731,2.954-.386-.379-.435.444-.814-.8.435-.443-.329-.324-.436.443-.814-.8.437-.445-.387-.38-.938.955,2.73,2.683Z"/>
                  <rect id="Rectangle_2032" data-name="Rectangle 2032" width="1.434" height="0.591" transform="translate(285.679 268.931) rotate(-45.496)"/>
                  <path id="Path_26646" data-name="Path 26646" d="M282.892,265.332l2.062,2.028-1.774,1.807-2.064-2.028Zm1.793,2.03-1.79-1.759-1.508,1.534,1.79,1.759Z"/>
                  <path id="Path_26647" data-name="Path 26647" d="M283.495,263.78l.659.648-.436.443.54.531.437-.443.6.593-.436.444.54.531.435-.444.66.648-1.207,1.228-3-2.953Zm2.731,2.954-.386-.38-.435.444-.814-.8.435-.442-.33-.325-.435.443-.814-.8.437-.444-.387-.38-.938.955,2.73,2.682Z"/>
                  <rect id="Rectangle_2033" data-name="Rectangle 2033" width="0.763" height="0.59" transform="translate(282.558 267.315) rotate(-45.498)"/>
                  <path id="Path_26648" data-name="Path 26648" d="M287.684,270.043l2.064,2.027-1.776,1.807-2.064-2.027Zm1.793,2.03-1.79-1.759-1.508,1.533,1.79,1.759Z"/>
                  <path id="Path_26649" data-name="Path 26649" d="M288.287,268.49l.659.648-.436.444.54.531.437-.444.6.592-.436.445.54.531.435-.443.66.648-1.2,1.228-3-2.953Zm2.731,2.954-.386-.38-.435.444-.815-.8.436-.445-.33-.324-.435.444-.814-.8.437-.443-.388-.38-.937.953,2.73,2.684Z"/>
                  <rect id="Rectangle_2034" data-name="Rectangle 2034" width="0.764" height="0.59" transform="translate(287.35 272.026) rotate(-45.498)"/>
                </g>
              </g>
              <g id="Group_8082" data-name="Group 8082">
                <g id="Group_8080" data-name="Group 8080">
                  <rect id="Rectangle_2035" data-name="Rectangle 2035" width="2.7" height="4.452" transform="translate(290.29 205.365)" fill="#ffc400"/>
                  <rect id="Rectangle_2036" data-name="Rectangle 2036" width="11.351" height="0.697" transform="translate(285.965 209.817)" fill="#ffc400"/>
                  <rect id="Rectangle_2037" data-name="Rectangle 2037" width="11.989" height="0.697" transform="translate(285.647 215.44)" fill="#ffc400"/>
                  <rect id="Rectangle_2038" data-name="Rectangle 2038" width="10.759" height="0.969" transform="translate(286.261 210.514)" fill="#ffc400"/>
                  <path id="Path_26650" data-name="Path 26650" d="M286.261,215.44H297.02l-.64-3.957H286.9Z" fill="#ffc400"/>
                  <path id="Path_26651" data-name="Path 26651" d="M288.8,215.44h5.681v-.029a4.374,4.374,0,0,0-2.276-3.744l-.373-.184h-.38l-.373.184a4.372,4.372,0,0,0-2.276,3.744Z" fill="#ffc400"/>
                  <path id="Path_26652" data-name="Path 26652" d="M290.079,215.44H293.2a3.181,3.181,0,0,0-1.561-2.627A3.18,3.18,0,0,0,290.079,215.44Z" fill="#ffc400"/>
                  <path id="Path_26653" data-name="Path 26653" d="M290.365,203.836v.623h.949v-.623h.654v.623h.949v-.623h.733v1.53h-4.019v-1.53Z" fill="#ffc400"/>
                  <rect id="Rectangle_2039" data-name="Rectangle 2039" width="0.591" height="1.434" transform="translate(291.345 206.558)" fill="#ffc400"/>
                  <rect id="Rectangle_2040" data-name="Rectangle 2040" width="2.702" height="2.341" transform="translate(286.93 207.476)" fill="#ffc400"/>
                  <path id="Path_26654" data-name="Path 26654" d="M287.005,205.946v.622h.949v-.622h.654v.622h.949v-.622h.733v1.53h-4.019v-1.53Z" fill="#ffc400"/>
                  <rect id="Rectangle_2041" data-name="Rectangle 2041" width="0.59" height="0.764" transform="translate(287.986 208.265)" fill="#ffc400"/>
                  <rect id="Rectangle_2042" data-name="Rectangle 2042" width="2.7" height="2.341" transform="translate(293.651 207.476)" fill="#ffc400"/>
                  <path id="Path_26655" data-name="Path 26655" d="M296.278,205.946v.622h-.951v-.622h-.654v.622h-.949v-.622h-.733v1.53h4.019v-1.53Z" fill="#ffc400"/>
                  <rect id="Rectangle_2043" data-name="Rectangle 2043" width="0.591" height="0.764" transform="translate(294.705 208.265)" fill="#ffc400"/>
                </g>
                <g id="Group_8081" data-name="Group 8081">
                  <path id="Path_26656" data-name="Path 26656" d="M290.2,205.27h2.893v4.644H290.2Zm2.7.192h-2.509v4.259h2.509Z"/>
                  <path id="Path_26657" data-name="Path 26657" d="M285.87,209.721h11.543v.888H285.87Zm11.351.193H286.062v.5h11.159Z"/>
                  <path id="Path_26658" data-name="Path 26658" d="M285.552,215.345h12.179v.887H285.552Zm11.987.191h-11.8v.5h11.8Z"/>
                  <path id="Path_26659" data-name="Path 26659" d="M286.166,210.418h10.949v1.16H286.166Zm10.757.191H286.358v.779h10.565Z"/>
                  <path id="Path_26660" data-name="Path 26660" d="M286.819,211.388h9.643l.671,4.148H286.15Zm9.481.19h-9.317l-.609,3.767h10.533Z"/>
                  <path id="Path_26661" data-name="Path 26661" d="M288.706,215.408a4.478,4.478,0,0,1,2.331-3.828l.392-.192h.425l.393.192a4.468,4.468,0,0,1,2.328,3.827l.006.129H288.7Zm3.456-3.656-.353-.174h-.336l-.352.174a4.268,4.268,0,0,0-2.221,3.593h5.481A4.262,4.262,0,0,0,292.162,211.752Z"/>
                  <path id="Path_26662" data-name="Path 26662" d="M289.984,215.437a3.3,3.3,0,0,1,1.615-2.71l.042-.021.041.021a3.3,3.3,0,0,1,1.615,2.71l0,.1h-3.319Zm1.657-2.516a3.046,3.046,0,0,0-1.459,2.424H293.1A3.043,3.043,0,0,0,291.641,212.921Z"/>
                  <path id="Path_26663" data-name="Path 26663" d="M289.535,203.74h.926v.622h.756v-.622h.847v.622h.758v-.622h.924v1.722h-4.211Zm4.02.192h-.542v.622h-1.141v-.622h-.462v.622h-1.142v-.622h-.541v1.338h3.828Z"/>
                  <rect id="Rectangle_2044" data-name="Rectangle 2044" width="0.591" height="1.434" transform="translate(291.345 206.558)"/>
                  <path id="Path_26664" data-name="Path 26664" d="M286.835,207.379h2.892v2.535h-2.892Zm2.7.192h-2.508v2.15h2.508Z"/>
                  <path id="Path_26665" data-name="Path 26665" d="M286.176,205.851h.924v.622h.759v-.622h.844v.622h.759v-.622h.924v1.72h-4.21Zm4.019.191h-.541v.621h-1.141v-.621h-.464v.621h-1.141v-.621h-.541v1.337H290.2Z"/>
                  <rect id="Rectangle_2045" data-name="Rectangle 2045" width="0.59" height="0.764" transform="translate(287.986 208.265)"/>
                  <path id="Path_26666" data-name="Path 26666" d="M293.554,207.379h2.892v2.535h-2.892Zm2.7.192h-2.51v2.15h2.51Z"/>
                  <path id="Path_26667" data-name="Path 26667" d="M292.895,205.851h.924v.622h.759v-.622h.846v.622h.757v-.622h.925v1.72h-4.211Zm4.019.191h-.541v.621h-1.141v-.621h-.462v.621h-1.141v-.621h-.543v1.337h3.828Z"/>
                  <rect id="Rectangle_2046" data-name="Rectangle 2046" width="0.591" height="0.764" transform="translate(294.705 208.265)"/>
                </g>
              </g>
              <g id="Group_8085" data-name="Group 8085">
                <g id="Group_8083" data-name="Group 8083">
                  <rect id="Rectangle_2047" data-name="Rectangle 2047" width="2.7" height="4.452" transform="translate(290.29 235.021)" fill="#ffc400"/>
                  <rect id="Rectangle_2048" data-name="Rectangle 2048" width="11.351" height="0.697" transform="translate(285.965 239.473)" fill="#ffc400"/>
                  <rect id="Rectangle_2049" data-name="Rectangle 2049" width="11.989" height="0.697" transform="translate(285.647 245.096)" fill="#ffc400"/>
                  <rect id="Rectangle_2050" data-name="Rectangle 2050" width="10.759" height="0.97" transform="translate(286.261 240.17)" fill="#ffc400"/>
                  <path id="Path_26668" data-name="Path 26668" d="M286.261,245.1H297.02l-.64-3.957H286.9Z" fill="#ffc400"/>
                  <path id="Path_26669" data-name="Path 26669" d="M288.8,245.1h5.681v-.029a4.376,4.376,0,0,0-2.276-3.745l-.373-.183h-.38l-.373.183a4.373,4.373,0,0,0-2.276,3.745Z" fill="#ffc400"/>
                  <path id="Path_26670" data-name="Path 26670" d="M290.079,245.1H293.2a3.181,3.181,0,0,0-1.561-2.627A3.18,3.18,0,0,0,290.079,245.1Z" fill="#ffc400"/>
                  <path id="Path_26671" data-name="Path 26671" d="M290.365,233.491v.624h.949v-.624h.654v.624h.949v-.624h.733v1.53h-4.019v-1.53Z" fill="#ffc400"/>
                  <rect id="Rectangle_2051" data-name="Rectangle 2051" width="0.591" height="1.435" transform="translate(291.345 236.214)" fill="#ffc400"/>
                  <rect id="Rectangle_2052" data-name="Rectangle 2052" width="2.702" height="2.341" transform="translate(286.93 237.132)" fill="#ffc400"/>
                  <path id="Path_26672" data-name="Path 26672" d="M287.005,235.6v.622h.949V235.6h.654v.622h.949V235.6h.733v1.53h-4.019V235.6Z" fill="#ffc400"/>
                  <rect id="Rectangle_2053" data-name="Rectangle 2053" width="0.59" height="0.764" transform="translate(287.986 237.921)" fill="#ffc400"/>
                  <rect id="Rectangle_2054" data-name="Rectangle 2054" width="2.7" height="2.341" transform="translate(293.651 237.132)" fill="#ffc400"/>
                  <path id="Path_26673" data-name="Path 26673" d="M296.278,235.6v.622h-.951V235.6h-.654v.622h-.949V235.6h-.733v1.53h4.019V235.6Z" fill="#ffc400"/>
                  <rect id="Rectangle_2055" data-name="Rectangle 2055" width="0.591" height="0.764" transform="translate(294.705 237.921)" fill="#ffc400"/>
                </g>
                <g id="Group_8084" data-name="Group 8084">
                  <path id="Path_26674" data-name="Path 26674" d="M290.2,234.926h2.893v4.644H290.2Zm2.7.192h-2.509v4.26h2.509Z"/>
                  <path id="Path_26675" data-name="Path 26675" d="M285.87,239.378h11.543v.887H285.87Zm11.351.192H286.062v.5h11.159Z"/>
                  <path id="Path_26676" data-name="Path 26676" d="M285.552,245h12.179v.889H285.552Zm11.987.192h-11.8v.5h11.8Z"/>
                  <path id="Path_26677" data-name="Path 26677" d="M286.166,240.074h10.949v1.161H286.166Zm10.757.191H286.358v.779h10.565Z"/>
                  <path id="Path_26678" data-name="Path 26678" d="M286.819,241.044h9.643l.671,4.148H286.15Zm9.481.191h-9.317L286.374,245h10.533Z"/>
                  <path id="Path_26679" data-name="Path 26679" d="M288.706,245.064a4.479,4.479,0,0,1,2.331-3.828l.392-.192h.425l.393.192a4.468,4.468,0,0,1,2.328,3.827l.006.129H288.7Zm3.456-3.657-.353-.172h-.336l-.352.172A4.271,4.271,0,0,0,288.9,245h5.481A4.264,4.264,0,0,0,292.162,241.407Z"/>
                  <path id="Path_26680" data-name="Path 26680" d="M289.984,245.093a3.3,3.3,0,0,1,1.615-2.71l.042-.021.041.021a3.3,3.3,0,0,1,1.615,2.71l0,.1h-3.319Zm1.657-2.517A3.049,3.049,0,0,0,290.182,245H293.1A3.045,3.045,0,0,0,291.641,242.576Z"/>
                  <path id="Path_26681" data-name="Path 26681" d="M289.535,233.4h.926v.622h.756V233.4h.847v.622h.758V233.4h.924v1.722h-4.211Zm4.02.192h-.542v.622h-1.141v-.622h-.462v.622h-1.142v-.622h-.541v1.338h3.828Z"/>
                  <rect id="Rectangle_2056" data-name="Rectangle 2056" width="0.591" height="1.435" transform="translate(291.345 236.214)"/>
                  <path id="Path_26682" data-name="Path 26682" d="M286.835,237.035h2.892v2.535h-2.892Zm2.7.192h-2.508v2.151h2.508Z"/>
                  <path id="Path_26683" data-name="Path 26683" d="M286.176,235.505h.924v.624h.759v-.624h.844v.624h.759v-.624h.924v1.722h-4.21Zm4.019.193h-.541v.621h-1.141V235.7h-.464v.621h-1.141V235.7h-.541v1.337H290.2Z"/>
                  <rect id="Rectangle_2057" data-name="Rectangle 2057" width="0.59" height="0.764" transform="translate(287.986 237.921)"/>
                  <path id="Path_26684" data-name="Path 26684" d="M293.554,237.035h2.892v2.535h-2.892Zm2.7.192h-2.51v2.151h2.51Z"/>
                  <path id="Path_26685" data-name="Path 26685" d="M292.895,235.505h.924v.624h.759v-.624h.846v.624h.757v-.624h.925v1.722h-4.211Zm4.019.193h-.541v.621h-1.141V235.7h-.462v.621h-1.141V235.7h-.543v1.337h3.828Z"/>
                  <rect id="Rectangle_2058" data-name="Rectangle 2058" width="0.591" height="0.764" transform="translate(294.705 237.921)"/>
                </g>
              </g>
              <g id="Group_8088" data-name="Group 8088">
                <g id="Group_8086" data-name="Group 8086">
                  <rect id="Rectangle_2059" data-name="Rectangle 2059" width="2.7" height="4.452" transform="translate(261.054 205.365)" fill="#ffc400"/>
                  <rect id="Rectangle_2060" data-name="Rectangle 2060" width="11.351" height="0.697" transform="translate(256.729 209.817)" fill="#ffc400"/>
                  <rect id="Rectangle_2061" data-name="Rectangle 2061" width="11.989" height="0.697" transform="translate(256.41 215.44)" fill="#ffc400"/>
                  <rect id="Rectangle_2062" data-name="Rectangle 2062" width="10.759" height="0.969" transform="translate(257.025 210.514)" fill="#ffc400"/>
                  <path id="Path_26686" data-name="Path 26686" d="M257.025,215.44h10.759l-.639-3.957h-9.48Z" fill="#ffc400"/>
                  <path id="Path_26687" data-name="Path 26687" d="M259.564,215.44h5.68v-.029a4.373,4.373,0,0,0-2.275-3.744l-.374-.184h-.38l-.372.184a4.375,4.375,0,0,0-2.277,3.744Z" fill="#ffc400"/>
                  <path id="Path_26688" data-name="Path 26688" d="M260.843,215.44h3.122a3.177,3.177,0,0,0-1.562-2.627A3.178,3.178,0,0,0,260.843,215.44Z" fill="#ffc400"/>
                  <path id="Path_26689" data-name="Path 26689" d="M261.127,203.836v.623h.951v-.623h.654v.623h.949v-.623h.733v1.53h-4.02v-1.53Z" fill="#ffc400"/>
                  <rect id="Rectangle_2063" data-name="Rectangle 2063" width="0.591" height="1.434" transform="translate(262.109 206.558)" fill="#ffc400"/>
                  <rect id="Rectangle_2064" data-name="Rectangle 2064" width="2.7" height="2.341" transform="translate(257.694 207.476)" fill="#ffc400"/>
                  <path id="Path_26690" data-name="Path 26690" d="M257.768,205.946v.622h.949v-.622h.654v.622h.949v-.622h.733v1.53h-4.019v-1.53Z" fill="#ffc400"/>
                  <rect id="Rectangle_2065" data-name="Rectangle 2065" width="0.591" height="0.764" transform="translate(258.748 208.265)" fill="#ffc400"/>
                  <rect id="Rectangle_2066" data-name="Rectangle 2066" width="2.702" height="2.341" transform="translate(264.413 207.476)" fill="#ffc400"/>
                  <path id="Path_26691" data-name="Path 26691" d="M267.04,205.946v.622h-.949v-.622h-.654v.622h-.949v-.622h-.733v1.53h4.019v-1.53Z" fill="#ffc400"/>
                  <rect id="Rectangle_2067" data-name="Rectangle 2067" width="0.59" height="0.764" transform="translate(265.469 208.265)" fill="#ffc400"/>
                </g>
                <g id="Group_8087" data-name="Group 8087">
                  <path id="Path_26692" data-name="Path 26692" d="M260.958,205.27h2.893v4.644h-2.893Zm2.7.192h-2.51v4.259h2.51Z"/>
                  <path id="Path_26693" data-name="Path 26693" d="M256.633,209.721h11.542v.888H256.633Zm11.351.193h-11.16v.5h11.16Z"/>
                  <path id="Path_26694" data-name="Path 26694" d="M256.315,215.345h12.18v.887h-12.18Zm11.988.191h-11.8v.5h11.8Z"/>
                  <path id="Path_26695" data-name="Path 26695" d="M256.929,210.418h10.95v1.16h-10.95Zm10.758.191H257.122v.779h10.565Z"/>
                  <path id="Path_26696" data-name="Path 26696" d="M257.582,211.388h9.644l.669,4.148H256.913Zm9.48.19h-9.317l-.607,3.767h10.533Z"/>
                  <path id="Path_26697" data-name="Path 26697" d="M259.47,215.408a4.473,4.473,0,0,1,2.329-3.828l.392-.192h.425l.393.192a4.465,4.465,0,0,1,2.329,3.827l.006.129h-5.88Zm3.455-3.656-.353-.174h-.336l-.352.174a4.267,4.267,0,0,0-2.22,3.593h5.481A4.263,4.263,0,0,0,262.925,211.752Z"/>
                  <path id="Path_26698" data-name="Path 26698" d="M260.747,215.437a3.3,3.3,0,0,1,1.615-2.71l.041-.021.043.021a3.3,3.3,0,0,1,1.615,2.71l0,.1h-3.32Zm1.656-2.516a3.047,3.047,0,0,0-1.458,2.424h2.918A3.044,3.044,0,0,0,262.4,212.921Z"/>
                  <path id="Path_26699" data-name="Path 26699" d="M260.3,203.74h.926v.622h.757v-.622h.846v.622h.758v-.622h.925v1.722H260.3Zm4.019.192h-.541v.622h-1.141v-.622h-.462v.622h-1.141v-.622h-.541v1.338h3.826Z"/>
                  <rect id="Rectangle_2068" data-name="Rectangle 2068" width="0.591" height="1.434" transform="translate(262.109 206.558)"/>
                  <path id="Path_26700" data-name="Path 26700" d="M257.6,207.379h2.893v2.535H257.6Zm2.7.192H257.79v2.15H260.3Z"/>
                  <path id="Path_26701" data-name="Path 26701" d="M256.938,205.851h.926v.622h.758v-.622h.845v.622h.758v-.622h.924v1.72h-4.211Zm4.02.191h-.542v.621h-1.141v-.621h-.462v.621h-1.141v-.621h-.542v1.337h3.828Z"/>
                  <rect id="Rectangle_2069" data-name="Rectangle 2069" width="0.591" height="0.764" transform="translate(258.748 208.265)"/>
                  <path id="Path_26702" data-name="Path 26702" d="M264.317,207.379h2.893v2.535h-2.893Zm2.7.192H264.51v2.15h2.508Z"/>
                  <path id="Path_26703" data-name="Path 26703" d="M263.659,205.851h.924v.622h.758v-.622h.845v.622h.758v-.622h.926v1.72h-4.211Zm4.019.191h-.542v.621h-1.141v-.621h-.463v.621h-1.141v-.621h-.542v1.337h3.829Z"/>
                  <rect id="Rectangle_2070" data-name="Rectangle 2070" width="0.59" height="0.764" transform="translate(265.469 208.265)"/>
                </g>
              </g>
            </g>
          </g>
        </g>
      </g>
    </g>
  </g>
</svg>
