<svg xmlns="http://www.w3.org/2000/svg" xmlns:xlink="http://www.w3.org/1999/xlink" width="291.65" height="332.632" viewBox="0 0 291.65 332.632">
  <defs>
    <clipPath id="clip-path">
      <path id="Path_23874" data-name="Path 23874" d="M302.863,507.142,435,356.427,567.136,507.142,435,657.858Z" fill="none"/>
    </clipPath>
  </defs>
  <g id="Group_4464" data-name="Group 4464" transform="translate(-289.192 -340.684)">
    <path id="Path_7082" data-name="Path 7082" d="M289.192,507,435.017,340.684,580.843,507,435.017,673.316Z" fill="#fff"/>
    <g id="Group_4463" data-name="Group 4463">
      <g id="Group_15194" data-name="Group 15194">
        <g id="Group_15193" data-name="Group 15193" clip-path="url(#clip-path)">
          <g id="effectFlag">
            <rect id="Rectangle_837" data-name="Rectangle 837" width="233.868" height="302" transform="translate(186.14 356.142)" fill="#008c1c"/>
            <rect id="Rectangle_838" data-name="Rectangle 838" width="592.492" height="302" transform="translate(420.008 356.142)" fill="#e60000"/>
            <g id="Group_15192" data-name="Group 15192">
              <path id="Path_23686" data-name="Path 23686" d="M481.757,505.773q0-.39,0-.782,0-1.314-.054-2.612a4.738,4.738,0,0,1,1.611,1.628l-.121-1.887a4.708,4.708,0,0,0-1.6-1.618,61.312,61.312,0,0,0-6.826-24.051,6.71,6.71,0,0,1,1.261.9l.268-1.394a9.6,9.6,0,0,0-2.679-1.611q-1-1.752-2.119-3.429a8.606,8.606,0,0,1,2.139,1.363l.267-1.393a12.069,12.069,0,0,0-3.881-2.094,61.6,61.6,0,0,0-46.074-25.361v-1.323h-1.489v1.247q-1.184-.043-2.379-.044t-2.379.044v-1.247h-1.49v1.323a61.6,61.6,0,0,0-46.357,25.757,3.143,3.143,0,0,0-1.546.22,6.984,6.984,0,0,1-.294,1.311,2.21,2.21,0,0,1,.915-.2,61.687,61.687,0,0,0-4.537,7.934,2.393,2.393,0,0,0-1.017.209,6.908,6.908,0,0,1-.294,1.312,1.857,1.857,0,0,1,.689-.18,61.376,61.376,0,0,0-5.243,21.294,2.726,2.726,0,0,0-.776,1.071v1.764a2.593,2.593,0,0,1,.689-.982q-.033,1.018-.034,2.047c0,.527.008,1.053.021,1.575a2.555,2.555,0,0,0-.676.967V509.3a2.665,2.665,0,0,1,.741-1.034,61.311,61.311,0,0,0,6.767,25.007,2.148,2.148,0,0,0-.455.824l.713,1.246a2.1,2.1,0,0,1,.427-.784q.961,1.758,2.035,3.448a2.157,2.157,0,0,0-.476.847l.715,1.246a2.269,2.269,0,0,1,.528-.913,61.633,61.633,0,0,0,47.465,27.36v1.323h1.49v-1.249q1.185.047,2.379.045t2.379-.045v1.249h1.489v-1.323A61.591,61.591,0,0,0,469.2,542.3a5.638,5.638,0,0,1,.586,1.234,6.891,6.891,0,0,1,1.027-.866,6.992,6.992,0,0,0-.743-1.539,61.72,61.72,0,0,0,4.883-7.939c.788,1.225.756,1.692.756,1.692a6.856,6.856,0,0,1,1.026-.867s.154-.639-1.006-2.389a61.335,61.335,0,0,0,5.982-24.088,4.487,4.487,0,0,1,1.463,1.525l-.121-1.888A4.24,4.24,0,0,0,481.757,505.773Z" fill="#ffc400"/>
              <g id="Group_15168" data-name="Group 15168">
                <path id="Path_23687" data-name="Path 23687" d="M420.088,566.758c-.794,0-1.6-.015-2.382-.046l-.088,0V443.273l.088-.005c1.573-.059,3.194-.059,4.764,0l.09.005V566.709l-.09,0C421.684,566.743,420.882,566.758,420.088,566.758Zm-2.284-.228c1.51.055,3.06.055,4.569,0V443.451c-1.507-.054-3.06-.054-4.569,0Z"/>
                <path id="Path_23688" data-name="Path 23688" d="M365.251,533.444l-.067-.13a61.106,61.106,0,0,1-6.777-25.045l0-.042.03-.029a9.515,9.515,0,0,1,1.454-1.159,22.847,22.847,0,0,1,3.829-1.971c.5-.207,1-.4,1.5-.585l.127-.048,0,.136c0,.141,0,.28,0,.42a54.418,54.418,0,0,0,4.3,21.311c.458,1.084.961,2.173,1.5,3.238l.044.088-.092.039c-.49.206-.946.41-1.357.607a17.025,17.025,0,0,0-3.289,1.978,6.651,6.651,0,0,0-1.1,1.076ZM358.6,508.3a60.9,60.9,0,0,0,6.688,24.8,7.222,7.222,0,0,1,1.037-.995,17.307,17.307,0,0,1,3.327-2c.386-.184.815-.376,1.272-.571-.519-1.04-1.008-2.1-1.455-3.16a54.6,54.6,0,0,1-4.315-21.383V504.7c-.45.167-.906.347-1.36.535a22.682,22.682,0,0,0-3.8,1.955A9.328,9.328,0,0,0,358.6,508.3Z"/>
                <path id="Path_23689" data-name="Path 23689" d="M358.427,501.329l.017-.242a61.263,61.263,0,0,1,5.25-21.329l.021-.047.053-.008a7.8,7.8,0,0,1,1.655,0,22.558,22.558,0,0,1,3.9.779c.446.124.933.27,1.449.433l.1.032-.047.1c-.412.844-.814,1.73-1.2,2.631a54.306,54.306,0,0,0-3.759,13.569l-.008.056-.053.02c-.551.194-1.084.395-1.581.6a24.4,24.4,0,0,0-4.067,2.021,9.854,9.854,0,0,0-1.566,1.216Zm5.415-21.447a61.079,61.079,0,0,0-5.2,20.979,10.421,10.421,0,0,1,1.424-1.075,24.524,24.524,0,0,1,4.1-2.038c.484-.195,1-.389,1.534-.58a54.517,54.517,0,0,1,3.766-13.561c.367-.869.756-1.724,1.153-2.542-.477-.151-.927-.284-1.341-.4a22.487,22.487,0,0,0-3.872-.775A7.95,7.95,0,0,0,363.842,479.882Z"/>
                <path id="Path_23690" data-name="Path 23690" d="M416.314,559.8l-.1-.007a54.714,54.714,0,0,1-34.971-15.957,55.335,55.335,0,0,1-6.784-8.229l-.062-.094.105-.045a75.113,75.113,0,0,1,14.37-3.951l-.616-1.076a74.542,74.542,0,0,0-14.474,3.985c-.463.194-.925.4-1.371.613a16.986,16.986,0,0,0-3.279,1.975,6.77,6.77,0,0,0-1.071,1.047l-.081.1-.071-.109c-.713-1.121-1.4-2.283-2.039-3.452l-.029-.053.037-.049a6.583,6.583,0,0,1,1.113-1.11,16.923,16.923,0,0,1,3.315-2.012c.44-.211.9-.417,1.367-.614a74.358,74.358,0,0,1,14.5-4l-.616-1.077a74.792,74.792,0,0,0-14.472,3.983l-.079.034-.04-.077c-.536-1.069-1.041-2.163-1.5-3.25a54.6,54.6,0,0,1-4.315-21.383c0-.142,0-.282,0-.422v-.064l.061-.022a97.577,97.577,0,0,1,17.74-4.245v-1.576a98.212,98.212,0,0,0-17.578,4.192l-.058.022c-.54.2-1.046.4-1.506.59a22.588,22.588,0,0,0-3.853,1.987,8.88,8.88,0,0,0-1.458,1.18l-.155.159-.006-.223c-.011-.506-.019-1.038-.019-1.578,0-.684.012-1.372.034-2.048l0-.037.025-.027a9.348,9.348,0,0,1,1.559-1.246,23.723,23.723,0,0,1,4.022-2.039c.49-.2,1.014-.4,1.561-.6a99.7,99.7,0,0,1,17.43-4.128v-1.577a100.573,100.573,0,0,0-17.138,4.036l-.146.051.022-.152a54.509,54.509,0,0,1,3.773-13.617c.382-.9.787-1.792,1.2-2.64l.035-.072.076.024a94.348,94.348,0,0,1,12.465,5.237l.252-1.124a95.625,95.625,0,0,0-12.166-5.145c-.507-.164-.993-.314-1.444-.443a24.585,24.585,0,0,0-3.87-.832,9.426,9.426,0,0,0-1.607-.063l-.158.009.068-.142a61.688,61.688,0,0,1,4.545-7.945l.025-.037.044-.005a9.172,9.172,0,0,1,1.776.062,25.44,25.44,0,0,1,4.111.9c.512.151,1.006.306,1.511.475a97.537,97.537,0,0,1,11.846,5.034l.252-1.124a101.455,101.455,0,0,0-11.291-4.852l-.124-.042.081-.1c.907-1.135,1.865-2.244,2.85-3.294v-.056h.083c1.1-.263,2.268-.5,3.462-.709l-.239-1.045c-.555.1-1.1.212-1.615.319l-.309.063.225-.221a54.711,54.711,0,0,1,34.664-15.652l.1-.007Zm-41.637-24.2a55.184,55.184,0,0,0,6.7,8.108,54.523,54.523,0,0,0,34.753,15.9V450.379a54.532,54.532,0,0,0-34.22,15.371c.45-.091.918-.181,1.4-.271l.087-.017.323,1.412-.1.016c-1.218.211-2.407.452-3.531.719-.953,1.016-1.884,2.088-2.764,3.187a102.436,102.436,0,0,1,11.253,4.85l.065.031-.335,1.5-.107-.052a97.56,97.56,0,0,0-11.929-5.078c-.5-.168-.995-.322-1.5-.472a25.331,25.331,0,0,0-4.078-.9,9.085,9.085,0,0,0-1.7-.064,61.325,61.325,0,0,0-4.44,7.743,9.855,9.855,0,0,1,1.482.073,24.4,24.4,0,0,1,3.9.837c.454.13.943.279,1.451.446a96.134,96.134,0,0,1,12.257,5.187l.066.033-.336,1.5-.107-.052a94.763,94.763,0,0,0-12.468-5.255c-.4.823-.79,1.683-1.16,2.559A54.275,54.275,0,0,0,365.9,497.1a101.907,101.907,0,0,1,17.133-4.009l.108-.017v1.953l-.078.014a99.76,99.76,0,0,0-17.475,4.131c-.543.2-1.066.4-1.553.6a23.548,23.548,0,0,0-3.991,2.021,9.178,9.178,0,0,0-1.5,1.2c-.023.666-.033,1.339-.033,2.007,0,.462.005.918.015,1.357a9.58,9.58,0,0,1,1.333-1.05,22.918,22.918,0,0,1,3.887-2c.444-.186.931-.376,1.451-.57h0l.061-.023a98.422,98.422,0,0,1,17.778-4.24l.108-.017V500.4l-.078.012a98.127,98.127,0,0,0-17.724,4.226c0,.118,0,.238,0,.356a54.418,54.418,0,0,0,4.3,21.311c.447,1.057.937,2.12,1.457,3.16a75.323,75.323,0,0,1,14.494-3.972l.065-.012.812,1.417-.128.024a74.438,74.438,0,0,0-14.592,4.019c-.465.2-.921.4-1.359.61a16.866,16.866,0,0,0-3.278,1.987,6.654,6.654,0,0,0-1.046,1.031c.61,1.11,1.261,2.213,1.936,3.279a7.146,7.146,0,0,1,1.017-.974,17.05,17.05,0,0,1,3.315-2c.45-.216.914-.422,1.379-.617a74.927,74.927,0,0,1,14.578-4.011l.065-.011.812,1.419-.128.023A75.779,75.779,0,0,0,374.677,535.6Z"/>
                <path id="Path_23691" data-name="Path 23691" d="M377.2,470.951l-.062-.023c-.505-.174-1.011-.339-1.506-.493l-.128-.04.082-.106c.553-.706,1.134-1.413,1.728-2.1v-.036l.068-.02c.862-.253,1.748-.487,2.635-.7l.3-.071-.213.226c-.989,1.053-1.953,2.166-2.864,3.309Zm-1.383-.653c.434.136.878.282,1.32.433.837-1.046,1.717-2.069,2.622-3.042-.774.187-1.544.393-2.3.613C376.893,468.956,376.341,469.626,375.814,470.3Z"/>
                <path id="Path_23692" data-name="Path 23692" d="M371.632,469.456l-.068-.01a12.553,12.553,0,0,0-1.7-.16l-.177,0,.1-.145a62.4,62.4,0,0,1,19.97-17.967,61,61,0,0,1,26.458-7.827l.1-.006v7.029l-.087,0a54.523,54.523,0,0,0-34.547,15.6l-.019.019-.028.006c-.92.19-1.793.387-2.593.584h0l-.071.018c-5.8,1.434-7.2,2.7-7.313,2.809Zm-1.592-.351a13.017,13.017,0,0,1,1.506.149c.255-.235,1.768-1.442,7.308-2.819v-.019h.081c.812-.2,1.7-.4,2.634-.6a54.713,54.713,0,0,1,34.557-15.626v-6.656a60.826,60.826,0,0,0-26.278,7.8A62.2,62.2,0,0,0,370.04,469.105Z"/>
                <path id="Path_23693" data-name="Path 23693" d="M416.314,566.642l-.1-.006a61.721,61.721,0,0,1-47.539-27.4l-.038-.058.044-.053a7.232,7.232,0,0,1,1.1-1.054,17.521,17.521,0,0,1,3.328-1.985c.438-.208.9-.415,1.386-.616l.069-.027.043.061a55.158,55.158,0,0,0,6.76,8.2,54.522,54.522,0,0,0,34.854,15.9l.087.006Zm-47.443-27.453a61.519,61.519,0,0,0,47.255,27.255v-6.656a54.715,54.715,0,0,1-34.884-15.951,55.311,55.311,0,0,1-6.741-8.165c-.453.189-.893.385-1.307.582a17.26,17.26,0,0,0-3.292,1.962A7.256,7.256,0,0,0,368.871,539.189Z"/>
                <path id="Path_23694" data-name="Path 23694" d="M470.286,468.993l-.29-.108c-.735-.276-1.565-.549-2.465-.814-1.84-.54-3.981-1.049-6.36-1.516-.84-.164-1.689-.319-2.523-.459l-.03-.006-.021-.019a54.522,54.522,0,0,0-34.647-15.7l-.087,0v-7.029l.1.006a61.032,61.032,0,0,1,26.243,7.706,62.463,62.463,0,0,1,19.9,17.691Zm-11.579-3.076c.827.139,1.668.292,2.5.456,2.385.467,4.53.978,6.378,1.52.788.232,1.522.471,2.19.711a62.263,62.263,0,0,0-19.659-17.389,60.85,60.85,0,0,0-26.066-7.678v6.656a54.712,54.712,0,0,1,34.658,15.724Z"/>
                <path id="Path_23695" data-name="Path 23695" d="M481.708,500.688l-.161-.111a15.1,15.1,0,0,0-1.557-.924,36.229,36.229,0,0,0-4.049-1.748c-.5-.185-1.028-.374-1.577-.561l-.053-.019-.009-.056a54.3,54.3,0,0,0-3.761-13.589,54.865,54.865,0,0,0-5.8-10.391l-.14-.193.234.049c.726.152,1.448.317,2.147.487a44.95,44.95,0,0,1,5.559,1.676l.06.025a16.743,16.743,0,0,1,2.218,1.036l.024.014.012.023a61.139,61.139,0,0,1,6.838,24.089Zm-7.229-3.5c.532.181,1.044.365,1.527.545a35.86,35.86,0,0,1,4.069,1.758,15.826,15.826,0,0,1,1.419.827,60.928,60.928,0,0,0-6.79-23.8,16.821,16.821,0,0,0-2.228-1.033l-.061-.026a44.86,44.86,0,0,0-5.475-1.644c-.623-.152-1.264-.3-1.909-.438a54.683,54.683,0,0,1,9.448,23.81Z"/>
                <path id="Path_23696" data-name="Path 23696" d="M423.863,566.642v-7.028l.087-.006a54.533,54.533,0,0,0,34.854-15.9,55.285,55.285,0,0,0,5.864-6.912l.063-.09.078.08c.4.4.745.76,1.052,1.092a32.473,32.473,0,0,1,2.55,3.052c.338.471.63.917.868,1.326l.031.053-.037.049a61.693,61.693,0,0,1-45.311,24.28Zm.186-6.854v6.656a61.5,61.5,0,0,0,45.038-24.15c-.229-.39-.508-.812-.828-1.256A31.94,31.94,0,0,0,465.725,538c-.287-.308-.606-.641-.97-1.011a55.394,55.394,0,0,1-5.819,6.845,54.719,54.719,0,0,1-34.887,15.951Z"/>
                <path id="Path_23697" data-name="Path 23697" d="M475.742,531.815l-.092-.137c-.276-.42-.611-.874-1-1.354a38.074,38.074,0,0,0-2.825-3.093c-.372-.37-.757-.743-1.147-1.112l-.046-.043.024-.061a54.375,54.375,0,0,0,4.183-21.024c0-.2,0-.4,0-.6l0-.133.126.044c.507.179,1.011.363,1.495.548a32.937,32.937,0,0,1,3.838,1.708,13.87,13.87,0,0,1,1.471.9l.041.03,0,.05a61.19,61.19,0,0,1-5.991,24.124Zm-4.886-5.787c.373.355.745.715,1.1,1.07a39,39,0,0,1,2.839,3.109c.347.433.656.846.917,1.232a61,61,0,0,0,5.9-23.854,13.38,13.38,0,0,0-1.41-.861,33.036,33.036,0,0,0-3.815-1.7c-.443-.168-.9-.337-1.366-.5,0,.155,0,.31,0,.467A54.609,54.609,0,0,1,470.856,526.028Z"/>
                <path id="Path_23698" data-name="Path 23698" d="M366.347,532.323l-.051-.1c-.623-1.231-1.212-2.5-1.748-3.768a59.844,59.844,0,0,1-4.7-21.333l0-.053.043-.028a22.847,22.847,0,0,1,3.829-1.971c.5-.207,1-.4,1.5-.585l.127-.048,0,.136c0,.141,0,.28,0,.42a54.418,54.418,0,0,0,4.3,21.311c.458,1.084.961,2.173,1.5,3.238l.044.088-.092.039c-.49.206-.946.41-1.357.607a17.025,17.025,0,0,0-3.289,1.978Zm-6.31-25.157a59.672,59.672,0,0,0,4.682,21.215c.52,1.23,1.088,2.458,1.692,3.654a17.588,17.588,0,0,1,3.237-1.93c.386-.184.815-.376,1.272-.571-.519-1.04-1.008-2.1-1.455-3.16a54.6,54.6,0,0,1-4.315-21.383V504.7c-.45.167-.906.347-1.36.535A22.727,22.727,0,0,0,360.037,507.166Z"/>
                <path id="Path_23699" data-name="Path 23699" d="M360.009,500.044l.016-.187a59.842,59.842,0,0,1,4.523-18.329c.245-.58.508-1.175.782-1.768l.027-.059.066.006a22.558,22.558,0,0,1,3.9.779c.446.124.933.27,1.449.433l.1.032-.047.1c-.412.844-.814,1.73-1.2,2.631a54.306,54.306,0,0,0-3.759,13.569l-.008.056-.053.02c-.551.194-1.084.395-1.581.6a24.4,24.4,0,0,0-4.067,2.021ZM365.47,479.9c-.262.571-.515,1.144-.751,1.7a59.662,59.662,0,0,0-4.493,18.083,25.35,25.35,0,0,1,3.939-1.936c.484-.195,1-.389,1.534-.58a54.517,54.517,0,0,1,3.766-13.561c.367-.869.756-1.724,1.153-2.542-.477-.151-.927-.284-1.341-.4A22.791,22.791,0,0,0,365.47,479.9Z"/>
                <path id="Path_23700" data-name="Path 23700" d="M377.2,470.951l-.062-.023c-.505-.174-1.011-.339-1.506-.493l-.128-.04.082-.106c.553-.706,1.134-1.413,1.728-2.1v-.036l.068-.02c.862-.253,1.748-.487,2.635-.7l.3-.071-.213.226c-.989,1.053-1.953,2.166-2.864,3.309Zm-1.383-.653c.434.136.878.282,1.32.433.837-1.046,1.717-2.069,2.622-3.042-.774.187-1.544.393-2.3.613C376.893,468.956,376.341,469.626,375.814,470.3Z"/>
                <path id="Path_23701" data-name="Path 23701" d="M371.65,469.414l-.142-.12a60.9,60.9,0,0,1,5.958-6.927,60.077,60.077,0,0,1,38.749-17.531l.1-.007v5.539l-.087,0a54.523,54.523,0,0,0-34.547,15.6l-.019.019-.028.006c-.92.19-1.793.387-2.593.584h0l-.071.018C373.032,468.065,371.7,469.359,371.65,469.414Zm44.476-24.386A59.892,59.892,0,0,0,377.6,462.5a60.6,60.6,0,0,0-5.56,6.395,24.377,24.377,0,0,1,6.817-2.46v-.019h.081c.812-.2,1.7-.4,2.634-.6a54.713,54.713,0,0,1,34.557-15.626Z"/>
                <path id="Path_23702" data-name="Path 23702" d="M416.314,565.151l-.1-.006a60.046,60.046,0,0,1-38.749-17.532,60.444,60.444,0,0,1-7.7-9.419l-.047-.071.067-.053a17.521,17.521,0,0,1,3.328-1.985c.438-.208.9-.415,1.386-.616l.069-.027.043.061a55.158,55.158,0,0,0,6.76,8.2,54.522,54.522,0,0,0,34.854,15.9l.087.006Zm-46.345-26.988a60.441,60.441,0,0,0,26.73,22.2,59.589,59.589,0,0,0,19.427,4.592v-5.165a54.715,54.715,0,0,1-34.884-15.951,55.311,55.311,0,0,1-6.741-8.165c-.453.189-.893.385-1.307.582A17.579,17.579,0,0,0,369.969,538.163Z"/>
                <path id="Path_23703" data-name="Path 23703" d="M467.81,468.154l-.279-.083c-1.84-.54-3.981-1.049-6.36-1.516-.84-.164-1.689-.319-2.523-.459l-.03-.006-.021-.019a54.522,54.522,0,0,0-34.647-15.7l-.087,0v-5.539l.1.007a60.084,60.084,0,0,1,38.748,17.531,61.188,61.188,0,0,1,4.921,5.558Zm-9.1-2.237c.827.139,1.668.292,2.5.456,2.267.443,4.317.927,6.1,1.44a60.961,60.961,0,0,0-4.727-5.313,59.881,59.881,0,0,0-38.529-17.472v5.165a54.712,54.712,0,0,1,34.658,15.724Z"/>
                <path id="Path_23704" data-name="Path 23704" d="M480.14,499.733l-.15-.08a36.229,36.229,0,0,0-4.049-1.748c-.5-.185-1.028-.374-1.577-.561l-.053-.019-.009-.056a54.3,54.3,0,0,0-3.761-13.589,54.865,54.865,0,0,0-5.8-10.391l-.14-.193.234.049c.726.152,1.448.317,2.147.487a44.95,44.95,0,0,1,5.559,1.676l.06.023v.04a60.029,60.029,0,0,1,7.523,24.192Zm-5.661-2.547c.532.181,1.044.365,1.527.545a36.955,36.955,0,0,1,3.919,1.68,59.82,59.82,0,0,0-7.482-23.942,44.618,44.618,0,0,0-5.5-1.655c-.623-.152-1.264-.3-1.909-.438a54.683,54.683,0,0,1,9.448,23.81Z"/>
                <path id="Path_23705" data-name="Path 23705" d="M423.863,565.151v-5.537l.087-.006a54.533,54.533,0,0,0,34.854-15.9,55.285,55.285,0,0,0,5.864-6.912l.063-.09.078.08c.4.4.745.76,1.052,1.092a32.473,32.473,0,0,1,2.55,3.052l.039.056-.041.055a61.061,61.061,0,0,1-5.7,6.574,60.052,60.052,0,0,1-38.748,17.532Zm.186-5.363v5.165a59.854,59.854,0,0,0,38.529-17.472,60.826,60.826,0,0,0,5.641-6.5A32.566,32.566,0,0,0,465.725,538c-.287-.308-.606-.641-.97-1.011a55.394,55.394,0,0,1-5.819,6.845,54.719,54.719,0,0,1-34.887,15.951Z"/>
                <path id="Path_23706" data-name="Path 23706" d="M474.747,530.44l-.1-.116a38.074,38.074,0,0,0-2.825-3.093c-.372-.37-.757-.743-1.147-1.112l-.046-.043.024-.061a54.375,54.375,0,0,0,4.183-21.024c0-.2,0-.4,0-.6l0-.133.126.044c.507.179,1.011.363,1.495.548a32.937,32.937,0,0,1,3.838,1.708l.05.027v.058a59.857,59.857,0,0,1-4.714,21.808c-.268.635-.544,1.258-.819,1.852Zm-3.891-4.412c.373.355.745.715,1.1,1.07a39.657,39.657,0,0,1,2.745,2.993c.252-.551.506-1.126.754-1.71a59.709,59.709,0,0,0,4.7-21.685,33.144,33.144,0,0,0-3.765-1.671c-.443-.168-.9-.337-1.366-.5,0,.155,0,.31,0,.467A54.609,54.609,0,0,1,470.856,526.028Z"/>
                <path id="Path_23707" data-name="Path 23707" d="M369.646,530.314l-.041-.082c-.533-1.061-1.041-2.164-1.512-3.279a56.011,56.011,0,0,1-4.431-21.8l0-.062.058-.023c.5-.207,1-.4,1.5-.585l.127-.048,0,.136c0,.141,0,.28,0,.42a54.418,54.418,0,0,0,4.3,21.311c.458,1.084.961,2.173,1.5,3.238l.044.088-.092.039c-.49.206-.946.41-1.357.607Zm-5.8-25.1a55.839,55.839,0,0,0,4.416,21.665c.458,1.083.951,2.155,1.466,3.187.365-.173.765-.352,1.19-.533-.519-1.04-1.008-2.1-1.455-3.16a54.6,54.6,0,0,1-4.315-21.383V504.7C364.719,504.864,364.282,505.037,363.848,505.215Z"/>
                <path id="Path_23708" data-name="Path 23708" d="M364.089,497.982l.019-.158a55.967,55.967,0,0,1,3.985-14.8c.35-.83.729-1.668,1.125-2.491l.034-.071.075.021c.446.124.933.27,1.449.433l.1.032-.047.1c-.412.844-.814,1.73-1.2,2.631a54.306,54.306,0,0,0-3.759,13.569l-.008.056-.053.02c-.551.194-1.084.395-1.581.6Zm5.263-17.295c-.382.8-.748,1.609-1.088,2.414a55.731,55.731,0,0,0-3.951,14.588c.441-.176.906-.35,1.386-.521a54.517,54.517,0,0,1,3.766-13.561c.367-.869.756-1.724,1.153-2.542C370.17,480.925,369.745,480.8,369.352,480.687Z"/>
                <path id="Path_23709" data-name="Path 23709" d="M377.2,470.951l-.062-.023c-.505-.174-1.011-.339-1.506-.493l-.128-.04.082-.106c.553-.706,1.134-1.413,1.728-2.1v-.036l.068-.02c.862-.253,1.748-.487,2.635-.7l.3-.071-.213.226c-.989,1.053-1.953,2.166-2.864,3.309Zm-1.383-.653c.434.136.878.282,1.32.433.837-1.046,1.717-2.069,2.622-3.042-.774.187-1.544.393-2.3.613C376.893,468.956,376.341,469.626,375.814,470.3Z"/>
                <path id="Path_23710" data-name="Path 23710" d="M378.666,466.673l.213-.229c.419-.449.859-.9,1.308-1.354a56.226,56.226,0,0,1,36.026-16.4l.1-.006v1.681l-.087,0a54.523,54.523,0,0,0-34.547,15.6l-.019.019-.028.006c-.947.2-1.843.4-2.662.6Zm37.46-17.786a56.021,56.021,0,0,0-35.806,16.335c-.372.372-.738.747-1.09,1.12.73-.175,1.515-.351,2.339-.523a54.713,54.713,0,0,1,34.557-15.626Z"/>
                <path id="Path_23711" data-name="Path 23711" d="M416.314,561.294l-.1-.006a56.212,56.212,0,0,1-36.026-16.4,56.782,56.782,0,0,1-7.111-8.67l-.059-.09.1-.046c.438-.208.9-.415,1.386-.616l.069-.027.043.061a55.158,55.158,0,0,0,6.76,8.2,54.522,54.522,0,0,0,34.854,15.9l.087.006Zm-43.022-25.086A56.583,56.583,0,0,0,398.2,556.814a55.731,55.731,0,0,0,17.928,4.281v-1.307a54.715,54.715,0,0,1-34.884-15.951,55.311,55.311,0,0,1-6.741-8.165C374.083,535.846,373.677,536.026,373.292,536.208Z"/>
                <path id="Path_23712" data-name="Path 23712" d="M461.455,466.611l-.284-.056c-.84-.164-1.689-.319-2.523-.459l-.03-.006-.021-.019a54.522,54.522,0,0,0-34.647-15.7l-.087,0v-1.681l.1.006a56.232,56.232,0,0,1,36.026,16.4c.436.434.863.876,1.269,1.31Zm-2.748-.694c.734.124,1.478.259,2.216.4-.344-.364-.7-.732-1.066-1.1a56.032,56.032,0,0,0-35.808-16.335v1.306a54.712,54.712,0,0,1,34.658,15.724Z"/>
                <path id="Path_23713" data-name="Path 23713" d="M476.086,497.96l-.145-.055c-.5-.185-1.028-.374-1.577-.561l-.053-.019-.009-.056a54.3,54.3,0,0,0-3.761-13.589,54.865,54.865,0,0,0-5.8-10.391l-.14-.193.234.049c.726.152,1.448.317,2.147.487l.035.009.021.029a56.219,56.219,0,0,1,9.028,24.136Zm-1.607-.774c.479.164.942.329,1.384.492A56.017,56.017,0,0,0,466.9,473.8c-.611-.149-1.24-.293-1.873-.429a54.683,54.683,0,0,1,9.448,23.81Z"/>
                <path id="Path_23714" data-name="Path 23714" d="M423.863,561.294v-1.68l.087-.006a54.533,54.533,0,0,0,34.854-15.9,55.285,55.285,0,0,0,5.864-6.912l.063-.09.078.08c.4.4.745.76,1.052,1.092l.053.056-.046.062a56.324,56.324,0,0,1-41.906,23.294Zm.186-1.506v1.307a56.045,56.045,0,0,0,35.808-16.335,56.727,56.727,0,0,0,5.816-6.813c-.273-.292-.576-.607-.918-.955a55.394,55.394,0,0,1-5.819,6.845,54.719,54.719,0,0,1-34.887,15.951Z"/>
                <path id="Path_23715" data-name="Path 23715" d="M471.923,527.326l-.1-.095c-.372-.37-.757-.743-1.147-1.112l-.046-.043.024-.061a54.375,54.375,0,0,0,4.183-21.024c0-.2,0-.4,0-.6l0-.133.126.044c.507.179,1.011.363,1.495.548l.061.022v.117a56.067,56.067,0,0,1-4.433,21.962c-.035.084-.069.167-.106.248Zm-1.067-1.3c.34.322.678.65,1.005.974.018-.04.034-.08.052-.122A55.878,55.878,0,0,0,476.331,505c-.425-.161-.864-.322-1.307-.479,0,.155,0,.31,0,.467A54.609,54.609,0,0,1,470.856,526.028Z"/>
                <path id="Path_23716" data-name="Path 23716" d="M423.863,559.8V450.18l.1.007a54.715,54.715,0,0,1,34.765,15.749l.209.207-.29-.049c-1.645-.277-2.817-.434-3.111-.459l-.235,1.22c.669.041,3.187.444,5.066.8.873.167,1.672.329,2.444.5l.074.018a56.2,56.2,0,0,1,6.156,1.664,24.09,24.09,0,0,1,2.505,1l.054.025v.033c.73,1.1,1.439,2.244,2.107,3.408l.14.245-.259-.112c-.646-.284-1.393-.567-2.222-.844a57.1,57.1,0,0,0-5.631-1.516c-.734-.162-1.475-.316-2.2-.458-2.931-.574-5.184-.878-5.605-.915l-.235,1.22c.779.05,4.129.575,7.144,1.219l.074.016v.048a54.663,54.663,0,0,1,9.577,24.035l.022.15-.145-.048a149.7,149.7,0,0,0-15.671-4.17l.108,1.694a149.517,149.517,0,0,1,15.86,4.227c.548.187,1.07.375,1.555.555a36.011,36.011,0,0,1,4,1.735,15.086,15.086,0,0,1,1.546.918l.038.026,0,.047c.036.874.055,1.754.055,2.615,0,.263,0,.522-.006.784l0,.183-.146-.109a12.165,12.165,0,0,0-1.475-.935,31.782,31.782,0,0,0-3.869-1.741l-.059-.023c-.455-.173-.942-.352-1.45-.532a146.575,146.575,0,0,0-16.3-4.39l.108,1.7a147.664,147.664,0,0,1,16.3,4.381l.062.022v.065c0,.2,0,.4,0,.6a54.6,54.6,0,0,1-4.2,21.1l-.052.124-.1-.093a147.689,147.689,0,0,0-13.943-11.3l.174,1.943A150.282,150.282,0,0,1,470.106,527.6c.376.357.747.717,1.134,1.1a37.622,37.622,0,0,1,2.8,3.075,16.682,16.682,0,0,1,.989,1.36l.028.044-.023.049a61.842,61.842,0,0,1-4.891,7.95l-.082.115-.073-.121c-.251-.422-.543-.867-.87-1.322a33.423,33.423,0,0,0-2.533-3.08c-.327-.357-.678-.728-1.046-1.1a93.091,93.091,0,0,0-11.428-9.66l-.764,1.168a98.062,98.062,0,0,1,11.461,9.6l.055.054-.046.065a55.318,55.318,0,0,1-5.882,6.934,54.718,54.718,0,0,1-34.974,15.957Zm.186-109.422V559.6a54.533,54.533,0,0,0,34.755-15.9,55.375,55.375,0,0,0,5.818-6.847,98.69,98.69,0,0,0-11.455-9.581l-.071-.052.967-1.48.08.058a93.7,93.7,0,0,1,11.53,9.738c.369.378.722.75,1.05,1.109a33,33,0,0,1,2.548,3.1c.3.414.569.822.8,1.212a61.882,61.882,0,0,0,4.768-7.765c-.252-.389-.571-.826-.949-1.3a37.782,37.782,0,0,0-2.787-3.058c-.385-.385-.756-.744-1.131-1.1a150.2,150.2,0,0,0-13.21-10.848l-.033-.025-.22-2.435.165.121a149.74,149.74,0,0,1,14.031,11.34,54.378,54.378,0,0,0,4.131-20.9c0-.179,0-.355,0-.533a148.464,148.464,0,0,0-16.288-4.366l-.069-.014L458.348,498l.12.025a147.534,147.534,0,0,1,16.442,4.421c.533.188,1.043.375,1.514.556l.06.025a31.55,31.55,0,0,1,3.832,1.729,13.089,13.089,0,0,1,1.351.84c0-.2,0-.4,0-.6,0-.843-.018-1.706-.052-2.561a15.277,15.277,0,0,0-1.49-.881,35.994,35.994,0,0,0-3.976-1.725c-.483-.18-1-.366-1.551-.553a150.324,150.324,0,0,0-15.9-4.235l-.069-.013-.133-2.081.119.024a151.888,151.888,0,0,1,15.669,4.152,54.516,54.516,0,0,0-9.52-23.8c-3.64-.775-6.813-1.207-7.147-1.224l-.168.126.32-1.664.03-.021a53.289,53.289,0,0,1,5.772.9c.727.142,1.47.3,2.206.459a57.419,57.419,0,0,1,5.65,1.521c.727.242,1.391.491,1.98.739-.624-1.078-1.284-2.14-1.964-3.16a24.03,24.03,0,0,0-2.461-.985,56.526,56.526,0,0,0-6.207-1.674l-.074-.018c-.749-.161-1.524-.319-2.367-.48-2.833-.538-4.858-.8-5.109-.812l-.17.13.321-1.67.029-.022a28.249,28.249,0,0,1,2.984.4,54.529,54.529,0,0,0-34.337-15.484Z"/>
                <g id="Group_15167" data-name="Group 15167">
                  <path id="Path_23717" data-name="Path 23717" d="M417.8,567.961h-1.678V442.021H417.8Zm-1.49-.188h1.3V442.207h-1.3Z"/>
                  <path id="Path_23718" data-name="Path 23718" d="M424.049,567.961h-1.676V442.021h1.676Zm-1.489-.188h1.3V442.207h-1.3Z"/>
                </g>
                <path id="Path_23719" data-name="Path 23719" d="M357.759,504.018h-.012a.094.094,0,0,1-.081-.093v-1.763a.092.092,0,0,1,0-.024,2.8,2.8,0,0,1,.8-1.112,9.964,9.964,0,0,1,1.6-1.24,24.524,24.524,0,0,1,4.1-2.038c.5-.2,1.035-.4,1.587-.6a101.239,101.239,0,0,1,17.28-4.061.1.1,0,0,1,.076.021.1.1,0,0,1,.032.071v1.764a.1.1,0,0,1-.078.094,99.76,99.76,0,0,0-17.475,4.131c-.543.2-1.066.4-1.553.6a23.548,23.548,0,0,0-3.991,2.021A9.231,9.231,0,0,0,358.522,503l-.007.009a2.568,2.568,0,0,0-.666.937A.094.094,0,0,1,357.759,504.018Zm.093-1.843v1.357a4.137,4.137,0,0,1,.521-.644l.009-.009a9.348,9.348,0,0,1,1.559-1.246,23.723,23.723,0,0,1,4.022-2.039c.49-.2,1.014-.4,1.561-.6a99.7,99.7,0,0,1,17.43-4.128v-1.577a100.573,100.573,0,0,0-17.138,4.036c-.551.194-1.084.395-1.581.6a24.4,24.4,0,0,0-4.067,2.021,9.854,9.854,0,0,0-1.566,1.216A2.858,2.858,0,0,0,357.852,502.175Z"/>
                <path id="Path_23720" data-name="Path 23720" d="M357.759,509.391l-.012,0a.092.092,0,0,1-.081-.091v-1.765a.089.089,0,0,1,0-.022,2.607,2.607,0,0,1,.7-1.008,9.2,9.2,0,0,1,1.488-1.2,22.918,22.918,0,0,1,3.887-2c.457-.19.961-.388,1.5-.587l.014-.006a98.422,98.422,0,0,1,17.778-4.24.092.092,0,0,1,.108.092v1.765a.091.091,0,0,1-.078.091,97.928,97.928,0,0,0-17.785,4.248c-.492.18-.992.377-1.487.582a22.682,22.682,0,0,0-3.8,1.955,9.466,9.466,0,0,0-1.427,1.135,2.686,2.686,0,0,0-.717.992A.094.094,0,0,1,357.759,509.391Zm.093-1.844V508.9a4.236,4.236,0,0,1,.581-.706,9.638,9.638,0,0,1,1.456-1.159,22.847,22.847,0,0,1,3.829-1.971c.5-.207,1-.4,1.5-.585a97.577,97.577,0,0,1,17.74-4.245v-1.576a97.974,97.974,0,0,0-17.622,4.209l-.014.005c-.54.2-1.046.4-1.506.59a22.588,22.588,0,0,0-3.853,1.987,8.88,8.88,0,0,0-1.458,1.18A2.673,2.673,0,0,0,357.852,507.547Z"/>
                <path id="Path_23721" data-name="Path 23721" d="M365.525,535.434a.092.092,0,0,1-.08-.047l-.714-1.246a.089.089,0,0,1-.012-.062,2.2,2.2,0,0,1,.474-.864,6.878,6.878,0,0,1,1.128-1.109,17.307,17.307,0,0,1,3.327-2c.412-.2.871-.4,1.364-.61a75.118,75.118,0,0,1,14.575-4.005.09.09,0,0,1,.1.045l.715,1.247a.091.091,0,0,1,0,.085.092.092,0,0,1-.066.052,74.438,74.438,0,0,0-14.592,4.019c-.465.2-.921.4-1.359.61a16.866,16.866,0,0,0-3.278,1.987,6.529,6.529,0,0,0-1.083,1.08,2.019,2.019,0,0,0-.406.742.094.094,0,0,1-.077.076Zm-.615-1.354.6,1.035a2.954,2.954,0,0,1,.372-.614,6.583,6.583,0,0,1,1.113-1.11,16.923,16.923,0,0,1,3.315-2.012c.44-.211.9-.417,1.367-.614a74.358,74.358,0,0,1,14.5-4l-.616-1.077a74.792,74.792,0,0,0-14.472,3.983c-.49.206-.946.41-1.357.607a17.025,17.025,0,0,0-3.289,1.978,6.651,6.651,0,0,0-1.1,1.076A2.36,2.36,0,0,0,364.91,534.08Z"/>
                <path id="Path_23722" data-name="Path 23722" d="M368.226,540.192a.091.091,0,0,1-.081-.046l-.715-1.248a.1.1,0,0,1-.01-.06,2.247,2.247,0,0,1,.494-.891,6.884,6.884,0,0,1,1.1-1.076,17.05,17.05,0,0,1,3.315-2c.45-.216.914-.422,1.379-.617a74.927,74.927,0,0,1,14.578-4.011.093.093,0,0,1,.1.046l.715,1.248a.093.093,0,0,1,0,.086.089.089,0,0,1-.066.051,75.28,75.28,0,0,0-14.463,3.966c-.478.2-.942.4-1.378.612a17.26,17.26,0,0,0-3.292,1.962,7.077,7.077,0,0,0-1.075,1.026,2.257,2.257,0,0,0-.51.873.091.091,0,0,1-.076.075Zm-.616-1.353.594,1.033a3.237,3.237,0,0,1,.478-.748,7.232,7.232,0,0,1,1.1-1.054,17.521,17.521,0,0,1,3.328-1.985c.438-.208.9-.415,1.386-.616a75.113,75.113,0,0,1,14.37-3.951l-.616-1.076a74.542,74.542,0,0,0-14.474,3.985c-.463.194-.925.4-1.371.613a16.986,16.986,0,0,0-3.279,1.975,6.77,6.77,0,0,0-1.071,1.047A2.4,2.4,0,0,0,367.61,538.839Z"/>
                <path id="Path_23723" data-name="Path 23723" d="M383.306,486.385a.1.1,0,0,1-.042-.009A94.175,94.175,0,0,0,370.72,481.1c-.514-.162-1-.308-1.443-.431a22.487,22.487,0,0,0-3.872-.775,7.682,7.682,0,0,0-1.615,0,1.865,1.865,0,0,0-.652.167.093.093,0,0,1-.127-.129,6.278,6.278,0,0,0,.28-1.274.088.088,0,0,1,.042-.065,2.439,2.439,0,0,1,1.061-.224,9.6,9.6,0,0,1,1.639.065,24.4,24.4,0,0,1,3.9.837c.454.13.943.279,1.451.446a96.134,96.134,0,0,1,12.257,5.187.094.094,0,0,1,.05.1l-.3,1.312a.088.088,0,0,1-.051.063A.086.086,0,0,1,383.306,486.385Zm-18.792-6.724c.279,0,.583.014.909.046a22.558,22.558,0,0,1,3.9.779c.446.124.933.27,1.449.433a94.348,94.348,0,0,1,12.465,5.237l.252-1.124a95.625,95.625,0,0,0-12.166-5.145c-.507-.164-.993-.314-1.444-.443a24.585,24.585,0,0,0-3.87-.832,9.432,9.432,0,0,0-1.607-.063,2.738,2.738,0,0,0-.938.177,10.233,10.233,0,0,1-.215,1.084,2.959,2.959,0,0,1,.515-.107A6.061,6.061,0,0,1,364.514,479.661Z"/>
                <path id="Path_23724" data-name="Path 23724" d="M388.239,477.133a.1.1,0,0,1-.042-.009,97.56,97.56,0,0,0-11.929-5.078c-.5-.168-.995-.322-1.5-.472a25.331,25.331,0,0,0-4.078-.9,8.9,8.9,0,0,0-1.741-.061,2.287,2.287,0,0,0-.876.19.094.094,0,0,1-.113-.017.091.091,0,0,1-.012-.112,6.408,6.408,0,0,0,.28-1.276.1.1,0,0,1,.042-.065,3.222,3.222,0,0,1,1.6-.235,12.473,12.473,0,0,1,1.731.161l.015,0a28.963,28.963,0,0,1,4.076.994c.5.154,1,.319,1.511.495a101.461,101.461,0,0,1,11.378,4.893.093.093,0,0,1,.05.1l-.295,1.311a.091.091,0,0,1-.05.064A.1.1,0,0,1,388.239,477.133Zm-18.783-6.723a10.749,10.749,0,0,1,1.25.081,25.44,25.44,0,0,1,4.111.9c.512.151,1.006.306,1.511.475a97.537,97.537,0,0,1,11.846,5.034l.252-1.124a101.455,101.455,0,0,0-11.291-4.852c-.505-.174-1.011-.339-1.506-.493a28.859,28.859,0,0,0-4.065-.989l-.014,0a12.3,12.3,0,0,0-1.69-.157,3.568,3.568,0,0,0-1.458.19,10.588,10.588,0,0,1-.216,1.083,3.484,3.484,0,0,1,.744-.13C369.094,470.416,369.27,470.41,369.456,470.41Z"/>
                <path id="Path_23725" data-name="Path 23725" d="M469.785,543.627h-.013a.093.093,0,0,1-.078-.068,5.526,5.526,0,0,0-.576-1.211c-.235-.4-.524-.844-.859-1.309A31.94,31.94,0,0,0,465.725,538c-.307-.33-.65-.686-1.049-1.089a98.451,98.451,0,0,0-11.509-9.636.091.091,0,0,1-.022-.126l.865-1.324a.087.087,0,0,1,.061-.04.1.1,0,0,1,.072.016,93.7,93.7,0,0,1,11.53,9.738c.369.378.722.75,1.05,1.109a33,33,0,0,1,2.548,3.1c.33.459.625.908.877,1.333a6.991,6.991,0,0,1,.754,1.562.093.093,0,0,1-.036.1,6.228,6.228,0,0,0-1,.839A.092.092,0,0,1,469.785,543.627ZM453.348,527.18a98.062,98.062,0,0,1,11.461,9.6c.4.4.745.76,1.052,1.092a32.473,32.473,0,0,1,2.55,3.052c.338.471.63.917.868,1.326a7.106,7.106,0,0,1,.542,1.093,9.091,9.091,0,0,1,.881-.715,7.723,7.723,0,0,0-.713-1.454c-.251-.422-.543-.867-.87-1.322a33.423,33.423,0,0,0-2.533-3.08c-.327-.357-.678-.728-1.046-1.1a93.091,93.091,0,0,0-11.428-9.66Z"/>
                <path id="Path_23726" data-name="Path 23726" d="M475.708,534.976a.083.083,0,0,1-.028,0,.092.092,0,0,1-.065-.1,3.622,3.622,0,0,0-.743-1.635,16.5,16.5,0,0,0-.977-1.345,37.782,37.782,0,0,0-2.787-3.058c-.385-.385-.756-.744-1.131-1.1a150.2,150.2,0,0,0-13.21-10.848.1.1,0,0,1-.037-.066l-.2-2.188a.1.1,0,0,1,.047-.091.093.093,0,0,1,.1.006,148.744,148.744,0,0,1,14.129,11.433c.39.369.777.744,1.151,1.114a39,39,0,0,1,2.839,3.109c.388.485.728.945,1.009,1.367,1.169,1.763,1.024,2.435,1.017,2.463a.09.09,0,0,1-.036.053,6.161,6.161,0,0,0-1,.841A.093.093,0,0,1,475.708,534.976Zm-18.8-18.21A150.282,150.282,0,0,1,470.106,527.6c.376.357.747.717,1.134,1.1a37.622,37.622,0,0,1,2.8,3.075,16.682,16.682,0,0,1,.989,1.36,5.17,5.17,0,0,1,.741,1.528,9.521,9.521,0,0,1,.876-.706,4.388,4.388,0,0,0-1-2.285c-.276-.42-.611-.874-1-1.354a38.074,38.074,0,0,0-2.825-3.093c-.372-.37-.757-.743-1.147-1.112a147.689,147.689,0,0,0-13.943-11.3Z"/>
                <path id="Path_23727" data-name="Path 23727" d="M375.657,470.44a.1.1,0,0,1-.028-.005,28.859,28.859,0,0,0-4.065-.989.093.093,0,0,1-.078-.092.1.1,0,0,1,.009-.041.086.086,0,0,1,.022-.029h0c.139-.141,1.519-1.41,7.4-2.863l.012,0h0c.822-.2,1.721-.408,2.671-.6.545-.112,1.119-.225,1.707-.335a.093.093,0,0,1,.107.07l.281,1.229a.092.092,0,0,1-.075.112c-1.224.211-2.417.455-3.547.722l-.012.005c-.874.206-1.748.437-2.6.685-.6.689-1.176,1.395-1.728,2.1A.1.1,0,0,1,375.657,470.44Zm-3.867-1.146a29.258,29.258,0,0,1,3.833.945c.547-.7,1.12-1.394,1.706-2.072a.092.092,0,0,1,.05-.035c.859-.251,1.742-.486,2.624-.694l.011,0h0c1.106-.263,2.274-.5,3.473-.711l-.239-1.045c-.555.1-1.1.212-1.615.319-.942.195-1.835.4-2.652.6l-.012,0C373.995,467.828,372.255,468.935,371.79,469.294Z"/>
                <path id="Path_23728" data-name="Path 23728" d="M373.385,469.762l-.081-.167a30,30,0,0,1,4.073-1.462l.053.179A30.015,30.015,0,0,0,373.385,469.762Z"/>
                <path id="Path_23729" data-name="Path 23729" d="M381.064,472.365l-.04-.182a31.7,31.7,0,0,1,3.2-.468l.2-.022-.278-1.06c-.754.071-1.425.158-2.051.263l-.186.032a6.969,6.969,0,0,0-2.474.734l-.1-.159a7.116,7.116,0,0,1,2.541-.759l.186-.031c.651-.111,1.353-.2,2.144-.272a.094.094,0,0,1,.1.068l.324,1.242a.088.088,0,0,1-.014.077.092.092,0,0,1-.066.04l-.3.032A31.643,31.643,0,0,0,381.064,472.365Z"/>
                <path id="Path_23730" data-name="Path 23730" d="M483.318,504.1a.093.093,0,0,1-.083-.052,4.654,4.654,0,0,0-1.58-1.594,15.186,15.186,0,0,0-1.528-.906,35.994,35.994,0,0,0-3.976-1.725c-.483-.18-1-.366-1.551-.553a150.324,150.324,0,0,0-15.9-4.235.09.09,0,0,1-.074-.086l-.121-1.887a.094.094,0,0,1,.032-.075.1.1,0,0,1,.08-.022,150.934,150.934,0,0,1,15.813,4.2c.55.188,1.082.377,1.581.563a35.86,35.86,0,0,1,4.069,1.758,15.171,15.171,0,0,1,1.579.935,4.778,4.778,0,0,1,1.627,1.655.079.079,0,0,1,.01.035l.12,1.887a.093.093,0,0,1-.069.1A.108.108,0,0,1,483.318,504.1ZM458.8,494.868a149.517,149.517,0,0,1,15.86,4.227c.548.187,1.07.375,1.555.555a36.011,36.011,0,0,1,4,1.735,15.086,15.086,0,0,1,1.546.918,5.662,5.662,0,0,1,1.441,1.326l-.1-1.485a4.65,4.65,0,0,0-1.558-1.567,15.1,15.1,0,0,0-1.557-.924,36.229,36.229,0,0,0-4.049-1.748c-.5-.185-1.028-.374-1.577-.561a149.7,149.7,0,0,0-15.671-4.17Z"/>
                <path id="Path_23731" data-name="Path 23731" d="M483.173,509.156a.093.093,0,0,1-.084-.052,4.386,4.386,0,0,0-1.432-1.49,13.613,13.613,0,0,0-1.452-.89,33.036,33.036,0,0,0-3.815-1.7c-.483-.183-.983-.366-1.491-.545a148.023,148.023,0,0,0-16.349-4.388.094.094,0,0,1-.074-.086l-.121-1.889a.1.1,0,0,1,.033-.075.1.1,0,0,1,.08-.021,147.534,147.534,0,0,1,16.442,4.421c.533.188,1.043.375,1.514.556a.024.024,0,0,1,.013.007,31.526,31.526,0,0,1,3.879,1.747,12.659,12.659,0,0,1,1.5.947,4.335,4.335,0,0,1,1.323,1.436.082.082,0,0,1,.009.035l.121,1.887a.094.094,0,0,1-.069.1Zm-24.515-9.233a147.664,147.664,0,0,1,16.3,4.381c.507.179,1.011.363,1.495.548a32.937,32.937,0,0,1,3.838,1.708,13.87,13.87,0,0,1,1.471.9,5.453,5.453,0,0,1,1.29,1.223l-.1-1.485a4.165,4.165,0,0,0-1.259-1.351,12.165,12.165,0,0,0-1.475-.935,31.782,31.782,0,0,0-3.869-1.741l-.012-.006c-.468-.178-.971-.363-1.5-.549a146.515,146.515,0,0,0-16.3-4.39Z"/>
                <path id="Path_23732" data-name="Path 23732" d="M476.035,477.449a.1.1,0,0,1-.064-.025,6.621,6.621,0,0,0-1.244-.894,16.8,16.8,0,0,0-2.251-1.046l-.014-.008a44.817,44.817,0,0,0-5.522-1.662c-.7-.172-1.419-.334-2.142-.488l-.015,0c-3.717-.793-6.955-1.229-7.185-1.229h0a.084.084,0,0,1-.065-.013.09.09,0,0,1-.041-.1l.267-1.394a.088.088,0,0,1,.037-.056,53.251,53.251,0,0,1,5.772.9c.727.142,1.47.3,2.206.459a57.419,57.419,0,0,1,5.65,1.521c.833.279,1.586.564,2.239.85l.013.007a9.613,9.613,0,0,1,2.69,1.62.091.091,0,0,1,.028.085l-.267,1.4a.1.1,0,0,1-.064.071A.127.127,0,0,1,476.035,477.449Zm-3.48-2.134a16.7,16.7,0,0,1,2.265,1.054,7.386,7.386,0,0,1,1.155.805l.227-1.179a9.616,9.616,0,0,0-2.615-1.558l-.013-.006c-.642-.281-1.386-.563-2.209-.838a57.1,57.1,0,0,0-5.631-1.516c-.734-.162-1.475-.316-2.2-.458-2.931-.574-5.184-.878-5.605-.915l-.235,1.22c.779.05,4.129.575,7.144,1.219l.015.005c.72.152,1.438.314,2.132.484a44.95,44.95,0,0,1,5.559,1.676A.023.023,0,0,1,472.555,475.315Z"/>
                <path id="Path_23733" data-name="Path 23733" d="M473.642,472.378a.091.091,0,0,1-.063-.025,8.435,8.435,0,0,0-2.113-1.345l-.012-.007a24.02,24.02,0,0,0-2.475-.991,56.526,56.526,0,0,0-6.207-1.674l-.015-.005c-.766-.167-1.561-.327-2.426-.493-2.91-.552-4.967-.812-5.125-.812a.105.105,0,0,1-.065-.013.1.1,0,0,1-.043-.1l.269-1.394a.1.1,0,0,1,.035-.057c.114-.083,3.243.441,3.275.447l.014,0c.832.14,1.678.294,2.515.459,2.385.467,4.53.978,6.378,1.52.9.265,1.738.54,2.478.816a11.987,11.987,0,0,1,3.912,2.115.091.091,0,0,1,.028.085l-.268,1.394a.091.091,0,0,1-.063.071A.1.1,0,0,1,473.642,472.378Zm-2.083-1.532a9.082,9.082,0,0,1,2.024,1.259l.226-1.181A11.964,11.964,0,0,0,470,468.885c-.735-.276-1.565-.549-2.465-.814-1.84-.54-3.981-1.049-6.36-1.516-.84-.164-1.689-.319-2.523-.459l-.014,0c-1.639-.278-2.8-.433-3.1-.458l-.235,1.22c.669.041,3.187.444,5.066.8.873.167,1.672.329,2.444.5l.015.005a56.65,56.65,0,0,1,6.215,1.677,24.09,24.09,0,0,1,2.505,1Z"/>
              </g>
              <g id="Group_15191" data-name="Group 15191">
                <path id="Path_23734" data-name="Path 23734" d="M382.167,461.933v51.318a38.37,38.37,0,0,0,38.371,38.37h0a38.37,38.37,0,0,0,38.371-38.37V461.933Z" fill="#fff"/>
                <path id="Path_23735" data-name="Path 23735" d="M383.71,463.476v49.775a36.828,36.828,0,0,0,73.656,0V463.476Z" fill="#e60000"/>
                <path id="Path_23736" data-name="Path 23736" d="M420.538,551.719a38.468,38.468,0,0,1-38.467-38.468V461.837h76.934v51.414a38.468,38.468,0,0,1-38.467,38.468Zm-38.275-89.69v51.222a38.275,38.275,0,0,0,76.55,0V462.029Z"/>
                <path id="Path_23737" data-name="Path 23737" d="M420.538,550.174a36.921,36.921,0,0,1-36.924-36.923V463.38h73.848v49.871a36.921,36.921,0,0,1-36.924,36.923Zm-36.732-86.6v49.679a36.732,36.732,0,1,0,73.463,0V463.572Z"/>
                <path id="Path_23738" data-name="Path 23738" d="M398.5,478.267v34.984a22.036,22.036,0,1,0,44.073,0V478.267Z" fill="#fff"/>
                <path id="Path_23739" data-name="Path 23739" d="M420.538,535.384A22.131,22.131,0,0,1,398.4,513.251v-35.08h44.267v35.08a22.134,22.134,0,0,1-22.134,22.133Zm-21.94-57.02v34.887a21.94,21.94,0,1,0,43.88,0V478.364Z"/>
                <g id="Group_15169" data-name="Group 15169">
                  <path id="Path_23740" data-name="Path 23740" d="M415.683,483.729v7.707a4.855,4.855,0,0,0,9.71,0v-7.707Zm2.547,8.851a1.02,1.02,0,1,1,1.019-1.02A1.02,1.02,0,0,1,418.23,492.58Zm0-4.617a1.02,1.02,0,1,1,1.019-1.019A1.019,1.019,0,0,1,418.23,487.963Zm2.308,2.308a1.019,1.019,0,1,1,1.019-1.019A1.02,1.02,0,0,1,420.538,490.271Zm2.308,2.309a1.02,1.02,0,1,1,1.019-1.02A1.02,1.02,0,0,1,422.846,492.58Zm0-4.617a1.02,1.02,0,1,1,1.019-1.019A1.019,1.019,0,0,1,422.846,487.963Z" fill="#0437a0"/>
                  <path id="Path_23741" data-name="Path 23741" d="M415.683,517.265v7.706a4.855,4.855,0,0,0,9.71,0v-7.706Zm2.547,8.851a1.02,1.02,0,1,1,1.019-1.019A1.02,1.02,0,0,1,418.23,526.116Zm0-4.616a1.02,1.02,0,1,1,1.019-1.019A1.019,1.019,0,0,1,418.23,521.5Zm2.308,2.308a1.02,1.02,0,1,1,1.019-1.019A1.02,1.02,0,0,1,420.538,523.808Zm2.308,2.308a1.02,1.02,0,1,1,1.019-1.019A1.019,1.019,0,0,1,422.846,526.116Zm0-4.616a1.02,1.02,0,1,1,1.019-1.019A1.019,1.019,0,0,1,422.846,521.5Z" fill="#0437a0"/>
                  <path id="Path_23742" data-name="Path 23742" d="M415.683,500.5V508.2a4.855,4.855,0,0,0,9.71,0V500.5Zm2.547,8.85a1.02,1.02,0,1,1,1.019-1.02A1.019,1.019,0,0,1,418.23,509.348Zm0-4.616a1.02,1.02,0,1,1,1.019-1.02A1.019,1.019,0,0,1,418.23,504.732Zm2.308,2.308a1.02,1.02,0,1,1,1.019-1.02A1.02,1.02,0,0,1,420.538,507.04Zm2.308,2.308a1.02,1.02,0,1,1,1.019-1.02A1.019,1.019,0,0,1,422.846,509.348Zm0-4.616a1.02,1.02,0,1,1,1.019-1.02A1.019,1.019,0,0,1,422.846,504.732Z" fill="#0437a0"/>
                  <path id="Path_23743" data-name="Path 23743" d="M402.635,500.5V508.2a4.854,4.854,0,1,0,9.708,0V500.5Zm2.546,8.85a1.02,1.02,0,1,1,1.02-1.02A1.019,1.019,0,0,1,405.181,509.348Zm0-4.616a1.02,1.02,0,1,1,1.02-1.02A1.019,1.019,0,0,1,405.181,504.732Zm2.309,2.308a1.02,1.02,0,1,1,1.019-1.02A1.019,1.019,0,0,1,407.49,507.04Zm2.308,2.308a1.02,1.02,0,1,1,1.019-1.02A1.02,1.02,0,0,1,409.8,509.348Zm0-4.616a1.02,1.02,0,1,1,1.019-1.02A1.02,1.02,0,0,1,409.8,504.732Z" fill="#0437a0"/>
                  <path id="Path_23744" data-name="Path 23744" d="M428.733,500.5V508.2a4.854,4.854,0,1,0,9.708,0V500.5Zm2.546,8.85a1.02,1.02,0,1,1,1.02-1.02A1.019,1.019,0,0,1,431.279,509.348Zm0-4.616a1.02,1.02,0,1,1,1.02-1.02A1.019,1.019,0,0,1,431.279,504.732Zm2.307,2.308a1.02,1.02,0,1,1,1.021-1.02A1.019,1.019,0,0,1,433.586,507.04Zm2.308,2.308a1.02,1.02,0,1,1,1.02-1.02A1.02,1.02,0,0,1,435.894,509.348Zm0-4.616a1.02,1.02,0,1,1,1.02-1.02A1.02,1.02,0,0,1,435.894,504.732Z" fill="#0437a0"/>
                </g>
                <g id="Group_15172" data-name="Group 15172">
                  <g id="Group_15170" data-name="Group 15170">
                    <rect id="Rectangle_839" data-name="Rectangle 839" width="2.72" height="4.481" transform="translate(389.746 466.229)" fill="#ffc400"/>
                    <rect id="Rectangle_840" data-name="Rectangle 840" width="11.425" height="0.701" transform="translate(385.394 470.71)" fill="#ffc400"/>
                    <rect id="Rectangle_841" data-name="Rectangle 841" width="12.068" height="0.701" transform="translate(385.072 476.371)" fill="#ffc400"/>
                    <rect id="Rectangle_842" data-name="Rectangle 842" width="10.829" height="0.976" transform="translate(385.692 471.411)" fill="#ffc400"/>
                    <path id="Path_23745" data-name="Path 23745" d="M396.521,476.371H385.692l.644-3.984h9.543Z" fill="#ffc400"/>
                    <path id="Path_23746" data-name="Path 23746" d="M393.966,476.371h-5.718v-.029a4.4,4.4,0,0,1,2.29-3.77l.375-.185h.384l.374.185a4.4,4.4,0,0,1,2.293,3.77Z" fill="#ffc400"/>
                    <path id="Path_23747" data-name="Path 23747" d="M392.679,476.371h-3.144a1.789,1.789,0,1,1,3.144,0Z" fill="#ffc400"/>
                    <path id="Path_23748" data-name="Path 23748" d="M392.391,464.689v.627h-.955v-.627h-.659v.627h-.955v-.627h-.738v1.54h4.046v-1.54Z" fill="#ffc400"/>
                    <rect id="Rectangle_843" data-name="Rectangle 843" width="0.593" height="1.444" transform="translate(390.81 467.429)" fill="#ffc400"/>
                    <rect id="Rectangle_844" data-name="Rectangle 844" width="2.718" height="2.356" transform="translate(393.129 468.353)" fill="#ffc400"/>
                    <path id="Path_23749" data-name="Path 23749" d="M395.774,466.813v.626h-.955v-.626h-.659v.626H393.2v-.626h-.738v1.54h4.046v-1.54Z" fill="#ffc400"/>
                    <rect id="Rectangle_845" data-name="Rectangle 845" width="0.595" height="0.769" transform="translate(394.191 469.148)" fill="#ffc400"/>
                    <rect id="Rectangle_846" data-name="Rectangle 846" width="2.718" height="2.356" transform="translate(386.365 468.353)" fill="#ffc400"/>
                    <path id="Path_23750" data-name="Path 23750" d="M386.439,466.813v.626h.957v-.626h.658v.626h.955v-.626h.738v1.54H385.7v-1.54Z" fill="#ffc400"/>
                    <rect id="Rectangle_847" data-name="Rectangle 847" width="0.595" height="0.769" transform="translate(387.427 469.148)" fill="#ffc400"/>
                  </g>
                  <g id="Group_15171" data-name="Group 15171">
                    <path id="Path_23751" data-name="Path 23751" d="M392.562,470.807h-2.911v-4.674h2.911Zm-2.718-.193h2.525v-4.288h-2.525Z"/>
                    <path id="Path_23752" data-name="Path 23752" d="M396.916,471.507H385.3v-.893h11.62Zm-11.426-.192h11.233v-.508H385.49Z"/>
                    <path id="Path_23753" data-name="Path 23753" d="M397.237,477.168H384.976v-.893h12.261Zm-12.069-.193h11.875v-.508H385.168Z"/>
                    <path id="Path_23754" data-name="Path 23754" d="M396.618,472.483H385.6v-1.168h11.022Zm-10.83-.192h10.637v-.784H385.788Z"/>
                    <path id="Path_23755" data-name="Path 23755" d="M396.634,476.467H385.578l.675-4.176h9.707Zm-10.829-.192h10.6l-.613-3.792h-9.379Z"/>
                    <path id="Path_23756" data-name="Path 23756" d="M394.067,476.467h-5.921l.006-.13a4.5,4.5,0,0,1,2.345-3.852l.395-.194h.428l.395.194a4.507,4.507,0,0,1,2.346,3.853Zm-5.719-.192h5.518a4.3,4.3,0,0,0-2.235-3.618l-.355-.174h-.338l-.356.174A4.292,4.292,0,0,0,388.348,476.275Z"/>
                    <path id="Path_23757" data-name="Path 23757" d="M392.776,476.467h-3.34l0-.1a3.324,3.324,0,0,1,1.625-2.729l.043-.02.043.02a3.32,3.32,0,0,1,1.626,2.729Zm-3.139-.192h2.938a1.663,1.663,0,1,0-2.938,0Z"/>
                    <path id="Path_23758" data-name="Path 23758" d="M393.227,466.326h-4.24v-1.733h.931v.626h.763v-.626h.85v.626h.764v-.626h.932Zm-4.048-.193h3.854v-1.347h-.545v.626H391.34v-.626h-.467v.626h-1.149v-.626h-.545Z"/>
                    <rect id="Rectangle_848" data-name="Rectangle 848" width="0.593" height="1.444" transform="translate(390.81 467.429)"/>
                    <path id="Path_23759" data-name="Path 23759" d="M395.945,470.807h-2.912v-2.551h2.912Zm-2.718-.193h2.525v-2.165h-2.525Z"/>
                    <path id="Path_23760" data-name="Path 23760" d="M396.608,468.449h-4.239v-1.732h.931v.626h.762v-.626h.852v.626h.764v-.626h.93Zm-4.046-.193h3.854v-1.347h-.547v.626h-1.148v-.626h-.465v.626h-1.149v-.626h-.545Z"/>
                    <rect id="Rectangle_849" data-name="Rectangle 849" width="0.595" height="0.769" transform="translate(394.191 469.148)"/>
                    <path id="Path_23761" data-name="Path 23761" d="M389.179,470.807h-2.91v-2.551h2.91Zm-2.718-.193h2.526v-2.165h-2.526Z"/>
                    <path id="Path_23762" data-name="Path 23762" d="M389.844,468.449h-4.239v-1.732h.931v.626h.762v-.626h.852v.626h.762v-.626h.932Zm-4.046-.193h3.853v-1.347h-.545v.626h-1.149v-.626h-.465v.626h-1.149v-.626H385.8Z"/>
                    <rect id="Rectangle_850" data-name="Rectangle 850" width="0.595" height="0.769" transform="translate(387.427 469.148)"/>
                  </g>
                </g>
                <g id="Group_15175" data-name="Group 15175">
                  <g id="Group_15173" data-name="Group 15173">
                    <rect id="Rectangle_851" data-name="Rectangle 851" width="2.72" height="4.481" transform="translate(389.746 496.083)" fill="#ffc400"/>
                    <rect id="Rectangle_852" data-name="Rectangle 852" width="11.425" height="0.701" transform="translate(385.394 500.564)" fill="#ffc400"/>
                    <rect id="Rectangle_853" data-name="Rectangle 853" width="12.068" height="0.701" transform="translate(385.072 506.225)" fill="#ffc400"/>
                    <rect id="Rectangle_854" data-name="Rectangle 854" width="10.829" height="0.976" transform="translate(385.692 501.265)" fill="#ffc400"/>
                    <path id="Path_23763" data-name="Path 23763" d="M396.521,506.225H385.692l.644-3.984h9.543Z" fill="#ffc400"/>
                    <path id="Path_23764" data-name="Path 23764" d="M393.966,506.225h-5.718V506.2a4.4,4.4,0,0,1,2.29-3.77l.375-.184h.384l.374.184a4.4,4.4,0,0,1,2.293,3.77Z" fill="#ffc400"/>
                    <path id="Path_23765" data-name="Path 23765" d="M392.679,506.225h-3.144a1.789,1.789,0,1,1,3.144,0Z" fill="#ffc400"/>
                    <path id="Path_23766" data-name="Path 23766" d="M392.391,494.543v.628h-.955v-.628h-.659v.628h-.955v-.628h-.738v1.54h4.046v-1.54Z" fill="#ffc400"/>
                    <rect id="Rectangle_855" data-name="Rectangle 855" width="0.593" height="1.444" transform="translate(390.81 497.283)" fill="#ffc400"/>
                    <rect id="Rectangle_856" data-name="Rectangle 856" width="2.718" height="2.356" transform="translate(393.129 498.208)" fill="#ffc400"/>
                    <path id="Path_23767" data-name="Path 23767" d="M395.774,496.667v.626h-.955v-.626h-.659v.626H393.2v-.626h-.738v1.54h4.046v-1.54Z" fill="#ffc400"/>
                    <rect id="Rectangle_857" data-name="Rectangle 857" width="0.595" height="0.769" transform="translate(394.191 499.002)" fill="#ffc400"/>
                    <rect id="Rectangle_858" data-name="Rectangle 858" width="2.718" height="2.356" transform="translate(386.365 498.208)" fill="#ffc400"/>
                    <path id="Path_23768" data-name="Path 23768" d="M386.439,496.667v.626h.957v-.626h.658v.626h.955v-.626h.738v1.54H385.7v-1.54Z" fill="#ffc400"/>
                    <rect id="Rectangle_859" data-name="Rectangle 859" width="0.595" height="0.769" transform="translate(387.427 499.002)" fill="#ffc400"/>
                  </g>
                  <g id="Group_15174" data-name="Group 15174">
                    <path id="Path_23769" data-name="Path 23769" d="M392.562,500.661h-2.911v-4.674h2.911Zm-2.718-.193h2.525V496.18h-2.525Z"/>
                    <path id="Path_23770" data-name="Path 23770" d="M396.916,501.361H385.3v-.893h11.62Zm-11.426-.191h11.233v-.509H385.49Z"/>
                    <path id="Path_23771" data-name="Path 23771" d="M397.237,507.023H384.976v-.9h12.261Zm-12.069-.194h11.875v-.508H385.168Z"/>
                    <path id="Path_23772" data-name="Path 23772" d="M396.618,502.338H385.6V501.17h11.022Zm-10.83-.192h10.637v-.785H385.788Z"/>
                    <path id="Path_23773" data-name="Path 23773" d="M396.634,506.321H385.578l.675-4.175h9.707Zm-10.829-.193h10.6l-.613-3.79h-9.379Z"/>
                    <path id="Path_23774" data-name="Path 23774" d="M394.067,506.321h-5.921l.006-.13a4.5,4.5,0,0,1,2.345-3.852l.395-.193h.428l.395.193a4.507,4.507,0,0,1,2.346,3.854Zm-5.719-.193h5.518a4.3,4.3,0,0,0-2.235-3.616l-.355-.174h-.338l-.356.174A4.289,4.289,0,0,0,388.348,506.128Z"/>
                    <path id="Path_23775" data-name="Path 23775" d="M392.776,506.321h-3.34l0-.1a3.324,3.324,0,0,1,1.625-2.729l.043-.02.043.02a3.32,3.32,0,0,1,1.626,2.729Zm-3.139-.193h2.938a1.662,1.662,0,1,0-2.938,0Z"/>
                    <path id="Path_23776" data-name="Path 23776" d="M393.227,496.18h-4.24v-1.733h.931v.626h.763v-.626h.85v.626h.764v-.626h.932Zm-4.048-.193h3.854V494.64h-.545v.626H391.34v-.626h-.467v.626h-1.149v-.626h-.545Z"/>
                    <rect id="Rectangle_860" data-name="Rectangle 860" width="0.593" height="1.444" transform="translate(390.81 497.283)"/>
                    <path id="Path_23777" data-name="Path 23777" d="M395.945,500.661h-2.912V498.11h2.912Zm-2.718-.193h2.525V498.3h-2.525Z"/>
                    <path id="Path_23778" data-name="Path 23778" d="M396.608,498.3h-4.239V496.57h.931v.628h.762v-.628h.852v.628h.764v-.628h.93Zm-4.046-.193h3.854v-1.347h-.547v.627h-1.148v-.627h-.465v.627h-1.149v-.627h-.545Z"/>
                    <rect id="Rectangle_861" data-name="Rectangle 861" width="0.595" height="0.769" transform="translate(394.191 499.002)"/>
                    <path id="Path_23779" data-name="Path 23779" d="M389.179,500.661h-2.91V498.11h2.91Zm-2.718-.193h2.526V498.3h-2.526Z"/>
                    <path id="Path_23780" data-name="Path 23780" d="M389.844,498.3h-4.239V496.57h.931v.628h.762v-.628h.852v.628h.762v-.628h.932Zm-4.046-.193h3.853v-1.347h-.545v.627h-1.149v-.627h-.465v.627h-1.149v-.627H385.8Z"/>
                    <rect id="Rectangle_862" data-name="Rectangle 862" width="0.595" height="0.769" transform="translate(387.427 499.002)"/>
                  </g>
                </g>
                <g id="Group_15178" data-name="Group 15178">
                  <g id="Group_15176" data-name="Group 15176">
                    <rect id="Rectangle_863" data-name="Rectangle 863" width="2.719" height="4.48" transform="translate(394.072 529.496) rotate(-44.514)" fill="#ffc400"/>
                    <rect id="Rectangle_864" data-name="Rectangle 864" width="11.427" height="0.702" transform="translate(394.108 535.743) rotate(-44.508)" fill="#ffc400"/>
                    <rect id="Rectangle_865" data-name="Rectangle 865" width="12.067" height="0.701" transform="translate(397.846 540.003) rotate(-44.488)" fill="#ffc400"/>
                    <rect id="Rectangle_866" data-name="Rectangle 866" width="10.829" height="0.976" transform="translate(394.81 536.029) rotate(-44.448)" fill="#ffc400"/>
                    <path id="Path_23781" data-name="Path 23781" d="M406.014,531.979l-7.724,7.591-2.333-3.291,6.805-6.69Z" fill="#ffc400"/>
                    <path id="Path_23782" data-name="Path 23782" d="M404.19,533.77l-4.078,4.009-.02-.022a4.4,4.4,0,0,1-1.008-4.294l.139-.394.273-.269.4-.132a4.408,4.408,0,0,1,4.277,1.081Z" fill="#ffc400"/>
                    <path id="Path_23783" data-name="Path 23783" d="M403.271,534.672l-2.241,2.205a1.789,1.789,0,1,1,2.241-2.205Z" fill="#ffc400"/>
                    <path id="Path_23784" data-name="Path 23784" d="M394.879,526.542l.439.447-.681.67-.44-.447-.47.462.44.446-.682.67-.439-.446-.527.517,1.079,1.1,2.885-2.836-1.079-1.1Z" fill="#ffc400"/>
                    <path id="Path_23785" data-name="Path 23785" d="M397.107,530.219l-.424.418-1.013-1.031.425-.416Z" fill="#ffc400"/>
                    <rect id="Rectangle_867" data-name="Rectangle 867" width="2.719" height="2.357" transform="matrix(0.713, -0.701, 0.701, 0.713, 397.974, 528.639)" fill="#ffc400"/>
                    <path id="Path_23786" data-name="Path 23786" d="M398.78,525.686l.439.447-.681.67-.44-.447-.469.462.44.446-.682.67-.439-.446-.527.517,1.079,1.1,2.885-2.836-1.079-1.1Z" fill="#ffc400"/>
                    <rect id="Rectangle_868" data-name="Rectangle 868" width="0.594" height="0.768" transform="matrix(0.713, -0.701, 0.701, 0.713, 399.288, 528.46)" fill="#ffc400"/>
                    <rect id="Rectangle_869" data-name="Rectangle 869" width="2.719" height="2.358" transform="translate(393.149 533.38) rotate(-44.514)" fill="#ffc400"/>
                    <path id="Path_23787" data-name="Path 23787" d="M392.124,532.23l.439.447.682-.67-.44-.447.47-.461.44.446.681-.67-.439-.446.526-.518,1.079,1.1-2.885,2.836-1.079-1.1Z" fill="#ffc400"/>
                    <rect id="Rectangle_870" data-name="Rectangle 870" width="0.594" height="0.769" transform="translate(394.464 533.202) rotate(-44.502)" fill="#ffc400"/>
                  </g>
                  <g id="Group_15177" data-name="Group 15177">
                    <path id="Path_23788" data-name="Path 23788" d="M399.289,530.786l-2.076,2.041-3.278-3.333,2.078-2.042Zm-2.074,1.769,1.8-1.771-3.006-3.059-1.8,1.77Z"/>
                    <path id="Path_23789" data-name="Path 23789" d="M402.886,528.233l-8.288,8.146-.626-.638,8.287-8.144Zm-8.285,7.873,8.012-7.874-.356-.362-8.012,7.874Z"/>
                    <path id="Path_23790" data-name="Path 23790" d="M407.083,532.046l-8.745,8.594-.627-.636,8.744-8.6Zm-8.743,8.323,8.469-8.325-.356-.363-8.469,8.325Z"/>
                    <path id="Path_23791" data-name="Path 23791" d="M403.357,529.14l-7.861,7.726-.82-.834,7.862-7.727Zm-7.858,7.453,7.585-7.456-.549-.558-7.585,7.456Z"/>
                    <path id="Path_23792" data-name="Path 23792" d="M406.161,531.967l-7.885,7.752-2.446-3.452,6.923-6.8Zm-7.858,7.455,7.561-7.433-3.093-2.274-6.689,6.575Z"/>
                    <path id="Path_23793" data-name="Path 23793" d="M404.33,533.769l-4.223,4.149-.087-.1a4.5,4.5,0,0,1-1.027-4.392l.146-.415.3-.3.417-.137a4.508,4.508,0,0,1,4.375,1.1Zm-4.214,3.871,3.935-3.869a4.3,4.3,0,0,0-4.128-1.011l-.375.124-.243.238-.131.372A4.293,4.293,0,0,0,400.116,537.64Z"/>
                    <path id="Path_23794" data-name="Path 23794" d="M403.41,534.672l-2.383,2.342-.066-.072a3.319,3.319,0,0,1-.755-3.085l.016-.046.045-.014a3.323,3.323,0,0,1,3.072.806Zm-2.374,2.063,2.1-2.058a1.662,1.662,0,1,0-2.1,2.058Z"/>
                    <path id="Path_23795" data-name="Path 23795" d="M396.621,527.124,393.6,530.1l-1.214-1.236.664-.653.439.447.544-.534-.439-.447.607-.6.439.446.545-.535-.441-.446.665-.652Zm-3.021,2.7,2.748-2.7-.943-.961-.39.382.44.447-.82.8-.44-.446-.331.326.439.446-.819.807-.439-.448-.388.382Z"/>
                    <path id="Path_23796" data-name="Path 23796" d="M397.107,530.219l-.424.418-1.013-1.031.425-.416Z"/>
                    <path id="Path_23797" data-name="Path 23797" d="M401.7,528.415l-2.078,2.042-1.788-1.82,2.078-2.041Zm-2.075,1.769,1.8-1.771-1.518-1.544-1.8,1.77Z"/>
                    <path id="Path_23798" data-name="Path 23798" d="M400.522,526.268,397.5,529.24,396.285,528l.662-.652.44.447.544-.535-.439-.447.607-.6.439.446.545-.534-.44-.446.664-.653Zm-3.021,2.7,2.748-2.7-.944-.961-.389.383.44.447-.82.8-.44-.445-.331.326.439.446-.819.806-.439-.447-.388.382Z"/>
                    <rect id="Rectangle_871" data-name="Rectangle 871" width="0.594" height="0.768" transform="matrix(0.713, -0.701, 0.701, 0.713, 399.288, 528.46)"/>
                    <path id="Path_23799" data-name="Path 23799" d="M396.877,533.157,394.8,535.2l-1.788-1.819,2.077-2.041Zm-2.073,1.768,1.8-1.771-1.518-1.543-1.8,1.771Z"/>
                    <path id="Path_23800" data-name="Path 23800" d="M395.7,531.01l-3.024,2.973-1.213-1.236.663-.653.44.446.543-.534-.438-.448.606-.6.439.447.545-.535-.44-.447.664-.652Zm-3.021,2.7,2.748-2.7-.945-.959-.388.382.44.446-.82.806-.44-.447-.33.326.438.447-.819.8-.439-.447-.39.382Z"/>
                    <rect id="Rectangle_872" data-name="Rectangle 872" width="0.594" height="0.769" transform="translate(394.464 533.202) rotate(-44.502)"/>
                  </g>
                </g>
                <g id="Group_15181" data-name="Group 15181">
                  <g id="Group_15179" data-name="Group 15179">
                    <rect id="Rectangle_873" data-name="Rectangle 873" width="4.481" height="2.719" transform="matrix(0.701, -0.713, 0.713, 0.701, 441.923, 530.784)" fill="#ffc400"/>
                    <path id="Path_23801" data-name="Path 23801" d="M438.328,528.233l8.149,8.01.49-.5-8.149-8.01Z" fill="#ffc400"/>
                    <rect id="Rectangle_874" data-name="Rectangle 874" width="0.701" height="12.067" transform="translate(434.123 532.054) rotate(-45.603)" fill="#ffc400"/>
                    <rect id="Rectangle_875" data-name="Rectangle 875" width="0.976" height="10.829" transform="translate(437.856 529.137) rotate(-45.487)" fill="#ffc400"/>
                    <path id="Path_23802" data-name="Path 23802" d="M435.063,531.979l7.724,7.591,2.333-3.291-6.805-6.69Z" fill="#ffc400"/>
                    <path id="Path_23803" data-name="Path 23803" d="M436.887,533.77l4.076,4.009.021-.022a4.4,4.4,0,0,0,1.008-4.294l-.138-.394-.274-.269-.395-.132a4.41,4.41,0,0,0-4.278,1.081Z" fill="#ffc400"/>
                    <path id="Path_23804" data-name="Path 23804" d="M437.8,534.672l2.243,2.205a1.79,1.79,0,1,0-2.243-2.205Z" fill="#ffc400"/>
                    <path id="Path_23805" data-name="Path 23805" d="M446.2,526.542l-.439.447.681.67.44-.447.47.462-.44.446.682.67.439-.446.527.517-1.079,1.1-2.887-2.836,1.079-1.1Z" fill="#ffc400"/>
                    <rect id="Rectangle_876" data-name="Rectangle 876" width="1.444" height="0.595" transform="translate(443.968 530.219) rotate(-45.496)" fill="#ffc400"/>
                    <rect id="Rectangle_877" data-name="Rectangle 877" width="2.357" height="2.719" transform="translate(439.512 528.413) rotate(-45.486)" fill="#ffc400"/>
                    <path id="Path_23806" data-name="Path 23806" d="M442.3,525.686l-.44.447.682.67.44-.447.47.462-.44.446.682.67.439-.446.527.517-1.079,1.1-2.887-2.836,1.079-1.1Z" fill="#ffc400"/>
                    <rect id="Rectangle_878" data-name="Rectangle 878" width="0.768" height="0.594" transform="translate(440.826 528.592) rotate(-45.498)" fill="#ffc400"/>
                    <rect id="Rectangle_879" data-name="Rectangle 879" width="2.358" height="2.719" transform="translate(444.335 533.155) rotate(-45.486)" fill="#ffc400"/>
                    <path id="Path_23807" data-name="Path 23807" d="M448.953,532.23l-.439.447-.682-.67.44-.447-.47-.461-.44.446-.681-.67.439-.446-.526-.518-1.081,1.1,2.887,2.836,1.079-1.1Z" fill="#ffc400"/>
                    <rect id="Rectangle_880" data-name="Rectangle 880" width="0.77" height="0.594" transform="translate(445.65 533.334) rotate(-45.498)" fill="#ffc400"/>
                  </g>
                  <g id="Group_15180" data-name="Group 15180">
                    <path id="Path_23808" data-name="Path 23808" d="M445.064,527.452l2.076,2.042-3.277,3.333-2.076-2.041Zm1.8,2.043-1.8-1.77-3.006,3.059,1.8,1.771Z"/>
                    <path id="Path_23809" data-name="Path 23809" d="M438.818,527.6l8.286,8.144-.628.638-8.286-8.146Zm8.013,8.147-8.012-7.874-.355.362,8.011,7.874Z"/>
                    <path id="Path_23810" data-name="Path 23810" d="M434.621,531.409l8.745,8.6-.628.636-8.744-8.594Zm8.471,8.6-8.469-8.325-.356.363,8.47,8.325Z"/>
                    <path id="Path_23811" data-name="Path 23811" d="M438.539,528.3l7.861,7.727-.82.834-7.861-7.726Zm7.588,7.73-7.585-7.456-.55.558,7.586,7.456Z"/>
                    <path id="Path_23812" data-name="Path 23812" d="M438.323,529.463l6.924,6.8-2.447,3.452-7.885-7.752Zm6.671,6.827-6.689-6.575-3.093,2.274,7.561,7.433Z"/>
                    <path id="Path_23813" data-name="Path 23813" d="M436.841,533.68a4.5,4.5,0,0,1,4.373-1.1l.418.137.306.3.146.415a4.5,4.5,0,0,1-1.029,4.392l-.087.1-4.222-4.149Zm5.061-.186-.131-.372-.242-.238-.375-.124a4.3,4.3,0,0,0-4.129,1.011l3.935,3.869A4.293,4.293,0,0,0,441.9,533.494Z"/>
                    <path id="Path_23814" data-name="Path 23814" d="M437.737,534.6a3.324,3.324,0,0,1,3.073-.806l.044.014.016.046a3.322,3.322,0,0,1-.754,3.085l-.068.072-2.382-2.342Zm2.966-.638a3.068,3.068,0,0,0-2.758.712l2.1,2.058A3.064,3.064,0,0,0,440.7,533.965Z"/>
                    <path id="Path_23815" data-name="Path 23815" d="M445.67,525.89l.663.652-.438.446.543.535.44-.446.607.6-.439.447.544.534.438-.447.665.653-1.215,1.236-3.023-2.973Zm2.75,2.973-.389-.382-.438.448-.82-.807.439-.446-.332-.326-.439.446-.819-.8.44-.447-.39-.382-.944.961,2.748,2.7Z"/>
                    <rect id="Rectangle_881" data-name="Rectangle 881" width="1.444" height="0.595" transform="translate(443.968 530.219) rotate(-45.496)"/>
                    <path id="Path_23816" data-name="Path 23816" d="M441.163,526.6l2.076,2.041-1.787,1.82-2.078-2.042Zm1.8,2.043-1.8-1.77-1.517,1.544,1.8,1.771Z"/>
                    <path id="Path_23817" data-name="Path 23817" d="M441.769,525.033l.663.653-.438.446.543.534.44-.446.607.6-.439.447.544.535.438-.447.665.652-1.215,1.236-3.023-2.972Zm2.75,2.974-.389-.382-.438.447-.82-.806.439-.446-.332-.326-.439.445-.819-.8.44-.447-.39-.383-.944.961,2.748,2.7Z"/>
                    <rect id="Rectangle_882" data-name="Rectangle 882" width="0.768" height="0.594" transform="translate(440.826 528.592) rotate(-45.498)"/>
                    <path id="Path_23818" data-name="Path 23818" d="M445.986,531.338l2.078,2.041-1.788,1.819-2.078-2.041Zm1.8,2.044-1.8-1.771-1.518,1.543,1.8,1.771Z"/>
                    <path id="Path_23819" data-name="Path 23819" d="M446.593,529.775l.663.652-.438.447.543.535.44-.447.607.6-.439.448.544.534.438-.446.665.653-1.214,1.236-3.024-2.973Zm2.75,2.973-.389-.382-.438.447-.82-.8.439-.447-.332-.326-.439.447-.819-.806.439-.446-.389-.382-.944.959,2.748,2.7Z"/>
                    <rect id="Rectangle_883" data-name="Rectangle 883" width="0.77" height="0.594" transform="translate(445.65 533.334) rotate(-45.498)"/>
                  </g>
                </g>
                <g id="Group_15184" data-name="Group 15184">
                  <g id="Group_15182" data-name="Group 15182">
                    <rect id="Rectangle_884" data-name="Rectangle 884" width="2.718" height="4.481" transform="translate(448.61 466.229)" fill="#ffc400"/>
                    <rect id="Rectangle_885" data-name="Rectangle 885" width="11.427" height="0.701" transform="translate(444.256 470.71)" fill="#ffc400"/>
                    <rect id="Rectangle_886" data-name="Rectangle 886" width="12.069" height="0.701" transform="translate(443.935 476.371)" fill="#ffc400"/>
                    <rect id="Rectangle_887" data-name="Rectangle 887" width="10.83" height="0.976" transform="translate(444.554 471.411)" fill="#ffc400"/>
                    <path id="Path_23820" data-name="Path 23820" d="M444.554,476.371h10.83l-.644-3.984H445.2Z" fill="#ffc400"/>
                    <path id="Path_23821" data-name="Path 23821" d="M447.11,476.371h5.719l0-.029a4.4,4.4,0,0,0-2.29-3.77l-.376-.185h-.383l-.375.185a4.407,4.407,0,0,0-2.292,3.77Z" fill="#ffc400"/>
                    <path id="Path_23822" data-name="Path 23822" d="M448.4,476.371h3.143a1.789,1.789,0,1,0-3.143,0Z" fill="#ffc400"/>
                    <path id="Path_23823" data-name="Path 23823" d="M448.686,464.689v.627h.955v-.627h.658v.627h.955v-.627h.738v1.54h-4.046v-1.54Z" fill="#ffc400"/>
                    <rect id="Rectangle_888" data-name="Rectangle 888" width="0.595" height="1.444" transform="translate(449.672 467.429)" fill="#ffc400"/>
                    <rect id="Rectangle_889" data-name="Rectangle 889" width="2.72" height="2.356" transform="translate(445.227 468.353)" fill="#ffc400"/>
                    <path id="Path_23824" data-name="Path 23824" d="M445.3,466.813v.626h.955v-.626h.658v.626h.955v-.626h.738v1.54h-4.046v-1.54Z" fill="#ffc400"/>
                    <rect id="Rectangle_890" data-name="Rectangle 890" width="0.593" height="0.769" transform="translate(446.29 469.148)" fill="#ffc400"/>
                    <rect id="Rectangle_891" data-name="Rectangle 891" width="2.718" height="2.356" transform="translate(451.993 468.353)" fill="#ffc400"/>
                    <path id="Path_23825" data-name="Path 23825" d="M454.637,466.813v.626h-.957v-.626h-.658v.626h-.955v-.626h-.738v1.54h4.046v-1.54Z" fill="#ffc400"/>
                    <rect id="Rectangle_892" data-name="Rectangle 892" width="0.595" height="0.769" transform="translate(453.055 469.148)" fill="#ffc400"/>
                  </g>
                  <g id="Group_15183" data-name="Group 15183">
                    <path id="Path_23826" data-name="Path 23826" d="M448.514,466.133h2.912v4.674h-2.912Zm2.718.193h-2.526v4.288h2.526Z"/>
                    <path id="Path_23827" data-name="Path 23827" d="M444.16,470.614h11.62v.893H444.16Zm11.427.193H444.353v.508h11.234Z"/>
                    <path id="Path_23828" data-name="Path 23828" d="M443.84,476.275H456.1v.893H443.84Zm12.067.192H444.033v.508h11.874Z"/>
                    <path id="Path_23829" data-name="Path 23829" d="M444.458,471.315h11.023v1.168H444.458Zm10.829.192H444.652v.784h10.635Z"/>
                    <path id="Path_23830" data-name="Path 23830" d="M445.115,472.291h9.708l.675,4.176H444.442Zm9.545.192h-9.379l-.613,3.792h10.6Z"/>
                    <path id="Path_23831" data-name="Path 23831" d="M447.015,476.338a4.506,4.506,0,0,1,2.347-3.853l.394-.194h.428l.4.194a4.5,4.5,0,0,1,2.343,3.852l.006.13H447.01Zm3.479-3.681-.356-.174H449.8l-.354.174a4.3,4.3,0,0,0-2.236,3.618h5.518A4.294,4.294,0,0,0,450.494,472.657Z"/>
                    <path id="Path_23832" data-name="Path 23832" d="M448.3,476.368a3.321,3.321,0,0,1,1.625-2.729l.043-.02.041.02a3.32,3.32,0,0,1,1.626,2.729l0,.1H448.3Zm1.668-2.534a3.07,3.07,0,0,0-1.469,2.441h2.937A3.068,3.068,0,0,0,449.97,473.834Z"/>
                    <path id="Path_23833" data-name="Path 23833" d="M447.85,464.593h.932v.626h.761v-.626h.852v.626h.764v-.626h.93v1.733H447.85Zm4.047.193h-.546v.626H450.2v-.626h-.465v.626h-1.149v-.626h-.545v1.347H451.9Z"/>
                    <rect id="Rectangle_893" data-name="Rectangle 893" width="0.595" height="1.444" transform="translate(449.672 467.429)"/>
                    <path id="Path_23834" data-name="Path 23834" d="M445.131,468.256h2.912v2.551h-2.912Zm2.719.193h-2.525v2.165h2.525Z"/>
                    <path id="Path_23835" data-name="Path 23835" d="M444.469,466.717h.93v.626h.763v-.626h.851v.626h.763v-.626h.93v1.732h-4.237Zm4.045.192h-.545v.626h-1.148v-.626h-.467v.626H445.2v-.626h-.544v1.347h3.853Z"/>
                    <rect id="Rectangle_894" data-name="Rectangle 894" width="0.593" height="0.769" transform="translate(446.29 469.148)"/>
                    <path id="Path_23836" data-name="Path 23836" d="M451.9,468.256h2.911v2.551H451.9Zm2.719.193h-2.526v2.165h2.526Z"/>
                    <path id="Path_23837" data-name="Path 23837" d="M451.232,466.717h.931v.626h.763v-.626h.852v.626h.762v-.626h.932v1.732h-4.24Zm4.046.192h-.545v.626h-1.148v-.626h-.465v.626h-1.149v-.626h-.547v1.347h3.854Z"/>
                    <rect id="Rectangle_895" data-name="Rectangle 895" width="0.595" height="0.769" transform="translate(453.055 469.148)"/>
                  </g>
                </g>
                <g id="Group_15187" data-name="Group 15187">
                  <g id="Group_15185" data-name="Group 15185">
                    <rect id="Rectangle_896" data-name="Rectangle 896" width="2.718" height="4.481" transform="translate(448.61 496.083)" fill="#ffc400"/>
                    <rect id="Rectangle_897" data-name="Rectangle 897" width="11.427" height="0.701" transform="translate(444.256 500.564)" fill="#ffc400"/>
                    <rect id="Rectangle_898" data-name="Rectangle 898" width="12.069" height="0.701" transform="translate(443.935 506.225)" fill="#ffc400"/>
                    <rect id="Rectangle_899" data-name="Rectangle 899" width="10.83" height="0.976" transform="translate(444.554 501.265)" fill="#ffc400"/>
                    <path id="Path_23838" data-name="Path 23838" d="M444.554,506.225h10.83l-.644-3.984H445.2Z" fill="#ffc400"/>
                    <path id="Path_23839" data-name="Path 23839" d="M447.11,506.225h5.719l0-.029a4.4,4.4,0,0,0-2.29-3.77l-.376-.184h-.383l-.375.184a4.407,4.407,0,0,0-2.292,3.77Z" fill="#ffc400"/>
                    <path id="Path_23840" data-name="Path 23840" d="M448.4,506.225h3.143a1.789,1.789,0,1,0-3.143,0Z" fill="#ffc400"/>
                    <path id="Path_23841" data-name="Path 23841" d="M448.686,494.543v.628h.955v-.628h.658v.628h.955v-.628h.738v1.54h-4.046v-1.54Z" fill="#ffc400"/>
                    <rect id="Rectangle_900" data-name="Rectangle 900" width="0.595" height="1.444" transform="translate(449.672 497.283)" fill="#ffc400"/>
                    <rect id="Rectangle_901" data-name="Rectangle 901" width="2.72" height="2.356" transform="translate(445.227 498.208)" fill="#ffc400"/>
                    <path id="Path_23842" data-name="Path 23842" d="M445.3,496.667v.626h.955v-.626h.658v.626h.955v-.626h.738v1.54h-4.046v-1.54Z" fill="#ffc400"/>
                    <rect id="Rectangle_902" data-name="Rectangle 902" width="0.593" height="0.769" transform="translate(446.29 499.002)" fill="#ffc400"/>
                    <rect id="Rectangle_903" data-name="Rectangle 903" width="2.718" height="2.356" transform="translate(451.993 498.208)" fill="#ffc400"/>
                    <path id="Path_23843" data-name="Path 23843" d="M454.637,496.667v.626h-.957v-.626h-.658v.626h-.955v-.626h-.738v1.54h4.046v-1.54Z" fill="#ffc400"/>
                    <rect id="Rectangle_904" data-name="Rectangle 904" width="0.595" height="0.769" transform="translate(453.055 499.002)" fill="#ffc400"/>
                  </g>
                  <g id="Group_15186" data-name="Group 15186">
                    <path id="Path_23844" data-name="Path 23844" d="M448.514,495.987h2.912v4.674h-2.912Zm2.718.193h-2.526v4.288h2.526Z"/>
                    <path id="Path_23845" data-name="Path 23845" d="M444.16,500.468h11.62v.893H444.16Zm11.427.193H444.353v.509h11.234Z"/>
                    <path id="Path_23846" data-name="Path 23846" d="M443.84,506.128H456.1v.9H443.84Zm12.067.193H444.033v.508h11.874Z"/>
                    <path id="Path_23847" data-name="Path 23847" d="M444.458,501.17h11.023v1.168H444.458Zm10.829.191H444.652v.785h10.635Z"/>
                    <path id="Path_23848" data-name="Path 23848" d="M445.115,502.146h9.708l.675,4.175H444.442Zm9.545.192h-9.379l-.613,3.79h10.6Z"/>
                    <path id="Path_23849" data-name="Path 23849" d="M447.015,506.193a4.506,4.506,0,0,1,2.347-3.854l.394-.193h.428l.4.193a4.5,4.5,0,0,1,2.343,3.852l.006.13H447.01Zm3.479-3.681-.356-.174H449.8l-.354.174a4.3,4.3,0,0,0-2.236,3.616h5.518A4.291,4.291,0,0,0,450.494,502.512Z"/>
                    <path id="Path_23850" data-name="Path 23850" d="M448.3,506.222a3.321,3.321,0,0,1,1.625-2.729l.043-.02.041.02a3.32,3.32,0,0,1,1.626,2.729l0,.1H448.3Zm1.668-2.534a3.07,3.07,0,0,0-1.469,2.44h2.937A3.068,3.068,0,0,0,449.97,503.688Z"/>
                    <path id="Path_23851" data-name="Path 23851" d="M447.85,494.447h.932v.626h.761v-.626h.852v.626h.764v-.626h.93v1.733H447.85Zm4.047.193h-.546v.626H450.2v-.626h-.465v.626h-1.149v-.626h-.545v1.347H451.9Z"/>
                    <rect id="Rectangle_905" data-name="Rectangle 905" width="0.595" height="1.444" transform="translate(449.672 497.283)"/>
                    <path id="Path_23852" data-name="Path 23852" d="M445.131,498.11h2.912v2.551h-2.912Zm2.719.193h-2.525v2.165h2.525Z"/>
                    <path id="Path_23853" data-name="Path 23853" d="M444.469,496.57h.93v.628h.763v-.628h.851v.628h.763v-.628h.93V498.3h-4.237Zm4.045.193h-.545v.627h-1.148v-.627h-.467v.627H445.2v-.627h-.544v1.347h3.853Z"/>
                    <rect id="Rectangle_906" data-name="Rectangle 906" width="0.593" height="0.769" transform="translate(446.29 499.002)"/>
                    <path id="Path_23854" data-name="Path 23854" d="M451.9,498.11h2.911v2.551H451.9Zm2.719.193h-2.526v2.165h2.526Z"/>
                    <path id="Path_23855" data-name="Path 23855" d="M451.232,496.57h.931v.628h.763v-.628h.852v.628h.762v-.628h.932V498.3h-4.24Zm4.046.193h-.545v.627h-1.148v-.627h-.465v.627h-1.149v-.627h-.547v1.347h3.854Z"/>
                    <rect id="Rectangle_907" data-name="Rectangle 907" width="0.595" height="0.769" transform="translate(453.055 499.002)"/>
                  </g>
                </g>
                <g id="Group_15190" data-name="Group 15190">
                  <g id="Group_15188" data-name="Group 15188">
                    <rect id="Rectangle_908" data-name="Rectangle 908" width="2.718" height="4.481" transform="translate(419.178 466.229)" fill="#ffc400"/>
                    <rect id="Rectangle_909" data-name="Rectangle 909" width="11.427" height="0.701" transform="translate(414.824 470.71)" fill="#ffc400"/>
                    <rect id="Rectangle_910" data-name="Rectangle 910" width="12.069" height="0.701" transform="translate(414.504 476.371)" fill="#ffc400"/>
                    <rect id="Rectangle_911" data-name="Rectangle 911" width="10.83" height="0.976" transform="translate(415.122 471.411)" fill="#ffc400"/>
                    <path id="Path_23856" data-name="Path 23856" d="M415.122,476.371h10.83l-.644-3.984h-9.543Z" fill="#ffc400"/>
                    <path id="Path_23857" data-name="Path 23857" d="M417.678,476.371H423.4l0-.029a4.4,4.4,0,0,0-2.29-3.77l-.376-.185h-.383l-.375.185a4.407,4.407,0,0,0-2.292,3.77Z" fill="#ffc400"/>
                    <path id="Path_23858" data-name="Path 23858" d="M418.966,476.371h3.143a1.789,1.789,0,1,0-3.143,0Z" fill="#ffc400"/>
                    <path id="Path_23859" data-name="Path 23859" d="M419.252,464.689v.627h.957v-.627h.658v.627h.955v-.627h.738v1.54h-4.047v-1.54Z" fill="#ffc400"/>
                    <rect id="Rectangle_912" data-name="Rectangle 912" width="0.595" height="1.444" transform="translate(420.24 467.429)" fill="#ffc400"/>
                    <rect id="Rectangle_913" data-name="Rectangle 913" width="2.718" height="2.356" transform="translate(415.795 468.353)" fill="#ffc400"/>
                    <path id="Path_23860" data-name="Path 23860" d="M415.871,466.813v.626h.955v-.626h.658v.626h.955v-.626h.738v1.54h-4.046v-1.54Z" fill="#ffc400"/>
                    <rect id="Rectangle_914" data-name="Rectangle 914" width="0.595" height="0.769" transform="translate(416.857 469.148)" fill="#ffc400"/>
                    <rect id="Rectangle_915" data-name="Rectangle 915" width="2.72" height="2.356" transform="translate(422.56 468.353)" fill="#ffc400"/>
                    <path id="Path_23861" data-name="Path 23861" d="M425.2,466.813v.626h-.955v-.626h-.659v.626h-.955v-.626H421.9v1.54h4.046v-1.54Z" fill="#ffc400"/>
                    <rect id="Rectangle_916" data-name="Rectangle 916" width="0.593" height="0.769" transform="translate(423.623 469.148)" fill="#ffc400"/>
                  </g>
                  <g id="Group_15189" data-name="Group 15189">
                    <path id="Path_23862" data-name="Path 23862" d="M419.082,466.133h2.912v4.674h-2.912Zm2.719.193h-2.527v4.288H421.8Z"/>
                    <path id="Path_23863" data-name="Path 23863" d="M414.728,470.614h11.619v.893H414.728Zm11.427.193H414.92v.508h11.235Z"/>
                    <path id="Path_23864" data-name="Path 23864" d="M414.408,476.275h12.261v.893H414.408Zm12.067.192H414.6v.508h11.874Z"/>
                    <path id="Path_23865" data-name="Path 23865" d="M415.026,471.315h11.023v1.168H415.026Zm10.829.192H415.22v.784h10.635Z"/>
                    <path id="Path_23866" data-name="Path 23866" d="M415.683,472.291h9.709l.673,4.176H415.01Zm9.543.192h-9.379l-.611,3.792h10.6Z"/>
                    <path id="Path_23867" data-name="Path 23867" d="M417.583,476.338a4.505,4.505,0,0,1,2.345-3.853l.395-.194h.428l.395.194a4.5,4.5,0,0,1,2.345,3.852l.006.13h-5.919Zm3.479-3.681-.356-.174h-.338l-.354.174a4.3,4.3,0,0,0-2.235,3.618H423.3A4.292,4.292,0,0,0,421.062,472.657Z"/>
                    <path id="Path_23868" data-name="Path 23868" d="M418.87,476.368a3.321,3.321,0,0,1,1.625-2.729l.042-.02.043.02a3.321,3.321,0,0,1,1.625,2.729l0,.1h-3.341Zm1.667-2.534a3.068,3.068,0,0,0-1.468,2.441h2.937A3.067,3.067,0,0,0,420.537,473.834Z"/>
                    <path id="Path_23869" data-name="Path 23869" d="M418.418,464.593h.932v.626h.761v-.626h.852v.626h.764v-.626h.93v1.733h-4.239Zm4.046.193h-.545v.626H420.77v-.626H420.3v.626h-1.149v-.626h-.545v1.347h3.853Z"/>
                    <rect id="Rectangle_917" data-name="Rectangle 917" width="0.595" height="1.444" transform="translate(420.24 467.429)"/>
                    <path id="Path_23870" data-name="Path 23870" d="M415.7,468.256h2.912v2.551H415.7Zm2.719.193h-2.525v2.165h2.525Z"/>
                    <path id="Path_23871" data-name="Path 23871" d="M415.035,466.717h.932v.626h.763v-.626h.851v.626h.763v-.626h.93v1.732h-4.239Zm4.047.192h-.546v.626h-1.149v-.626h-.465v.626h-1.149v-.626h-.544v1.347h3.853Z"/>
                    <rect id="Rectangle_918" data-name="Rectangle 918" width="0.595" height="0.769" transform="translate(416.857 469.148)"/>
                    <path id="Path_23872" data-name="Path 23872" d="M422.464,468.256h2.911v2.551h-2.911Zm2.718.193h-2.525v2.165h2.525Z"/>
                    <path id="Path_23873" data-name="Path 23873" d="M421.8,466.717h.93v.626h.763v-.626h.851v.626h.763v-.626h.932v1.732H421.8Zm4.045.192H425.3v.626h-1.148v-.626h-.467v.626h-1.149v-.626h-.544v1.347h3.853Z"/>
                    <rect id="Rectangle_919" data-name="Rectangle 919" width="0.593" height="0.769" transform="translate(423.623 469.148)"/>
                  </g>
                </g>
              </g>
            </g>
          </g>
        </g>
      </g>
    </g>
  </g>
</svg>
