<svg xmlns="http://www.w3.org/2000/svg" xmlns:xlink="http://www.w3.org/1999/xlink" width="419.51" height="289.166" viewBox="0 0 419.51 289.166">
  <defs>
    <linearGradient id="linear-gradient" y1="0.5" x2="1" y2="0.5" gradientUnits="objectBoundingBox">
      <stop offset="0" stop-color="#dab264"/>
      <stop offset="0.482" stop-color="#be895f"/>
      <stop offset="1" stop-color="#996a45"/>
    </linearGradient>
    <clipPath id="clip-path">
      <path id="Path_25275" data-name="Path 25275" d="M528.647,117.1a1819.437,1819.437,0,0,0-378.629,0A576.1,576.1,0,0,0,135.97,245.417a576.1,576.1,0,0,0,14.048,128.314,1823.376,1823.376,0,0,0,189.315,9.877,1823.356,1823.356,0,0,0,189.314-9.877A576.1,576.1,0,0,0,542.7,245.417,576.1,576.1,0,0,0,528.647,117.1Z" fill="none"/>
    </clipPath>
  </defs>
  <g id="Group_7878" data-name="Group 7878" transform="translate(-129.578 -101.434)">
    <path id="Path_24035" data-name="Path 24035" d="M339.325,390.6a1837.519,1837.519,0,0,1-189.978-9.912l-4.546-.479-1.016-4.459a585.269,585.269,0,0,1-14.207-129.732,585.258,585.258,0,0,1,14.207-129.733l1.016-4.459,4.546-.479a1825.519,1825.519,0,0,1,379.971,0l4.547.479,1.016,4.459a585.316,585.316,0,0,1,14.207,129.733A585.327,585.327,0,0,1,534.881,375.75l-1.016,4.459-4.547.479A1837.485,1837.485,0,0,1,339.341,390.6Z" fill="url(#linear-gradient)"/>
    <g id="Group_7877" data-name="Group 7877">
      <g id="Group_7876" data-name="Group 7876" clip-path="url(#clip-path)">
        <g id="Group_7875" data-name="Group 7875">
          <g id="Group_7865" data-name="Group 7865">
            <path id="Path_25200" data-name="Path 25200" d="M44,387.392H839V292.512H44v94.879Z" fill="#fff"/>
            <path id="Path_25201" data-name="Path 25201" d="M44,197.638H839v94.874H44V197.638Z" fill="#0437a0"/>
            <path id="Path_25202" data-name="Path 25202" d="M44,197.638H839V102.757H44v94.881Z" fill="#e60000"/>
          </g>
          <g id="Group_7874" data-name="Group 7874">
            <g id="Group_7868" data-name="Group 7868">
              <g id="Group_7866" data-name="Group 7866">
                <path id="Path_25203" data-name="Path 25203" d="M260.819,131.7v2.893h-2.894A3.889,3.889,0,0,1,260.819,131.7Z" fill="#0437a0"/>
                <path id="Path_25204" data-name="Path 25204" d="M265.515,134.588h-2.9V131.7A3.905,3.905,0,0,1,265.515,134.588Z" fill="#0437a0"/>
                <path id="Path_25205" data-name="Path 25205" d="M260.819,136.381v2.9a3.886,3.886,0,0,1-2.894-2.9Z" fill="#0437a0"/>
                <path id="Path_25206" data-name="Path 25206" d="M265.515,136.381a3.9,3.9,0,0,1-2.9,2.9v-2.9Z" fill="#0437a0"/>
                <path id="Path_25207" data-name="Path 25207" d="M269.481,134.591v1.791h-6.859v7.458a1.809,1.809,0,0,0-1.8,0v-7.458h-6.859v-1.791h6.859v-7.373h1.8v7.373Z" fill="#ffc400"/>
              </g>
              <path id="Path_25208" data-name="Path 25208" d="M306.6,173.972a12.825,12.825,0,0,1-1.107,4.431,2.226,2.226,0,1,0-2.331,3.536,13.138,13.138,0,0,1-2.47,2.109l.029-.2H222.726l.029.2a13.3,13.3,0,0,1-2.474-2.113,2.225,2.225,0,1,0-2.331-3.54,12.784,12.784,0,0,1-1.109-4.427,13.171,13.171,0,0,1,15.02-13.948,16.266,16.266,0,0,1,1.952-2.167,2.615,2.615,0,0,0,.819,1.336,2.877,2.877,0,0,1,1.28-.295,2.921,2.921,0,0,1,1.83.64,2.692,2.692,0,0,0,.64-4.216,2.377,2.377,0,0,0-.353-.315,16.389,16.389,0,0,1,17.945,2.711,8.462,8.462,0,0,0,1.9,1.3.954.954,0,0,0-.009.16,3.854,3.854,0,1,0,7.707,0,1.073,1.073,0,0,0-.008-.16,8.485,8.485,0,0,0,1.9-1.3,16.389,16.389,0,0,1,17.945-2.711,2.389,2.389,0,0,0-.355.315,2.693,2.693,0,0,0,.642,4.216,2.919,2.919,0,0,1,1.83-.64,2.881,2.881,0,0,1,1.28.295,2.607,2.607,0,0,0,.818-1.336,16.344,16.344,0,0,1,1.953,2.167A13.169,13.169,0,0,1,306.6,173.972Z" fill="#eba400"/>
              <path id="Path_25209" data-name="Path 25209" d="M300.718,183.853l-.029.195L298.61,197.7H224.834l-2.079-13.645-.029-.2Z" fill="#ffc400"/>
              <path id="Path_25210" data-name="Path 25210" d="M269.932,175.216s.881,1.935,1.112,2.728c0,0-2.136,1.066-7.773-2.9a2.225,2.225,0,1,0-3.1,0c-5.636,3.967-7.774,2.9-7.774,2.9.233-.793,1.114-2.728,1.114-2.728-.974-.035-2.416-2.378-2.416-2.378.278-.792,2.648-2.647,2.648-2.647-1.113-.65-1.02-3.019-1.02-3.019,2.09-.219,5.825,2.331,6.268,2.639-3.486-2.593-3.255-8.177-3.255-8.177s2.648.016,3.014,0a3.849,3.849,0,0,0,5.944,0c.367.016,3.014,0,3.014,0s.233,5.584-3.253,8.177c.442-.308,4.177-2.858,6.268-2.639,0,0,.093,2.369-1.02,3.019,0,0,2.368,1.855,2.646,2.647C272.346,172.838,270.9,175.181,269.932,175.216Z" fill="#ffc400"/>
              <path id="Path_25211" data-name="Path 25211" d="M235.206,191.512a2.168,2.168,0,0,1-.156.814,2.223,2.223,0,0,1-2.07,1.417,2.174,2.174,0,0,1-1.16-.33,2.226,2.226,0,1,1,3.386-1.9Z" fill="#0437a0"/>
              <path id="Path_25212" data-name="Path 25212" d="M253.32,191.512a2.168,2.168,0,0,1-.156.814,2.223,2.223,0,0,1-2.069,1.417,2.166,2.166,0,0,1-1.16-.33,2.226,2.226,0,1,1,3.385-1.9Z" fill="#e60000"/>
              <path id="Path_25213" data-name="Path 25213" d="M288.233,191.512a2.188,2.188,0,0,0,.156.814,2.223,2.223,0,0,0,2.07,1.417,2.165,2.165,0,0,0,1.159-.33,2.226,2.226,0,1,0-3.385-1.9Z" fill="#e60000"/>
              <path id="Path_25214" data-name="Path 25214" d="M270.118,191.512a2.17,2.17,0,0,0,.158.814,2.22,2.22,0,0,0,2.069,1.417,2.16,2.16,0,0,0,1.159-.33,2.226,2.226,0,1,0-3.386-1.9Z" fill="#0437a0"/>
              <path id="Path_25215" data-name="Path 25215" d="M244.4,176.076s.843,1.64,1.088,2.31c0,0-2.079,1.029-6.513-1.653a2.191,2.191,0,0,0,.156-.813,2.228,2.228,0,1,0-3.386,1.9c-2.9,2.656-4.358,2.074-4.358,2.074.021-.7.324-2.487.324-2.487-.771.05-2.41-1.977-2.41-1.977a9.611,9.611,0,0,1,1.558-2.745c-1.049-.544-1.512-2.933-1.512-2.933,1.652-.38,5.087,1.745,5.665,2.106-3.339-2.335-4.367-8.308-4.367-8.308s2.319-.189,2.635-.24a4.461,4.461,0,0,0,.346.354,2.931,2.931,0,0,0,5.053-.843c.675-.05,2.357-.22,2.357-.22s.919,5.975-1.568,8.85c.316-.339,3.019-3.2,4.751-3.141,0,0,.316,2.364-.507,3.089a11.331,11.331,0,0,1,2.332,2.31S245.136,175.97,244.4,176.076Z" fill="#ffc400"/>
              <path id="Path_25216" data-name="Path 25216" d="M279.041,176.076s-.843,1.64-1.088,2.31c0,0,2.079,1.029,6.513-1.653a2.228,2.228,0,1,1,3.23,1.088c2.9,2.656,4.359,2.074,4.359,2.074-.021-.7-.324-2.487-.324-2.487.771.05,2.41-1.977,2.41-1.977a9.606,9.606,0,0,0-1.56-2.745c1.051-.544,1.514-2.933,1.514-2.933-1.653-.38-5.088,1.745-5.665,2.106,3.338-2.335,4.367-8.308,4.367-8.308s-2.319-.189-2.635-.24a4.643,4.643,0,0,1-.346.354,2.933,2.933,0,0,1-5.055-.843c-.673-.05-2.356-.22-2.356-.22s-.918,5.975,1.569,8.85c-.316-.339-3.019-3.2-4.752-3.141,0,0-.316,2.364.506,3.089a11.307,11.307,0,0,0-2.331,2.31S278.3,175.97,279.041,176.076Z" fill="#ffc400"/>
              <g id="Group_7867" data-name="Group 7867">
                <path id="Path_25217" data-name="Path 25217" d="M265.573,159.18a3.854,3.854,0,1,1-7.707,0,.954.954,0,0,1,.009-.16,3.8,3.8,0,0,1,.716-2.087,3.856,3.856,0,0,1,6.257,0,3.8,3.8,0,0,1,.717,2.087A1.073,1.073,0,0,1,265.573,159.18Z" fill="#fff"/>
                <path id="Path_25218" data-name="Path 25218" d="M265.067,155.748a3.166,3.166,0,0,1-.219,1.185,3.856,3.856,0,0,0-6.257,0,3.188,3.188,0,0,1-.222-1.185,3.349,3.349,0,0,1,6.7,0Z" fill="#fff"/>
                <path id="Path_25219" data-name="Path 25219" d="M264.566,152.311a2.762,2.762,0,0,1-.3,1.265,3.343,3.343,0,0,0-5.093,0,2.763,2.763,0,0,1-.3-1.265,2.847,2.847,0,0,1,5.694,0Z" fill="#fff"/>
                <path id="Path_25220" data-name="Path 25220" d="M264.059,148.872a2.327,2.327,0,0,1-.421,1.338,2.833,2.833,0,0,0-3.836,0,2.292,2.292,0,0,1-.422-1.338,2.339,2.339,0,0,1,4.679,0Z" fill="#fff"/>
                <path id="Path_25221" data-name="Path 25221" d="M263.558,145.438a1.834,1.834,0,0,1-.666,1.411,2.331,2.331,0,0,0-2.344,0,1.83,1.83,0,0,1,.27-3.009,1.809,1.809,0,0,1,1.8,0A1.832,1.832,0,0,1,263.558,145.438Z" fill="#fff"/>
              </g>
              <path id="Path_25222" data-name="Path 25222" d="M256.48,145.226a1.626,1.626,0,0,1-3.187.455,1.359,1.359,0,0,0,.034-.32,1.621,1.621,0,0,0-.064-.459v0a1.625,1.625,0,0,1,3.217.328Z" fill="#fff"/>
              <path id="Path_25223" data-name="Path 25223" d="M238.851,161.835a2.835,2.835,0,0,1-.174.987,2.935,2.935,0,1,1-4.045-3.629,2.877,2.877,0,0,1,1.28-.295,2.94,2.94,0,0,1,2.939,2.937Z" fill="#fff"/>
              <path id="Path_25224" data-name="Path 25224" d="M239.129,157.182a2.691,2.691,0,0,1-1.387,2.356,2.921,2.921,0,0,0-1.83-.64,2.877,2.877,0,0,0-1.28.295,2.615,2.615,0,0,1-.819-1.336,2.526,2.526,0,0,1-.089-.675,2.706,2.706,0,0,1,2.491-2.7h0c.069,0,.14-.008.208-.008a2.662,2.662,0,0,1,1.6.532,2.377,2.377,0,0,1,.353.315A2.682,2.682,0,0,1,239.129,157.182Z" fill="#fff"/>
              <path id="Path_25225" data-name="Path 25225" d="M240.878,152.628a2.7,2.7,0,0,1-2.5,2.694,2.651,2.651,0,0,0-1.955-.847c-.068,0-.139,0-.208.008h0a2.7,2.7,0,0,1,1.961-4.56h.013a2.694,2.694,0,0,1,2.6,2.015A2.457,2.457,0,0,1,240.878,152.628Z" fill="#fff"/>
              <path id="Path_25226" data-name="Path 25226" d="M243.112,149.462a2.476,2.476,0,0,1-2.327,2.476,2.694,2.694,0,0,0-2.6-2.015,2.319,2.319,0,0,1-.042-.461,2.48,2.48,0,0,1,4.207-1.782l0,0a2.464,2.464,0,0,1,.754,1.778Z" fill="#fff"/>
              <path id="Path_25227" data-name="Path 25227" d="M246.4,146.98v0a2.086,2.086,0,0,1-2.088,2.079,2.039,2.039,0,0,1-1.382-.532,2.434,2.434,0,0,0-.573-.847l0,0a2.013,2.013,0,0,1-.123-.7,2.081,2.081,0,0,1,3.845-1.1v0A2.02,2.02,0,0,1,246.4,146.98Z" fill="#fff"/>
              <path id="Path_25228" data-name="Path 25228" d="M249.849,145.922a1.887,1.887,0,0,1-3.448,1.062v0a2.02,2.02,0,0,0-.325-1.1v0a1.887,1.887,0,0,1,3.773.046Z" fill="#fff"/>
              <path id="Path_25229" data-name="Path 25229" d="M253.327,145.361a1.359,1.359,0,0,1-.034.32,1.756,1.756,0,1,1-.03-.783v0A1.621,1.621,0,0,1,253.327,145.361Z" fill="#fff"/>
              <path id="Path_25230" data-name="Path 25230" d="M232.79,149.464a1.457,1.457,0,1,1,1.457,1.457A1.457,1.457,0,0,1,232.79,149.464Z" fill="#fff"/>
              <path id="Path_25231" data-name="Path 25231" d="M229.078,149.464a1.856,1.856,0,1,1,1.856,1.856A1.856,1.856,0,0,1,229.078,149.464Z" fill="#fff"/>
              <path id="Path_25232" data-name="Path 25232" d="M225.363,150.21a1.857,1.857,0,1,1,1.856,1.856A1.858,1.858,0,0,1,225.363,150.21Z" fill="#fff"/>
              <path id="Path_25233" data-name="Path 25233" d="M221.437,151.07a1.963,1.963,0,1,1,1.964,1.962A1.965,1.965,0,0,1,221.437,151.07Z" fill="#fff"/>
              <path id="Path_25234" data-name="Path 25234" d="M217.473,152.946a2.21,2.21,0,1,1,2.209,2.21A2.211,2.211,0,0,1,217.473,152.946Z" fill="#fff"/>
              <path id="Path_25235" data-name="Path 25235" d="M214.389,156.076a2.21,2.21,0,1,1,2.209,2.21A2.21,2.21,0,0,1,214.389,156.076Z" fill="#fff"/>
              <path id="Path_25236" data-name="Path 25236" d="M211.327,160.551a2.864,2.864,0,1,1,2.863,2.864A2.863,2.863,0,0,1,211.327,160.551Z" fill="#fff"/>
              <path id="Path_25237" data-name="Path 25237" d="M210.733,166.628a3.213,3.213,0,1,1,3.213,3.214A3.214,3.214,0,0,1,210.733,166.628Z" fill="#fff"/>
              <path id="Path_25238" data-name="Path 25238" d="M266.959,145.226a1.626,1.626,0,0,0,3.187.455,1.359,1.359,0,0,1-.033-.32,1.658,1.658,0,0,1,.063-.459v0a1.625,1.625,0,0,0-3.217.328Z" fill="#fff"/>
              <path id="Path_25239" data-name="Path 25239" d="M284.589,161.835a2.936,2.936,0,1,0,4.219-2.642,2.882,2.882,0,0,0-1.281-.295,2.94,2.94,0,0,0-2.938,2.937Z" fill="#fff"/>
              <path id="Path_25240" data-name="Path 25240" d="M289.716,157.182a2.568,2.568,0,0,1-.09.675,2.607,2.607,0,0,1-.818,1.336,2.881,2.881,0,0,0-1.28-.295,2.919,2.919,0,0,0-1.83.64,2.693,2.693,0,0,1-.642-4.216,2.389,2.389,0,0,1,.355-.315,2.659,2.659,0,0,1,1.6-.532c.067,0,.139,0,.206.008h0A2.706,2.706,0,0,1,289.716,157.182Z" fill="#fff"/>
              <path id="Path_25241" data-name="Path 25241" d="M282.561,152.628a2.7,2.7,0,0,0,2.495,2.694,2.659,2.659,0,0,1,1.957-.847c.067,0,.139,0,.206.008h0a2.7,2.7,0,0,0-1.959-4.56h-.013a2.7,2.7,0,0,0-2.6,2.015A2.457,2.457,0,0,0,282.561,152.628Z" fill="#fff"/>
              <path id="Path_25242" data-name="Path 25242" d="M280.327,149.462a2.477,2.477,0,0,0,2.327,2.476,2.7,2.7,0,0,1,2.6-2.015,2.4,2.4,0,0,0,.042-.461,2.48,2.48,0,0,0-4.207-1.782l0,0a2.459,2.459,0,0,0-.755,1.778Z" fill="#fff"/>
              <path id="Path_25243" data-name="Path 25243" d="M277.039,146.98v0a2.084,2.084,0,0,0,2.086,2.079,2.039,2.039,0,0,0,1.383-.532,2.437,2.437,0,0,1,.574-.847l0,0a2.06,2.06,0,0,0,.122-.7,2.081,2.081,0,0,0-3.845-1.1v0A2.019,2.019,0,0,0,277.039,146.98Z" fill="#fff"/>
              <path id="Path_25244" data-name="Path 25244" d="M273.59,145.922a1.888,1.888,0,0,0,3.449,1.062v0a2.019,2.019,0,0,1,.324-1.1v0a1.887,1.887,0,0,0-3.773.046Z" fill="#fff"/>
              <path id="Path_25245" data-name="Path 25245" d="M270.113,145.361a1.359,1.359,0,0,0,.033.32,1.756,1.756,0,1,0,.03-.783v0A1.658,1.658,0,0,0,270.113,145.361Z" fill="#fff"/>
              <circle id="Ellipse_82" data-name="Ellipse 82" cx="1.457" cy="1.457" r="1.457" transform="translate(287.735 148.007)" fill="#fff"/>
              <path id="Path_25246" data-name="Path 25246" d="M294.362,149.464a1.857,1.857,0,1,0-1.856,1.856A1.856,1.856,0,0,0,294.362,149.464Z" fill="#fff"/>
              <path id="Path_25247" data-name="Path 25247" d="M298.076,150.21a1.857,1.857,0,1,0-1.857,1.856A1.858,1.858,0,0,0,298.076,150.21Z" fill="#fff"/>
              <path id="Path_25248" data-name="Path 25248" d="M302,151.07a1.963,1.963,0,1,0-1.963,1.962A1.964,1.964,0,0,0,302,151.07Z" fill="#fff"/>
              <path id="Path_25249" data-name="Path 25249" d="M305.967,152.946a2.211,2.211,0,1,0-2.211,2.21A2.211,2.211,0,0,0,305.967,152.946Z" fill="#fff"/>
              <path id="Path_25250" data-name="Path 25250" d="M309.051,156.076a2.21,2.21,0,1,0-2.211,2.21A2.211,2.211,0,0,0,309.051,156.076Z" fill="#fff"/>
              <path id="Path_25251" data-name="Path 25251" d="M312.113,160.551a2.864,2.864,0,1,0-2.865,2.864A2.864,2.864,0,0,0,312.113,160.551Z" fill="#fff"/>
              <circle id="Ellipse_83" data-name="Ellipse 83" cx="3.213" cy="3.213" r="3.213" transform="translate(306.28 163.415)" fill="#fff"/>
              <path id="Path_25252" data-name="Path 25252" d="M221.912,179.8a2.218,2.218,0,0,1-1.631,2.142,2.115,2.115,0,0,1-.6.085,2.224,2.224,0,0,1-1.732-3.621v0a2.229,2.229,0,0,1,3.962,1.4Z" fill="#fff"/>
              <path id="Path_25253" data-name="Path 25253" d="M227.819,178.541a1.258,1.258,0,1,1,1.259,1.256A1.259,1.259,0,0,1,227.819,178.541Z" fill="#fff"/>
              <path id="Path_25254" data-name="Path 25254" d="M246.931,176.473a1.257,1.257,0,1,1,1.257,1.256A1.257,1.257,0,0,1,246.931,176.473Z" fill="#fff"/>
              <path id="Path_25255" data-name="Path 25255" d="M305.982,179.8a2.223,2.223,0,0,1-2.225,2.227,2.108,2.108,0,0,1-.6-.085,2.223,2.223,0,1,1,2.823-2.142Z" fill="#fff"/>
              <path id="Path_25256" data-name="Path 25256" d="M295.62,178.541a1.257,1.257,0,1,0-1.258,1.256A1.258,1.258,0,0,0,295.62,178.541Z" fill="#fff"/>
              <path id="Path_25257" data-name="Path 25257" d="M276.509,176.473a1.258,1.258,0,1,0-1.258,1.256A1.258,1.258,0,0,0,276.509,176.473Z" fill="#fff"/>
              <path id="Path_25258" data-name="Path 25258" d="M239.129,175.92a2.191,2.191,0,0,1-.156.813,2.224,2.224,0,0,1-2.07,1.417,2.186,2.186,0,0,1-1.16-.329,2.226,2.226,0,1,1,3.386-1.9Z" fill="#fff"/>
              <path id="Path_25259" data-name="Path 25259" d="M288.767,175.922a2.229,2.229,0,1,0-2.229,2.228A2.228,2.228,0,0,0,288.767,175.922Z" fill="#fff"/>
              <path id="Path_25260" data-name="Path 25260" d="M263.945,173.445a2.225,2.225,0,1,1-2.225-2.226A2.209,2.209,0,0,1,263.945,173.445Z" fill="#fff"/>
            </g>
            <path id="Path_25261" data-name="Path 25261" d="M315.034,197.638v88.727a53.562,53.562,0,0,1-53.412,53.4h0a53.564,53.564,0,0,1-53.411-53.4V197.638Z" fill="#e60000"/>
            <g id="Group_7869" data-name="Group 7869">
              <path id="Path_25262" data-name="Path 25262" d="M307.926,302.472c.109.265.133.393.091.434-.374.373-.815-1.64-3.141.685a1.054,1.054,0,0,1-.6.329,1.556,1.556,0,0,1-.979-.264c-.8-.455-4.016-.207-5.061-.333.712,1.732,4.187,1.192,5.942,1.927,2.689,1.124.336,6.674.174,4.718-.185-2.245-.843.117-2.3-.547-.948-.432.049-1.04-1.255-1.933l-4.179-2.646c3.9,6.691,5.252,6.551,3.93,7.948.252,1.728-.444,2.789-1.745,3.922-.9.736.094-1.876-.784-3.121-5.117.567,2.4-10.885-10.495-11.066a1.665,1.665,0,0,1-1.533-1.744c-1.039-1.223-3.29.442-2.929-.316,2.265-4.765,8.962.688,9.082.688.268,0-1.136-1.538-6.307-6.975-1.137-5.855-1.613-4.548,1.352-5.167,6.068,6.25,6.078,10.049,8.435,11.6C300.092,303.535,305.982,297.706,307.926,302.472Z" fill="#ffc400"/>
            </g>
            <path id="Path_25263" data-name="Path 25263" d="M289.233,314.817c3.015-4.191-.309-5.577-1.392-7.389a.364.364,0,0,0-.633,0c-1.083,1.812-4.406,3.2-1.391,7.389-1.852-2.194-7.122-2.022-3.93,3.694.327-2.008,2.814-2.488,3.857.4-.9,0-1.025,1.875-.01,1.875,0,0-.292,1.5-2.4.815.1,2.378,3.315,1.365,4.045,3.12a.153.153,0,0,0,.293,0c.729-1.755,3.943-.742,4.044-3.12-2.108.685-2.4-.815-2.4-.815,1.016,0,.895-1.875-.01-1.875,1.112-3.073,3.556-2.242,3.856-.4C296.625,312.31,290.781,312.982,289.233,314.817Z" fill="#ffc400"/>
            <g id="Group_7870" data-name="Group 7870">
              <path id="Path_25264" data-name="Path 25264" d="M215.534,302.472c-.107.265-.131.393-.09.434.374.373.815-1.64,3.14.685a1.059,1.059,0,0,0,.6.329,1.552,1.552,0,0,0,.977-.264c.8-.455,4.017-.207,5.061-.333-.712,1.732-4.186,1.192-5.942,1.927-2.688,1.124-.335,6.674-.174,4.718.187-2.245.844.117,2.3-.547.948-.432-.048-1.04,1.255-1.933l4.181-2.646c-3.9,6.691-5.253,6.551-3.931,7.948-.251,1.728.445,2.789,1.745,3.922.9.736-.1-1.876.783-3.121,5.117.567-2.4-10.885,10.5-11.066a1.664,1.664,0,0,0,1.532-1.744c1.041-1.223,3.29.442,2.931-.316-2.267-4.765-8.964.688-9.083.688-.268,0,1.135-1.538,6.307-6.975,1.138-5.855,1.613-4.548-1.353-5.167-6.068,6.25-6.076,10.049-8.435,11.6C223.369,303.535,217.478,297.706,215.534,302.472Z" fill="#ffc400"/>
            </g>
            <path id="Path_25265" data-name="Path 25265" d="M313.319,242.235c0-31.8-12.666-42.757-19.309-39.059-4.957,2.759,15.373,3.3-11.346,31.691-.949-.122-11.949-4.468-8.486-17.883a4.147,4.147,0,0,0,.047-1.317l2.462-4.047,5.438-5.181c.073-.665.46-2.682.709-4.008s-1.763-1.495-3.586-1.495-5.162,1.331-6.9,2.034-5.456,2.242-6.719,2.206-1.358.315-1.379,2.045,2.254,1.377,2.254,1.377a38.091,38.091,0,0,0-4.776,15.921,38.1,38.1,0,0,0-4.778-15.921s2.276.352,2.255-1.377-.117-2.08-1.379-2.045-4.981-1.5-6.719-2.206-5.074-2.034-6.9-2.034-3.834.169-3.586,1.495.636,3.343.708,4.008l5.439,5.181,2.461,4.047a4.161,4.161,0,0,0,.048,1.317c3.462,13.415-7.536,17.761-8.487,17.883-26.719-28.394-6.389-28.932-11.345-31.691-6.643-3.7-19.31,7.259-19.31,39.059,0,26.335,7.376,36.661,3.568,57.521,17.145-5.938,23.491-25.94,23.363-29.151a12.373,12.373,0,0,0,1.869,4.27c-2.052,8.073-4.834,11.454-8.933,15.114,1.665,3.177,6.068,9.007,14.142,8.379a15.921,15.921,0,0,1,4.411-10.283s3.914,4.754,4.109,8.278c-3.855,6.4-10.865,34.456-10.659,34.575,4.658,2.708,13.16,3.786,19.72,3.786s15.06-1.078,19.718-3.786c.206-.119-6.8-28.178-10.659-34.575.195-3.524,4.11-8.278,4.11-8.278a15.918,15.918,0,0,1,4.412,10.283c8.074.628,12.476-5.2,14.14-8.379-4.1-3.66-6.88-7.041-8.931-15.114a12.394,12.394,0,0,0,1.867-4.27c-.128,3.211,6.218,23.213,23.363,29.151C305.945,278.9,313.319,268.57,313.319,242.235Z" fill="#fff"/>
            <path id="Path_25266" data-name="Path 25266" d="M234.228,314.817c-3.016-4.191.309-5.577,1.391-7.389a.365.365,0,0,1,.634,0c1.082,1.812,4.407,3.2,1.391,7.389,1.851-2.194,7.123-2.022,3.929,3.694-.327-2.008-2.812-2.488-3.856.4.9,0,1.025,1.875.009,1.875,0,0,.293,1.5,2.4.815-.1,2.378-3.315,1.365-4.044,3.12a.154.154,0,0,1-.294,0c-.729-1.755-3.942-.742-4.044-3.12,2.109.685,2.4-.815,2.4-.815-1.015,0-.894-1.875.01-1.875-1.112-3.073-3.556-2.242-3.857-.4C226.835,312.31,232.679,312.982,234.228,314.817Z" fill="#ffc400"/>
            <g id="Group_7871" data-name="Group 7871">
              <path id="Path_25267" data-name="Path 25267" d="M240.737,236.235v35.33c0,28,41.988,27.854,41.988,0v-35.33Z" fill="#e60000"/>
              <path id="Path_25268" data-name="Path 25268" d="M282.725,257.027H266.069V236.235h-8.663v20.792H240.737v8.663h16.669v26.416a23.559,23.559,0,0,0,8.663-.018v-26.4h16.656Z" fill="#fff"/>
              <path id="Path_25269" data-name="Path 25269" d="M244.258,242.363c-.572,4.364,4.5,4.64,4.45,1.62-.033-2.046-2.6-1.841-2.01.037-2.157-1.018-.36-3.983,3.086-2.794,1.881.65,1.116,2.793.438,4.181a2.771,2.771,0,0,0,0,2.436c.678,1.388,1.443,3.531-.438,4.179-3.446,1.19-5.243-1.774-3.086-2.793-.59,1.878,1.977,2.084,2.01.038.049-3.02-5.022-2.746-4.45,1.62.588,4.5,9.671,3.908,9.671-.131v-8.262C253.929,238.426,244.838,237.919,244.258,242.363Z" fill="#fff"/>
              <path id="Path_25270" data-name="Path 25270" d="M279.2,242.363c.571,4.364-4.5,4.64-4.452,1.62.034-2.046,2.6-1.841,2.01.037,2.157-1.018.36-3.983-3.084-2.794-1.883.65-1.117,2.793-.44,4.181a2.758,2.758,0,0,1,0,2.436c-.677,1.388-1.443,3.531.44,4.179,3.444,1.19,5.241-1.774,3.084-2.793.592,1.878-1.976,2.084-2.01.038-.047-3.02,5.023-2.746,4.452,1.62-.59,4.5-9.673,3.908-9.673-.131v-8.262C269.531,238.426,278.623,237.919,279.2,242.363Z" fill="#fff"/>
              <path id="Path_25271" data-name="Path 25271" d="M244.258,279.741c-.572-4.365,4.5-4.641,4.45-1.621-.033,2.047-2.6,1.841-2.01-.036-2.157,1.017-.36,3.981,3.086,2.793,1.881-.649,1.116-2.792.438-4.179a2.778,2.778,0,0,1,0-2.439c.678-1.386,1.443-3.529-.438-4.179-3.446-1.188-5.243,1.776-3.086,2.793-.59-1.877,1.977-2.083,2.01-.036.049,3.02-5.022,2.744-4.45-1.621.588-4.5,9.671-3.907,9.671.131v8.263C253.929,283.677,244.838,284.183,244.258,279.741Z" fill="#fff"/>
              <path id="Path_25272" data-name="Path 25272" d="M279.2,279.741c.571-4.365-4.5-4.641-4.452-1.621.034,2.047,2.6,1.841,2.01-.036,2.157,1.017.36,3.981-3.084,2.793-1.883-.649-1.117-2.792-.44-4.179a2.765,2.765,0,0,0,0-2.439c-.677-1.386-1.443-3.529.44-4.179,3.444-1.188,5.241,1.776,3.084,2.793.592-1.877-1.976-2.083-2.01-.036-.047,3.02,5.023,2.744,4.452-1.621-.59-4.5-9.673-3.907-9.673.131v8.263C269.531,283.677,278.623,284.183,279.2,279.741Z" fill="#fff"/>
            </g>
            <g id="Group_7872" data-name="Group 7872">
              <path id="Path_25273" data-name="Path 25273" d="M288.32,211.962c-2.224,2.489-4.584,3-7.276,2.031a25.694,25.694,0,0,0-4.556-1.058c2.775-2.47,1.344-1.173,3.44-1.532.565-.1,1.319-1.835,2.4-1.72,2.6.305,1.585,3.99,3.268,2.213,4.193-4.417,6.106-8.288.11-9.006-1.505-2.249-4.587.366-3.962,1.6-1.683,2.025-3.018,4.338-4.839,6.21C265.6,222.308,287.525,217.512,288.32,211.962Z" fill="#ffc400"/>
            </g>
            <g id="Group_7873" data-name="Group 7873">
              <path id="Path_25274" data-name="Path 25274" d="M235.141,211.962c2.224,2.489,4.584,3,7.275,2.031a25.755,25.755,0,0,1,4.556-1.058c-2.774-2.47-1.344-1.173-3.44-1.532-.565-.1-1.319-1.835-2.4-1.72-2.6.305-1.585,3.99-3.269,2.213-4.193-4.417-6.107-8.288-.11-9.006,1.5-2.249,4.588.366,3.962,1.6,1.682,2.025,3.017,4.338,4.839,6.21C257.858,222.308,235.937,217.512,235.141,211.962Z" fill="#ffc400"/>
            </g>
          </g>
        </g>
      </g>
    </g>
  </g>
</svg>
