<svg xmlns="http://www.w3.org/2000/svg" xmlns:xlink="http://www.w3.org/1999/xlink" width="419.51" height="289.167" viewBox="0 0 419.51 289.167">
  <defs>
    <linearGradient id="linear-gradient" y1="0.5" x2="1" y2="0.5" gradientUnits="objectBoundingBox">
      <stop offset="0" stop-color="#dab264"/>
      <stop offset="0.482" stop-color="#be895f"/>
      <stop offset="1" stop-color="#996a45"/>
    </linearGradient>
    <clipPath id="clip-path">
      <path id="Path_28141" data-name="Path 28141" d="M528.647,117.1a1819.437,1819.437,0,0,0-378.629,0A576.1,576.1,0,0,0,135.97,245.417a576.1,576.1,0,0,0,14.048,128.314,1823.376,1823.376,0,0,0,189.315,9.877,1823.356,1823.356,0,0,0,189.314-9.877A576.1,576.1,0,0,0,542.7,245.417,576.1,576.1,0,0,0,528.647,117.1Z" fill="none"/>
    </clipPath>
  </defs>
  <g id="Group_8313" data-name="Group 8313" transform="translate(-129.578 -101.424)">
    <path id="Path_26705" data-name="Path 26705" d="M339.325,390.591a1837.8,1837.8,0,0,1-189.978-9.912L144.8,380.2l-1.016-4.459a585.284,585.284,0,0,1-14.207-129.733,585.271,585.271,0,0,1,14.207-129.733l1.016-4.458,4.546-.48a1825.521,1825.521,0,0,1,379.971,0l4.547.48,1.016,4.458a585.329,585.329,0,0,1,14.207,129.733,585.343,585.343,0,0,1-14.207,129.733l-1.016,4.459-4.547.479a1837.766,1837.766,0,0,1-189.977,9.912Z" fill="url(#linear-gradient)"/>
    <g id="Group_8312" data-name="Group 8312">
      <g id="Group_8311" data-name="Group 8311" clip-path="url(#clip-path)">
        <g id="Group_8310" data-name="Group 8310">
          <g id="Group_8309" data-name="Group 8309">
            <g id="Group_8308" data-name="Group 8308">
              <g id="Group_8306" data-name="Group 8306">
                <path id="Path_28133" data-name="Path 28133" d="M33.511,100.293H645.156v291.43H33.511V100.293Z" fill="#fff"/>
                <path id="Path_28134" data-name="Path 28134" d="M645.333,391.9h-612V100.114h612ZM33.69,391.544H644.976V100.471H33.69Z" fill="#f3f3f4"/>
              </g>
              <g id="Group_8307" data-name="Group 8307">
                <path id="Path_28135" data-name="Path 28135" d="M384.543,266.086a49.711,49.711,0,1,1-89.682-42.814c-4.732,24.548,14.347,39.332,32,32.273,9.788-3.916,11.666-10.46,18.964-15.848,18.1-13.355,41.862,1.621,38.8,26.183a1.977,1.977,0,0,1-.09.206Z" fill="#0046d6"/>
                <path id="Path_28136" data-name="Path 28136" d="M339.043,196.356a49.709,49.709,0,0,1,45.59,69.524c3.058-24.562-20.7-39.538-38.8-26.183-7.3,5.388-9.176,11.932-18.964,15.848-17.657,7.059-36.736-7.725-32-32.273a49.714,49.714,0,0,1,44.182-26.916Z" fill="red"/>
                <path id="Path_28137" data-name="Path 28137" d="M246.294,213.772l27.634-41.417,6.855,4.6-27.624,41.417-6.865-4.6Zm10.131,6.94L284.054,179.3l6.856,4.593-27.626,41.419-6.859-4.6Zm-20.714-13.666,27.629-41.418,6.86,4.593L242.57,211.64l-6.859-4.594Z"/>
                <path id="Path_28138" data-name="Path 28138" d="M425.52,218.369,397.9,176.952l6.855-4.6,27.63,41.417-6.861,4.6ZM436.1,211.64l-12.87-19.3,6.865-4.581,12.866,19.284L436.1,211.64Zm-15.067-22.591-12.562-18.828,6.861-4.593,12.565,18.84-6.864,4.581Zm-5.641,36.259-12.8-19.2,6.861-4.581,12.795,19.181-6.854,4.6Zm-15-22.494-12.626-18.925,6.861-4.593,12.635,18.94-6.87,4.578Z"/>
                <path id="Path_28139" data-name="Path 28139" d="M422.249,271.3l-12.795,19.182-6.861-4.584,12.8-19.191,6.854,4.593ZM407.261,293.78l-12.635,18.942-6.861-4.591L400.391,289.2l6.87,4.584Zm35.7-8.807L430.1,304.251l-6.865-4.584L436.1,280.38l6.861,4.593ZM427.9,307.549l-12.565,18.846-6.861-4.6,12.562-18.829,6.864,4.58Zm4.481-29.309L419.669,297.3l-6.865-4.584,12.716-19.069,6.861,4.6ZM417.471,300.6l-12.72,19.064-6.855-4.6,12.7-19.052,6.874,4.584Z"/>
                <path id="Path_28140" data-name="Path 28140" d="M253.313,273.644l12.726,19.069-6.87,4.584L246.458,278.24l6.855-4.6Zm10.135-6.935,27.63,41.422-6.865,4.591L256.588,271.3l6.86-4.593ZM242.74,280.38,270.363,321.8l-6.86,4.6-27.628-41.422,6.865-4.593Zm25.5,15.631,12.711,19.052-6.86,4.6L261.371,300.6l6.865-4.584Z"/>
              </g>
            </g>
          </g>
        </g>
      </g>
    </g>
  </g>
</svg>
