<svg xmlns="http://www.w3.org/2000/svg" xmlns:xlink="http://www.w3.org/1999/xlink" width="406.202" height="164.965" viewBox="0 0 406.202 164.965">
  <defs>
    <clipPath id="clip-path">
      <path id="Path_8126" data-name="Path 8126" d="M814.162,478.41l-40.3-68.132,40.3-68.132H1106.4l40.3,68.132-40.3,68.132Z" fill="none"/>
    </clipPath>
  </defs>
  <g id="Group_840" data-name="Group 840" transform="translate(-757.18 -327.796)">
    <path id="Path_1751" data-name="Path 1751" d="M805.978,492.761h308.607l48.8-82.481-48.8-82.484H805.978l-48.8,82.484Z" fill="#fff"/>
    <path id="Path_1752" data-name="Path 1752" d="M814.162,342.147H1106.4l40.3,68.132-40.3,68.13H814.162l-40.3-68.13Z" fill="#80192e"/>
    <g id="Group_808" data-name="Group 808">
      <g id="Group_4806" data-name="Group 4806">
        <g id="Group_4805" data-name="Group 4805" clip-path="url(#clip-path)">
          <g id="Group_4804" data-name="Group 4804">
            <g id="Group_4803" data-name="Group 4803">
              <g id="Group_4802" data-name="Group 4802">
                <g id="Group_4800" data-name="Group 4800">
                  <path id="Path_8118" data-name="Path 8118" d="M765.895,317.659h388.774V502.9H765.895V317.659Z" fill="#fff"/>
                  <path id="Path_8119" data-name="Path 8119" d="M1154.781,503.011h-389V317.546h389Zm-388.772-.227h388.546V317.772H766.009Z" fill="#f3f3f4"/>
                </g>
                <g id="Group_4801" data-name="Group 4801">
                  <path id="Path_8120" data-name="Path 8120" d="M989.018,423.04a31.6,31.6,0,1,1-57-27.213c-3.007,15.6,9.119,25,20.342,20.514,6.222-2.489,7.416-6.649,12.055-10.074,11.507-8.488,26.608,1.03,24.664,16.643a1.062,1.062,0,0,1-.057.13Z" fill="#0046d6"/>
                  <path id="Path_8121" data-name="Path 8121" d="M960.1,378.719a31.6,31.6,0,0,1,28.978,44.191c1.944-15.613-13.157-25.131-24.664-16.643-4.639,3.425-5.833,7.585-12.055,10.074-11.223,4.486-23.349-4.911-20.342-20.514A31.6,31.6,0,0,1,960.1,378.719Z" fill="red"/>
                  <path id="Path_8122" data-name="Path 8122" d="M901.144,389.789l17.565-26.326,4.357,2.923-17.559,26.325-4.363-2.922Zm6.439,4.411,17.562-26.325,4.358,2.92-17.56,26.326-4.36-2.921Zm-13.166-8.686,17.562-26.327,4.36,2.92-17.562,26.327-4.36-2.92Z"/>
                  <path id="Path_8123" data-name="Path 8123" d="M1015.064,392.711l-17.559-26.325,4.358-2.923,17.562,26.326-4.361,2.922Zm6.726-4.277-8.18-12.266,4.364-2.912,8.177,12.258-4.361,2.92Zm-9.576-14.359-7.985-11.968,4.361-2.92,7.987,11.976-4.363,2.912Zm-3.586,23.046-8.137-12.2,4.361-2.912,8.132,12.192-4.356,2.921Zm-9.537-14.3L991.066,370.8l4.361-2.92,8.031,12.039-4.367,2.91Z"/>
                  <path id="Path_8124" data-name="Path 8124" d="M1012.984,426.356l-8.132,12.192-4.361-2.913,8.137-12.2,4.356,2.919Zm-9.526,14.287-8.031,12.04-4.361-2.918,8.025-12.035,4.367,2.913Zm22.693-5.6-8.177,12.254-4.364-2.913,8.18-12.259,4.361,2.918Zm-9.574,14.35-7.987,11.979-4.361-2.922,7.985-11.968,4.363,2.911Zm2.848-18.629-8.08,12.113-4.364-2.913,8.083-12.121,4.361,2.921Zm-9.477,14.209-8.085,12.118-4.358-2.921,8.073-12.11,4.37,2.913Z"/>
                  <path id="Path_8125" data-name="Path 8125" d="M905.6,427.845l8.089,12.121-4.366,2.913-8.08-12.113,4.357-2.921Zm6.443-4.408,17.562,26.328-4.364,2.918-17.559-26.327,4.361-2.919Zm-13.163,8.69,17.558,26.325-4.36,2.922-17.562-26.329,4.364-2.918Zm16.206,9.935,8.079,12.11-4.36,2.921-8.083-12.118,4.364-2.913Z"/>
                </g>
              </g>
            </g>
          </g>
        </g>
      </g>
    </g>
  </g>
</svg>
