<svg xmlns="http://www.w3.org/2000/svg" xmlns:xlink="http://www.w3.org/1999/xlink" width="419.51" height="289.166" viewBox="0 0 419.51 289.166">
  <defs>
    <linearGradient id="linear-gradient" y1="0.5" x2="1" y2="0.5" gradientUnits="objectBoundingBox">
      <stop offset="0" stop-color="#dab264"/>
      <stop offset="0.482" stop-color="#be895f"/>
      <stop offset="1" stop-color="#996a45"/>
    </linearGradient>
    <clipPath id="clip-path">
      <path id="Path_9221" data-name="Path 9221" d="M456.647,219.1a1819.438,1819.438,0,0,0-378.629,0A576.1,576.1,0,0,0,63.97,347.417,576.1,576.1,0,0,0,78.018,475.731a1823.376,1823.376,0,0,0,189.315,9.877,1823.357,1823.357,0,0,0,189.314-9.877A576.1,576.1,0,0,0,470.7,347.417,576.1,576.1,0,0,0,456.647,219.1Z" fill="none"/>
    </clipPath>
  </defs>
  <g id="Group_5010" data-name="Group 5010" transform="translate(-57.578 -203.53)">
    <path id="Path_9115" data-name="Path 9115" d="M267.325,492.7a1837.528,1837.528,0,0,1-189.978-9.912L72.8,482.3l-1.016-4.459a599.435,599.435,0,0,1,0-259.465l1.016-4.459,4.546-.479a1825.521,1825.521,0,0,1,379.971,0l4.547.479,1.016,4.459a585.325,585.325,0,0,1,14.207,129.733,585.329,585.329,0,0,1-14.207,129.732l-1.016,4.459-4.547.479A1837.493,1837.493,0,0,1,267.341,492.7Z" fill="url(#linear-gradient)"/>
    <g id="Group_5009" data-name="Group 5009">
      <g id="Group_5008" data-name="Group 5008" clip-path="url(#clip-path)">
        <g id="Group_5007" data-name="Group 5007">
          <rect id="Rectangle_748" data-name="Rectangle 748" width="221.53" height="157.582" transform="translate(57.166 201.786)" fill="#0437a0"/>
          <rect id="Rectangle_749" data-name="Rectangle 749" width="581.304" height="22.511" transform="translate(278.696 201.786)" fill="#e60000"/>
          <rect id="Rectangle_750" data-name="Rectangle 750" width="581.304" height="22.511" transform="translate(278.696 224.298)" fill="#fff"/>
          <rect id="Rectangle_751" data-name="Rectangle 751" width="581.304" height="22.511" transform="translate(278.696 246.809)" fill="#e60000"/>
          <rect id="Rectangle_752" data-name="Rectangle 752" width="581.304" height="22.513" transform="translate(278.696 269.321)" fill="#fff"/>
          <rect id="Rectangle_753" data-name="Rectangle 753" width="581.304" height="22.511" transform="translate(278.696 291.834)" fill="#e60000"/>
          <rect id="Rectangle_754" data-name="Rectangle 754" width="581.304" height="22.511" transform="translate(278.696 314.345)" fill="#fff"/>
          <rect id="Rectangle_755" data-name="Rectangle 755" width="581.304" height="22.511" transform="translate(278.696 336.857)" fill="#e60000"/>
          <rect id="Rectangle_756" data-name="Rectangle 756" width="802.834" height="22.513" transform="translate(57.166 359.368)" fill="#fff"/>
          <rect id="Rectangle_757" data-name="Rectangle 757" width="802.834" height="22.511" transform="translate(57.166 381.881)" fill="#e60000"/>
          <rect id="Rectangle_758" data-name="Rectangle 758" width="802.834" height="22.511" transform="translate(57.166 404.392)" fill="#fff"/>
          <rect id="Rectangle_759" data-name="Rectangle 759" width="802.834" height="22.511" transform="translate(57.166 426.904)" fill="#e60000"/>
          <rect id="Rectangle_760" data-name="Rectangle 760" width="802.834" height="22.511" transform="translate(57.166 449.415)" fill="#fff"/>
          <rect id="Rectangle_761" data-name="Rectangle 761" width="802.834" height="22.513" transform="translate(57.166 471.927)" fill="#e60000"/>
          <g id="Group_5006" data-name="Group 5006">
            <g id="Group_4997" data-name="Group 4997">
              <path id="Path_9171" data-name="Path 9171" d="M93.76,225.667l1.932,5.945h6.251l-5.056,3.674,1.932,5.945-5.058-3.674L88.7,241.232l1.932-5.945-5.058-3.674h6.251Z" fill="#fff"/>
              <path id="Path_9172" data-name="Path 9172" d="M130.845,225.667l1.932,5.945h6.251l-5.058,3.674,1.933,5.945-5.058-3.674-5.058,3.674,1.932-5.945-5.056-3.674h6.251Z" fill="#fff"/>
              <path id="Path_9173" data-name="Path 9173" d="M167.932,225.667l1.932,5.945h6.251l-5.058,3.674,1.932,5.945-5.056-3.674-5.058,3.674,1.932-5.945-5.057-3.674H166Z" fill="#fff"/>
              <path id="Path_9174" data-name="Path 9174" d="M205.016,225.667l1.932,5.945H213.2l-5.056,3.674,1.932,5.945-5.058-3.674-5.057,3.674,1.932-5.945-5.058-3.674h6.251Z" fill="#fff"/>
              <path id="Path_9175" data-name="Path 9175" d="M242.1,225.667l1.932,5.945h6.251l-5.058,3.674,1.932,5.945-5.057-3.674-5.058,3.674,1.932-5.945-5.056-3.674h6.251Z" fill="#fff"/>
            </g>
            <g id="Group_4998" data-name="Group 4998">
              <path id="Path_9176" data-name="Path 9176" d="M75.217,209.958l1.932,5.945H83.4l-5.056,3.674,1.932,5.945-5.058-3.674-5.056,3.674,1.932-5.945L67.034,215.9h6.251Z" fill="#fff"/>
              <path id="Path_9177" data-name="Path 9177" d="M112.3,209.958l1.932,5.945h6.251l-5.058,3.674,1.932,5.945-5.057-3.674-5.058,3.674,1.932-5.945L104.12,215.9h6.251Z" fill="#fff"/>
              <path id="Path_9178" data-name="Path 9178" d="M149.388,209.958l1.932,5.945h6.251l-5.057,3.674,1.932,5.945-5.058-3.674-5.056,3.674,1.932-5.945L141.2,215.9h6.251Z" fill="#fff"/>
              <path id="Path_9179" data-name="Path 9179" d="M186.474,209.958l1.932,5.945h6.251l-5.058,3.674,1.932,5.945-5.056-3.674-5.058,3.674,1.932-5.945-5.057-3.674h6.251Z" fill="#fff"/>
              <path id="Path_9180" data-name="Path 9180" d="M223.558,209.958l1.932,5.945h6.251l-5.056,3.674,1.932,5.945-5.058-3.674-5.057,3.674,1.932-5.945-5.058-3.674h6.251Z" fill="#fff"/>
              <path id="Path_9181" data-name="Path 9181" d="M260.644,209.958l1.932,5.945h6.251l-5.058,3.674,1.933,5.945-5.058-3.674-5.058,3.674,1.933-5.945-5.058-3.674h6.251Z" fill="#fff"/>
            </g>
            <g id="Group_4999" data-name="Group 4999">
              <path id="Path_9182" data-name="Path 9182" d="M93.76,257.086l1.932,5.945h6.251l-5.056,3.674,1.932,5.945-5.058-3.674L88.7,272.65l1.932-5.945-5.058-3.674h6.251Z" fill="#fff"/>
              <path id="Path_9183" data-name="Path 9183" d="M130.845,257.086l1.932,5.945h6.251l-5.058,3.674,1.933,5.945-5.058-3.674-5.058,3.674,1.932-5.945-5.056-3.674h6.251Z" fill="#fff"/>
              <path id="Path_9184" data-name="Path 9184" d="M167.932,257.086l1.932,5.945h6.251l-5.058,3.674,1.932,5.945-5.056-3.674-5.058,3.674,1.932-5.945-5.057-3.674H166Z" fill="#fff"/>
              <path id="Path_9185" data-name="Path 9185" d="M205.016,257.086l1.932,5.945H213.2l-5.056,3.674,1.932,5.945-5.058-3.674-5.057,3.674,1.932-5.945-5.058-3.674h6.251Z" fill="#fff"/>
              <path id="Path_9186" data-name="Path 9186" d="M242.1,257.086l1.932,5.945h6.251l-5.058,3.674,1.932,5.945-5.057-3.674-5.058,3.674,1.932-5.945-5.056-3.674h6.251Z" fill="#fff"/>
            </g>
            <g id="Group_5000" data-name="Group 5000">
              <path id="Path_9187" data-name="Path 9187" d="M75.217,241.376l1.932,5.945H83.4L78.344,251l1.932,5.945-5.058-3.674-5.056,3.674L72.092,251l-5.058-3.674h6.251Z" fill="#fff"/>
              <path id="Path_9188" data-name="Path 9188" d="M112.3,241.376l1.932,5.945h6.251L115.428,251l1.932,5.945-5.057-3.674-5.058,3.674L109.177,251l-5.056-3.674h6.251Z" fill="#fff"/>
              <path id="Path_9189" data-name="Path 9189" d="M149.388,241.376l1.932,5.945h6.251L152.514,251l1.932,5.945-5.058-3.674-5.056,3.674L146.263,251l-5.058-3.674h6.251Z" fill="#fff"/>
              <path id="Path_9190" data-name="Path 9190" d="M186.474,241.376l1.932,5.945h6.251L189.6,251l1.932,5.945-5.056-3.674-5.058,3.674L183.348,251l-5.057-3.674h6.251Z" fill="#fff"/>
              <path id="Path_9191" data-name="Path 9191" d="M223.558,241.376l1.932,5.945h6.251L226.685,251l1.932,5.945-5.058-3.674-5.057,3.674L220.433,251l-5.058-3.674h6.251Z" fill="#fff"/>
              <path id="Path_9192" data-name="Path 9192" d="M260.644,241.376l1.932,5.945h6.251L263.769,251l1.933,5.945-5.058-3.674-5.058,3.674L257.52,251l-5.058-3.674h6.251Z" fill="#fff"/>
            </g>
            <g id="Group_5001" data-name="Group 5001">
              <path id="Path_9193" data-name="Path 9193" d="M93.76,288.5l1.932,5.945h6.251l-5.056,3.674,1.932,5.945-5.058-3.674L88.7,304.069l1.932-5.945-5.058-3.674h6.251Z" fill="#fff"/>
              <path id="Path_9194" data-name="Path 9194" d="M130.845,288.5l1.932,5.945h6.251l-5.058,3.674,1.933,5.945-5.058-3.674-5.058,3.674,1.932-5.945-5.056-3.674h6.251Z" fill="#fff"/>
              <path id="Path_9195" data-name="Path 9195" d="M167.932,288.5l1.932,5.945h6.251l-5.058,3.674,1.932,5.945-5.056-3.674-5.058,3.674,1.932-5.945-5.057-3.674H166Z" fill="#fff"/>
              <path id="Path_9196" data-name="Path 9196" d="M205.016,288.5l1.932,5.945H213.2l-5.056,3.674,1.932,5.945-5.058-3.674-5.057,3.674,1.932-5.945-5.058-3.674h6.251Z" fill="#fff"/>
              <path id="Path_9197" data-name="Path 9197" d="M242.1,288.5l1.932,5.945h6.251l-5.058,3.674,1.932,5.945-5.057-3.674-5.058,3.674,1.932-5.945-5.056-3.674h6.251Z" fill="#fff"/>
            </g>
            <g id="Group_5002" data-name="Group 5002">
              <path id="Path_9198" data-name="Path 9198" d="M75.217,272.795l1.932,5.945H83.4l-5.056,3.674,1.932,5.945-5.058-3.674-5.056,3.674,1.932-5.945-5.058-3.674h6.251Z" fill="#fff"/>
              <path id="Path_9199" data-name="Path 9199" d="M112.3,272.795l1.932,5.945h6.251l-5.058,3.674,1.932,5.945-5.057-3.674-5.058,3.674,1.932-5.945-5.056-3.674h6.251Z" fill="#fff"/>
              <path id="Path_9200" data-name="Path 9200" d="M149.388,272.795l1.932,5.945h6.251l-5.057,3.674,1.932,5.945-5.058-3.674-5.056,3.674,1.932-5.945L141.2,278.74h6.251Z" fill="#fff"/>
              <path id="Path_9201" data-name="Path 9201" d="M186.474,272.795l1.932,5.945h6.251l-5.058,3.674,1.932,5.945-5.056-3.674-5.058,3.674,1.932-5.945-5.057-3.674h6.251Z" fill="#fff"/>
              <path id="Path_9202" data-name="Path 9202" d="M223.558,272.795l1.932,5.945h6.251l-5.056,3.674,1.932,5.945-5.058-3.674L218.5,288.36l1.932-5.945-5.058-3.674h6.251Z" fill="#fff"/>
              <path id="Path_9203" data-name="Path 9203" d="M260.644,272.795l1.932,5.945h6.251l-5.058,3.674,1.933,5.945-5.058-3.674-5.058,3.674,1.933-5.945-5.058-3.674h6.251Z" fill="#fff"/>
            </g>
            <g id="Group_5003" data-name="Group 5003">
              <path id="Path_9204" data-name="Path 9204" d="M93.76,319.923l1.932,5.945h6.251l-5.056,3.674,1.932,5.945-5.058-3.674L88.7,335.487l1.932-5.945-5.058-3.674h6.251Z" fill="#fff"/>
              <path id="Path_9205" data-name="Path 9205" d="M130.845,319.923l1.932,5.945h6.251l-5.058,3.674,1.933,5.945-5.058-3.674-5.058,3.674,1.932-5.945-5.056-3.674h6.251Z" fill="#fff"/>
              <path id="Path_9206" data-name="Path 9206" d="M167.932,319.923l1.932,5.945h6.251l-5.058,3.674,1.932,5.945-5.056-3.674-5.058,3.674,1.932-5.945-5.057-3.674H166Z" fill="#fff"/>
              <path id="Path_9207" data-name="Path 9207" d="M205.016,319.923l1.932,5.945H213.2l-5.056,3.674,1.932,5.945-5.058-3.674-5.057,3.674,1.932-5.945-5.058-3.674h6.251Z" fill="#fff"/>
              <path id="Path_9208" data-name="Path 9208" d="M242.1,319.923l1.932,5.945h6.251l-5.058,3.674,1.932,5.945-5.057-3.674-5.058,3.674,1.932-5.945-5.056-3.674h6.251Z" fill="#fff"/>
            </g>
            <g id="Group_5004" data-name="Group 5004">
              <path id="Path_9209" data-name="Path 9209" d="M75.217,304.213l1.932,5.945H83.4l-5.056,3.674,1.932,5.945L75.217,316.1l-5.056,3.674,1.932-5.945-5.058-3.674h6.251Z" fill="#fff"/>
              <path id="Path_9210" data-name="Path 9210" d="M112.3,304.213l1.932,5.945h6.251l-5.058,3.674,1.932,5.945L112.3,316.1l-5.058,3.674,1.932-5.945-5.056-3.674h6.251Z" fill="#fff"/>
              <path id="Path_9211" data-name="Path 9211" d="M149.388,304.213l1.932,5.945h6.251l-5.057,3.674,1.932,5.945-5.058-3.674-5.056,3.674,1.932-5.945-5.058-3.674h6.251Z" fill="#fff"/>
              <path id="Path_9212" data-name="Path 9212" d="M186.474,304.213l1.932,5.945h6.251l-5.058,3.674,1.932,5.945-5.056-3.674-5.058,3.674,1.932-5.945-5.057-3.674h6.251Z" fill="#fff"/>
              <path id="Path_9213" data-name="Path 9213" d="M223.558,304.213l1.932,5.945h6.251l-5.056,3.674,1.932,5.945-5.058-3.674-5.057,3.674,1.932-5.945-5.058-3.674h6.251Z" fill="#fff"/>
              <path id="Path_9214" data-name="Path 9214" d="M260.644,304.213l1.932,5.945h6.251l-5.058,3.674,1.933,5.945-5.058-3.674-5.058,3.674,1.933-5.945-5.058-3.674h6.251Z" fill="#fff"/>
            </g>
            <g id="Group_5005" data-name="Group 5005">
              <path id="Path_9215" data-name="Path 9215" d="M75.217,335.632l1.932,5.945H83.4l-5.056,3.674,1.932,5.945-5.058-3.674L70.161,351.2l1.932-5.945-5.058-3.674h6.251Z" fill="#fff"/>
              <path id="Path_9216" data-name="Path 9216" d="M112.3,335.632l1.932,5.945h6.251l-5.058,3.674,1.932,5.945-5.057-3.674-5.058,3.674,1.932-5.945-5.056-3.674h6.251Z" fill="#fff"/>
              <path id="Path_9217" data-name="Path 9217" d="M149.388,335.632l1.932,5.945h6.251l-5.057,3.674,1.932,5.945-5.058-3.674-5.056,3.674,1.932-5.945-5.058-3.674h6.251Z" fill="#fff"/>
              <path id="Path_9218" data-name="Path 9218" d="M186.474,335.632l1.932,5.945h6.251l-5.058,3.674,1.932,5.945-5.056-3.674-5.058,3.674,1.932-5.945-5.057-3.674h6.251Z" fill="#fff"/>
              <path id="Path_9219" data-name="Path 9219" d="M223.558,335.632l1.932,5.945h6.251l-5.056,3.674,1.932,5.945-5.058-3.674L218.5,351.2l1.932-5.945-5.058-3.674h6.251Z" fill="#fff"/>
              <path id="Path_9220" data-name="Path 9220" d="M260.644,335.632l1.932,5.945h6.251l-5.058,3.674L265.7,351.2l-5.058-3.674-5.058,3.674,1.933-5.945-5.058-3.674h6.251Z" fill="#fff"/>
            </g>
          </g>
        </g>
      </g>
    </g>
  </g>
</svg>
